<svg xmlns="http://www.w3.org/2000/svg" viewBox="0 0 112.6 62.17">
  <g>
    <path d="M88.44,57.47H68.61V54.72H88.44a21.41,21.41,0,1,0,0-42.81H0L18.65,0l1.48,2.32L9.42,9.16h79a24.16,24.16,0,1,1,0,48.31Z" fill="#fff"/>
    <g>
      <path d="M13.77,61.35a2.7,2.7,0,0,0,1.06-.2,1.11,1.11,0,0,0,.54-1.08V51.26a1.11,1.11,0,0,0-.5-1.07,2.92,2.92,0,0,0-1.1-.21v-.46h5.62a8.26,8.26,0,0,1,2.7.37,2.6,2.6,0,0,1,2,2.56,2.17,2.17,0,0,1-.82,1.79,4,4,0,0,1-1.78.84v.17a5.19,5.19,0,0,1,1.76.65,2.88,2.88,0,0,1,.06,5,6.52,6.52,0,0,1-3.71.94H13.77Zm6.77-6.87a2.61,2.61,0,0,0,.58-1.95,3.71,3.71,0,0,0-.38-1.75,1.5,1.5,0,0,0-1.45-.71,1.22,1.22,0,0,0-.79.19.88.88,0,0,0-.22.69V55A3.34,3.34,0,0,0,20.54,54.48Zm-2.12,6.35a.89.89,0,0,0,.85.39,2.11,2.11,0,0,0,1.81-.7,3.36,3.36,0,0,0,.52-2A2.66,2.66,0,0,0,20.45,56a4.52,4.52,0,0,0-2.17-.37v4.55A1.39,1.39,0,0,0,18.42,60.83Z" fill="#fff"/>
      <path d="M25.67,61.35a1.34,1.34,0,0,0,1-.6,7.69,7.69,0,0,0,.74-1.53l4-9.95H32l4.06,9.55a11.85,11.85,0,0,0,1,2.08,1.07,1.07,0,0,0,1,.45v.46H32.16v-.46a4.82,4.82,0,0,0,1.17-.15c.18-.08.28-.28.28-.59a2.26,2.26,0,0,0-.15-.65,4.76,4.76,0,0,0-.24-.62l-.46-1.1H28.68c-.27.72-.44,1.19-.52,1.41a3.66,3.66,0,0,0-.24,1c0,.26.18.45.53.57a3.34,3.34,0,0,0,.93.11v.46H25.67Zm6.83-3.83-1.75-4.21h-.16L29,57.52Z" fill="#fff"/>
      <path d="M47.53,49.71a9.56,9.56,0,0,0,1.3.42.68.68,0,0,0,.56-.27,1.37,1.37,0,0,0,.26-.56h.5v4.26h-.46a9.91,9.91,0,0,0-1.34-2.19,3.76,3.76,0,0,0-2.89-1.47,2.65,2.65,0,0,0-2.59,1.58,9.63,9.63,0,0,0-.77,4.23,9.68,9.68,0,0,0,.45,3.21,3.13,3.13,0,0,0,3.13,2.36,4.7,4.7,0,0,0,2.61-.78,9.51,9.51,0,0,0,1.63-1.44l.54.44a10.19,10.19,0,0,1-1.87,1.72,5.62,5.62,0,0,1-3.2,1,6.59,6.59,0,0,1-4.51-1.6,6,6,0,0,1-2-4.76A6.36,6.36,0,0,1,40.79,51a6.2,6.2,0,0,1,4.44-1.72A6.71,6.71,0,0,1,47.53,49.71Z" fill="#fff"/>
      <path d="M51.51,61.35a2.66,2.66,0,0,0,1.06-.2,1.11,1.11,0,0,0,.52-1.08V51.26a1.11,1.11,0,0,0-.48-1.06,2.75,2.75,0,0,0-1.1-.22v-.46h6.16V50a2.41,2.41,0,0,0-1.27.35c-.22.19-.33.62-.33,1.31v3.9l3.91-4a5,5,0,0,0,.53-.58.7.7,0,0,0,.12-.42.42.42,0,0,0-.31-.44A6.17,6.17,0,0,0,59.1,50v-.46h5.26V50a4.48,4.48,0,0,0-2.34.8,37.49,37.49,0,0,0-3.51,3.33L64.06,61a.77.77,0,0,0,.35.28,3.1,3.1,0,0,0,.54.1v.46h-6.1v-.46A7.86,7.86,0,0,0,60,61.28c.2-.05.3-.15.3-.32a.62.62,0,0,0-.1-.29,3.7,3.7,0,0,0-.34-.5L56.53,56l-.46.47v3.56a1.11,1.11,0,0,0,.53,1.07,2.71,2.71,0,0,0,1,.21v.46H51.51Z" fill="#fff"/>
    </g>
  </g>
</svg>
