<svg xmlns="http://www.w3.org/2000/svg" viewBox="0 0 73.98 86.83">
  <g>
    <path d="M71.66,27.17l-2.82,5.35a34.37,34.37,0,1,0-8.91,25.14L58,55.9A31.83,31.83,0,0,1,2.68,36.26,31.82,31.82,0,1,1,66.26,33.5l-3.74-6.58-2.28,1.29,7.17,12.65L74,28.39Z" fill="#fff"/>
    <g>
      <path d="M5,86.11a2.08,2.08,0,0,0,1.26-.35,1.78,1.78,0,0,0,.34-1.31v-8A1.72,1.72,0,0,0,6.24,75,2.54,2.54,0,0,0,5,74.74v-.46h5.85a9.52,9.52,0,0,1,2.95.38A2.82,2.82,0,0,1,16,77.44a2.72,2.72,0,0,1-1.15,2.33,4.43,4.43,0,0,1-1.85.82l3.87,5.18a.76.76,0,0,0,.32.28,1.49,1.49,0,0,0,.42.08v.44h-3.8L9.6,80.88h0v3.57a1.91,1.91,0,0,0,.32,1.29,1.94,1.94,0,0,0,1.28.37v.46H5Zm7.1-6.31c.51-.32.77-1,.77-2.2a4,4,0,0,0-.29-1.67,1.88,1.88,0,0,0-1.85-1,1.66,1.66,0,0,0-.95.18.7.7,0,0,0-.23.6V80.3A5.33,5.33,0,0,0,12.14,79.8Z" fill="#fff"/>
      <path d="M18.54,86.57v-.46a2.52,2.52,0,0,0,1.11-.22,1.1,1.1,0,0,0,.51-1.06V76A1.09,1.09,0,0,0,19.63,75a2.82,2.82,0,0,0-1.09-.21v-.46H29V78h-.44a4,4,0,0,0-1.18-2.41,5.15,5.15,0,0,0-3-.65,2.16,2.16,0,0,0-1.07.17.85.85,0,0,0-.22.69V80a2.84,2.84,0,0,0,2.1-.56A4.38,4.38,0,0,0,26,77.27h.46v6.15H26a3.88,3.88,0,0,0-.8-2.19,2.88,2.88,0,0,0-2.15-.64V85a.89.89,0,0,0,.3.78,2.32,2.32,0,0,0,1.22.21,5.38,5.38,0,0,0,2.84-.67,5.67,5.67,0,0,0,1.95-2.53h.51l-.74,3.78Z" fill="#fff"/>
      <path d="M31.38,82.32h.53a5.65,5.65,0,0,0,1.4,3,3.13,3.13,0,0,0,2.22.92,2,2,0,0,0,2.24-2,1.76,1.76,0,0,0-.54-1.33A6.16,6.16,0,0,0,35.8,82l-1.16-.59a7.6,7.6,0,0,1-2.43-1.72,3.15,3.15,0,0,1-.71-2.11,3.85,3.85,0,0,1,.94-2.49A3.47,3.47,0,0,1,35.31,74a6.11,6.11,0,0,1,1.91.3,7.65,7.65,0,0,0,1.05.3.46.46,0,0,0,.41-.17,1.52,1.52,0,0,0,.19-.46h.54v4H38.9a5.42,5.42,0,0,0-1.25-2.37,2.84,2.84,0,0,0-2.18-1A2,2,0,0,0,34,75a1.79,1.79,0,0,0,0,2.51,11.85,11.85,0,0,0,2.16,1.28l1.34.67a5.53,5.53,0,0,1,1.44,1,3.46,3.46,0,0,1,1,2.5,3.87,3.87,0,0,1-1.07,2.6,4.34,4.34,0,0,1-3.43,1.22,5.84,5.84,0,0,1-1.09-.11,5.48,5.48,0,0,1-1.1-.31l-.35-.13-.23-.06a.75.75,0,0,0-.2,0,.42.42,0,0,0-.38.16,1.65,1.65,0,0,0-.18.47h-.53Z" fill="#fff"/>
      <path d="M41.51,86.57v-.46a2.48,2.48,0,0,0,1.11-.22,1.1,1.1,0,0,0,.51-1.06V76A1.09,1.09,0,0,0,42.61,75a2.92,2.92,0,0,0-1.1-.21v-.46H52V78h-.44a3.87,3.87,0,0,0-1.18-2.41,5.13,5.13,0,0,0-3-.65,2.09,2.09,0,0,0-1.06.17.85.85,0,0,0-.23.69V80a2.86,2.86,0,0,0,2.11-.56A4.49,4.49,0,0,0,49,77.27h.46v6.15H49a3.88,3.88,0,0,0-.8-2.19,2.86,2.86,0,0,0-2.15-.64V85a.89.89,0,0,0,.3.78,2.35,2.35,0,0,0,1.22.21,5.36,5.36,0,0,0,2.84-.67,5.62,5.62,0,0,0,2-2.53h.5l-.74,3.78Z" fill="#fff"/>
      <path d="M54.2,74.28h11V78h-.52a3.34,3.34,0,0,0-1.47-2.67,4.74,4.74,0,0,0-2.05-.42v9.58a1.89,1.89,0,0,0,.35,1.34,2.25,2.25,0,0,0,1.46.33v.46H56.45v-.46a2.11,2.11,0,0,0,1.42-.34,1.86,1.86,0,0,0,.35-1.33V74.86a4.79,4.79,0,0,0-2,.42A3.09,3.09,0,0,0,54.7,78h-.52Z" fill="#fff"/>
    </g>
  </g>
</svg>
