<svg xmlns="http://www.w3.org/2000/svg" viewBox="0 0 1088.66 161.28">
  <g>
    <g>
      <path d="M46.19,94.07a43.91,43.91,0,0,0,7.3,13.18,22.85,22.85,0,0,0,18.13,8.57,14.93,14.93,0,0,0,10.13-3.71c2.84-2.48,4.28-5.93,4.28-10.37a14.47,14.47,0,0,0-4.31-10.42q-2.81-2.82-11.84-8.44L59.42,76.33a37,37,0,0,1-7.55-6,18.82,18.82,0,0,1-5.21-12.82A21,21,0,0,1,52.84,42Q59,35.84,69.19,35.85a31.49,31.49,0,0,1,10.1,2.07A43.43,43.43,0,0,0,86,40a3.87,3.87,0,0,0,3.15-1.08,8,8,0,0,0,1.34-3H93L95.73,62H92.79q-3-11.8-9.61-16.48T70.09,40.82a13.76,13.76,0,0,0-8.78,3A10,10,0,0,0,57.57,52a12.09,12.09,0,0,0,2.87,8.1,37.19,37.19,0,0,0,8.92,7.13l10.77,6.63Q90.26,80.11,94.4,85.33a19.69,19.69,0,0,1,4.09,12.46,20.71,20.71,0,0,1-7.28,16.12q-7.27,6.47-18.6,6.46a36.14,36.14,0,0,1-11.9-2.15,45.52,45.52,0,0,0-7.09-2.17,3,3,0,0,0-2.91,1.33,8.72,8.72,0,0,0-1,2.81H47L43.37,94.07Z" fill="#fff"/>
      <path d="M115.37,70.8q7.57-8.23,19.49-8.23t19.65,7.78q7.8,7.8,7.8,20.74a30.86,30.86,0,0,1-7.55,20.72,24.56,24.56,0,0,1-19.53,8.8,25.71,25.71,0,0,1-19.47-8.45q-8-8.44-8-21.2A28.71,28.71,0,0,1,115.37,70.8Zm9.57-1.52q-6,5.44-6,18.81A42.23,42.23,0,0,0,123.76,108q4.84,9.23,13.41,9.23c4.5,0,7.94-2.06,10.36-6.17s3.63-9.51,3.63-16.18a42.8,42.8,0,0,0-4.62-19.53c-3.09-6.11-7.54-9.17-13.39-9.17A11.88,11.88,0,0,0,124.94,69.28Z" fill="#fff"/>
      <path d="M164.71,116.78c3.68-.32,6.11-1,7.31-2s1.8-3.06,1.8-6.26v-27c0-4-.38-6.79-1.11-8.49a4,4,0,0,0-4-2.53,12.1,12.1,0,0,0-1.58.14c-.67.11-1.36.22-2.08.39v-2c2.27-.81,4.6-1.62,7-2.45s4-1.44,5-1.81q3-1.12,6.15-2.58a.47.47,0,0,1,.51.31,6.06,6.06,0,0,1,.09,1.26v9.81a46.4,46.4,0,0,1,7.41-8.33,11.53,11.53,0,0,1,7.42-3,7,7,0,0,1,5,1.83,6.09,6.09,0,0,1,1.92,4.59A6,6,0,0,1,204,72.86a4.67,4.67,0,0,1-3.68,1.69,6.81,6.81,0,0,1-4.58-2.11c-1.54-1.38-2.76-2.09-3.63-2.09q-2.1,0-5.16,3.39a10.41,10.41,0,0,0-3.05,7v27c0,3.43.81,5.81,2.4,7.15s4.26,2,8,1.89v2H164.71Z" fill="#fff"/>
      <path d="M234.39,63.53v4.3H222.17l-.12,34.51a23.15,23.15,0,0,0,.79,6.9,5.53,5.53,0,0,0,5.63,4.12,6.76,6.76,0,0,0,3.74-1,18.85,18.85,0,0,0,3.62-3.23l1.57,1.33-1.32,1.79a19.28,19.28,0,0,1-6.6,5.93,14.91,14.91,0,0,1-6.71,1.73q-7.07,0-9.58-6.29a26.2,26.2,0,0,1-1.37-9.45V67.83h-6.53a1.62,1.62,0,0,1-.46-.35.8.8,0,0,1-.14-.48,1.45,1.45,0,0,1,.26-.93,19.5,19.5,0,0,1,1.71-1.53,52.63,52.63,0,0,0,6-5.54q1.81-2.11,8.59-11.23a1.85,1.85,0,0,1,.93.13c.1.08.15.36.15.89V63.53Z" fill="#fff"/>
      <path d="M264.68,42.56v-2A112.1,112.1,0,0,0,277,37.05a58.17,58.17,0,0,1,5.89-1.92,2.22,2.22,0,0,1,.12.72V72.33a18.46,18.46,0,0,1,4.66-5.45,19.46,19.46,0,0,1,12.69-4.49q8.78,0,15,7.42T321.6,89.1a31.54,31.54,0,0,1-8.1,21.76q-8.08,9-21.25,9a33.87,33.87,0,0,1-13.07-2.64q-6.4-2.62-6.4-5.27V48.67a9.5,9.5,0,0,0-1-5c-.64-1-2.11-1.46-4.42-1.46Zm22.81,71.85a23.39,23.39,0,0,0,7.21,1.36q8.37,0,12.38-6.3a27.48,27.48,0,0,0,4-15.2,36.48,36.48,0,0,0-3.76-16.47,12.68,12.68,0,0,0-12.16-7.58,15.19,15.19,0,0,0-8.3,2.62c-2.7,1.73-4.06,3.94-4.06,6.6V110C283.2,112,284.74,113.52,287.49,114.41Z" fill="#fff"/>
      <path d="M325.44,63.7h25.29v1.68a15.31,15.31,0,0,0-4.44.56c-1.84.52-2.76,1.57-2.76,3.11a5.75,5.75,0,0,0,.3,1.75c.2.6.57,1.49,1.09,2.66l13.86,30L370.2,73.23c.11-.33.3-1.07.56-2.21a12.84,12.84,0,0,0,.39-2.34,2.62,2.62,0,0,0-1.07-2.32,5.46,5.46,0,0,0-2.76-.86l-1.86-.12V63.7h16.47v1.68a5.53,5.53,0,0,0-3.68,1.74,12.32,12.32,0,0,0-2.13,3.95l-18.86,50q-4.92,12.93-9.42,18.75a13.83,13.83,0,0,1-11.37,5.8,12.42,12.42,0,0,1-6.29-1.67,5.71,5.71,0,0,1-2.94-5.33,5,5,0,0,1,1.75-3.93,6.41,6.41,0,0,1,4.4-1.53,14.41,14.41,0,0,1,4.59,1.15,14.42,14.42,0,0,0,4.35,1.12q3.32,0,7-8.12c2.46-5.43,3.67-9,3.67-10.74a5.8,5.8,0,0,0-.17-1.31,8.21,8.21,0,0,0-.39-1.36L333.53,73c-1.36-3-2.54-4.89-3.56-5.83a8.16,8.16,0,0,0-4.53-1.83Z" fill="#fff"/>
      <path d="M404.44,73.85a6.8,6.8,0,0,1-4.7,1.9,6.13,6.13,0,0,1-4.74-2A6.71,6.71,0,0,1,393.15,69a6.43,6.43,0,0,1,1.92-4.7,6.3,6.3,0,0,1,4.67-2,6.82,6.82,0,0,1,4.7,1.88,6.11,6.11,0,0,1,2.07,4.7A6.3,6.3,0,0,1,404.44,73.85Zm-9.35,44a6.81,6.81,0,0,1,0-9.5,6.29,6.29,0,0,1,4.72-2,7,7,0,0,1,4.93,2,6.2,6.2,0,0,1,2.09,4.7,6.67,6.67,0,0,1-2,4.72,6.86,6.86,0,0,1-5.27,2.1A6.15,6.15,0,0,1,395.09,117.8Z" fill="#fff"/>
    </g>
    <path d="M1044,161.28H44.64A44.69,44.69,0,0,1,0,116.64v-72A44.7,44.7,0,0,1,44.64,0H1044a44.69,44.69,0,0,1,44.64,44.64v72A44.68,44.68,0,0,1,1044,161.28ZM44.64,2.88A41.8,41.8,0,0,0,2.88,44.64v72A41.8,41.8,0,0,0,44.64,158.4H1044a41.8,41.8,0,0,0,41.76-41.76v-72A41.8,41.8,0,0,0,1044,2.88Z" fill="#fff"/>
    <rect x="952.49" y="43.21" width="88.65" height="2.88" fill="#fff"/>
    <rect x="952.49" y="80.15" width="88.65" height="2.88" fill="#fff"/>
    <rect x="952.49" y="117.08" width="88.65" height="2.88" fill="#fff"/>
  </g>
</svg>
