<svg xmlns="http://www.w3.org/2000/svg" viewBox="0 0 101.1 250.82">
  <g>
    <polyline points="42.94 3.44 28.13 13.63 18.54 21.71 7.98 36.14 1.92 52.52 0.73 70.88 2.87 85.48 9.69 107.37 14.01 118.98 14.89 126.26 13.68 135.12 6.2 153.34 3.37 162.95 1.05 173.68 1.05 182.06 0.73 190.76 3.63 202.84 8.89 215.26 19 229.36 30 239.3 42.94 248.07 48.91 250.19 50.6 250.51 53.6 250.47 63.12 245.26 71.1 238.64 84.36 225.92 89.86 219.15 93.02 213.58 96.89 205.26 98.89 198.26 100.33 187.59 101.1 184.32 98.77 167.31 94.67 152.71 87.44 132.47 86.89 127.26 86.89 121.26 90.89 110.61 94.18 100.28 97.96 87.7 99.94 77.16 100.55 66.39 99.76 57.55 97.47 47.75 93.2 37.36 86.05 26.05 76.12 15.47 66.22 7.88 60.59 3.86 56.69 1.8 54.39 0.72 51.64 0.21 49.49 0.14 47.6 0.33"/>
    <g>
      <path d="M81.12,161.17l.29,0Z" fill="#fff"/>
      <path d="M94.57,158.27c-.08-.1.42-.33-.25-.21-.11.09-.34.14-.29.2-.3.05-.26,0-.47,0-.51.22-1.34.34-1.75.52a2.06,2.06,0,0,1,.41-.09A12.45,12.45,0,0,1,94.57,158.27Z" fill="#fff"/>
      <path d="M92.08,158.79l.14-.13c-.86.36-1.1,0-1.44.37C91.08,158.88,91.67,158.92,92.08,158.79Z" fill="#fff"/>
      <path d="M96.79,171.52a2.45,2.45,0,0,0-.05-.52C96.7,171.05,96.7,171.19,96.79,171.52Z" fill="#fff"/>
      <path d="M96.19,167.1v0Z" fill="#fff"/>
      <path d="M75.56,162.48l-.39.1.39-.1Z" fill="#fff"/>
      <path d="M92.63,183.49Z" fill="#fff"/>
      <path d="M92.63,183.49l0,0h0Z" fill="#fff"/>
      <path d="M96.18,165.17s-.05-.06-.06,0a7.49,7.49,0,0,0-.18-1.29c.06.68.11,1.33.2,2A1.73,1.73,0,0,0,96.18,165.17Z" fill="#fff"/>
      <path d="M63.67,59.46c.42,0,1-.05,1.53-.09Q64.42,59.4,63.67,59.46Z" fill="#fff"/>
      <path d="M73.55,83.74l.1-2.92L73.57,82l0,1.76-.69.29a8.15,8.15,0,0,1-.77.3,6.79,6.79,0,0,0,.78-.29Z" fill="#fff"/>
      <path d="M71.79,95.08a10.57,10.57,0,0,0,.1-1.51c.23-1.39.26-1.09.43-2,.08-.6.17-1.26.26-2s.22-1.45.32-2.07l-3.77-1.28c.94.32,1.15.42,1.83.67l1.84.66c-.11.63-.26,1.55-.38,2.4s-.27,1.72-.39,2.55c-.26,1.64-.5,3.14-.74,4.25C71.49,96.15,71.28,98.35,71.79,95.08Z" fill="#fff"/>
      <path d="M65.79,85l-.58-.2c-.16,0-.08-.14-.06-.24s.06-.21.1-.31a1.69,1.69,0,0,0-.11.27l0,.14c0,.06,0,.11,0,.12l.64.23,1.4.56c1,.39,2,.84,3,1.17l.8.2c-2.06-.65-3.21-1.18-4-1.5Z" fill="#fff"/>
      <path d="M71.66,159.65c0-.35-.13-1.22-.3-2.29A20.1,20.1,0,0,0,71.66,159.65Z" fill="#fff"/>
      <path d="M68.25,139.94v0l0-.34C68.22,139.73,68.24,139.83,68.25,139.94Z" fill="#fff"/>
      <path d="M51.51,73.25c0,.63,0,1.28,0,1.91,0-.5,0-1.12,0-1.93Z" fill="#fff"/>
      <path d="M51.43,67.5c0-.37,0-.76,0-1.2C51.42,66.7,51.43,67.11,51.43,67.5Z" fill="#fff"/>
      <path d="M60.67,164.17h0l.07,0v-.08Z" fill="#fff"/>
      <path d="M67.63,134.33c0-.72,0-1.51-.12-2.9,0-.16-.07-.32-.06-.05-.07-1.56-.17-3.65-.2-5.67,0,.29,0,.58,0,.86A76.21,76.21,0,0,0,67.63,134.33Z" fill="#fff"/>
      <path d="M64.29,233.35a1.59,1.59,0,0,0,.14-.26C64.38,233.18,64.34,233.27,64.29,233.35Z" fill="#fff"/>
      <polygon points="67.33 226.63 67.64 225.92 67.18 226.84 67.33 226.63" fill="#fff"/>
      <path d="M68.28,224.57c.06-.33.44-.76.58-1.16l0-.18C68.62,224.11,68.22,224.1,68.28,224.57Z" fill="#fff"/>
      <path d="M69.6,221.23c0,.12-.09.36,0,.35-.15.27-.19.18-.3.35-.13.53-.53,1.25-.62,1.67a1.43,1.43,0,0,1,.17-.37A17.3,17.3,0,0,1,70,221C69.84,221.07,69.93,220.58,69.6,221.23Z" fill="#fff"/>
      <path d="M79.69,217.24s.17.08.5.08A1.73,1.73,0,0,0,79.69,217.24Z" fill="#fff"/>
      <path d="M75.86,216.79l-.07,0,.07,0Z" fill="#fff"/>
      <path d="M62.07,238.45l-.16.38a4,4,0,0,0,.16-.38Z" fill="#fff"/>
      <path d="M74.1,216.38a7.14,7.14,0,0,0-1.08-.14l-.21,0,.19,0,1.06.18.6.08a1.52,1.52,0,0,0-.61-.21S74,216.36,74.1,216.38Z" fill="#fff"/>
      <path d="M49.16,97.61c0-.49,0-1,0-1.42C49.16,96.59,49.16,97.15,49.16,97.61Z" fill="#fff"/>
      <polygon points="49.4 128.17 49.43 131.51 49.44 127.09 49.4 128.17" fill="#fff"/>
      <path d="M49.45,138c.09,1.38-.06,3.74,0,5.55l.09.71C49.35,140.35,49.71,139.67,49.45,138Z" fill="#fff"/>
      <path d="M49.73,153.45c-.06-.48-.07-1.59-.14-1.41,0-1.33.09-1,.11-1.94-.11-2.28-.07-5.81-.17-7.64,0,.9,0,1.11,0,1.77,0,3.53.13,8.29,0,10.86C49.59,154.49,49.72,156.56,49.73,153.45Z" fill="#fff"/>
      <path d="M47.75,201.64c0-.34,0-1.16,0-2.18A14.09,14.09,0,0,0,47.75,201.64Z" fill="#fff"/>
      <path d="M49.67,165.91v.22l-.49,0,.49,0Z" fill="#fff"/>
      <path d="M47.93,182.83v0Z" fill="#fff"/>
      <path d="M36.52,84.39l-1.79-.1,1.81.1Z" fill="#fff"/>
      <path d="M41.91,84.68l1.13.06Z" fill="#fff"/>
      <path d="M37.16,232.7h0S37.17,232.73,37.16,232.7Z" fill="#fff"/>
      <path d="M48.1,176.82v.8c.07-.68.14-1.43.16-2.77,0-.14,0-.29,0-.09,0-.66,0-1.41,0-2.22v-2.79l-.18-.08.18.08C48.2,172.17,48.15,174.51,48.1,176.82Z" fill="#fff"/>
      <path d="M19.65,212.26l.34,0Z" fill="#fff"/>
      <polygon points="27.93 214.33 27.51 213.19 27.58 213.48 27.93 214.33" fill="#fff"/>
      <path d="M30.36,219.82c-.11-.1-.22-.38-.27-.31-.12-.34,0-.31-.08-.54-.33-.54-.64-1.46-.91-1.89a2.69,2.69,0,0,1,.17.46,22.41,22.41,0,0,1,1,2.79C30.33,220.13,30.66,220.61,30.36,219.82Z" fill="#fff"/>
      <path d="M28.58,216c.22.32.31,1,.54,1.42l.15.15C28.72,216.62,29,216.3,28.58,216Z" fill="#fff"/>
      <path d="M36.2,235.54A3.29,3.29,0,0,0,36,235C36,235,36,235.19,36.2,235.54Z" fill="#fff"/>
      <path d="M34.36,230.74l0-.09,0,.08Z" fill="#fff"/>
      <path d="M13.09,212h0Z" fill="#fff"/>
      <path d="M33.81,228.59c-.05,0-.1-.08,0,.1a11.26,11.26,0,0,0-.56-1.47c.24.74.47,1.45.73,2.14A2,2,0,0,0,33.81,228.59Z" fill="#fff"/>
      <path d="M22.22,210.57a1.61,1.61,0,0,0,.22,0Z" fill="#fff"/>
      <path d="M14.67,210.42c.32.08.65.12,1,.18l-.23-.08C15.16,210.49,14.92,210.47,14.67,210.42Z" fill="#fff"/>
      <path d="M9.81,208.65c.06.16-.4,0,.19.4.12,0,.34.11.34,0,.26.14.17.19.33.3a13.42,13.42,0,0,0,1.63.5,2,2,0,0,1-.37-.13A7.25,7.25,0,0,1,9.81,208.65Z" fill="#fff"/>
      <path d="M13.27,210.1c-.32,0-.77-.3-1.16-.38l-.18,0C12.79,209.86,12.84,210.26,13.27,210.1Z" fill="#fff"/>
      <path d="M3.63,197.74a1.7,1.7,0,0,0,.06.47C3.72,198.16,3.72,198,3.63,197.74Z" fill="#fff"/>
      <path d="M4.58,201.74h0v0Z" fill="#fff"/>
      <path d="M27.06,209.45h0l0-.35A3.24,3.24,0,0,0,27.06,209.45Z" fill="#fff"/>
      <path d="M5,203.47s.09.05,0-.09a3.9,3.9,0,0,0,.56,1.12c-.27-.56-.49-1.11-.71-1.66A1.38,1.38,0,0,0,5,203.47Z" fill="#fff"/>
      <path d="M27.81,100c0,.28.07.64.12.94Z" fill="#fff"/>
      <path d="M29.39,109.31c.2.82.41,1.64.58,2.47-.22-1.1-.48-2.19-.74-3.28Z" fill="#fff"/>
      <path d="M31.27,120.81l.13.54c-.4-2.93-.14-3.48-.56-4.73C31.08,117.64,31.12,119.45,31.27,120.81Z" fill="#fff"/>
      <path d="M31.64,128.36c0-.37,0-1.21-.09-1.08,0-1,.12-.8.14-1.47-.08-1.74-.16-4.43-.4-5.81a13.18,13.18,0,0,1,.11,1.35,46.44,46.44,0,0,1-.07,8.24C31.46,129.14,31.5,130.72,31.64,128.36Z" fill="#fff"/>
      <path d="M24.37,174.5c.06-.25.16-.86.27-1.64A8.29,8.29,0,0,0,24.37,174.5Z" fill="#fff"/>
      <path d="M26.64,160.33h0l.05-.24Z" fill="#fff"/>
      <path d="M24.37,83,23,82.71l1.36.25Z" fill="#fff"/>
      <path d="M25.87,86c0,.25.08.51.12.79Z" fill="#fff"/>
      <path d="M27.87,154.36c0-.11,0-.21,0-.09.22-1.11.44-2.6.65-4-.39,2.11-.75,4.16-1.09,6.2A15.48,15.48,0,0,0,27.87,154.36Z" fill="#fff"/>
      <path d="M24.47,72.38a2.45,2.45,0,0,0,0,.27C24.46,72.56,24.46,72.47,24.47,72.38Z" fill="#fff"/>
      <path d="M23.52,79.23l-.76.28c.34-.11.69-.21,1-.33Z" fill="#fff"/>
      <path d="M19.93,80.15l-.16.11c.9-.29,1.13,0,1.48-.33A10.35,10.35,0,0,1,19.93,80.15Z" fill="#fff"/>
      <path d="M5.18,74a2.36,2.36,0,0,0,.27.43C5.46,74.33,5.41,74.2,5.18,74Z" fill="#fff"/>
      <path d="M8.21,77.23l-.05-.06h0Z" fill="#fff"/>
      <path d="M24.35,66.47l0-.44c0,.12,0,.26,0,.45Z" fill="#fff"/>
      <path d="M9.58,78.47c.06,0,.11,0,0-.09a4.27,4.27,0,0,0,1.15.63c-.57-.32-1.11-.67-1.63-1A1.54,1.54,0,0,0,9.58,78.47Z" fill="#fff"/>
      <path d="M35.3,18.76a2.18,2.18,0,0,0-.2.37Z" fill="#fff"/>
      <polygon points="31.8 28.39 31.47 29.41 31.95 28.07 31.8 28.39" fill="#fff"/>
      <path d="M29.51,36.19c0-.17.09-.51,0-.47.14-.41.19-.3.3-.56.11-.73.51-1.8.6-2.39a3,3,0,0,1-.17.55c-.4,1.06-.72,2.56-1.13,3.3C29.28,36.47,29.2,37.14,29.51,36.19Z" fill="#fff"/>
      <path d="M30.81,31.38c-.06.45-.45,1.12-.58,1.69l0,.25C30.46,32.08,30.88,32,30.81,31.38Z" fill="#fff"/>
      <path d="M21.87,51.88c-.06,0-.22,0-.62,0A2.4,2.4,0,0,0,21.87,51.88Z" fill="#fff"/>
      <path d="M25.41,49.1h0l.05-.08Z" fill="#fff"/>
      <path d="M38.83,11.92l.26-.51c-.07.13-.15.29-.26.52Z" fill="#fff"/>
      <path d="M26.08,47.69a2.76,2.76,0,0,0,.39-.84c0-.07,0-.14-.09.07a13,13,0,0,0,.48-1.79l-.09.28C26.52,46.2,26.31,47,26.08,47.69Z" fill="#fff"/>
      <polygon points="33.84 54.68 35.2 54.83 33.4 54.59 33.84 54.68" fill="#fff"/>
      <path d="M31.27,52.61c.21.16-.65.08.58.4.2,0,.65,0,.58,0,.53.09.42.15.77.21a18.68,18.68,0,0,1,3.16.18c-.38-.08-.47-.11-.74-.15-.73-.12-1.58-.11-2.37-.17A5.77,5.77,0,0,1,31.27,52.61Z" fill="#fff"/>
      <path d="M35.62,53.21a2,2,0,0,1,1.57.61c.24.31.33.54.58.84a2.94,2.94,0,0,0-.64-1,2.19,2.19,0,0,0-1.2-.53Z" fill="#fff"/>
      <path d="M37.67,54.58h0Z" fill="#fff"/>
      <path d="M32,31.7s-.07.11-.1.25C32,31.93,32,31.9,32,31.7Z" fill="#fff"/>
      <path d="M30.31,38.55h0l0,.12Z" fill="#fff"/>
      <path d="M25.91,67l.07.73c0-.19,0-.43-.07-.74Z" fill="#fff"/>
      <path d="M29.27,41.67c0,.09,0,.17.09-.1-.2.59-.39,1.46-.57,2.28.32-1.11.62-2.18.89-3.26A4.37,4.37,0,0,0,29.27,41.67Z" fill="#fff"/>
      <path d="M31,35.49c0-.06,0-.13,0-.22C31.07,35.35,31.05,35.41,31,35.49Z" fill="#fff"/>
      <polygon points="70.2 36.44 70.58 38.44 70.12 35.78 70.2 36.44" fill="#fff"/>
      <path d="M71.86,45.62,72,46c-.6-2.29-.31-2.77-.75-3.74C71.51,43.11,71.62,44.55,71.86,45.62Z" fill="#fff"/>
      <path d="M72.91,50.7c-.13-.8,0-.65-.1-1.18-.35-1.35-.68-3.47-1-4.55.12.54.13.67.2,1.07.16,1.06.41,2.29.63,3.46.11.58.21,1.14.3,1.66a1.9,1.9,0,0,1-.14,1.24c.1-.15.09.07.12.12s0,0,.11-.14a1.88,1.88,0,0,0,.13-.86C73.1,51.24,73,50.58,72.91,50.7Z" fill="#fff"/>
      <path d="M51.12,45.45a4.7,4.7,0,0,0,0-1.31C51.12,44.34,51.11,44.83,51.12,45.45Z" fill="#fff"/>
      <path d="M52.41,55.07h0a.69.69,0,0,0,.07.15A.52.52,0,0,1,52.41,55.07Z" fill="#fff"/>
      <path d="M77.9,20l-.78-.76.79.77Z" fill="#fff"/>
      <path d="M80.29,22.44l.3.42A2.47,2.47,0,0,0,80.29,22.44Z" fill="#fff"/>
      <path d="M68.84,26.92h0v0h0Z" fill="#fff"/>
      <path d="M68.85,26.94v0l.13-.05v0Z" fill="#fff"/>
      <path d="M67.55,28.25s0-.05,0-.07l-.18,0,0,.08Z" fill="#fff"/>
      <polygon points="68.82 26.93 68.73 26.96 68.73 26.96 68.82 26.93 68.82 26.93" fill="#fff"/>
      <path d="M54.59,57.25a2.19,2.19,0,0,1-.29-.17,3.82,3.82,0,0,0,1.5.78c.09,0,.16,0,.08,0a10.45,10.45,0,0,0,3.11.35l-.5,0A10.14,10.14,0,0,1,54.59,57.25Z" fill="#fff"/>
      <path d="M75.89,54a1.7,1.7,0,0,0-.15-.22Z" fill="#fff"/>
      <polygon points="73.94 47.37 73.8 46.63 73.93 47.62 73.94 47.37" fill="#fff"/>
      <path d="M72.79,41.84c.08.1.13.34.18.29,0,.3,0,.25,0,.45.18.48.26,1.27.42,1.66a1.29,1.29,0,0,1-.06-.4,14.36,14.36,0,0,1-.31-2.4C72.9,41.59,72.7,41.16,72.79,41.84Z" fill="#fff"/>
      <path d="M73.57,45.21c-.13-.29-.06-.83-.17-1.22l-.11-.15C73.59,44.67,73.26,44.88,73.57,45.21Z" fill="#fff"/>
      <path d="M77.11,31.93a2.14,2.14,0,0,0-.44.22C76.73,32.16,76.86,32.12,77.11,31.93Z" fill="#fff"/>
      <path d="M73.44,34h0l-.07,0Z" fill="#fff"/>
      <path d="M80.56,55.77H81a2.62,2.62,0,0,0-.4,0Z" fill="#fff"/>
      <path d="M71.85,34.68c.13,0,.31-.15.52-.25a1,1,0,0,0-.51.11s0,.07.1,0l-.2.08c0,.15,0,.34.07.52a2.56,2.56,0,0,1,0,.27v0C71.85,35,71.86,34.9,71.85,34.68Z" fill="#fff"/>
      <path d="M71.23,104.55c.13-.75.29-1.5.44-2.24-.22,1-.43,2-.61,3Z" fill="#fff"/>
      <path d="M75.12,87.27l-.13.45c0,.33-.23,1.07-.13,1-.25.87-.28.68-.46,1.25-.31,1.53-1,3.85-1.16,5.08.13-.6.18-.73.3-1.17.27-1.06.58-2.24.88-3.4.15-.58.31-1.15.45-1.69s.31-1.06.41-1.33l.47-.13C75.39,87.32,76.35,86.85,75.12,87.27Z" fill="#fff"/>
      <path d="M73.5,94.34l0-.5c-.49,2.6-.93,3-.94,4.17C72.72,97.07,73.24,95.54,73.5,94.34Z" fill="#fff"/>
      <path d="M75.93,65.38a5.63,5.63,0,0,0,0-1.48C75.88,64.12,75.9,64.68,75.93,65.38Z" fill="#fff"/>
      <path d="M76.42,76.72h0v0Z" fill="#fff"/>
      <path d="M70.52,142.37l.21,1.21c-.06-.32-.12-.71-.21-1.22Z" fill="#fff"/>
      <path d="M76.46,80.66c0-.13,0-.26,0-.39a12.41,12.41,0,0,0-.06,1.9c0,.1.06.2.06.06,0,.41,0,.86,0,1.36s0,1,.08,1.48l.37-.14-.35.11C76.57,84,76.51,82.17,76.46,80.66Z" fill="#fff"/>
      <path d="M.9,193.7c0,.18,0,.37.09.58C1,194.08.93,193.89.9,193.7Z" fill="#fff"/>
      <path d="M1.05,194.67c.1.66.23,1.37.35,2C1.27,196,1.16,195.33,1.05,194.67Z" fill="#fff"/>
      <path d="M1,194.28l.06.39Z" fill="#fff"/>
      <path d="M47.07,250.63l.12,0Z" fill="#fff"/>
      <path d="M47.19,250.66a6.81,6.81,0,0,0,1.19.16A5.88,5.88,0,0,1,47.19,250.66Z" fill="#fff"/>
      <path d="M39.54,246.8c.67.43,1.34.86,2,1.26,1.06.6,2.12,1.23,3.24,1.75a10.33,10.33,0,0,0,2.26.82,13.86,13.86,0,0,1-3.32-1.38C42.32,248.47,40.92,247.66,39.54,246.8Z" fill="#fff"/>
      <path d="M60.67,220l4.57.2,2,.11,1.41.1c-.43-.07.23-.1.43-.14s-.17-.09-3.64-.23c-1.06,0-3.5-.08-3.11,0-2.91-.13-2.31-.19-4.25-.29l-3.56-.1-3.84-.13c0,1.72,0,3.43,0,5s0,3,0,4.18c0-2,0-2.45,0-3.9,0-1.63,0-3.38,0-5.19Z" fill="#fff"/>
      <path d="M50.79,238.54c-.07-3,.1-8.2.06-12.18l-.09-1.58C50.91,233.31,50.54,234.8,50.79,238.54Z" fill="#fff"/>
      <path d="M96.24,197.44c.22-.71.66-2.44,1.22-4.62C97.3,193.22,97,194.44,96.24,197.44Z" fill="#fff"/>
      <path d="M58.22,241.05l1.4-2.66C59.15,239.3,58.7,240.15,58.22,241.05Z" fill="#fff"/>
      <path d="M58.22,241.05c-.34.65-.65,1.23-.91,1.74Z" fill="#fff"/>
      <path d="M93.56,213.6v0l-.34.62C93.34,214,93.45,213.81,93.56,213.6Z" fill="#fff"/>
      <path d="M9.51,142.55l0,0c.44-1.22.9-2.46,1.35-3.69C10.52,139.78,10.08,141,9.51,142.55Z" fill="#fff"/>
      <path d="M5.66,153.79l-.74,2.31C5.16,155.34,5.41,154.56,5.66,153.79Z" fill="#fff"/>
      <path d="M88.42,135.5a2.93,2.93,0,0,1,.12.34C88.52,135.76,88.47,135.64,88.42,135.5Z" fill="#fff"/>
      <path d="M88.56,135.88Z" fill="#fff"/>
      <path d="M76.12,15.47a26.25,26.25,0,0,0-3.9-3.53c1.12.94,3,2.55,2.57,2.23a102.79,102.79,0,0,0-9.92-7.62c-.05,0-.1-.09-.15-.15L63.13,4.87l-.3.34C61.92,4.62,61,4,60.06,3.47c.52.35,1.06.68,1.56,1-.6-.4-1.29-.8-2-1.25s-1.5-.92-2.36-1.36A17,17,0,0,0,51.43.08,13.82,13.82,0,0,0,49.85,0c-.24,0-.58,0-.89,0l-.48,0c-.14,0-.41,0-.34.18,0,1.1,0,2.19,0,3.24,0,1.94,0,3.76-.07,5.3,0,.06.07,4,.14,3.63,0,6.23-.05,12.68-.07,19.08L34.67,29.85l-1.46-3.44,0-.23v0l0-.1c1.27-2.26,2.52-4.47,3.72-6.59s2.49-4.35,3.65-6.39c-.73,1.19,0-.15.21-.63,2.87-5.15.74-1.19,1.46-2.38.11-.29.8-1.6,1.94-3.68.58-1.06,1.28-2.32,2.06-3.75.23-.4.49-.85.69-1.26q.16-.3.33-.63l.17-.32L47.6.33s-.1,0-.14,0a15.25,15.25,0,0,0-3,1,38,38,0,0,0-5.29,3.37l-5.7,4-6.11,4.24L24.2,15.13l-1.59,1.11c-.27.21-.51.34-.81.6l-.67.72a90.79,90.79,0,0,0-9.75,12.08A74.23,74.23,0,0,0,4.69,42.17,64,64,0,0,0,.38,59.3a17.15,17.15,0,0,1,.37-2.36A72.89,72.89,0,0,0,.69,77.33L0,77.18c.35,1.19.73,2.52,1.31,4.54.09.18-.05-.48-.05-.7.1.58.21,1.15.33,1.73l0,0,0,.07A139.6,139.6,0,0,0,6,99q1.7,5.1,3.55,10.1.94,2.49,1.88,5a43.39,43.39,0,0,1,1.73,5,25.16,25.16,0,0,1,.61,10.2,30,30,0,0,1-1.18,4.91c-.53,1.59-1.15,3.15-1.71,4.71,1.24-3.31,1.44-3.7,1.53-3.76h0c0,.14-.09.29-.14.43-.8,2.13-1.61,4.29-2.41,6.48.16-.5,1.14-3.19-.35.55s-2.69,7.61-3.87,11.28c1.2-3.71,2.07-6,2.78-7.8-1.29,3.63-2.53,7.31-3.69,11-.41,1.08-1.56,4.69-1.56,4.59.16-.08-.57,2.28-1.23,5.39-.19.77-.35,1.59-.5,2.43S1.14,171.13,1,172c-.23,1.69-.49,3.32-.57,4.68l0,1.34q-.27,3.7-.18,7.32c0-1.07-.06-2.14,0-3.17A59.15,59.15,0,0,0,.9,193.7c-.19-1.32-.23-1.91.13.18A55,55,0,0,0,2.9,202.4c.82,2.53,1.66,5,2.9,7.86-.84-1.8-1.55-3.66-2.23-5.53a14.88,14.88,0,0,0,.75,2.16c.22.56.45,1.2.73,1.86l.9,2c.59,1.36,1.31,2.63,1.76,3.59s.81,1.53.71,1.5c2.91,4.8.35.32.36.17a73.23,73.23,0,0,0,5.31,8.15s0,0,0,.06l.24.28a80,80,0,0,0,5.77,6.76c-.73-.71-1.33-1.35-2.14-2.17-.61-.75-2-2.3-2.88-3.52-.49-.66-.87-1.17-1-1.35l-.53-.64c-.49-.62-.83-1,0,.15a80.27,80.27,0,0,0,7,8.13l1.75,1.73c.56.54,1.1,1,1.56,1.43a23.29,23.29,0,0,0,2,1.67l-.06-.05c2,1.73,4,3.34,6,4.8-.31-.2-.73-.49-1.28-.88s-1.31-.93-2.18-1.62-1.91-1.54-3.1-2.59c1.22,1.13,2.06,1.85,2.95,2.54s1.76,1.39,3.1,2.41,2.56,1.75,3.88,2.56c-.84-.54-1.65-1.11-2.46-1.68l-.12-.17a103.22,103.22,0,0,0,10.52,6.69c3.24,1.8,4.73,2.24,7.55,1.79V219.4l18.86.72-7.84,14.93c.05-.11.08-.18.05-.16-1.16,2.05-2.94,5.38-4.53,8.37L53.54,250c-.31.68,0,0,.24-.36.11-.18.17-.28.1-.11l-.22.47-.21.43,0,.07s0,0,0,0l.16-.05.34-.12a14.35,14.35,0,0,0,1.88-.8l1.33-.71,1.64-.85c.87-.42,1.46-.73,3-1.63.48-.33,1-.65,1.46-1,.16.15.32.31.52.48l.22-.2c.06-.1-.12,0-.23.06-.09-.13-.14-.22,0-.15a5.45,5.45,0,0,1,.42-.49c-.07.25,1-.71.24.19,1-1.14.79-.65,1.17-1.23l-.22.2c-.17.08.09-.19.25-.37l1.66-1.1c.78-.49,1.62-1.15,2.55-1.86s2-1.45,3-2.34c1.2-1,2.39-2,3.57-3.09a97.73,97.73,0,0,1-9.69,7.57l.33-.38c.55-.37,1.1-.74,1.63-1.15a81.32,81.32,0,0,0,12.76-11.3c1.9-2.13,1-1.13-.52.45-1.07,1.2-2.55,2.61-3.34,3.33a80.59,80.59,0,0,0,9.8-11.26,11.77,11.77,0,0,0,1.8-2.17l1.72-2.67a31.07,31.07,0,0,0,1.65-2.71,8.3,8.3,0,0,1,.73-1.69c.25-.48.53-1,.84-1.65s.56-1.33.87-2c1.32-2.81,2.35-6.19,3-7.92l-.09.34c-.08.24-.14.44-.19.58-.12.37-.15.46-.11.36s.09-.28.19-.56c-.24.86-.55,1.91-.93,3.14L96.38,207c-.17.42-.36.86-.55,1.31-.39.9-.82,1.86-1.27,2.89-.5,1.18-1.13,2.27-1.69,3.41L92,216.29l-1,1.61c-.67,1.06-1.29,2.15-2,3.19l-1.65,2.29.76-.95a27.15,27.15,0,0,0,2-2.7l1.27-2,.76-1.23c.24-.46.49-.95.77-1.47-2.48,4.63,1.54-3.16-.54.7.56-1.14,1.19-2.35,1.88-3.65s1.24-2.78,1.93-4.34a24.08,24.08,0,0,0,.93-2.48l.93-2.69c.34-.93.51-1.94.78-3s.52-2.08.73-3.2c-.69,3.17-.54,1.93-.16.28s.54-3.28.84-5.16.29-3.93.44-5.94l-.48-.07v.06A64.49,64.49,0,0,1,97,203.92a64.45,64.45,0,0,0,3.15-18.33l-.28,1c-.63,2.24-1.2,4.52-1.75,6.73a111.77,111.77,0,0,1-4.61,15.32c-2.61,6.42-10.91,8.58-19.71,5.14l-1.37-.53,3.2-22.69,2.39-.68-2.38.68c-1,7.31-2.08,14.93-3.16,22.66a22.54,22.54,0,0,0,11.83,2A12.49,12.49,0,0,0,89.88,213a10.08,10.08,0,0,0,3.64-4.71,94.59,94.59,0,0,0,3.58-11.45c1-3.84,1.93-7.62,2.92-11.29l0-.06-.48-.07c-1,3.59-1.88,7.17-2.57,9.92.08-.24.11-.22.1-.12-.66,2.52-1.11,4.14-1.61,5.81s-1,3.41-2.11,6.07c-.17.44-.35.89-.54,1.34s-.38.84-.64,1.23a10,10,0,0,1-.83,1.14c-.15.17-.3.36-.46.53l-.53.49a11.18,11.18,0,0,1-5.29,2.51,17.31,17.31,0,0,1-6.22.07c-.53-.09-1-.21-1.57-.31l-1.55-.42c-.52-.17-1-.36-1.53-.54l-1-.38c1-7.29,2.09-14.68,3.07-21.61l10.42-2.92,9.61-2.64c5.57-1.44-5.75,1.77-3.45,1.18l8.25-2.47c0-.4,0-.79,0-1.19l0-.88c0-.44,0-.87-.06-1.28,0-.83-.12-1.62-.19-2.37-.15-1.49-.33-2.82-.52-4-.38-2.36-.79-4.11-1.11-5.34-.68-2.45-1-2.86-.9-1.83.23,1,.45,1.93.64,2.89,0-.09-.06,0,.1,1.14q-.35-2-.81-4A223.44,223.44,0,0,0,91,143.76l.16.33c-.18-.51-.37-1.06-.61-1.61l0,0c-.32-.9-.63-1.81-.95-2.7q-.87-2.44-1.73-4.89a30,30,0,0,1-1.6-7.08c-.06-1.7,0-3.21.05-4.25-.05.36-.08.57-.1.69a26.8,26.8,0,0,1,1.7-8.13c3.07-8.21,6.25-16.71,8.78-25.34.33-1.15.64-2.29.93-3.43-.68,2.69-1.46,5.41-2.31,8.08-1.41,4.46-3,8.82-4.4,12.83L88.76,114a48.31,48.31,0,0,0-1.7,5,24.42,24.42,0,0,0-.78,7.37c.1,1.62.25,2.28.19,1.69a14,14,0,0,1-.14-1.6,24.74,24.74,0,0,1,.38-5.46,29.33,29.33,0,0,1,.94-3.68c.43-1.28,1-2.63,1.48-4,1.05-2.82,2.17-5.85,3.25-8.9.52-1.47,1-2.94,1.53-4.39l-.2.71c-.07.21-.15.43-.22.65-1.29,3.87-3.46,9.76-5.59,15.55a26.1,26.1,0,0,0-1.46,8.65,26.71,26.71,0,0,0,1,6.93c.39,1.42.78,2.46,1,3l-.4-1.17c.38.62,2,5.6,2.09,5.27,4.22,11.59,6.75,19.34,8.66,27.71-1.88-8.7-4.91-17.78-8.22-27.25-.41-1.18-.83-2.37-1.24-3.57s-.86-2.4-1.2-3.59a26.63,26.63,0,0,1-1.1-7.44,25,25,0,0,1,1.21-7.57c.39-1.22.89-2.48,1.36-3.75s1-2.55,1.42-3.83c.82-2.32,1.5-4.33.28-1.11-1.83,5.18-2.93,7.76-1.6,4,2-5.61-.09.65,2.22-6l-1.2,3.17c2.36-6.48,3.45-9.82,4.6-13.76,1.08-3.23,2.07-6.54,2.92-9.91a87,87,0,0,0,1.87-10.31,80,80,0,0,0,.45-10.49A70.13,70.13,0,0,0,99.42,55.5a67,67,0,0,0-6.69-19,69.59,69.59,0,0,0-5.06-8.19A78.25,78.25,0,0,0,82,21.09C80.11,19.11,78.15,17.25,76.12,15.47ZM98,86.49l0-.17A1.36,1.36,0,0,0,98,86.49Zm.86-4c.05-.24.1-.49.13-.71.1-.53.17-1,.23-1.27,0,.21-.07.43-.11.65C99,81.61,98.91,82.06,98.82,82.49ZM75.72,74v-.44a25.62,25.62,0,0,1,.09,3.31L75,60.51v-1c.14,2.44.27,4.86.4,7.18C75.48,69.22,75.6,71.68,75.72,74Zm8.7,9.73a19.72,19.72,0,0,1-3,1.1l1.73-.69.71-.23.44-.16,0,0S84.43,83.66,84.42,83.68Zm1.18,37.11a21.68,21.68,0,0,1,.74-3.77c-.29,1.25-.53,2.47-.71,3.68A.94.94,0,0,1,85.6,120.79Zm3-11.15s0,0,0,0a56.79,56.79,0,0,0-2.26,7.15c.06-.43-.5,1.42-.24.12.44-1.42.47-2.12.92-3.21l-.07.66C87.27,113.35,88.19,110.79,88.63,109.64Zm7-22.84c.08-.33.17-.67.24-1-.18.82-.3,1.35-.32,1.44C95.55,87.12,95.58,87,95.61,86.8Zm1.13-4.94c0-.12.08-.45.18-1l0,.36C96.82,81.47,96.78,81.66,96.74,81.86Zm-3,12.64.07-.08-.3,1.07ZM90.07,106l.25-.64Zm-.73,1.9c.1-.28.23-.61.39-1Zm7,56.75a.64.64,0,0,0,.06.28c0,.18.07.37.1.55h0l.06.11c0,.19.08.38.11.57a2,2,0,0,1-.1-.39c0,.12-.25.16-.19.41l0,.7c.23,0,.32,1.11.33,1.51l0,0c0-.11,0-.11,0,0a1.51,1.51,0,0,1-.23-.95,12.91,12.91,0,0,1-.26-1.49,1.94,1.94,0,0,0-.06,1.09c0-.56.15.36.14-.12.18.53,0,1.27.27,2.2-.08-.33,0-.22.1-.05,0,.64.26,1.65.36,2.28a.07.07,0,0,1,.07,0c0,.56.07.73.08,1.36s.13,1.21.23,1.87c0,.32.1.65.16,1l.08.49a2.75,2.75,0,0,1,0,.4,4.6,4.6,0,0,1-1.25,2.85c-.43.39.23-.56,0-.4-.43.91-.79,1.51-.92,1.91s-.09.6.14.65l.2-.25s.07,0,.17,0l-.08.08-.24.25A20.67,20.67,0,0,1,86.1,187a18.49,18.49,0,0,0,2.85-1A10.21,10.21,0,0,0,92.09,184a13.93,13.93,0,0,1-2.29,1.35l-.45.21.06-.07c.38-.2,1-.53,1.59-.91a16.91,16.91,0,0,0,1.59-1.08c0-.19.47-.43.35-.54l2.3-2a37,37,0,0,1-5.2,3.46c-.21.14-.39.28-.05.16.48-.32.77-.39.45-.09-.52.34,0-.14-.59.29l.33-.12a7.06,7.06,0,0,0-1.28.84c-2.67,1-5.75,2-8.3,1.65-.28.05-.57.12-.86.16,0-.07-.13-.16-.55-.15.15,0,.41,0,.36.06-.65,0-1.29-.08-1.94-.15l.2.1a7,7,0,0,0-1-.12c-.33,0-.56-.05-.79-.1a3,3,0,0,1,0-.33s-.1-.27-.17-.23c0-1.9-.32-4.08-.19-5.69,0,.15-.09,0-.13-.06,0-.64,0-.16.1-.31-.42-.25-.33-8.63-.6-9.65,0,.16,0,.32,0,.26-.09-1.37-.18-2.79-.27-4.21s-.19-2.71-.27-4l.62-.16c-.38.08-.42,0-.49-.05l.77-.17c-.06,0-.33.11.11.12l1.5-.41a3.23,3.23,0,0,1-1.11.17L77.2,162c.17,0,.48,0,.49.07-.07-.2,1-.28,1.6-.44l.12-.13,1.14-.27c-.24.07-.47.14-.7.19a4.34,4.34,0,0,0,1.27-.2c-.17,0-.26,0,0-.1a3.44,3.44,0,0,0,.69-.11l.62-.08-.11,0s.21,0,.42-.06a10.06,10.06,0,0,0,2-.33c-.21,0-.55.09-.88.14h-.07l.1-.06c.34-.08,1.13-.22,1.53-.32a11.36,11.36,0,0,0,3.26-.79l.68-.15-.53.09.46-.24,5.88-1.35.27,1.45s0,0,0,0c-.06.53.2,1.62.13,1.82s0-.3.16.1a2.91,2.91,0,0,1,0,.95l.18.33c-.14.09,0,.72.14,1.4-.07-.81-.14-1.65-.28-2.55a30.79,30.79,0,0,1,.59,3.5c.21.59,0-.59,0-.67s0,0,0,0S96.36,164.49,96.38,164.63Zm-.27,16a2.84,2.84,0,0,0,1-1.19,5.54,5.54,0,0,1,.84-1.33,10.48,10.48,0,0,1-1.76,2.72C96.48,180.42,95.92,180.92,96.11,180.63ZM96.9,168v.15c-.12-.34-.21-1.32-.08-1.12l-.2-.13c-.11-.53,0-.45.13-.35.58,3.05,1.14,6.17,1.57,9.33a3.87,3.87,0,0,1-.06,1.27,16.08,16.08,0,0,0-.52-4.19C97.41,171.16,97.11,169.44,96.9,168Zm-28-57.36-.06.28c0,.2-.09.32-.1.27a40.62,40.62,0,0,1,1.21-5c-.1.46-.19.92-.31,1.38s-.25,1.09-.38,1.64-.23.91-.34,1.35v0Zm-.39,26.9c.11.73.22,1.47.35,2.22l-.24-.57C68.26,137.14,68.33,137.15,68.47,137.5Zm7.29,49.22a2.36,2.36,0,0,1,.06.47,5,5,0,0,1,.76.15l-.81-.1,0-.47S75.75,186.74,75.76,186.72Zm.88.42c.48.16.75,0,1.14.18l-.24.09a15.38,15.38,0,0,0,1.74.16s0,0,0,0c-.65,0-1.3-.08-2-.16l-.65-.08C76.8,187.32,76.23,187.15,76.64,187.14ZM74.4,163.27a1.24,1.24,0,0,1,0,.69Zm.24-.73-.16.06h-.1Zm12.86,23.8.11,0-.17.06Zm1.56-.63.3-.17-.14.1Zm-9.23,1.91a4.74,4.74,0,0,1,.66,0,1.88,1.88,0,0,1,.46,0Zm5-.43.05,0-.44.07Zm10.72-26.66v0c0,.1,0,.17,0,.16a3.37,3.37,0,0,1-.13-1.24l.06.3c0,.15,0,.31.08.45S95.53,160.42,95.54,160.53Zm-22-4.94c.36,1.08.74,2.14,1.08,3.19C74.26,157.71,73.9,156.65,73.56,155.59Zm-1.69-5.9c-.2-.79-.38-1.57-.56-2.35A11.73,11.73,0,0,1,71.87,149.69Zm-1.06-4.75c0,.07.07.23.15.54s0,.34.06.49ZM52.28,169.82a5.26,5.26,0,0,0-1,1.16,3,3,0,0,0-.32.88c0,.32,0,.66,0,1,0,1.3-.06,2.47-.08,2.7,0,1.22.17-2.28.21-.1-.12,2.31,0,3.36-.09,5.19l-.11-1c0,1.67-.12,5.91-.06,7.83l0,0c0-.89,0-1.77,0-2.63,0-3.26,0-6.38,0-9.45,0-.18,0-.36,0-.55,0-.88,0-1.75.08-2.62a3.3,3.3,0,0,1,1.27-2.3ZM75.4,216.15l.49,0-.15.13C75.3,216.3,75.31,216.23,75.4,216.15Zm-.37.22.65.2c0-.22,1.13,0,1.51.06l0,0c-.1,0-.1,0,0,0a1.42,1.42,0,0,1-1,0,12.31,12.31,0,0,1-1.49-.13,1.85,1.85,0,0,0,1,.33c-.54-.1.38,0-.08-.16.54,0,1.2.3,2.15.29-.34,0-.2-.1,0-.11.61.12,1.62.16,2.24.22,0,0,0-.05,0-.07a12.61,12.61,0,0,1,1.3.27c2.26.39,5.4.44,7.3.87.6.18-.64.07-.39.15l.7,0c-1,.89-2.11,1.89-3.2,3-.16.2-.29.39,0,.17.36-.46.65-.59.41-.23-.41.49,0-.13-.48.47l.28-.22a4.75,4.75,0,0,0-.94,1.22c-2.16,1.91-4,4.42-6,6l-.48.72c-.08,0-.21,0-.48.3.12-.1.3-.28.28-.22l-1.35,1.36.19-.09c-.49.37-1.16,1.27-1.73,1.62,0,0-.24.36-.16.38-1.44,1.24-2.76,2.89-4,3.84.14-.06.06.08,0,.14-.44.45-.15.07-.29.13.1.47-6.06,5.83-6.63,6.7.12-.1.23-.21.22-.15l-.81.82-3-2.52,1.2-2.85c-.18.39-.25.36-.32.33l.31-.7c0,.08-.09.32.17,0s.37-.95.56-1.41a3.27,3.27,0,0,1-.52,1l.5-1.14c.12-.12.29-.37.35-.34-.21-.06.38-1,.59-1.5l0-.18.47-1-.27.66a4,4,0,0,0,.58-1.11c-.08.14-.15.2-.09,0,.41-.6.42-1.07.79-1.63l-.21.6c.16,0,.41-1.26.62-1.13.13-.58-.13-.14-.19-.14l.41-.93h0a0,0,0,0,0,0,0l.39-.87c0,.11,0,.22,0,.34a4.48,4.48,0,0,1-.34.56c0,.12,0,.31.1.14a4.83,4.83,0,0,0,.61-1.79h0l.33-.75a1.74,1.74,0,0,1-.2.88c.23-.29.18-.44.36-.75l0-.51-.1.3h-.07l3.74-8.42s0,0,0,0c.34-.39.74-1.41.91-1.53s-.2.22-.07-.17a2.73,2.73,0,0,1,.53-.76c0-.13,0-.2,0-.32s.17-.09.25-.27c.21,0,.39,0,.7.05l-.75-.14c-.2.32-.46.81-.72,1.33a8,8,0,0,1,.63-1.48l.85.13c.3,0,.6.08.92.1.61-.06-.57-.11-.63-.18l0,0,.56,0h.07l.63,0h0l.28,0C74.8,216.16,74.79,216.36,75,216.37Zm15.78,1.07-.07.07h0l0-.08ZM71,218.06l0-.05s0,0,0,0a3.1,3.1,0,0,1-.59,1.06l.3-.65.19-.29h0A.13.13,0,0,0,71,218.06Zm4.54,14.6a5.26,5.26,0,0,1,.93-.91l-.9.9Zm2.77-2.79a.06.06,0,0,1,0,0l-1.8,1.8c.07-.14-.46.25-.18-.11s.47-.57.83-.77l-.08.24C77.37,230.8,78.06,230.2,78.33,229.87ZM84,224l.14-.13L84,224Zm1.15-1.16s.06-.09.21-.26l-.08.14Zm-3,3.22h.07l-.31.3Zm-3.41,3.49a5,5,0,0,1,.43-.46,2.05,2.05,0,0,1,.33-.3ZM61.2,240.05a1.2,1.2,0,0,1-.27.61Zm.37-.84a.5.5,0,0,1,0,.16l-.07.09ZM83.26,225c1.63-1.68,4.68-4.79,4.31-4.63.11-.07-1.11,1.15-2.17,2.22l0-.09c.82-.91,3.27-3.46,2.55-2.71-.07-.18.4-.49.27-.58.31-.36.6-.66.87-.93.35,0,.66-.07.9-.12l-.16.26ZM90,217.55l-.09,0,.07-.07C90,217.49,90.13,217.54,90,217.55Zm.15.57h0l-.11.1Zm.35-.69-.08,0h.1Zm-.4-.06h0Zm-.09,0c-.11,0-.1,0-.07.05l-.08.07c-.77-.29-2.22.05-2.94-.39l3.1.26Zm-41.47,12c0-13.76-.1-30.13,0-42.46l0,.63c0-1.35,0-4.69.09-4.84Zm-14.36-5.18c1,2.28,1.32,3.51.58,1.84-1-2.49.22.23-1-2.69l.52,1.44c-1.09-2.83-1.64-4.26-2.35-6.13a132.19,132.19,0,0,1-3.39-13.62c-.42-2.32-.79-4.62-1-6.91-.16-1.14-.19-2.28-.28-3.41,0-.56-.09-1.12-.1-1.68,0-.41,0-.82-.05-1.22l3.93.64,4.16.72,1.38.16.51,0,0-.48a9.13,9.13,0,0,0-.15-1,2.31,2.31,0,0,0-.47-1.12.75.75,0,0,0-.29-.16,1.26,1.26,0,0,0-.68-.25,8.65,8.65,0,0,0-1.84,0,10.89,10.89,0,0,1,1.56,0,29,29,0,0,1-4.09-.11,5,5,0,0,1-3.38-1.65,4.16,4.16,0,0,0,.5.61,4.47,4.47,0,0,1-1.22-1.74,7.48,7.48,0,0,1-.47-2.57,30.51,30.51,0,0,1,.44-5.11s.11-1.83,0-1.66c1-8.11,1.76-17.14,2.88-23.84-.15.62-.09-.07-.09-.31.35-2.66.14-.63.28-1.24a56.79,56.79,0,0,1,.73-6.17c.48-3.49,1.39-8,1.94-12.76a76.89,76.89,0,0,0,.46-13.52,49,49,0,0,0-1.1-8,4.2,4.2,0,0,1,.16,1.08c-.47-2.44-1.05-4.87-1.5-7.36s-.91-5-1.33-7.51-.82-5-1.23-7.53-.81-4.81-1.2-7.16l7.88.46c-1.85-.13-1.83-.2-1.84-.28l3.31.21c-.3,0-1.44,0,.32.17l5.39.29c-1.66-.1-2.72-.21-3.58-.32l5.38.34a14.8,14.8,0,0,1,1.94.3c0-.07.38-.07,1,0s1.57.1,2.41.16c0,1.07,0,2.42,0,3.36l.11.62,0,4.71c0-1,0-1.92,0-2.84-.12,1.39,0,3.18,0,5.22,0-.56,0-.78.09.15-.11,3,.09,4.94,0,7.78l-.08-2.71c-.13.37.19,5.66-.06,5.52.14,2.5.18.3.24.15l0,4.42s0,0,0,0a.79.79,0,0,0,0,.17l0,4.1c0-.48-.08-.9-.11-1.43,0-.68,0-2.56.06-2.84,0-.45-.12-1.2-.16-.33,0,2.9,0,7.36.24,8.13v0l0,3.52A28.89,28.89,0,0,1,49.3,119c-.07,1.51,0,2,0,3.55l.18,2.11,0-1.36.07-.08.34,39.7q0-.08,0-.06c0,.85-.07,2.3-.08,3.35l-2.44-.17c-.74-.06-1.3-.1-1.52-.15-.64,0,1.18.16-.58.11-2.1-.15-2.24-.19-3.19-.3l-.57.8-.08.15-.17.3.29.09,1.27.39a8.64,8.64,0,0,0,1.83.86l3.48,1.37-6.53-2.75-.15-.06.09-.13.6-.91,3,.19c-1,0-1.93-.06-2.93-.1l-.42.64h0v0l-.13.21,0,0,0,0,.23.09v0l3.2,1.3,3.38,1.41c0,1.26,0,2.53,0,3.84.11,2.6.06-2.5.13-2.78,0,0,0,.07,0,.09v2.41c0,.21,0,.41,0,.61v2.47a.66.66,0,0,1,0,.14v1.22a3.81,3.81,0,0,0-.25,1.46L48.13,182c.23.11.12,4.85.06,6.51a1.23,1.23,0,0,0,0-.19c0-.56,0-.5,0-.17a25.78,25.78,0,0,1-.07-4.12c0-2.15,0-4.27,0-6.39a29.93,29.93,0,0,0-.24,4.5c0-2.37.08,1.59.15-.39.08,2.3-.21,5.25-.12,9.33,0-1.46.08-.9.11-.13-.07,2.68,0,7,0,9.7,0-.11,0-.11.07-.06-.06,2.37-.06,3.07-.16,5.7-.22,9.85,0,23.37-.29,31.7-.14,2.61-.12-2.74-.19-1.66.14,5,.3,8.09.48,9.72a43.49,43.49,0,0,1-3.61-3.29,36.14,36.14,0,0,1-3.78-5.29,80.79,80.79,0,0,1-6-12.79C34,223.63,33.62,222.76,34.13,224.22Zm-2.72-2s0,0,0,0c.1.6.64,1.78.62,2s0-.33.19.1a3.84,3.84,0,0,1,.25,1.05l.26.34c-.12.12.2.81.53,1.55-.3-.9-.6-1.84-1-2.85.67,1.23,1,2.52,1.54,3.83.38.61-.21-.66-.17-.75h0l.26.61a.44.44,0,0,0,.06.16l.26.62h0l0,0,.12.3c0,.13-.19.22-.07.47l.17.79c.23-.06.63,1.17.75,1.61l0,0c-.06-.14-.06-.12,0,0a2.1,2.1,0,0,1-.5-1c-.25-.53-.47-1.06-.68-1.6a2.58,2.58,0,0,0,.26,1.22c-.2-.62.25.37.1-.16.32.55.37,1.41.89,2.4-.18-.36,0-.26.09-.08.22.7.72,1.78,1,2.46a.07.07,0,0,1,.07,0c.2.62.27.8.45,1.5.84,2.49,2.39,5.7,3.07,7.9-1.19-.88-2.48-1.77-3.82-2.69-.27-.14-.51-.25-.18,0,.6.32.82.61.36.4-.64-.36.14-.06-.64-.45l.32.27a7.7,7.7,0,0,0-1.59-.85c-2.65-2.08-5.78-4-7.79-6.2l-.85-.55c0-.08,0-.22-.4-.52.13.13.35.33.29.31-.57-.5-1.1-1-1.64-1.55L24,233a21.84,21.84,0,0,1-1.91-2s-.41-.3-.42-.21a53.54,53.54,0,0,1-4.22-5c.07.17-.08.05-.14,0-.47-.56-.07-.17-.13-.34-.25,0-1.78-1.95-3.19-4.12s-2.74-4.5-3.13-5c.08.16.16.33.1.28-.94-1.59-2-3.48-2.7-4.7l4.3.12c-.5,0-.5-.11-.5-.18l.91,0c-.09,0-.39,0,.08.14l1.79,0a4.15,4.15,0,0,1-1.28-.14l1.47.07c.18.06.54.13.52.19,0-.21,1.23,0,1.91,0l.17-.09,1.29.05h-.78a6.72,6.72,0,0,0,1.47.14c-.18,0-.28-.07,0-.1.83.17,1.35,0,2.12.15l-.74,0c.1.14,1.55-.07,1.5.17.69-.09.11-.16.07-.23l1.2,0s0,0,0,0h0l1.12,0a4,4,0,0,1-.4.09,5.07,5.07,0,0,1-.76-.12c-.13,0-.34.09-.1.15a7,7,0,0,0,2.22-.07h0l1,0a2.18,2.18,0,0,1-1,.14,7.88,7.88,0,0,0,.93.06l.51-.12,0,0,0-.06H27v-.06h.32Zm3.49,8.27-.19-.09c-.22-.47-.16-.49,0-.44Zm-3-6.88,0,.08s0,.05,0,0a4.41,4.41,0,0,1-.46-1.35l.33.78c0,.14.07.27.1.39h0Zm9.26,22.32a1,1,0,0,0,0-.29l.18.12.08.19C41.14,245.44,41.39,246.25,41.19,245.91Zm26-237.32-.11-.09.1.07ZM99.13,55.93c0,.12,0,.25,0,.37-.31-1.78-.7-3.53-1.15-5.26C98.42,52.56,98.79,54.18,99.13,55.93ZM64.35,189.65h0Zm0-.08h0ZM60,190.92l-1.56.51h-.2ZM48.08,166.21l-.56-.05c-.07,0-.11,0-.09,0,.35,0,.75,0,1.17,0l1.17.08c0-.84.07-1.71.09-2.33a2.62,2.62,0,0,1,0-.29l0,2.74h-.32l-1.48-.14h0Zm.45,14.39v2.12l-.14-.56C48.37,180.25,48.44,180.26,48.53,180.6Zm-22-1.24c0,.69-.17,2-.3,3.23-.09.89-.12,1.72-.14,2.19a26.64,26.64,0,0,1,.15-2.83c.09-.83.17-1.65.26-2.48C26.5,179.44,26.51,179.38,26.52,179.36Zm1.83,10.37a5.76,5.76,0,0,0,1.86.75,15.2,15.2,0,0,0,3.74.25s0,0,0,0c-2.95.07-5.09-.22-6.47-1.7a5.68,5.68,0,0,1-1.36-3.77c0,.28,0-.18.07-.55s.07-.73.12.28a6.17,6.17,0,0,0,.43,2.5A5.29,5.29,0,0,0,28,189.29a5.17,5.17,0,0,1-.73-.6A4.88,4.88,0,0,0,28.35,189.73Zm4.32,50.66.15.11-.23-.16Zm1.61,1.14.26.16-.12-.05Zm-4.29-3v.07c-.14-.1-.27-.21-.4-.32ZM13.8,121.09h0a24.68,24.68,0,0,1,.4,4.76c0-.61,0-1.27-.1-2.15C14.05,123,14,122.15,13.8,121.09ZM27,207.76a1.15,1.15,0,0,1-.08-.65Zm.21,1.66s0,0,0,0-.07-.2-.13.07l.09.51-.77.15a3.11,3.11,0,0,1,.86-.08l0-.12,0,.16-1,.14c-.16,0-.45,0-.46-.1.06.21-1,.18-1.53.27l-.13.12-1.09.13.67-.11a5.17,5.17,0,0,0-1.27,0c.19,0,.33,0,.08.09-.69-.07-1.1.15-1.75.08l.61-.1c-.09-.11-1.26.21-1.24,0-.55.14-.07.17,0,.23l-1,0s0,0,0,0l0,0h-.93l.33-.1a3.14,3.14,0,0,1,.63.08c.1,0,.28-.11.08-.15a5.52,5.52,0,0,0-1.82.14h0l-.79,0a1.76,1.76,0,0,1,.86-.13c-.34-.09-.45,0-.79-.07l-.49.13h.31v.07a14.84,14.84,0,0,1-8.3-2.86h0c-.3-.4-1.09-1.09-1.11-1.29s.11.26-.19,0a2,2,0,0,1-.43-.77l-.29-.19c.08-.12-.29-.61-.64-1.17a9.34,9.34,0,0,0,1.34,2.12A8.69,8.69,0,0,1,5,203.8c-.38-.46.21.52.19.6s0,0,0,0l-.27-.47a.43.43,0,0,0,0-.07c-.09-.17-.17-.36-.26-.54h0l0,0L4.46,203c0-.1.19-.19.09-.4L4.46,202c-.24.07-.49-1-.54-1.33l0,0c0,.11,0,.1,0,0a1.4,1.4,0,0,1,.35.85c.19.42.36.84.53,1.28a1.85,1.85,0,0,0-.16-1c.14.5-.21-.29-.11.14-.27-.44-.21-1.14-.54-2,.1.3,0,.22-.1.06-.11-.58-.36-1.5-.48-2.08,0,0,0,0-.07,0a10.13,10.13,0,0,1-.07-1.27,48.52,48.52,0,0,1-.47-7c.1-.58.16.6.21.36-.37-2.09-.73-2.66-1.13-2.41L2,188s-.08,0-.1.13c0-.14,0-.28,0-.43l-.07-2.45,7.61,1.94c-2.2-.51-6.29-1.52-6-1.29-.1-.06,1.51.36,2.92.72l-.08,0-1.72-.37L3,185.92l-.14,0c0,.17-.35,0-.24.17l-.2,0a4.73,4.73,0,0,1,0,.6v1.06l0-.59a4.11,4.11,0,0,1,.05-.48l.09-.31.23.11a1.79,1.79,0,0,0,.42.14l1.81.49c.25,0,.47,0,.14-.09-.56-.06-.81-.25-.39-.23.61.1-.09.11.63.17l-.32-.12a4.83,4.83,0,0,0,1.48.17c2.65.86,5.68,1.18,8,2.05l.84,0c0,.08.09.18.49.25-.14,0-.39-.11-.33-.13l1.8.46-.17-.12c.55.23,1.63.33,2.2.64,0,0,.42,0,.4,0,.82.28,1.71.49,2.56.69a15.94,15.94,0,0,1,2.17.62v.2c0-.13.09,0,.12,0,.07.47,0,.13-.09.25.43.12.88,8.07,1.21,9,0-.15,0-.3,0-.25.39,2.8.77,5.88,1.19,8.52-.05-.39,0-.4.1-.41ZM15.79,163.23a.41.41,0,0,0,0-.11.41.41,0,0,1,0,.11h0L4.73,160.32l0-.06ZM7.85,77.69l0,0,.2,0c.4.24.35.3.23.32S8,77.79,7.85,77.69ZM7,76.55c.09.09.09.08,0,0a1.72,1.72,0,0,1,.8.56L9.08,78a2.08,2.08,0,0,0-.74-.77c.43.36-.36-.14,0,.18-.49-.25-.86-.9-1.62-1.49.27.22.1.21,0,.11-.41-.5-1.14-1.21-1.49-1.74a.08.08,0,0,1,0,.06,8.33,8.33,0,0,1-.64-1.19A20.77,20.77,0,0,1,3,69.6a10,10,0,0,1-.46-3.51c.09-.61.18.62.22.36a20.36,20.36,0,0,0-.5-2.19c-.16-.41-.34-.52-.55-.4l0,.33s-.07,0-.1.13c0-.15,0-.31,0-.46A99.58,99.58,0,0,1,3,53.81c0-.23.07-.44.11-.66-.38,2.5-1,6.52-.77,6.18-.07.11.22-1.67.47-3.24l0,.08c-.05.45-.15,1.18-.24,1.91-.17,1.36-.31,2.69-.23,2,.16.1,0,.66.14.65-.08,1.37-.2,2.25-.3,3.19C2.61,62,3,59.76,3.37,57.38c0-.27,0-.51-.1-.15,0,.62-.18.9-.2.45.05-.66.11.09.12-.69l-.1.36a5.43,5.43,0,0,0,.06-1.62,37.82,37.82,0,0,0,.67-4c.09-.68.18-1.35.27-2,0-.28.07-.55.11-.81s.07-.41.11-.58a4.3,4.3,0,0,1,.57.3,1.42,1.42,0,0,1,.28,0l.45.08c0,.08.08.2.5.32-.15-.06-.4-.17-.33-.17l1.88.74-.17-.15c.57.32,1.72.59,2.3,1,0,0,.45.08.43,0,1.81.87,4,1.46,5.43,2.28-.12-.11,0-.09.11-.09.62.23.13.11.25.22A13.54,13.54,0,0,1,19.31,54L24,56c0,.08,0,.15,0,.22v.28a2,2,0,0,0,0,.26c.05,1,0,.38.08,2.11l0,.16c.05,2.38.09,4.82.19,7,0-.45.07-.45.14-.45l0,.81c0-.08,0-.35-.14.08l.08,1.6a3.31,3.31,0,0,1,.07-1.15l0,1.32c-.06.16-.1.48-.17.47.21,0,.06,1.1.1,1.7l.1.16,0,1.21c0-.26,0-.51,0-.76a5.24,5.24,0,0,0-.06,1.36c0-.19.05-.31.1,0-.12.75.07,1.21,0,1.9l-.07-.66c-.13.09.16,1.38-.08,1.35.13.61.17.09.23,0l0,1.07h0l0,0,0,1a3.58,3.58,0,0,1-.11-.35,5.11,5.11,0,0,1,.07-.69c0-.11-.1-.3-.15-.08a5.3,5.3,0,0,0,.2,2h0v.86l-.08-.2a2.25,2.25,0,0,1-.11-.72c-.08.38,0,.45,0,.76l.06.19a1.7,1.7,0,0,1-.19.19l.27-.13.07,0v0l-1.19.47a17.56,17.56,0,0,1-5.93,1.23l-.34-.07a2.1,2.1,0,0,0,.32,0c.12-.06.39-.07.34-.14.32,0,.26.09.48.11a18,18,0,0,0,1.83-.36,1.47,1.47,0,0,1-.43.06,8.42,8.42,0,0,1-2.62.09c.11.07-.12.16,0,.21-.49-.11-1-.22-1.53-.31l.92,0-2.5-.49.31.1-2.72-.5L10.71,79l.6.33-.52-.1c-.32-.17-.64-.34-1-.5-.61-.19.5.32.55.41h-.07l-.5-.25-.07,0-.58-.32a0,0,0,0,0,0,0h0l-.26-.16c0-.09,0-.26-.17-.39l-.49-.52c-.15.18-1-.6-1.25-.91ZM9.49,47.38c.29.35-.11-.43.16-.09A3.85,3.85,0,0,0,10.92,49c.38.33.76.62,1.09.91l-.43-.16A10,10,0,0,1,9.49,47.38ZM40.11,9.75a2.38,2.38,0,0,1,.41-.83Zm-.52,1a.54.54,0,0,0-.05.11,1.64,1.64,0,0,1,.08-.22l.09-.12ZM21.2,20.87A10.93,10.93,0,0,1,20,22.15c.4-.43.8-.85,1.21-1.27Zm-3.65,4a.06.06,0,0,1,0,0c.76-.9,1.54-1.78,2.34-2.65-.1.2.57-.41.2.1-.54.44-.64.79-1.09,1.12l.12-.3C18.77,23.51,17.9,24.44,17.55,24.91Zm-6.47,9.16-.13.21.14-.24Zm-.46.74h0l.07-.11Zm-.76,1.33-.17.39.05-.15ZM17,25.47c-.13.17-.29.39-.55.7a3.91,3.91,0,0,1-.4.47C16.41,26.25,16.72,25.85,17,25.47ZM13,30.9l-.07,0,.33-.48C13.17,30.59,13.09,30.74,13,30.9ZM9.85,35.83a10.18,10.18,0,0,0-1.5,4.7,11.76,11.76,0,0,1,1-3.41c.09-.2.19-.4.29-.6v.1A16.18,16.18,0,0,0,8.79,39a11.68,11.68,0,0,0-.42,2.52c.16.11,0,.84.2.8a11.12,11.12,0,0,0,.87,3.85,11,11,0,0,1,.28-7.93c.08-.32.15-.61-.06-.19-.22.73-.41,1.07-.33.51.24-.8.08.12.33-.82-.08.13-.14.28-.21.42.33-.91.51-1.36.67-1.94,2.1-3.32,4.24-7.09,6.63-9.6l.61-1c.08,0,.23,0,.58-.5-.15.15-.38.42-.35.35.58-.67,1.13-1.36,1.73-2l-.24.15a31.43,31.43,0,0,1,2.29-2.34s.34-.48.26-.48a59.42,59.42,0,0,1,5.74-5.11c-.19.08-.05-.09,0-.16.66-.54.19-.08.39-.16,0-.27,2.28-2.1,4.82-3.77s5.28-3.22,5.83-3.67c-.18.1-.37.2-.32.13l3.79-2.3-2.79,5.72c.28-.53.35-.49.42-.46l-.5,1s.22-.51-.18,0L37.9,13.8a6,6,0,0,1,.84-1.37L37.88,14c-.15.16-.4.52-.45.47.2.08-.65,1.29-1,2v.24c-.24.46-.49.93-.72,1.4.14-.31.28-.61.42-.89a6.8,6.8,0,0,0-.83,1.5c.11-.18.18-.26.08,0a22.68,22.68,0,0,0-1,2.27l.27-.83c-.19.06-.53,1.75-.73,1.63-.1.53,0,.43.08.29l-2.29,4.08.57,1.3c-1.19,3.65-2.4,7.56-3.52,11.6,0,0,0,0,0,0-.33.62-.68,2.1-.84,2.3s.19-.34.08.22a4.81,4.81,0,0,1-.49,1.17v.49c-.17,0-.36.9-.58,1.84.35-1.06.71-2.17,1.07-3.37-.27,1.62-.88,3.05-1.24,4.69-.08.84.25-.77.33-.84s0,0,0,.08c-.06.23-.11.46-.17.69l0,.15c-.06.22-.11.43-.16.65,0,.06,0,.12-.05.18h0v0c0,.14-.07.27-.1.39s-.29.07-.37.38a8.55,8.55,0,0,1-.45.79c.1.06,0,.43-.23.81a4.36,4.36,0,0,1-.72.93.14.14,0,0,0,0-.06c.11-.13.09-.12,0,0a4.14,4.14,0,0,1,.61-1.08,12.57,12.57,0,0,0,.68-1.8,4,4,0,0,0-.65,1.19c.32-.64-.11.47.19-.05A6.28,6.28,0,0,1,24,51c.28-.29.24-.11.1.06a5.93,5.93,0,0,1-1.19.69,5,5,0,0,1-1.36.34,0,0,0,0,1,0,.07A6.58,6.58,0,0,1,19.86,52,21.6,21.6,0,0,1,15,50.81a9,9,0,0,1-3.69-2.61c-.44-.64.64.48.47.2A24.08,24.08,0,0,1,9.7,46.5c-.39-.36-.62-.41-.72-.16l.23.36s-.05,0,0,.12c-.08-.15-.18-.29-.26-.45-1.56-3.24-1.15-7.15,1.16-11,.56-.93,1.13-1.83,1.72-2.73C11.22,33.51,10.5,34.67,9.85,35.83ZM96.19,51.47c-.12.56-.08.12-.17.23.08.08,0,.6-.36,1.28a4.74,4.74,0,0,1-.73,1.07,4.21,4.21,0,0,1-1.07,1,2.39,2.39,0,0,1-1.37.38l-1.43,0a15,15,0,0,0-1.78.13c.14,0,.29,0,.24,0-2.81.14-5.87.14-8.56.13.4,0,.41.09.41.16l-.69,0c.09,0,.21,0-.12-.13H79.11a3.22,3.22,0,0,1,1,.11l-1.17,0c-.15-.06-.41-.12-.4-.19,0,.1-.24.11-.54,0a4.15,4.15,0,0,1-.87-.43H77a4.44,4.44,0,0,1-.7-.61l.38.34c-.15-.3-.49-.55-.75-.93.07.14.1.23-.07.07A7.78,7.78,0,0,1,75,52.6a4.33,4.33,0,0,0,.31.51c.06-.11-.66-1.07-.39-1.13-.25-.47-.19-.06-.22,0a3,3,0,0,1-.12-.4c0-.18-.07-.36-.11-.55,0,0,0,0,0,0l0,0-.18-.94c0,.12.12.21.18.34a3,3,0,0,1,0,.64c.06.09.15.25.16,0a4.4,4.4,0,0,0-.49-1.74c0,.07,0,.12,0,.18-.07-.33-.13-.66-.19-1a1.37,1.37,0,0,1,.36.83c0-.35-.1-.44-.12-.78L74,48.16l.09.29-.09,0c-.57-2.94-1.11-5.88-1.6-8.74,0,0,0,0,0,0,.06-.5-.17-1.53-.09-1.71s0,.28-.16-.1a2.63,2.63,0,0,1,0-.89L72,36.77c.11-.06.06-.43,0-.88,0-.15-.06-.31-.09-.46,0,.32.05.66.08,1s.09,1,.16,1.49a7.69,7.69,0,0,1-.31-1.63c-.06-.56-.11-1.16-.21-1.63a.64.64,0,0,0,0-.1s0,0,0,0,.09.62.06.66,0,0,0,0l-.12-.67.46-.28h0l0,0,.23-.14c.11,0,.22.17.41,0l.63-.21c-.1-.2.86-.66,1.21-.81l0,0c-.11.07-.09.07,0,0a1.37,1.37,0,0,1-.75.53,12.74,12.74,0,0,1-1.21.74,1.63,1.63,0,0,0,1-.32c-.48.23.26-.25-.16-.08.4-.34,1.11-.44,1.84-1-.26.19-.21,0-.08-.07.55-.26,1.35-.79,1.87-1.1,0,0,0,0,0-.05.48-.23.62-.31,1.17-.53,1-.48,2.11-1.16,3.19-1.81.54-.32,1.07-.64,1.58-.92l.73-.4c.1,0,.28-.14.31-.14h.07c.07.12,0,.17,0,.21a.21.21,0,0,1,0-.18.27.27,0,0,1,.21-.05c.14.05.35.19.47.22s.43,0,.49-.17l-.22-.21s0-.05,0-.16l.28.32a51.24,51.24,0,0,1,5.53,7.93c-.31-.53-.68-1.14-1.06-1.72a13.5,13.5,0,0,0-2.08-2.78,21,21,0,0,1,1.43,2.06c.09.13.18.26.26.4l-.07,0c-.24-.33-.62-.88-1-1.41-.73-1-1.49-2-1.09-1.45-.19,0-.4-.46-.52-.33-.82-.93-1.3-1.58-1.82-2.27,1,1.51,2.13,3.17,3.32,5,.16.18.32.34.17,0-.37-.41-.43-.71-.13-.42.38.46-.14,0,.34.54l-.15-.31a4.48,4.48,0,0,0,1,1.11c1.29,2.41,3,4.86,3.73,7.18l.47.68c-.05.07-.09.18.1.54,0-.15-.14-.37-.1-.33l.68,1.7v-.21A20.19,20.19,0,0,1,94.75,46s.21.36.26.3c.23.89.52,1.8.79,2.68.13.44.26.87.35,1.28a2.1,2.1,0,0,1-.07,1.09C96.16,51.27,96.17,51.42,96.19,51.47ZM81.46,55.93h.13l.07,0Zm.85,0a1.05,1.05,0,0,1,.6,0ZM59,11.09c-.42-.66-1.38-2.57-1.58-3L59,11A.31.31,0,0,1,59,11.09ZM55.44,4.42c-.89.3-2,.67-2.55.9,0,0,0,0,0,0l2.55-.9,1.85,3.51c-.22-.32.5,1.24-.11.23-.53-1.21-1-1.67-1.35-2.64l.38.46Zm-2.87,30a3.67,3.67,0,0,0,1.1.2c.41,0,.8,0,1.18.05.75,0,1.42,0,1.94-.08,1-.06,1.42-.09.54,0,.19-.19,1.65-.16,1.56-.31a18.25,18.25,0,0,1,2.42-.06c.67,0,1.33,0,2,0h.51a.29.29,0,0,0,.21,0l.85-.3,1.6-.54c-.11.48,0,.63.22.49l.27-.54.3-.6-.13.66,0,.22s-.08,0-.17.28l.12-.52-.29.53-2.74,1c-1-.08-1.86.06-2.83,0-2.59-.16-5.84.5-8.48,0-1.93-.36-2.74-8-2.83-9.9a31.33,31.33,0,0,1,0-3.23,32,32,0,0,0,0,3.38c.09,1.23.25,2.53.46,3.81a23.35,23.35,0,0,0,.85,3.64,6.74,6.74,0,0,0,.69,1.51,1.32,1.32,0,0,0,1.11.73,6.35,6.35,0,0,0,2.51,0,11.06,11.06,0,0,1-1.95,0c-1.52.3-2.11-1.7-2.55-3.35-.1-.42-.2-.84-.28-1.26l.08.2a1.06,1.06,0,0,1,0,.19c.13.54.3,1.23.55,2A4.15,4.15,0,0,0,52.57,34.45Zm14.31.49a14.48,14.48,0,0,0-.66,2.36H63.05a13.4,13.4,0,0,1-2.65-.22l5.76.15.57-2.48C66.51,35.93,67,34.08,66.88,34.94ZM51.1,53l-.05-.38c.06.23.13.54.21.89s.22.69.31,1a5.16,5.16,0,0,1,.35.88c.1.08.21.14.31.21.4.58.63.74.62.82s-.05,0-.13,0a5.92,5.92,0,0,1-.8-1h0a7.59,7.59,0,0,1-1-2.84,71,71,0,0,1-.58-11c0-1.07,0-2,0-2.81l-.06-2,9.52.24-9.47-.18c.07,1.32.09,2.82.09,4.22s0,2.83,0,4.2A51.19,51.19,0,0,0,51.1,53ZM49.51,71.67a1.31,1.31,0,0,1,0,.15,15.59,15.59,0,0,1,0-2.37c0-.47-.16.87-.22,0,.11-.89,0-1.29.07-2l.11.4c0-.65.08-2.28.05-3,0,0,0,.06.07.14C49.57,67.22,49.54,69.45,49.51,71.67ZM10,50.11l0,0a5.88,5.88,0,0,1-1.28-.52Zm15.28.36-.15.14c.24-.33.73-1.21.84-1.28a6.61,6.61,0,0,1-1.26,1.9c-1.59,1.58-3.75,1.62-5.94,1.33l-.3-.06-.16-.08c.31,0,.63.09.94.12a8.6,8.6,0,0,0,3.48-.21A5,5,0,0,0,25.27,50.47Zm2.92-9.64a.25.25,0,0,1,0,.07s0,.05-.05,0a6.15,6.15,0,0,1,.56-1.62c-.09.33-.19.66-.28,1l-.18.44h0A.36.36,0,0,0,28.19,40.83ZM49.06,33.6l.77.13v.09s0,0,0,0l-.55-.06S49.26,33.66,49.06,33.6Zm-.12,11.51c-.07-1,.06-1.55.13-.8,0,1.12-.12-.12,0,1.19l.05-.63a15.64,15.64,0,0,0,.17,2.7c-.22,5.08.16,10.59-.17,15l.16,1.51c-.07.07-.16.24-.13,1a3.22,3.22,0,0,1,0-.63l0,3.38.08-.34c-.1,1.07.05,3-.12,4.18,0,0,.08.75.15.68-.09,1.67-.09,3.44-.09,5.13a4.76,4.76,0,0,1-2.26,3.66c.23-.1,0,.09,0,.17-.87.59-.24.09-.48.18.06.43-3.59,1.59-7.44,1.52a29.55,29.55,0,0,1-5.44-.54,15.4,15.4,0,0,1-1.94-.55c-.5-.23-.88-.36-1.07-.46.21.15.46.25.36.24a6.33,6.33,0,0,1-2.78-2.52,11.51,11.51,0,0,1-1.3-3.69,32.28,32.28,0,0,1-.45-3.91c-.12-1.29-.24-2.57-.36-3.8,0,.52,0,.68,0,.73l-.09-1.09a2.08,2.08,0,0,0,0-.37c-.1-.92-.19-1.81-.28-2.67a11,11,0,0,1,.09,1.34c-.06-.62-.11-1.23-.18-1.87,0-.27,0-.55.08-.55-.18.06-.18-1.38-.27-2.42,0-.46,0-.92,0-1.38l0,.7a3.06,3.06,0,0,1,0-.77,7.14,7.14,0,0,0-.1.88l0-.05c0-1.06.11-1.24.16-2.35-.06-.11-.21.74-.28-.2.12.07.16-.74.3-.12a2.35,2.35,0,0,1,0-.69.69.69,0,0,0,0-.21c0-.08,0-.21-.06-.49v.45c0,.11-.06,0-.07-.11s0-.56,0-.76.05-.46.07-.67-.28-.15-.46-.24c0-.29-.09-.72-.14-1.11.34,0,.62.07.64.16.57,0,.38-.1.13-.17l-.19-.06,1.81.18v0h.07l1.67.17-.6,0a11.26,11.26,0,0,1-1.14-.2c-.19,0-.51,0-.15.13a14.53,14.53,0,0,0,3.33.17h0l1.43.15a5.09,5.09,0,0,1-1.56,0,14,14,0,0,0,1.45.17l.87-.07-.55,0,0-.07,5.45.55c0,.05,0,.09,0,.14h0l0-.13h.13l-.1.12h0l.1-.12.22,0a1.08,1.08,0,0,0-.08-.19l.12-.14h0l-.11.13-.06-.15.16,0-.17-.06C37,53.41,36,53.36,34.22,53.28s-4.1-.18-5.77-2c0,0,0,0,.05,0-.16-.23-.37-.55-.57-.9s-.4-.74-.51-1a4.13,4.13,0,0,1,.24-.75c0-.27-.2.45-.08-.26a8.69,8.69,0,0,1,.53-1.53l0-.62a8.32,8.32,0,0,0,.65-2.37c-.39,1.37-.8,2.8-1.19,4.35.32-2.07,1-3.92,1.42-6,.13-1.06-.29,1-.38,1.08v0l.21-1a1,1,0,0,0,.06-.25l.22-1h0v0l.11-.49c.09-.15.29-.12.38-.53l.4-1.12c-.21-.1.32-2,.53-2.62v.08c0,.22,0,.2,0,.07A4.23,4.23,0,0,1,30.25,38c-.16.87-.36,1.71-.57,2.55a5.37,5.37,0,0,0,.64-1.74c-.27.94.06-.65-.19.12.12-.89.62-2,.91-3.48-.08.28-.11.07-.07-.19.15-.53.31-1.23.47-1.93s.27-1.22.38-1.69c0,0-.05,0-.07,0l.09-.26,1.28.34c4,.83,9.46,1.5,12.78,2.29,1,.31-1.12,0-.7.09a24.84,24.84,0,0,0,4,.14c-.24,3.18-.34,6.78-.39,10.65C48.84,45.35,48.89,45.75,48.94,45.11Zm.56,5.38v.15S49.5,50.54,49.5,50.49Zm0-3a4.08,4.08,0,0,1,0-.59l0,.27C49.53,47.26,49.52,47.37,49.52,47.47Zm-20-8.16.19-.85.09.26C29.65,39.49,29.58,39.47,29.52,39.31ZM27.31,49.4s0,0,0-.07,0-.1.05-.09v.15c.21.31.44.88.66,1.27a4.5,4.5,0,0,0,.27.44,7,7,0,0,1-.71-1C27.49,49.83,27.4,49.6,27.31,49.4Zm-.44,27.42.09.29Zm-.75-5.57c0-.29,0-.58-.05-.88a3.77,3.77,0,0,1,.06,1A.66.66,0,0,0,26.12,71.25ZM24.71,54.79h0c0-.22,0-.43,0-.66l.1.69ZM48.32,33.68c-1.24-.54-4.06-.43-5.38-1l5.55.88C47.67,33.44,48.91,33.72,48.32,33.68Zm-5.85-1.13L31.64,30.91a.13.13,0,0,1,0-.08ZM31.53,30.89h0l-.05.2c0,.1-.06.2-.1.3l.06-.1c-.05.23-.1.44-.15.66l-.1.06,0-.2c.05-.14.09-.28.14-.42a1.63,1.63,0,0,0-.11.29l.2-.88.1,0Zm-.43,1.46,0-.15a5.32,5.32,0,0,1-.26,1Zm-.17,1.07c0,.16-.07.34-.11.5-.24,1-.46,2-.68,2.87l.09-.25a9.24,9.24,0,0,1-.51,1.92l1.14-5.07a.48.48,0,0,0,0,.16A.32.32,0,0,0,30.93,33.42ZM26.22,48.68c-.08.22-.16.43-.25.63l0-.21C26.11,48.53,26.18,48.55,26.22,48.68ZM17.34,52.3l-.44-.15c.36.08.72.15,1.09.21,0,0,0,0,0,0Zm-4.73-1.86.24.14Zm-.1-.07L12.06,50l.23.08A1.71,1.71,0,0,1,12.51,50.37Zm11.6,7.26c0,.26,0,.53,0,.79-.06-.44-.09-.85,0-.84Zm.35,6.92a1.28,1.28,0,0,1,0-.71Zm0,1s0-.08,0-.17,0-.07,0-.11ZM14.36,80.42l-.43-.15.83.15.32.11Zm.87.13s0,0,0,0l.27,0Zm3.31,1.13a12.57,12.57,0,0,1-2.21-.42Zm3,.58L21,82.17l-.29-.08Zm-1,22.16h0Zm-.06.06,0,0-.07,0,.06-.06Zm-.08.11a1.73,1.73,0,0,0-.21.33l.3.1s0,0,0,0l.09,0,0,.09a.21.21,0,0,0,0-.06l.07,0,0,.1-.27-.07-.34-.12-.1,0,.05-.09a2.68,2.68,0,0,1,.25-.37Zm.45.55.73.24-.78-.18ZM49.55,62.76c0-.79,0-.91.08-.89l0,2.5A10.72,10.72,0,0,1,49.55,62.76Zm.08-1.57s0,0,0,0c0-.84,0-1.31,0-1.92C49.65,59.93,49.64,60.56,49.63,61.19Zm0-5.94.1-.13c0,.47,0,.94,0,1.41C49.65,56.14,49.62,55.72,49.59,55.25Zm0-13.84c0-.21,0,2.82,0,5.49l0-.13c0-2.16-.06-8.41-.06-6.58-.18-.14,0-1.11-.22-1.06-.06-2.06,0-3.48,0-4.9a1,1,0,0,0,.59-.18l-.06,9.38c0,3.78,0,7.61-.07,11.46C49.63,53.13,49.76,40.58,49.55,41.41ZM68.74,28h0l0,.07h0v0h0v0h0l0-.07h0l-.1-.24,0-.17,0-.11.06.11Zm4.59-12.58,1.24,1.13A7.94,7.94,0,0,1,73.33,15.44Zm2.59,2.43.26.25L76,18ZM73.93,33l.14,0a2.87,2.87,0,0,1-1,.49l8.9-5.4C79.41,29.7,76.33,31.66,73.93,33ZM72.21,38.6v-.1s0,0,0,0a3,3,0,0,1,.1,1.17c0-.24-.08-.46-.12-.69Zm.49-4.89.4-.24,0,.18C72.72,33.89,72.68,33.83,72.7,33.71Zm-3.93-5.56v0l0,0Zm-.13-1.1h0l0,0h0Zm0-.05ZM50.13,25.68c-.05-.63-.08-1.05-.08-1.16,0,.18,0,.39.05.62S50.12,25.51,50.13,25.68Zm.19-7.81-.06.11c0-.4.08-.79.13-1.2C50.37,17.13,50.35,17.49,50.32,17.87Zm-.41,3.74v0Zm.79,8.2a4.21,4.21,0,0,1-.09-.49s.07.31.2.88ZM50.53,7.46l0-1.33.94-.33c-.25.1-.54.21-.92.34v.6c0,.65,0,1,0,1.17C50.53,7.76,50.53,7.61,50.53,7.46Zm43,34.35c0-.11-.1-.23-.16-.39a2.31,2.31,0,0,1-.16-.4C93.31,41.28,93.41,41.55,93.52,41.81Zm-4.38-7.92.11.11.1.14S89.27,34.06,89.14,33.89Zm1,1.58-.12-.2.17.27Zm1.41,2.27,0-.05.21.38Zm2.23,4.74c0,.11.09.22.14.33l-.15-.34ZM95.12,46h0a4.93,4.93,0,0,1-.38-1.1C94.87,45.28,95,45.64,95.12,46Zm-.44-1.26c-.06,0,0,.49-.16.13s-.29-.64-.33-1l.18.16c-.1-.24-.27-.78-.43-1.19C94.19,43.46,94.44,44.1,94.68,44.75ZM84.63,27.45c-.32-.3.05.27-.18.08a1.75,1.75,0,0,0-.39-.63c-.32.21-.59.44-.92.66a2.17,2.17,0,0,1-1,.4l1.9-1.15ZM65,8.17l1.67,1.52,3.6,3.23c2.4,2.13,4.74,4.24,6.88,6.31-.76-.74-.74-.83-.71-.88.47.45.94.9,1.4,1.36-.18-.15-.53-.46.09.28l1.43,1.43c.33.35.67.67,1,1-.33-.41-.65-.71-.88-1s-.36-.42-.51-.61c.4.42.82.83,1.21,1.25a4,4,0,0,1,.76,1.15,2.66,2.66,0,0,1,.08.33c.09.38.09.8,0,.78.1-.05.23.65,0,1.47A5.85,5.85,0,0,1,79.46,28a3,3,0,0,1-.2.29,9.59,9.59,0,0,1-2,1.32,11.45,11.45,0,0,0,1-.61,17,17,0,0,1-3.69,1.54c.65-.18,1.66-.5.77-.12a21.4,21.4,0,0,1-4.58.87c.49-.08,1-.16,1.58-.26a11.36,11.36,0,0,0-1.69.21c-.31-.6-.67-1.35-.54-1.35-.75-1.32-.23-.09-.25,0l-.2-.44-.4-1.56c.16.4,0-.64-.08-1l-.26.08c.15.56.35,1.45.51,2.05L69,28h.09L69,27.72l0,0c0,.06,0,.06,0,0s.08,0,0-.2l-.06-.13a4,4,0,0,0-.09-.45h0c0,.13.07.28.1.43l-.18-.4.08,0v0l-.1,0h0v0c-1.27-2.74-2.94-6.36-4.46-9.67-.76-1.64-1.48-3.19-2.09-4.52l-.84-1.8-.56-1.16.33-.45c-.22.25-.41.46-.38.38L63,6.87ZM63.05,6.86l.2-.25,1.39,1.27C64.12,7.53,63.59,7.2,63.05,6.86ZM76.48,30l.13-.06ZM32.29,27.24l.08-.31h.07l-.12.37Zm0-1,.1.25a.93.93,0,0,1,0,.13l0,.53c-.13-.29-.26-.6-.4-.93.43-.78.95-1.7,1.5-2.68a15.73,15.73,0,0,0-.49,1.61ZM8.68,49.6c-.17,0,.44.32,0,.21-.46-.29-.74-.23-1.09-.48l.26,0c-.36-.14-1.25-.55-1.67-.68,0,0,0,0,0,0ZM5.61,48.39A3.89,3.89,0,0,1,5,48.16,1.8,1.8,0,0,1,4.55,48ZM3.18,54c0,.18-.06.36-.09.52h0c.05-.31.09-.54.1-.66A.57.57,0,0,1,3.18,54ZM2.9,55.75a1.59,1.59,0,0,1,0,.36V56Zm.62-4.61,0,0c0-.14,0-.27.07-.41C3.53,50.88,3.53,51,3.52,51.14Zm10.72,82.79a24.67,24.67,0,0,1-.56,2.42c-.24.77-.47,1.44-.57,1.71a39.62,39.62,0,0,0,1.09-4A.36.36,0,0,1,14.24,133.93ZM11,143.45c-.5,1-1,1.94-1.3,2.56,0,0,0,0,0,0a.61.61,0,0,1,.07-.14A45.79,45.79,0,0,0,13,138.3c-.09.48.62-1.56.25-.12-.29.78-.52,1.34-.69,1.88a8.75,8.75,0,0,1-.66,1.6l.18-.71C11.88,141.49,11.45,142.46,11,143.45Zm4.84,19.17a.66.66,0,0,0,0-.15A.76.76,0,0,1,15.84,162.62Zm0-.2a.14.14,0,0,0,0-.07A.25.25,0,0,1,15.82,162.42Zm-4.49-1.55.11.08c-.42-.12-.83-.26-1.21-.4C10.58,160.67,11,160.77,11.33,160.87Zm4.51,1.78v0a.09.09,0,0,0,0,0Zm-3.21-.07-1.3-.35,1.58.41Zm-5.44-1.46c.06,0-.06,0-.37-.07l-.68-.18.51.1Zm.88-10.8c.15-.4.27-.8.4-1.2s.3-.92.47-1.38c-.16.47-.35,1.07-.63,1.91s-.39,1.15-.48,1.36C7.91,150.78,8,150.56,8.07,150.32ZM6.2,160.85l-.26,0-1.27-.31,0-.06Zm-1.54-.35H4.58c0,.09,0,.19,0,.29s-.05.17-.08.26l0-.56,0-.07.13,0Zm-.3.54c0,.17,0,.33,0,.49l-.09.33,0-.5C4.3,161.26,4.33,161.15,4.36,161ZM3,168.26a25,25,0,0,0,1.27-5.82l0-.45.09-.32a17.55,17.55,0,0,1-.14,2,22.32,22.32,0,0,1-.56,2.71c-.39,1.48-.61,2.27-.47,2-.07.15.23-.77.64-2.28a23,23,0,0,0,.54-2.68c.06-.51.08-1,.11-1.57l0-.63c0-.09,0-.19.08-.28,0,.4,0,.81-.05,1.26a13.61,13.61,0,0,1-.21,2.17,39.71,39.71,0,0,1-1,4c-.68,2.3-1,3.66-.62,2.22.08.29-.42,2-.23,1.94-.73,4.11.17,6.8,1.89,9a10.08,10.08,0,0,1-1.81-4,12.48,12.48,0,0,1,.14-4.74c.33-1.64.88-3.31,1.42-5.07a20.74,20.74,0,0,0,1.1-5.68v-.31c0-.14,0-.07,0-.11a.24.24,0,0,0,0-.09s0,0-.08.12a9.17,9.17,0,0,1-.15,2c-.08.32-.09.2-.06-.54.06-1.1.06-1,.09-1s0,0,0-.15v-.36l0-.26,0,.21v.2l0,.29c0-.23,0-.45,0-.65V161l.38.08.19,0,.37.08,1.48.28c2.72.78,5.52,1.54,8.33,2.27l.52.13.07-.52c.07-.44.18-1.27-.4-1.55a4.23,4.23,0,0,0-1.4-.54c-.85-.18-1.66-.34-2.46-.54a7.67,7.67,0,0,1-4.13-2.1,4.69,4.69,0,0,1-.64-4.22,31.45,31.45,0,0,1,1.39-4.21c.26-.91.46-1.82.74-2.7.13-.09.26-.36.85-1.56-.26.44-.59,1.18-.54,1,.41-.91.94-1.86,1.4-2.8s.87-1.93,1.31-2.9l-.34.57a48.07,48.07,0,0,0,2.47-7.44,4.93,4.93,0,0,1,.09-.7c0-.33.06-.64,0-.58a34.82,34.82,0,0,0,.61-9.57,60,60,0,0,0-1.36-8.71c.08.48-.1,0-.18-.19-.56-2-.08-.48-.15-1-.15-.19-.7-2-1.66-4.47s-2.59-5.68-3.78-9.07-2.2-6.94-3-9.83-1.43-5.1-1.7-5.89c.12.49.25,1,.18.82-.33-1.13-.66-2.28-1-3.43-.09-.31-.19-.62-.29-.93-.1-.6-.19-1.19-.28-1.76a3.11,3.11,0,0,0,0-.32c7.13,1.34,14.41,2.72,21,4-1.38-.28-1.35-.35-1.36-.42l2.49.48c-.23,0-1.08-.17.22.18l1.06.19c.15,1,.3,2,.44,2.89-.19-1.29-.25-2.1-.3-2.79l.13.88,0-.15.09.56.4,2.79a9.93,9.93,0,0,1,0,1.49c.2-.1.52,3.39.81,5.25l.17.46.49,3.56c-.11-.73-.22-1.45-.32-2.14,0,1.09.28,2.48.48,4.08,0-.52,0-.8.1,0,.15,1.76.41,3.05.6,4.44-.42.13-.84.25-1.34.38l1.26-.43-.1-.58a1.87,1.87,0,0,0,0,.54l-.88.29a6.34,6.34,0,0,1-1.12.32c-.73.13-1.31,0-1.26,0-1.77-.14-.41.13-.17.21a12.56,12.56,0,0,1-2.28-.48c-.31-.08-.66-.18-1-.25,0,0,0,0,0,0h-.14a1.53,1.53,0,0,0-.91,0l-.05,0-.06,0,.05,0a1.52,1.52,0,0,1,1,0l.13,0c.35,0,.93.12.28-.09-.21,0-.41-.1-.66-.14a1.31,1.31,0,0,0-.78.08.81.81,0,0,0-.09.1h0v0a2.35,2.35,0,0,0-.37.52l-.09.18.19.07a30.08,30.08,0,0,0,4,1.14h0l2.55.85a16.12,16.12,0,0,1-2.8-.75c1.07.45,1.47.47,2.57.88l1.58.35-1-.3-.05-.08,2.26.75.25,1A63.81,63.81,0,0,1,31,135.52l0,0c-.4,1.6-.88,5.17-1.07,5.71s.22-.88.06.46a27.37,27.37,0,0,1-.62,2.92l-.06,1.14a27.53,27.53,0,0,0-.79,4.51c.47-2.6,1-5.31,1.44-8.25,0,.07,0,.14,0,.21q-.72,4.44-1.4,8.91c-.12.73-.24,1.47-.35,2.23,0,.08,0,.13,0,.19-.16,1.08-.31,2.17-.47,3.26a1.62,1.62,0,0,0-.25.78l-.47,2.15c.21.11-.43,3.67-.68,4.92,0,0,0-.1,0-.15.06-.42.05-.38,0-.13a14.83,14.83,0,0,1,.4-3.12c.21-1.62.46-3.21.72-4.8a17.92,17.92,0,0,0-.74,3.34c.32-1.77-.1,1.21.2-.27-.18,1.75-.8,3.94-1.18,7,.14-1.11.19-.67.13-.09-.37,2-.83,5.3-1.12,7.32,0-.08.06-.07.08,0-.31,1.79-.39,2.31-.77,4.28-.24,1.5-.49,3.08-.75,4.72-.22,1.48-.45,3-.67,4.54l-.44.09-.94.15c-.62.12-1.24.15-1.85.21a20.57,20.57,0,0,1-3.62-.15,16.42,16.42,0,0,1-5.94-2c-.8-.52-.35-.3.21,0s1.28.56.94.37a21.44,21.44,0,0,1-5.82-3.58c-1-.82-1.28-.95-1.18-.5l.7.75s-.06.07.2.36a13.94,13.94,0,0,1-1-1.07c-2.6-3.2-2.62-6.57-1.95-9.77,0,.16,0,.32-.05.48,0-.21.05-.42.08-.64C2.23,170.65,2.59,169.43,3,168.26Zm27.37-28.74c0,.12,0,.24-.07.36s0,.13,0,.11a31,31,0,0,1,.67-3.83l0,.24c-.15.89-.29,1.77-.44,2.65,0,.15-.06.31-.09.45v0Zm-12,50.16c-.45-.21-.7-.11-1-.31l.24-.06c-.35-.08-1.2-.36-1.6-.43l0,0,2.39.61C18.18,189.48,18.77,189.73,18.33,189.68ZM8.18,187.07,8,187l.24.06Zm-1.53-.38s-.11,0-.33,0h.16Zm4.17.91,0-.06.41.11Zm-.77-1.07a43.75,43.75,0,0,0,4.83,1.68,18.31,18.31,0,0,1-9.41-4.67c1.5,1.27-.44-.55.45.16A11.9,11.9,0,0,0,10.05,186.53Zm5.72,1.81-.71-.1Zm-.36.38a4.82,4.82,0,0,1-.6-.13,2.92,2.92,0,0,1-.41-.12Zm4.18,1.07,0,0a5.29,5.29,0,0,1-1.21-.33Zm3.83-3.19-.19,1.31-1.3.24a19.44,19.44,0,0,1-5.68.24,22.07,22.07,0,0,0,6.94-.51c1.09-7.8,2.21-16.06,3.29-22.87-.29,2.06-.58,4.12-.88,6.23C24.89,176.29,24.18,181.41,23.42,186.6ZM26.61,164c.05-.49.18-1.32.31-2.07-.09.64-.19,1.3-.28,2Zm.58-4,0-.12a7.26,7.26,0,0,1,.22-1.22C27.32,159.12,27.26,159.56,27.19,160Zm-25.1,28.5c-.31.74.33,2.22,0,3-.07-1-.13-2-.17-3.08C2,188.89,2,188.19,2.09,188.51Zm1.67,12.56,0-.15A3.15,3.15,0,0,1,4,202a37.3,37.3,0,0,1-1.94-10.33c.14,1.53.34,3.19.61,4.82A40.38,40.38,0,0,0,3.76,201.07ZM7.9,207.7l-.36-.33L7.27,207s0,0,0,0c.32.15.62.63.8.84A1.09,1.09,0,0,1,7.9,207.7ZM4,202l.17.07c.18.39.11.41,0,.37S4.08,202.12,4,202Zm23.07,6.67s0-.07,0-.16a.38.38,0,0,0,0-.1ZM67.27,57.82s0,0,0,0c.6-.22,1.48-.45,2.16-.77a5.78,5.78,0,0,0,.8-.41,7.79,7.79,0,0,1-1.58.85A12,12,0,0,1,67.27,57.82Zm3.87-2a6.64,6.64,0,0,1-.64.55s0,0,0,0a10,10,0,0,1-2.34,1.13,7.33,7.33,0,0,1-1.92.39c-.38.09.72,0-.33.18a9.39,9.39,0,0,1-2.36,0l-.9.13c-.15-.2-1.87,0-3.68,0,1.25,0,2.55,0,3.9,0a23.63,23.63,0,0,0,3-.13,26.81,26.81,0,0,1-4.63.26,27.27,27.27,0,0,1-4.68-.18c-.78-.11-.42,0,.17.1s1.4.15,1.48.18l-.06,0c-.49,0-1-.07-1.5-.14l-.28-.05a7.74,7.74,0,0,1-1.5-.41h0l-.08,0a6.62,6.62,0,0,1-.66-.3c-.19-.18-.13-.33-.62-.68a4.11,4.11,0,0,1-.58-.6l-.26-.32-.2-.35s-.2-.1-.37-.33a4.52,4.52,0,0,1-.47-1,5.23,5.23,0,0,1-.32-1.22,8.4,8.4,0,0,1-.14-1l0,.09c0,.36,0,.32,0,.11.07.24.16.51.26.83s.27.91.43,1.46a5.58,5.58,0,0,0,2.33,2.52l-.17-.14a9.19,9.19,0,0,1-1.44-1.59c.69,1.08-.58-.65,0,.27a4.62,4.62,0,0,1-.92-2c-.17-.84-.28-1.89-.45-3.1.12.86,0,.54-.1.09C51.11,49,51,46.37,51,44.74c0,.07-.06.07-.08,0,0-1.43.05-1.85.15-3.45,0-.72,0-1.45,0-2.21,0-.5,0-1,0-1.55l7.09.21c2.56.07,5,.16,6.9.31l.55.06c.13,0,.14,0,.07,0l-.4,0h-.38c-.53,0-1.18,0-.85,0l1.11,0h1.79c.09-.46.17-.91.26-1.34l.06-.3,0-.18,0-.31q.09-.6.15-1.11a13.82,13.82,0,0,0,.13-1.52l.08-4.05-1.13,3.65-.07.28-1.71.52-.82.26a.27.27,0,0,1-.09,0l-.23,0-.52,0c-.7,0-1.32,0-1.94,0A19.15,19.15,0,0,0,59,34c-1.41,0-2.82.15-4.21.12l-1,0L53.3,34l-.38-.06s0,0-.1-.08a1.84,1.84,0,0,1-.21-.28,4.92,4.92,0,0,1-.4-.86c-.25-.56-.45-1.09-.22-.23.27.66.49,1.08.57,1.24s0,.18-.27-.21c-.35-.64-.28-.65-.26-.64s0,0-.32-.87c.07.29.16.57.25.85-.62-1.69-.8-2.66-1.14-3.73a42.05,42.05,0,0,1-.48-5.63,47.25,47.25,0,0,1,.36-5.69A46.59,46.59,0,0,0,51,12.2c0-1.81,0-3.55,0-5.18l-.07-.61.38-.19L51.88,6c.12,0,.38,0,1.4-.37a6.22,6.22,0,0,1-.89.28l2.89-1L55.89,6l-.17-.49C56.38,7,57.89,9.45,58.55,11c.05,0,.6.94.6.81,2.2,4.46,5,9.23,6.71,13-.13-.37.1,0,.2.1.77,1.44.13.37.25.74a9.51,9.51,0,0,1,1.06,1.71c-.07.28-.14.56-.2.85l.22,0,.11-.57.11.19c0,.12,0,.24,0,.36l.22,0,0,.07-.27,0s0,.05,0,.06l.31,0,.16.29.25.47.12-.52,0-.1.43.87a9.11,9.11,0,0,0,.51,1.85v0l.41,2.1A10.35,10.35,0,0,1,69.13,31c.09.92.25,1.21.38,2.13l.4,1.23-.18-.81.06-.06L73.15,51a2.6,2.6,0,0,1,0,1.39A8.11,8.11,0,0,1,71.14,55.85ZM33.19,24.65c0-.15,0-.29,0-.46s.3-.77.37-.83a1.48,1.48,0,0,0,0-.2l.21-.39-.19.58h0v.05c-.13.41-.27.82-.41,1.23Zm-31.57,40c0,.49.15-.26.19.09-.37.79.3,2.39.05,3.26A18.42,18.42,0,0,1,1.62,64.66Zm2.15,8.39A16.71,16.71,0,0,0,7,77L7,76.87a3.5,3.5,0,0,1,.87.8,15,15,0,0,1-5.93-9.55A15.67,15.67,0,0,0,3.77,73.05Zm1,87.2,0,.06-.14,0,0-.06Zm19.21,72.81-.27-.1c.31.29,1,1.1,1.44,1.39,0,0,0,0,0,0-.74-.68-1.47-1.37-2.17-2.08.15.09-.31-.52.1-.18S23.67,232.65,23.94,233.06Zm1.63,1.76a4.62,4.62,0,0,1,.57.49,3.68,3.68,0,0,1,.38.36Zm-3.77-3.71a7.11,7.11,0,0,1,1.05,1.12l-1-1.08A.06.06,0,0,1,21.8,231.11ZM11,211.78a1.65,1.65,0,0,1-.79,0Zm1.08.05h-.2l-.12,0Zm23.64-19h-.07c-1.06-.16-1.61-.25-1.9-.31Zm0,0,.49.08h0l-.5-.08Zm.56.09h0v0h0Zm.06,0,.19,0a1.11,1.11,0,0,0,0-.19l0,0c0,.07,0,.14,0,.21v0h0l-.21,0Zm.19-.21h0Zm0-.08h0a5.71,5.71,0,0,0-.22-1.3A4.44,4.44,0,0,1,36.51,192.64ZM26.75,84.41c0-.27-.08-.53-.11-.79l2.08.13a18.41,18.41,0,0,1-2.06-.1c0,.22.06.49.09.77ZM32.69,84l-.75,0-.38,0ZM66.62,8.19,66.33,8l-.11-.11.32.24ZM36.67,243.41c-1.79-1.17-3.5-2.39-5.15-3.65.7.52,1.57,1.15,2.45,1.75a23,23,0,0,0,3.62,2.24c.09.09-1.24-.79-2.57-1.7l-.47-.32h.08c1.21.75,4.73,3,3.71,2.34.17-.09.65.37.71.21.26.14.48.28.69.41.28.5.53.9.74,1.22Zm3.12,1.32.15.09C40,245.06,39.89,244.92,39.79,244.73Zm1.33.78c-.27-.92-1.18-2.16-1.18-3l1.34,3.18ZM27,198.4c.09.68.2,1.39.3,2.16l0,.2C27.21,200,27.12,199.18,27,198.4ZM29.7,212c.15.59.29,1.16.44,1.7-.43-1.58-.67-2.56-.65-2.46S29.62,211.75,29.7,212Zm2,7s.19.55.49,1.4c-.08-.18-.15-.36-.22-.54Zm16.6,24.67c.34-3.21-.21-10,.2-13.4v13.66C48.43,242,48.34,245.1,48.29,243.67Zm.08,2.29s.08,0,.11-.52v1.1l-.1-.07C48.38,246.3,48.38,246.13,48.37,246Zm.11.59v.76l-.07-.06c0-.26,0-.51,0-.77Zm1.8-47.78c-.08-1.22-.16-2.38-.22-3.45L50,193.86l1.8-.53-1.79.53c.14,2.16.3,4.58.44,7.07C50.37,200.19,50.33,199.47,50.28,198.77Zm.52,6.47c0-.11.05.51.12,1.59l-.08-.79C50.83,205.77,50.81,205.5,50.8,205.24Zm0-13.58V190c0,.45,0,1,0,1.64l1.21-.23.75-.14Zm9.62-26.28,0-.18.09,0,0,.28ZM51.4,81.59a22.75,22.75,0,0,1,0,3.13Zm0-4.24c0,.13,0,.37,0,.8,0,.15,0,.28,0,.41Zm24.52.92-.08-1.44.16.37C76.07,78.5,76,78.49,75.9,78.27ZM75,58.69h.08v.07H75Zm.14,0,13.34-.82-13.34.89Zm23.32-1.44c-.65.07-.51.09-.33.11s.48,0,0,.1a11.89,11.89,0,0,0-1.91,0c-.78,0-1.63.13-2.49.2a28.17,28.17,0,0,1-4.61.17ZM99.94,72.7c.06-1,.11-2,.14-2.93C100.05,70.71,100,71.69,99.94,72.7Zm.15-3.88c0-.39,0-.79,0-1.18Zm-1,10.91c.16-1,.3-2,.42-3C99.43,77.75,99.29,78.73,99.13,79.73Zm.5-3.68c.1-.9.19-1.8.26-2.69C99.82,74.24,99.73,75.13,99.63,76.05ZM98.75,82c-.06.33-.14.67-.21,1,.2-1,.38-1.93.54-2.89Q98.93,81,98.75,82ZM72.69,12.88q-2.55-2.13-5.31-4.13l-.11-.11c2.15,1.57,4.18,3.16,5.48,4.25C72.76,12.91,72.73,12.9,72.69,12.88ZM50.44.14a11.34,11.34,0,0,1,1.2.07A19,19,0,0,1,57.13,2a49.36,49.36,0,0,1,4.3,2.56c-.61-.35-1.24-.67-1.86-1,.78.45,1.85,1.12,3.06,1.9l0,0c-1.45-.93-2.92-1.84-4.43-2.71a18,18,0,0,0-6-2.28c.62.08-.36-.14-1.19-.24-.46-.06-.87-.08-.88-.1A1.17,1.17,0,0,1,50.44.14Zm-2,2.43c0-.68,0-1.34,0-2V.38a.78.78,0,0,1,.22,0l.44,0c.29,0,.56,0,.81,0a10.8,10.8,0,0,1,1.85.15,12.51,12.51,0,0,0-3.29,0V9.51c0,.07,0,.15,0,.21C48.38,8.2,48.38,5.25,48.39,2.57ZM13.07,133.06l.15-.47c-.1.35-.21.7-.32,1C13,133.47,13,133.28,13.07,133.06ZM.37,187.73c0-.33,0-.66-.06-1C.33,187.07.34,187.4.37,187.73Zm41.26,59-.12-.22s.07,0,0-.18l.2.48Zm-1.78-4.44c-1.51-3.44-3.31-7.55-4.55-10.69l0,.18a3.89,3.89,0,0,1-.44-1.25ZM28.11,205.7c.07.35.14.7.22,1.07a108.25,108.25,0,0,0,3,11.55,98.48,98.48,0,0,0,4,10.64c.58,1.36,1.12,2.41,1.46,3.07s.48.9.4.68-.64-1.25-1.4-2.94c-.87-2-2-4.66-3-7.43-.23-.67-.46-1.34-.68-2,.05.1.09.2.14.29.6,1.73,1.62,4.57,2.81,7.3a63.79,63.79,0,0,0,3.58,7.33,7.88,7.88,0,0,1,.8,1.22c.33.52.63,1,.67.89A37.26,37.26,0,0,0,44.39,243c1.12,1.11,2.31,2.07,3.49,3,0,.36.08.64.12.87l-2.53-2C38.48,239.27,31.16,222,28.11,205.7Zm27.41,40.75c1.46-3,4.11-7.7,5.41-10.08l-3.25,6.18-1.2,2.18-.25.47,0,0,0,.07c-.17.33-.35.65-.52,1S55.5,246.52,55.52,246.45Zm-1.23,3.74c.22-.08.44-.17.65-.27l-.59.26Zm5.94-3.07c-1.23.71-2.49,1.35-3.8,2.06-.43.24-.87.46-1.31.66,1-.49,2-1.08,2.89-1.56l1.85-1,1.8-1.1.2-.12h0l1.26-.77.09.08ZM90.52,218h0S90.52,218,90.52,218Zm1.18-1.78-.6,1c-.11.18-.2.32-.28.43a.12.12,0,0,0,0-.08h0c.69-1.17,1.36-2.35,2-3.55l-.29.76Zm5-11.56c0,.14-.08.28-.13.41l.47-1.31c-.26.8-.62,1.94-1,3.16s-1.05,2.44-1.52,3.56A23.61,23.61,0,0,1,93.21,213v0A65.17,65.17,0,0,0,96.71,204.64Zm-10,12.45c-3.18-.21-7-.46-9.81-.77l.14,0a2.69,2.69,0,0,1-1.11-.17Zm-17.91-2.67a12.08,12.08,0,0,1-6.29,3.15c-2.56.54-6.25,1-8.79-1s-2.89-5.77-2.93-8.41c0-.78,0-1.57-.07-2.35,0,.63.07,1.26.1,1.88a22.09,22.09,0,0,0,.46,4.41,8.42,8.42,0,0,0,1.58,3.44,5.75,5.75,0,0,0,2.31,1.72c1.48.57,2.31.49,1.91.44a3.46,3.46,0,0,1-.75-.13,6.22,6.22,0,0,1-2.35-1.07,6.53,6.53,0,0,1-2.18-3.08A14.81,14.81,0,0,1,51,209c0-.77-.07-1.54-.1-2.3l.06.4c0,.12,0,.22,0,.35a34.81,34.81,0,0,0,.28,3.57,9.77,9.77,0,0,0,1.41,4,5.86,5.86,0,0,0,3.25,2.36,10.11,10.11,0,0,0,3.3.33,15.31,15.31,0,0,0,1.69-.19l-.76.1c.32-.16,2.79-.52,2.61-.68a11.12,11.12,0,0,0,6.2-3.62,12.48,12.48,0,0,0,2.42-5.46,12.24,12.24,0,0,1-2.71,5.62,10.83,10.83,0,0,1-5.71,3.14,14,14,0,0,1-6.91.21,5.27,5.27,0,0,1-2.65-1.86A7.9,7.9,0,0,1,52,211.72c-.25-1.09-.39-2.07-.22-.49a16.26,16.26,0,0,0,.7,2.46c.14.36,0,.28-.35-.55a6,6,0,0,1-.32-1.1c0-.15,0-.13,0-.13s0,0-.28-1.63c0,.52.11,1,.21,1.56a23.56,23.56,0,0,1-.44-3.87c-.09-1.09-.18-2-.3-3-.07-1.83-.15-3.68-.23-5.54s-.22-3.47-.32-5.21l14-4.22.46-.14-.23-.41a4.85,4.85,0,0,0-.55-.81,1.3,1.3,0,0,0-.43-.34,1.06,1.06,0,0,0-.53,0,3.21,3.21,0,0,0-.53.15l-.41.18c-.26.12-.52.27-.74.39a11.05,11.05,0,0,1-3,1c-2.06.36-4.17.57-6.13.9L52,191l-.26.07-.56.15,0-.69-.05-1a8.27,8.27,0,0,0,.11-2.54c0,.71,0,1.9,0,1.64,0-2.93,0-5.86,0-8.79l-.09.9c.06-1.4.06-3.37.07-5.36,0-1,0-2,0-2.94a2.6,2.6,0,0,1,1-2,3.86,3.86,0,0,1,.65-.65c.34-.28.69-.53.59-.51,1.2-.74,2.56-1.35,3.86-2.05l3.95-2,.31-.16-.23-.27a2.5,2.5,0,0,0-.6-.49l0,.24,0,0,0,0,.05-.27h0l0-.15-.2.1a.83.83,0,0,0-.56,0,5.2,5.2,0,0,0-1.27.65,24.46,24.46,0,0,1-2.19,1.41,4.4,4.4,0,0,1-2.33.61A3.41,3.41,0,0,1,53,166.5l-1-.44c0-1.07,0-2.11,0-3.13s0-2.08.06-3.07c-.06.68-.1-.06-.13-.32,0-2.85.06-.67.11-1.35-.41-1.2,0-38.63-.25-43.27,0,.71,0,1.42,0,1.16-.09-13.45-.19-28.07-.27-40.92,0,2-.08,2-.15,2l0-3.54c0,.32,0,1.53.15-.35s0-3.88-.08-5.75c0,1.77,0,2.91-.08,3.83l0-5.74a19.43,19.43,0,0,1,.16-2.08c-.06,0-.09-.33-.1-.91s0-1.43,0-2.23l2.12-.14,2-.15.66-.15,5-.38-3,.25c1.47,0,3.36-.19,5.52-.34-.59,0-.81,0,.17-.1,3.25-.12,5.25-.46,8.27-.58l-2.88.28a17.14,17.14,0,0,0,2.06-.13l1.6-.15,1.25-.1c0,.48-.06.77-.12.76,0,.43,0,.72,0,.92s0,.26,0,.26a3.37,3.37,0,0,0,.09-.65,2.83,2.83,0,0,1,.06-.45l-.11,4.71s0,0,0,0,0,.13,0,.18L74,68.8c0-.51-.06-1-.07-1.52,0-.73.1-2.72.15-3,0-.48-.07-1.29-.14-.35-.08,3.08-.2,7.83,0,8.65v0l-.09,3.74a33.68,33.68,0,0,1-.08-4c-.12,1.6,0,2.15-.11,3.78l.11,2.25V76.8l.06-.09-.16,7.13-1.1.46a7.71,7.71,0,0,1-4.87,0c-.73-.17-1.83-.43-2.1-.23a1.42,1.42,0,0,0-.38.7L73,87.45,72.76,89c-.31,1.85-.58,3.74-.85,5.63-.5,3.41-1,6.91-1.74,10.37l0,0c-.3,1.11-.77,2.87-1.15,4.47s-.63,3-.74,3.43c-.07.68.3-1.23,0,.63-.45,2.84-.44,2.41-.7,4.12,0,.53,0,1.07,0,1.6a23,23,0,0,0-.33,4.93c0,.51,0,1,0,1.56a76.86,76.86,0,0,1,1-11.64A85.66,85.66,0,0,0,67.53,130c.16,1.38.12.71.06-.33s-.1-2.48,0-2.63c0,0,0,.06,0,.09,0,.9.06,1.8.12,2.71,0,.22,0,.43,0,.64q.09,1.25.21,2.52s0,0,0,0,0,.08,0,.12c0,.45.08.89.13,1.33a4.32,4.32,0,0,0,0,1.56c.07,1,.19,2,.29,3.07a13.34,13.34,0,0,1,.62,2.79c.29,1.47.59,3.15.74,4,0,0,0-.13-.06-.19-.12-.61-.11-.54,0-.18a26.23,26.23,0,0,1-.92-4.3c-.44-2.28-.77-4.54-1-6.82a26.09,26.09,0,0,0,.42,4.88c-.33-2.52.34,1.66.09-.45.45,2.42.82,5.59,1.77,9.8-.33-1.51-.11-.95.08-.16.25,1.41.57,3.24.9,5.08s.63,3.67.82,5.09c0-.13,0-.12.07-.08.29,2.5.42,3.23.64,6,.52,5.2,1,11.38,1.07,17.37A109.2,109.2,0,0,1,72.55,198c-.45,2.73.2-2.89,0-1.76-.38,5-.77,8.17-.94,10s0,2.23.26,1.71c.08-.48.16-1,.23-1.42,0,.05.08,0,.2-.52-.12.65-.23,1.3-.36,1.95A12.17,12.17,0,0,1,68.76,214.42Zm3.68-10.33c.21-.83.4-1.91.58-3.11s.28-2.54.42-3.88.21-2.68.31-3.92.2-2.34.35-3.24a122.83,122.83,0,0,1-1.57,14.71C72.9,202.1,72.24,205.66,72.44,204.09Zm1.68-14.52c.13-3.6.14-7.38,0-11.23s-.48-8-.9-12c-.9-7.94-2.26-15.65-3.61-22.21l.1.67c-.18-.8-.48-2.27-.68-3.42-.13-.89-.23-1.59-.21-1.67.25,1.48.53,3,.85,4.49C73.26,161.11,74.73,175.91,74.12,189.57ZM99.78,175.3c.16,2.19.39,5,.42,8.35-7,2-15.3,4.56-20.41,5.72l20.33-5.78a69,69,0,0,0-.55-8.38C100.05,178.5,99.35,172.31,99.78,175.3ZM95.14,89.51c.51-2.07,1.11-4.59,1.64-7.07.59-2.84,1.23-5.62,1.53-7.6A9.63,9.63,0,0,0,98.5,72a17.74,17.74,0,0,1-.2,2.2c-.17,1.43-.63,3.38-1,5.35-.1.47-.2.93-.31,1.38v-.19c.25-1.23.67-3.25,1-5.25A35.93,35.93,0,0,0,98.47,70c-.16-.23,0-1.84-.2-1.76,0-1.9-.13-3.47-.15-4.92s0-2.75,0-4.08c-.32,5.56.47,11.87-1.17,18.34-.12.75-.22,1.4,0,.37.29-1.68.58-2.5.4-1.26-.33,1.81-.08-.23-.42,1.92l.26-1A42,42,0,0,0,96.46,82c-2,8.2-3.93,17.17-6.85,23.92l-.76,2.39c-.1.08-.29.31-.7,1.48a7.18,7.18,0,0,1,.42-1c-.69,1.75-1.34,3.53-1.86,5.35l.24-.54a61.22,61.22,0,0,0-1.66,6.82s-.1,1.26,0,1.14a31.27,31.27,0,0,0-.1,8.59,42,42,0,0,0,1.77,7.7c-.09-.43.1,0,.18.15.68,1.71.11.43.21.85a5.57,5.57,0,0,1,.6,1.16c.31.67.8,1.58,1.31,2.65s.87,2.42,1.39,3.82A25.7,25.7,0,0,1,91.82,151a7.14,7.14,0,0,1-.59,4.52,6.12,6.12,0,0,1-3.14,2.64,26.81,26.81,0,0,1-5.21,1.32c.45-.06.9-.11.74-.06l-8.1,1.08-.33-.9c-.14-.35-.25-.71-.38-1.07l-.73-2.16-.72-2.15c-.21-.73-.41-1.45-.61-2.17-.41-1.45-.83-2.87-1.12-4.3s-.69-2.82-.9-4.2c.21,1.24.13,1.24.06,1.27-.14-.74-.27-1.47-.4-2.2,0-.43.25,1.27.13-.28-.14-.75-.27-1.49-.4-2.23s-.2-1.45-.29-2.16c.22,1.75.3,2.67.36,3.42-.19-1.24-.37-2.47-.51-3.7a12.83,12.83,0,0,1,0-1.51c-.25.1-.31-3-.43-4.72l-.14-.45c-.06-1.32-.1-2.64-.11-4,0,.92.07,1.84.1,2.7.14-1.16-.07-2.73,0-4.52,0,.76,0,2-.13.86.17-2.07,0-3.37.2-5.3,0,.62,0,1.23,0,1.85.09-.25,0-3.86.29-3.75,0-1.87-.19.1-.24-.13.07-1,.15-2,.25-3,0,0,0,0,0,0a.62.62,0,0,0,0-.16c.09-.93.18-1.85.29-2.76,0,.34,0,.63,0,1s-.21,1.74-.28,1.91,0,.84.13.24c.11-1,.24-2.23.32-3.29a13.33,13.33,0,0,0,.15-2.23l-.06.3c.12-.89.25-1.77.38-2.65a13.15,13.15,0,0,1-.18,2.59c.23-1,.17-1.37.35-2.4l.08-1.44-.13.92-.07,0a186.65,186.65,0,0,1,4.3-19.72l.25-.9,3-1.15,2.58-1h0c.54-.15,1.31-.42,2.09-.71L83.83,84l.52-.19.45-.28.14-.09-.11-.16c-.23-.35-.39-.62-.46-.76-.29-.35.39.72-.23-.1l-.13.06c-1,.34-1.3.44-1.6.52s-.5.12-1,.27l-.91.46a4.91,4.91,0,0,0-1.46.41l-2.09.8,1.14-.38L80,83.9l3.8-1.34c-1.32.56-2.47,1-3.71,1.44l-3.68,1.28c0-.7,0-1.32-.1-2.16-.21-1.75,0,1.68,0,1.88,0,0,0,0,0,0l-.09-1.64c0-.14,0-.28,0-.42l-.09-1.7s0,0,0,0,0,0,0-.08l0-.84c0-.27.24-.31.19-1l0-2c-.24-.06-.3-3.3-.31-4.43,0,0,0,.09,0,.13,0,.38,0,.34,0,.11a12,12,0,0,1,.22,2.8c.11,1.47.18,2.9.23,4.35a14.26,14.26,0,0,0,.08-3.07c0,1.61-.15-1.08-.14.27-.17-1.56,0-3.59-.23-6.36.08,1-.05.61-.11.1,0-1.83-.23-4.79-.31-6.62,0,.08,0,.08-.08,0,0-1.62-.05-2.1-.05-3.89,0-.33,0-.67,0-1v-.39l.54,0,1.25-.06,2.57-.14,5.21-.31c3.44-.21,6.71-.39,9.26-.43,1.8,0-1.85.24-1.11.26l3.22-.36.65-.08a2.29,2.29,0,0,0,.45-.08L98,58a3.44,3.44,0,0,1,.15.4,5,5,0,0,0,.15.7c.11.32.23.33.35.11s0-.61,0-.91c0,0,.08,0,.11-.37l0,1.28c0,1.49,0,3.08.08,4.75a52.37,52.37,0,0,1-.62,12.4C97.22,80.69,96.25,85.1,95.14,89.51Zm3.18-5.45c-.2.92-.41,1.85-.64,2.78C97.91,85.91,98.12,85,98.32,84.06Zm-4,14.61c.19-.55.37-1.1.55-1.64.12-.31-.29,1-1,3.25Zm-13.41-78c1.5,1.64,2.32,2.58,2.73,3.12a.42.42,0,0,1,.06.08,84.34,84.34,0,0,0-7-7.43C77.76,17.37,79.1,18.67,80.93,20.62Z" fill="#fff"/>
      <path d="M1.88,172.54c0,.21,0,.42-.06.61C1.83,172.94,1.86,172.74,1.88,172.54Z" fill="#fff"/>
      <path d="M88.56,135.88l0,0h0Z" fill="#fff"/>
      <polygon points="100.19 184.92 100.04 185.51 100.18 185.53 100.19 184.92" fill="#fff"/>
      <path d="M83.51,228.05c-.09.13-.18.25-.22.32-1.85,2.09-4.3,4.69-6.92,7.12l.2-.17a81.23,81.23,0,0,0,10.27-11.18l.54-.76-1.07,1.37C85.58,225.6,84.7,226.62,83.51,228.05Z" fill="#fff"/>
    </g>
  </g>
</svg>
