<svg xmlns="http://www.w3.org/2000/svg" viewBox="0 0 101.29 250.97">
  <g>
    <polyline points="43.04 3.52 28.23 13.71 18.64 21.78 8.09 36.21 2.02 52.6 0.84 70.95 2.97 85.56 9.8 107.45 14.11 119.06 15 126.34 13.78 135.2 6.3 153.41 3.48 163.02 1.15 173.76 1.15 182.14 0.84 190.84 3.73 202.91 9 215.34 19.11 229.43 30.11 239.37 43.04 248.15 49.02 250.27 50.7 250.59 53.7 250.54 63.23 245.33 71.21 238.71 84.46 226 89.97 219.22 93.13 213.65 97 205.34 99 198.34 100.44 187.67 101.21 184.4 98.87 167.38 94.78 152.78 87.54 132.54 87 127.34 87 121.34 91 110.69 94.28 100.36 98.06 87.78 100.04 77.23 100.66 66.46 99.87 57.63 97.58 47.83 93.31 37.43 86.15 26.12 76.22 15.54 66.32 7.96 60.7 3.94 56.8 1.87 54.5 0.8 51.74 0.29 49.6 0.21 47.71 0.41" fill="#e7e0d4"/>
    <g>
      <path d="M81.22,161.24l.3,0A1.45,1.45,0,0,0,81.22,161.24Z" stroke="#000" stroke-miterlimit="10" stroke-width="0.15"/>
      <path d="M94.68,158.34c-.09-.09.42-.32-.25-.2-.12.08-.34.13-.29.19-.31,0-.26,0-.47,0-.51.21-1.35.33-1.75.51a1.94,1.94,0,0,1,.41-.08A12.65,12.65,0,0,1,94.68,158.34Z" stroke="#000" stroke-miterlimit="10" stroke-width="0.15"/>
      <path d="M92.18,158.86l.15-.12c-.86.35-1.1,0-1.44.36C91.19,159,91.77,159,92.18,158.86Z" stroke="#000" stroke-miterlimit="10" stroke-width="0.15"/>
      <path d="M96.89,171.59a2.21,2.21,0,0,0,0-.51S96.8,171.27,96.89,171.59Z" stroke="#000" stroke-miterlimit="10" stroke-width="0.15"/>
      <path d="M96.29,167.17v0Z" stroke="#000" stroke-miterlimit="10" stroke-width="0.15"/>
      <path d="M75.67,162.55l-.39.1.39-.1Z" stroke="#000" stroke-miterlimit="10" stroke-width="0.15"/>
      <path d="M92.73,183.57Z" stroke="#000" stroke-miterlimit="10" stroke-width="0.15"/>
      <path d="M92.73,183.57l0,0h0Z" stroke="#000" stroke-miterlimit="10" stroke-width="0.15"/>
      <path d="M96.29,165.24s-.06-.06-.06,0a8.29,8.29,0,0,0-.18-1.29c0,.67.11,1.33.19,2A1.52,1.52,0,0,0,96.29,165.24Z" stroke="#000" stroke-miterlimit="10" stroke-width="0.15"/>
      <path d="M63.78,59.53c.42,0,1-.05,1.53-.09Z" stroke="#000" stroke-miterlimit="10" stroke-width="0.15"/>
      <path d="M73.66,83.82l.1-2.93-.08,1.16,0,1.75-.69.3a5.64,5.64,0,0,1-.78.29A5.64,5.64,0,0,0,73,84.1Z" stroke="#000" stroke-miterlimit="10" stroke-width="0.15"/>
      <path d="M71.9,95.15a12.31,12.31,0,0,0,.1-1.5c.23-1.4.26-1.1.43-2,.08-.61.16-1.27.25-2s.23-1.44.32-2.07l-3.76-1.27c.94.32,1.15.41,1.82.66l1.85.67c-.11.63-.26,1.54-.39,2.4s-.26,1.72-.38,2.54c-.27,1.65-.51,3.15-.75,4.25C71.59,96.22,71.39,98.42,71.9,95.15Z" stroke="#000" stroke-miterlimit="10" stroke-width="0.15"/>
      <path d="M65.89,85.05l-.57-.21c-.16,0-.09-.13-.06-.23a2,2,0,0,1,.1-.32c0,.08-.08.18-.12.27l0,.15c0,.05,0,.1,0,.11l.63.24,1.41.55c1,.39,2,.85,3,1.18l.79.19c-2.06-.65-3.21-1.17-4-1.5Z" stroke="#000" stroke-miterlimit="10" stroke-width="0.15"/>
      <path d="M71.77,159.72c0-.35-.13-1.21-.3-2.28A17.66,17.66,0,0,0,71.77,159.72Z" stroke="#000" stroke-miterlimit="10" stroke-width="0.15"/>
      <path d="M68.36,140h0l0-.34A3.31,3.31,0,0,0,68.36,140Z" stroke="#000" stroke-miterlimit="10" stroke-width="0.15"/>
      <path d="M51.61,73.33c0,.63,0,1.27,0,1.91,0-.5,0-1.13,0-1.93Z" stroke="#000" stroke-miterlimit="10" stroke-width="0.15"/>
      <path d="M51.54,67.58c0-.37,0-.77,0-1.2C51.53,66.77,51.53,67.18,51.54,67.58Z" stroke="#000" stroke-miterlimit="10" stroke-width="0.15"/>
      <path d="M60.78,164.24h0l.07,0v-.07Z" stroke="#000" stroke-miterlimit="10" stroke-width="0.15"/>
      <path d="M67.74,134.41c0-.72,0-1.52-.12-2.9,0-.17-.07-.33-.06,0-.08-1.56-.18-3.65-.21-5.67,0,.28,0,.57,0,.86A76.2,76.2,0,0,0,67.74,134.41Z" stroke="#000" stroke-miterlimit="10" stroke-width="0.15"/>
      <path d="M64.4,233.43c0-.08.1-.18.14-.26A1.65,1.65,0,0,0,64.4,233.43Z" stroke="#000" stroke-miterlimit="10" stroke-width="0.15"/>
      <polygon points="67.43 226.7 67.75 226 67.29 226.91 67.43 226.7" stroke="#000" stroke-miterlimit="10" stroke-width="0.15"/>
      <path d="M68.39,224.64c.06-.32.44-.75.57-1.15v-.19C68.72,224.19,68.32,224.18,68.39,224.64Z" stroke="#000" stroke-miterlimit="10" stroke-width="0.15"/>
      <path d="M69.71,221.3c0,.13-.1.36,0,.35-.14.27-.19.18-.3.36-.13.52-.52,1.24-.62,1.66a2.57,2.57,0,0,1,.18-.37,16,16,0,0,1,1.15-2.24C69.94,221.14,70,220.66,69.71,221.3Z" stroke="#000" stroke-miterlimit="10" stroke-width="0.15"/>
      <path d="M79.8,217.31c0,.05.17.09.5.08A2.31,2.31,0,0,0,79.8,217.31Z" stroke="#000" stroke-miterlimit="10" stroke-width="0.15"/>
      <path d="M76,216.87l-.07,0,.07,0Z" stroke="#000" stroke-miterlimit="10" stroke-width="0.15"/>
      <path d="M62.17,238.52l-.15.39c0-.1.09-.23.16-.39Z" stroke="#000" stroke-miterlimit="10" stroke-width="0.15"/>
      <path d="M74.21,216.46a6.1,6.1,0,0,0-1.09-.15h-.21l.2,0,1,.18.61.08a1.43,1.43,0,0,0-.62-.21C74.1,216.41,74.05,216.44,74.21,216.46Z" stroke="#000" stroke-miterlimit="10" stroke-width="0.15"/>
      <path d="M49.27,97.69c0-.49,0-1,0-1.43C49.27,96.66,49.26,97.22,49.27,97.69Z" stroke="#000" stroke-miterlimit="10" stroke-width="0.15"/>
      <polygon points="49.51 128.25 49.53 131.59 49.55 127.16 49.51 128.25" stroke="#000" stroke-miterlimit="10" stroke-width="0.15"/>
      <path d="M49.55,138.05c.09,1.37,0,3.73,0,5.54l.09.72C49.46,140.43,49.82,139.75,49.55,138.05Z" stroke="#000" stroke-miterlimit="10" stroke-width="0.15"/>
      <path d="M49.84,153.53c-.07-.48-.07-1.6-.14-1.41,0-1.33.09-1.06.11-1.94-.11-2.28-.07-5.82-.17-7.65,0,.9,0,1.12,0,1.78,0,3.53.12,8.29,0,10.85C49.7,154.56,49.83,156.63,49.84,153.53Z" stroke="#000" stroke-miterlimit="10" stroke-width="0.15"/>
      <path d="M47.86,201.71c0-.33,0-1.15,0-2.17A11.52,11.52,0,0,0,47.86,201.71Z" stroke="#000" stroke-miterlimit="10" stroke-width="0.15"/>
      <path d="M49.77,166v.23l-.49,0,.49,0Z" stroke="#000" stroke-miterlimit="10" stroke-width="0.15"/>
      <path d="M48,182.91h0l0-.32Z" stroke="#000" stroke-miterlimit="10" stroke-width="0.15"/>
      <path d="M36.62,84.46l-1.78-.1,1.8.1Z" stroke="#000" stroke-miterlimit="10" stroke-width="0.15"/>
      <path d="M42,84.75l1.13.07Z" stroke="#000" stroke-miterlimit="10" stroke-width="0.15"/>
      <path d="M37.26,232.77h0S37.28,232.8,37.26,232.77Z" stroke="#000" stroke-miterlimit="10" stroke-width="0.15"/>
      <path d="M48.21,176.9c0,.26,0,.53,0,.8a24.81,24.81,0,0,0,.17-2.77c0-.15,0-.3-.06-.1,0-.66,0-1.4,0-2.21v-2.8l-.18-.07.17.07C48.3,172.24,48.26,174.58,48.21,176.9Z" stroke="#000" stroke-miterlimit="10" stroke-width="0.15"/>
      <path d="M19.76,212.34l.34,0Z" stroke="#000" stroke-miterlimit="10" stroke-width="0.15"/>
      <polygon points="28.03 214.4 27.61 213.27 27.68 213.56 28.03 214.4" stroke="#000" stroke-miterlimit="10" stroke-width="0.15"/>
      <path d="M30.46,219.89c-.1-.1-.22-.38-.26-.31-.12-.34,0-.3-.09-.53-.33-.54-.63-1.46-.91-1.89a2.79,2.79,0,0,1,.18.45,24.83,24.83,0,0,1,1,2.79C30.44,220.21,30.76,220.69,30.46,219.89Z" stroke="#000" stroke-miterlimit="10" stroke-width="0.15"/>
      <path d="M28.69,216.05c.21.31.31,1,.53,1.41l.16.15C28.83,216.69,29.1,216.38,28.69,216.05Z" stroke="#000" stroke-miterlimit="10" stroke-width="0.15"/>
      <path d="M36.31,235.61a3,3,0,0,0-.2-.56C36.09,235.11,36.13,235.27,36.31,235.61Z" stroke="#000" stroke-miterlimit="10" stroke-width="0.15"/>
      <path d="M34.46,230.81v0Z" stroke="#000" stroke-miterlimit="10" stroke-width="0.15"/>
      <path d="M13.2,212.09h0Z" stroke="#000" stroke-miterlimit="10" stroke-width="0.15"/>
      <path d="M33.92,228.67c-.05,0-.1-.08,0,.09a10.35,10.35,0,0,0-.56-1.46c.24.73.48,1.44.74,2.13A2.15,2.15,0,0,0,33.92,228.67Z" stroke="#000" stroke-miterlimit="10" stroke-width="0.15"/>
      <path d="M22.33,210.65h0Z" stroke="#000" stroke-miterlimit="10" stroke-width="0.15"/>
      <path d="M14.78,210.49c.32.08.65.13,1,.19l-.23-.08C15.27,210.56,15,210.55,14.78,210.49Z" stroke="#000" stroke-miterlimit="10" stroke-width="0.15"/>
      <path d="M9.92,208.72c.06.16-.4,0,.19.4.12,0,.34.11.34,0,.25.15.16.19.33.3a13.42,13.42,0,0,0,1.63.5,1.6,1.6,0,0,1-.37-.12A6.91,6.91,0,0,1,9.92,208.72Z" stroke="#000" stroke-miterlimit="10" stroke-width="0.15"/>
      <path d="M13.38,210.18c-.32,0-.77-.31-1.16-.39l-.18,0C12.9,209.94,13,210.34,13.38,210.18Z" stroke="#000" stroke-miterlimit="10" stroke-width="0.15"/>
      <path d="M3.74,197.82a1.4,1.4,0,0,0,.06.47S3.83,198.11,3.74,197.82Z" stroke="#000" stroke-miterlimit="10" stroke-width="0.15"/>
      <path d="M4.68,201.81h0v0Z" stroke="#000" stroke-miterlimit="10" stroke-width="0.15"/>
      <path d="M27.17,209.53h0l-.06-.35C27.12,209.27,27.14,209.38,27.17,209.53Z" stroke="#000" stroke-miterlimit="10" stroke-width="0.15"/>
      <path d="M5.08,203.54s.09.06,0-.08a4.68,4.68,0,0,0,.56,1.12c-.26-.56-.49-1.12-.7-1.67A1.36,1.36,0,0,0,5.08,203.54Z" stroke="#000" stroke-miterlimit="10" stroke-width="0.15"/>
      <path d="M27.92,100.09c0,.29.07.65.11,1C28,100.71,28,100.4,27.92,100.09Z" stroke="#000" stroke-miterlimit="10" stroke-width="0.15"/>
      <path d="M29.49,109.38c.21.82.41,1.65.59,2.48-.22-1.1-.48-2.2-.74-3.29Z" stroke="#000" stroke-miterlimit="10" stroke-width="0.15"/>
      <path d="M31.38,120.88l.13.54c-.4-2.92-.14-3.48-.57-4.73C31.18,117.72,31.23,119.52,31.38,120.88Z" stroke="#000" stroke-miterlimit="10" stroke-width="0.15"/>
      <path d="M31.75,128.44c0-.37,0-1.22-.09-1.08,0-1,.12-.8.14-1.48-.08-1.73-.16-4.42-.4-5.8.08.68.08.84.11,1.34a47.52,47.52,0,0,1-.07,8.25C31.57,129.21,31.61,130.8,31.75,128.44Z" stroke="#000" stroke-miterlimit="10" stroke-width="0.15"/>
      <path d="M24.48,174.57c.06-.24.16-.86.27-1.63A7.48,7.48,0,0,0,24.48,174.57Z" stroke="#000" stroke-miterlimit="10" stroke-width="0.15"/>
      <path d="M26.75,160.41h0l.06-.24Z" stroke="#000" stroke-miterlimit="10" stroke-width="0.15"/>
      <path d="M24.48,83l-1.35-.25,1.36.25Z" stroke="#000" stroke-miterlimit="10" stroke-width="0.15"/>
      <path d="M26,86.11q0,.36.12.78C26.06,86.64,26,86.37,26,86.11Z" stroke="#000" stroke-miterlimit="10" stroke-width="0.15"/>
      <path d="M28,154.43c0-.11,0-.21-.05-.08.22-1.11.44-2.6.65-4-.38,2.12-.75,4.16-1.08,6.2A15.48,15.48,0,0,0,28,154.43Z" stroke="#000" stroke-miterlimit="10" stroke-width="0.15"/>
      <path d="M24.57,72.45c0,.09,0,.19,0,.28A2.72,2.72,0,0,0,24.57,72.45Z" stroke="#000" stroke-miterlimit="10" stroke-width="0.15"/>
      <path d="M23.63,79.31l-.76.27c.34-.11.68-.2,1-.33Z" stroke="#000" stroke-miterlimit="10" stroke-width="0.15"/>
      <path d="M20,80.22l-.16.12c.9-.29,1.13,0,1.48-.34A7.72,7.72,0,0,1,20,80.22Z" stroke="#000" stroke-miterlimit="10" stroke-width="0.15"/>
      <path d="M5.29,74a2.17,2.17,0,0,0,.27.42C5.57,74.4,5.51,74.28,5.29,74Z" stroke="#000" stroke-miterlimit="10" stroke-width="0.15"/>
      <path d="M8.31,77.3l0,0h0Z" stroke="#000" stroke-miterlimit="10" stroke-width="0.15"/>
      <path d="M24.45,66.55l0-.44c0,.11,0,.26,0,.44Z" stroke="#000" stroke-miterlimit="10" stroke-width="0.15"/>
      <path d="M9.69,78.54c.05,0,.11,0,0-.09a4.65,4.65,0,0,0,1.16.64c-.58-.33-1.11-.68-1.63-1A1.53,1.53,0,0,0,9.69,78.54Z" stroke="#000" stroke-miterlimit="10" stroke-width="0.15"/>
      <path d="M35.4,18.83l-.2.37A3.35,3.35,0,0,0,35.4,18.83Z" stroke="#000" stroke-miterlimit="10" stroke-width="0.15"/>
      <polygon points="31.91 28.46 31.57 29.49 32.06 28.15 31.91 28.46" stroke="#000" stroke-miterlimit="10" stroke-width="0.15"/>
      <path d="M29.62,36.26c0-.16.09-.5,0-.47.14-.4.19-.29.3-.56.12-.73.52-1.79.61-2.38a4.23,4.23,0,0,1-.18.54c-.4,1.06-.72,2.57-1.12,3.31C29.38,36.54,29.31,37.21,29.62,36.26Z" stroke="#000" stroke-miterlimit="10" stroke-width="0.15"/>
      <path d="M30.91,31.46c-.06.44-.44,1.12-.57,1.68v.25C30.57,32.15,31,32.05,30.91,31.46Z" stroke="#000" stroke-miterlimit="10" stroke-width="0.15"/>
      <path d="M22,52a1.43,1.43,0,0,0-.63,0A2.19,2.19,0,0,0,22,52Z" stroke="#000" stroke-miterlimit="10" stroke-width="0.15"/>
      <path d="M25.52,49.18h0l.06-.08Z" stroke="#000" stroke-miterlimit="10" stroke-width="0.15"/>
      <path d="M38.94,12l.25-.52c-.06.14-.15.3-.26.52Z" stroke="#000" stroke-miterlimit="10" stroke-width="0.15"/>
      <path d="M26.19,47.76a2.47,2.47,0,0,0,.38-.84c0-.06,0-.14-.08.07A16.63,16.63,0,0,0,27,45.2l-.09.29C26.63,46.27,26.42,47,26.19,47.76Z" stroke="#000" stroke-miterlimit="10" stroke-width="0.15"/>
      <polygon points="33.94 54.76 35.31 54.9 33.51 54.66 33.94 54.76" stroke="#000" stroke-miterlimit="10" stroke-width="0.15"/>
      <path d="M31.37,52.69c.21.15-.64.08.58.39.21,0,.65,0,.59,0,.53.08.41.15.77.2a19.66,19.66,0,0,1,3.15.18l-.73-.15c-.73-.12-1.59-.11-2.38-.17A5.57,5.57,0,0,1,31.37,52.69Z" stroke="#000" stroke-miterlimit="10" stroke-width="0.15"/>
      <path d="M35.73,53.28a1.93,1.93,0,0,1,1.56.62c.25.3.34.53.59.83a3.22,3.22,0,0,0-.64-1,2.17,2.17,0,0,0-1.2-.52Z" stroke="#000" stroke-miterlimit="10" stroke-width="0.15"/>
      <path d="M37.77,54.65h0Z" stroke="#000" stroke-miterlimit="10" stroke-width="0.15"/>
      <path d="M32.13,31.77s-.06.12-.1.26C32.08,32,32.12,32,32.13,31.77Z" stroke="#000" stroke-miterlimit="10" stroke-width="0.15"/>
      <path d="M30.42,38.63h0l-.05.12Z" stroke="#000" stroke-miterlimit="10" stroke-width="0.15"/>
      <path d="M26,67.09l.07.73c0-.19,0-.42-.07-.74Z" stroke="#000" stroke-miterlimit="10" stroke-width="0.15"/>
      <path d="M29.38,41.74c0,.09,0,.18.09-.09a21,21,0,0,0-.57,2.28c.31-1.11.62-2.19.89-3.26A3.9,3.9,0,0,0,29.38,41.74Z" stroke="#000" stroke-miterlimit="10" stroke-width="0.15"/>
      <path d="M31.14,35.56a1.49,1.49,0,0,0,.05-.22A1.74,1.74,0,0,1,31.14,35.56Z" stroke="#000" stroke-miterlimit="10" stroke-width="0.15"/>
      <polygon points="70.3 36.52 70.68 38.51 70.23 35.86 70.3 36.52" stroke="#000" stroke-miterlimit="10" stroke-width="0.15"/>
      <path d="M72,45.7l.16.41c-.59-2.29-.31-2.76-.75-3.73C71.62,43.18,71.72,44.63,72,45.7Z" stroke="#000" stroke-miterlimit="10" stroke-width="0.15"/>
      <path d="M73,50.78a9.64,9.64,0,0,1-.1-1.19c-.35-1.34-.69-3.46-1-4.54a10.61,10.61,0,0,1,.19,1.06c.17,1.06.42,2.3.64,3.46.1.58.2,1.15.3,1.67a1.87,1.87,0,0,1-.15,1.23c.11-.15.1.07.13.12s0,0,.11-.14a1.86,1.86,0,0,0,.12-.86C73.2,51.32,73.05,50.66,73,50.78Z" stroke="#000" stroke-miterlimit="10" stroke-width="0.15"/>
      <path d="M51.23,45.52a5.17,5.17,0,0,0,0-1.31C51.23,44.41,51.22,44.91,51.23,45.52Z" stroke="#000" stroke-miterlimit="10" stroke-width="0.15"/>
      <path d="M52.52,55.15h0a.8.8,0,0,0,.08.16A1,1,0,0,1,52.52,55.15Z" stroke="#000" stroke-miterlimit="10" stroke-width="0.15"/>
      <path d="M78,20.07l-.78-.76.78.77Z" stroke="#000" stroke-miterlimit="10" stroke-width="0.15"/>
      <path d="M80.39,22.51a3.65,3.65,0,0,1,.31.43A3.11,3.11,0,0,0,80.39,22.51Z" stroke="#000" stroke-miterlimit="10" stroke-width="0.15"/>
      <path d="M69,27h0Z" stroke="#000" stroke-miterlimit="10" stroke-width="0.15"/>
      <path d="M69,27v0l.13,0v0Z" stroke="#000" stroke-miterlimit="10" stroke-width="0.15"/>
      <path d="M67.66,28.33s0,0,0-.08l-.18,0v.08Z" stroke="#000" stroke-miterlimit="10" stroke-width="0.15"/>
      <polygon points="68.93 27 68.84 27.03 68.84 27.04 68.93 27.01 68.93 27" stroke="#000" stroke-miterlimit="10" stroke-width="0.15"/>
      <path d="M54.69,57.33c-.1,0-.19-.12-.28-.17a3.76,3.76,0,0,0,1.5.77c.08,0,.16,0,.07,0a9.93,9.93,0,0,0,3.12.35h-.51A10.42,10.42,0,0,1,54.69,57.33Z" stroke="#000" stroke-miterlimit="10" stroke-width="0.15"/>
      <path d="M76,54.12a1.82,1.82,0,0,0-.15-.23A1.82,1.82,0,0,0,76,54.12Z" stroke="#000" stroke-miterlimit="10" stroke-width="0.15"/>
      <polygon points="74.04 47.44 73.91 46.71 74.04 47.69 74.04 47.44" stroke="#000" stroke-miterlimit="10" stroke-width="0.15"/>
      <path d="M72.9,41.92c.08.09.12.34.18.29,0,.29,0,.25,0,.44.18.49.26,1.27.41,1.66a2.19,2.19,0,0,1-.06-.39,15.8,15.8,0,0,1-.31-2.4C73,41.67,72.81,41.23,72.9,41.92Z" stroke="#000" stroke-miterlimit="10" stroke-width="0.15"/>
      <path d="M73.68,45.29c-.13-.29-.06-.84-.17-1.23l-.12-.14C73.7,44.74,73.37,45,73.68,45.29Z" stroke="#000" stroke-miterlimit="10" stroke-width="0.15"/>
      <path d="M77.22,32a2,2,0,0,0-.44.21C76.84,32.24,77,32.2,77.22,32Z" stroke="#000" stroke-miterlimit="10" stroke-width="0.15"/>
      <path d="M73.54,34h0l-.07,0Z" stroke="#000" stroke-miterlimit="10" stroke-width="0.15"/>
      <path d="M80.67,55.84h0Z" stroke="#000" stroke-miterlimit="10" stroke-width="0.15"/>
      <path d="M72,34.76l.52-.26a1.16,1.16,0,0,0-.5.12s0,.07.1,0a.84.84,0,0,0-.2.08,2.77,2.77,0,0,0,.07.52c0,.09,0,.17,0,.26v0C72,35.11,72,35,72,34.76Z" stroke="#000" stroke-miterlimit="10" stroke-width="0.15"/>
      <path d="M71.34,104.62c.13-.75.29-1.49.43-2.24-.21,1-.43,2-.6,3Z" stroke="#000" stroke-miterlimit="10" stroke-width="0.15"/>
      <path d="M75.23,87.35l-.14.45c0,.32-.22,1.06-.12,1-.25.87-.28.67-.46,1.25-.32,1.52-1,3.84-1.16,5.08.12-.6.18-.74.29-1.17.28-1.06.58-2.25.89-3.41.15-.58.3-1.15.45-1.68a13.56,13.56,0,0,1,.41-1.34l.47-.13C75.49,87.4,76.45,86.92,75.23,87.35Z" stroke="#000" stroke-miterlimit="10" stroke-width="0.15"/>
      <path d="M73.61,94.41l0-.49c-.49,2.6-.92,3-.93,4.16C72.83,97.15,73.34,95.62,73.61,94.41Z" stroke="#000" stroke-miterlimit="10" stroke-width="0.15"/>
      <path d="M76,65.45A5.61,5.61,0,0,0,76,64C76,64.2,76,64.76,76,65.45Z" stroke="#000" stroke-miterlimit="10" stroke-width="0.15"/>
      <path d="M76.52,76.79h0v0Z" stroke="#000" stroke-miterlimit="10" stroke-width="0.15"/>
      <path d="M70.62,142.45c.07.4.15.8.22,1.2-.06-.31-.13-.71-.22-1.22Z" stroke="#000" stroke-miterlimit="10" stroke-width="0.15"/>
      <path d="M76.57,80.74c0-.13,0-.27,0-.4a12.56,12.56,0,0,0-.06,1.91c0,.1.05.19.06.06q0,.61,0,1.35c0,.48,0,1,.08,1.48L77,85l-.36.12C76.67,84.11,76.62,82.25,76.57,80.74Z" stroke="#000" stroke-miterlimit="10" stroke-width="0.15"/>
      <path d="M1,193.77c0,.19.05.38.08.58C1.06,194.16,1,194,1,193.77Z" stroke="#000" stroke-miterlimit="10" stroke-width="0.15"/>
      <path d="M1.15,194.75c.11.66.23,1.37.36,2C1.38,196.06,1.26,195.4,1.15,194.75Z" stroke="#000" stroke-miterlimit="10" stroke-width="0.15"/>
      <path d="M1.09,194.35l.06.4Z" stroke="#000" stroke-miterlimit="10" stroke-width="0.15"/>
      <path d="M47.17,250.7l.13,0Z" stroke="#000" stroke-miterlimit="10" stroke-width="0.15"/>
      <path d="M47.3,250.73a6.71,6.71,0,0,0,1.18.17A6.71,6.71,0,0,1,47.3,250.73Z" stroke="#000" stroke-miterlimit="10" stroke-width="0.15"/>
      <path d="M39.65,246.88c.67.42,1.34.85,2,1.25,1.07.61,2.13,1.23,3.24,1.76a11.28,11.28,0,0,0,2.26.81,13.93,13.93,0,0,1-3.31-1.37C42.43,248.54,41,247.73,39.65,246.88Z" stroke="#000" stroke-miterlimit="10" stroke-width="0.15"/>
      <path d="M60.78,220.05l4.57.21,2,.11,1.41.1c-.44-.07.23-.1.42-.14s-.16-.09-3.63-.24c-1.06,0-3.5-.08-3.11,0-2.91-.14-2.31-.19-4.25-.3l-3.57-.09-3.83-.13c0,1.71,0,3.43,0,5s0,3,0,4.18c0-2,0-2.44,0-3.89,0-1.63,0-3.38,0-5.19Z" stroke="#000" stroke-miterlimit="10" stroke-width="0.15"/>
      <path d="M50.9,238.62c-.07-3,.09-8.21.06-12.18l-.09-1.58C51,233.39,50.65,234.87,50.9,238.62Z" stroke="#000" stroke-miterlimit="10" stroke-width="0.15"/>
      <path d="M96.35,197.51c.21-.7.66-2.43,1.21-4.61C97.41,193.29,97.09,194.51,96.35,197.51Z" stroke="#000" stroke-miterlimit="10" stroke-width="0.15"/>
      <path d="M58.33,241.12c.46-.86,1-1.8,1.4-2.65Z" stroke="#000" stroke-miterlimit="10" stroke-width="0.15"/>
      <path d="M58.33,241.12l-.91,1.74Z" stroke="#000" stroke-miterlimit="10" stroke-width="0.15"/>
      <path d="M93.66,213.68l0,0-.34.62Z" stroke="#000" stroke-miterlimit="10" stroke-width="0.15"/>
      <path d="M9.62,142.63v0c.45-1.22.9-2.47,1.35-3.7Z" stroke="#000" stroke-miterlimit="10" stroke-width="0.15"/>
      <path d="M5.77,153.86c-.24.72-.48,1.48-.74,2.32C5.27,155.41,5.52,154.64,5.77,153.86Z" stroke="#000" stroke-miterlimit="10" stroke-width="0.15"/>
      <path d="M88.53,135.58c0,.14.09.26.12.33Z" stroke="#000" stroke-miterlimit="10" stroke-width="0.15"/>
      <path d="M88.67,136Z" stroke="#000" stroke-miterlimit="10" stroke-width="0.15"/>
      <path d="M76.22,15.54A26.4,26.4,0,0,0,72.33,12c1.12.94,3,2.55,2.56,2.23A100.29,100.29,0,0,0,65,6.63l-.14-.15-1.6-1.54-.29.35C62,4.7,61.11,4.11,60.17,3.55c.52.35,1,.67,1.56,1-.6-.41-1.29-.8-2-1.25S58.21,2.41,57.34,2A16.79,16.79,0,0,0,51.54.15,13.82,13.82,0,0,0,50,.08c-.24,0-.59,0-.89,0l-.49,0c-.13,0-.4,0-.33.19,0,1.1,0,2.19,0,3.24,0,1.94,0,3.75-.08,5.29.05.07.08,4,.15,3.64,0,6.22-.05,12.68-.08,19.07L34.78,29.93q-.75-1.74-1.47-3.45a.8.8,0,0,0,0-.23h0v.06l0-.11,3.71-6.59,3.66-6.38c-.73,1.18,0-.16.21-.64,2.87-5.14.73-1.19,1.46-2.37.11-.3.8-1.61,1.94-3.68.58-1.07,1.27-2.32,2.06-3.75.22-.41.48-.85.69-1.26l.33-.63.17-.32.08-.16s-.1,0-.14,0a16.32,16.32,0,0,0-3,1A37.88,37.88,0,0,0,39.26,4.8l-5.7,4L27.45,13,24.31,15.2l-1.59,1.12c-.27.2-.51.34-.82.59l-.66.73a89.53,89.53,0,0,0-9.75,12.08A74.16,74.16,0,0,0,4.8,42.24,64.18,64.18,0,0,0,.48,59.38,18.2,18.2,0,0,1,.86,57,72.89,72.89,0,0,0,.8,77.4l-.69-.15c.34,1.2.72,2.53,1.31,4.55.09.18,0-.49-.06-.71l.33,1.74,0-.06,0,.07A139.06,139.06,0,0,0,6.11,99.05q1.68,5.11,3.55,10.11.94,2.49,1.88,5a44,44,0,0,1,1.72,4.95,24.86,24.86,0,0,1,.61,10.21,29.25,29.25,0,0,1-1.17,4.91c-.54,1.58-1.15,3.15-1.72,4.7,1.24-3.31,1.45-3.7,1.53-3.76h0c0,.15-.09.29-.15.44-.79,2.12-1.6,4.29-2.4,6.48.15-.5,1.13-3.19-.36.55S7,150.19,5.77,153.86c1.2-3.71,2.06-6,2.77-7.8-1.29,3.63-2.53,7.31-3.68,11-.41,1.09-1.56,4.69-1.56,4.59.15-.07-.57,2.29-1.23,5.4-.19.77-.35,1.59-.5,2.43s-.33,1.69-.46,2.53c-.23,1.7-.48,3.33-.57,4.69v1.34a71.71,71.71,0,0,0-.18,7.31c0-1.07-.06-2.13,0-3.17A59.07,59.07,0,0,0,1,193.77c-.2-1.32-.23-1.91.12.19A54.79,54.79,0,0,0,3,202.47a83.53,83.53,0,0,0,2.9,7.86c-.85-1.8-1.56-3.66-2.23-5.53A15.17,15.17,0,0,0,4.42,207c.22.56.45,1.2.73,1.86s.61,1.34.91,2c.59,1.37,1.31,2.63,1.75,3.6a6.57,6.57,0,0,1,.71,1.49c2.92,4.81.36.33.36.17a72.37,72.37,0,0,0,5.32,8.15s0,0,0,.07l.24.28a78.08,78.08,0,0,0,5.76,6.76c-.72-.72-1.33-1.36-2.13-2.17-.61-.75-2-2.31-2.88-3.53-.49-.65-.87-1.16-1-1.34l-.54-.64c-.48-.62-.83-1.05,0,.15A82.58,82.58,0,0,0,20.6,232l1.76,1.73c.56.53,1.09,1,1.56,1.42a21.79,21.79,0,0,0,2,1.67l-.05-.05c2,1.74,4,3.34,6,4.81-.32-.21-.74-.49-1.29-.88s-1.3-.93-2.17-1.62-1.91-1.54-3.11-2.59c1.23,1.12,2.07,1.85,2.95,2.53s1.77,1.39,3.11,2.42c1.27.88,2.56,1.75,3.87,2.56-.83-.54-1.64-1.12-2.46-1.69l-.12-.16a105,105,0,0,0,10.53,6.69c3.24,1.79,4.73,2.24,7.54,1.78V219.47l18.87.72-7.84,14.93c.05-.1.07-.17.05-.16-1.16,2.06-2.94,5.39-4.53,8.38-1.69,3.15-3.16,5.91-3.6,6.74-.31.68,0,0,.24-.36.1-.18.17-.28.1-.12s-.12.24-.22.48l-.21.43,0,.06s0,.05,0,0l.16-.06.35-.12a14.17,14.17,0,0,0,1.87-.8l1.33-.7,1.65-.85c.87-.42,1.46-.74,3-1.64l1.47-1,.51.48.22-.2c.07-.1-.12,0-.22.05-.1-.13-.14-.22,0-.15a5.56,5.56,0,0,1,.42-.48c-.08.25,1-.72.24.18,1-1.14.78-.64,1.16-1.23a2.06,2.06,0,0,1-.21.21c-.17.07.09-.2.24-.38.45-.28,1-.65,1.67-1.1S69,241.7,69.94,241s2-1.44,3-2.34c1.19-1,2.39-2,3.56-3.09a99.16,99.16,0,0,1-9.68,7.58l.33-.38c.55-.37,1.1-.75,1.63-1.15a81.77,81.77,0,0,0,12.75-11.3c1.91-2.14,1-1.14-.52.44-1.06,1.21-2.55,2.61-3.33,3.33a80.51,80.51,0,0,0,9.8-11.25,12.66,12.66,0,0,0,1.8-2.17L91,218a28.86,28.86,0,0,0,1.64-2.72,10,10,0,0,1,.74-1.68l.83-1.66c.3-.62.57-1.32.88-2,1.32-2.81,2.34-6.2,3-7.92l-.1.34c-.07.23-.14.43-.19.57-.12.38-.14.47-.11.37l.2-.56c-.24.86-.55,1.91-.94,3.13-.12.4-.26.82-.4,1.25l-.55,1.31c-.4.89-.82,1.85-1.28,2.89s-1.12,2.27-1.68,3.4l-.87,1.68-1,1.61c-.66,1.07-1.28,2.16-2,3.19l-1.65,2.3.75-1a25.92,25.92,0,0,0,2-2.7l1.26-2,.77-1.23.77-1.48c-2.48,4.63,1.54-3.15-.54.71.56-1.14,1.19-2.35,1.88-3.65s1.23-2.79,1.93-4.34c.37-.77.62-1.62.93-2.48s.6-1.77.92-2.7.51-1.94.78-3,.53-2.09.73-3.2c-.69,3.17-.53,1.93-.15.28s.53-3.29.84-5.17.29-3.92.43-5.93l-.48-.08v.06A64.5,64.5,0,0,1,97.06,204a64.52,64.52,0,0,0,3.14-18.34l-.28,1c-.62,2.23-1.19,4.52-1.74,6.72a113.76,113.76,0,0,1-4.61,15.32c-2.61,6.42-10.91,8.59-19.72,5.14l-1.36-.53,3.2-22.69,2.39-.68-2.38.69c-1,7.3-2.08,14.92-3.16,22.65a22.42,22.42,0,0,0,11.83,1.95A12.56,12.56,0,0,0,90,213.1a10,10,0,0,0,3.63-4.72,90.66,90.66,0,0,0,3.58-11.45c1-3.83,1.94-7.61,2.93-11.29v-.06l-.48-.07c-1,3.59-1.88,7.18-2.57,9.92.09-.23.11-.21.11-.11-.66,2.51-1.11,4.13-1.62,5.8s-1,3.42-2.1,6.07c-.17.45-.36.9-.54,1.34a11.09,11.09,0,0,1-.65,1.23,7.66,7.66,0,0,1-.82,1.14c-.16.18-.3.37-.47.54l-.53.48a11.2,11.2,0,0,1-5.29,2.52,17.54,17.54,0,0,1-6.22.07c-.52-.09-1-.21-1.56-.31l-1.56-.43c-.51-.16-1-.35-1.53-.53l-1-.39c1-7.29,2.08-14.67,3.07-21.61l10.42-2.92,9.61-2.63c5.56-1.44-5.75,1.77-3.45,1.18l8.25-2.47,0-1.19c0-.3,0-.6,0-.89s0-.86-.07-1.28c0-.83-.11-1.61-.18-2.36-.15-1.5-.33-2.83-.52-4a52.66,52.66,0,0,0-1.12-5.33c-.67-2.46-1-2.86-.9-1.84.24,1,.45,1.94.65,2.89,0-.09-.06,0,.1,1.14-.23-1.32-.5-2.66-.81-4a225.07,225.07,0,0,0-7.24-23.68l.15.33c-.17-.52-.36-1.06-.6-1.62l0,0-1-2.71-1.72-4.89a29.84,29.84,0,0,1-1.6-7.08c-.06-1.7,0-3.2.05-4.25-.05.36-.08.57-.11.69A26.76,26.76,0,0,1,88,116.16c3.07-8.22,6.25-16.72,8.77-25.35.34-1.15.65-2.29.94-3.43-.68,2.7-1.46,5.41-2.32,8.09C94,99.93,92.42,104.29,91,108.3L88.87,114a49.11,49.11,0,0,0-1.7,5,24.48,24.48,0,0,0-.78,7.38c.09,1.62.24,2.27.19,1.69a10.76,10.76,0,0,1-.14-1.61,24.63,24.63,0,0,1,.38-5.45,28.36,28.36,0,0,1,.93-3.68c.44-1.28,1-2.64,1.49-4,1-2.82,2.17-5.85,3.25-8.9.52-1.47,1-2.94,1.52-4.39l-.19.71c-.08.22-.15.43-.22.66-1.3,3.87-3.47,9.76-5.59,15.54a26.12,26.12,0,0,0-1.47,8.65,27.07,27.07,0,0,0,1,6.93c.4,1.42.78,2.46,1,3-.09-.27-.23-.66-.41-1.18.39.62,2,5.6,2.09,5.28C94.43,151.27,97,159,98.87,167.39,97,158.68,94,149.6,90.66,140.14c-.42-1.19-.83-2.38-1.25-3.58s-.85-2.4-1.19-3.59a26.64,26.64,0,0,1-1.11-7.44A25.22,25.22,0,0,1,88.33,118c.39-1.22.89-2.48,1.36-3.76s.94-2.54,1.42-3.82c.82-2.32,1.5-4.33.28-1.12-1.83,5.18-2.94,7.77-1.6,4,2-5.61-.09.66,2.21-6l-1.2,3.17c2.37-6.49,3.46-9.83,4.6-13.77,1.09-3.23,2.08-6.53,2.93-9.91a89,89,0,0,0,1.87-10.31,78.2,78.2,0,0,0,.44-10.49,71.79,71.79,0,0,0-1.11-10.37,67.26,67.26,0,0,0-6.69-19,71.27,71.27,0,0,0-5.06-8.19,80,80,0,0,0-5.71-7.18C80.22,19.19,78.25,17.32,76.22,15.54Zm21.84,71,0-.17A1.36,1.36,0,0,1,98.06,86.57Zm.87-4c0-.24.09-.49.13-.7.09-.53.17-1,.23-1.27,0,.21-.07.42-.11.65C99.1,81.68,99,82.13,98.93,82.56ZM75.82,74v-.43a24.19,24.19,0,0,1,.1,3.3l-.88-16.31,0-1c.13,2.44.27,4.86.39,7.18C75.59,69.3,75.71,71.76,75.82,74Zm8.71,9.73a18.69,18.69,0,0,1-3,1.1l1.72-.69.71-.23.45-.15,0,0C84.51,83.74,84.54,83.74,84.53,83.75Zm1.18,37.12a20.91,20.91,0,0,1,.74-3.78c-.3,1.25-.53,2.48-.71,3.69C85.73,120.8,85.72,120.85,85.71,120.87Zm3-11.15s0,0,0,0a56.17,56.17,0,0,0-2.25,7.15c0-.44-.5,1.41-.24.11.44-1.42.47-2.11.92-3.21l-.08.66C87.38,113.43,88.3,110.87,88.74,109.72Zm7-22.84c.08-.34.16-.68.24-1-.19.82-.3,1.34-.32,1.43C95.66,87.19,95.69,87,95.72,86.88Zm1.12-4.95c0-.11.08-.45.19-1l0,.36C96.93,81.54,96.89,81.74,96.84,81.93Zm-3,12.65.06-.09-.3,1.08Q93.76,95.09,93.88,94.58Zm-3.7,11.48c.1-.29.18-.5.24-.65Zm-.74,1.9.4-1C89.71,107.28,89.58,107.62,89.44,108Zm7,56.75a.87.87,0,0,0,.05.28c0,.18.07.36.11.55a0,0,0,0,1,0,0,.33.33,0,0,0,.06.12c0,.19.07.38.11.57a1.59,1.59,0,0,1-.1-.39c0,.11-.25.15-.19.4l0,.7c.23,0,.31,1.12.33,1.52l0,0c0-.11,0-.1,0,0a1.46,1.46,0,0,1-.24-1c-.11-.5-.19-1-.26-1.5a2,2,0,0,0,0,1.1c0-.57.15.35.14-.12.17.52,0,1.26.27,2.2-.09-.34,0-.23.1,0,0,.64.26,1.64.36,2.27,0,0,0,0,.07,0,0,.56.07.72.07,1.35s.14,1.22.24,1.87l.15,1,.09.5c0,.14,0,.26,0,.4a4.6,4.6,0,0,1-1.25,2.84c-.43.39.23-.56,0-.4-.44.92-.8,1.52-.93,1.91s-.08.6.15.65l.2-.25s.06.05.16,0l-.07.08-.24.24A20.74,20.74,0,0,1,86.21,187a18.55,18.55,0,0,0,2.84-1,10.16,10.16,0,0,0,3.14-1.9,13.43,13.43,0,0,1-2.28,1.34l-.45.22.06-.07c.38-.21,1-.54,1.59-.91s1.31-.88,1.59-1.08c0-.19.47-.43.35-.54l2.3-2a36.49,36.49,0,0,1-5.21,3.45c-.21.15-.38.29,0,.17.47-.32.77-.39.45-.1-.52.34,0-.14-.6.3l.34-.13a7.16,7.16,0,0,0-1.29.85c-2.66,1-5.74,2-8.29,1.64a8.15,8.15,0,0,1-.86.16c0-.07-.13-.16-.55-.14.15,0,.41,0,.35.06-.64,0-1.29-.08-1.93-.15l.19.1a8.22,8.22,0,0,0-.94-.13,6.48,6.48,0,0,1-.79-.1,1.12,1.12,0,0,1,0-.32s-.1-.27-.17-.23c0-1.91-.32-4.08-.19-5.7,0,.16-.1,0-.13-.06,0-.64,0-.15.1-.31-.42-.24-.34-8.62-.6-9.64,0,.15,0,.31,0,.26-.08-1.37-.17-2.8-.26-4.21s-.19-2.71-.28-4l.63-.17c-.38.09-.43,0-.49,0l.77-.18c-.07,0-.33.12.11.12l1.5-.4a3.54,3.54,0,0,1-1.11.17l1.25-.29c.17,0,.48,0,.48.06-.07-.2,1-.28,1.6-.44l.12-.13,1.15-.26-.71.19a4.71,4.71,0,0,0,1.27-.21c-.16,0-.26,0,0-.09a2.83,2.83,0,0,0,.7-.12l.61-.08-.11,0s.22,0,.43-.07a8.68,8.68,0,0,0,2-.33c-.22,0-.55.1-.89.14h-.06l.1-.06c.34-.08,1.12-.21,1.53-.31a11.87,11.87,0,0,0,3.26-.79l.67-.16-.53.1c.16-.07.31-.16.47-.25l5.88-1.35.27,1.45a.05.05,0,0,0,0,0c-.05.53.21,1.63.14,1.82s0-.29.16.11a2.92,2.92,0,0,1,0,.95l.17.33c-.13.08,0,.71.15,1.4-.07-.81-.15-1.65-.28-2.56a30.59,30.59,0,0,1,.59,3.51c.21.59,0-.6,0-.67s0,0,0,.05S96.46,164.56,96.49,164.71Zm-.27,16a2.87,2.87,0,0,0,1-1.2,5.77,5.77,0,0,1,.83-1.32,9.76,9.76,0,0,1-1.76,2.71C96.59,180.49,96,181,96.22,180.71ZM97,168v.15c-.12-.35-.21-1.32-.09-1.13l-.19-.13c-.12-.52,0-.44.13-.35.58,3,1.14,6.17,1.57,9.34a3.81,3.81,0,0,1-.07,1.26c.19-1.33-.32-2.79-.51-4.19C97.52,171.24,97.22,169.52,97,168ZM69,110.68l-.06.28c0,.2-.08.32-.09.27a40.78,40.78,0,0,1,1.21-5c-.1.46-.2.93-.31,1.38s-.26,1.1-.38,1.64-.24.92-.34,1.36v0A.83.83,0,0,0,69,110.68Zm-.38,26.89c.1.74.22,1.48.35,2.23l-.24-.57C68.37,137.22,68.44,137.22,68.58,137.57Zm7.28,49.23a2.14,2.14,0,0,1,.07.47,5.27,5.27,0,0,1,.76.15l-.81-.11,0-.46S75.85,186.81,75.86,186.8Zm.89.42c.47.16.75,0,1.13.17l-.24.09a15.6,15.6,0,0,0,1.74.16s0,0,0,0c-.64,0-1.29-.08-2-.17l-.65-.08C76.9,187.39,76.33,187.23,76.75,187.22Zm-2.24-23.87a1.33,1.33,0,0,1,0,.69Zm.23-.73-.15.06h-.11Zm12.87,23.79.1,0-.16.07Zm1.55-.62.31-.18-.14.1Zm-9.22,1.91a4.41,4.41,0,0,1,.66,0,2.7,2.7,0,0,1,.46,0C80.69,187.71,80.32,187.71,79.94,187.7Zm5-.44.06,0-.44.08Zm10.73-26.65v0c0,.11,0,.18,0,.17a3.19,3.19,0,0,1-.13-1.24l0,.3.09.45C95.64,160.38,95.64,160.5,95.65,160.61Zm-22-4.94c.36,1.07.74,2.14,1.08,3.18Q74.18,157.26,73.67,155.67ZM72,149.76c-.19-.78-.38-1.57-.55-2.35A11.65,11.65,0,0,1,72,149.76Zm-1-4.74c0,.06.06.22.14.53s0,.34.07.49ZM52.38,169.9a5.3,5.3,0,0,0-1,1.16,3.06,3.06,0,0,0-.31.88,8,8,0,0,0,0,1c0,1.3-.06,2.47-.09,2.69,0,1.22.17-2.28.22-.1-.12,2.31,0,3.37-.1,5.2l-.1-1c0,1.67-.12,5.91-.06,7.83,0,0,0,0,0,0,0-.89,0-1.77,0-2.63,0-3.26,0-6.38,0-9.44,0-.19,0-.37,0-.56,0-.87,0-1.75.08-2.62a3.32,3.32,0,0,1,1.28-2.3ZM75.5,216.23l.49,0-.14.12C75.41,216.38,75.42,216.31,75.5,216.23Zm-.37.21.66.21c0-.23,1.13,0,1.51.06h0c-.11,0-.1,0,0,0a1.42,1.42,0,0,1-1,0,14.52,14.52,0,0,1-1.48-.12,2,2,0,0,0,1,.33c-.54-.1.37-.06-.08-.17.54,0,1.2.31,2.15.3-.34,0-.2-.1,0-.11.62.11,1.63.16,2.24.22a.06.06,0,0,1,0-.08c.54.1.7.12,1.3.27,2.26.4,5.4.45,7.3.87.59.19-.64.07-.4.16l.7,0c-1,.89-2.1,1.89-3.19,3-.16.21-.29.4,0,.18.35-.47.65-.59.41-.23-.41.48,0-.14-.49.46l.28-.22a5.12,5.12,0,0,0-.93,1.23c-2.16,1.9-4,4.41-6,6l-.49.72c-.07,0-.2,0-.47.31.11-.1.3-.28.28-.22L77,230.88l.19-.08c-.49.36-1.16,1.27-1.73,1.62,0,0-.24.36-.16.37-1.45,1.24-2.77,2.89-4,3.85.15-.06.06.08,0,.14-.43.44-.14.06-.29.12.1.47-6,5.84-6.62,6.7.11-.1.23-.2.21-.14l-.8.82-3-2.52L62,238.91c-.18.39-.25.35-.32.33l.31-.7c0,.07-.1.32.16,0l.56-1.4a3.21,3.21,0,0,1-.51,1l.5-1.14c.12-.12.29-.38.34-.34-.2-.07.38-1,.59-1.51l0-.17.46-1c-.08.23-.17.45-.26.66a4.46,4.46,0,0,0,.58-1.1c-.08.13-.15.19-.09,0,.41-.59.42-1.07.78-1.62l-.2.59c.16,0,.41-1.25.61-1.12.13-.58-.12-.15-.19-.14l.41-.93h0v0l.39-.87c0,.12,0,.22,0,.35a4,4,0,0,1-.35.56c0,.11,0,.3.11.13a4.83,4.83,0,0,0,.61-1.79h0l.33-.74a1.56,1.56,0,0,1-.19.87c.22-.28.17-.43.35-.74l0-.51-.1.29h-.06l3.73-8.43s0,0,0,0c.34-.4.74-1.42.9-1.53s-.19.21-.07-.18a2.93,2.93,0,0,1,.54-.76c0-.12,0-.2,0-.32.08,0,.16-.08.25-.26l.69.05-.75-.15c-.19.32-.46.81-.72,1.34a8.9,8.9,0,0,1,.64-1.49l.84.14c.31,0,.61.08.92.1.61-.06-.57-.12-.63-.19h0l.56,0h.07l.63,0s0,0,0,0h0l.28,0C74.9,216.23,74.89,216.43,75.13,216.44Zm15.78,1.07-.07.07h0l0-.07Zm-19.78.63,0-.06s0,0,0,0a3.33,3.33,0,0,1-.59,1.07l.29-.66.19-.29h0Zm4.54,14.6a5.26,5.26,0,0,1,.93-.91l-.9.9ZM78.44,230s0,0,0,0l-1.81,1.8c.08-.14-.45.25-.18-.11.43-.28.48-.56.84-.77l-.08.24C77.47,230.88,78.17,230.27,78.44,230ZM84.13,224l.13-.14-.18.19Zm1.15-1.16s.06-.1.21-.27l-.09.14Zm-3,3.22h.06l-.3.31Zm-3.42,3.48a4.35,4.35,0,0,1,.44-.45,2.52,2.52,0,0,1,.32-.31ZM61.31,240.13a1.28,1.28,0,0,1-.28.61Zm.37-.85a.82.82,0,0,1,0,.17l-.06.08Zm21.69-14.22c1.62-1.69,4.68-4.79,4.31-4.64.1-.06-1.11,1.15-2.18,2.22l0-.08c.81-.91,3.26-3.46,2.54-2.72-.06-.17.41-.48.27-.58.32-.36.6-.66.87-.93a7.84,7.84,0,0,0,.91-.12l-.17.26Zm6.69-7.43-.09,0,.07-.06C90.12,217.57,90.23,217.61,90.06,217.63Zm.15.56h0l-.11.11A.86.86,0,0,1,90.21,218.19Zm.35-.68-.09,0h.1Zm-.41-.06h0Zm-.08,0c-.11,0-.11,0-.07.05l-.09.07c-.76-.28-2.21.05-2.93-.39l3.1.26Zm-41.47,12c-.05-13.75-.1-30.12,0-42.46l0,.64c0-1.35,0-4.7.08-4.84Zm-14.36-5.18c1,2.29,1.31,3.51.58,1.84-1-2.49.22.23-1-2.68l.51,1.44c-1.08-2.84-1.63-4.27-2.35-6.13a129.81,129.81,0,0,1-3.38-13.63c-.42-2.31-.8-4.62-1-6.91-.16-1.14-.19-2.28-.29-3.4,0-.57-.08-1.12-.1-1.69,0-.41,0-.81-.05-1.22l3.94.64,4.16.73,1.37.15.52.06,0-.48c0-.35-.08-.69-.15-1a2.28,2.28,0,0,0-.47-1.11.77.77,0,0,0-.29-.17,1.4,1.4,0,0,0-.68-.25,10.31,10.31,0,0,0-1.84,0,10.89,10.89,0,0,1,1.56,0,27.53,27.53,0,0,1-4.09-.11,5.08,5.08,0,0,1-3.38-1.64,3.54,3.54,0,0,0,.5.6A4.59,4.59,0,0,1,27,187.55,7.72,7.72,0,0,1,26.5,185a30.51,30.51,0,0,1,.44-5.11c-.05,0,.11-1.84,0-1.66,1-8.11,1.76-17.15,2.87-23.84-.14.61-.09-.07-.08-.32.34-2.65.14-.62.28-1.24a54.51,54.51,0,0,1,.73-6.17c.47-3.48,1.38-8,1.93-12.75a75.14,75.14,0,0,0,.46-13.53,48,48,0,0,0-1.09-8c.13.65.22,1.31.15,1.08-.46-2.44-1-4.87-1.5-7.36s-.91-5-1.32-7.51-.82-5-1.23-7.54S27.35,86.25,27,83.9l7.89.46C33,84.24,33,84.16,33,84.09l3.32.21c-.3,0-1.44,0,.31.16l5.39.29c-1.65-.1-2.71-.21-3.57-.32l5.38.34c.67.11,2,.24,1.94.3s.38-.07,1,0,1.58.1,2.42.17c0,1.07,0,2.41,0,3.35l.11.63,0,4.71c0-1,0-1.93-.06-2.84-.11,1.38,0,3.18,0,5.21,0-.56,0-.78.09.15-.1,3,.1,4.94,0,7.78l-.07-2.71c-.14.37.18,5.66-.06,5.52.14,2.5.17.3.23.16l0,4.42s0,0,0,0a1.15,1.15,0,0,1,0,.16l0,4.1c0-.48-.08-.89-.12-1.43s0-2.55.06-2.83c0-.46-.11-1.21-.15-.33,0,2.89,0,7.35.24,8.13v-.06l0,3.52a27.08,27.08,0,0,1-.21-3.79c-.08,1.51,0,2,0,3.56l.18,2.11,0-1.36.06-.09L50,163s0-.08,0-.06c-.06.84-.07,2.29-.08,3.34l-2.44-.17c-.74-.05-1.31-.1-1.52-.14-.65,0,1.17.16-.58.1-2.11-.14-2.24-.19-3.19-.3l-.58.8-.08.15-.16.3.29.09,1.26.4a9.84,9.84,0,0,0,1.84.86l3.48,1.37L41.65,167l-.15-.06.09-.14c.19-.3.4-.6.6-.91l3,.2c-1,0-1.94-.06-2.94-.11l-.41.65h0v0l-.14.21,0,0h0l.23.1v0h0l3.2,1.3,3.38,1.4q0,1.89,0,3.84c.11,2.6.07-2.5.14-2.77a.25.25,0,0,1,0,.09v5.49s0,.09,0,.13v1.23a3.7,3.7,0,0,0-.25,1.45l-.15,2.88c.23.11.11,4.85.06,6.51,0-.05,0-.13,0-.19,0-.55,0-.5,0-.17a26,26,0,0,1-.06-4.12c0-2.15,0-4.26,0-6.38a33,33,0,0,0-.24,4.5c.06-2.37.09,1.58.16-.4.08,2.3-.21,5.26-.12,9.34,0-1.46.08-.9.11-.14-.07,2.68,0,7,0,9.71,0-.12.06-.11.08-.06-.06,2.36-.06,3.06-.17,5.69-.21,9.86,0,23.38-.28,31.7-.14,2.62-.13-2.73-.19-1.65.13,5,.3,8.08.48,9.72a43.6,43.6,0,0,1-3.61-3.3,35.61,35.61,0,0,1-3.78-5.29,81.7,81.7,0,0,1-6.05-12.79C34.11,223.71,33.72,222.83,34.24,224.29Zm-2.72-2s0,0,0,0c.09.6.64,1.77.62,2s0-.34.19.09a4.42,4.42,0,0,1,.25,1.06l.25.33c-.11.12.21.81.53,1.56-.29-.9-.6-1.85-1-2.85.67,1.23,1,2.52,1.54,3.82.37.62-.21-.65-.18-.75l0,0,.25.61a1,1,0,0,0,.07.15l.26.63s0,0,0,0l0,0,.13.31c0,.12-.19.21-.07.47l.17.78c.22-.06.62,1.18.75,1.62l0,0c-.06-.14-.06-.13,0,0a1.94,1.94,0,0,1-.5-1c-.26-.53-.47-1.06-.68-1.61a2.49,2.49,0,0,0,.26,1.23c-.2-.62.25.36.1-.16.32.54.37,1.4.89,2.39-.18-.35,0-.25.08-.07.23.7.72,1.78,1,2.46a.06.06,0,0,1,.06-.05c.2.62.27.8.46,1.5.83,2.5,2.39,5.7,3.06,7.9-1.19-.87-2.47-1.77-3.81-2.69-.27-.14-.51-.25-.19,0,.61.32.83.61.37.4-.64-.37.13-.06-.65-.45l.33.26a8.11,8.11,0,0,0-1.6-.84c-2.65-2.08-5.78-4-7.78-6.21l-.85-.54c0-.09,0-.23-.4-.53.13.13.35.34.28.31-.56-.5-1.09-1-1.63-1.54l.11.21a21.71,21.71,0,0,1-1.91-2s-.41-.3-.42-.22a53.54,53.54,0,0,1-4.22-5c.06.17-.08.05-.15,0-.46-.57-.06-.18-.12-.35-.26,0-1.79-1.94-3.19-4.11s-2.75-4.5-3.14-5c.08.16.17.32.11.28-.95-1.59-2-3.49-2.7-4.71l4.3.12c-.51,0-.5-.1-.5-.17l.9,0c-.08,0-.39,0,.09.15l1.79,0A4.57,4.57,0,0,1,13.7,212l1.48.06c.18.07.53.13.52.2,0-.22,1.23,0,1.9,0l.18-.1,1.28.05h-.77a6,6,0,0,0,1.47.15c-.19,0-.29-.08,0-.1.82.16,1.35,0,2.12.15l-.74,0c.09.14,1.55-.07,1.5.17.69-.09.11-.17.07-.23l1.19.05v0l0,0,1.13,0-.4.08a5.42,5.42,0,0,1-.77-.11c-.12,0-.34.09-.1.14a6.51,6.51,0,0,0,2.23-.07h0l1,0a2.22,2.22,0,0,1-1,.13,5.06,5.06,0,0,0,.93.06l.51-.12,0,.05,0-.06h-.3v-.07l.32,0ZM35,230.55l-.18-.09c-.23-.47-.16-.5,0-.45Zm-3-6.89s0,.06,0,.08,0,0,0,0a4.47,4.47,0,0,1-.46-1.36l.33.79c0,.13.06.26.1.39h0ZM41.3,246c0-.09,0-.19,0-.29l.18.12.08.19C41.25,245.51,41.5,246.33,41.3,246Zm26-237.32-.12-.09.1.08ZM99.24,56c0,.12,0,.24,0,.36-.3-1.77-.69-3.52-1.14-5.26C98.52,52.63,98.9,54.25,99.24,56ZM64.45,189.72h0Zm0-.08h0ZM60.11,191l-1.56.51h-.2ZM48.19,166.28l-.56-.05c-.07,0-.12,0-.09,0l1.17,0,1.17.09c0-.85.06-1.71.09-2.34v-.29l0,2.75-.32,0-1.49-.14h0Zm.45,14.4v2.11l-.13-.56C48.48,180.33,48.55,180.34,48.64,180.68Zm-22-1.25c0,.69-.18,2-.3,3.24-.1.89-.13,1.72-.14,2.18a24.07,24.07,0,0,1,.15-2.82c.09-.84.17-1.66.26-2.49Zm1.82,10.37a5.48,5.48,0,0,0,1.87.75,14.68,14.68,0,0,0,3.74.25s0,0,0,0c-3,.06-5.09-.23-6.47-1.71a5.72,5.72,0,0,1-1.37-3.77c0,.28,0-.18.07-.55s.08-.72.13.29a6,6,0,0,0,.42,2.49,5.39,5.39,0,0,0,1.23,1.78,4.1,4.1,0,0,1-.72-.6A4.59,4.59,0,0,0,28.45,189.8Zm4.33,50.67.15.11-.23-.16Zm1.6,1.14.27.15-.12,0Zm-4.28-3v.07l-.39-.32ZM13.91,121.17h0a24.6,24.6,0,0,1,.39,4.76c0-.61,0-1.27-.1-2.16C14.16,123.07,14.08,122.23,13.91,121.17ZM27.1,207.83a1.1,1.1,0,0,1-.09-.64Zm.21,1.67s0,0,0,0-.07-.2-.12.07l.09.51-.78.15a3.18,3.18,0,0,1,.87-.08c0-.05,0-.09,0-.13l0,.16-1,.15c-.17,0-.46,0-.46-.11.06.21-1,.18-1.53.28l-.13.12-1.1.12.68-.1a5.09,5.09,0,0,0-1.27,0c.19,0,.33,0,.07.1-.69-.07-1.1.15-1.74.07l.6-.09c-.09-.12-1.25.21-1.23,0-.56.14-.08.18,0,.24l-1,0v0l0,0h-.94l.34-.1a6.26,6.26,0,0,1,.63.08c.1,0,.27-.1.07-.15a5.26,5.26,0,0,0-1.82.15h0l-.79,0a1.63,1.63,0,0,1,.85-.12,5.16,5.16,0,0,0-.79-.07l-.48.12h.31v.06A14.67,14.67,0,0,1,8.3,208s0,0,0,0c-.3-.39-1.09-1.08-1.11-1.29s.11.26-.19,0a1.76,1.76,0,0,1-.43-.78l-.29-.19c.07-.11-.3-.61-.65-1.16A9.79,9.79,0,0,0,7,206.69a8.9,8.9,0,0,1-1.91-2.82c-.37-.46.22.52.19.61l0,0c-.09-.15-.18-.31-.26-.47a.43.43,0,0,1,0-.07c-.09-.17-.18-.35-.26-.54h0s0,0,0,0l-.12-.24c0-.11.19-.2.09-.4l-.1-.65c-.24.07-.48-1-.54-1.33l0,0c0,.1,0,.1,0,0a1.24,1.24,0,0,1,.35.84c.2.42.37.85.54,1.28a1.93,1.93,0,0,0-.16-1c.14.5-.21-.29-.11.14-.28-.44-.21-1.15-.55-2,.11.3,0,.21-.09.06-.11-.59-.37-1.5-.48-2.09a.06.06,0,0,1-.07,0,9.93,9.93,0,0,1-.08-1.27,48.32,48.32,0,0,1-.46-7c.1-.59.16.6.21.35-.37-2.08-.73-2.66-1.13-2.4l.05.3s-.08,0-.1.13c0-.15,0-.28,0-.43l-.08-2.46,7.62,2c-2.2-.52-6.29-1.53-6-1.3-.11-.05,1.5.36,2.92.72l-.08,0-1.73-.37L3.11,186c-.25-.05-.34-.07-.13,0,0,.17-.35,0-.24.16l-.2,0a4.45,4.45,0,0,1,0,.59v1.06l.06-.59a2.63,2.63,0,0,1,0-.48l.09-.31.23.11c.08,0,0,0,.42.14l1.81.5c.25,0,.47,0,.14-.09-.56-.07-.81-.25-.39-.23.6.09-.09.1.63.17l-.33-.13a4.62,4.62,0,0,0,1.49.17c2.65.86,5.67,1.18,7.94,2l.85,0c0,.08.08.19.48.25-.14-.05-.38-.11-.32-.12l1.8.46-.17-.13c.55.24,1.63.34,2.2.65,0-.05.42,0,.4-.06.82.28,1.71.49,2.56.7a14.81,14.81,0,0,1,2.17.61v.21c0-.14.09-.05.13,0,.06.46-.05.13-.09.25.42.12.88,8.07,1.21,9,0-.14,0-.29,0-.24.38,2.8.77,5.88,1.18,8.52,0-.4,0-.4.11-.42ZM15.9,163.3s0-.07,0-.1a.34.34,0,0,1,0,.1h0L4.84,160.39v-.06ZM8,77.76h0l.19,0c.4.24.36.29.24.32ZM7.1,76.63c.1.08.1.07.05,0a1.81,1.81,0,0,1,.8.57l1.24.85a2.24,2.24,0,0,0-.75-.78c.43.36-.35-.13,0,.18-.5-.25-.87-.9-1.62-1.48.26.22.1.2,0,.1-.41-.49-1.14-1.21-1.5-1.74,0,0,0,.06,0,.06a7.36,7.36,0,0,1-.63-1.19,20.33,20.33,0,0,1-1.46-3.53,10.09,10.09,0,0,1-.46-3.52c.08-.61.17.62.22.37a21.76,21.76,0,0,0-.5-2.19c-.16-.41-.34-.52-.55-.4l0,.32s-.08,0-.11.14c0-.16,0-.31,0-.47a97.17,97.17,0,0,1,1.38-10c0-.22.07-.43.11-.66-.38,2.51-1,6.52-.78,6.18-.06.12.22-1.66.48-3.23l0,.08c-.05.44-.14,1.17-.23,1.9-.17,1.36-.31,2.69-.23,2,.16.1,0,.66.14.65C2.57,62.15,2.45,63,2.34,64c.38-1.93.74-4.13,1.14-6.52,0-.27,0-.51-.1-.14,0,.61-.19.9-.2.44,0-.66.11.1.12-.69l-.1.36a5.43,5.43,0,0,0,.06-1.62,40.8,40.8,0,0,0,.67-4c.09-.68.18-1.35.26-2L4.31,49c0-.21.07-.4.11-.58q.31.15.57.3l.28,0,.45.09c0,.07.07.19.5.32-.15-.07-.4-.17-.34-.18l1.88.74-.16-.15c.57.32,1.72.59,2.3,1,0,0,.45.09.43,0,1.81.86,4,1.46,5.43,2.27-.13-.11,0-.08.11-.09.61.24.12.11.25.22a13.31,13.31,0,0,1,3.29,1.16l4.67,2a1.7,1.7,0,0,1,0,.22l0,.27a2.13,2.13,0,0,0,0,.27c.05,1,0,.37.07,2.1l.05.16c0,2.39.09,4.83.18,7,0-.46.08-.45.15-.46v.81c0-.07,0-.35-.14.09l.09,1.59A3.4,3.4,0,0,1,24.6,67l0,1.32c-.05.17-.1.49-.16.48.21,0,.06,1.1.09,1.7l.11.15,0,1.21c0-.25,0-.51,0-.75a5.11,5.11,0,0,0-.07,1.35c0-.18.06-.3.1,0-.11.75.07,1.21,0,1.91l-.07-.67c-.13.1.16,1.39-.08,1.36.12.61.17.08.23,0l0,1.08h0l0,0v1c0-.11-.07-.21-.11-.34a5.25,5.25,0,0,1,.08-.7c-.05-.11-.11-.3-.15-.08a5.39,5.39,0,0,0,.2,2h0v.86l-.08-.21A2,2,0,0,1,24.6,78a4,4,0,0,0,0,.77l.06.19c0,.06-.12.12-.19.19l.27-.14.06,0v0l-1.19.47a17.52,17.52,0,0,1-5.92,1.24l-.34-.08.32,0c.12-.07.39-.08.34-.14.32,0,.26.08.48.1.54-.14,1.4-.18,1.83-.35a2.9,2.9,0,0,1-.43.06,8.72,8.72,0,0,1-2.62.08c.11.08-.12.16,0,.21-.5-.11-1-.22-1.54-.3l.93,0-2.5-.49.31.1-2.72-.49c-.26-.12-.6-.25-.95-.39.19.11.39.22.6.32l-.52-.1-1-.5c-.61-.18.5.32.54.42H10.4L9.9,79l-.07,0a6.65,6.65,0,0,1-.58-.33h0L9,78.44c-.05-.1,0-.27-.17-.4l-.49-.51c-.16.18-1-.6-1.25-.92ZM9.6,47.45c.28.36-.12-.43.15-.09A3.91,3.91,0,0,0,11,49c.37.33.76.63,1.09.91l-.43-.16A9.78,9.78,0,0,1,9.6,47.45ZM40.21,9.82A2.36,2.36,0,0,1,40.63,9Zm-.51,1-.06.11s0-.1.09-.23l.08-.11ZM21.31,20.94a11.08,11.08,0,0,1-1.25,1.29c.39-.43.8-.85,1.21-1.27Zm-3.66,4v0c.76-.9,1.54-1.79,2.34-2.65-.11.19.57-.41.19.09-.54.45-.63.79-1.08,1.13l.12-.31C18.88,23.58,18,24.52,17.65,25Zm-6.46,9.16a2.39,2.39,0,0,0-.13.21l.14-.23Zm-.46.75h0a.75.75,0,0,0,.07-.12ZM10,36.21l-.17.4,0-.16Zm7.17-10.67a7.19,7.19,0,0,1-.55.7,3.69,3.69,0,0,1-.39.48C16.51,26.32,16.82,25.93,17.14,25.54ZM13.1,31,13,31l.34-.48C13.27,30.67,13.19,30.81,13.1,31ZM10,35.91a10.44,10.44,0,0,0-1.5,4.69,11.69,11.69,0,0,1,1-3.4c.09-.2.19-.41.29-.6v.1A16.46,16.46,0,0,0,8.9,39a10.27,10.27,0,0,0-.42,2.52c.15.12,0,.84.19.8a11.28,11.28,0,0,0,.88,3.85,11,11,0,0,1,.27-7.92c.09-.33.16-.62-.06-.19-.21.72-.41,1.07-.33.5.25-.79.08.13.34-.82-.08.14-.14.28-.22.42.34-.9.52-1.36.68-1.94,2.09-3.31,4.24-7.09,6.62-9.59l.61-1c.09,0,.24-.05.59-.51-.15.16-.38.43-.35.35.57-.66,1.13-1.35,1.73-2l-.24.14a29.32,29.32,0,0,1,2.28-2.33s.35-.48.26-.49a62.28,62.28,0,0,1,5.75-5.11c-.19.09-.05-.08,0-.15.67-.55.2-.09.39-.17a24.9,24.9,0,0,1,4.82-3.77C35.2,9.92,38,8.38,38.52,7.93c-.19.1-.38.2-.32.14L42,5.76c-1,2-1.91,3.9-2.8,5.72.29-.53.35-.48.42-.45-.16.32-.33.64-.5,1,0,0,.23-.51-.17,0L38,13.88a6.44,6.44,0,0,1,.83-1.37c-.28.54-.57,1.07-.85,1.59-.15.16-.4.52-.45.48.2.07-.66,1.29-1,2v.24c-.25.47-.49.94-.72,1.4.14-.3.27-.61.41-.89a7.23,7.23,0,0,0-.83,1.5c.11-.18.19-.25.08.05-.53.84-.61,1.47-1,2.28l.28-.83c-.19.05-.54,1.75-.74,1.63-.09.53,0,.42.08.28-.77,1.39-1.54,2.76-2.28,4.08.19.44.38.87.56,1.3-1.19,3.66-2.39,7.56-3.51,11.61,0,0,0,0,0,0-.32.63-.67,2.1-.83,2.31s.19-.34.08.21a6.23,6.23,0,0,1-.49,1.18v.49c-.18,0-.37.9-.58,1.83.34-1.06.7-2.16,1.06-3.37-.27,1.62-.88,3.05-1.23,4.69-.09.84.25-.77.33-.83s0,.05,0,.07c-.06.23-.12.46-.17.7a.83.83,0,0,0,0,.15l-.15.65a1.09,1.09,0,0,0-.05.17h0v0c0,.13-.06.26-.1.39s-.28.07-.37.38a7.59,7.59,0,0,1-.44.79c.09.06,0,.42-.24.8a4.12,4.12,0,0,1-.71.93l0-.06c.1-.12.09-.11,0,0a3.73,3.73,0,0,1,.61-1.08,15.67,15.67,0,0,0,.68-1.81A4.15,4.15,0,0,0,25.53,49c.33-.63-.1.48.19-.05a6.22,6.22,0,0,1-1.6,2.18c.28-.3.24-.12.1.05a5.74,5.74,0,0,1-1.19.69,5.15,5.15,0,0,1-1.36.35s0,0,0,.07A6.54,6.54,0,0,1,20,52.1a22,22,0,0,1-4.89-1.21,8.93,8.93,0,0,1-3.7-2.62c-.43-.63.65.48.48.21a24.08,24.08,0,0,1-2-1.9c-.4-.37-.62-.41-.73-.16l.23.36s0,0,0,.12c-.08-.16-.18-.3-.26-.45-1.56-3.24-1.15-7.16,1.16-11,.55-.93,1.13-1.84,1.71-2.74C11.33,33.58,10.61,34.75,10,35.91ZM96.3,51.55c-.12.55-.09.11-.17.23.08.08,0,.6-.36,1.27A4.91,4.91,0,0,1,95,54.12a4.09,4.09,0,0,1-1.07,1,2.52,2.52,0,0,1-1.36.38l-1.43,0a13.72,13.72,0,0,0-1.79.12c.15,0,.3,0,.25,0-2.81.15-5.87.14-8.56.13.4,0,.41.09.41.16l-.7,0c.09,0,.22,0-.11-.14H79.22a2.91,2.91,0,0,1,1,.12l-1.17,0c-.15-.07-.42-.13-.41-.19,0,.1-.24.11-.54,0a4.59,4.59,0,0,1-.86-.42h-.16a5,5,0,0,1-.7-.61,3.9,3.9,0,0,0,.38.33c-.15-.29-.49-.54-.75-.92.07.13.09.23-.07.07a8.78,8.78,0,0,1-.84-1.51c.1.17.21.34.32.51.06-.12-.66-1.08-.39-1.14-.25-.47-.19,0-.23,0a4.1,4.1,0,0,1-.11-.4c0-.19-.07-.37-.11-.55h0l0,0c-.07-.32-.12-.63-.19-.95.06.13.13.22.19.35a3.75,3.75,0,0,1,0,.64c.06.09.15.24.16,0-.11-.64-.28-1.62-.5-1.75a.9.9,0,0,0,0,.18c-.07-.32-.13-.65-.2-1a1.43,1.43,0,0,1,.37.84c0-.35-.1-.44-.12-.79l-.25-.43.08.29-.08,0c-.58-2.94-1.11-5.87-1.61-8.73l0,0c.06-.5-.17-1.53-.09-1.71s0,.27-.16-.11a2.71,2.71,0,0,1,0-.89l-.16-.31c.11-.06.06-.42,0-.88,0-.14-.06-.3-.09-.46,0,.33.05.66.08,1s.09,1,.15,1.5a8.61,8.61,0,0,1-.31-1.64,14.83,14.83,0,0,0-.2-1.63s0-.08,0-.09,0-.06,0,0a4.58,4.58,0,0,1,0,.67l0,0-.12-.68.46-.27s0,0,0,0l0,0,.23-.14c.1,0,.22.16.41,0l.63-.21c-.1-.21.86-.66,1.2-.81,0,0,0,0,0,0s-.1.06,0,0a1.31,1.31,0,0,1-.75.54,13.42,13.42,0,0,1-1.21.73,1.68,1.68,0,0,0,1-.31c-.48.23.25-.26-.16-.09.4-.33,1.11-.43,1.84-1-.27.19-.21,0-.08-.08.54-.25,1.35-.79,1.87-1.09a.06.06,0,0,1,0-.06A10.76,10.76,0,0,1,78,31.37c1-.48,2.1-1.16,3.19-1.81.54-.33,1.07-.64,1.57-.93l.74-.39.3-.15h.08c.07.11,0,.16,0,.2a.24.24,0,0,1,0-.17c0-.05.11-.06.21-.06a3.23,3.23,0,0,0,.47.22c.27.09.42,0,.48-.16l-.22-.21s.06-.06,0-.16l.28.32A51.24,51.24,0,0,1,90.74,36c-.32-.54-.68-1.14-1.06-1.73a13.22,13.22,0,0,0-2.08-2.77A23.94,23.94,0,0,1,89,33.56l.26.4-.07,0-1-1.42a16.55,16.55,0,0,0-1.1-1.45c-.18.05-.39-.45-.51-.33-.82-.93-1.31-1.58-1.83-2.26,1,1.51,2.14,3.17,3.33,5,.16.19.31.34.17,0-.37-.42-.44-.71-.14-.43.39.47-.13,0,.35.54l-.15-.31a4.36,4.36,0,0,0,1,1.12c1.28,2.41,3,4.86,3.73,7.18l.47.68c0,.06-.09.18.09.53,0-.14-.14-.37-.09-.33l.68,1.7V44a18.16,18.16,0,0,1,.69,2.16c.05,0,.21.36.27.3.22.88.52,1.79.78,2.67.13.44.26.88.36,1.29a2.06,2.06,0,0,1-.07,1.08C96.27,51.35,96.28,51.49,96.3,51.55ZM81.57,56l.12,0,.08,0Zm.85,0a1.19,1.19,0,0,1,.6,0ZM59.09,11.17c-.43-.66-1.38-2.57-1.58-3l1.56,2.95S59.09,11.14,59.09,11.17ZM55.55,4.49c-.9.31-2,.67-2.55.9,0,0,0,0,0,0l2.55-.9L57.42,8c-.23-.32.49,1.24-.11.23C56.78,7,56.35,6.53,56,5.55l.38.46Zm-2.87,30a3.55,3.55,0,0,0,1.1.2c.4,0,.8.05,1.17.05.76,0,1.43,0,1.95-.07l.54,0c.18-.19,1.64-.15,1.56-.31a20,20,0,0,1,2.42-.05c.67,0,1.33,0,2,0l.5,0a.31.31,0,0,0,.22,0L65,34l1.6-.54c-.12.48,0,.62.21.48l.27-.54.3-.6-.12.67,0,.21s-.08,0-.17.28l.12-.51-.3.53-2.73,1c-1-.08-1.86.06-2.83,0-2.59-.17-5.85.5-8.48,0-1.93-.37-2.74-8-2.83-9.9a31.54,31.54,0,0,1,0-3.24,32,32,0,0,0,0,3.38c.08,1.24.24,2.54.45,3.81a24.25,24.25,0,0,0,.86,3.64A7,7,0,0,0,52,34.12a1.3,1.3,0,0,0,1.11.73,6.13,6.13,0,0,0,2.52,0,11.06,11.06,0,0,1-1.95,0c-1.53.3-2.12-1.69-2.55-3.35-.11-.42-.2-.84-.28-1.25l.08.2a1.16,1.16,0,0,0,0,.18c.13.55.3,1.24.55,2A4.08,4.08,0,0,0,52.68,34.52ZM67,35a14.45,14.45,0,0,0-.65,2.35H63.16a14.39,14.39,0,0,1-2.66-.22l5.77.14.57-2.47C66.62,36,67.13,34.16,67,35ZM51.2,53.11l0-.38c.06.22.13.54.2.88s.22.69.32,1a7.92,7.92,0,0,1,.35.89l.31.21c.4.58.62.73.62.81s-.06,0-.14,0a5.05,5.05,0,0,1-.79-1h0a7.78,7.78,0,0,1-1-2.83,69.69,69.69,0,0,1-.57-11c0-1.07,0-2,0-2.81l-.06-2,9.53.24L50.47,37c.06,1.32.09,2.82.09,4.22s0,2.82,0,4.2A52.64,52.64,0,0,0,51.2,53.11ZM49.61,71.75a.29.29,0,0,1,0,.14,15.59,15.59,0,0,1,0-2.37c0-.47-.15.88-.21,0,.11-.89,0-1.3.07-2l.11.39c0-.64.07-2.27,0-3,0,0,.06,0,.08.14Q49.67,68.41,49.61,71.75ZM10.1,50.19l0,0a5.59,5.59,0,0,1-1.27-.52Zm15.27.35-.14.15c.24-.34.72-1.21.83-1.28A6.35,6.35,0,0,1,24.8,51.3c-1.58,1.59-3.74,1.63-5.93,1.33l-.31-.05-.15-.09.94.13a8.6,8.6,0,0,0,3.48-.22A4.91,4.91,0,0,0,25.37,50.54ZM28.3,40.9a.19.19,0,0,0,0,.07s0,.05-.05,0a6,6,0,0,1,.56-1.63c-.1.34-.19.67-.28,1a4.22,4.22,0,0,0-.18.45v0A.94.94,0,0,1,28.3,40.9Zm20.86-7.22.77.12v.1a0,0,0,0,0,0,0l-.55,0S49.37,33.74,49.16,33.68Zm-.11,11.5c-.07-1,.05-1.54.13-.79,0,1.11-.12-.12,0,1.19l0-.63a16.6,16.6,0,0,0,.18,2.7c-.23,5.08.16,10.58-.17,15l.15,1.51c-.07.07-.16.23-.13,1,0-.27,0-.73.05-.63l0,3.39.08-.35c-.1,1.08.05,3-.12,4.19,0,0,.07.75.14.68-.09,1.67-.08,3.43-.09,5.13A4.76,4.76,0,0,1,47,81.19c.23-.11,0,.09,0,.17-.88.59-.24.09-.48.17.06.43-3.59,1.59-7.45,1.53a31.37,31.37,0,0,1-5.43-.54,16.93,16.93,0,0,1-2-.55c-.49-.23-.88-.36-1.07-.46.22.15.47.24.36.24a6.5,6.5,0,0,1-2.78-2.52,11.51,11.51,0,0,1-1.3-3.69,30.78,30.78,0,0,1-.44-3.91q-.18-1.95-.36-3.81c0,.53,0,.68,0,.74,0-.36,0-.73-.08-1.09,0,0,0-.16,0-.38-.1-.91-.2-1.8-.29-2.66a11.1,11.1,0,0,1,.1,1.33l-.18-1.86c0-.27,0-.56.08-.55-.19,0-.19-1.39-.28-2.42,0-.47,0-.92.05-1.39l-.05.71a3.24,3.24,0,0,1,0-.77,5.48,5.48,0,0,0-.1.88l0,0c0-1.07.11-1.24.17-2.35-.06-.12-.22.74-.29-.2.13.07.17-.74.3-.13a2.14,2.14,0,0,1,0-.68,1.41,1.41,0,0,0,0-.21c0-.09,0-.22-.07-.49v.45c0,.1-.05,0-.07-.12s0-.56,0-.76.05-.46.07-.67l-.46-.24c0-.29-.1-.72-.14-1.11.34,0,.61.07.64.17.57,0,.38-.1.13-.17l-.19-.07,1.81.18s0,0,0,0h.06l1.68.17c-.2,0-.38,0-.6,0a10.77,10.77,0,0,1-1.14-.2c-.19,0-.51,0-.15.14a15.1,15.1,0,0,0,3.33.17h0l1.43.15a4.66,4.66,0,0,1-1.56,0c.6.15.82.06,1.44.17l.88-.08-.56,0,0-.07,5.44.55s0,.09,0,.13h0a1.3,1.3,0,0,1,0-.13h.13l-.1.12h0l.1-.12.22,0a1.19,1.19,0,0,0-.08-.2l.11-.13h0l-.11.13-.06-.16.15,0-.17,0c-.51-1.12-1.52-1.17-3.27-1.25s-4.1-.18-5.77-2c0,0,0,0,.05,0-.16-.23-.37-.55-.57-.89s-.4-.75-.52-1a3.71,3.71,0,0,1,.25-.75c0-.27-.2.45-.09-.26a8.39,8.39,0,0,1,.53-1.53l0-.62a8.3,8.3,0,0,0,.66-2.37c-.39,1.37-.8,2.8-1.19,4.35.31-2.07,1-3.92,1.42-6,.13-1.07-.29,1-.38,1.08s0,0,0,0l.22-1L29,42.1l.22-1h0v0l.11-.49c.09-.15.29-.12.37-.54l.41-1.12c-.21-.09.32-2,.52-2.61v.08c0,.22,0,.2,0,.07a4.45,4.45,0,0,1-.31,1.66c-.16.86-.36,1.7-.57,2.55a5.53,5.53,0,0,0,.63-1.74c-.26.93.06-.66-.18.12.12-.89.61-2,.9-3.49-.07.28-.1.07-.07-.19.15-.52.32-1.23.48-1.93s.27-1.22.38-1.68a.08.08,0,0,1-.07,0l.09-.26,1.27.33c4,.84,9.46,1.5,12.79,2.3,1,.3-1.13-.05-.7.08a22.61,22.61,0,0,0,4,.14c-.24,3.18-.35,6.79-.4,10.66C49,45.43,49,45.82,49.05,45.18Zm.56,5.38v-.73c0,.42,0,.73,0,.89A.81.81,0,0,1,49.61,50.56Zm0-3a4.35,4.35,0,0,1,0-.6l0,.27Zm-20-8.17.19-.84.08.25C29.75,39.56,29.69,39.54,29.63,39.38ZM27.42,49.47s0,0,0-.07,0-.1,0-.08v.14c.21.32.44.89.66,1.28a3,3,0,0,0,.26.43,6.86,6.86,0,0,1-.7-1ZM27,76.9c0,.09.05.19.08.29Zm-.75-5.57c0-.3,0-.59-.05-.88a3.72,3.72,0,0,1,.06,1S26.23,71.37,26.23,71.33ZM24.81,54.86h0q0-.32,0-.66l.1.7ZM48.43,33.75c-1.24-.53-4.06-.43-5.39-1l5.56.89C47.78,33.51,49,33.79,48.43,33.75Zm-5.86-1.12L31.74,31l0-.07ZM31.63,31h0l-.05.19c0,.11-.07.21-.1.31l.05-.1-.15.66s-.05,0-.09.06l0-.21c0-.14.09-.28.14-.41a2.26,2.26,0,0,0-.12.28l.2-.88.11,0Zm-.43,1.46.06-.16A5.23,5.23,0,0,1,31,33.33ZM31,33.49c0,.17-.08.34-.11.51-.24,1-.47,2-.68,2.86l.09-.24a8.81,8.81,0,0,1-.52,1.91L31,33.46a.34.34,0,0,0,0,.17A.39.39,0,0,0,31,33.49ZM26.33,48.76c-.08.22-.17.43-.26.63L26,49.17C26.22,48.6,26.28,48.63,26.33,48.76Zm-8.88,3.61L17,52.22c.36.08.72.16,1.08.22,0,0,0,0,0,.05C17.86,52.45,17.65,52.42,17.45,52.37Zm-4.73-1.85.23.13Zm-.1-.08c-.16-.1-.3-.21-.45-.32l.22.07Zm11.6,7.27c0,.26,0,.52,0,.79-.05-.45-.09-.86,0-.85Zm.35,6.92a1.38,1.38,0,0,1,0-.71Zm0,1a.89.89,0,0,1,0-.18.45.45,0,0,0,0-.11ZM14.46,80.5a3.52,3.52,0,0,0-.42-.15l.83.15.32.1Zm.87.12s0,0,0,0l.27.05Zm3.31,1.14a12.89,12.89,0,0,1-2.2-.43Zm3,.57-.56-.08-.29-.08Zm-1,22.17h0Zm-.06.06h0l-.07,0,.06-.06Zm-.08.1a2.36,2.36,0,0,0-.2.34l.3.1s0,0,0,0l.1,0,0,.09,0-.07.08,0,0,.09-.27-.06-.34-.13-.1,0,.05-.09a2.47,2.47,0,0,1,.25-.38Zm.46.56.72.24-.78-.18A.34.34,0,0,1,20.94,105.22ZM49.66,62.84c0-.8,0-.92.07-.9,0,.83,0,1.67,0,2.5A8.33,8.33,0,0,1,49.66,62.84Zm.08-1.57,0,0c0-.83,0-1.31,0-1.91C49.75,60,49.75,60.64,49.74,61.27Zm0-5.94.09-.14c0,.47,0,.94,0,1.41C49.75,56.21,49.72,55.79,49.7,55.33Zm0-13.85c0-.21,0,2.83,0,5.5l0-.14c-.05-2.16-.07-8.4-.07-6.58-.17-.13-.05-1.11-.21-1.06-.06-2.05,0-3.48,0-4.89a1,1,0,0,0,.6-.19l-.06,9.38c0,3.78,0,7.62-.08,11.47C49.74,53.2,49.86,40.65,49.66,41.48ZM68.85,28.1h0l0,.07h0v.06h0l0,0h0l0-.07h0c0-.07-.07-.15-.1-.23l0-.18,0-.1.06.11Zm4.58-12.59,1.24,1.14A8.12,8.12,0,0,1,73.43,15.51ZM76,17.94l.27.26L76.1,18ZM74,33.1l.14-.05a2.56,2.56,0,0,1-1,.49l8.91-5.4C79.52,29.78,76.43,31.73,74,33.1Zm-1.72,5.58h0a.28.28,0,0,1,0-.09v0s0,0,0,0a3.19,3.19,0,0,1,.1,1.17L72.32,39Zm.49-4.89.4-.25,0,.19C72.82,34,72.79,33.91,72.81,33.79Zm-3.93-5.56v0Zm-.14-1.11h0l0,0h0Zm0,0h0ZM50.24,25.76c-.06-.64-.08-1.06-.09-1.16,0,.17,0,.39.06.62ZM50.43,18l-.07.1c0-.39.09-.79.13-1.19C50.48,17.2,50.45,17.56,50.43,18ZM50,21.68v-.09S50,21.65,50,21.68Zm.79,8.21-.09-.49a7.21,7.21,0,0,1,.2.87ZM50.64,7.53l0-1.32.94-.34c-.26.11-.54.21-.92.35v.59c0,.65,0,1,0,1.17Zm43,34.35c0-.1-.1-.22-.17-.39a1.6,1.6,0,0,1-.15-.4C93.42,41.35,93.52,41.62,93.63,41.88ZM89.25,34l.11.1.09.15S89.37,34.14,89.25,34Zm1,1.58-.12-.2.17.27Zm1.41,2.27,0,0c.07.12.14.24.2.37Zm2.22,4.73a3.45,3.45,0,0,1,.14.34l-.14-.34Zm1.32,3.54h0a6.19,6.19,0,0,1-.38-1.1C95,45.35,95.1,45.72,95.22,46.09Zm-.43-1.27c-.07,0,0,.5-.16.14s-.3-.64-.34-1l.19.16c-.1-.24-.28-.77-.43-1.18C94.3,43.53,94.55,44.17,94.79,44.82ZM84.73,27.52c-.32-.29.06.27-.17.09a1.67,1.67,0,0,0-.39-.63c-.32.2-.59.43-.93.65a2,2,0,0,1-1,.41l1.91-1.16ZM65.08,8.25l1.67,1.52c1.2,1.08,2.41,2.15,3.6,3.23,2.39,2.13,4.73,4.24,6.88,6.31-.76-.75-.75-.83-.71-.89l1.39,1.36c-.18-.15-.52-.46.1.29l1.42,1.42c.33.35.68.67,1,1-.32-.41-.64-.7-.87-1s-.37-.43-.52-.61c.41.41.82.82,1.22,1.25A3.88,3.88,0,0,1,81,23.3q0,.15.09.33a1.52,1.52,0,0,1,0,.79c.09-.05.22.64-.06,1.47a5.62,5.62,0,0,1-1.48,2.18c0,.1-.13.19-.19.29a10.4,10.4,0,0,1-2,1.32,10.41,10.41,0,0,0,1-.62,16.52,16.52,0,0,1-3.69,1.54c.65-.18,1.66-.5.77-.12a21.41,21.41,0,0,1-4.59.88c.5-.09,1-.16,1.59-.27a13.25,13.25,0,0,0-1.7.21c-.3-.59-.66-1.34-.53-1.34-.76-1.33-.23-.1-.25,0l-.21-.43L69.42,28c.16.4,0-.63-.07-1l-.26.09c.14.56.35,1.44.51,2l-.47-1h.09c0-.08-.09-.17-.14-.26l0,.05c0,.05,0,.06,0,0s.08.05,0-.21l-.06-.12L69,27.05h0c0,.13.07.28.1.42l-.19-.4.09,0v0l-.09,0h0v0l-4.46-9.67L62.3,12.81,61.45,11l-.56-1.15a5.4,5.4,0,0,0,.33-.46c-.21.25-.4.47-.37.38L63.15,7C63.79,7.37,64.47,7.83,65.08,8.25ZM63.16,6.94l.2-.25L64.75,8ZM76.59,30.08l.13-.06ZM32.4,27.31l.08-.3h.07c0,.13-.08.25-.13.37Zm0-1,.1.25,0,.14,0,.53c-.13-.3-.26-.61-.41-.94l1.5-2.67c-.18.54-.38,1.16-.48,1.6ZM8.79,49.67c-.17,0,.43.33,0,.21-.46-.29-.74-.22-1.1-.48l.26,0c-.36-.13-1.24-.55-1.66-.67a0,0,0,0,1,0,0Zm-3.07-1.2a5.65,5.65,0,0,1-.62-.24,2.56,2.56,0,0,1-.44-.18ZM3.29,54.11q0,.27-.09.51h0c0-.31.08-.54.1-.66C3.3,54,3.29,54.06,3.29,54.11ZM3,55.83s0,.13,0,.36V56Zm.63-4.61,0,0c0-.14,0-.28.07-.42C3.64,51,3.64,51.08,3.63,51.22ZM14.34,134a24.8,24.8,0,0,1-.55,2.42c-.25.77-.47,1.44-.57,1.71a37.12,37.12,0,0,0,1.08-4A.63.63,0,0,0,14.34,134Zm-3.23,9.51c-.5,1-1,1.95-1.3,2.57,0,0,0,0,0,0l.06-.14a46.72,46.72,0,0,0,3.29-7.55c-.09.49.62-1.55.25-.11-.29.78-.52,1.34-.69,1.87a8.24,8.24,0,0,1-.67,1.61l.19-.72C12,141.57,11.55,142.54,11.11,143.52ZM16,162.69a.77.77,0,0,0,0-.15A.77.77,0,0,1,16,162.69Zm0-.19,0-.07ZM11.44,161l.11.08c-.43-.13-.83-.26-1.21-.4C10.69,160.74,11.06,160.85,11.44,161ZM16,162.72v0Zm-3.21-.07-1.3-.35c.73.2,1.28.34,1.58.41ZM7.3,161.19c.06,0-.06,0-.37-.07L6.24,161l.51.1Zm.88-10.79c.14-.4.27-.8.4-1.21s.3-.91.46-1.37c-.15.47-.34,1.07-.63,1.91s-.38,1.14-.47,1.36C8,150.86,8.09,150.64,8.18,150.4ZM6.3,160.93l-.26,0-1.26-.32,0-.06Zm-1.54-.35-.07,0a2.81,2.81,0,0,0,0,.29c0,.09-.06.18-.08.26,0-.19,0-.37,0-.56l0-.07.14,0Zm-.29.54c0,.16,0,.32,0,.48l-.09.33,0-.49Zm-1.42,7.21a25,25,0,0,0,1.28-5.81l0-.45c0-.11.06-.22.1-.33,0,.68-.06,1.34-.14,2a24.91,24.91,0,0,1-.56,2.71c-.39,1.48-.61,2.27-.47,2-.07.16.22-.76.63-2.28a19.14,19.14,0,0,0,.54-2.68c.07-.51.09-1,.11-1.57l0-.62.09-.29c0,.41,0,.82,0,1.26a13.53,13.53,0,0,1-.22,2.17,40.07,40.07,0,0,1-1,4c-.69,2.29-1,3.66-.62,2.22.08.28-.43,2-.24,1.93-.72,4.11.17,6.8,1.9,9a10,10,0,0,1-1.82-4,12.7,12.7,0,0,1,.15-4.74c.33-1.63.88-3.3,1.42-5.06A21.2,21.2,0,0,0,5.29,162v-.31c0-.14,0-.07,0-.12l0-.08s0,0-.07.11a9.89,9.89,0,0,1-.15,2c-.08.31-.1.19-.06-.54,0-1.1.06-1,.09-1s0,0,0-.16v-.35l0-.27,0,.22v.2l0,.29c0-.23,0-.45,0-.66V161l.38.07.18,0,.37.08c.51.11,1,.2,1.48.28,2.72.79,5.53,1.54,8.33,2.27l.52.14.08-.52c.06-.45.17-1.27-.4-1.56a4.45,4.45,0,0,0-1.41-.53c-.85-.19-1.65-.35-2.45-.55A7.59,7.59,0,0,1,8,158.65a4.7,4.7,0,0,1-.65-4.22,33,33,0,0,1,1.4-4.21c.26-.92.46-1.82.74-2.7a6.75,6.75,0,0,0,.84-1.56c-.25.43-.58,1.18-.53,1,.41-.91.93-1.86,1.4-2.81s.86-1.93,1.3-2.89l-.33.57a48.2,48.2,0,0,0,2.47-7.45,5.05,5.05,0,0,1,.09-.69c0-.33.06-.65,0-.58a34.89,34.89,0,0,0,.61-9.58,61.22,61.22,0,0,0-1.36-8.7c.07.48-.11,0-.19-.19-.56-2-.07-.49-.14-1-.15-.18-.7-2-1.67-4.46s-2.58-5.69-3.77-9.08-2.2-6.94-3-9.82-1.44-5.1-1.71-5.89c.13.49.26,1,.18.81-.32-1.13-.65-2.27-1-3.42-.09-.32-.19-.63-.29-.94-.1-.6-.19-1.18-.28-1.76,0-.11,0-.21,0-.32l21,4c-1.39-.27-1.36-.35-1.36-.42l2.49.48c-.23,0-1.09-.17.22.19l1.05.19c.16,1,.3,2,.45,2.89-.19-1.3-.26-2.11-.3-2.8l.12.89,0-.15.09.55.39,2.8a9.1,9.1,0,0,1,0,1.49c.2-.11.52,3.38.8,5.25l.17.46.5,3.55c-.11-.73-.22-1.45-.33-2.14,0,1.09.29,2.49.49,4.08-.05-.52-.05-.8.09,0,.15,1.77.42,3,.61,4.45-.42.13-.84.25-1.34.38l1.25-.44-.09-.58a1.54,1.54,0,0,0,0,.54l-.88.3a7.77,7.77,0,0,1-1.13.32c-.72.12-1.31,0-1.25,0-1.78-.14-.41.13-.17.21a13.27,13.27,0,0,1-2.28-.48c-.31-.09-.66-.19-1-.26,0,0,0,0,0,0h-.15a1.52,1.52,0,0,0-.91,0l0,0-.06,0,0,0a1.54,1.54,0,0,1,1,0l.13,0c.35,0,.92.12.28-.09a5.93,5.93,0,0,0-.66-.13,1.19,1.19,0,0,0-.79.08s-.05.06-.09.09h0v0a1.9,1.9,0,0,0-.37.52l-.1.18.19.06a28.69,28.69,0,0,0,4,1.15l0,0,2.55.85a16.44,16.44,0,0,1-2.8-.74c1.06.44,1.47.47,2.56.87l1.58.36-1-.3,0-.09,2.25.75.26,1a64,64,0,0,1,1.53,26.64s0,0,0,0c-.41,1.59-.89,5.16-1.08,5.71,0,.49.23-.88.07.45a28.31,28.31,0,0,1-.62,2.93l-.06,1.14a28.24,28.24,0,0,0-.8,4.5c.47-2.59,1-5.3,1.45-8.25l0,.21q-.72,4.44-1.39,8.91c-.12.74-.24,1.47-.35,2.23a1.54,1.54,0,0,0,0,.19c-.16,1.08-.32,2.18-.47,3.26a1.72,1.72,0,0,0-.25.78L27,159.79c.22.12-.43,3.68-.67,4.92v-.14c.06-.42.05-.38,0-.14a14.75,14.75,0,0,1,.4-3.11c.21-1.63.46-3.22.72-4.81a18.48,18.48,0,0,0-.75,3.35c.33-1.78-.09,1.21.2-.28-.18,1.75-.8,3.94-1.17,7,.14-1.1.18-.67.12-.09-.37,2-.83,5.3-1.11,7.33,0-.09.06-.08.08,0-.31,1.78-.39,2.31-.77,4.28-.24,1.49-.49,3.08-.75,4.72-.22,1.48-.45,3-.68,4.54l-.43.08c-.33.07-.63.11-.94.16-.62.11-1.24.15-1.86.2a19.58,19.58,0,0,1-3.61-.15,16.48,16.48,0,0,1-5.95-2c-.79-.52-.34-.31.22,0s1.28.56.94.37a21.22,21.22,0,0,1-5.82-3.59c-1-.82-1.28-.94-1.18-.5l.7.75s-.06.07.2.37c-.33-.34-.65-.7-1-1.07-2.61-3.21-2.62-6.57-1.95-9.78,0,.16,0,.32-.05.48,0-.2.05-.41.08-.64C2.34,170.73,2.7,169.51,3.05,168.33Zm27.38-28.74c0,.12-.05.25-.07.37s0,.13-.05.1a33.13,33.13,0,0,1,.68-3.82l0,.24c-.16.88-.29,1.77-.44,2.65l-.09.45v0Zm-12,50.17c-.45-.22-.71-.12-1.05-.32l.23-.05c-.34-.08-1.19-.37-1.59-.43,0,0,0,0,0,0l2.39.61C18.29,189.56,18.88,189.81,18.44,189.76ZM8.29,187.15l-.18-.05.25.06Zm-1.53-.38-.33-.05h.16Zm4.17.91,0-.06.4.1Zm-.78-1.07A43.54,43.54,0,0,0,15,188.28a18.23,18.23,0,0,1-9.41-4.67c1.49,1.28-.44-.54.45.17A12.08,12.08,0,0,0,10.15,186.61Zm5.72,1.81-.7-.11Zm-.36.38a3.9,3.9,0,0,1-.59-.14,2,2,0,0,1-.41-.12Zm4.19,1.07,0,0a4.41,4.41,0,0,1-1.22-.33Zm3.83-3.19-.19,1.3-1.3.25a19.85,19.85,0,0,1-5.69.24,22.44,22.44,0,0,0,7-.52c1.09-7.8,2.2-16.06,3.29-22.87-.29,2.07-.59,4.13-.88,6.23Q24.65,178.9,23.53,186.68Zm3.19-22.62c.05-.49.18-1.33.31-2.08-.1.65-.19,1.31-.28,2Zm.58-4,0-.12a10.4,10.4,0,0,1,.21-1.22C27.43,159.19,27.36,159.64,27.3,160.08ZM2.2,188.59c-.31.73.33,2.21,0,3-.07-1-.12-2-.16-3.07C2.08,189,2.13,188.27,2.2,188.59Zm1.66,12.55V201a3.11,3.11,0,0,1,.28,1,37.26,37.26,0,0,1-1.95-10.33c.15,1.53.35,3.2.62,4.82A42.17,42.17,0,0,0,3.86,201.14ZM8,207.77c-.13-.1-.25-.22-.37-.33s-.17-.23-.26-.34,0,0,0,0a3.75,3.75,0,0,1,.8.85Zm-3.88-5.72.18.07c.17.38.11.41,0,.37Zm23.08,6.66a1.12,1.12,0,0,1,0-.16.34.34,0,0,1,0-.1ZM67.38,57.89s0,0,0,0c.61-.22,1.49-.46,2.17-.77a5.76,5.76,0,0,0,.8-.42,7.37,7.37,0,0,1-1.58.86A12.44,12.44,0,0,1,67.38,57.89Zm3.87-2a6.58,6.58,0,0,1-.64.56s0,0,0,0a10.12,10.12,0,0,1-2.33,1.13,7.14,7.14,0,0,1-1.93.38c-.37.1.72,0-.32.19a10.6,10.6,0,0,1-2.37,0l-.9.13c-.14-.21-1.86,0-3.67,0,1.25,0,2.55,0,3.9,0a23.43,23.43,0,0,0,3-.12,26.62,26.62,0,0,1-4.62.25,27.42,27.42,0,0,1-4.69-.18c-.77-.11-.41,0,.18.11s1.4.15,1.48.18h-.06a13,13,0,0,1-1.51-.14l-.27,0A9.91,9.91,0,0,1,55,57.93h0l-.08,0a5.71,5.71,0,0,1-.67-.3c-.18-.17-.12-.33-.61-.67a4.1,4.1,0,0,1-.58-.6L52.82,56l-.21-.36s-.2-.1-.36-.33a4.74,4.74,0,0,1-.48-1,5.85,5.85,0,0,1-.32-1.21c-.07-.39-.11-.75-.13-1l0,.1c0,.36,0,.32,0,.1.08.24.17.51.27.84s.26.9.42,1.46a5.71,5.71,0,0,0,2.34,2.52L54.24,57a10,10,0,0,1-1.45-1.59c.7,1.08-.57-.66,0,.26a4.64,4.64,0,0,1-.92-2c-.16-.85-.27-1.89-.44-3.11.12.87,0,.55-.1.09-.12-1.6-.28-4.22-.28-5.84,0,.07,0,.07-.07,0,0-1.44.05-1.86.15-3.46,0-.71,0-1.45,0-2.2V37.65l7.09.2c2.56.08,5,.17,6.9.32l.55,0c.12,0,.14,0,.07,0H65c-.53,0-1.18,0-.85,0l1.1,0H67c.09-.46.18-.9.26-1.33l.06-.31,0-.17,0-.32c0-.39.1-.76.15-1.1.08-.66.12-1.16.13-1.52l.08-4.05-1.13,3.64a2.27,2.27,0,0,0-.07.28l-1.71.53-.83.26s0,0-.08,0l-.23,0h-.53c-.69,0-1.31,0-1.93,0a19.15,19.15,0,0,0-2.14,0c-1.41,0-2.82.15-4.21.12-.35,0-.69,0-1-.06l-.5-.06L53,34s0,0-.1-.08a1.19,1.19,0,0,1-.21-.28,5.17,5.17,0,0,1-.41-.85c-.24-.57-.44-1.09-.21-.23a12.56,12.56,0,0,0,.57,1.24c.08.14,0,.17-.27-.22-.35-.63-.28-.64-.27-.63s0,0-.31-.88c.07.29.15.57.24.85-.61-1.69-.8-2.66-1.13-3.72a42.05,42.05,0,0,1-.48-5.63,49.55,49.55,0,0,1,.35-5.7,44.49,44.49,0,0,0,.26-5.61c0-1.8,0-3.54,0-5.18L51,6.49l.38-.19L52,6c.13,0,.39,0,1.41-.37a5.62,5.62,0,0,1-.9.27l2.89-1L56,6.07l-.17-.49C56.49,7,58,9.53,58.66,11.11c.05,0,.59,1,.6.82,2.19,4.46,5,9.22,6.71,13-.13-.37.1,0,.19.1.77,1.44.13.37.26.73a10,10,0,0,1,1,1.71c-.06.28-.13.56-.2.85l.22,0,.12-.57.11.2c0,.11,0,.24,0,.35l.22,0,0,.07-.27,0a.13.13,0,0,0,0,.06l.31,0,.15.28.26.47.12-.52,0-.09.42.86a10,10,0,0,0,.51,1.86v0l.4,2.1a10.35,10.35,0,0,1-.6-2.23c.08.91.25,1.2.38,2.12L70,34.4l-.18-.8,0-.07,3.36,17.56a2.68,2.68,0,0,1,0,1.39A8.17,8.17,0,0,1,71.25,55.92Zm-38-31.19c0-.16,0-.29.05-.46a7.28,7.28,0,0,1,.37-.84,1.34,1.34,0,0,0,0-.2l.22-.38c-.07.19-.13.39-.2.58h0v.06l-.41,1.23Zm-31.56,40c0,.49.14-.27.18.08-.36.8.3,2.39.06,3.26A16.75,16.75,0,0,1,1.73,64.74Zm2.14,8.39a16.48,16.48,0,0,0,3.28,3.94L7.06,77a3.94,3.94,0,0,1,.87.79A15.06,15.06,0,0,1,2,68.19,16.23,16.23,0,0,0,3.87,73.13Zm1,87.2,0,.06-.14,0,0-.06ZM24,233.13l-.27-.1c.32.29,1.05,1.1,1.45,1.4h0c-.73-.69-1.46-1.38-2.17-2.09.16.09-.31-.51.11-.18C23.47,232.65,23.78,232.73,24,233.13Zm1.64,1.76a5,5,0,0,1,.56.5,1.9,1.9,0,0,1,.38.36C26.3,235.47,26,235.18,25.68,234.89Zm-3.78-3.7A7.19,7.19,0,0,1,23,232.3l-1.05-1.08ZM11.06,211.86a1.7,1.7,0,0,1-.79,0Zm1.09,0-.2,0-.12,0Zm23.64-19h-.07c-1.06-.15-1.62-.25-1.9-.31Zm0,0,.49.07v0l-.49-.08Zm.56.08h0v0h0Zm.06,0,.19,0c0-.06,0-.12,0-.19h0c0,.07,0,.13,0,.2v0h0l-.2,0Zm.18-.21h0v0Zm0-.07h0a5.16,5.16,0,0,0-.23-1.3A4.84,4.84,0,0,1,36.62,192.72ZM26.86,84.48l-.12-.79,2.08.13a15.79,15.79,0,0,1-2.06-.09c0,.22.06.48.1.77Zm5.94-.4-.75,0-.38,0ZM66.72,8.26l-.28-.19L66.32,8l.33.23ZM36.77,243.49q-2.67-1.77-5.14-3.65c.7.52,1.57,1.15,2.45,1.74a21.21,21.21,0,0,0,3.62,2.24c.09.09-1.25-.79-2.57-1.69l-.47-.33.07,0c1.22.74,4.74,3,3.72,2.34.17-.1.65.36.71.2l.69.42c.28.49.52.9.73,1.21Zm3.12,1.31.16.1C40.08,245.13,40,245,39.89,244.8Zm1.34.79c-.27-.93-1.19-2.17-1.18-3.05l1.34,3.17ZM27.14,198.47c.1.69.21,1.4.31,2.17l0,.2C27.31,200,27.22,199.25,27.14,198.47ZM29.8,212.1c.15.59.3,1.16.44,1.7-.43-1.58-.67-2.56-.64-2.45Zm2,7s.2.55.49,1.4l-.21-.54C32,219.64,31.88,219.36,31.79,219.07ZM48.4,243.74c.33-3.2-.21-10,.2-13.39l0,13.66C48.53,242,48.45,245.17,48.4,243.74Zm.08,2.3s.08,0,.1-.52v1.1l-.09-.08C48.49,246.37,48.48,246.2,48.48,246Zm.1.59v.75l-.07,0c0-.26,0-.52,0-.77Zm1.8-47.79c-.08-1.21-.16-2.37-.22-3.44l-.08-1.47,1.79-.52-1.78.53c.13,2.15.3,4.58.44,7.07C50.48,200.27,50.43,199.54,50.38,198.84Zm.53,6.47c0-.11.05.51.12,1.6l-.08-.8C50.93,205.85,50.92,205.58,50.91,205.31Zm0-13.58v-1.67c0,.45,0,1,0,1.65l1.2-.23.76-.14Zm9.63-26.28,0-.17.08,0-.05.28ZM51.51,81.66a26.94,26.94,0,0,1,0,3.14Zm0-4.24c0,.13,0,.37,0,.8,0,.15,0,.28,0,.42ZM76,78.34l-.08-1.44.16.38C76.18,78.57,76.11,78.57,76,78.34Zm-.93-19.58h.08v.07h-.08Zm.14,0,13.34-.83-13.34.89Zm23.32-1.44c-.66.06-.51.08-.33.1s.48,0,0,.1a11,11,0,0,0-1.91,0c-.78,0-1.64.12-2.5.2a26.83,26.83,0,0,1-4.6.16ZM100,72.77c.07-1,.12-2,.14-2.93C100.16,70.78,100.11,71.76,100,72.77Zm.16-3.87v0Zm-1,10.91c.16-1,.29-2,.41-3C99.54,77.82,99.4,78.81,99.24,79.81Zm.5-3.69c.1-.9.18-1.79.25-2.69C99.92,74.31,99.84,75.21,99.74,76.12Zm-.88,5.93c-.06.33-.14.66-.21,1,.19-1,.38-1.92.53-2.88C99.08,80.79,99,81.41,98.86,82.05ZM72.8,13q-2.55-2.13-5.31-4.12l-.12-.11c2.15,1.57,4.19,3.15,5.49,4.24C72.86,13,72.84,13,72.8,13ZM50.55.21a9.4,9.4,0,0,1,1.19.08,18.58,18.58,0,0,1,5.49,1.79,46.84,46.84,0,0,1,4.31,2.55c-.61-.35-1.24-.66-1.86-1,.77.45,1.85,1.11,3,1.89l0,0c-1.45-.93-2.92-1.84-4.44-2.72a18,18,0,0,0-6-2.27c.63.08-.36-.15-1.18-.25-.46,0-.87-.08-.88-.1A1.17,1.17,0,0,1,50.55.21Zm-2,2.44c0-.68,0-1.35,0-2V.45a1.17,1.17,0,0,1,.22,0l.44,0c.29,0,.56,0,.81,0a12,12,0,0,1,1.85.15,13,13,0,0,0-3.29,0V9.59c0,.06,0,.14,0,.2C48.48,8.27,48.48,5.33,48.5,2.65ZM13.18,133.14c.05-.17.09-.32.14-.47-.09.35-.21.7-.32,1.05C13.06,133.54,13.11,133.36,13.18,133.14ZM.47,187.81c0-.33,0-.66,0-1C.43,187.15.45,187.48.47,187.81Zm41.26,58.94-.11-.22s.07,0,0-.18l.21.48ZM40,242.32c-1.51-3.45-3.31-7.55-4.55-10.69l0,.17a4.26,4.26,0,0,1-.44-1.25ZM28.22,205.78c.06.34.14.69.21,1.06a108.61,108.61,0,0,0,3,11.56,94.93,94.93,0,0,0,4,10.63c.58,1.36,1.11,2.41,1.46,3.07s.48.9.4.68-.65-1.24-1.41-2.93c-.87-1.95-2-4.66-3-7.44-.24-.66-.46-1.33-.68-2l.14.3c.6,1.73,1.62,4.56,2.81,7.3a73.9,73.9,0,0,0,3.57,7.33,6.8,6.8,0,0,1,.8,1.21c.34.52.64,1,.68.89a36.14,36.14,0,0,0,4.27,5.66,44.78,44.78,0,0,0,3.48,3,8.5,8.5,0,0,0,.13.86l-2.53-2C38.59,239.34,31.27,222.08,28.22,205.78Zm27.41,40.74c1.46-3,4.11-7.7,5.4-10.07l-3.24,6.18c-.41.73-.81,1.46-1.2,2.17l-.26.48,0-.05,0,.07c-.18.33-.35.64-.52,1S55.61,246.59,55.63,246.52Zm-1.23,3.75L55,250c-.19.08-.39.18-.59.25Zm5.94-3.07c-1.24.71-2.5,1.35-3.8,2.06-.44.24-.87.46-1.31.66,1-.49,2-1.09,2.88-1.57l1.86-1,1.79-1.1.21-.13h0l1.26-.77.08.08Zm30.29-29.14,0,0h0S90.63,218.07,90.63,218.06Zm1.18-1.79-.6,1-.28.44s0-.06,0-.09h0c.7-1.16,1.36-2.34,2-3.55l-.3.77Zm5-11.55c0,.13-.09.27-.13.41l.47-1.32c-.26.81-.62,1.94-1,3.16l-1.53,3.57a23.58,23.58,0,0,1-1.27,2.57l0,0A65.81,65.81,0,0,0,96.82,204.72Zm-10,12.45c-3.18-.21-7-.46-9.82-.78l.15.05a3,3,0,0,1-1.11-.17ZM68.87,214.5a12.18,12.18,0,0,1-6.29,3.14c-2.56.55-6.25,1-8.79-1s-2.89-5.76-2.94-8.4c0-.79,0-1.57-.06-2.35,0,.62.07,1.26.1,1.87a22,22,0,0,0,.46,4.41,8.34,8.34,0,0,0,1.58,3.45,5.89,5.89,0,0,0,2.3,1.72c1.48.56,2.32.49,1.92.44a4.87,4.87,0,0,1-.76-.13,6.52,6.52,0,0,1-2.34-1.07,6.67,6.67,0,0,1-2.19-3.08,14.81,14.81,0,0,1-.78-4.44c0-.78-.07-1.55-.1-2.31l.06.41c0,.11,0,.22,0,.34.08,1,.06,2.23.28,3.58a9.79,9.79,0,0,0,1.42,4A5.83,5.83,0,0,0,56,217.43a10,10,0,0,0,3.3.32c.88-.05,1.49-.16,1.69-.18s0,0-.76.1c.31-.17,2.79-.52,2.61-.68A11.13,11.13,0,0,0,69,213.36a12.56,12.56,0,0,0,2.43-5.46,12.32,12.32,0,0,1-2.71,5.63,10.9,10.9,0,0,1-5.71,3.14,14,14,0,0,1-6.91.2A5.25,5.25,0,0,1,53.49,215a8.16,8.16,0,0,1-1.36-3.23c-.24-1.08-.38-2.06-.22-.48a14.89,14.89,0,0,0,.71,2.45c.13.37,0,.29-.35-.55a6.17,6.17,0,0,1-.33-1.1c0-.15,0-.13,0-.12s0,0-.28-1.63c0,.52.11,1,.2,1.55a24.41,24.41,0,0,1-.43-3.87c-.09-1.09-.18-2-.3-3-.08-1.84-.15-3.69-.23-5.55l-.33-5.2,14-4.23.46-.13-.23-.41a5.58,5.58,0,0,0-.55-.82,1.37,1.37,0,0,0-.43-.33,1,1,0,0,0-.54,0,3.13,3.13,0,0,0-.52.16l-.41.17-.74.39a11,11,0,0,1-3,1c-2.06.35-4.17.57-6.14.89l-.41.1-.26.07-.56.15,0-.68-.05-1a8.6,8.6,0,0,0,.11-2.53c0,.7,0,1.9,0,1.64,0-2.94,0-5.87,0-8.8l-.09.91c.06-1.4.06-3.37.07-5.37,0-1,0-2,0-2.94a2.63,2.63,0,0,1,1-2,3.31,3.31,0,0,1,.64-.65c.34-.29.69-.53.59-.51,1.21-.75,2.57-1.36,3.86-2l4-2.05.31-.16-.24-.27a2.26,2.26,0,0,0-.59-.49l-.05.25,0,0,0,0,.05-.27h0l0-.15-.2.1a.83.83,0,0,0-.56,0,4.59,4.59,0,0,0-1.27.65c-.75.49-1.44,1-2.19,1.41a4.39,4.39,0,0,1-2.33.6,3.22,3.22,0,0,1-1.14-.27l-1-.45c0-1.07,0-2.11,0-3.12s0-2.08.05-3.07c-.05.67-.09-.06-.12-.32,0-2.86,0-.68.11-1.35-.41-1.21,0-38.63-.25-43.27a5.06,5.06,0,0,1,0,1.15c-.09-13.44-.19-28.06-.28-40.91,0,2-.07,2-.14,2l0-3.53c0,.32.05,1.53.14-.35s0-3.88-.07-5.75c0,1.77,0,2.9-.08,3.82l0-5.73a17.22,17.22,0,0,1,.16-2.09c-.06,0-.09-.32-.11-.91s0-1.42,0-2.23l2.12-.14,2-.14.66-.16,5-.38-3,.26c1.48,0,3.37-.2,5.53-.35-.59,0-.81,0,.17-.1,3.25-.12,5.24-.45,8.26-.57l-2.87.27A15.12,15.12,0,0,0,71.4,59L73,58.86l1.26-.1c0,.47-.06.76-.12.75,0,.44,0,.73,0,.92s0,.27,0,.26a3.21,3.21,0,0,0,.09-.64,2.64,2.64,0,0,1,.06-.45l-.11,4.71s0,0,0,0,0,.13,0,.18l-.1,4.36c0-.51,0-1-.07-1.53s.1-2.72.16-3c0-.49-.07-1.29-.14-.36-.09,3.08-.2,7.83,0,8.66v-.06L74,76.33a31.78,31.78,0,0,1-.08-4c-.13,1.6,0,2.15-.11,3.78l.11,2.25V76.88l.07-.09-.17,7.12-1.09.47a7.63,7.63,0,0,1-4.87,0c-.73-.17-1.83-.42-2.1-.23a1.46,1.46,0,0,0-.39.71l7.78,2.69-.26,1.54c-.3,1.86-.57,3.74-.85,5.63-.49,3.41-1,6.91-1.74,10.38,0,0,0,0,0,0-.3,1.1-.77,2.86-1.15,4.47s-.63,3-.74,3.42c-.07.69.3-1.23,0,.63-.44,2.85-.43,2.41-.7,4.13,0,.53,0,1.06,0,1.59a23.58,23.58,0,0,0-.34,4.94c0,.5,0,1,0,1.56a79.53,79.53,0,0,1,1-11.64,85.51,85.51,0,0,0-.7,15.88c.15,1.38.12.72.06-.33s-.1-2.48-.06-2.62c0,0,0,.06,0,.08,0,.9.06,1.8.11,2.71,0,.22,0,.44,0,.64q.09,1.26.21,2.52s0,0,0,0a.51.51,0,0,0,0,.13c0,.44.08.88.13,1.32a4.12,4.12,0,0,0,0,1.57c.06,1,.19,2,.28,3.06a12.35,12.35,0,0,1,.63,2.79c.29,1.47.59,3.16.74,4,0,0,0-.13-.06-.19-.13-.6-.12-.53,0-.18a26.06,26.06,0,0,1-.92-4.29c-.45-2.28-.77-4.55-1-6.82a26,26,0,0,0,.42,4.87c-.33-2.52.34,1.67.08-.44.46,2.41.83,5.58,1.78,9.8-.34-1.52-.11-1,.07-.17.26,1.42.58,3.25.91,5.08s.63,3.68.82,5.09c0-.12,0-.12.06-.08.3,2.5.43,3.24.65,6,.52,5.21,1,11.39,1.07,17.38a108.85,108.85,0,0,1-.95,16.12c-.45,2.73.2-2.88,0-1.76-.38,5-.77,8.17-.94,10s0,2.23.26,1.71c.08-.48.15-.95.23-1.42,0,.06.07,0,.2-.52-.12.65-.23,1.31-.36,1.95A12.2,12.2,0,0,1,68.87,214.5Zm3.67-10.33c.21-.84.4-1.91.59-3.11s.28-2.54.42-3.88.21-2.69.31-3.93a30.73,30.73,0,0,1,.35-3.23,124.75,124.75,0,0,1-1.57,14.7C73,202.17,72.35,205.73,72.54,204.17Zm1.68-14.52c.14-3.61.14-7.39,0-11.24s-.48-8-.91-12c-.89-7.95-2.25-15.66-3.6-22.22l.1.67c-.19-.79-.49-2.26-.68-3.42a14.4,14.4,0,0,1-.21-1.66c.25,1.48.53,3,.85,4.49C73.36,161.19,74.83,176,74.22,189.65Zm25.66-14.28c.17,2.2.4,5,.42,8.35-7,2-15.29,4.56-20.41,5.73l20.34-5.79a68.88,68.88,0,0,0-.55-8.37C100.15,178.58,99.46,172.38,99.88,175.37ZM95.25,89.59c.51-2.08,1.1-4.6,1.63-7.08.6-2.84,1.23-5.61,1.53-7.6a10.12,10.12,0,0,0,.2-2.84,17.59,17.59,0,0,1-.2,2.2c-.17,1.44-.63,3.39-1,5.35-.1.47-.21.93-.31,1.38v-.19c.25-1.23.66-3.24,1-5.24a36,36,0,0,0,.47-5.52c-.17-.22,0-1.84-.2-1.75,0-1.9-.14-3.48-.15-4.93s0-2.74,0-4.08c-.33,5.56.46,11.87-1.17,18.34-.13.75-.22,1.41,0,.38.29-1.69.57-2.51.4-1.27-.33,1.82-.08-.22-.43,1.93l.26-1a44.83,44.83,0,0,0-.75,4.44c-2,8.19-3.94,17.17-6.85,23.91L89,108.39c-.11.09-.29.31-.7,1.48a5.91,5.91,0,0,1,.42-1c-.69,1.76-1.34,3.54-1.86,5.36l.24-.54a61,61,0,0,0-1.67,6.81s-.09,1.27,0,1.15a31.66,31.66,0,0,0-.09,8.59A41.11,41.11,0,0,0,87.06,138c-.09-.43.1,0,.18.15.68,1.71.1.43.21.86a6.47,6.47,0,0,1,.6,1.16c.31.66.79,1.58,1.31,2.64s.87,2.43,1.39,3.83a25.36,25.36,0,0,1,1.18,4.5,7.2,7.2,0,0,1-.59,4.52,6.11,6.11,0,0,1-3.14,2.64A26.06,26.06,0,0,1,83,159.58c.44-.05.89-.11.74-.05l-8.1,1.08-.34-.9c-.13-.36-.25-.72-.37-1.08l-.73-2.16-.72-2.15c-.21-.72-.41-1.45-.61-2.17-.41-1.44-.83-2.87-1.12-4.3s-.7-2.81-.9-4.2c.2,1.25.12,1.25.06,1.28-.14-.74-.28-1.48-.4-2.21,0-.42.25,1.27.12-.27-.13-.75-.26-1.5-.39-2.23s-.2-1.46-.3-2.17c.22,1.75.31,2.67.37,3.42-.2-1.23-.37-2.47-.51-3.69a12.76,12.76,0,0,1,0-1.51c-.25.09-.31-3.05-.43-4.72l-.14-.45c-.07-1.33-.1-2.64-.11-3.95,0,.91.06,1.83.09,2.7.15-1.16-.07-2.74,0-4.53,0,.76,0,2-.13.87.17-2.08,0-3.37.2-5.3,0,.61,0,1.23,0,1.85.1-.25,0-3.87.29-3.75,0-1.88-.18.1-.23-.14.06-1,.15-2,.24-3,0,0,0,0,0,0s0-.13,0-.16c.08-.92.18-1.84.29-2.76,0,.34,0,.64,0,1s-.21,1.74-.28,1.91,0,.84.13.25c.1-1,.23-2.23.32-3.3a13.23,13.23,0,0,0,.15-2.23c0,.11,0,.2-.06.31.12-.89.24-1.78.38-2.66a15.06,15.06,0,0,1-.18,2.59c.22-1,.17-1.36.35-2.39l.08-1.45-.13.92-.08,0a187,187,0,0,1,4.31-19.71l.25-.91,3-1.14,2.57-1s0,0,0,0c.54-.15,1.31-.43,2.09-.71l1.13-.42.52-.19.45-.28L85,83.5l-.1-.16a6.81,6.81,0,0,1-.46-.76c-.29-.34.39.73-.23-.09l-.14.05c-1,.35-1.29.44-1.59.53s-.5.11-1,.27l-.91.46a4.56,4.56,0,0,0-1.45.41L77,85l1.14-.37L80.1,84l3.8-1.33c-1.31.55-2.46,1-3.7,1.43l-3.68,1.29c0-.7,0-1.33-.11-2.17-.2-1.75,0,1.68,0,1.88,0,0,0,0,0,0l-.09-1.64c0-.14,0-.28,0-.42l-.1-1.7s0,0,0,0a.19.19,0,0,0,0-.08l0-.85c0-.27.24-.31.19-1l0-2c-.23-.07-.29-3.3-.3-4.44,0,0,0,.09,0,.13,0,.38,0,.34,0,.12a12.4,12.4,0,0,1,.22,2.8c.1,1.46.18,2.9.23,4.34a13.82,13.82,0,0,0,.07-3.07c0,1.62-.14-1.07-.14.28-.16-1.56,0-3.59-.23-6.37.08,1,0,.62-.1.1,0-1.83-.23-4.79-.32-6.62,0,.08,0,.08-.07,0,0-1.62-.06-2.09-.05-3.89,0-.33,0-.66,0-1v-.39h.53l1.26-.07,2.57-.14,5.21-.31c3.43-.2,6.7-.38,9.26-.42,1.79,0-1.85.24-1.11.26l3.21-.36.65-.09a3,3,0,0,0,.46-.07l.34-.12c0,.11.09.24.14.4a3.84,3.84,0,0,0,.16.71c.11.31.22.32.35.1s0-.61,0-.91c0,0,.07,0,.1-.36l0,1.27c0,1.5,0,3.08.08,4.76a52.28,52.28,0,0,1-.62,12.39C97.33,80.76,96.36,85.17,95.25,89.59Zm3.17-5.45c-.19.92-.4,1.84-.63,2.77C98,86,98.23,85.06,98.42,84.14Zm-4,14.61c.19-.55.37-1.1.54-1.64.12-.31-.28,1-1,3.25ZM81,20.7c1.49,1.63,2.32,2.57,2.73,3.11l.06.08a84.47,84.47,0,0,0-7-7.43C77.87,17.44,79.21,18.74,81,20.7Z" stroke="#000" stroke-miterlimit="10" stroke-width="0.15"/>
      <path d="M2,172.61c0,.22-.05.42-.06.61C1.94,173,2,172.82,2,172.61Z" stroke="#000" stroke-miterlimit="10" stroke-width="0.15"/>
      <path d="M88.67,136l0-.05V136Z" stroke="#000" stroke-miterlimit="10" stroke-width="0.15"/>
      <polygon points="100.3 185 100.14 185.58 100.28 185.6 100.3 185" stroke="#000" stroke-miterlimit="10" stroke-width="0.15"/>
      <path d="M83.62,228.13l-.22.31c-1.85,2.09-4.31,4.69-6.93,7.12l.2-.17A80.74,80.74,0,0,0,87,224.21l.54-.75-1.08,1.37C85.69,225.68,84.8,226.69,83.62,228.13Z" stroke="#000" stroke-miterlimit="10" stroke-width="0.15"/>
    </g>
  </g>
</svg>
