<svg xmlns="http://www.w3.org/2000/svg" viewBox="0 0 92.91 962.77">
  <defs>
    <style>
      .cls-1 {
        fill: gray;
      }
    </style>
  </defs>
  <g id="Layer_2" data-name="Layer 2">
    <g id="Layer_1-2" data-name="Layer 1">
      <g>
        <path class="cls-1" d="M25.47,5.67,20.1,22.77h-.27l-6-17.94a5.06,5.06,0,0,0-2.55-3.15V1.47H17.1v.21c-1.32.54-1.74.87-1.74,1.5a5,5,0,0,0,.33,1.38l4.59,13.65L24.75,3.72a4.52,4.52,0,0,0-1.95-2V1.47h5.82v.21c-1.32.54-1.86.87-1.86,1.5a5,5,0,0,0,.33,1.38L31.5,18.42,35.94,4.56a3.5,3.5,0,0,0,.24-1.2c0-.63-.6-.93-2-1.68V1.47h5.58v.21a5,5,0,0,0-2.55,3.15L31.35,22.77h-.27Z"/>
        <path class="cls-1" d="M53.31,19.26c0,2,.45,2.22,1.74,3v.18H49.59v-.18c1.29-.81,1.74-1.05,1.74-3V13.32c0-2.1-.81-4.14-3.39-4.14s-4.59,2.07-4.59,5.67v4.41c0,2,.45,2.22,1.74,3v.18H39.63v-.18c1.29-.81,1.74-1.05,1.74-3V3c0-1.56-1-2.16-2.07-2.85V0h4.05V11.55a5.36,5.36,0,0,1,5.31-3.9c3,0,4.65,1.92,4.65,5.22Z"/>
        <path class="cls-1" d="M70.35,22.2a7.44,7.44,0,0,1-2.43.48c-1.68,0-2.55-1.08-2.55-3.24a5.53,5.53,0,0,1-5.25,3.33c-2.43,0-4.29-1.26-4.29-3.72,0-3.15,3.39-4.11,7.08-4.77l2.4-.42v-.93c0-3.06-1.08-4.11-3.54-4.11-1.89,0-3.06.9-3.06,2.4a2.49,2.49,0,0,0,.42,1.38,2,2,0,0,1-1.2.33,1.4,1.4,0,0,1-1.44-1.59c0-1.86,2.13-3.69,5.64-3.69s5.28,1.74,5.28,4.92c0,3-.09,5.19-.09,6.9s1,2.28,3,2.34Zm-7.41-6.9c-3.15.6-4.92,1.44-4.92,3.63,0,1.71,1.11,2.52,2.85,2.52,2,0,4.44-1.68,4.44-5.13V14.85Z"/>
        <path class="cls-1" d="M69.27,8.37C71.79,7.86,72.45,6,72.87,3h.81V8H79l-.15,1.14H73.68v9.54c0,1.71.9,2.64,2.43,2.64s2.64-1,3-3.27l.57.09c-.18,2.79-1.68,4.68-4.08,4.68a3.67,3.67,0,0,1-4-3.9V9.09h-2.4Z"/>
        <path class="cls-1" d="M29,112.84a5.55,5.55,0,0,1-5.4,3.93c-3.71,0-6.47-2.76-6.47-7.32,0-4.74,3.18-7.8,6.75-7.8A5.28,5.28,0,0,1,29,104.59V97c0-1.56-.95-2.16-2.07-2.85V94H31v19.26c0,2,.44,2.22,1.74,3v.18H29.08Zm0-5.07a4.5,4.5,0,0,0-4.67-4.71c-2.94,0-5,2.43-5,6.39,0,3.51,1.89,5.88,4.92,5.88,2.87,0,4.76-2.67,4.76-5.61Z"/>
        <path class="cls-1" d="M40.43,116.77c-4.14,0-7.11-3.18-7.11-7.56s3-7.56,7.11-7.56,7.11,3.18,7.11,7.56S44.56,116.77,40.43,116.77Zm0-13.89c-3.15,0-4.86,2.55-4.86,6.33s1.71,6.36,4.86,6.36,4.86-2.58,4.86-6.36S43.58,102.88,40.43,102.88Z"/>
        <path class="cls-1" d="M61.82,108.94H51c0,4,1.95,6.42,5.22,6.42a4.9,4.9,0,0,0,4.92-3.6l.6.21c-.63,3-2.67,4.8-6,4.8-3.81,0-6.9-2.67-6.9-7.32s3-7.8,6.75-7.8C59.45,101.65,61.82,104.35,61.82,108.94Zm-2.25-1.08c-.06-2.58-1-5-4.08-5-2.55,0-4.17,2-4.5,5Z"/>
        <path class="cls-1" d="M65.09,105.25c0,1.5,1,2.28,3.69,2.76,4,.69,5.34,2,5.34,4.32,0,2.73-2.29,4.44-5.32,4.44a8.2,8.2,0,0,1-4.37-1.29l-1,1.29h-.2l-.33-5.49h.39c1.4,2.82,3.23,4.29,5.54,4.29,2,0,3.42-.93,3.42-2.82s-1.41-2.4-4.1-2.88c-3.55-.63-4.83-1.86-4.83-4.14s2-4.08,4.79-4.08a7,7,0,0,1,4,1.26l1.08-1.26h.2v4.92h-.33c-1.19-2-2.76-3.75-5-3.75C66.13,102.82,65.09,103.84,65.09,105.25Z"/>
        <path class="cls-1" d="M53.79,210.2a7.44,7.44,0,0,1-2.43.48c-1.68,0-2.55-1.08-2.55-3.24a5.53,5.53,0,0,1-5.25,3.33c-2.43,0-4.29-1.26-4.29-3.72,0-3.15,3.39-4.11,7.08-4.77l2.4-.42v-.93c0-3.06-1.08-4.11-3.54-4.11-1.89,0-3.06.9-3.06,2.4a2.49,2.49,0,0,0,.42,1.38,2,2,0,0,1-1.2.33,1.4,1.4,0,0,1-1.44-1.59c0-1.86,2.13-3.69,5.64-3.69s5.28,1.74,5.28,4.92c0,3-.09,5.19-.09,6.9s1,2.28,3,2.34Zm-7.41-6.9c-3.15.6-4.92,1.44-4.92,3.63,0,1.71,1.11,2.52,2.85,2.52,1.95,0,4.44-1.68,4.44-5.13v-1.47Z"/>
        <path class="cls-1" d="M2.22,297.12c0,3.87,2,6.21,5,6.21a4.91,4.91,0,0,0,4.83-3.6l.57.24a5.58,5.58,0,0,1-5.88,4.8C3,304.77,0,302.1,0,297.45s3.21-7.8,7.14-7.8c3,0,5.16,1.59,5.16,3.63A1.6,1.6,0,0,1,10.53,295a1.4,1.4,0,0,1-.48-.06,3.25,3.25,0,0,0,.15-1.05,2.81,2.81,0,0,0-3.06-3C4.05,290.85,2.22,293.61,2.22,297.12Z"/>
        <path class="cls-1" d="M20.67,304.77c-4.14,0-7.11-3.18-7.11-7.56s3-7.56,7.11-7.56,7.11,3.18,7.11,7.56S24.81,304.77,20.67,304.77Zm0-13.89c-3.15,0-4.86,2.55-4.86,6.33s1.71,6.36,4.86,6.36,4.86-2.58,4.86-6.36S23.82,290.88,20.67,290.88Z"/>
        <path class="cls-1" d="M46.71,289.65c2.79,0,4.32,1.92,4.32,5.22v6.39c0,2,.45,2.22,1.74,3v.18H47.31v-.18c1.29-.81,1.74-1.05,1.74-3v-5.94c0-2.1-.6-4.2-3-4.2s-4.29,2.13-4.29,5.73v4.41c0,2,.45,2.22,1.74,3v.18H38v-.18c1.29-.81,1.74-1.05,1.74-3v-5.94c0-2.1-.6-4.2-3-4.2s-4.29,2.13-4.29,5.73v4.41c0,2,.45,2.22,1.74,3v.18H28.71v-.18c1.29-.81,1.74-1.05,1.74-3V293c0-1.56-1-2.16-2.07-2.85V290h3.93l.12,3.6c.84-2.46,2.58-3.9,5-3.9s4,1.44,4.26,4A5.18,5.18,0,0,1,46.71,289.65Z"/>
        <path class="cls-1" d="M71.55,289.65c2.79,0,4.32,1.92,4.32,5.22v6.39c0,2,.45,2.22,1.74,3v.18H72.15v-.18c1.29-.81,1.74-1.05,1.74-3v-5.94c0-2.1-.6-4.2-3-4.2-2.28,0-4.29,2.13-4.29,5.73v4.41c0,2,.45,2.22,1.74,3v.18H62.85v-.18c1.29-.81,1.74-1.05,1.74-3v-5.94c0-2.1-.6-4.2-3-4.2s-4.29,2.13-4.29,5.73v4.41c0,2,.45,2.22,1.74,3v.18H53.55v-.18c1.29-.81,1.74-1.05,1.74-3V293c0-1.56-1-2.16-2.07-2.85V290h3.93l.12,3.6c.84-2.46,2.58-3.9,5-3.9s4,1.44,4.26,4A5.18,5.18,0,0,1,71.55,289.65Z"/>
        <path class="cls-1" d="M92.91,304.2a7.44,7.44,0,0,1-2.43.48c-1.68,0-2.55-1.08-2.55-3.24a5.53,5.53,0,0,1-5.25,3.33c-2.43,0-4.29-1.26-4.29-3.72,0-3.15,3.39-4.11,7.08-4.77l2.4-.42v-.93c0-3.06-1.08-4.11-3.54-4.11-1.89,0-3.06.9-3.06,2.4a2.49,2.49,0,0,0,.42,1.38,2,2,0,0,1-1.2.33,1.4,1.4,0,0,1-1.44-1.59c0-1.86,2.13-3.69,5.64-3.69S90,291.39,90,294.57c0,3-.09,5.19-.09,6.9s1,2.28,3,2.34Zm-7.41-6.9c-3.15.6-4.92,1.44-4.92,3.63,0,1.71,1.11,2.52,2.85,2.52,1.95,0,4.44-1.68,4.44-5.13v-1.47Z"/>
        <path class="cls-1" d="M39.92,394.84a5.59,5.59,0,0,1-5.4,3.93c-3.73,0-6.48-2.76-6.48-7.32,0-4.74,3.17-7.8,6.75-7.8a5.31,5.31,0,0,1,5.13,2.94V379c0-1.56-1-2.16-2.07-2.85V376h4v19.26c0,2,.46,2.22,1.74,3v.18H40Zm0-5.07a4.51,4.51,0,0,0-4.69-4.71c-2.94,0-5,2.43-5,6.39,0,3.51,1.9,5.88,4.92,5.88s4.78-2.67,4.78-5.61Z"/>
        <path class="cls-1" d="M51.38,398.77c-4.14,0-7.11-3.18-7.11-7.56s3-7.56,7.11-7.56,7.11,3.18,7.11,7.56S55.52,398.77,51.38,398.77Zm0-13.89c-3.15,0-4.86,2.55-4.86,6.33s1.71,6.36,4.86,6.36,4.86-2.58,4.86-6.36S54.53,384.88,51.38,384.88Z"/>
        <path class="cls-1" d="M61.1,398.74A1.77,1.77,0,1,1,62.87,397,1.75,1.75,0,0,1,61.1,398.74Z"/>
        <path class="cls-1" d="M25.47,569.67l-5.37,17.1h-.27l-6-17.94a5.06,5.06,0,0,0-2.55-3.15v-.21H17.1v.21c-1.32.54-1.74.87-1.74,1.5a5,5,0,0,0,.33,1.38l4.59,13.65,4.47-14.49a4.52,4.52,0,0,0-1.95-2v-.21h5.82v.21c-1.32.54-1.86.87-1.86,1.5a5,5,0,0,0,.33,1.38l4.41,13.86,4.44-13.86a3.5,3.5,0,0,0,.24-1.2c0-.63-.6-.93-2-1.68v-.21h5.58v.21a5,5,0,0,0-2.55,3.15l-5.91,17.94h-.27Z"/>
        <path class="cls-1" d="M53.31,583.26c0,2,.45,2.22,1.74,3v.18H49.59v-.18c1.29-.81,1.74-1,1.74-3v-5.94c0-2.1-.81-4.14-3.39-4.14s-4.59,2.07-4.59,5.67v4.41c0,2,.45,2.22,1.74,3v.18H39.63v-.18c1.29-.81,1.74-1,1.74-3V567c0-1.56-1-2.16-2.07-2.85V564h4.05v11.55a5.36,5.36,0,0,1,5.31-3.9c3,0,4.65,1.92,4.65,5.22Z"/>
        <path class="cls-1" d="M70.35,586.2a7.44,7.44,0,0,1-2.43.48c-1.68,0-2.55-1.08-2.55-3.24a5.53,5.53,0,0,1-5.25,3.33c-2.43,0-4.29-1.26-4.29-3.72,0-3.15,3.39-4.11,7.08-4.77l2.4-.42v-.93c0-3.06-1.08-4.11-3.54-4.11-1.89,0-3.06.9-3.06,2.4a2.49,2.49,0,0,0,.42,1.38,2,2,0,0,1-1.2.33,1.4,1.4,0,0,1-1.44-1.59c0-1.86,2.13-3.69,5.64-3.69s5.28,1.74,5.28,4.92c0,3-.09,5.19-.09,6.9s1,2.28,3,2.34Zm-7.41-6.9c-3.15.6-4.92,1.44-4.92,3.63,0,1.71,1.11,2.52,2.85,2.52,2,0,4.44-1.68,4.44-5.13v-1.47Z"/>
        <path class="cls-1" d="M69.27,572.37c2.52-.51,3.18-2.37,3.6-5.34h.81V572H79l-.15,1.14H73.68v9.54c0,1.71.9,2.64,2.43,2.64s2.64-1,3-3.27l.57.09c-.18,2.79-1.68,4.68-4.08,4.68a3.67,3.67,0,0,1-4-3.9v-9.78h-2.4Z"/>
        <path class="cls-1" d="M29,676.84a5.55,5.55,0,0,1-5.4,3.93c-3.71,0-6.47-2.76-6.47-7.32,0-4.74,3.18-7.8,6.75-7.8A5.28,5.28,0,0,1,29,668.59V661c0-1.56-.95-2.16-2.07-2.85V658H31v19.26c0,2,.44,2.22,1.74,3v.18H29.08Zm0-5.07a4.5,4.5,0,0,0-4.67-4.71c-2.94,0-5,2.43-5,6.39,0,3.51,1.89,5.88,4.92,5.88,2.87,0,4.76-2.67,4.76-5.61Z"/>
        <path class="cls-1" d="M40.43,680.77c-4.14,0-7.11-3.18-7.11-7.56s3-7.56,7.11-7.56,7.11,3.18,7.11,7.56S44.56,680.77,40.43,680.77Zm0-13.89c-3.15,0-4.86,2.55-4.86,6.33s1.71,6.36,4.86,6.36,4.86-2.58,4.86-6.36S43.58,666.88,40.43,666.88Z"/>
        <path class="cls-1" d="M61.82,672.94H51c0,4,1.95,6.42,5.22,6.42a4.9,4.9,0,0,0,4.92-3.6l.6.21c-.63,3-2.67,4.8-6,4.8-3.81,0-6.9-2.67-6.9-7.32s3-7.8,6.75-7.8C59.45,665.65,61.82,668.35,61.82,672.94Zm-2.25-1.08c-.06-2.58-1-5-4.08-5-2.55,0-4.17,1.95-4.5,5Z"/>
        <path class="cls-1" d="M65.09,669.25c0,1.5,1,2.28,3.69,2.76,4,.69,5.34,2,5.34,4.32,0,2.73-2.29,4.44-5.32,4.44a8.2,8.2,0,0,1-4.37-1.29l-1,1.29h-.2l-.33-5.49h.39c1.4,2.82,3.23,4.29,5.54,4.29,2,0,3.42-.93,3.42-2.82s-1.41-2.4-4.1-2.88c-3.55-.63-4.83-1.86-4.83-4.14s2-4.08,4.79-4.08a7,7,0,0,1,4,1.26l1.08-1.26h.2v4.92h-.33c-1.19-2-2.76-3.75-5-3.75C66.13,666.82,65.09,667.84,65.09,669.25Z"/>
        <path class="cls-1" d="M53.79,774.2a7.44,7.44,0,0,1-2.43.48c-1.68,0-2.55-1.08-2.55-3.24a5.53,5.53,0,0,1-5.25,3.33c-2.43,0-4.29-1.26-4.29-3.72,0-3.15,3.39-4.11,7.08-4.77l2.4-.42v-.93c0-3.06-1.08-4.11-3.54-4.11-1.89,0-3.06.9-3.06,2.4a2.49,2.49,0,0,0,.42,1.38,2,2,0,0,1-1.2.33,1.4,1.4,0,0,1-1.44-1.59c0-1.86,2.13-3.69,5.64-3.69s5.28,1.74,5.28,4.92c0,3-.09,5.19-.09,6.9s1,2.28,3,2.34Zm-7.41-6.9c-3.15.6-4.92,1.44-4.92,3.63,0,1.71,1.11,2.52,2.85,2.52,1.95,0,4.44-1.68,4.44-5.13v-1.47Z"/>
        <path class="cls-1" d="M2.22,861.12c0,3.87,2,6.21,5,6.21a4.91,4.91,0,0,0,4.83-3.6l.57.24a5.58,5.58,0,0,1-5.88,4.8C3,868.77,0,866.1,0,861.45s3.21-7.8,7.14-7.8c3,0,5.16,1.59,5.16,3.63A1.6,1.6,0,0,1,10.53,859a1.4,1.4,0,0,1-.48-.06,3.25,3.25,0,0,0,.15-1,2.81,2.81,0,0,0-3.06-3C4.05,854.85,2.22,857.61,2.22,861.12Z"/>
        <path class="cls-1" d="M20.67,868.77c-4.14,0-7.11-3.18-7.11-7.56s3-7.56,7.11-7.56,7.11,3.18,7.11,7.56S24.81,868.77,20.67,868.77Zm0-13.89c-3.15,0-4.86,2.55-4.86,6.33s1.71,6.36,4.86,6.36,4.86-2.58,4.86-6.36S23.82,854.88,20.67,854.88Z"/>
        <path class="cls-1" d="M46.71,853.65c2.79,0,4.32,1.92,4.32,5.22v6.39c0,2,.45,2.22,1.74,3v.18H47.31v-.18c1.29-.81,1.74-1,1.74-3v-5.94c0-2.1-.6-4.2-3-4.2s-4.29,2.13-4.29,5.73v4.41c0,2,.45,2.22,1.74,3v.18H38v-.18c1.29-.81,1.74-1,1.74-3v-5.94c0-2.1-.6-4.2-3-4.2s-4.29,2.13-4.29,5.73v4.41c0,2,.45,2.22,1.74,3v.18H28.71v-.18c1.29-.81,1.74-1,1.74-3V857c0-1.56-1-2.16-2.07-2.85V854h3.93l.12,3.6c.84-2.46,2.58-3.9,5-3.9s4,1.44,4.26,4A5.18,5.18,0,0,1,46.71,853.65Z"/>
        <path class="cls-1" d="M71.55,853.65c2.79,0,4.32,1.92,4.32,5.22v6.39c0,2,.45,2.22,1.74,3v.18H72.15v-.18c1.29-.81,1.74-1,1.74-3v-5.94c0-2.1-.6-4.2-3-4.2-2.28,0-4.29,2.13-4.29,5.73v4.41c0,2,.45,2.22,1.74,3v.18H62.85v-.18c1.29-.81,1.74-1,1.74-3v-5.94c0-2.1-.6-4.2-3-4.2s-4.29,2.13-4.29,5.73v4.41c0,2,.45,2.22,1.74,3v.18H53.55v-.18c1.29-.81,1.74-1,1.74-3V857c0-1.56-1-2.16-2.07-2.85V854h3.93l.12,3.6c.84-2.46,2.58-3.9,5-3.9s4,1.44,4.26,4A5.18,5.18,0,0,1,71.55,853.65Z"/>
        <path class="cls-1" d="M92.91,868.2a7.44,7.44,0,0,1-2.43.48c-1.68,0-2.55-1.08-2.55-3.24a5.53,5.53,0,0,1-5.25,3.33c-2.43,0-4.29-1.26-4.29-3.72,0-3.15,3.39-4.11,7.08-4.77l2.4-.42v-.93c0-3.06-1.08-4.11-3.54-4.11-1.89,0-3.06.9-3.06,2.4a2.49,2.49,0,0,0,.42,1.38,2,2,0,0,1-1.2.33,1.4,1.4,0,0,1-1.44-1.59c0-1.86,2.13-3.69,5.64-3.69S90,855.39,90,858.57c0,3-.09,5.19-.09,6.9s1,2.28,3,2.34Zm-7.41-6.9c-3.15.6-4.92,1.44-4.92,3.63,0,1.71,1.11,2.52,2.85,2.52,1.95,0,4.44-1.68,4.44-5.13v-1.47Z"/>
        <path class="cls-1" d="M39.92,958.84a5.59,5.59,0,0,1-5.4,3.93c-3.73,0-6.48-2.76-6.48-7.32,0-4.74,3.17-7.8,6.75-7.8a5.31,5.31,0,0,1,5.13,2.94V943c0-1.56-1-2.16-2.07-2.85V940h4v19.26c0,2,.46,2.22,1.74,3v.18H40Zm0-5.07a4.51,4.51,0,0,0-4.69-4.71c-2.94,0-5,2.43-5,6.39,0,3.51,1.9,5.88,4.92,5.88s4.78-2.67,4.78-5.61Z"/>
        <path class="cls-1" d="M51.38,962.77c-4.14,0-7.11-3.18-7.11-7.56s3-7.56,7.11-7.56,7.11,3.18,7.11,7.56S55.52,962.77,51.38,962.77Zm0-13.89c-3.15,0-4.86,2.55-4.86,6.33s1.71,6.36,4.86,6.36,4.86-2.58,4.86-6.36S54.53,948.88,51.38,948.88Z"/>
        <path class="cls-1" d="M61.1,962.74A1.77,1.77,0,1,1,62.87,961,1.75,1.75,0,0,1,61.1,962.74Z"/>
      </g>
    </g>
  </g>
</svg>
