<svg xmlns="http://www.w3.org/2000/svg" viewBox="0 0 91.52 1234.41">
  <defs>
    <style>
      .cls-1 {
        fill: gray;
      }
    </style>
  </defs>
  <g id="Layer_2" data-name="Layer 2">
    <g id="Layer_1-2" data-name="Layer 1">
      <g>
        <path class="cls-1" d="M14.53,18.07V.75h1.59V18.07Z"/>
        <path class="cls-1" d="M26.6,18.07V0h1.53V8.79A3.55,3.55,0,0,1,29.5,7.51,4.52,4.52,0,0,1,31.76,7a4.2,4.2,0,0,1,2.15.52A3.46,3.46,0,0,1,35.3,9a5.39,5.39,0,0,1,.48,2.37v6.71H34.25V11.65a3.74,3.74,0,0,0-.78-2.55,2.8,2.8,0,0,0-2.19-.88,3.3,3.3,0,0,0-1.69.4,2.87,2.87,0,0,0-1.08,1.05,2.72,2.72,0,0,0-.38,1.4v7Z"/>
        <path class="cls-1" d="M44.69,18.41A5.16,5.16,0,0,1,42,17.67a5.31,5.31,0,0,1-1.92-2,6,6,0,0,1-.71-3A6,6,0,0,1,40,9.76a5.19,5.19,0,0,1,1.91-2A5.1,5.1,0,0,1,44.69,7a5.16,5.16,0,0,1,2.65.69,4.55,4.55,0,0,1,1.81,1.88V7.32h1.53V18.07H49.15V15.8a5.25,5.25,0,0,1-1.86,1.91A4.92,4.92,0,0,1,44.69,18.41Zm.38-1.34a4,4,0,0,0,2.14-.56A3.9,3.9,0,0,0,48.67,15a4.7,4.7,0,0,0,.54-2.27,4.71,4.71,0,0,0-.53-2.26,3.85,3.85,0,0,0-1.47-1.55,4.1,4.1,0,0,0-5.75,1.55,4.61,4.61,0,0,0-.54,2.26A4.7,4.7,0,0,0,41.46,15a4,4,0,0,0,3.61,2.11Z"/>
        <path class="cls-1" d="M58.74,18.07,53.52,7.32h1.8l3.93,8.57,3.93-8.57H65L59.75,18.07Z"/>
        <path class="cls-1" d="M72.88,18.41a6,6,0,0,1-3-.75,5.51,5.51,0,0,1-2.09-2A5.64,5.64,0,0,1,67,12.74a5.66,5.66,0,0,1,1.65-4.09,5.76,5.76,0,0,1,1.8-1.23A5.61,5.61,0,0,1,72.67,7a5.67,5.67,0,0,1,2.84.7,5.29,5.29,0,0,1,2,1.93,5.72,5.72,0,0,1,.77,2.83v.21s0,.11,0,.19H68.54a4.33,4.33,0,0,0,.57,2.23,3.91,3.91,0,0,0,1.56,1.51,4.57,4.57,0,0,0,2.27.56,4.65,4.65,0,0,0,2.19-.51,4.38,4.38,0,0,0,1.62-1.47l1.13.61a5.25,5.25,0,0,1-2.08,1.94A6.09,6.09,0,0,1,72.88,18.41Zm-4.26-6.72h8.1A3.84,3.84,0,0,0,76,9.91a4.05,4.05,0,0,0-1.44-1.22,4.17,4.17,0,0,0-1.89-.44,4.25,4.25,0,0,0-1.93.44,3.85,3.85,0,0,0-2.14,3Z"/>
        <path class="cls-1" d="M6.2,50.07V39.32H7.73V40.9a3.76,3.76,0,0,1,1.33-1.43A3.57,3.57,0,0,1,11,39a4.64,4.64,0,0,1,1,.11,4,4,0,0,1,.84.27l-.63,1.29a3.38,3.38,0,0,0-.72-.24,3.48,3.48,0,0,0-.77-.08,2.83,2.83,0,0,0-1.41.37,3.38,3.38,0,0,0-1.07,1A2.2,2.2,0,0,0,7.73,43v7.1Z"/>
        <path class="cls-1" d="M20.49,50.41a6,6,0,0,1-3-.75,5.48,5.48,0,0,1-2.08-2,5.55,5.55,0,0,1-.76-2.89,5.7,5.7,0,0,1,3.46-5.32A5.53,5.53,0,0,1,20.28,39a5.64,5.64,0,0,1,2.84.7,5.31,5.31,0,0,1,2,1.93,5.82,5.82,0,0,1,.77,2.83,1.28,1.28,0,0,1,0,.21,1.76,1.76,0,0,1,0,.19H16.15a4.33,4.33,0,0,0,.57,2.23,4,4,0,0,0,1.56,1.51,4.92,4.92,0,0,0,4.46.05,4.49,4.49,0,0,0,1.63-1.47l1.13.61a5.32,5.32,0,0,1-2.08,1.94A6.13,6.13,0,0,1,20.49,50.41Zm-4.25-6.72h8.09a3.73,3.73,0,0,0-.7-1.78,4,4,0,0,0-1.43-1.22,4.18,4.18,0,0,0-1.9-.44,4.28,4.28,0,0,0-1.93.44,3.82,3.82,0,0,0-1.43,1.21A3.77,3.77,0,0,0,16.24,43.69Z"/>
        <path class="cls-1" d="M29.58,50.07v-9.6H28.5V39.32h1.08V35.46a5.37,5.37,0,0,1,.35-2,2.73,2.73,0,0,1,1-1.28,2.82,2.82,0,0,1,1.63-.44,3.59,3.59,0,0,1,1.11.16,2.76,2.76,0,0,1,.9.47l-.53,1.09A2,2,0,0,0,32.83,33a1.6,1.6,0,0,0-1,.29,1.65,1.65,0,0,0-.56.82,4,4,0,0,0-.18,1.27v3.9h2.74v1.15H31.12v9.6Z"/>
        <path class="cls-1" d="M41.31,50.41a4.64,4.64,0,0,1-3.49-1.11,5.24,5.24,0,0,1-1-3.68v-6.3H38.3v6a4.73,4.73,0,0,0,.69,2.9,2.81,2.81,0,0,0,2.32.87,2.81,2.81,0,0,0,2.33-.87,4.73,4.73,0,0,0,.69-2.9v-6h1.53v6.3a5.24,5.24,0,0,1-1,3.68A4.63,4.63,0,0,1,41.31,50.41Z"/>
        <path class="cls-1" d="M52.89,50.41a4.3,4.3,0,0,1-2.35-.65A4.23,4.23,0,0,1,49,47.93l.82-.88a4.1,4.1,0,0,0,1.31,1.6,3,3,0,0,0,1.79.57A2.76,2.76,0,0,0,54.1,49a2.31,2.31,0,0,0,.88-.79A2.15,2.15,0,0,0,55.31,47a1.52,1.52,0,0,0-.31-1,2.65,2.65,0,0,0-.9-.63c-.4-.18-.89-.38-1.48-.6a14.49,14.49,0,0,1-1.32-.62,3.54,3.54,0,0,1-1.06-.88,2.15,2.15,0,0,1-.41-1.35,2.53,2.53,0,0,1,.44-1.48,2.91,2.91,0,0,1,1.22-1A4,4,0,0,1,53.25,39a3.82,3.82,0,0,1,1.7.39,4.77,4.77,0,0,1,1.42,1.1l-.7.9a2.92,2.92,0,0,0-2.41-1.27,2.14,2.14,0,0,0-1.43.46,1.5,1.5,0,0,0-.55,1.21,1.24,1.24,0,0,0,.34.89,3,3,0,0,0,.91.61c.38.17.78.33,1.21.5.64.24,1.18.48,1.65.71a3,3,0,0,1,1.08.91,2.57,2.57,0,0,1,.39,1.5A3.22,3.22,0,0,1,55,50,4.84,4.84,0,0,1,52.89,50.41Z"/>
        <path class="cls-1" d="M65.55,50.41a6,6,0,0,1-3-.75,5.51,5.51,0,0,1-2.09-2,5.64,5.64,0,0,1-.75-2.89,5.66,5.66,0,0,1,1.65-4.09,5.76,5.76,0,0,1,1.8-1.23,5.61,5.61,0,0,1,2.2-.44,5.67,5.67,0,0,1,2.84.7,5.29,5.29,0,0,1,2,1.93,5.72,5.72,0,0,1,.77,2.83v.21c0,.05,0,.11,0,.19H61.21a4.33,4.33,0,0,0,.57,2.23,3.91,3.91,0,0,0,1.56,1.51,4.57,4.57,0,0,0,2.27.56,4.65,4.65,0,0,0,2.19-.51,4.38,4.38,0,0,0,1.62-1.47l1.13.61a5.25,5.25,0,0,1-2.08,1.94A6.09,6.09,0,0,1,65.55,50.41Zm-4.26-6.72h8.1a3.84,3.84,0,0,0-.7-1.78,4.05,4.05,0,0,0-1.44-1.22,4.17,4.17,0,0,0-1.89-.44,4.25,4.25,0,0,0-1.93.44,3.85,3.85,0,0,0-2.14,3Z"/>
        <path class="cls-1" d="M79.11,50.41a5.14,5.14,0,0,1-2.72-.74,5.22,5.22,0,0,1-1.92-2,5.94,5.94,0,0,1-.71-3,6,6,0,0,1,.7-2.93,5.29,5.29,0,0,1,1.92-2A5.11,5.11,0,0,1,79.13,39a5,5,0,0,1,2.61.69,4.84,4.84,0,0,1,1.82,1.88V32H85.1V50.07H83.56V47.8a5,5,0,0,1-4.45,2.61Zm.37-1.34A4,4,0,0,0,83.09,47a4.68,4.68,0,0,0,.54-2.25,4.8,4.8,0,0,0-.53-2.28,4,4,0,0,0-1.47-1.55,4.06,4.06,0,0,0-2.15-.56,4,4,0,0,0-2.13.56,3.85,3.85,0,0,0-1.47,1.55,5.06,5.06,0,0,0,0,4.53,4,4,0,0,0,1.47,1.55A4,4,0,0,0,79.48,49.07Z"/>
        <path class="cls-1" d="M7.19,82.41a2.29,2.29,0,0,1-1.87-.82,3.53,3.53,0,0,1-.67-2.29V72.47H3.56V71.32H4.65v-4H6.19v4H8.86v1.15H6.19v6.74a2.31,2.31,0,0,0,.34,1.37,1.16,1.16,0,0,0,1,.47,1.81,1.81,0,0,0,1.09-.34L9,81.92a3.22,3.22,0,0,1-.84.36A4,4,0,0,1,7.19,82.41Z"/>
        <path class="cls-1" d="M12.35,82.07V64h1.53v8.79a3.55,3.55,0,0,1,1.37-1.28A4.48,4.48,0,0,1,17.5,71a4.24,4.24,0,0,1,2.16.52A3.38,3.38,0,0,1,21,73a5.25,5.25,0,0,1,.49,2.37v6.71H20V75.65a3.74,3.74,0,0,0-.78-2.55A2.77,2.77,0,0,0,17,72.22a3.27,3.27,0,0,0-1.68.4,2.8,2.8,0,0,0-1.08,1,2.72,2.72,0,0,0-.38,1.4v7Z"/>
        <path class="cls-1" d="M30.89,82.41a6,6,0,0,1-3-.75,5.48,5.48,0,0,1-2.08-2A5.64,5.64,0,0,1,25,76.74a5.7,5.7,0,0,1,3.46-5.32A5.53,5.53,0,0,1,30.68,71a5.64,5.64,0,0,1,2.84.7,5.31,5.31,0,0,1,2,1.93,5.82,5.82,0,0,1,.77,2.83,1.28,1.28,0,0,1,0,.21,1.76,1.76,0,0,1,0,.19H26.55a4.33,4.33,0,0,0,.57,2.23,4,4,0,0,0,1.56,1.51,4.92,4.92,0,0,0,4.46,0,4.49,4.49,0,0,0,1.63-1.47l1.13.61a5.25,5.25,0,0,1-2.08,1.94A6.13,6.13,0,0,1,30.89,82.41Zm-4.25-6.72h8.09a3.73,3.73,0,0,0-.7-1.78,4,4,0,0,0-1.43-1.22,4.18,4.18,0,0,0-1.9-.44,4.28,4.28,0,0,0-1.93.44,3.82,3.82,0,0,0-1.43,1.21A3.77,3.77,0,0,0,26.64,75.69Z"/>
        <path class="cls-1" d="M39.83,82.07V71.32h1.53v1.47A4.16,4.16,0,0,1,44.89,71a4.31,4.31,0,0,1,2.3.61,3.16,3.16,0,0,1,1.36,1.66,5,5,0,0,1,1.58-1.65A4.17,4.17,0,0,1,52.42,71a4.31,4.31,0,0,1,2,.47,3.42,3.42,0,0,1,1.41,1.36A4.38,4.38,0,0,1,56.37,75v7.07H54.83V75.43a3.36,3.36,0,0,0-.77-2.33,2.61,2.61,0,0,0-2-.86,3.3,3.3,0,0,0-1.6.39,3.23,3.23,0,0,0-1.13,1,2.22,2.22,0,0,0-.42,1.27v7.17H47.33V75.28a3.13,3.13,0,0,0-.76-2.22,2.61,2.61,0,0,0-2-.82,3.47,3.47,0,0,0-1.61.38,3.06,3.06,0,0,0-1.16,1,2,2,0,0,0-.43,1.2v7.29Z"/>
        <path class="cls-1" d="M68.9,82.41A4.21,4.21,0,0,1,65,79.93l.82-.88a4.21,4.21,0,0,0,1.32,1.6,3,3,0,0,0,1.79.57A2.69,2.69,0,0,0,70.1,81a2.27,2.27,0,0,0,.89-.79A2.15,2.15,0,0,0,71.32,79a1.58,1.58,0,0,0-.31-1,2.61,2.61,0,0,0-.91-.63q-.59-.27-1.47-.6c-.46-.19-.9-.39-1.33-.62a3.62,3.62,0,0,1-1-.88,2.09,2.09,0,0,1-.41-1.35,2.53,2.53,0,0,1,.44-1.48,2.94,2.94,0,0,1,1.21-1A4,4,0,0,1,69.26,71a3.82,3.82,0,0,1,1.7.39,4.77,4.77,0,0,1,1.42,1.1l-.71.9a2.89,2.89,0,0,0-2.4-1.27,2.12,2.12,0,0,0-1.43.46,1.5,1.5,0,0,0-.55,1.21,1.24,1.24,0,0,0,.34.89,2.84,2.84,0,0,0,.91.61c.37.17.78.33,1.21.5.63.24,1.18.48,1.64.71a3,3,0,0,1,1.09.91,2.57,2.57,0,0,1,.39,1.5,3.46,3.46,0,0,1-.5,1.87A3.34,3.34,0,0,1,71,82,4.77,4.77,0,0,1,68.9,82.41Z"/>
        <path class="cls-1" d="M81.65,82.41a6.23,6.23,0,0,1-3-.73,5.52,5.52,0,0,1-2.14-2,5.69,5.69,0,0,1-.78-3,5.63,5.63,0,0,1,.78-3,5.56,5.56,0,0,1,2.13-2,6.67,6.67,0,0,1,6.07,0,5.42,5.42,0,0,1,2.13,2,5.54,5.54,0,0,1,.79,3,5.6,5.6,0,0,1-.79,3,5.42,5.42,0,0,1-2.13,2A6.23,6.23,0,0,1,81.65,82.41Zm0-1.37a4.36,4.36,0,0,0,2.24-.56A4.09,4.09,0,0,0,85.45,79a4.75,4.75,0,0,0,0-4.51,4.19,4.19,0,0,0-1.56-1.54,4.45,4.45,0,0,0-2.24-.55,4.52,4.52,0,0,0-2.25.55,4.09,4.09,0,0,0-1.55,1.54,4.73,4.73,0,0,0,0,4.5,4,4,0,0,0,1.55,1.54A4.42,4.42,0,0,0,81.65,81Z"/>
        <path class="cls-1" d="M24.24,114.41a6.26,6.26,0,0,1-3-.73,5.49,5.49,0,0,1-2.13-2,5.6,5.6,0,0,1-.79-3,5.54,5.54,0,0,1,.79-3,5.42,5.42,0,0,1,2.13-2,6.65,6.65,0,0,1,6.06,0,5.45,5.45,0,0,1,2.14,2,5.54,5.54,0,0,1,.79,3,5.6,5.6,0,0,1-.79,3,5.45,5.45,0,0,1-2.14,2A6.17,6.17,0,0,1,24.24,114.41Zm0-1.37a4.4,4.4,0,0,0,2.25-.56A4.09,4.09,0,0,0,28.05,111a4.82,4.82,0,0,0,0-4.51,4.19,4.19,0,0,0-1.56-1.54,4.86,4.86,0,0,0-4.49,0,4.19,4.19,0,0,0-1.56,1.54,4.8,4.8,0,0,0,0,4.5A4,4,0,0,0,22,112.48,4.38,4.38,0,0,0,24.24,113Z"/>
        <path class="cls-1" d="M34,114.07v-9.6H32.93v-1.15H34V99.46a5.37,5.37,0,0,1,.35-2,2.67,2.67,0,0,1,1-1.28A2.8,2.8,0,0,1,37,95.7a3.7,3.7,0,0,1,1.12.16,2.76,2.76,0,0,1,.9.47l-.54,1.09A1.92,1.92,0,0,0,37.26,97a1.55,1.55,0,0,0-1,.29,1.65,1.65,0,0,0-.56.82,4,4,0,0,0-.19,1.27v3.9h2.75v1.15H35.54v9.6Z"/>
        <path class="cls-1" d="M44.07,114.41a2.28,2.28,0,0,1-1.87-.82,3.47,3.47,0,0,1-.67-2.29v-6.83H40.44v-1.15h1.09v-4h1.53v4h2.68v1.15H43.06v6.74a2.31,2.31,0,0,0,.35,1.37,1.16,1.16,0,0,0,1,.47,1.82,1.82,0,0,0,1.1-.34l.39,1.21a3.22,3.22,0,0,1-.84.36A4.11,4.11,0,0,1,44.07,114.41Z"/>
        <path class="cls-1" d="M54.27,114.41a6,6,0,0,1-3-.75,5.51,5.51,0,0,1-2.09-2,5.64,5.64,0,0,1-.75-2.89,5.83,5.83,0,0,1,.43-2.26,6,6,0,0,1,1.21-1.83,5.8,5.8,0,0,1,1.81-1.23,5.91,5.91,0,0,1,5,.26,5.31,5.31,0,0,1,2,1.93,5.72,5.72,0,0,1,.77,2.83,1.28,1.28,0,0,1,0,.21,1.76,1.76,0,0,1,0,.19H49.93a4.33,4.33,0,0,0,.57,2.23,4,4,0,0,0,1.55,1.51,4.94,4.94,0,0,0,4.47,0,4.46,4.46,0,0,0,1.62-1.47l1.13.61a5.25,5.25,0,0,1-2.08,1.94A6.09,6.09,0,0,1,54.27,114.41ZM50,107.69h8.1a3.74,3.74,0,0,0-.71-1.78A3.94,3.94,0,0,0,56,104.69a4.17,4.17,0,0,0-1.89-.44,4.29,4.29,0,0,0-1.94.44,3.82,3.82,0,0,0-1.43,1.21A3.87,3.87,0,0,0,50,107.69Z"/>
        <path class="cls-1" d="M63.2,114.07V103.32h1.53v1.47a3.55,3.55,0,0,1,1.37-1.28,4.5,4.5,0,0,1,2.26-.53,4.2,4.2,0,0,1,2.15.52A3.38,3.38,0,0,1,71.89,105a5.25,5.25,0,0,1,.49,2.37v6.71H70.84v-6.42a3.69,3.69,0,0,0-.77-2.54,2.77,2.77,0,0,0-2.2-.88,3.37,3.37,0,0,0-1.68.39,2.8,2.8,0,0,0-1.08,1,2.72,2.72,0,0,0-.38,1.4v7Z"/>
        <path class="cls-1" d="M10.25,146.41a5.16,5.16,0,0,1-2.72-.74,5.31,5.31,0,0,1-1.92-2,6,6,0,0,1-.71-2.95,6,6,0,0,1,.7-2.92,5.19,5.19,0,0,1,1.91-2,5.1,5.1,0,0,1,2.74-.75,5.16,5.16,0,0,1,2.65.69,4.55,4.55,0,0,1,1.81,1.88v-2.23h1.53v10.75H14.71V143.8a5.25,5.25,0,0,1-1.86,1.91A4.92,4.92,0,0,1,10.25,146.41Zm.38-1.34a4,4,0,0,0,2.14-.56A3.9,3.9,0,0,0,14.23,143a5.06,5.06,0,0,0,0-4.53,3.9,3.9,0,0,0-1.46-1.55,4.06,4.06,0,0,0-2.15-.56A4,4,0,0,0,7,138.43a4.61,4.61,0,0,0-.54,2.26A4.7,4.7,0,0,0,7,143a4,4,0,0,0,3.61,2.11Z"/>
        <path class="cls-1" d="M20.75,146.07V135.32h1.54v1.47a3.52,3.52,0,0,1,1.36-1.28,4.52,4.52,0,0,1,2.26-.53,4.2,4.2,0,0,1,2.15.52A3.4,3.4,0,0,1,29.45,137a5.39,5.39,0,0,1,.48,2.37v6.71H28.4v-6.42a3.69,3.69,0,0,0-.78-2.54,2.76,2.76,0,0,0-2.19-.88,3.43,3.43,0,0,0-1.69.39,2.84,2.84,0,0,0-1.07,1,2.63,2.63,0,0,0-.38,1.4v7Z"/>
        <path class="cls-1" d="M38.85,146.41a5.19,5.19,0,0,1-4.65-2.77,6.48,6.48,0,0,1,0-5.88,5.29,5.29,0,0,1,1.92-2,5.15,5.15,0,0,1,2.76-.75,5,5,0,0,1,2.6.69,4.8,4.8,0,0,1,1.83,1.88V128h1.53v18.07H43.3V143.8a5.09,5.09,0,0,1-1.86,1.91A4.91,4.91,0,0,1,38.85,146.41Zm.36-1.34a4.06,4.06,0,0,0,2.15-.56A3.9,3.9,0,0,0,42.82,143a4.68,4.68,0,0,0,.54-2.25,4.8,4.8,0,0,0-.53-2.28,3.85,3.85,0,0,0-1.47-1.55,4.06,4.06,0,0,0-2.15-.56,4,4,0,0,0-3.6,2.11,4.68,4.68,0,0,0-.53,2.28,4.62,4.62,0,0,0,.53,2.25,3.85,3.85,0,0,0,1.47,1.55A4,4,0,0,0,39.21,145.07Z"/>
        <path class="cls-1" d="M54.74,146.07V128h1.53v18.06Z"/>
        <path class="cls-1" d="M65.84,146.41a6,6,0,0,1-3-.75,5.48,5.48,0,0,1-2.08-2,5.55,5.55,0,0,1-.76-2.89,5.7,5.7,0,0,1,3.46-5.32,5.53,5.53,0,0,1,2.19-.44,5.67,5.67,0,0,1,2.84.7,5.22,5.22,0,0,1,2,1.93,5.72,5.72,0,0,1,.78,2.83c0,.09,0,.15,0,.21a.81.81,0,0,1,0,.19H61.5a4.33,4.33,0,0,0,.57,2.23,4,4,0,0,0,1.56,1.51,4.57,4.57,0,0,0,2.27.56,4.62,4.62,0,0,0,2.19-.51,4.38,4.38,0,0,0,1.62-1.47l1.14.61a5.28,5.28,0,0,1-2.09,1.94A6.09,6.09,0,0,1,65.84,146.41Zm-4.25-6.72h8.09a3.73,3.73,0,0,0-.7-1.78,4.11,4.11,0,0,0-1.43-1.22,4.18,4.18,0,0,0-1.9-.44,4.25,4.25,0,0,0-1.93.44,3.82,3.82,0,0,0-1.43,1.21A3.77,3.77,0,0,0,61.59,139.69Z"/>
        <path class="cls-1" d="M74.93,146.07v-9.6H73.85v-1.15h1.08v-3.86a5.37,5.37,0,0,1,.35-2,2.73,2.73,0,0,1,1-1.28,2.82,2.82,0,0,1,1.63-.44,3.63,3.63,0,0,1,1.11.16,2.76,2.76,0,0,1,.9.47l-.53,1.09a2,2,0,0,0-1.22-.38,1.57,1.57,0,0,0-1,.29,1.65,1.65,0,0,0-.56.82,4,4,0,0,0-.18,1.27v3.9h2.74v1.15H76.47v9.6Z"/>
        <path class="cls-1" d="M85,146.41a2.29,2.29,0,0,1-1.87-.82,3.47,3.47,0,0,1-.67-2.29v-6.83H81.36v-1.15h1.09v-4H84v4h2.68v1.15H84v6.74a2.31,2.31,0,0,0,.35,1.37,1.16,1.16,0,0,0,1,.47,1.81,1.81,0,0,0,1.09-.34l.39,1.21a3.22,3.22,0,0,1-.84.36A4,4,0,0,1,85,146.41Z"/>
        <path class="cls-1" d="M12.34,178.41a2.29,2.29,0,0,1-1.87-.82,3.53,3.53,0,0,1-.67-2.29v-6.83H8.71v-1.15H9.8v-4h1.54v4H14v1.15H11.34v6.74a2.31,2.31,0,0,0,.34,1.37,1.16,1.16,0,0,0,1,.47,1.79,1.79,0,0,0,1.09-.34l.39,1.21a3.22,3.22,0,0,1-.84.36A4,4,0,0,1,12.34,178.41Z"/>
        <path class="cls-1" d="M17.5,178.07V160H19v8.79a3.55,3.55,0,0,1,1.37-1.28,4.48,4.48,0,0,1,2.25-.53,4.21,4.21,0,0,1,2.16.52A3.38,3.38,0,0,1,26.19,169a5.25,5.25,0,0,1,.49,2.37v6.71H25.14v-6.42a3.79,3.79,0,0,0-.77-2.55,2.8,2.8,0,0,0-2.2-.88,3.27,3.27,0,0,0-1.68.4,2.8,2.8,0,0,0-1.08,1,2.72,2.72,0,0,0-.38,1.4v7Z"/>
        <path class="cls-1" d="M36,178.41a6,6,0,0,1-3-.75,5.48,5.48,0,0,1-2.08-2,5.64,5.64,0,0,1-.76-2.89,5.7,5.7,0,0,1,3.46-5.32,5.53,5.53,0,0,1,2.19-.44,5.64,5.64,0,0,1,2.84.7,5.31,5.31,0,0,1,2,1.93,5.82,5.82,0,0,1,.77,2.83,1.28,1.28,0,0,1,0,.21,1.76,1.76,0,0,1,0,.19H31.71a4.32,4.32,0,0,0,.56,2.23,4,4,0,0,0,1.56,1.51,4.92,4.92,0,0,0,4.46,0,4.49,4.49,0,0,0,1.63-1.47l1.13.61A5.25,5.25,0,0,1,39,177.71,6.13,6.13,0,0,1,36,178.41Zm-4.25-6.72h8.09a3.73,3.73,0,0,0-.7-1.78,4,4,0,0,0-1.43-1.22,4.18,4.18,0,0,0-1.9-.44,4.28,4.28,0,0,0-1.93.44,3.82,3.82,0,0,0-1.43,1.21A3.77,3.77,0,0,0,31.79,171.69Z"/>
        <path class="cls-1" d="M55.55,178.41a6.23,6.23,0,0,1-3-.73,5.52,5.52,0,0,1-2.14-2,5.69,5.69,0,0,1-.78-3,5.63,5.63,0,0,1,.78-3,5.52,5.52,0,0,1,2.14-2,6.65,6.65,0,0,1,6.06,0,5.52,5.52,0,0,1,2.14,2,5.63,5.63,0,0,1,.78,3,5.69,5.69,0,0,1-.78,3,5.52,5.52,0,0,1-2.14,2A6.23,6.23,0,0,1,55.55,178.41Zm0-1.37a4.42,4.42,0,0,0,2.25-.56A4.07,4.07,0,0,0,59.35,175a4.75,4.75,0,0,0,0-4.51,4.17,4.17,0,0,0-1.55-1.54,4.88,4.88,0,0,0-4.5,0,4.24,4.24,0,0,0-1.55,1.54,4.73,4.73,0,0,0,0,4.5,4.09,4.09,0,0,0,1.55,1.54A4.42,4.42,0,0,0,55.55,177Z"/>
        <path class="cls-1" d="M69.55,178.41a4.66,4.66,0,0,1-3.5-1.11,5.24,5.24,0,0,1-1-3.68v-6.3h1.53v6a4.73,4.73,0,0,0,.7,2.9,3.53,3.53,0,0,0,4.64,0,4.73,4.73,0,0,0,.69-2.9v-6h1.53v6.3a5.24,5.24,0,0,1-1,3.68A4.65,4.65,0,0,1,69.55,178.41Z"/>
        <path class="cls-1" d="M81,178.41a2.29,2.29,0,0,1-1.87-.82,3.47,3.47,0,0,1-.67-2.29v-6.83H77.36v-1.15h1.09v-4H80v4h2.68v1.15H80v6.74a2.31,2.31,0,0,0,.35,1.37,1.16,1.16,0,0,0,1,.47,1.81,1.81,0,0,0,1.09-.34l.39,1.21a3.22,3.22,0,0,1-.84.36A4,4,0,0,1,81,178.41Z"/>
        <path class="cls-1" d="M5.6,210.41a4.3,4.3,0,0,1-2.35-.65,4.23,4.23,0,0,1-1.58-1.83l.81-.88a4.21,4.21,0,0,0,1.32,1.6,3,3,0,0,0,1.79.57A2.69,2.69,0,0,0,6.8,209a2.27,2.27,0,0,0,.89-.79A2.15,2.15,0,0,0,8,207a1.58,1.58,0,0,0-.31-1,2.61,2.61,0,0,0-.91-.63q-.58-.27-1.47-.6A14.49,14.49,0,0,1,4,204.09,3.54,3.54,0,0,1,3,203.21a2.15,2.15,0,0,1-.41-1.35A2.53,2.53,0,0,1,3,200.38a2.91,2.91,0,0,1,1.22-1A4,4,0,0,1,6,199a3.82,3.82,0,0,1,1.7.39,4.77,4.77,0,0,1,1.42,1.1l-.7.9A2.92,2.92,0,0,0,6,200.11a2.12,2.12,0,0,0-1.43.46A1.5,1.5,0,0,0,4,201.78a1.24,1.24,0,0,0,.34.89,3,3,0,0,0,.91.61c.38.17.78.33,1.21.5.63.24,1.18.48,1.65.71a3,3,0,0,1,1.08.91,2.57,2.57,0,0,1,.39,1.5,3.46,3.46,0,0,1-.5,1.87A3.37,3.37,0,0,1,7.67,210,4.84,4.84,0,0,1,5.6,210.41Z"/>
        <path class="cls-1" d="M18.35,210.41a6.23,6.23,0,0,1-3-.73,5.52,5.52,0,0,1-2.14-2,5.69,5.69,0,0,1-.78-3,5.63,5.63,0,0,1,.78-3,5.56,5.56,0,0,1,2.13-2,6.24,6.24,0,0,1,3-.73,6.23,6.23,0,0,1,3,.73,5.52,5.52,0,0,1,2.14,2,5.63,5.63,0,0,1,.78,3,5.69,5.69,0,0,1-.78,3,5.52,5.52,0,0,1-2.14,2A6.23,6.23,0,0,1,18.35,210.41Zm0-1.37a4.42,4.42,0,0,0,2.25-.56A4.14,4.14,0,0,0,22.15,207a4.75,4.75,0,0,0,0-4.51,4.24,4.24,0,0,0-1.55-1.54,4.88,4.88,0,0,0-4.5,0,4.24,4.24,0,0,0-1.55,1.54,4.73,4.73,0,0,0,0,4.5,4.09,4.09,0,0,0,1.55,1.54A4.42,4.42,0,0,0,18.35,209Z"/>
        <path class="cls-1" d="M33.4,210.07V199.32h1.53v1.47A4.16,4.16,0,0,1,38.46,199a4.31,4.31,0,0,1,2.3.61,3.16,3.16,0,0,1,1.36,1.66,5,5,0,0,1,1.58-1.65A4.14,4.14,0,0,1,46,199a4.32,4.32,0,0,1,2,.47,3.4,3.4,0,0,1,1.4,1.36,4.38,4.38,0,0,1,.51,2.19v7.07H48.4v-6.64a3.41,3.41,0,0,0-.77-2.33,2.61,2.61,0,0,0-2-.86,3.3,3.3,0,0,0-1.6.39,3.14,3.14,0,0,0-1.13,1,2.22,2.22,0,0,0-.42,1.27v7.17H40.9v-6.79a3.13,3.13,0,0,0-.76-2.22,2.64,2.64,0,0,0-2-.82,3.47,3.47,0,0,0-1.61.38,3.06,3.06,0,0,0-1.16,1,2,2,0,0,0-.43,1.2v7.29Z"/>
        <path class="cls-1" d="M58.63,210.41a4.66,4.66,0,0,1-3.5-1.11,5.24,5.24,0,0,1-1.05-3.68v-6.3h1.53v6a4.73,4.73,0,0,0,.7,2.9,3.53,3.53,0,0,0,4.64,0,4.73,4.73,0,0,0,.69-2.9v-6h1.53v6.3a5.24,5.24,0,0,1-1,3.68A4.65,4.65,0,0,1,58.63,210.41Z"/>
        <path class="cls-1" d="M72.5,210.41a6.11,6.11,0,0,1-2.27-.43,5.51,5.51,0,0,1-1.86-1.2,5.61,5.61,0,0,1-1.7-4.09,5.75,5.75,0,0,1,.44-2.25,5.57,5.57,0,0,1,1.23-1.82,5.7,5.7,0,0,1,1.86-1.21,6.15,6.15,0,0,1,2.3-.43,6.32,6.32,0,0,1,2,.32,5.18,5.18,0,0,1,1.65.87l-.63,1a4.88,4.88,0,0,0-5.18-.33,4.08,4.08,0,0,0-1.56,1.58,4.57,4.57,0,0,0-.56,2.24A4.49,4.49,0,0,0,68.8,207a4.2,4.2,0,0,0,1.58,1.58,4.6,4.6,0,0,0,2.31.57,4.87,4.87,0,0,0,1.54-.23,4.18,4.18,0,0,0,1.29-.68l.64,1a5.88,5.88,0,0,1-1.65.87A6.32,6.32,0,0,1,72.5,210.41Z"/>
        <path class="cls-1" d="M79.5,210.07V192H81v8.79a3.55,3.55,0,0,1,1.37-1.28,4.5,4.5,0,0,1,2.26-.53,4.2,4.2,0,0,1,2.15.52A3.38,3.38,0,0,1,88.19,201a5.25,5.25,0,0,1,.49,2.37v6.71H87.14v-6.42a3.79,3.79,0,0,0-.77-2.55,2.8,2.8,0,0,0-2.2-.88,3.27,3.27,0,0,0-1.68.4,2.8,2.8,0,0,0-1.08,1,2.72,2.72,0,0,0-.38,1.4v7Z"/>
        <path class="cls-1" d="M9.84,242.41a5.11,5.11,0,0,1-2.72-.74,5.41,5.41,0,0,1-1.93-2,6.46,6.46,0,0,1,0-5.87,5.34,5.34,0,0,1,1.91-2A5.14,5.14,0,0,1,9.84,231a5.19,5.19,0,0,1,2.65.69,4.47,4.47,0,0,1,1.8,1.88v-2.23h1.53v10.75H14.29V239.8a5.09,5.09,0,0,1-1.86,1.91A4.89,4.89,0,0,1,9.84,242.41Zm.38-1.34a4,4,0,0,0,3.6-2.11,4.7,4.7,0,0,0,.54-2.27,4.61,4.61,0,0,0-.54-2.26,3.9,3.9,0,0,0-1.46-1.55,4,4,0,0,0-2.14-.56,4,4,0,0,0-2.14.56,3.85,3.85,0,0,0-1.47,1.55,4.61,4.61,0,0,0-.54,2.26A4.7,4.7,0,0,0,6.61,239a3.85,3.85,0,0,0,1.47,1.55A4,4,0,0,0,10.22,241.07Z"/>
        <path class="cls-1" d="M20.34,242.07V231.32h1.53v1.47a3.55,3.55,0,0,1,1.37-1.28,4.48,4.48,0,0,1,2.25-.53,4.24,4.24,0,0,1,2.16.52A3.38,3.38,0,0,1,29,233a5.25,5.25,0,0,1,.49,2.37v6.71H28v-6.42a3.74,3.74,0,0,0-.77-2.54,2.77,2.77,0,0,0-2.2-.88,3.37,3.37,0,0,0-1.68.39,2.8,2.8,0,0,0-1.08,1,2.72,2.72,0,0,0-.38,1.4v7Z"/>
        <path class="cls-1" d="M38.43,242.41a5.11,5.11,0,0,1-2.72-.74,5.22,5.22,0,0,1-1.92-2,5.94,5.94,0,0,1-.71-2.95,6,6,0,0,1,.7-2.93,5.29,5.29,0,0,1,1.92-2,5.09,5.09,0,0,1,2.75-.75,5,5,0,0,1,2.6.69,4.8,4.8,0,0,1,1.83,1.88V224h1.54v18.07H42.88V239.8a5,5,0,0,1-4.45,2.61Zm.37-1.34A4,4,0,0,0,42.41,239a4.68,4.68,0,0,0,.54-2.25,4.8,4.8,0,0,0-.53-2.28A4,4,0,0,0,41,232.88a4.08,4.08,0,0,0-2.15-.56,4,4,0,0,0-2.13.56,3.85,3.85,0,0,0-1.47,1.55,5.06,5.06,0,0,0,0,4.53,3.92,3.92,0,0,0,1.47,1.55A4,4,0,0,0,38.8,241.07Z"/>
        <path class="cls-1" d="M58.91,242.41a5.19,5.19,0,0,1-4.64-2.77,6.48,6.48,0,0,1,0-5.88,5.29,5.29,0,0,1,1.92-2,5.15,5.15,0,0,1,2.76-.75,5,5,0,0,1,2.6.69,4.8,4.8,0,0,1,1.83,1.88V224H64.9v18.07H63.37V239.8a5.09,5.09,0,0,1-1.86,1.91A4.92,4.92,0,0,1,58.91,242.41Zm.37-1.34a4,4,0,0,0,2.14-.56A3.85,3.85,0,0,0,62.89,239a4.68,4.68,0,0,0,.54-2.25,4.8,4.8,0,0,0-.53-2.28,3.85,3.85,0,0,0-1.47-1.55,4.06,4.06,0,0,0-2.15-.56,4,4,0,0,0-3.6,2.11,4.69,4.69,0,0,0-.54,2.28,4.62,4.62,0,0,0,.54,2.25,3.85,3.85,0,0,0,1.47,1.55A4,4,0,0,0,59.28,241.07Z"/>
        <path class="cls-1" d="M70.18,229.17a1,1,0,0,1-.87-1.51,1,1,0,0,1,.36-.36,1,1,0,0,1,.51-.14.91.91,0,0,1,.49.14,1.24,1.24,0,0,1,.37.35,1,1,0,0,1,0,1,1.09,1.09,0,0,1-.37.37A.91.91,0,0,1,70.18,229.17Zm-.78,12.9V231.32h1.54v10.75Z"/>
        <path class="cls-1" d="M80.06,242.41a5.11,5.11,0,0,1-2.72-.74,5.22,5.22,0,0,1-1.92-2,5.94,5.94,0,0,1-.71-2.95,6,6,0,0,1,.7-2.93,5.29,5.29,0,0,1,1.92-2,5.35,5.35,0,0,1,5.36-.06,4.84,4.84,0,0,1,1.82,1.88V224h1.54v18.07H84.51V239.8a5,5,0,0,1-4.45,2.61Zm.37-1.34A4,4,0,0,0,84,239a4.68,4.68,0,0,0,.54-2.25,4.8,4.8,0,0,0-.53-2.28,4,4,0,0,0-1.47-1.55,4.08,4.08,0,0,0-2.15-.56,4,4,0,0,0-2.13.56,3.85,3.85,0,0,0-1.47,1.55,5.06,5.06,0,0,0,0,4.53,4,4,0,0,0,1.47,1.55A4,4,0,0,0,80.43,241.07Z"/>
        <path class="cls-1" d="M9.71,274.07,4.49,263.32H6.24l3.94,8.55,3.39-8.55h1L18,271.87l3.94-8.55h1.75l-5.22,10.75h-1l-3.36-8.37-3.37,8.37Z"/>
        <path class="cls-1" d="M27.38,261.17a1,1,0,0,1-.87-1.51,1,1,0,0,1,.36-.36,1,1,0,0,1,.51-.14.91.91,0,0,1,.49.14,1.24,1.24,0,0,1,.37.35,1,1,0,0,1,0,1,1.09,1.09,0,0,1-.37.37A.91.91,0,0,1,27.38,261.17Zm-.78,12.9V263.32h1.54v10.75Z"/>
        <path class="cls-1" d="M35.35,274.41a2.31,2.31,0,0,1-1.88-.82,3.53,3.53,0,0,1-.66-2.29v-6.83H31.72v-1.15h1.09v-4h1.53v4H37v1.15H34.34v6.74a2.31,2.31,0,0,0,.35,1.37,1.16,1.16,0,0,0,1,.47,1.81,1.81,0,0,0,1.09-.34l.39,1.21a3.22,3.22,0,0,1-.84.36A4.11,4.11,0,0,1,35.35,274.41Z"/>
        <path class="cls-1" d="M40.51,274.07V256H42v8.79a3.52,3.52,0,0,1,1.36-1.28,4.52,4.52,0,0,1,2.26-.53,4.2,4.2,0,0,1,2.15.52A3.4,3.4,0,0,1,49.2,265a5.39,5.39,0,0,1,.48,2.37v6.71H48.15v-6.42a3.74,3.74,0,0,0-.78-2.55,2.8,2.8,0,0,0-2.19-.88,3.33,3.33,0,0,0-1.69.4,2.84,2.84,0,0,0-1.07,1.05,2.63,2.63,0,0,0-.38,1.4v7Z"/>
        <path class="cls-1" d="M59.14,274.41a6.23,6.23,0,0,1-3-.73,5.42,5.42,0,0,1-2.13-2,5.6,5.6,0,0,1-.79-3,5.54,5.54,0,0,1,.79-3,5.42,5.42,0,0,1,2.13-2,6.65,6.65,0,0,1,6.06,0,5.52,5.52,0,0,1,2.14,2,5.63,5.63,0,0,1,.79,3,5.69,5.69,0,0,1-.79,3,5.52,5.52,0,0,1-2.14,2A6.23,6.23,0,0,1,59.14,274.41Zm0-1.37a4.42,4.42,0,0,0,2.25-.56A4,4,0,0,0,62.94,271a4.75,4.75,0,0,0,0-4.51,4.09,4.09,0,0,0-1.55-1.54,4.88,4.88,0,0,0-4.5,0,4.24,4.24,0,0,0-1.55,1.54,4.8,4.8,0,0,0,0,4.5,4.09,4.09,0,0,0,1.55,1.54A4.42,4.42,0,0,0,59.14,273Z"/>
        <path class="cls-1" d="M73.14,274.41a4.66,4.66,0,0,1-3.5-1.11,5.24,5.24,0,0,1-1-3.68v-6.3h1.53v6a4.73,4.73,0,0,0,.7,2.9,3.53,3.53,0,0,0,4.64,0,4.73,4.73,0,0,0,.69-2.9v-6h1.54v6.3a5.24,5.24,0,0,1-1,3.68A4.65,4.65,0,0,1,73.14,274.41Z"/>
        <path class="cls-1" d="M84.58,274.41a2.29,2.29,0,0,1-1.87-.82A3.53,3.53,0,0,1,82,271.3v-6.83H81v-1.15H82v-4h1.54v4h2.67v1.15H83.58v6.74a2.31,2.31,0,0,0,.34,1.37,1.16,1.16,0,0,0,1,.47,1.79,1.79,0,0,0,1.09-.34l.39,1.21a3.22,3.22,0,0,1-.84.36A4,4,0,0,1,84.58,274.41Z"/>
        <path class="cls-1" d="M7.19,306.41a2.29,2.29,0,0,1-1.87-.82,3.53,3.53,0,0,1-.67-2.29v-6.83H3.56v-1.15H4.65v-4H6.19v4H8.86v1.15H6.19v6.74a2.31,2.31,0,0,0,.34,1.37,1.16,1.16,0,0,0,1,.47,1.81,1.81,0,0,0,1.09-.34L9,305.92a3.22,3.22,0,0,1-.84.36A4,4,0,0,1,7.19,306.41Z"/>
        <path class="cls-1" d="M12.35,306.07V288h1.53v8.79a3.55,3.55,0,0,1,1.37-1.28A4.48,4.48,0,0,1,17.5,295a4.24,4.24,0,0,1,2.16.52A3.38,3.38,0,0,1,21,297a5.25,5.25,0,0,1,.49,2.37v6.71H20v-6.42a3.74,3.74,0,0,0-.78-2.55,2.77,2.77,0,0,0-2.19-.88,3.27,3.27,0,0,0-1.68.4,2.8,2.8,0,0,0-1.08,1.05,2.72,2.72,0,0,0-.38,1.4v7Z"/>
        <path class="cls-1" d="M30.89,306.41a6,6,0,0,1-3-.75,5.48,5.48,0,0,1-2.08-2,5.64,5.64,0,0,1-.76-2.89,5.7,5.7,0,0,1,3.46-5.32,5.53,5.53,0,0,1,2.19-.44,5.64,5.64,0,0,1,2.84.7,5.31,5.31,0,0,1,2,1.93,5.82,5.82,0,0,1,.77,2.83,1.28,1.28,0,0,1,0,.21,1.76,1.76,0,0,1,0,.19H26.55a4.33,4.33,0,0,0,.57,2.23,4,4,0,0,0,1.56,1.51,4.92,4.92,0,0,0,4.46.05,4.49,4.49,0,0,0,1.63-1.47l1.13.61a5.25,5.25,0,0,1-2.08,1.94A6.13,6.13,0,0,1,30.89,306.41Zm-4.25-6.72h8.09a3.73,3.73,0,0,0-.7-1.78,4,4,0,0,0-1.43-1.22,4.18,4.18,0,0,0-1.9-.44,4.28,4.28,0,0,0-1.93.44,3.82,3.82,0,0,0-1.43,1.21A3.77,3.77,0,0,0,26.64,299.69Z"/>
        <path class="cls-1" d="M39.83,306.07V295.32h1.53v1.47A4.16,4.16,0,0,1,44.89,295a4.31,4.31,0,0,1,2.3.61,3.16,3.16,0,0,1,1.36,1.66,5,5,0,0,1,1.58-1.65,4.17,4.17,0,0,1,2.29-.62,4.31,4.31,0,0,1,2,.47,3.42,3.42,0,0,1,1.41,1.36,4.38,4.38,0,0,1,.51,2.19v7.07H54.83v-6.64a3.36,3.36,0,0,0-.77-2.33,2.61,2.61,0,0,0-2-.86,3.3,3.3,0,0,0-1.6.39,3.23,3.23,0,0,0-1.13,1,2.22,2.22,0,0,0-.42,1.27v7.17H47.33v-6.79a3.13,3.13,0,0,0-.76-2.22,2.61,2.61,0,0,0-2-.82,3.47,3.47,0,0,0-1.61.38,3.06,3.06,0,0,0-1.16,1,2,2,0,0,0-.43,1.2v7.29Z"/>
        <path class="cls-1" d="M68.9,306.41A4.21,4.21,0,0,1,65,303.93l.82-.88a4.21,4.21,0,0,0,1.32,1.6,3,3,0,0,0,1.79.57A2.69,2.69,0,0,0,70.1,305a2.27,2.27,0,0,0,.89-.79,2.15,2.15,0,0,0,.33-1.21,1.58,1.58,0,0,0-.31-1,2.61,2.61,0,0,0-.91-.63q-.59-.27-1.47-.6c-.46-.19-.9-.39-1.33-.62a3.62,3.62,0,0,1-1-.88,2.09,2.09,0,0,1-.41-1.35,2.53,2.53,0,0,1,.44-1.48,2.94,2.94,0,0,1,1.21-1,4,4,0,0,1,1.77-.38,3.82,3.82,0,0,1,1.7.39,4.77,4.77,0,0,1,1.42,1.1l-.71.9a2.89,2.89,0,0,0-2.4-1.27,2.12,2.12,0,0,0-1.43.46,1.5,1.5,0,0,0-.55,1.21,1.24,1.24,0,0,0,.34.89,2.84,2.84,0,0,0,.91.61c.37.17.78.33,1.21.5.63.24,1.18.48,1.64.71a3,3,0,0,1,1.09.91,2.57,2.57,0,0,1,.39,1.5,3.46,3.46,0,0,1-.5,1.87A3.34,3.34,0,0,1,71,306,4.77,4.77,0,0,1,68.9,306.41Z"/>
        <path class="cls-1" d="M81.65,306.41a6.23,6.23,0,0,1-3-.73,5.52,5.52,0,0,1-2.14-2,5.69,5.69,0,0,1-.78-3,5.63,5.63,0,0,1,.78-3,5.56,5.56,0,0,1,2.13-2,6.67,6.67,0,0,1,6.07,0,5.42,5.42,0,0,1,2.13,2,5.54,5.54,0,0,1,.79,3,5.6,5.6,0,0,1-.79,3,5.42,5.42,0,0,1-2.13,2A6.23,6.23,0,0,1,81.65,306.41Zm0-1.37a4.36,4.36,0,0,0,2.24-.56A4.09,4.09,0,0,0,85.45,303a4.75,4.75,0,0,0,0-4.51,4.19,4.19,0,0,0-1.56-1.54,4.45,4.45,0,0,0-2.24-.55,4.52,4.52,0,0,0-2.25.55,4.09,4.09,0,0,0-1.55,1.54,4.73,4.73,0,0,0,0,4.5,4,4,0,0,0,1.55,1.54A4.42,4.42,0,0,0,81.65,305Z"/>
        <path class="cls-1" d="M6.89,338.41A6.06,6.06,0,0,1,4.63,338a5.51,5.51,0,0,1-1.86-1.2,5.83,5.83,0,0,1-1.26-6.34,5.42,5.42,0,0,1,1.23-1.82,5.7,5.7,0,0,1,1.86-1.21A6.14,6.14,0,0,1,6.89,327a6.42,6.42,0,0,1,2,.32,5.18,5.18,0,0,1,1.65.87l-.63,1a4.54,4.54,0,0,0-2.86-.92,4.52,4.52,0,0,0-2.32.59,4.08,4.08,0,0,0-1.56,1.58,4.57,4.57,0,0,0-.56,2.24A4.49,4.49,0,0,0,3.2,335a4.18,4.18,0,0,0,1.57,1.58,4.63,4.63,0,0,0,2.31.57,4.89,4.89,0,0,0,1.55-.23,4.18,4.18,0,0,0,1.29-.68l.64,1a5.88,5.88,0,0,1-1.65.87A6.33,6.33,0,0,1,6.89,338.41Z"/>
        <path class="cls-1" d="M19,338.41a6.23,6.23,0,0,1-3-.73,5.42,5.42,0,0,1-2.13-2,5.6,5.6,0,0,1-.79-3,5.54,5.54,0,0,1,.79-3,5.42,5.42,0,0,1,2.13-2,6.17,6.17,0,0,1,3-.73,6.23,6.23,0,0,1,3,.73,5.52,5.52,0,0,1,2.14,2,5.63,5.63,0,0,1,.79,3,5.69,5.69,0,0,1-.79,3,5.52,5.52,0,0,1-2.14,2A6.23,6.23,0,0,1,19,338.41ZM19,337a4.42,4.42,0,0,0,2.25-.56A4,4,0,0,0,22.83,335a4.75,4.75,0,0,0,0-4.51,4.09,4.09,0,0,0-1.55-1.54,4.52,4.52,0,0,0-2.25-.55,4.45,4.45,0,0,0-2.24.55,4.19,4.19,0,0,0-1.56,1.54,4.73,4.73,0,0,0,0,4.5,4,4,0,0,0,1.56,1.54A4.36,4.36,0,0,0,19,337Z"/>
        <path class="cls-1" d="M28.64,338.07V327.32h1.53v1.47a3.55,3.55,0,0,1,1.37-1.28,4.48,4.48,0,0,1,2.25-.53,4.21,4.21,0,0,1,2.16.52A3.38,3.38,0,0,1,37.33,329a5.25,5.25,0,0,1,.49,2.37v6.71H36.28v-6.42a3.69,3.69,0,0,0-.77-2.54,2.77,2.77,0,0,0-2.2-.88,3.37,3.37,0,0,0-1.68.39,2.8,2.8,0,0,0-1.08,1.05,2.72,2.72,0,0,0-.38,1.4v7Z"/>
        <path class="cls-1" d="M44.69,338.41a2.29,2.29,0,0,1-1.87-.82,3.53,3.53,0,0,1-.67-2.29v-6.83H41.06v-1.15h1.09v-4h1.54v4h2.67v1.15H43.69v6.74a2.31,2.31,0,0,0,.34,1.37,1.16,1.16,0,0,0,1,.47,1.79,1.79,0,0,0,1.09-.34l.39,1.21a3.22,3.22,0,0,1-.84.36A4,4,0,0,1,44.69,338.41Z"/>
        <path class="cls-1" d="M50.62,325.17a1,1,0,0,1-.51-.14,1.09,1.09,0,0,1-.37-.37,1,1,0,0,1,0-1,1.16,1.16,0,0,1,.37-.36,1,1,0,0,1,.51-.14.93.93,0,0,1,.49.14,1.1,1.1,0,0,1,.36.35.89.89,0,0,1,.14.51.88.88,0,0,1-.14.5,1,1,0,0,1-.36.37A.93.93,0,0,1,50.62,325.17Zm-.78,12.9V327.32h1.53v10.75Z"/>
        <path class="cls-1" d="M55.91,338.07V327.32h1.53v1.47a3.55,3.55,0,0,1,1.37-1.28,4.48,4.48,0,0,1,2.25-.53,4.21,4.21,0,0,1,2.16.52A3.38,3.38,0,0,1,64.6,329a5.38,5.38,0,0,1,.49,2.37v6.71H63.55v-6.42a3.74,3.74,0,0,0-.77-2.54,2.77,2.77,0,0,0-2.2-.88,3.37,3.37,0,0,0-1.68.39,2.8,2.8,0,0,0-1.08,1.05,2.72,2.72,0,0,0-.38,1.4v7Z"/>
        <path class="cls-1" d="M73.76,338.41a4.66,4.66,0,0,1-3.5-1.11,5.24,5.24,0,0,1-1.05-3.68v-6.3h1.53v6a4.73,4.73,0,0,0,.7,2.9,3.53,3.53,0,0,0,4.64,0,4.73,4.73,0,0,0,.69-2.9v-6H78.3v6.3a5.24,5.24,0,0,1-1,3.68A4.65,4.65,0,0,1,73.76,338.41Z"/>
        <path class="cls-1" d="M82.63,332.64v-1.31h6.76v1.31Z"/>
        <path class="cls-1" d="M7.73,370.41A5.16,5.16,0,0,1,5,369.67a5.31,5.31,0,0,1-1.92-2,6,6,0,0,1-.71-2.95,6,6,0,0,1,.7-2.92,5.19,5.19,0,0,1,1.91-2A5.1,5.1,0,0,1,7.73,359a5.16,5.16,0,0,1,2.65.69,4.55,4.55,0,0,1,1.81,1.88v-2.23h1.53v10.75H12.19V367.8a5.17,5.17,0,0,1-1.86,1.91A4.92,4.92,0,0,1,7.73,370.41Zm.38-1.34a4,4,0,0,0,2.14-.56A3.9,3.9,0,0,0,11.71,367a5.06,5.06,0,0,0,0-4.53,3.85,3.85,0,0,0-1.47-1.55,4,4,0,0,0-2.14-.56,4,4,0,0,0-3.61,2.11A4.61,4.61,0,0,0,4,364.69,4.7,4.7,0,0,0,4.5,367a4,4,0,0,0,3.61,2.11Z"/>
        <path class="cls-1" d="M18.23,370.07V352h1.54v18.06Z"/>
        <path class="cls-1" d="M24.29,370.07V352h1.53v18.06Z"/>
        <path class="cls-1" d="M31.1,375.53l2.64-5.72-5.11-10.49h1.73l4.25,8.91,3.87-8.91h1.73l-7.38,16.21Z"/>
        <path class="cls-1" d="M51.23,370.41a2.29,2.29,0,0,1-1.87-.82,3.53,3.53,0,0,1-.67-2.29v-6.83H47.6v-1.15h1.09v-4h1.54v4H52.9v1.15H50.23v6.74a2.31,2.31,0,0,0,.34,1.37,1.16,1.16,0,0,0,1,.47,1.79,1.79,0,0,0,1.09-.34l.39,1.21a3.22,3.22,0,0,1-.84.36A4,4,0,0,1,51.23,370.41Z"/>
        <path class="cls-1" d="M56.39,370.07V352h1.53v8.79a3.55,3.55,0,0,1,1.37-1.28,4.48,4.48,0,0,1,2.25-.53,4.21,4.21,0,0,1,2.16.52A3.38,3.38,0,0,1,65.08,361a5.25,5.25,0,0,1,.49,2.37v6.71H64v-6.42a3.74,3.74,0,0,0-.77-2.55,2.8,2.8,0,0,0-2.2-.88,3.27,3.27,0,0,0-1.68.4,2.8,2.8,0,0,0-1.08,1.05,2.72,2.72,0,0,0-.38,1.4v7Z"/>
        <path class="cls-1" d="M74.48,370.41a5.11,5.11,0,0,1-2.72-.74,5.31,5.31,0,0,1-1.92-2,5.94,5.94,0,0,1-.71-2.95,6.08,6.08,0,0,1,.69-2.92,5.29,5.29,0,0,1,1.92-2,5.08,5.08,0,0,1,2.74-.75,5.16,5.16,0,0,1,2.65.69,4.47,4.47,0,0,1,1.8,1.88v-2.23h1.54v10.75H78.93V367.8a5.09,5.09,0,0,1-1.86,1.91A4.89,4.89,0,0,1,74.48,370.41Zm.38-1.34a4,4,0,0,0,2.14-.56A4,4,0,0,0,78.46,367a5.06,5.06,0,0,0,0-4.53,4.21,4.21,0,0,0-5.75-1.55,3.85,3.85,0,0,0-1.47,1.55,4.61,4.61,0,0,0-.54,2.26,4.7,4.7,0,0,0,.54,2.27,3.85,3.85,0,0,0,1.47,1.55A4,4,0,0,0,74.86,369.07Z"/>
        <path class="cls-1" d="M87.51,370.41a2.29,2.29,0,0,1-1.87-.82A3.47,3.47,0,0,1,85,367.3v-6.83H83.88v-1.15H85v-4H86.5v4h2.68v1.15H86.5v6.74a2.31,2.31,0,0,0,.35,1.37,1.16,1.16,0,0,0,1,.47,1.81,1.81,0,0,0,1.09-.34l.39,1.21a3.22,3.22,0,0,1-.84.36A4,4,0,0,1,87.51,370.41Z"/>
        <path class="cls-1" d="M14.53,402.07V384.75h1.59v17.32Z"/>
        <path class="cls-1" d="M26.6,402.07V384h1.53v8.79a3.55,3.55,0,0,1,1.37-1.28,4.52,4.52,0,0,1,2.26-.53,4.2,4.2,0,0,1,2.15.52A3.46,3.46,0,0,1,35.3,393a5.39,5.39,0,0,1,.48,2.37v6.71H34.25v-6.42a3.74,3.74,0,0,0-.78-2.55,2.8,2.8,0,0,0-2.19-.88,3.3,3.3,0,0,0-1.69.4,2.87,2.87,0,0,0-1.08,1.05,2.72,2.72,0,0,0-.38,1.4v7Z"/>
        <path class="cls-1" d="M44.69,402.41a5.16,5.16,0,0,1-2.72-.74,5.31,5.31,0,0,1-1.92-2,6,6,0,0,1-.71-2.95,6,6,0,0,1,.7-2.92,5.19,5.19,0,0,1,1.91-2,5.1,5.1,0,0,1,2.74-.75,5.16,5.16,0,0,1,2.65.69,4.55,4.55,0,0,1,1.81,1.88v-2.23h1.53v10.75H49.15V399.8a5.25,5.25,0,0,1-1.86,1.91A4.92,4.92,0,0,1,44.69,402.41Zm.38-1.34a4,4,0,0,0,2.14-.56A3.9,3.9,0,0,0,48.67,399a5.06,5.06,0,0,0,0-4.53,3.85,3.85,0,0,0-1.47-1.55,4.1,4.1,0,0,0-5.75,1.55,4.61,4.61,0,0,0-.54,2.26,4.7,4.7,0,0,0,.54,2.27,4,4,0,0,0,3.61,2.11Z"/>
        <path class="cls-1" d="M58.74,402.07l-5.22-10.75h1.8l3.93,8.57,3.93-8.57H65l-5.23,10.75Z"/>
        <path class="cls-1" d="M72.88,402.41a6,6,0,0,1-3-.75,5.51,5.51,0,0,1-2.09-2,5.64,5.64,0,0,1-.75-2.89,5.66,5.66,0,0,1,1.65-4.09,5.76,5.76,0,0,1,1.8-1.23,5.61,5.61,0,0,1,2.2-.44,5.67,5.67,0,0,1,2.84.7,5.29,5.29,0,0,1,2,1.93,5.72,5.72,0,0,1,.77,2.83v.21c0,.05,0,.11,0,.19H68.54a4.33,4.33,0,0,0,.57,2.23,3.91,3.91,0,0,0,1.56,1.51,4.57,4.57,0,0,0,2.27.56,4.65,4.65,0,0,0,2.19-.51,4.38,4.38,0,0,0,1.62-1.47l1.13.61a5.25,5.25,0,0,1-2.08,1.94A6.09,6.09,0,0,1,72.88,402.41Zm-4.26-6.72h8.1a3.84,3.84,0,0,0-.7-1.78,4.05,4.05,0,0,0-1.44-1.22,4.17,4.17,0,0,0-1.89-.44,4.25,4.25,0,0,0-1.93.44,3.85,3.85,0,0,0-2.14,3Z"/>
        <path class="cls-1" d="M22.08,434.41a6.15,6.15,0,0,1-2.27-.43,5.57,5.57,0,0,1-1.85-1.2,5.67,5.67,0,0,1-1.71-4.09,5.58,5.58,0,0,1,.45-2.25,5.42,5.42,0,0,1,1.23-1.82,5.76,5.76,0,0,1,1.85-1.21,6.23,6.23,0,0,1,2.3-.43,6.42,6.42,0,0,1,2,.32,5.29,5.29,0,0,1,1.65.87l-.63,1a4.88,4.88,0,0,0-5.18-.33,4.08,4.08,0,0,0-1.56,1.58,4.76,4.76,0,0,0,0,4.5A4.11,4.11,0,0,0,20,432.53a4.6,4.6,0,0,0,2.31.57,4.93,4.93,0,0,0,1.55-.23,4.29,4.29,0,0,0,1.29-.68l.64,1a5.88,5.88,0,0,1-1.65.87A6.33,6.33,0,0,1,22.08,434.41Z"/>
        <path class="cls-1" d="M34.22,434.41a6.23,6.23,0,0,1-3-.73,5.52,5.52,0,0,1-2.14-2,5.69,5.69,0,0,1-.78-3,5.63,5.63,0,0,1,.78-3,5.52,5.52,0,0,1,2.14-2,6.65,6.65,0,0,1,6.06,0,5.42,5.42,0,0,1,2.13,2,5.54,5.54,0,0,1,.79,3,5.6,5.6,0,0,1-.79,3,5.42,5.42,0,0,1-2.13,2A6.23,6.23,0,0,1,34.22,434.41Zm0-1.37a4.42,4.42,0,0,0,2.25-.56A4.14,4.14,0,0,0,38,431a4.75,4.75,0,0,0,0-4.51,4.24,4.24,0,0,0-1.55-1.54,4.88,4.88,0,0,0-4.5,0,4.17,4.17,0,0,0-1.55,1.54,4.73,4.73,0,0,0,0,4.5A4,4,0,0,0,32,432.48,4.42,4.42,0,0,0,34.22,433Z"/>
        <path class="cls-1" d="M43.83,434.07V423.32h1.53v1.47A4.16,4.16,0,0,1,48.89,423a4.31,4.31,0,0,1,2.3.61,3.16,3.16,0,0,1,1.36,1.66,5,5,0,0,1,1.58-1.65,4.17,4.17,0,0,1,2.29-.62,4.31,4.31,0,0,1,2,.47,3.42,3.42,0,0,1,1.41,1.36,4.38,4.38,0,0,1,.51,2.19v7.07H58.83v-6.64a3.36,3.36,0,0,0-.77-2.33,2.61,2.61,0,0,0-2-.86,3.3,3.3,0,0,0-1.6.39,3.23,3.23,0,0,0-1.13,1,2.22,2.22,0,0,0-.42,1.27v7.17H51.33v-6.79a3.13,3.13,0,0,0-.76-2.22,2.61,2.61,0,0,0-2-.82,3.47,3.47,0,0,0-1.61.38,3.06,3.06,0,0,0-1.16,1,2,2,0,0,0-.43,1.2v7.29Z"/>
        <path class="cls-1" d="M69.75,434.41a6,6,0,0,1-3-.75,5.48,5.48,0,0,1-2.08-2,5.55,5.55,0,0,1-.76-2.89,5.7,5.7,0,0,1,3.46-5.32,5.56,5.56,0,0,1,2.19-.44,5.64,5.64,0,0,1,2.84.7,5.31,5.31,0,0,1,2,1.93,5.82,5.82,0,0,1,.77,2.83,1.28,1.28,0,0,1,0,.21,1.76,1.76,0,0,1,0,.19H65.42a4.42,4.42,0,0,0,.56,2.23,4,4,0,0,0,1.56,1.51,4.92,4.92,0,0,0,4.46.05,4.49,4.49,0,0,0,1.63-1.47l1.13.61a5.32,5.32,0,0,1-2.08,1.94A6.13,6.13,0,0,1,69.75,434.41Zm-4.25-6.72h8.1a3.85,3.85,0,0,0-.71-1.78,4,4,0,0,0-1.43-1.22,4.18,4.18,0,0,0-1.9-.44,4.28,4.28,0,0,0-1.93.44,3.82,3.82,0,0,0-1.43,1.21A3.77,3.77,0,0,0,65.5,427.69Z"/>
        <path class="cls-1" d="M2,466.07v-9.6H.91v-1.15H2v-3.86a5.35,5.35,0,0,1,.37-2.11,2.65,2.65,0,0,1,1-1.24A2.9,2.9,0,0,1,5,447.7a3.9,3.9,0,0,1,1.19.18,4,4,0,0,1,1,.51,2.63,2.63,0,0,1,.72.73l-.71.93a1.87,1.87,0,0,0-.79-.73A2.22,2.22,0,0,0,5.33,449a1.64,1.64,0,0,0-1.36.56,2.92,2.92,0,0,0-.46,1.83v3.9H8.44v10.75H6.9v-9.6H3.51v9.6Z"/>
        <path class="cls-1" d="M12.47,466.07V455.32H14v1.47a3.55,3.55,0,0,1,1.37-1.28,4.48,4.48,0,0,1,2.25-.53,4.21,4.21,0,0,1,2.16.52A3.38,3.38,0,0,1,21.16,457a5.25,5.25,0,0,1,.49,2.37v6.71H20.11v-6.42a3.69,3.69,0,0,0-.77-2.54,2.77,2.77,0,0,0-2.2-.88,3.37,3.37,0,0,0-1.68.39,2.8,2.8,0,0,0-1.08,1.05,2.72,2.72,0,0,0-.38,1.4v7Z"/>
        <path class="cls-1" d="M30.56,466.41a5.11,5.11,0,0,1-2.72-.74,5.31,5.31,0,0,1-1.92-2,5.94,5.94,0,0,1-.71-2.95,6.08,6.08,0,0,1,.69-2.92,5.29,5.29,0,0,1,1.92-2,5.08,5.08,0,0,1,2.74-.75,5.16,5.16,0,0,1,2.65.69,4.47,4.47,0,0,1,1.8,1.88v-2.23h1.54v10.75H35V463.8a5.09,5.09,0,0,1-1.86,1.91A4.89,4.89,0,0,1,30.56,466.41Zm.38-1.34a4,4,0,0,0,2.14-.56A4,4,0,0,0,34.54,463a5.06,5.06,0,0,0,0-4.53,3.92,3.92,0,0,0-1.47-1.55,4.37,4.37,0,0,0-4.28,0,3.85,3.85,0,0,0-1.47,1.55,4.61,4.61,0,0,0-.54,2.26,4.7,4.7,0,0,0,.54,2.27,3.85,3.85,0,0,0,1.47,1.55A4,4,0,0,0,30.94,465.07Z"/>
        <path class="cls-1" d="M41.06,466.07V448h1.53v18.06Z"/>
        <path class="cls-1" d="M47.12,466.07V448h1.53v18.06Z"/>
        <path class="cls-1" d="M53.92,471.53l2.65-5.72-5.11-10.49h1.73l4.25,8.91,3.86-8.91H63l-7.38,16.21Z"/>
        <path class="cls-1" d="M74.06,466.41a2.29,2.29,0,0,1-1.87-.82,3.47,3.47,0,0,1-.67-2.29v-6.83H70.43v-1.15h1.09v-4h1.53v4h2.68v1.15H73.05v6.74a2.31,2.31,0,0,0,.35,1.37,1.16,1.16,0,0,0,1,.47,1.81,1.81,0,0,0,1.09-.34l.39,1.21a3.22,3.22,0,0,1-.84.36A4,4,0,0,1,74.06,466.41Z"/>
        <path class="cls-1" d="M84.35,466.41a6.23,6.23,0,0,1-3-.73,5.42,5.42,0,0,1-2.13-2,5.6,5.6,0,0,1-.79-3,5.54,5.54,0,0,1,.79-3,5.42,5.42,0,0,1,2.13-2,6.65,6.65,0,0,1,6.06,0,5.52,5.52,0,0,1,2.14,2,5.63,5.63,0,0,1,.78,3,5.69,5.69,0,0,1-.78,3,5.52,5.52,0,0,1-2.14,2A6.23,6.23,0,0,1,84.35,466.41Zm0-1.37a4.42,4.42,0,0,0,2.25-.56A4,4,0,0,0,88.15,463a4.75,4.75,0,0,0,0-4.51,4.09,4.09,0,0,0-1.55-1.54,4.88,4.88,0,0,0-4.5,0,4.24,4.24,0,0,0-1.55,1.54,4.73,4.73,0,0,0,0,4.5,4.09,4.09,0,0,0,1.55,1.54A4.42,4.42,0,0,0,84.35,465Z"/>
        <path class="cls-1" d="M6.85,498.41a5.06,5.06,0,0,1-4.46-2.61v2.27H.86V480H2.39v9.54a4.8,4.8,0,0,1,1.83-1.88,5,5,0,0,1,2.6-.69,5.15,5.15,0,0,1,2.76.75,5.29,5.29,0,0,1,1.92,2,6.13,6.13,0,0,1,.7,2.93,6,6,0,0,1-.71,2.95,5.22,5.22,0,0,1-1.92,2A5.11,5.11,0,0,1,6.85,498.41Zm-.38-1.34a4.06,4.06,0,0,0,2.15-.56A3.9,3.9,0,0,0,10.08,495a5.1,5.1,0,0,0,0-4.53,4,4,0,0,0-3.61-2.11,4,4,0,0,0-2.14.56,4,4,0,0,0-1.47,1.55,4.8,4.8,0,0,0-.53,2.28A4.67,4.67,0,0,0,2.86,495a3.85,3.85,0,0,0,1.47,1.55A4,4,0,0,0,6.47,497.07Z"/>
        <path class="cls-1" d="M21,498.41a6.07,6.07,0,0,1-3-.75,5.48,5.48,0,0,1-2.08-2,5.64,5.64,0,0,1-.76-2.89,5.84,5.84,0,0,1,.44-2.26,6,6,0,0,1,1.21-1.83,5.8,5.8,0,0,1,1.81-1.23,5.61,5.61,0,0,1,2.2-.44,5.67,5.67,0,0,1,2.84.7,5.36,5.36,0,0,1,2,1.93,5.72,5.72,0,0,1,.77,2.83v.21c0,.05,0,.11,0,.19H16.65a4.42,4.42,0,0,0,.56,2.23,4,4,0,0,0,1.56,1.51,4.94,4.94,0,0,0,4.47.05,4.46,4.46,0,0,0,1.62-1.47l1.13.61a5.25,5.25,0,0,1-2.08,1.94A6.13,6.13,0,0,1,21,498.41Zm-4.25-6.72h8.1a3.74,3.74,0,0,0-.71-1.78,3.94,3.94,0,0,0-1.43-1.22,4.18,4.18,0,0,0-1.9-.44,4.31,4.31,0,0,0-1.93.44,3.82,3.82,0,0,0-1.43,1.21A3.87,3.87,0,0,0,16.73,491.69Z"/>
        <path class="cls-1" d="M36.12,485.17a1,1,0,0,1-.5-.14.94.94,0,0,1-.37-.37,1,1,0,0,1,0-1,1,1,0,0,1,.37-.36,1,1,0,0,1,.5-.14.94.94,0,0,1,.5.14,1.1,1.1,0,0,1,.36.35.89.89,0,0,1,.14.51.88.88,0,0,1-.14.5,1,1,0,0,1-.36.37A.94.94,0,0,1,36.12,485.17Zm-.77,12.9V487.32h1.53v10.75Z"/>
        <path class="cls-1" d="M41.42,498.07V487.32H43v1.47a3.52,3.52,0,0,1,1.36-1.28,4.52,4.52,0,0,1,2.26-.53,4.18,4.18,0,0,1,2.15.52A3.35,3.35,0,0,1,50.11,489a5.39,5.39,0,0,1,.48,2.37v6.71H49.06v-6.42a3.69,3.69,0,0,0-.78-2.54,2.73,2.73,0,0,0-2.19-.88,3.43,3.43,0,0,0-1.69.39,2.84,2.84,0,0,0-1.07,1.05,2.72,2.72,0,0,0-.38,1.4v7Z"/>
        <path class="cls-1" d="M59.51,498.41a5.19,5.19,0,0,1-4.65-2.77,6.44,6.44,0,0,1,0-5.88,5.26,5.26,0,0,1,1.91-2,5.15,5.15,0,0,1,2.76-.75,5,5,0,0,1,2.6.69A4.8,4.8,0,0,1,64,489.55V480h1.53v18.07H64V495.8a5,5,0,0,1-4.45,2.61Zm.37-1.34a4,4,0,0,0,2.14-.56A4,4,0,0,0,63.49,495a5.1,5.1,0,0,0,0-4.53A3.85,3.85,0,0,0,62,488.88a4.37,4.37,0,0,0-4.28,0,3.9,3.9,0,0,0-1.46,1.55,5.06,5.06,0,0,0,0,4.53,3.85,3.85,0,0,0,1.47,1.55A4,4,0,0,0,59.88,497.07Z"/>
        <path class="cls-1" d="M70.78,485.17a1,1,0,0,1-.51-.14,1,1,0,0,1-.37-.37,1,1,0,0,1,0-1,1.06,1.06,0,0,1,.37-.36,1,1,0,0,1,.51-.14.93.93,0,0,1,.49.14,1.2,1.2,0,0,1,.36.35,1,1,0,0,1,0,1,1.06,1.06,0,0,1-.36.37A.93.93,0,0,1,70.78,485.17ZM70,498.07V487.32h1.53v10.75Z"/>
        <path class="cls-1" d="M76.29,498.07v-9.6H75.21v-1.15h1.08v-3.86a5.38,5.38,0,0,1,.34-2,2.64,2.64,0,0,1,2.64-1.72,3.59,3.59,0,0,1,1.11.16,2.81,2.81,0,0,1,.91.47l-.54,1.09a1.93,1.93,0,0,0-1.22-.38,1.54,1.54,0,0,0-1,.29,1.67,1.67,0,0,0-.57.82,4,4,0,0,0-.18,1.27v3.9h2.74v1.15H77.82v9.6Z"/>
        <path class="cls-1" d="M83.67,492.64v-1.31h6.76v1.31Z"/>
        <path class="cls-1" d="M1.4,530.07v-9.6H.32v-1.15H1.4v-3.86a5.37,5.37,0,0,1,.35-2,2.73,2.73,0,0,1,1-1.28,2.82,2.82,0,0,1,1.63-.44,3.59,3.59,0,0,1,1.11.16,2.76,2.76,0,0,1,.9.47l-.53,1.09A2,2,0,0,0,4.65,513a1.6,1.6,0,0,0-1,.29,1.65,1.65,0,0,0-.56.82,4,4,0,0,0-.18,1.27v3.9H5.68v1.15H2.94v9.6Z"/>
        <path class="cls-1" d="M13.83,530.41a6,6,0,0,1-3-.75,5.51,5.51,0,0,1-2.09-2A5.64,5.64,0,0,1,8,524.74a5.66,5.66,0,0,1,1.65-4.09,5.76,5.76,0,0,1,1.8-1.23,5.61,5.61,0,0,1,2.2-.44,5.67,5.67,0,0,1,2.84.7,5.29,5.29,0,0,1,2,1.93,5.72,5.72,0,0,1,.77,2.83v.21c0,.05,0,.11,0,.19H9.49a4.33,4.33,0,0,0,.57,2.23,4,4,0,0,0,1.56,1.51,4.57,4.57,0,0,0,2.27.56,4.65,4.65,0,0,0,2.19-.51,4.38,4.38,0,0,0,1.62-1.47l1.13.61a5.25,5.25,0,0,1-2.08,1.94A6.09,6.09,0,0,1,13.83,530.41Zm-4.26-6.72h8.1a3.74,3.74,0,0,0-.71-1.78,3.94,3.94,0,0,0-1.43-1.22,4.14,4.14,0,0,0-1.89-.44,4.25,4.25,0,0,0-1.93.44,3.85,3.85,0,0,0-2.14,3Z"/>
        <path class="cls-1" d="M22.76,530.07V519.32h1.53v1.58a3.76,3.76,0,0,1,1.33-1.43,3.57,3.57,0,0,1,1.89-.49,4.64,4.64,0,0,1,1,.11,4,4,0,0,1,.84.27l-.63,1.29a3.38,3.38,0,0,0-.72-.24,3.42,3.42,0,0,0-.77-.08,2.79,2.79,0,0,0-1.4.37,3.31,3.31,0,0,0-1.08,1,2.2,2.2,0,0,0-.42,1.28v7.1Z"/>
        <path class="cls-1" d="M37.05,530.41a6,6,0,0,1-3-.75,5.48,5.48,0,0,1-2.08-2,5.64,5.64,0,0,1-.76-2.89,5.7,5.7,0,0,1,3.46-5.32,5.53,5.53,0,0,1,2.19-.44,5.64,5.64,0,0,1,2.84.7,5.31,5.31,0,0,1,2,1.93,5.82,5.82,0,0,1,.77,2.83,1.28,1.28,0,0,1,0,.21,1.76,1.76,0,0,1,0,.19H32.71a4.33,4.33,0,0,0,.57,2.23,4,4,0,0,0,1.56,1.51,4.92,4.92,0,0,0,4.46,0,4.49,4.49,0,0,0,1.63-1.47l1.13.61A5.25,5.25,0,0,1,40,529.71,6.13,6.13,0,0,1,37.05,530.41Zm-4.25-6.72h8.09a3.73,3.73,0,0,0-.7-1.78,4,4,0,0,0-1.43-1.22,4.18,4.18,0,0,0-1.9-.44,4.28,4.28,0,0,0-1.93.44,3.82,3.82,0,0,0-1.43,1.21A3.77,3.77,0,0,0,32.8,523.69Z"/>
        <path class="cls-1" d="M46,530.07V519.32h1.53v1.47a3.52,3.52,0,0,1,1.36-1.28,4.52,4.52,0,0,1,2.26-.53,4.18,4.18,0,0,1,2.15.52A3.35,3.35,0,0,1,54.68,521a5.39,5.39,0,0,1,.48,2.37v6.71H53.63v-6.42a3.69,3.69,0,0,0-.78-2.54,2.73,2.73,0,0,0-2.19-.88,3.43,3.43,0,0,0-1.69.39,2.84,2.84,0,0,0-1.07,1,2.72,2.72,0,0,0-.38,1.4v7Z"/>
        <path class="cls-1" d="M62,530.41a2.29,2.29,0,0,1-1.87-.82,3.47,3.47,0,0,1-.67-2.29v-6.83H58.41v-1.15H59.5v-4H61v4h2.68v1.15H61v6.74a2.31,2.31,0,0,0,.35,1.37,1.16,1.16,0,0,0,1,.47,1.81,1.81,0,0,0,1.09-.34l.39,1.21a3.22,3.22,0,0,1-.84.36A4,4,0,0,1,62,530.41Z"/>
        <path class="cls-1" d="M75.27,530.41a2.29,2.29,0,0,1-1.87-.82,3.47,3.47,0,0,1-.67-2.29v-6.83H71.64v-1.15h1.09v-4h1.53v4h2.68v1.15H74.26v6.74a2.31,2.31,0,0,0,.35,1.37,1.16,1.16,0,0,0,1,.47,1.81,1.81,0,0,0,1.09-.34l.39,1.21a3.22,3.22,0,0,1-.84.36A4,4,0,0,1,75.27,530.41Z"/>
        <path class="cls-1" d="M85.56,530.41a6.23,6.23,0,0,1-3-.73,5.52,5.52,0,0,1-2.14-2,5.69,5.69,0,0,1-.78-3,5.63,5.63,0,0,1,.78-3,5.52,5.52,0,0,1,2.14-2,6.65,6.65,0,0,1,6.06,0,5.52,5.52,0,0,1,2.14,2,5.63,5.63,0,0,1,.79,3,5.69,5.69,0,0,1-.79,3,5.52,5.52,0,0,1-2.14,2A6.23,6.23,0,0,1,85.56,530.41Zm0-1.37a4.42,4.42,0,0,0,2.25-.56A4.07,4.07,0,0,0,89.36,527a4.75,4.75,0,0,0,0-4.51,4.17,4.17,0,0,0-1.55-1.54,4.88,4.88,0,0,0-4.5,0,4.24,4.24,0,0,0-1.55,1.54,4.73,4.73,0,0,0,0,4.5,4.09,4.09,0,0,0,1.55,1.54A4.42,4.42,0,0,0,85.56,529Z"/>
        <path class="cls-1" d="M12.16,562.41a2.29,2.29,0,0,1-1.87-.82,3.47,3.47,0,0,1-.67-2.29v-6.83H8.53v-1.15H9.62v-4h1.53v4h2.68v1.15H11.15v6.74a2.31,2.31,0,0,0,.35,1.37,1.16,1.16,0,0,0,1,.47,1.81,1.81,0,0,0,1.09-.34l.39,1.21a3.22,3.22,0,0,1-.84.36A4.11,4.11,0,0,1,12.16,562.41Z"/>
        <path class="cls-1" d="M17.32,562.07V544h1.53v8.79a3.52,3.52,0,0,1,1.36-1.28,4.52,4.52,0,0,1,2.26-.53,4.2,4.2,0,0,1,2.15.52A3.4,3.4,0,0,1,26,553a5.39,5.39,0,0,1,.48,2.37v6.71H25v-6.42a3.74,3.74,0,0,0-.78-2.55,2.8,2.8,0,0,0-2.19-.88,3.33,3.33,0,0,0-1.69.4,2.84,2.84,0,0,0-1.07,1,2.63,2.63,0,0,0-.38,1.4v7Z"/>
        <path class="cls-1" d="M35.86,562.41a6,6,0,0,1-3-.75,5.48,5.48,0,0,1-2.08-2,5.55,5.55,0,0,1-.76-2.89,5.66,5.66,0,0,1,.44-2.26,5.78,5.78,0,0,1,1.21-1.83,5.88,5.88,0,0,1,1.8-1.23,5.61,5.61,0,0,1,2.2-.44,5.67,5.67,0,0,1,2.84.7,5.22,5.22,0,0,1,2,1.93,5.62,5.62,0,0,1,.77,2.83v.21a.81.81,0,0,1,0,.19H31.52a4.33,4.33,0,0,0,.57,2.23,4,4,0,0,0,1.56,1.51,4.57,4.57,0,0,0,2.27.56,4.65,4.65,0,0,0,2.19-.51,4.38,4.38,0,0,0,1.62-1.47l1.14.61a5.28,5.28,0,0,1-2.09,1.94A6.09,6.09,0,0,1,35.86,562.41Zm-4.25-6.72H39.7a3.73,3.73,0,0,0-.7-1.78,4.05,4.05,0,0,0-1.44-1.22,4.11,4.11,0,0,0-1.89-.44,4.25,4.25,0,0,0-1.93.44,3.93,3.93,0,0,0-1.44,1.21A3.86,3.86,0,0,0,31.61,555.69Z"/>
        <path class="cls-1" d="M44.79,562.07V551.32h1.54v1.47a4.17,4.17,0,0,1,1.53-1.35,4.27,4.27,0,0,1,2-.46,4.31,4.31,0,0,1,2.3.61,3.2,3.2,0,0,1,1.36,1.66,5,5,0,0,1,1.58-1.65,4.14,4.14,0,0,1,2.28-.62,4.32,4.32,0,0,1,2,.47,3.4,3.4,0,0,1,1.4,1.36,4.38,4.38,0,0,1,.51,2.19v7.07H59.8v-6.64A3.41,3.41,0,0,0,59,553.1a2.61,2.61,0,0,0-2.05-.86,3.32,3.32,0,0,0-2.73,1.39,2.22,2.22,0,0,0-.42,1.27v7.17H52.3v-6.79a3.13,3.13,0,0,0-.76-2.22,2.64,2.64,0,0,0-2-.82,3.44,3.44,0,0,0-1.61.38,3,3,0,0,0-1.16,1,2,2,0,0,0-.43,1.2v7.29Z"/>
        <path class="cls-1" d="M67.43,562.41a1,1,0,0,1-.55-.15,1.21,1.21,0,0,1-.39-.39,1.15,1.15,0,0,1-.14-.55,1.08,1.08,0,0,1,.14-.53,1.15,1.15,0,0,1,.4-.39,1,1,0,0,1,.53-.15,1,1,0,0,1,.55.15,1.09,1.09,0,0,1,.38.39,1,1,0,0,1,.14.53,1,1,0,0,1-.14.55,1.09,1.09,0,0,1-.38.39A1,1,0,0,1,67.43,562.41Z"/>
        <path class="cls-1" d="M79.65,562.07V544.75h1.6v17.32Z"/>
        <path class="cls-1" d="M16.85,594.41a5.19,5.19,0,0,1-4.64-2.77,5.94,5.94,0,0,1-.71-2.95,6,6,0,0,1,.7-2.93,5.29,5.29,0,0,1,1.92-2,5.15,5.15,0,0,1,2.76-.75,5,5,0,0,1,2.6.69,4.7,4.7,0,0,1,1.82,1.88V576h1.54v18.07H21.3V591.8a5,5,0,0,1-4.45,2.61Zm.37-1.34a4,4,0,0,0,2.14-.56A3.85,3.85,0,0,0,20.83,591a4.68,4.68,0,0,0,.54-2.25,4.8,4.8,0,0,0-.53-2.28,4,4,0,0,0-1.47-1.55,4.06,4.06,0,0,0-2.15-.56,4,4,0,0,0-3.6,2.11,5.06,5.06,0,0,0,0,4.53,4,4,0,0,0,1.47,1.55A4,4,0,0,0,17.22,593.07Z"/>
        <path class="cls-1" d="M32.49,594.41a6.23,6.23,0,0,1-3-.73,5.52,5.52,0,0,1-2.14-2,5.69,5.69,0,0,1-.79-3,5.63,5.63,0,0,1,.79-3,5.56,5.56,0,0,1,2.13-2,6.67,6.67,0,0,1,6.07,0,5.42,5.42,0,0,1,2.13,2,5.54,5.54,0,0,1,.79,3,5.6,5.6,0,0,1-.79,3,5.42,5.42,0,0,1-2.13,2A6.23,6.23,0,0,1,32.49,594.41Zm0-1.37a4.36,4.36,0,0,0,2.24-.56A4.09,4.09,0,0,0,36.29,591a4.75,4.75,0,0,0,0-4.51,4.19,4.19,0,0,0-1.56-1.54,4.45,4.45,0,0,0-2.24-.55,4.52,4.52,0,0,0-2.25.55,4.09,4.09,0,0,0-1.55,1.54,4.73,4.73,0,0,0,0,4.5,4,4,0,0,0,1.55,1.54A4.42,4.42,0,0,0,32.49,593Z"/>
        <path class="cls-1" d="M47.53,594.07V583.32h1.54v1.47a3.45,3.45,0,0,1,1.36-1.28,4.52,4.52,0,0,1,2.26-.53,4.2,4.2,0,0,1,2.15.52A3.4,3.4,0,0,1,56.23,585a5.39,5.39,0,0,1,.48,2.37v6.71H55.18v-6.42a3.69,3.69,0,0,0-.78-2.54,2.76,2.76,0,0,0-2.19-.88,3.43,3.43,0,0,0-1.69.39,2.77,2.77,0,0,0-1.07,1,2.63,2.63,0,0,0-.38,1.4v7Z"/>
        <path class="cls-1" d="M66.17,594.41a6.23,6.23,0,0,1-3-.73,5.52,5.52,0,0,1-2.14-2,5.69,5.69,0,0,1-.78-3,5.63,5.63,0,0,1,.78-3,5.52,5.52,0,0,1,2.14-2,6.65,6.65,0,0,1,6.06,0,5.52,5.52,0,0,1,2.14,2,5.63,5.63,0,0,1,.78,3,5.69,5.69,0,0,1-.78,3,5.52,5.52,0,0,1-2.14,2A6.23,6.23,0,0,1,66.17,594.41Zm0-1.37a4.42,4.42,0,0,0,2.25-.56A4.07,4.07,0,0,0,70,591a4.75,4.75,0,0,0,0-4.51,4.17,4.17,0,0,0-1.55-1.54,4.88,4.88,0,0,0-4.5,0,4.24,4.24,0,0,0-1.55,1.54,4.73,4.73,0,0,0,0,4.5,4.09,4.09,0,0,0,1.55,1.54A4.42,4.42,0,0,0,66.17,593Z"/>
        <path class="cls-1" d="M78.39,594.41a2.29,2.29,0,0,1-1.87-.82,3.47,3.47,0,0,1-.67-2.29v-6.83H74.76v-1.15h1.09v-4h1.53v4h2.68v1.15H77.38v6.74a2.31,2.31,0,0,0,.35,1.37,1.16,1.16,0,0,0,1,.47,1.79,1.79,0,0,0,1.09-.34l.39,1.21a3.22,3.22,0,0,1-.84.36A4,4,0,0,1,78.39,594.41Z"/>
        <path class="cls-1" d="M23.55,626.07V615.32h1.53v1.47a3.55,3.55,0,0,1,1.37-1.28A4.46,4.46,0,0,1,28.7,615a4.24,4.24,0,0,1,2.16.52A3.38,3.38,0,0,1,32.24,617a5.39,5.39,0,0,1,.48,2.37v6.71H31.19v-6.42a3.69,3.69,0,0,0-.78-2.54,2.75,2.75,0,0,0-2.19-.88,3.37,3.37,0,0,0-1.68.39,2.8,2.8,0,0,0-1.08,1,2.72,2.72,0,0,0-.38,1.4v7Z"/>
        <path class="cls-1" d="M42.18,626.41a6.23,6.23,0,0,1-3-.73,5.49,5.49,0,0,1-2.13-2,5.6,5.6,0,0,1-.79-3,5.54,5.54,0,0,1,.79-3,5.42,5.42,0,0,1,2.13-2,6.65,6.65,0,0,1,6.06,0,5.45,5.45,0,0,1,2.14,2,5.54,5.54,0,0,1,.79,3,5.6,5.6,0,0,1-.79,3,5.45,5.45,0,0,1-2.14,2A6.23,6.23,0,0,1,42.18,626.41Zm0-1.37a4.4,4.4,0,0,0,2.25-.56A4.09,4.09,0,0,0,46,623a4.82,4.82,0,0,0,0-4.51,4.19,4.19,0,0,0-1.56-1.54,4.86,4.86,0,0,0-4.49,0,4.19,4.19,0,0,0-1.56,1.54,4.8,4.8,0,0,0,0,4.5,4,4,0,0,0,1.56,1.54A4.38,4.38,0,0,0,42.18,625Z"/>
        <path class="cls-1" d="M55.36,626.07l-5.22-10.75H51.9l3.94,8.55,3.39-8.55h1l3.39,8.55,3.93-8.55h1.76l-5.22,10.75h-1l-3.36-8.37-3.37,8.37Z"/>
        <path class="cls-1" d="M27.78,658.41a6.11,6.11,0,0,1-2.27-.43,5.51,5.51,0,0,1-1.86-1.2,5.61,5.61,0,0,1-1.7-4.09,5.59,5.59,0,0,1,3.53-5.28,6.19,6.19,0,0,1,2.3-.43,6.32,6.32,0,0,1,2,.32,5.18,5.18,0,0,1,1.65.87l-.63,1a4.88,4.88,0,0,0-5.18-.33,4.08,4.08,0,0,0-1.56,1.58,4.84,4.84,0,0,0,0,4.5,4.2,4.2,0,0,0,1.58,1.58,4.6,4.6,0,0,0,2.31.57,5,5,0,0,0,1.55-.23,4.24,4.24,0,0,0,1.28-.68l.64,1a5.88,5.88,0,0,1-1.65.87A6.32,6.32,0,0,1,27.78,658.41Z"/>
        <path class="cls-1" d="M39.27,658.41a5.17,5.17,0,0,1-2.73-.74,5.31,5.31,0,0,1-1.92-2,6,6,0,0,1-.71-3,6,6,0,0,1,.7-2.92,5.19,5.19,0,0,1,1.91-2,5.41,5.41,0,0,1,5.39-.06,4.55,4.55,0,0,1,1.81,1.88v-2.23h1.53v10.75H43.72V655.8a5.09,5.09,0,0,1-1.86,1.91A4.91,4.91,0,0,1,39.27,658.41Zm.37-1.34a4,4,0,0,0,2.14-.56A3.9,3.9,0,0,0,43.24,655a5.06,5.06,0,0,0,0-4.53,3.9,3.9,0,0,0-1.46-1.55,4.39,4.39,0,0,0-4.29,0A4,4,0,0,0,36,650.43a4.6,4.6,0,0,0-.53,2.26A4.7,4.7,0,0,0,36,655a4,4,0,0,0,3.61,2.11Z"/>
        <path class="cls-1" d="M49.77,658.07V647.32H51.3v1.58a3.61,3.61,0,0,1,1.33-1.43,3.54,3.54,0,0,1,1.88-.49,4.49,4.49,0,0,1,1,.11,4.05,4.05,0,0,1,.85.27l-.63,1.29a3.38,3.38,0,0,0-.72-.24,3.54,3.54,0,0,0-.77-.08,2.8,2.8,0,0,0-1.41.37,3.31,3.31,0,0,0-1.08,1A2.26,2.26,0,0,0,51.3,651v7.1Z"/>
        <path class="cls-1" d="M64.05,658.41a6,6,0,0,1-3-.75,5.51,5.51,0,0,1-2.09-2,5.64,5.64,0,0,1-.75-2.89,5.83,5.83,0,0,1,.43-2.26,6,6,0,0,1,1.21-1.83,5.8,5.8,0,0,1,1.81-1.23,5.61,5.61,0,0,1,2.2-.44,5.67,5.67,0,0,1,2.84.7,5.36,5.36,0,0,1,2,1.93,5.72,5.72,0,0,1,.77,2.83v.21c0,.05,0,.11,0,.19H59.72a4.33,4.33,0,0,0,.57,2.23,4,4,0,0,0,1.55,1.51,4.94,4.94,0,0,0,4.47,0,4.38,4.38,0,0,0,1.62-1.47l1.13.61A5.25,5.25,0,0,1,67,657.71,6.13,6.13,0,0,1,64.05,658.41Zm-4.25-6.72h8.1a3.74,3.74,0,0,0-.71-1.78,3.94,3.94,0,0,0-1.43-1.22,4.17,4.17,0,0,0-1.89-.44,4.32,4.32,0,0,0-1.94.44,3.87,3.87,0,0,0-2.13,3Z"/>
        <path class="cls-1" d="M5.22,690.07,0,679.32H1.75l3.94,8.55,3.39-8.55h1l3.39,8.55,3.94-8.55H19.2L14,690.07H13L9.6,681.7l-3.37,8.37Z"/>
        <path class="cls-1" d="M22.12,690.07V672h1.54v8.79A3.52,3.52,0,0,1,25,679.51a4.52,4.52,0,0,1,2.26-.53,4.2,4.2,0,0,1,2.15.52A3.4,3.4,0,0,1,30.82,681a5.39,5.39,0,0,1,.48,2.37v6.71H29.77v-6.42A3.74,3.74,0,0,0,29,681.1a2.8,2.8,0,0,0-2.19-.88,3.33,3.33,0,0,0-1.69.4,2.84,2.84,0,0,0-1.07,1,2.63,2.63,0,0,0-.38,1.4v7Z"/>
        <path class="cls-1" d="M40.67,690.41a6,6,0,0,1-3-.75,5.51,5.51,0,0,1-2.09-2,5.64,5.64,0,0,1-.75-2.89,5.83,5.83,0,0,1,.43-2.26,6,6,0,0,1,1.22-1.83,5.76,5.76,0,0,1,1.8-1.23,5.61,5.61,0,0,1,2.2-.44,5.67,5.67,0,0,1,2.84.7,5.22,5.22,0,0,1,2,1.93,5.62,5.62,0,0,1,.77,2.83v.21a.81.81,0,0,1,0,.19H36.33a4.33,4.33,0,0,0,.57,2.23,4,4,0,0,0,1.56,1.51,4.57,4.57,0,0,0,2.27.56,4.65,4.65,0,0,0,2.19-.51,4.38,4.38,0,0,0,1.62-1.47l1.14.61a5.35,5.35,0,0,1-2.09,1.94A6.09,6.09,0,0,1,40.67,690.41Zm-4.26-6.72h8.1a3.73,3.73,0,0,0-.7-1.78,4.05,4.05,0,0,0-1.44-1.22,4.17,4.17,0,0,0-1.89-.44,4.25,4.25,0,0,0-1.93.44,3.85,3.85,0,0,0-1.44,1.21A4,4,0,0,0,36.41,683.69Z"/>
        <path class="cls-1" d="M52.22,690.41a2.31,2.31,0,0,1-1.88-.82,3.53,3.53,0,0,1-.66-2.29v-6.83h-1.1v-1.15h1.1v-4h1.53v4h2.68v1.15H51.21v6.74a2.31,2.31,0,0,0,.35,1.37,1.16,1.16,0,0,0,1,.47,1.77,1.77,0,0,0,1.09-.34l.39,1.21a3,3,0,0,1-.84.36A4,4,0,0,1,52.22,690.41Z"/>
        <path class="cls-1" d="M57.37,690.07V672h1.54v8.79a3.45,3.45,0,0,1,1.36-1.28,4.52,4.52,0,0,1,2.26-.53,4.2,4.2,0,0,1,2.15.52A3.4,3.4,0,0,1,66.07,681a5.39,5.39,0,0,1,.48,2.37v6.71H65v-6.42a3.74,3.74,0,0,0-.78-2.55,2.8,2.8,0,0,0-2.2-.88,3.32,3.32,0,0,0-1.68.4,2.77,2.77,0,0,0-1.07,1,2.63,2.63,0,0,0-.38,1.4v7Z"/>
        <path class="cls-1" d="M75.92,690.41a6,6,0,0,1-3-.75,5.51,5.51,0,0,1-2.09-2,5.64,5.64,0,0,1-.75-2.89,5.66,5.66,0,0,1,1.65-4.09,5.76,5.76,0,0,1,1.8-1.23,5.61,5.61,0,0,1,2.2-.44,5.67,5.67,0,0,1,2.84.7,5.29,5.29,0,0,1,2,1.93,5.72,5.72,0,0,1,.77,2.83v.21c0,.05,0,.11,0,.19H71.58a4.33,4.33,0,0,0,.57,2.23,4,4,0,0,0,1.56,1.51,4.55,4.55,0,0,0,2.27.56,4.65,4.65,0,0,0,2.19-.51,4.38,4.38,0,0,0,1.62-1.47l1.13.61a5.25,5.25,0,0,1-2.08,1.94A6.09,6.09,0,0,1,75.92,690.41Zm-4.26-6.72h8.1a3.74,3.74,0,0,0-.71-1.78,3.94,3.94,0,0,0-1.43-1.22,4.17,4.17,0,0,0-1.89-.44,4.32,4.32,0,0,0-1.94.44,3.87,3.87,0,0,0-2.13,3Z"/>
        <path class="cls-1" d="M84.85,690.07V679.32h1.53v1.58a3.76,3.76,0,0,1,1.33-1.43A3.57,3.57,0,0,1,89.6,679a4.64,4.64,0,0,1,1,.11,4,4,0,0,1,.84.27l-.63,1.29a3.38,3.38,0,0,0-.72-.24,3.42,3.42,0,0,0-.77-.08,2.79,2.79,0,0,0-1.4.37,3.31,3.31,0,0,0-1.08,1,2.2,2.2,0,0,0-.42,1.28v7.1Z"/>
        <path class="cls-1" d="M7.62,727.53l2.65-5.72L5.16,711.32H6.89l4.25,8.91L15,711.32h1.73L9.36,727.53Z"/>
        <path class="cls-1" d="M24.76,722.41a6.23,6.23,0,0,1-3-.73,5.52,5.52,0,0,1-2.14-2,5.69,5.69,0,0,1-.78-3,5.63,5.63,0,0,1,.78-3,5.52,5.52,0,0,1,2.14-2,6.65,6.65,0,0,1,6.06,0,5.52,5.52,0,0,1,2.14,2,5.63,5.63,0,0,1,.78,3,5.69,5.69,0,0,1-.78,3,5.52,5.52,0,0,1-2.14,2A6.23,6.23,0,0,1,24.76,722.41Zm0-1.37a4.42,4.42,0,0,0,2.25-.56A4.07,4.07,0,0,0,28.56,719a4.75,4.75,0,0,0,0-4.51A4.17,4.17,0,0,0,27,712.9a4.88,4.88,0,0,0-4.5,0A4.24,4.24,0,0,0,21,714.44a4.73,4.73,0,0,0,0,4.5,4.09,4.09,0,0,0,1.55,1.54A4.42,4.42,0,0,0,24.76,721Z"/>
        <path class="cls-1" d="M38.76,722.41a4.66,4.66,0,0,1-3.5-1.11,5.24,5.24,0,0,1-1-3.68v-6.3h1.53v6a4.66,4.66,0,0,0,.7,2.9,2.79,2.79,0,0,0,2.32.87,2.79,2.79,0,0,0,2.32-.87,4.73,4.73,0,0,0,.69-2.9v-6H43.3v6.3a5.24,5.24,0,0,1-1,3.68A4.66,4.66,0,0,1,38.76,722.41Z"/>
        <path class="cls-1" d="M53,727.53V711.32h1.53v2.22a4.7,4.7,0,0,1,1.82-1.88,5.38,5.38,0,0,1,5.36.07,5.29,5.29,0,0,1,1.92,2,6,6,0,0,1,.71,2.93,6.16,6.16,0,0,1-.7,2.93,5.44,5.44,0,0,1-1.91,2,5.15,5.15,0,0,1-2.76.75,5.06,5.06,0,0,1-4.44-2.61v7.73Zm5.61-6.46a4.06,4.06,0,0,0,2.15-.56A3.9,3.9,0,0,0,62.25,719a5.06,5.06,0,0,0,0-4.53,3.9,3.9,0,0,0-1.46-1.55A4.1,4.1,0,0,0,55,714.43a4.6,4.6,0,0,0-.53,2.26A4.7,4.7,0,0,0,55,719a3.94,3.94,0,0,0,1.48,1.55A4,4,0,0,0,58.64,721.07Z"/>
        <path class="cls-1" d="M72.46,722.41A4.66,4.66,0,0,1,69,721.3a5.24,5.24,0,0,1-1-3.68v-6.3h1.54v6a4.73,4.73,0,0,0,.69,2.9,3.54,3.54,0,0,0,4.65,0,4.81,4.81,0,0,0,.68-2.9v-6H77v6.3A5.24,5.24,0,0,1,76,721.3,4.63,4.63,0,0,1,72.46,722.41Z"/>
        <path class="cls-1" d="M83.9,722.41a2.29,2.29,0,0,1-1.87-.82,3.53,3.53,0,0,1-.67-2.29v-6.83H80.27v-1.15h1.09v-4H82.9v4h2.67v1.15H82.9v6.74a2.31,2.31,0,0,0,.34,1.37,1.16,1.16,0,0,0,1,.47,1.79,1.79,0,0,0,1.09-.34l.39,1.21a3.22,3.22,0,0,1-.84.36A4,4,0,0,1,83.9,722.41Z"/>
        <path class="cls-1" d="M10,754.41a2.31,2.31,0,0,1-1.88-.82,3.53,3.53,0,0,1-.66-2.29v-6.83H6.38v-1.15H7.47v-4H9v4h2.68v1.15H9v6.74a2.31,2.31,0,0,0,.35,1.37,1.16,1.16,0,0,0,1,.47,1.82,1.82,0,0,0,1.1-.34l.38,1.21a3.08,3.08,0,0,1-.84.36A4,4,0,0,1,10,754.41Z"/>
        <path class="cls-1" d="M15.16,754.07V736H16.7v8.79a3.52,3.52,0,0,1,1.36-1.28,4.52,4.52,0,0,1,2.26-.53,4.2,4.2,0,0,1,2.15.52A3.4,3.4,0,0,1,23.86,745a5.39,5.39,0,0,1,.48,2.37v6.71H22.81v-6.42A3.74,3.74,0,0,0,22,745.1a2.8,2.8,0,0,0-2.19-.88,3.33,3.33,0,0,0-1.69.4,2.94,2.94,0,0,0-1.08,1,2.72,2.72,0,0,0-.37,1.4v7Z"/>
        <path class="cls-1" d="M33.71,754.41a6,6,0,0,1-3-.75,5.51,5.51,0,0,1-2.09-2,5.64,5.64,0,0,1-.75-2.89,5.66,5.66,0,0,1,1.65-4.09,5.76,5.76,0,0,1,1.8-1.23,5.61,5.61,0,0,1,2.2-.44,5.67,5.67,0,0,1,2.84.7,5.29,5.29,0,0,1,2,1.93,5.72,5.72,0,0,1,.77,2.83v.21c0,.05,0,.11,0,.19H29.37a4.33,4.33,0,0,0,.57,2.23,3.91,3.91,0,0,0,1.56,1.51,4.57,4.57,0,0,0,2.27.56,4.65,4.65,0,0,0,2.19-.51,4.38,4.38,0,0,0,1.62-1.47l1.13.61a5.25,5.25,0,0,1-2.08,1.94A6.09,6.09,0,0,1,33.71,754.41Zm-4.26-6.72h8.1a3.84,3.84,0,0,0-.7-1.78,4.05,4.05,0,0,0-1.44-1.22,4.17,4.17,0,0,0-1.89-.44,4.25,4.25,0,0,0-1.93.44,3.85,3.85,0,0,0-2.14,3Z"/>
        <path class="cls-1" d="M42.64,754.07V743.32h1.53v1.47A4.19,4.19,0,0,1,47.7,743a4.37,4.37,0,0,1,2.31.61,3.2,3.2,0,0,1,1.36,1.66A5,5,0,0,1,53,743.6a4.14,4.14,0,0,1,2.28-.62,4.38,4.38,0,0,1,2,.47,3.46,3.46,0,0,1,1.4,1.36,4.38,4.38,0,0,1,.51,2.19v7.07H57.65v-6.64a3.41,3.41,0,0,0-.77-2.33,2.61,2.61,0,0,0-2.05-.86,3.23,3.23,0,0,0-1.59.39,3.18,3.18,0,0,0-1.14,1,2.22,2.22,0,0,0-.42,1.27v7.17H50.15v-6.79a3.18,3.18,0,0,0-.76-2.22,2.64,2.64,0,0,0-2-.82,3.44,3.44,0,0,0-1.61.38,3,3,0,0,0-1.16,1,2,2,0,0,0-.44,1.2v7.29Z"/>
        <path class="cls-1" d="M69.69,741.17a1,1,0,0,1-.87-1.51,1,1,0,0,1,.36-.36,1,1,0,0,1,.51-.14.91.91,0,0,1,.49.14,1.1,1.1,0,0,1,.36.35.93.93,0,0,1,0,1,1,1,0,0,1-.36.37A.91.91,0,0,1,69.69,741.17Zm-.78,12.9V743.32h1.54v10.75Z"/>
        <path class="cls-1" d="M75,754.07V743.32h1.53v1.47a3.55,3.55,0,0,1,1.37-1.28,4.52,4.52,0,0,1,2.26-.53,4.2,4.2,0,0,1,2.15.52A3.46,3.46,0,0,1,83.68,745a5.39,5.39,0,0,1,.48,2.37v6.71H82.62v-6.42a3.69,3.69,0,0,0-.77-2.54,2.77,2.77,0,0,0-2.2-.88,3.39,3.39,0,0,0-1.68.39,2.8,2.8,0,0,0-1.08,1,2.72,2.72,0,0,0-.38,1.4v7Z"/>
        <path class="cls-1" d="M20.28,786.41a6.23,6.23,0,0,1-3-.73,5.45,5.45,0,0,1-2.14-2,5.69,5.69,0,0,1-.79-3,5.63,5.63,0,0,1,.79-3,5.49,5.49,0,0,1,2.13-2,6.24,6.24,0,0,1,3-.73,6.16,6.16,0,0,1,3,.73,5.38,5.38,0,0,1,2.14,2,5.54,5.54,0,0,1,.79,3,5.6,5.6,0,0,1-.79,3,5.38,5.38,0,0,1-2.14,2A6.16,6.16,0,0,1,20.28,786.41Zm0-1.37a4.36,4.36,0,0,0,2.24-.56A4.09,4.09,0,0,0,24.08,783a4.82,4.82,0,0,0,0-4.51,4.19,4.19,0,0,0-1.56-1.54,4.45,4.45,0,0,0-2.24-.55,4.52,4.52,0,0,0-2.25.55,4.19,4.19,0,0,0-1.56,1.54,4.8,4.8,0,0,0,0,4.5A4,4,0,0,0,18,784.48,4.42,4.42,0,0,0,20.28,785Z"/>
        <path class="cls-1" d="M29.88,786.07V775.32h1.54v1.58a3.61,3.61,0,0,1,1.33-1.43,3.54,3.54,0,0,1,1.88-.49,4.49,4.49,0,0,1,1,.11,4.05,4.05,0,0,1,.85.27l-.63,1.29a3.38,3.38,0,0,0-.72-.24,3.56,3.56,0,0,0-.78-.08,2.79,2.79,0,0,0-1.4.37,3.31,3.31,0,0,0-1.08,1,2.19,2.19,0,0,0-.41,1.28v7.1Z"/>
        <path class="cls-1" d="M44.66,786.07V775.32h1.53v1.47a3.52,3.52,0,0,1,1.36-1.28,4.52,4.52,0,0,1,2.26-.53,4.2,4.2,0,0,1,2.15.52A3.35,3.35,0,0,1,53.35,777a5.39,5.39,0,0,1,.48,2.37v6.71H52.3v-6.42a3.69,3.69,0,0,0-.78-2.54,2.75,2.75,0,0,0-2.19-.88,3.43,3.43,0,0,0-1.69.39,2.84,2.84,0,0,0-1.07,1,2.63,2.63,0,0,0-.38,1.4v7Z"/>
        <path class="cls-1" d="M63.29,786.41a6.23,6.23,0,0,1-3-.73,5.49,5.49,0,0,1-2.13-2,5.6,5.6,0,0,1-.79-3,5.54,5.54,0,0,1,.79-3,5.42,5.42,0,0,1,2.13-2,6.65,6.65,0,0,1,6.06,0,5.45,5.45,0,0,1,2.14,2,5.63,5.63,0,0,1,.79,3,5.69,5.69,0,0,1-.79,3,5.45,5.45,0,0,1-2.14,2A6.23,6.23,0,0,1,63.29,786.41Zm0-1.37a4.42,4.42,0,0,0,2.25-.56A4.09,4.09,0,0,0,67.1,783a4.82,4.82,0,0,0,0-4.51,4.19,4.19,0,0,0-1.56-1.54,4.86,4.86,0,0,0-4.49,0,4.19,4.19,0,0,0-1.56,1.54,4.8,4.8,0,0,0,0,4.5,4,4,0,0,0,1.56,1.54A4.38,4.38,0,0,0,63.29,785Z"/>
        <path class="cls-1" d="M75.52,786.41a2.31,2.31,0,0,1-1.88-.82A3.53,3.53,0,0,1,73,783.3v-6.83H71.88v-1.15H73v-4h1.54v4h2.68v1.15H74.51v6.74a2.24,2.24,0,0,0,.35,1.37,1.14,1.14,0,0,0,1,.47,1.77,1.77,0,0,0,1.09-.34l.39,1.21a3.22,3.22,0,0,1-.84.36A4,4,0,0,1,75.52,786.41Z"/>
        <path class="cls-1" d="M7.08,818.41a5,5,0,0,1-2.6-.7,5.09,5.09,0,0,1-1.86-1.91v2.27H1.09V800H2.62v9.54a4.8,4.8,0,0,1,1.83-1.88,5,5,0,0,1,2.6-.69,5.15,5.15,0,0,1,2.76.75,5.29,5.29,0,0,1,1.92,2,6.48,6.48,0,0,1,0,5.88,5.22,5.22,0,0,1-1.92,2A5.11,5.11,0,0,1,7.08,818.41Zm-.37-1.34a4,4,0,0,0,2.14-.56A3.9,3.9,0,0,0,10.31,815a4.67,4.67,0,0,0,.53-2.25,4.8,4.8,0,0,0-.53-2.28,4,4,0,0,0-3.6-2.11,4.06,4.06,0,0,0-2.15.56,4,4,0,0,0-1.47,1.55,4.8,4.8,0,0,0-.53,2.28A4.67,4.67,0,0,0,3.09,815a3.85,3.85,0,0,0,1.47,1.55A4.06,4.06,0,0,0,6.71,817.07Z"/>
        <path class="cls-1" d="M20.52,818.41A4.64,4.64,0,0,1,17,817.3,5.24,5.24,0,0,1,16,813.62v-6.3h1.53v6a4.73,4.73,0,0,0,.69,2.9,2.8,2.8,0,0,0,2.32.87,2.8,2.8,0,0,0,2.33-.87,4.73,4.73,0,0,0,.69-2.9v-6h1.53v6.3a5.29,5.29,0,0,1-1,3.68A4.67,4.67,0,0,1,20.52,818.41Z"/>
        <path class="cls-1" d="M32,818.41a2.31,2.31,0,0,1-1.88-.82,3.53,3.53,0,0,1-.66-2.29v-6.83h-1.1v-1.15h1.1v-4H31v4h2.68v1.15H31v6.74a2.31,2.31,0,0,0,.35,1.37,1.16,1.16,0,0,0,1,.47,1.77,1.77,0,0,0,1.09-.34l.39,1.21a3,3,0,0,1-.84.36A4,4,0,0,1,32,818.41Z"/>
        <path class="cls-1" d="M42.74,818.07v-9.6H41.66v-1.15h1.08v-3.86a5.37,5.37,0,0,1,.35-2,2.71,2.71,0,0,1,1-1.28,2.86,2.86,0,0,1,1.63-.44,3.7,3.7,0,0,1,1.12.16,2.76,2.76,0,0,1,.9.47l-.54,1.09A1.93,1.93,0,0,0,46,801a1.54,1.54,0,0,0-1,.29,1.65,1.65,0,0,0-.56.82,3.73,3.73,0,0,0-.19,1.27v3.9H47v1.15H44.27v9.6Z"/>
        <path class="cls-1" d="M55.26,818.41a6.17,6.17,0,0,1-3-.73,5.52,5.52,0,0,1-2.14-2,5.6,5.6,0,0,1-.79-3,5.48,5.48,0,0,1,2.92-5,6.67,6.67,0,0,1,6.07,0,5.48,5.48,0,0,1,2.92,5,5.6,5.6,0,0,1-.79,3,5.49,5.49,0,0,1-2.13,2A6.26,6.26,0,0,1,55.26,818.41Zm0-1.37a4.38,4.38,0,0,0,2.24-.56A4.09,4.09,0,0,0,59.06,815a4.82,4.82,0,0,0,0-4.51,4.19,4.19,0,0,0-1.56-1.54,4.86,4.86,0,0,0-4.49,0,4.09,4.09,0,0,0-1.55,1.54,4.73,4.73,0,0,0,0,4.5A4,4,0,0,0,53,816.48,4.42,4.42,0,0,0,55.26,817Z"/>
        <path class="cls-1" d="M64.86,818.07V807.32H66.4v1.58a3.66,3.66,0,0,1,1.32-1.43,3.57,3.57,0,0,1,1.89-.49,4.64,4.64,0,0,1,1,.11,4.05,4.05,0,0,1,.85.27l-.63,1.29a3.38,3.38,0,0,0-.72-.24,3.56,3.56,0,0,0-.78-.08,2.79,2.79,0,0,0-1.4.37,3.31,3.31,0,0,0-1.08,1A2.26,2.26,0,0,0,66.4,811v7.1Z"/>
        <path class="cls-1" d="M84.22,818.41a5.16,5.16,0,0,1-2.72-.74,5.31,5.31,0,0,1-1.92-2,6,6,0,0,1-.71-3,6,6,0,0,1,.7-2.92,5.19,5.19,0,0,1,1.91-2,5.1,5.1,0,0,1,2.74-.75,5.16,5.16,0,0,1,2.65.69,4.55,4.55,0,0,1,1.81,1.88v-2.23h1.53v10.75H88.68V815.8a5.17,5.17,0,0,1-1.86,1.91A4.92,4.92,0,0,1,84.22,818.41Zm.38-1.34a4,4,0,0,0,2.14-.56A3.9,3.9,0,0,0,88.2,815a5.06,5.06,0,0,0,0-4.53,3.85,3.85,0,0,0-1.47-1.55A4.1,4.1,0,0,0,81,810.43a4.6,4.6,0,0,0-.53,2.26A4.7,4.7,0,0,0,81,815a4,4,0,0,0,3.61,2.11Z"/>
        <path class="cls-1" d="M23.21,850.07V832h1.53v18.06Z"/>
        <path class="cls-1" d="M34.4,850.41a6.16,6.16,0,0,1-3-.73,5.38,5.38,0,0,1-2.14-2,5.6,5.6,0,0,1-.79-3,5.54,5.54,0,0,1,.79-3,5.42,5.42,0,0,1,2.13-2,6.65,6.65,0,0,1,6.06,0,5.47,5.47,0,0,1,2.93,5,5.6,5.6,0,0,1-.79,3,5.52,5.52,0,0,1-2.14,2A6.23,6.23,0,0,1,34.4,850.41Zm0-1.37a4.42,4.42,0,0,0,2.25-.56A4.09,4.09,0,0,0,38.21,847a4.82,4.82,0,0,0,0-4.51,4.19,4.19,0,0,0-1.56-1.54,4.52,4.52,0,0,0-2.25-.55,4.45,4.45,0,0,0-2.24.55,4.19,4.19,0,0,0-1.56,1.54,4.8,4.8,0,0,0,0,4.5,4,4,0,0,0,1.56,1.54A4.36,4.36,0,0,0,34.4,849Z"/>
        <path class="cls-1" d="M44,850.07V839.32h1.53v1.47a3.55,3.55,0,0,1,1.37-1.28,4.52,4.52,0,0,1,2.26-.53,4.2,4.2,0,0,1,2.15.52A3.46,3.46,0,0,1,52.71,841a5.39,5.39,0,0,1,.48,2.37v6.71H51.66v-6.42a3.69,3.69,0,0,0-.78-2.54,2.77,2.77,0,0,0-2.2-.88,3.39,3.39,0,0,0-1.68.39,2.87,2.87,0,0,0-1.08,1,2.72,2.72,0,0,0-.38,1.4v7Z"/>
        <path class="cls-1" d="M62.26,855.85a6.86,6.86,0,0,1-3.44-.8,4.85,4.85,0,0,1-2.09-2.33l1.29-.6a3.78,3.78,0,0,0,1.64,1.77,5.2,5.2,0,0,0,2.6.65,4.78,4.78,0,0,0,2.2-.49A3.59,3.59,0,0,0,66,852.64a4.1,4.1,0,0,0,.56-2.21V847.8a4.9,4.9,0,0,1-1.84,1.91,5,5,0,0,1-2.61.7,5.13,5.13,0,0,1-2.71-.74,5.22,5.22,0,0,1-1.92-2,5.94,5.94,0,0,1-.71-2.95,6,6,0,0,1,.7-2.93,5.29,5.29,0,0,1,1.92-2,5.14,5.14,0,0,1,2.75-.75,5,5,0,0,1,2.6.69,4.7,4.7,0,0,1,1.82,1.88v-2.23h1.54v11a5.93,5.93,0,0,1-.71,3,4.43,4.43,0,0,1-2,1.85A7.18,7.18,0,0,1,62.26,855.85Zm.21-6.78a4,4,0,0,0,2.15-.56A3.85,3.85,0,0,0,66.09,847a5,5,0,0,0,0-4.53,3.85,3.85,0,0,0-1.47-1.55,4.1,4.1,0,0,0-5.75,1.55,4.69,4.69,0,0,0-.54,2.28,4.79,4.79,0,0,0,.53,2.25,4,4,0,0,0,1.47,1.55A4,4,0,0,0,62.47,849.07Z"/>
        <path class="cls-1" d="M19.87,882.41a2.31,2.31,0,0,1-1.88-.82,3.53,3.53,0,0,1-.66-2.29v-6.83h-1.1v-1.15h1.1v-4h1.53v4h2.68v1.15H18.86v6.74a2.24,2.24,0,0,0,.35,1.37,1.16,1.16,0,0,0,1,.47,1.82,1.82,0,0,0,1.1-.34l.38,1.21a3.08,3.08,0,0,1-.84.36A4,4,0,0,1,19.87,882.41Z"/>
        <path class="cls-1" d="M25.79,869.17a1,1,0,0,1-.87-1.51,1,1,0,0,1,.36-.36,1,1,0,0,1,.51-.14.93.93,0,0,1,.49.14,1.1,1.1,0,0,1,.36.35.93.93,0,0,1,0,1,1,1,0,0,1-.36.37A.93.93,0,0,1,25.79,869.17ZM25,882.07V871.32h1.53v10.75Z"/>
        <path class="cls-1" d="M31.08,882.07V871.32h1.53v1.47A4.19,4.19,0,0,1,36.14,871a4.37,4.37,0,0,1,2.31.61,3.25,3.25,0,0,1,1.36,1.66,5,5,0,0,1,1.58-1.65,4.14,4.14,0,0,1,2.28-.62,4.38,4.38,0,0,1,2,.47,3.46,3.46,0,0,1,1.4,1.36,4.38,4.38,0,0,1,.51,2.19v7.07H46.09v-6.64a3.41,3.41,0,0,0-.77-2.33,2.63,2.63,0,0,0-2-.86,3.23,3.23,0,0,0-1.59.39,3.18,3.18,0,0,0-1.14,1,2.22,2.22,0,0,0-.42,1.27v7.17H38.59v-6.79a3.18,3.18,0,0,0-.76-2.22,2.64,2.64,0,0,0-2-.82,3.44,3.44,0,0,0-1.61.38,3.09,3.09,0,0,0-1.17,1,2.05,2.05,0,0,0-.43,1.2v7.29Z"/>
        <path class="cls-1" d="M57,882.41a6,6,0,0,1-3-.75,5.51,5.51,0,0,1-2.09-2,5.64,5.64,0,0,1-.75-2.89,5.83,5.83,0,0,1,.43-2.26,5.66,5.66,0,0,1,3-3.06,5.61,5.61,0,0,1,2.2-.44,5.67,5.67,0,0,1,2.84.7,5.36,5.36,0,0,1,2,1.93,5.72,5.72,0,0,1,.77,2.83v.21c0,.05,0,.11,0,.19H52.67a4.33,4.33,0,0,0,.57,2.23,4,4,0,0,0,1.55,1.51,4.94,4.94,0,0,0,4.47,0,4.38,4.38,0,0,0,1.62-1.47l1.13.61a5.25,5.25,0,0,1-2.08,1.94A6.09,6.09,0,0,1,57,882.41Zm-4.26-6.72h8.1a3.74,3.74,0,0,0-.71-1.78,3.94,3.94,0,0,0-1.43-1.22,4.17,4.17,0,0,0-1.89-.44,4.32,4.32,0,0,0-1.94.44,3.87,3.87,0,0,0-2.13,3Z"/>
        <path class="cls-1" d="M72,882.07V864.75h1.59v17.32Z"/>
        <path class="cls-1" d="M3.25,914.07v-9.6H2.17v-1.15H3.25v-3.86a5.37,5.37,0,0,1,.35-2,2.67,2.67,0,0,1,1-1.28,2.8,2.8,0,0,1,1.62-.44,3.7,3.7,0,0,1,1.12.16,2.76,2.76,0,0,1,.9.47l-.54,1.09A1.92,1.92,0,0,0,6.5,897a1.55,1.55,0,0,0-1,.29,1.65,1.65,0,0,0-.56.82,4,4,0,0,0-.19,1.27v3.9H7.53v1.15H4.78v9.6Z"/>
        <path class="cls-1" d="M15.67,914.41a6,6,0,0,1-3-.75,5.48,5.48,0,0,1-2.08-2,5.55,5.55,0,0,1-.76-2.89,5.7,5.7,0,0,1,3.46-5.32,5.56,5.56,0,0,1,2.19-.44,5.64,5.64,0,0,1,2.84.7,5.31,5.31,0,0,1,2,1.93,5.82,5.82,0,0,1,.77,2.83,1.28,1.28,0,0,1,0,.21,1.76,1.76,0,0,1,0,.19H11.34a4.42,4.42,0,0,0,.56,2.23,4,4,0,0,0,1.56,1.51,4.57,4.57,0,0,0,2.27.56,4.6,4.6,0,0,0,2.19-.51,4.49,4.49,0,0,0,1.63-1.47l1.13.61a5.32,5.32,0,0,1-2.08,1.94A6.13,6.13,0,0,1,15.67,914.41Zm-4.25-6.72h8.1a3.85,3.85,0,0,0-.71-1.78,4,4,0,0,0-1.43-1.22,4.18,4.18,0,0,0-1.9-.44,4.28,4.28,0,0,0-1.93.44,3.82,3.82,0,0,0-1.43,1.21A3.77,3.77,0,0,0,11.42,907.69Z"/>
        <path class="cls-1" d="M24.61,914.07V896h1.53v18.06Z"/>
        <path class="cls-1" d="M33.34,914.41a2.29,2.29,0,0,1-1.87-.82,3.53,3.53,0,0,1-.67-2.29v-6.83H29.71v-1.15H30.8v-4h1.54v4H35v1.15H32.34v6.74a2.31,2.31,0,0,0,.34,1.37,1.16,1.16,0,0,0,1,.47,1.79,1.79,0,0,0,1.09-.34l.39,1.21a3.22,3.22,0,0,1-.84.36A4,4,0,0,1,33.34,914.41Z"/>
        <path class="cls-1" d="M47.4,914.07l-5.22-10.75H44l3.93,8.57,3.93-8.57h1.8l-5.23,10.75Z"/>
        <path class="cls-1" d="M61.54,914.41a6,6,0,0,1-3-.75,5.51,5.51,0,0,1-2.09-2,5.64,5.64,0,0,1-.75-2.89,5.66,5.66,0,0,1,1.65-4.09,5.76,5.76,0,0,1,1.8-1.23,5.61,5.61,0,0,1,2.2-.44,5.67,5.67,0,0,1,2.84.7,5.29,5.29,0,0,1,2,1.93,5.72,5.72,0,0,1,.77,2.83v.21c0,.05,0,.11,0,.19H57.2a4.33,4.33,0,0,0,.57,2.23,3.91,3.91,0,0,0,1.56,1.51,4.57,4.57,0,0,0,2.27.56,4.65,4.65,0,0,0,2.19-.51,4.38,4.38,0,0,0,1.62-1.47l1.13.61a5.25,5.25,0,0,1-2.08,1.94A6.09,6.09,0,0,1,61.54,914.41Zm-4.26-6.72h8.1a3.84,3.84,0,0,0-.7-1.78,4.05,4.05,0,0,0-1.44-1.22,4.17,4.17,0,0,0-1.89-.44,4.25,4.25,0,0,0-1.93.44A3.85,3.85,0,0,0,58,905.9,4,4,0,0,0,57.28,907.69Z"/>
        <path class="cls-1" d="M70.47,914.07V903.32H72v1.58a3.76,3.76,0,0,1,1.33-1.43,3.57,3.57,0,0,1,1.89-.49,4.64,4.64,0,0,1,1,.11,4,4,0,0,1,.84.27l-.63,1.29a3.38,3.38,0,0,0-.72-.24,3.48,3.48,0,0,0-.77-.08,2.79,2.79,0,0,0-1.4.37,3.22,3.22,0,0,0-1.08,1A2.2,2.2,0,0,0,72,907v7.1Z"/>
        <path class="cls-1" d="M80.72,919.53l2.65-5.72-5.12-10.49H80l4.26,8.91,3.86-8.91h1.73l-7.38,16.21Z"/>
        <path class="cls-1" d="M6.26,946.41a5.19,5.19,0,0,1-4.64-2.77,6.48,6.48,0,0,1,0-5.88,5.29,5.29,0,0,1,1.92-2A5.15,5.15,0,0,1,6.29,935a5,5,0,0,1,2.6.69,4.8,4.8,0,0,1,1.83,1.88V928h1.53v18.07H10.72V943.8a5.09,5.09,0,0,1-1.86,1.91A4.92,4.92,0,0,1,6.26,946.41Zm.37-1.34a4,4,0,0,0,2.14-.56A3.85,3.85,0,0,0,10.24,943a4.68,4.68,0,0,0,.54-2.25,4.8,4.8,0,0,0-.53-2.28,3.85,3.85,0,0,0-1.47-1.55,4.06,4.06,0,0,0-2.15-.56A4,4,0,0,0,3,938.43a4.69,4.69,0,0,0-.54,2.28A4.62,4.62,0,0,0,3,943a3.85,3.85,0,0,0,1.47,1.55A4,4,0,0,0,6.63,945.07Z"/>
        <path class="cls-1" d="M21.8,946.41a6,6,0,0,1-3-.75,5.51,5.51,0,0,1-2.09-2,5.64,5.64,0,0,1-.75-2.89,5.83,5.83,0,0,1,.43-2.26,6,6,0,0,1,1.21-1.83,5.8,5.8,0,0,1,1.81-1.23,5.91,5.91,0,0,1,5,.26,5.31,5.31,0,0,1,2,1.93,5.82,5.82,0,0,1,.77,2.83,1.28,1.28,0,0,1,0,.21,1.76,1.76,0,0,1,0,.19H17.47a4.33,4.33,0,0,0,.57,2.23,4,4,0,0,0,1.55,1.51,4.94,4.94,0,0,0,4.47,0,4.54,4.54,0,0,0,1.62-1.47l1.13.61a5.25,5.25,0,0,1-2.08,1.94A6.1,6.1,0,0,1,21.8,946.41Zm-4.25-6.72h8.1a3.74,3.74,0,0,0-.71-1.78,4,4,0,0,0-1.43-1.22,4.17,4.17,0,0,0-1.89-.44,4.29,4.29,0,0,0-1.94.44,3.82,3.82,0,0,0-1.43,1.21A3.87,3.87,0,0,0,17.55,939.69Z"/>
        <path class="cls-1" d="M31,946.07v-9.6H29.88v-1.15H31v-3.86a5.18,5.18,0,0,1,.37-2.11,2.65,2.65,0,0,1,1-1.24,2.87,2.87,0,0,1,1.57-.41,3.9,3.9,0,0,1,1.19.18,4,4,0,0,1,1,.51,2.63,2.63,0,0,1,.72.73l-.71.93a1.87,1.87,0,0,0-.79-.73A2.22,2.22,0,0,0,34.3,929a1.63,1.63,0,0,0-1.36.56,2.86,2.86,0,0,0-.46,1.83v3.9h4.93v10.75H35.87v-9.6H32.48v9.6Z"/>
        <path class="cls-1" d="M41.44,946.07V935.32H43v1.47a3.55,3.55,0,0,1,1.37-1.28,4.48,4.48,0,0,1,2.25-.53,4.24,4.24,0,0,1,2.16.52A3.38,3.38,0,0,1,50.13,937a5.25,5.25,0,0,1,.49,2.37v6.71H49.08v-6.42a3.69,3.69,0,0,0-.78-2.54,2.73,2.73,0,0,0-2.19-.88,3.37,3.37,0,0,0-1.68.39,2.8,2.8,0,0,0-1.08,1,2.72,2.72,0,0,0-.38,1.4v7Z"/>
        <path class="cls-1" d="M55.71,933.17a1,1,0,0,1-.87-1.51,1,1,0,0,1,.36-.36,1,1,0,0,1,.51-.14.93.93,0,0,1,.49.14,1.1,1.1,0,0,1,.36.35.93.93,0,0,1,0,1,1,1,0,0,1-.36.37A.93.93,0,0,1,55.71,933.17Zm-.78,12.9V935.32h1.53v10.75Z"/>
        <path class="cls-1" d="M63.68,946.41a2.31,2.31,0,0,1-1.88-.82,3.53,3.53,0,0,1-.66-2.29v-6.83H60v-1.15h1.1v-4h1.53v4h2.68v1.15H62.67v6.74a2.31,2.31,0,0,0,.35,1.37,1.16,1.16,0,0,0,1,.47,1.82,1.82,0,0,0,1.1-.34l.38,1.21a3.08,3.08,0,0,1-.84.36A4,4,0,0,1,63.68,946.41Z"/>
        <path class="cls-1" d="M73.87,946.41a6.07,6.07,0,0,1-3-.75,5.48,5.48,0,0,1-2.08-2,5.64,5.64,0,0,1-.76-2.89,5.7,5.7,0,0,1,3.46-5.32,5.56,5.56,0,0,1,2.19-.44,5.64,5.64,0,0,1,2.84.7,5.31,5.31,0,0,1,2,1.93,5.82,5.82,0,0,1,.77,2.83,1.28,1.28,0,0,1,0,.21,1.76,1.76,0,0,1,0,.19H69.54a4.42,4.42,0,0,0,.56,2.23,4,4,0,0,0,1.56,1.51,4.92,4.92,0,0,0,4.46,0,4.49,4.49,0,0,0,1.63-1.47l1.13.61a5.25,5.25,0,0,1-2.08,1.94A6.13,6.13,0,0,1,73.87,946.41Zm-4.25-6.72h8.1a3.85,3.85,0,0,0-.71-1.78,4,4,0,0,0-1.43-1.22,4.18,4.18,0,0,0-1.9-.44,4.28,4.28,0,0,0-1.93.44,3.82,3.82,0,0,0-1.43,1.21A3.87,3.87,0,0,0,69.62,939.69Z"/>
        <path class="cls-1" d="M82.85,940.64v-1.31h6.76v1.31Z"/>
        <path class="cls-1" d="M2.82,978.07V960H4.35v18.06Z"/>
        <path class="cls-1" d="M9.62,983.53l2.65-5.72L7.16,967.32H8.89l4.25,8.91L17,967.32h1.73l-7.38,16.21Z"/>
        <path class="cls-1" d="M31.67,978.41a5.16,5.16,0,0,1-2.72-.74,5.31,5.31,0,0,1-1.92-2,6.46,6.46,0,0,1,0-5.87,5.19,5.19,0,0,1,1.91-2,5.1,5.1,0,0,1,2.74-.75,5.16,5.16,0,0,1,2.65.69,4.47,4.47,0,0,1,1.8,1.88v-2.23h1.54v10.75H36.12V975.8a5.14,5.14,0,0,1-1.85,1.91A5,5,0,0,1,31.67,978.41Zm.38-1.34a4,4,0,0,0,2.14-.56A3.9,3.9,0,0,0,35.65,975a5.06,5.06,0,0,0,0-4.53,3.92,3.92,0,0,0-1.47-1.55,4.1,4.1,0,0,0-5.75,1.55,4.61,4.61,0,0,0-.54,2.26,4.7,4.7,0,0,0,.54,2.27,4,4,0,0,0,3.61,2.11Z"/>
        <path class="cls-1" d="M48.17,978.41a5,5,0,0,1-4.46-2.61v2.27H42.17V960h1.54v9.54a4.84,4.84,0,0,1,1.82-1.88,5,5,0,0,1,2.61-.69,5.19,5.19,0,0,1,4.67,2.78,6,6,0,0,1,.7,2.93,5.94,5.94,0,0,1-.71,2.95,5.26,5.26,0,0,1-1.91,2A5.14,5.14,0,0,1,48.17,978.41Zm-.38-1.34A4,4,0,0,0,51.4,975a4.79,4.79,0,0,0,.53-2.25,4.69,4.69,0,0,0-.54-2.28,3.9,3.9,0,0,0-1.46-1.55,4.1,4.1,0,0,0-5.75,1.55,4.69,4.69,0,0,0-.54,2.28,4.79,4.79,0,0,0,.53,2.25,4,4,0,0,0,1.47,1.55A4.08,4.08,0,0,0,47.79,977.07Z"/>
        <path class="cls-1" d="M62.39,978.41a6.22,6.22,0,0,1-3-.73,5.45,5.45,0,0,1-2.14-2,5.69,5.69,0,0,1-.79-3,5.63,5.63,0,0,1,.79-3,5.42,5.42,0,0,1,2.13-2,6.65,6.65,0,0,1,6.06,0,5.45,5.45,0,0,1,2.14,2,5.54,5.54,0,0,1,.79,3,5.6,5.6,0,0,1-.79,3,5.45,5.45,0,0,1-2.14,2A6.17,6.17,0,0,1,62.39,978.41Zm0-1.37a4.4,4.4,0,0,0,2.25-.56A4.09,4.09,0,0,0,66.2,975a4.82,4.82,0,0,0,0-4.51,4.19,4.19,0,0,0-1.56-1.54,4.86,4.86,0,0,0-4.49,0,4.19,4.19,0,0,0-1.56,1.54,4.8,4.8,0,0,0,0,4.5,4,4,0,0,0,1.56,1.54A4.38,4.38,0,0,0,62.39,977Z"/>
        <path class="cls-1" d="M76.39,978.41a4.64,4.64,0,0,1-3.49-1.11,5.24,5.24,0,0,1-1.05-3.68v-6.3h1.53v6a4.73,4.73,0,0,0,.69,2.9,3.54,3.54,0,0,0,4.65,0,4.73,4.73,0,0,0,.69-2.9v-6h1.53v6.3a5.24,5.24,0,0,1-1,3.68A4.63,4.63,0,0,1,76.39,978.41Z"/>
        <path class="cls-1" d="M87.84,978.41a2.31,2.31,0,0,1-1.88-.82,3.53,3.53,0,0,1-.67-2.29v-6.83H84.2v-1.15h1.09v-4h1.54v4h2.68v1.15H86.83v6.74a2.31,2.31,0,0,0,.35,1.37,1.14,1.14,0,0,0,1,.47,1.77,1.77,0,0,0,1.09-.34l.39,1.21a3.22,3.22,0,0,1-.84.36A4,4,0,0,1,87.84,978.41Z"/>
        <path class="cls-1" d="M22.49,1010.41a2.31,2.31,0,0,1-1.88-.82,3.53,3.53,0,0,1-.66-2.29v-6.83h-1.1v-1.15H20v-4h1.53v4h2.68v1.15H21.48v6.74a2.31,2.31,0,0,0,.35,1.37,1.14,1.14,0,0,0,1,.47,1.77,1.77,0,0,0,1.09-.34l.39,1.21a3.08,3.08,0,0,1-.84.36A4,4,0,0,1,22.49,1010.41Z"/>
        <path class="cls-1" d="M27.64,1010.07V992h1.54v8.79a3.45,3.45,0,0,1,1.36-1.28A4.52,4.52,0,0,1,32.8,999a4.2,4.2,0,0,1,2.15.52,3.4,3.4,0,0,1,1.39,1.49,5.39,5.39,0,0,1,.48,2.37v6.71H35.29v-6.42a3.74,3.74,0,0,0-.78-2.55,2.8,2.8,0,0,0-2.2-.88,3.32,3.32,0,0,0-1.68.4,2.87,2.87,0,0,0-1.08,1,2.72,2.72,0,0,0-.37,1.4v7Z"/>
        <path class="cls-1" d="M46.19,1010.41a6,6,0,0,1-3-.75,5.51,5.51,0,0,1-2.09-2,5.64,5.64,0,0,1-.75-2.89,5.83,5.83,0,0,1,.43-2.26,5.66,5.66,0,0,1,3-3.06A5.61,5.61,0,0,1,46,999a5.67,5.67,0,0,1,2.84.7,5.36,5.36,0,0,1,2,1.93,5.72,5.72,0,0,1,.77,2.83v.21c0,.05,0,.11,0,.19H41.85a4.33,4.33,0,0,0,.57,2.23,4,4,0,0,0,1.55,1.51,4.94,4.94,0,0,0,4.47,0,4.38,4.38,0,0,0,1.62-1.47l1.13.61a5.25,5.25,0,0,1-2.08,1.94A6.09,6.09,0,0,1,46.19,1010.41Zm-4.26-6.72H50a3.74,3.74,0,0,0-.71-1.78,3.94,3.94,0,0,0-1.43-1.22,4.17,4.17,0,0,0-1.89-.44,4.32,4.32,0,0,0-1.94.44,3.87,3.87,0,0,0-2.13,3Z"/>
        <path class="cls-1" d="M55.12,1010.07V999.32h1.53v1.47A4.19,4.19,0,0,1,60.18,999a4.37,4.37,0,0,1,2.31.61,3.2,3.2,0,0,1,1.36,1.66,5,5,0,0,1,1.58-1.65,4.14,4.14,0,0,1,2.28-.62,4.38,4.38,0,0,1,2,.47,3.46,3.46,0,0,1,1.4,1.36,4.38,4.38,0,0,1,.51,2.19v7.07H70.12v-6.64a3.41,3.41,0,0,0-.76-2.33,2.61,2.61,0,0,0-2-.86,3.3,3.3,0,0,0-1.6.39,3.23,3.23,0,0,0-1.13,1,2.22,2.22,0,0,0-.42,1.27v7.17H62.63v-6.79a3.13,3.13,0,0,0-.76-2.22,2.64,2.64,0,0,0-2-.82,3.52,3.52,0,0,0-1.62.38,3.14,3.14,0,0,0-1.16,1,2.05,2.05,0,0,0-.43,1.2v7.29Z"/>
        <path class="cls-1" d="M30.66,1042.41a5.17,5.17,0,0,1-2.73-.74,5.31,5.31,0,0,1-1.92-2,6,6,0,0,1-.71-3,6,6,0,0,1,.7-2.92,5.19,5.19,0,0,1,1.91-2,5.41,5.41,0,0,1,5.39-.06,4.49,4.49,0,0,1,1.81,1.88v-2.23h1.53v10.75H35.11v-2.27a5.09,5.09,0,0,1-1.86,1.91A4.91,4.91,0,0,1,30.66,1042.41Zm.37-1.34a4,4,0,0,0,2.14-.56,3.9,3.9,0,0,0,1.46-1.55,5.06,5.06,0,0,0,0-4.53,3.9,3.9,0,0,0-1.46-1.55,4.39,4.39,0,0,0-4.29,0,4,4,0,0,0-1.47,1.55,4.6,4.6,0,0,0-.53,2.26,4.7,4.7,0,0,0,.53,2.27,4,4,0,0,0,1.47,1.55A4,4,0,0,0,31,1041.07Z"/>
        <path class="cls-1" d="M41.16,1042.07v-10.75h1.53v1.47a3.52,3.52,0,0,1,1.36-1.28,4.52,4.52,0,0,1,2.26-.53,4.2,4.2,0,0,1,2.15.52,3.4,3.4,0,0,1,1.39,1.49,5.39,5.39,0,0,1,.48,2.37v6.71H48.8v-6.42a3.69,3.69,0,0,0-.78-2.54,2.76,2.76,0,0,0-2.19-.88,3.43,3.43,0,0,0-1.69.39,2.84,2.84,0,0,0-1.07,1.05,2.63,2.63,0,0,0-.38,1.4v7Z"/>
        <path class="cls-1" d="M59.25,1042.41a5.19,5.19,0,0,1-4.65-2.77,6.44,6.44,0,0,1,0-5.88,5.19,5.19,0,0,1,4.67-2.78,5,5,0,0,1,2.6.69,4.8,4.8,0,0,1,1.83,1.88V1024h1.53v18.07H63.7v-2.27a5.07,5.07,0,0,1-1.85,1.91A5,5,0,0,1,59.25,1042.41Zm.37-1.34a4,4,0,0,0,2.14-.56,4,4,0,0,0,1.47-1.55,4.79,4.79,0,0,0,.53-2.25,4.68,4.68,0,0,0-.53-2.28,3.85,3.85,0,0,0-1.47-1.55,4.37,4.37,0,0,0-4.28,0,4,4,0,0,0-1.47,1.55,4.8,4.8,0,0,0-.53,2.28A4.62,4.62,0,0,0,56,1039a3.85,3.85,0,0,0,1.47,1.55A4,4,0,0,0,59.62,1041.07Z"/>
        <path class="cls-1" d="M16.73,1074.07l-5.22-10.75h1.75l3.94,8.55,3.39-8.55h1l3.39,8.55,3.94-8.55H30.7l-5.22,10.75h-1l-3.35-8.37-3.38,8.37Z"/>
        <path class="cls-1" d="M38.7,1074.41a6.23,6.23,0,0,1-3-.73,5.49,5.49,0,0,1-2.13-2,5.6,5.6,0,0,1-.79-3,5.54,5.54,0,0,1,.79-3,5.42,5.42,0,0,1,2.13-2,6.65,6.65,0,0,1,6.06,0,5.45,5.45,0,0,1,2.14,2,5.63,5.63,0,0,1,.79,3,5.69,5.69,0,0,1-.79,3,5.45,5.45,0,0,1-2.14,2A6.23,6.23,0,0,1,38.7,1074.41Zm0-1.37a4.42,4.42,0,0,0,2.25-.56,4.09,4.09,0,0,0,1.56-1.53,4.82,4.82,0,0,0,0-4.51A4.19,4.19,0,0,0,41,1064.9a4.86,4.86,0,0,0-4.49,0,4.19,4.19,0,0,0-1.56,1.54,4.8,4.8,0,0,0,0,4.5,4,4,0,0,0,1.56,1.54A4.38,4.38,0,0,0,38.7,1073Z"/>
        <path class="cls-1" d="M52.7,1074.41a4.62,4.62,0,0,1-3.49-1.11,5.19,5.19,0,0,1-1.06-3.68v-6.3h1.54v6a4.73,4.73,0,0,0,.69,2.9,2.8,2.8,0,0,0,2.32.87,2.81,2.81,0,0,0,2.33-.87,4.81,4.81,0,0,0,.68-2.9v-6h1.54v6.3a5.24,5.24,0,0,1-1,3.68A4.63,4.63,0,0,1,52.7,1074.41Z"/>
        <path class="cls-1" d="M61.57,1074.07V1056h1.54v18.06Z"/>
        <path class="cls-1" d="M72.22,1074.41a5.17,5.17,0,0,1-2.73-.74,5.29,5.29,0,0,1-1.92-2,6.52,6.52,0,0,1,0-5.88,5.34,5.34,0,0,1,1.91-2,5.15,5.15,0,0,1,2.76-.75,5,5,0,0,1,2.6.69,4.8,4.8,0,0,1,1.83,1.88V1056h1.54v18.07H76.67v-2.27a5,5,0,0,1-4.45,2.61Zm.37-1.34A4,4,0,0,0,76.2,1071a4.67,4.67,0,0,0,.53-2.25,4.79,4.79,0,0,0-.52-2.28,3.94,3.94,0,0,0-1.48-1.55,4.35,4.35,0,0,0-4.27,0,3.85,3.85,0,0,0-1.47,1.55,5.06,5.06,0,0,0,0,4.53,3.85,3.85,0,0,0,1.47,1.55A4,4,0,0,0,72.59,1073.07Z"/>
        <path class="cls-1" d="M20.28,1106.07V1088h1.53v8.79a3.55,3.55,0,0,1,1.37-1.28,4.5,4.5,0,0,1,2.26-.53,4.2,4.2,0,0,1,2.15.52A3.38,3.38,0,0,1,29,1097a5.25,5.25,0,0,1,.49,2.37v6.71H27.93v-6.42a3.74,3.74,0,0,0-.78-2.55,2.8,2.8,0,0,0-2.2-.88,3.27,3.27,0,0,0-1.68.4,2.87,2.87,0,0,0-1.08,1.05,2.72,2.72,0,0,0-.38,1.4v7Z"/>
        <path class="cls-1" d="M38.37,1106.41a5.16,5.16,0,0,1-2.72-.74,5.31,5.31,0,0,1-1.92-2,6.46,6.46,0,0,1,0-5.87,5.19,5.19,0,0,1,1.91-2,5.1,5.1,0,0,1,2.74-.75,5.16,5.16,0,0,1,2.65.69,4.47,4.47,0,0,1,1.8,1.88v-2.23h1.54v10.75H42.82v-2.27a5.14,5.14,0,0,1-1.85,1.91A5,5,0,0,1,38.37,1106.41Zm.38-1.34a4,4,0,0,0,2.14-.56,3.9,3.9,0,0,0,1.46-1.55,5.06,5.06,0,0,0,0-4.53,3.92,3.92,0,0,0-1.47-1.55,4.1,4.1,0,0,0-5.75,1.55,4.61,4.61,0,0,0-.54,2.26,4.7,4.7,0,0,0,.54,2.27,4,4,0,0,0,3.61,2.11Z"/>
        <path class="cls-1" d="M52.42,1106.07l-5.22-10.75H49l3.93,8.57,3.93-8.57h1.8l-5.23,10.75Z"/>
        <path class="cls-1" d="M66.55,1106.41a6,6,0,0,1-3-.75,5.51,5.51,0,0,1-2.09-2,5.64,5.64,0,0,1-.75-2.89,5.83,5.83,0,0,1,.43-2.26,6,6,0,0,1,1.21-1.83,5.8,5.8,0,0,1,1.81-1.23,5.61,5.61,0,0,1,2.2-.44,5.67,5.67,0,0,1,2.84.7,5.36,5.36,0,0,1,2,1.93,5.72,5.72,0,0,1,.77,2.83v.21s0,.11,0,.19H62.22a4.33,4.33,0,0,0,.57,2.23,4,4,0,0,0,1.55,1.51,4.94,4.94,0,0,0,4.47.05,4.38,4.38,0,0,0,1.62-1.47l1.13.61a5.25,5.25,0,0,1-2.08,1.94A6.13,6.13,0,0,1,66.55,1106.41Zm-4.25-6.72h8.1a3.74,3.74,0,0,0-.71-1.78,3.94,3.94,0,0,0-1.43-1.22,4.17,4.17,0,0,0-1.89-.44,4.32,4.32,0,0,0-1.94.44,3.87,3.87,0,0,0-2.13,3Z"/>
        <path class="cls-1" d="M5.82,1138.07v-10.75H7.36v1.47a3.52,3.52,0,0,1,1.36-1.28A4.52,4.52,0,0,1,11,1127a4.2,4.2,0,0,1,2.15.52,3.4,3.4,0,0,1,1.39,1.49,5.39,5.39,0,0,1,.48,2.37v6.71H13.47v-6.42a3.69,3.69,0,0,0-.78-2.54,2.76,2.76,0,0,0-2.19-.88,3.43,3.43,0,0,0-1.69.39,2.94,2.94,0,0,0-1.08,1.05,2.72,2.72,0,0,0-.37,1.4v7Z"/>
        <path class="cls-1" d="M24.46,1138.41a6.23,6.23,0,0,1-3-.73,5.52,5.52,0,0,1-2.14-2,5.69,5.69,0,0,1-.78-3,5.63,5.63,0,0,1,.78-3,5.52,5.52,0,0,1,2.14-2,6.65,6.65,0,0,1,6.06,0,5.52,5.52,0,0,1,2.14,2,5.63,5.63,0,0,1,.78,3,5.69,5.69,0,0,1-.78,3,5.52,5.52,0,0,1-2.14,2A6.23,6.23,0,0,1,24.46,1138.41Zm0-1.37a4.42,4.42,0,0,0,2.25-.56,4.07,4.07,0,0,0,1.55-1.53,4.75,4.75,0,0,0,0-4.51,4.17,4.17,0,0,0-1.55-1.54,4.88,4.88,0,0,0-4.5,0,4.24,4.24,0,0,0-1.55,1.54,4.73,4.73,0,0,0,0,4.5,4.09,4.09,0,0,0,1.55,1.54A4.42,4.42,0,0,0,24.46,1137Z"/>
        <path class="cls-1" d="M36.68,1138.41a2.29,2.29,0,0,1-1.87-.82,3.53,3.53,0,0,1-.67-2.29v-6.83H33.05v-1.15h1.09v-4h1.54v4h2.67v1.15H35.68v6.74a2.31,2.31,0,0,0,.34,1.37,1.16,1.16,0,0,0,1,.47,1.79,1.79,0,0,0,1.09-.34l.39,1.21a3.22,3.22,0,0,1-.84.36A4,4,0,0,1,36.68,1138.41Z"/>
        <path class="cls-1" d="M41.84,1138.07V1120h1.53v8.79a3.55,3.55,0,0,1,1.37-1.28A4.48,4.48,0,0,1,47,1127a4.24,4.24,0,0,1,2.16.52,3.38,3.38,0,0,1,1.38,1.49,5.25,5.25,0,0,1,.49,2.37v6.71H49.48v-6.42a3.79,3.79,0,0,0-.77-2.55,2.8,2.8,0,0,0-2.2-.88,3.27,3.27,0,0,0-1.68.4,2.8,2.8,0,0,0-1.08,1.05,2.72,2.72,0,0,0-.38,1.4v7Z"/>
        <path class="cls-1" d="M56.11,1125.17a1,1,0,0,1-.87-1.51,1,1,0,0,1,.36-.36,1,1,0,0,1,.51-.14.91.91,0,0,1,.49.14,1.1,1.1,0,0,1,.36.35.93.93,0,0,1,0,1,1,1,0,0,1-.36.37A.91.91,0,0,1,56.11,1125.17Zm-.78,12.9v-10.75h1.54v10.75Z"/>
        <path class="cls-1" d="M61.4,1138.07v-10.75h1.53v1.47a3.55,3.55,0,0,1,1.37-1.28,4.5,4.5,0,0,1,2.26-.53,4.2,4.2,0,0,1,2.15.52,3.38,3.38,0,0,1,1.38,1.49,5.25,5.25,0,0,1,.49,2.37v6.71H69v-6.42a3.69,3.69,0,0,0-.77-2.54,2.77,2.77,0,0,0-2.2-.88,3.37,3.37,0,0,0-1.68.39,2.8,2.8,0,0,0-1.08,1.05,2.72,2.72,0,0,0-.38,1.4v7Z"/>
        <path class="cls-1" d="M79.65,1143.85a6.86,6.86,0,0,1-3.44-.8,4.85,4.85,0,0,1-2.09-2.33l1.29-.6a3.81,3.81,0,0,0,1.63,1.77,5.26,5.26,0,0,0,2.61.65,4.78,4.78,0,0,0,2.2-.49,3.59,3.59,0,0,0,1.53-1.41,4.1,4.1,0,0,0,.56-2.21v-2.63a4.9,4.9,0,0,1-1.84,1.91,5,5,0,0,1-2.61.7,5.13,5.13,0,0,1-2.71-.74,5.22,5.22,0,0,1-1.92-2,5.94,5.94,0,0,1-.71-3,6,6,0,0,1,.7-2.93,5.29,5.29,0,0,1,1.92-2,5.11,5.11,0,0,1,2.75-.75,5,5,0,0,1,2.6.69,4.7,4.7,0,0,1,1.82,1.88v-2.23h1.54v11a5.93,5.93,0,0,1-.71,3,4.51,4.51,0,0,1-2,1.85A7.1,7.1,0,0,1,79.65,1143.85Zm.21-6.78a4,4,0,0,0,2.15-.56,4,4,0,0,0,1.47-1.55,5,5,0,0,0,0-4.53,4.1,4.1,0,0,0-7.22,0,4.69,4.69,0,0,0-.54,2.28,4.79,4.79,0,0,0,.53,2.25,4,4,0,0,0,1.47,1.55A4,4,0,0,0,79.86,1137.07Z"/>
        <path class="cls-1" d="M21.64,1170.41a2.29,2.29,0,0,1-1.87-.82,3.47,3.47,0,0,1-.67-2.29v-6.83H18v-1.15H19.1v-4h1.53v4h2.68v1.15H20.63v6.74a2.31,2.31,0,0,0,.35,1.37,1.16,1.16,0,0,0,1,.47,1.81,1.81,0,0,0,1.09-.34l.39,1.21a3.22,3.22,0,0,1-.84.36A4,4,0,0,1,21.64,1170.41Z"/>
        <path class="cls-1" d="M31.93,1170.41a6.23,6.23,0,0,1-3-.73,5.42,5.42,0,0,1-2.13-2,5.6,5.6,0,0,1-.79-3,5.54,5.54,0,0,1,.79-3,5.42,5.42,0,0,1,2.13-2,6.65,6.65,0,0,1,6.06,0,5.52,5.52,0,0,1,2.14,2,5.63,5.63,0,0,1,.78,3,5.69,5.69,0,0,1-.78,3,5.52,5.52,0,0,1-2.14,2A6.23,6.23,0,0,1,31.93,1170.41Zm0-1.37a4.42,4.42,0,0,0,2.25-.56,4,4,0,0,0,1.55-1.53,4.75,4.75,0,0,0,0-4.51,4.09,4.09,0,0,0-1.55-1.54,4.88,4.88,0,0,0-4.5,0,4.24,4.24,0,0,0-1.55,1.54,4.73,4.73,0,0,0,0,4.5,4.09,4.09,0,0,0,1.55,1.54A4.42,4.42,0,0,0,31.93,1169Z"/>
        <path class="cls-1" d="M51.57,1170.41a5.19,5.19,0,0,1-4.65-2.77,6,6,0,0,1-.71-3,6.13,6.13,0,0,1,.7-2.93,5.29,5.29,0,0,1,1.92-2,5.15,5.15,0,0,1,2.76-.75,5,5,0,0,1,2.6.69,4.8,4.8,0,0,1,1.83,1.88V1152h1.53v18.07H56v-2.27a5,5,0,0,1-1.86,1.91A4.91,4.91,0,0,1,51.57,1170.41Zm.36-1.34a4.06,4.06,0,0,0,2.15-.56,3.9,3.9,0,0,0,1.46-1.55,4.68,4.68,0,0,0,.54-2.25,4.8,4.8,0,0,0-.53-2.28,3.85,3.85,0,0,0-1.47-1.55,4.37,4.37,0,0,0-4.28,0,4,4,0,0,0-1.47,1.55,4.68,4.68,0,0,0-.53,2.28,4.62,4.62,0,0,0,.53,2.25,3.85,3.85,0,0,0,1.47,1.55A4,4,0,0,0,51.93,1169.07Z"/>
        <path class="cls-1" d="M67.2,1170.41a6.23,6.23,0,0,1-3-.73,5.52,5.52,0,0,1-2.14-2,5.69,5.69,0,0,1-.78-3,5.63,5.63,0,0,1,.78-3,5.52,5.52,0,0,1,2.14-2,6.65,6.65,0,0,1,6.06,0,5.52,5.52,0,0,1,2.14,2,5.63,5.63,0,0,1,.78,3,5.69,5.69,0,0,1-.78,3,5.52,5.52,0,0,1-2.14,2A6.23,6.23,0,0,1,67.2,1170.41Zm0-1.37a4.42,4.42,0,0,0,2.25-.56A4.07,4.07,0,0,0,71,1167a4.75,4.75,0,0,0,0-4.51,4.17,4.17,0,0,0-1.55-1.54,4.88,4.88,0,0,0-4.5,0,4.17,4.17,0,0,0-1.55,1.54,4.73,4.73,0,0,0,0,4.5,4,4,0,0,0,1.55,1.54A4.42,4.42,0,0,0,67.2,1169Z"/>
        <path class="cls-1" d="M27.57,1202.07l-5.21-10.75h1.75l3.94,8.55,3.39-8.55h1l3.39,8.55,3.94-8.55h1.75l-5.22,10.75h-1L32,1193.7l-3.37,8.37Z"/>
        <path class="cls-1" d="M45.25,1189.17a1,1,0,0,1-.51-.14.92.92,0,0,1-.36-.37,1,1,0,0,1,0-1,1,1,0,0,1,.36-.36,1,1,0,0,1,.51-.14.93.93,0,0,1,.49.14,1.1,1.1,0,0,1,.36.35.89.89,0,0,1,.14.51.88.88,0,0,1-.14.5,1,1,0,0,1-.36.37A.93.93,0,0,1,45.25,1189.17Zm-.78,12.9v-10.75H46v10.75Z"/>
        <path class="cls-1" d="M53.21,1202.41a2.3,2.3,0,0,1-1.87-.82,3.53,3.53,0,0,1-.67-2.29v-6.83H49.58v-1.15h1.09v-4h1.54v4h2.67v1.15H52.21v6.74a2.31,2.31,0,0,0,.34,1.37,1.17,1.17,0,0,0,1,.47,1.77,1.77,0,0,0,1.09-.34l.39,1.21a3.22,3.22,0,0,1-.84.36A4,4,0,0,1,53.21,1202.41Z"/>
        <path class="cls-1" d="M58.37,1202.07V1184H59.9v8.79a3.55,3.55,0,0,1,1.37-1.28,4.5,4.5,0,0,1,2.26-.53,4.2,4.2,0,0,1,2.15.52,3.38,3.38,0,0,1,1.38,1.49,5.25,5.25,0,0,1,.49,2.37v6.71H66v-6.42a3.74,3.74,0,0,0-.78-2.55,2.8,2.8,0,0,0-2.2-.88,3.27,3.27,0,0,0-1.68.4,2.87,2.87,0,0,0-1.08,1.05,2.72,2.72,0,0,0-.38,1.4v7Z"/>
        <path class="cls-1" d="M18.48,1234.41a2.29,2.29,0,0,1-1.87-.82,3.47,3.47,0,0,1-.67-2.29v-6.83H14.85v-1.15h1.09v-4h1.53v4h2.68v1.15H17.47v6.74a2.31,2.31,0,0,0,.35,1.37,1.16,1.16,0,0,0,1,.47,1.81,1.81,0,0,0,1.09-.34l.39,1.21a3.22,3.22,0,0,1-.84.36A4.11,4.11,0,0,1,18.48,1234.41Z"/>
        <path class="cls-1" d="M23.64,1234.07V1216h1.53v8.79a3.48,3.48,0,0,1,1.37-1.28,4.46,4.46,0,0,1,2.25-.53,4.27,4.27,0,0,1,2.16.52,3.38,3.38,0,0,1,1.38,1.49,5.39,5.39,0,0,1,.48,2.37v6.71H31.28v-6.42a3.74,3.74,0,0,0-.78-2.55,2.78,2.78,0,0,0-2.19-.88,3.33,3.33,0,0,0-1.69.4,2.84,2.84,0,0,0-1.07,1.05,2.63,2.63,0,0,0-.38,1.4v7Z"/>
        <path class="cls-1" d="M42.18,1234.41a6,6,0,0,1-3-.75,5.48,5.48,0,0,1-2.08-2,5.55,5.55,0,0,1-.76-2.89,5.7,5.7,0,0,1,3.46-5.32A5.53,5.53,0,0,1,42,1223a5.67,5.67,0,0,1,2.84.7,5.22,5.22,0,0,1,2,1.93,5.72,5.72,0,0,1,.78,2.83c0,.09,0,.15,0,.21a.81.81,0,0,1,0,.19H37.84a4.33,4.33,0,0,0,.57,2.23,4,4,0,0,0,1.56,1.51,4.57,4.57,0,0,0,2.27.56,4.62,4.62,0,0,0,2.19-.51,4.38,4.38,0,0,0,1.62-1.47l1.14.61a5.28,5.28,0,0,1-2.09,1.94A6.09,6.09,0,0,1,42.18,1234.41Zm-4.25-6.72H46a3.73,3.73,0,0,0-.7-1.78,4.11,4.11,0,0,0-1.43-1.22,4.18,4.18,0,0,0-1.9-.44,4.25,4.25,0,0,0-1.93.44,3.93,3.93,0,0,0-1.44,1.21A3.86,3.86,0,0,0,37.93,1227.69Z"/>
        <path class="cls-1" d="M51.12,1234.07v-10.75h1.53v1.47a4.16,4.16,0,0,1,3.53-1.81,4.31,4.31,0,0,1,2.3.61,3.2,3.2,0,0,1,1.36,1.66,5,5,0,0,1,1.58-1.65,4.15,4.15,0,0,1,2.29-.62,4.31,4.31,0,0,1,2,.47,3.4,3.4,0,0,1,1.4,1.36,4.38,4.38,0,0,1,.51,2.19v7.07H66.12v-6.64a3.36,3.36,0,0,0-.77-2.33,2.61,2.61,0,0,0-2-.86,3.3,3.3,0,0,0-1.6.39,3.14,3.14,0,0,0-1.13,1,2.15,2.15,0,0,0-.42,1.27v7.17H58.62v-6.79a3.13,3.13,0,0,0-.76-2.22,2.64,2.64,0,0,0-2-.82,3.47,3.47,0,0,0-1.61.38,3.06,3.06,0,0,0-1.16,1,2,2,0,0,0-.43,1.2v7.29Z"/>
        <path class="cls-1" d="M73.75,1234.41a1.06,1.06,0,0,1-.55-.15,1.21,1.21,0,0,1-.39-.39,1.15,1.15,0,0,1-.14-.55,1.08,1.08,0,0,1,.14-.53,1.15,1.15,0,0,1,.4-.39,1,1,0,0,1,1.08,0,1.09,1.09,0,0,1,.38.39,1,1,0,0,1,.14.53,1,1,0,0,1-.14.55,1.09,1.09,0,0,1-.38.39A1,1,0,0,1,73.75,1234.41Z"/>
      </g>
    </g>
  </g>
</svg>
