<svg xmlns="http://www.w3.org/2000/svg" viewBox="0 0 94.15 1163.64">
  <defs>
    <style>
      .cls-1 {
        fill: gray;
      }
    </style>
  </defs>
  <g id="Layer_2" data-name="Layer 2">
    <g id="Layer_1-2" data-name="Layer 1">
      <g>
        <path class="cls-1" d="M21,2.65l-2.51,8h-.12L15.53,2.26A2.33,2.33,0,0,0,14.34.79V.69h2.73v.1c-.61.25-.81.4-.81.7a2.19,2.19,0,0,0,.16.64L18.56,8.5l2.09-6.76a2.12,2.12,0,0,0-.91-.95V.69h2.71v.1c-.61.25-.87.4-.87.7a2.19,2.19,0,0,0,.16.64L23.8,8.6l2.07-6.47A1.51,1.51,0,0,0,26,1.57c0-.29-.28-.44-.91-.78V.69h2.61v.1a2.31,2.31,0,0,0-1.19,1.47l-2.76,8.37H23.6Z"/>
        <path class="cls-1" d="M34.26,9c0,.93.2,1,.81,1.42v.08H32.52v-.08c.6-.38.81-.49.81-1.42V6.22c0-1-.38-1.93-1.58-1.93s-2.15,1-2.15,2.64V9c0,.93.21,1,.82,1.42v.08H27.87v-.08c.6-.38.81-.49.81-1.42V1.42c0-.73-.45-1-1-1.34V0H29.6V5.39a2.51,2.51,0,0,1,2.48-1.82c1.39,0,2.18.9,2.18,2.44Z"/>
        <path class="cls-1" d="M41.73,7H36.66c0,1.89.91,3,2.44,3a2.28,2.28,0,0,0,2.29-1.68l.28.1a2.61,2.61,0,0,1-2.81,2.24,3.15,3.15,0,0,1-3.22-3.42c0-2.22,1.41-3.64,3.15-3.64S41.73,4.83,41.73,7Zm-1-.51c0-1.2-.45-2.34-1.9-2.34-1.2,0-2,.91-2.11,2.34Z"/>
        <path class="cls-1" d="M48.83,9c0,.93.21,1,.81,1.42v.08H47.09v-.08c.6-.38.81-.49.81-1.42V6.22c0-1-.37-1.93-1.58-1.93s-2.14,1-2.14,2.64V9c0,.93.21,1,.81,1.42v.08H42.44v-.08c.6-.38.81-.49.81-1.42V5.13c0-.73-.45-1-1-1.33V3.71h1.83l.06,1.68a2.5,2.5,0,0,1,2.48-1.82c1.38,0,2.17.9,2.17,2.44Z"/>
        <path class="cls-1" d="M52.52.79V.69h2.75v.1a1.26,1.26,0,0,0-.9,1.44V9c0,.93.24,1.09.9,1.44v.1H52.52v-.1c.66-.35.9-.51.9-1.44V2.23A1.26,1.26,0,0,0,52.52.79Z"/>
        <path class="cls-1" d="M62.56,5.28l-1.92,5.35h0L58.65,5.37A2.79,2.79,0,0,0,57.56,3.8V3.71h2.25V3.8c-.36.22-.49.33-.49.53a2.76,2.76,0,0,0,.24.89l1.26,3.52,1.45-4.2a1.73,1.73,0,0,0-.77-.74V3.71h2.22V3.8c-.36.21-.49.33-.49.53a3,3,0,0,0,.23.89L64.61,8.8,66,5.21a1.76,1.76,0,0,0,.2-.68c0-.27-.25-.45-.8-.73V3.71h2.23V3.8A2.86,2.86,0,0,0,66.5,5.37l-2.08,5.26h0Z"/>
        <path class="cls-1" d="M74.42,10.37a3.55,3.55,0,0,1-1.13.22c-.79,0-1.2-.5-1.2-1.51a2.57,2.57,0,0,1-2.45,1.55c-1.13,0-2-.59-2-1.73C67.64,7.42,69.22,7,71,6.67l1.12-.2V6c0-1.43-.51-1.92-1.66-1.92-.88,0-1.43.42-1.43,1.12a1.1,1.1,0,0,0,.2.64,1,1,0,0,1-.56.16c-.39,0-.67-.25-.67-.75,0-.86,1-1.72,2.63-1.72s2.47.81,2.47,2.3,0,2.42,0,3.22.47,1.07,1.42,1.09ZM71,7.14c-1.47.28-2.3.68-2.3,1.7,0,.8.52,1.18,1.33,1.18a2.23,2.23,0,0,0,2.08-2.4V6.93Z"/>
        <path class="cls-1" d="M75.73,5.25c0,.7.47,1.07,1.73,1.29,1.84.32,2.49.94,2.49,2a2.2,2.2,0,0,1-2.48,2.07,3.92,3.92,0,0,1-2-.6l-.47.6h-.1L74.7,8.07h.18c.66,1.32,1.51,2,2.59,2,.91,0,1.6-.43,1.6-1.31s-.66-1.13-1.92-1.35c-1.66-.29-2.26-.87-2.26-1.93a2,2,0,0,1,2.24-1.91A3.23,3.23,0,0,1,79,4.16l.5-.59h.1v2.3h-.15a3,3,0,0,0-2.33-1.75C76.22,4.12,75.73,4.6,75.73,5.25Z"/>
        <path class="cls-1" d="M13.72,55.28,11.8,60.63h-.05L9.81,55.37A2.79,2.79,0,0,0,8.72,53.8v-.09H11v.09c-.37.22-.49.33-.49.53a2.69,2.69,0,0,0,.23.89L12,58.74l1.44-4.2a1.73,1.73,0,0,0-.77-.74v-.09h2.22v.09c-.36.21-.49.33-.49.53a3,3,0,0,0,.23.89l1.15,3.58,1.36-3.59a1.87,1.87,0,0,0,.19-.68c0-.27-.25-.45-.8-.73v-.09h2.23v.09a2.86,2.86,0,0,0-1.09,1.57l-2.07,5.26h-.06Z"/>
        <path class="cls-1" d="M20.54,59.13c0,.79.28,1,1.36,1.25v.11H18.8v-.08c.6-.38.82-.49.82-1.42V55.13c0-.73-.45-1-1-1.33v-.09h1.83l.06,1.91c.38-1.07,1.06-2,2.24-2,.69,0,1.09.37,1.09.91a.71.71,0,0,1-.81.74c0-.51-.19-.82-.7-.82-1,0-1.82,1.4-1.82,3Z"/>
        <path class="cls-1" d="M26,59c0,.93.21,1,.82,1.42v.08H24.28v-.08c.6-.38.81-.49.81-1.42V55.13c0-.73-.45-1-1-1.33v-.09H26Zm-.56-8.46a.76.76,0,0,1,.76.76.75.75,0,0,1-.76.75.74.74,0,0,1-.75-.75A.75.75,0,0,1,25.45,50.53Z"/>
        <path class="cls-1" d="M27.11,53.91c1.17-.24,1.48-1.11,1.68-2.49h.37v2.29h2.47l-.07.53h-2.4V58.7a1.07,1.07,0,0,0,1.14,1.23c.75,0,1.23-.47,1.41-1.52l.27,0c-.09,1.3-.78,2.18-1.91,2.18a1.71,1.71,0,0,1-1.85-1.82V54.24H27.11Z"/>
        <path class="cls-1" d="M34.26,59c0,.93.21,1,.81,1.42v.08H32.52v-.08c.6-.38.81-.49.81-1.42V55.13c0-.73-.44-1-1-1.33v-.09h1.89Zm-.56-8.46a.76.76,0,0,1,.76.76.76.76,0,0,1-1.52,0A.76.76,0,0,1,33.7,50.53Z"/>
        <path class="cls-1" d="M42.05,59c0,.93.21,1,.81,1.42v.08H40.31v-.08c.6-.38.81-.49.81-1.42V56.22c0-1-.38-1.93-1.58-1.93s-2.14,1-2.14,2.64V59c0,.93.21,1,.81,1.42v.08H35.66v-.08c.6-.38.81-.49.81-1.42V55.13c0-.73-.45-1-1-1.33v-.09h1.83l.06,1.68a2.5,2.5,0,0,1,2.48-1.82c1.38,0,2.17.9,2.17,2.44Z"/>
        <path class="cls-1" d="M46.4,63.64c-1.7,0-3.24-.6-3.24-1.94,0-.8.73-1.39,1.89-1.59-.71-.11-1.36-.39-1.36-1.16a1.54,1.54,0,0,1,1.11-1.33,2.13,2.13,0,0,1-.9-1.79,2.28,2.28,0,0,1,2.57-2.26,2.73,2.73,0,0,1,1.89.65,2,2,0,0,1,1.43-1,.73.73,0,0,1,.8.74.7.7,0,0,1-.71.7c0-.34-.16-.62-.51-.62a1,1,0,0,0-.75.45A2.25,2.25,0,0,1,49,55.83a2.28,2.28,0,0,1-2.56,2.25,3.21,3.21,0,0,1-1.39-.29,1,1,0,0,0-.62.8c0,.57.4.74,1.22.74h1.73c1.66,0,2.63.62,2.63,1.89C50,62.82,48.34,63.64,46.4,63.64Zm-.14-3.44c-1.4,0-2.12.49-2.12,1.43s1,1.47,2.26,1.47c1.59,0,2.74-.6,2.74-1.68,0-.73-.49-1.22-1.72-1.22Zm.21-6.11a1.74,1.74,0,0,0,0,3.47c.94,0,1.55-.61,1.55-1.73S47.41,54.09,46.47,54.09Z"/>
        <path class="cls-1" d="M52.71,53.91c1.18-.24,1.48-1.11,1.68-2.49h.38v2.29h2.46l-.07.53H54.77V58.7c0,.8.42,1.23,1.13,1.23s1.24-.47,1.42-1.52l.26,0c-.08,1.3-.78,2.18-1.9,2.18a1.71,1.71,0,0,1-1.85-1.82V54.24H52.71Z"/>
        <path class="cls-1" d="M64.45,59c0,.93.21,1,.81,1.42v.08H62.71v-.08c.6-.38.81-.49.81-1.42V56.22c0-1-.38-1.93-1.58-1.93s-2.15,1-2.15,2.64V59c0,.93.22,1,.82,1.42v.08H58.06v-.08c.6-.38.81-.49.81-1.42V51.42c0-.73-.45-1-1-1.34V50h1.89v5.39a2.51,2.51,0,0,1,2.48-1.82c1.39,0,2.18.9,2.18,2.44Z"/>
        <path class="cls-1" d="M69.15,60.63a3.54,3.54,0,1,1,3.32-3.53A3.31,3.31,0,0,1,69.15,60.63Zm0-6.48c-1.47,0-2.27,1.19-2.27,3s.8,3,2.27,3,2.27-1.2,2.27-3S70.62,54.15,69.15,54.15Z"/>
        <path class="cls-1" d="M74.34,55.25c0,.7.46,1.07,1.72,1.29,1.85.32,2.5.94,2.5,2a2.2,2.2,0,0,1-2.48,2.07,3.89,3.89,0,0,1-2-.6l-.47.6h-.1l-.16-2.56h.19a3,3,0,0,0,2.59,2c.91,0,1.59-.43,1.59-1.31s-.65-1.13-1.91-1.35c-1.66-.29-2.26-.87-2.26-1.93a2,2,0,0,1,2.24-1.91,3.23,3.23,0,0,1,1.88.59l.5-.59h.1v2.3h-.15a3,3,0,0,0-2.33-1.75C74.83,54.12,74.34,54.6,74.34,55.25Z"/>
        <path class="cls-1" d="M85.53,57H80.46c0,1.89.91,3,2.44,3a2.28,2.28,0,0,0,2.29-1.68l.28.1a2.61,2.61,0,0,1-2.81,2.24,3.15,3.15,0,0,1-3.22-3.42c0-2.22,1.41-3.64,3.15-3.64S85.53,54.83,85.53,57Zm-1-.51c0-1.2-.45-2.34-1.91-2.34-1.19,0-1.94.91-2.1,2.34Z"/>
        <path class="cls-1" d="M5.61,109c0,.93.21,1,.81,1.42v.08H3.87v-.08c.6-.38.81-.49.81-1.42v-7.57c0-.73-.44-1-1-1.34V100H5.61Z"/>
        <path class="cls-1" d="M10.31,110.63a3.54,3.54,0,1,1,3.32-3.53A3.31,3.31,0,0,1,10.31,110.63Zm0-6.48c-1.47,0-2.27,1.19-2.27,2.95s.8,3,2.27,3,2.27-1.2,2.27-3S11.78,104.15,10.31,104.15Z"/>
        <path class="cls-1" d="M20.73,109c0,.93.21,1,.81,1.42v.08H19v-.08c.61-.38.82-.49.82-1.42v-2.77c0-1-.38-1.93-1.59-1.93s-2.14,1-2.14,2.64V109c0,.93.21,1,.81,1.42v.08H14.34v-.08c.61-.38.81-.49.81-1.42v-3.86c0-.73-.44-1-1-1.33v-.09H16l.06,1.68a2.5,2.5,0,0,1,2.48-1.82c1.39,0,2.17.9,2.17,2.44Z"/>
        <path class="cls-1" d="M25.08,113.64c-1.69,0-3.23-.6-3.23-1.94,0-.8.72-1.39,1.89-1.59-.72-.11-1.36-.39-1.36-1.16a1.53,1.53,0,0,1,1.1-1.33,2.15,2.15,0,0,1-.89-1.79,2.28,2.28,0,0,1,2.56-2.26,2.69,2.69,0,0,1,1.89.65,2,2,0,0,1,1.43-1,.73.73,0,0,1,.8.74.7.7,0,0,1-.7.7c0-.34-.17-.62-.52-.62a1,1,0,0,0-.74.45,2.24,2.24,0,0,1,.4,1.32,2.27,2.27,0,0,1-2.56,2.25,3.16,3.16,0,0,1-1.38-.29,1,1,0,0,0-.62.8c0,.57.39.74,1.22.74h1.72c1.67,0,2.63.62,2.63,1.89C28.72,112.82,27,113.64,25.08,113.64Zm-.14-3.44c-1.4,0-2.11.49-2.11,1.43s1,1.47,2.25,1.47c1.6,0,2.75-.6,2.75-1.68,0-.73-.49-1.22-1.72-1.22Zm.21-6.11c-.94,0-1.55.62-1.55,1.74s.61,1.73,1.55,1.73a1.74,1.74,0,0,0,0-3.47Z"/>
        <path class="cls-1" d="M32.79,105.25c0,.7.47,1.07,1.73,1.29,1.85.32,2.49.94,2.49,2,0,1.27-1.06,2.07-2.48,2.07a3.86,3.86,0,0,1-2-.6l-.48.6h-.1l-.15-2.56h.18c.66,1.32,1.51,2,2.59,2,.91,0,1.6-.43,1.6-1.31s-.66-1.13-1.92-1.35c-1.65-.29-2.25-.87-2.25-1.93a2,2,0,0,1,2.24-1.91,3.22,3.22,0,0,1,1.87.59l.51-.59h.1v2.3h-.16a3,3,0,0,0-2.32-1.75C33.29,104.12,32.79,104.6,32.79,105.25Z"/>
        <path class="cls-1" d="M44,107H38.91c0,1.89.91,3,2.44,3a2.29,2.29,0,0,0,2.3-1.68l.28.1a2.63,2.63,0,0,1-2.82,2.24,3.15,3.15,0,0,1-3.22-3.42c0-2.22,1.41-3.64,3.15-3.64S44,104.83,44,107Zm-1-.51c0-1.2-.45-2.34-1.9-2.34-1.19,0-2,.91-2.1,2.34Z"/>
        <path class="cls-1" d="M51.08,109c0,.93.21,1,.81,1.42v.08H49.35v-.08c.6-.38.81-.49.81-1.42v-2.77c0-1-.38-1.93-1.59-1.93s-2.14,1-2.14,2.64V109c0,.93.21,1,.81,1.42v.08H44.69v-.08c.61-.38.82-.49.82-1.42v-3.86c0-.73-.45-1-1-1.33v-.09h1.84l0,1.68a2.5,2.5,0,0,1,2.48-1.82c1.39,0,2.17.9,2.17,2.44Z"/>
        <path class="cls-1" d="M52.22,103.91c1.18-.24,1.49-1.11,1.69-2.49h.37v2.29h2.47l-.07.53h-2.4v4.46a1.08,1.08,0,0,0,1.14,1.23c.76,0,1.23-.47,1.41-1.52l.27,0c-.08,1.3-.79,2.18-1.9,2.18a1.71,1.71,0,0,1-1.85-1.82v-4.57H52.22Z"/>
        <path class="cls-1" d="M63.67,107H58.6c0,1.89.91,3,2.43,3a2.28,2.28,0,0,0,2.3-1.68l.28.1a2.62,2.62,0,0,1-2.82,2.24,3.16,3.16,0,0,1-3.22-3.42c0-2.22,1.42-3.64,3.15-3.64S63.67,104.83,63.67,107Zm-1.05-.51c0-1.2-.45-2.34-1.91-2.34-1.19,0-2,.91-2.1,2.34Z"/>
        <path class="cls-1" d="M70.77,109c0,.93.2,1,.81,1.42v.08H69v-.08c.6-.38.81-.49.81-1.42v-2.77c0-1-.38-1.93-1.58-1.93s-2.14,1-2.14,2.64V109c0,.93.2,1,.81,1.42v.08H64.38v-.08c.6-.38.81-.49.81-1.42v-3.86c0-.73-.45-1-1-1.33v-.09h1.84l.06,1.68a2.49,2.49,0,0,1,2.47-1.82c1.39,0,2.18.9,2.18,2.44Z"/>
        <path class="cls-1" d="M73.18,107.06c0,1.81.93,2.9,2.34,2.9a2.3,2.3,0,0,0,2.26-1.68l.26.11a2.6,2.6,0,0,1-2.74,2.24,3.11,3.11,0,0,1-3.15-3.42,3.37,3.37,0,0,1,3.33-3.64c1.41,0,2.41.74,2.41,1.7a.75.75,0,0,1-.83.8.61.61,0,0,1-.22,0,1.59,1.59,0,0,0,.07-.49,1.32,1.32,0,0,0-1.43-1.42C74,104.13,73.18,105.42,73.18,107.06Z"/>
        <path class="cls-1" d="M84.85,107H79.78c0,1.89.91,3,2.43,3a2.28,2.28,0,0,0,2.3-1.68l.28.1A2.62,2.62,0,0,1,82,110.63a3.15,3.15,0,0,1-3.22-3.42c0-2.22,1.41-3.64,3.15-3.64S84.85,104.83,84.85,107Zm-1-.51c0-1.2-.45-2.34-1.91-2.34-1.19,0-1.94.91-2.1,2.34Z"/>
        <path class="cls-1" d="M86.65,105.25c0,.7.46,1.07,1.73,1.29,1.84.32,2.49.94,2.49,2a2.2,2.2,0,0,1-2.48,2.07,3.89,3.89,0,0,1-2-.6l-.47.6h-.1l-.15-2.56h.18c.66,1.32,1.51,2,2.59,2,.91,0,1.59-.43,1.59-1.31s-.65-1.13-1.91-1.35c-1.66-.29-2.26-.87-2.26-1.93a2,2,0,0,1,2.24-1.91,3.23,3.23,0,0,1,1.88.59l.5-.59h.1v2.3h-.15a3,3,0,0,0-2.33-1.75C87.14,104.12,86.65,104.6,86.65,105.25Z"/>
        <path class="cls-1" d="M8.8,160.63a3.54,3.54,0,1,1,3.32-3.53A3.31,3.31,0,0,1,8.8,160.63Zm0-6.48c-1.47,0-2.27,1.19-2.27,2.95s.8,3,2.27,3,2.27-1.2,2.27-3S10.27,154.15,8.8,154.15Z"/>
        <path class="cls-1" d="M14.57,159.13c0,.79.33,1,1.41,1.25v.11H12.83v-.08c.6-.38.81-.49.81-1.42v-4.75h-1v-.33l1-.28v-1A2.43,2.43,0,0,1,16.16,150c1.07,0,1.87.57,1.87,1.26a.68.68,0,0,1-.77.71,1,1,0,0,1-.3,0,1.41,1.41,0,0,0,.1-.6c0-.49-.36-.86-1-.86-.87,0-1.46.7-1.46,2v1.31h2l-.07.53H14.57Z"/>
        <path class="cls-1" d="M27,150.69a3.64,3.64,0,0,0,.84-.09l.48,2.48h-.11c-.8-1.2-1.23-1.92-2.51-1.92h-1.5V159c0,.93.24,1.09,1,1.44v.1h-3v-.1c.8-.35,1-.51,1-1.44v-7.79h-1.5c-1.27,0-1.71.72-2.51,1.92H19.1l.48-2.48a3.71,3.71,0,0,0,.84.09Z"/>
        <path class="cls-1" d="M35.13,159c0,.93.22,1,.82,1.42v.08H33.4v-.08c.6-.38.81-.49.81-1.42v-2.77c0-1-.38-1.93-1.58-1.93s-2.15,1-2.15,2.64V159c0,.93.22,1,.82,1.42v.08H28.75v-.08c.6-.38.81-.49.81-1.42v-7.57c0-.73-.45-1-1-1.34V150h1.89v5.39A2.51,2.51,0,0,1,33,153.57c1.39,0,2.17.9,2.17,2.44Z"/>
        <path class="cls-1" d="M42.61,157H37.54c0,1.89.91,3,2.44,3a2.3,2.3,0,0,0,2.3-1.68l.27.1a2.61,2.61,0,0,1-2.81,2.24,3.15,3.15,0,0,1-3.22-3.42c0-2.22,1.41-3.64,3.15-3.64S42.61,154.83,42.61,157Zm-1-.51c0-1.2-.45-2.34-1.9-2.34-1.2,0-1.95.91-2.11,2.34Z"/>
        <path class="cls-1" d="M54.81,150.69h2.13v.1a1.26,1.26,0,0,0-.9,1.44V159c0,.93.24,1.09.9,1.44v.1H54.19v-.1c.66-.35.9-.51.9-1.44v-7.46l-4,9.16h0l-4-9.16V159c0,.93.38,1.09,1,1.44v.1H45.42v-.1c.66-.35,1-.51,1-1.44v-6.72a1.26,1.26,0,0,0-.9-1.44v-.1h2.29l3.5,8.14Z"/>
        <path class="cls-1" d="M64.49,160.37a3.55,3.55,0,0,1-1.13.22c-.79,0-1.19-.5-1.19-1.51a2.59,2.59,0,0,1-2.45,1.55c-1.14,0-2-.59-2-1.73,0-1.48,1.58-1.92,3.31-2.23l1.12-.2V156c0-1.43-.51-1.92-1.65-1.92-.89,0-1.43.42-1.43,1.12a1.17,1.17,0,0,0,.19.64.91.91,0,0,1-.56.16c-.39,0-.67-.25-.67-.75,0-.86,1-1.72,2.63-1.72s2.47.81,2.47,2.3,0,2.42,0,3.22.46,1.07,1.41,1.09ZM61,157.14c-1.47.28-2.29.68-2.29,1.7,0,.8.51,1.18,1.33,1.18a2.22,2.22,0,0,0,2.07-2.4v-.69Z"/>
        <path class="cls-1" d="M67.05,160.49H64.5v-.08c.61-.38.82-.49.82-1.42v-7.57c0-.73-.45-1-1-1.34V150h1.89v6.47h.38a.85.85,0,0,0,.71-.22L69,154.68c.2-.18.25-.28.25-.41s-.15-.31-.43-.47v-.09h2.59v.09a4.28,4.28,0,0,0-1.82,1l-1.77,1.67,2.36,2.82a3.59,3.59,0,0,0,1.68,1.07v.1H69.71a2.43,2.43,0,0,0-.57-1l-1.86-2.27a.59.59,0,0,0-.54-.29h-.5v2c0,.93.21,1,.81,1.42Z"/>
        <path class="cls-1" d="M73.62,159c0,.93.21,1,.81,1.42v.08H71.88v-.08c.6-.38.81-.49.81-1.42v-3.86c0-.73-.44-1-1-1.33v-.09h1.89Zm-.56-8.46a.75.75,0,0,1,.75.76.74.74,0,0,1-.75.75.75.75,0,0,1-.76-.75A.76.76,0,0,1,73.06,150.53Z"/>
        <path class="cls-1" d="M81.4,159c0,.93.22,1,.82,1.42v.08H79.67v-.08c.6-.38.81-.49.81-1.42v-2.77c0-1-.38-1.93-1.58-1.93s-2.15,1-2.15,2.64V159c0,.93.21,1,.82,1.42v.08H75v-.08c.6-.38.81-.49.81-1.42v-3.86c0-.73-.45-1-1-1.33v-.09H76.7l0,1.68a2.51,2.51,0,0,1,2.48-1.82c1.39,0,2.17.9,2.17,2.44Z"/>
        <path class="cls-1" d="M85.76,163.64c-1.7,0-3.24-.6-3.24-1.94,0-.8.73-1.39,1.89-1.59-.71-.11-1.36-.39-1.36-1.16a1.54,1.54,0,0,1,1.11-1.33,2.13,2.13,0,0,1-.9-1.79,2.28,2.28,0,0,1,2.57-2.26,2.73,2.73,0,0,1,1.89.65,2,2,0,0,1,1.43-1,.73.73,0,0,1,.8.74.7.7,0,0,1-.71.7c0-.34-.16-.62-.51-.62a1,1,0,0,0-.75.45,2.25,2.25,0,0,1,.41,1.32,2.28,2.28,0,0,1-2.56,2.25,3.21,3.21,0,0,1-1.39-.29,1,1,0,0,0-.62.8c0,.57.4.74,1.22.74h1.73c1.66,0,2.63.62,2.63,1.89C89.4,162.82,87.7,163.64,85.76,163.64Zm-.14-3.44c-1.4,0-2.12.49-2.12,1.43s1,1.47,2.26,1.47c1.59,0,2.74-.6,2.74-1.68,0-.73-.49-1.22-1.72-1.22Zm.21-6.11a1.74,1.74,0,0,0,0,3.47c.94,0,1.55-.61,1.55-1.73S86.77,154.09,85.83,154.09Z"/>
        <path class="cls-1" d="M10.47,210.63a3.54,3.54,0,1,1,3.32-3.53A3.31,3.31,0,0,1,10.47,210.63Zm0-6.48c-1.47,0-2.27,1.19-2.27,2.95s.8,3,2.27,3,2.27-1.2,2.27-3S11.94,204.15,10.47,204.15Z"/>
        <path class="cls-1" d="M16.23,209.13c0,.79.34,1,1.42,1.25v.11H14.5v-.08c.6-.38.81-.49.81-1.42v-4.75h-1v-.33l1-.28v-1A2.43,2.43,0,0,1,17.83,200c1.06,0,1.86.57,1.86,1.26a.68.68,0,0,1-.77.71,1,1,0,0,1-.29,0,1.58,1.58,0,0,0,.1-.6c0-.49-.37-.86-1-.86-.87,0-1.46.7-1.46,2v1.31h2l-.07.53H16.23Z"/>
        <path class="cls-1" d="M23.07,210.49H20.43v-.1a2.93,2.93,0,0,0,1.28-1.47l3.88-8.37h.07l3.88,8.37a2.77,2.77,0,0,0,1.2,1.47v.1H28v-.1c.61-.25.79-.4.79-.7a1.33,1.33,0,0,0-.19-.61l-.93-2H23.22l-.9,2a1.29,1.29,0,0,0-.18.61c0,.3.31.45.93.7Zm.4-3.93h4l-2-4.32Z"/>
        <path class="cls-1" d="M39.41,203.57c1.3,0,2,.9,2,2.44v3c0,.93.21,1,.82,1.42v.08H39.69v-.08c.6-.38.81-.49.81-1.42v-2.77c0-1-.28-2-1.42-2s-2,1-2,2.67V209c0,.93.21,1,.81,1.42v.08H35.34v-.08c.61-.38.82-.49.82-1.42v-2.77c0-1-.28-2-1.42-2s-2,1-2,2.67V209c0,.93.21,1,.81,1.42v.08H31v-.08c.6-.38.81-.49.81-1.42v-3.86c0-.73-.44-1-1-1.33v-.09h1.83l.06,1.68a2.39,2.39,0,0,1,2.32-1.82,1.87,1.87,0,0,1,2,1.88A2.42,2.42,0,0,1,39.41,203.57Z"/>
        <path class="cls-1" d="M48.9,207H43.83c0,1.89.91,3,2.43,3a2.28,2.28,0,0,0,2.3-1.68l.28.1A2.62,2.62,0,0,1,46,210.63a3.16,3.16,0,0,1-3.23-3.42c0-2.22,1.42-3.64,3.16-3.64S48.9,204.83,48.9,207Zm-1-.51c0-1.2-.45-2.34-1.91-2.34-1.19,0-1.95.91-2.1,2.34Z"/>
        <path class="cls-1" d="M51.34,209.13c0,.79.28,1,1.36,1.25v.11H49.61v-.08c.6-.38.81-.49.81-1.42v-3.86c0-.73-.45-1-1-1.33v-.09h1.84l.05,1.91c.38-1.07,1.07-2.05,2.25-2.05.68,0,1.09.37,1.09.91a.71.71,0,0,1-.81.74c0-.51-.2-.82-.7-.82-1,0-1.83,1.4-1.83,2.95Z"/>
        <path class="cls-1" d="M56.82,209c0,.93.21,1,.81,1.42v.08H55.08v-.08c.6-.38.81-.49.81-1.42v-3.86c0-.73-.44-1-1-1.33v-.09h1.89Zm-.56-8.46a.76.76,0,0,1,.76.76.76.76,0,0,1-1.52,0A.76.76,0,0,1,56.26,200.53Z"/>
        <path class="cls-1" d="M59.18,207.06c0,1.81.93,2.9,2.34,2.9a2.29,2.29,0,0,0,2.26-1.68l.26.11a2.6,2.6,0,0,1-2.74,2.24,3.11,3.11,0,0,1-3.15-3.42,3.37,3.37,0,0,1,3.33-3.64c1.42,0,2.41.74,2.41,1.7a.75.75,0,0,1-.83.8.61.61,0,0,1-.22,0,1.59,1.59,0,0,0,.07-.49,1.31,1.31,0,0,0-1.43-1.42C60,204.13,59.18,205.42,59.18,207.06Z"/>
        <path class="cls-1" d="M71.47,210.37a3.55,3.55,0,0,1-1.14.22c-.78,0-1.19-.5-1.19-1.51a2.59,2.59,0,0,1-2.45,1.55c-1.14,0-2-.59-2-1.73,0-1.48,1.58-1.92,3.3-2.23l1.12-.2V206c0-1.43-.5-1.92-1.65-1.92-.88,0-1.43.42-1.43,1.12a1.1,1.1,0,0,0,.2.64,1,1,0,0,1-.56.16.66.66,0,0,1-.68-.75c0-.86,1-1.72,2.64-1.72s2.46.81,2.46,2.3,0,2.42,0,3.22.46,1.07,1.42,1.09ZM68,207.14c-1.47.28-2.3.68-2.3,1.7,0,.8.52,1.18,1.33,1.18a2.22,2.22,0,0,0,2.07-2.4v-.69Z"/>
        <path class="cls-1" d="M77.93,209c0,.93.21,1,.82,1.42v.08H76.2v-.08c.6-.38.81-.49.81-1.42v-2.77c0-1-.38-1.93-1.58-1.93s-2.15,1-2.15,2.64V209c0,.93.21,1,.82,1.42v.08H71.55v-.08c.6-.38.81-.49.81-1.42v-3.86c0-.73-.45-1-1-1.33v-.09h1.84l0,1.68a2.51,2.51,0,0,1,2.48-1.82c1.39,0,2.17.9,2.17,2.44Z"/>
        <path class="cls-1" d="M80.48,205.25c0,.7.46,1.07,1.72,1.29,1.85.32,2.5.94,2.5,2,0,1.27-1.07,2.07-2.49,2.07a3.89,3.89,0,0,1-2-.6l-.48.6H79.6l-.16-2.56h.18c.66,1.32,1.52,2,2.59,2,.91,0,1.6-.43,1.6-1.31s-.66-1.13-1.92-1.35c-1.65-.29-2.25-.87-2.25-1.93a2,2,0,0,1,2.24-1.91,3.25,3.25,0,0,1,1.88.59l.5-.59h.1v2.3h-.15a3,3,0,0,0-2.33-1.75C81,204.12,80.48,204.6,80.48,205.25Z"/>
        <path class="cls-1" d="M86.48,210.45a.68.68,0,0,1-.68-.69.71.71,0,0,1,.77-.74c.62,0,1,.49,1,1.29a2.11,2.11,0,0,1-2,2.19v-.37A1.61,1.61,0,0,0,87,210.32.82.82,0,0,1,86.48,210.45Z"/>
        <path class="cls-1" d="M17.66,255.22a1.7,1.7,0,0,0,.22-.75c0-.27-.35-.46-.74-.67v-.09h2.23v.09a3.6,3.6,0,0,0-1.15,1.57l-2.44,5.26h-.06l-2.43-5.26a3.68,3.68,0,0,0-1.15-1.57v-.09h2.28v.09c-.36.22-.53.31-.53.54a2.47,2.47,0,0,0,.29.88L16,259.05Z"/>
        <path class="cls-1" d="M25.44,257H20.37c0,1.89.91,3,2.44,3a2.29,2.29,0,0,0,2.3-1.68l.28.1a2.63,2.63,0,0,1-2.82,2.24,3.15,3.15,0,0,1-3.22-3.42c0-2.22,1.41-3.64,3.15-3.64S25.44,254.83,25.44,257Zm-1.05-.51c0-1.2-.45-2.34-1.9-2.34-1.19,0-1.95.91-2.11,2.34Z"/>
        <path class="cls-1" d="M27.89,259.13c0,.79.28,1,1.36,1.25v.11h-3.1v-.08c.6-.38.81-.49.81-1.42v-3.86c0-.73-.44-1-1-1.33v-.09h1.83l.06,1.91c.38-1.07,1.06-2.05,2.24-2.05.69,0,1.09.37,1.09.91a.71.71,0,0,1-.81.74c0-.51-.2-.82-.7-.82-1,0-1.82,1.4-1.82,3Z"/>
        <path class="cls-1" d="M32.27,260.63h-.18a14.2,14.2,0,0,0,.2-3.11v-6.1c0-.73-.45-1-1-1.34V250h1.89v5.41a2.6,2.6,0,0,1,2.52-1.84c1.74,0,3,1.29,3,3.42a3.35,3.35,0,0,1-3.15,3.64,2.73,2.73,0,0,1-2.53-1.43A2.2,2.2,0,0,1,32.27,260.63Zm.94-2.85A2.1,2.1,0,0,0,35.39,260c1.38,0,2.34-1.13,2.34-3,0-1.64-.88-2.75-2.29-2.75a2.42,2.42,0,0,0-2.23,2.62Z"/>
        <path class="cls-1" d="M40.63,255.25c0,.7.46,1.07,1.72,1.29,1.85.32,2.5.94,2.5,2a2.2,2.2,0,0,1-2.48,2.07,3.89,3.89,0,0,1-2-.6l-.48.6h-.09l-.16-2.56h.18c.66,1.32,1.52,2,2.6,2,.91,0,1.59-.43,1.59-1.31s-.66-1.13-1.92-1.35c-1.65-.29-2.25-.87-2.25-1.93A2,2,0,0,1,42,253.57a3.25,3.25,0,0,1,1.88.59l.5-.59h.1v2.3h-.15A3,3,0,0,0,42,254.12C41.12,254.12,40.63,254.6,40.63,255.25Z"/>
        <path class="cls-1" d="M54.74,260.37a3.44,3.44,0,0,1-1.13.22c-.79,0-1.19-.5-1.19-1.51A2.59,2.59,0,0,1,50,260.63c-1.14,0-2-.59-2-1.73,0-1.48,1.59-1.92,3.31-2.23l1.12-.2V256c0-1.43-.5-1.92-1.65-1.92-.88,0-1.43.42-1.43,1.12a1.17,1.17,0,0,0,.19.64A.9.9,0,0,1,49,256a.66.66,0,0,1-.68-.75c0-.86,1-1.72,2.64-1.72s2.46.81,2.46,2.3,0,2.42,0,3.22.46,1.07,1.41,1.09Zm-3.46-3.23c-1.47.28-2.29.68-2.29,1.7,0,.8.51,1.18,1.33,1.18a2.22,2.22,0,0,0,2.07-2.4v-.69Z"/>
        <path class="cls-1" d="M55.79,257.06c0,1.81.92,2.9,2.34,2.9a2.28,2.28,0,0,0,2.25-1.68l.27.11a2.6,2.6,0,0,1-2.74,2.24,3.11,3.11,0,0,1-3.16-3.42,3.38,3.38,0,0,1,3.34-3.64c1.41,0,2.41.74,2.41,1.7a.75.75,0,0,1-.83.8.61.61,0,0,1-.22,0,1.59,1.59,0,0,0,.07-.49,1.32,1.32,0,0,0-1.43-1.42C56.64,254.13,55.79,255.42,55.79,257.06Z"/>
        <path class="cls-1" d="M61,253.91c1.18-.24,1.49-1.11,1.68-2.49H63v2.29h2.47l-.07.53H63v4.46a1.07,1.07,0,0,0,1.14,1.23c.75,0,1.23-.47,1.41-1.52l.27,0c-.09,1.3-.79,2.18-1.91,2.18a1.71,1.71,0,0,1-1.85-1.82v-4.57H61Z"/>
        <path class="cls-1" d="M68.14,259c0,.93.21,1,.81,1.42v.08H66.4v-.08c.6-.38.81-.49.81-1.42v-3.86c0-.73-.44-1-1-1.33v-.09h1.89Zm-.56-8.46a.76.76,0,0,1,.76.76.76.76,0,0,1-1.52,0A.76.76,0,0,1,67.58,250.53Z"/>
        <path class="cls-1" d="M74.33,255.22a1.57,1.57,0,0,0,.22-.75c0-.27-.35-.46-.74-.67v-.09H76v.09a3.6,3.6,0,0,0-1.15,1.57l-2.44,5.26h0L70,255.37a3.6,3.6,0,0,0-1.15-1.57v-.09h2.28v.09c-.36.22-.53.31-.53.54a2.34,2.34,0,0,0,.3.88l1.76,3.83Z"/>
        <path class="cls-1" d="M82.11,257H77c0,1.89.91,3,2.44,3a2.29,2.29,0,0,0,2.3-1.68l.28.1a2.63,2.63,0,0,1-2.82,2.24A3.15,3.15,0,0,1,76,257.21c0-2.22,1.42-3.64,3.15-3.64S82.11,254.83,82.11,257Zm-1-.51c0-1.2-.44-2.34-1.9-2.34-1.19,0-2,.91-2.1,2.34Z"/>
        <path class="cls-1" d="M9,312c0,.93.32,1.06,1.09,1.39v.11H7.23v-.08c.6-.38.81-.49.81-1.42v-6.87c0-.73-.44-1-1-1.33v-.09H8.91l.06,1.7a2.6,2.6,0,0,1,2.52-1.84c1.74,0,3,1.29,3,3.42a3.35,3.35,0,0,1-3.16,3.64A2.45,2.45,0,0,1,9,309.26Zm0-4.22A2.1,2.1,0,0,0,11.15,310c1.38,0,2.34-1.13,2.34-3,0-1.64-.88-2.75-2.29-2.75A2.42,2.42,0,0,0,9,306.86Z"/>
        <path class="cls-1" d="M17,309.13c0,.79.28,1,1.36,1.25v.11h-3.1v-.08c.61-.38.82-.49.82-1.42v-3.86c0-.73-.45-1-1-1.33v-.09h1.84l.05,1.91c.38-1.07,1.07-2.05,2.24-2.05.69,0,1.1.37,1.1.91a.72.72,0,0,1-.82.74c.05-.51-.19-.82-.7-.82-1,0-1.82,1.4-1.82,3Z"/>
        <path class="cls-1" d="M26.65,307H21.58c0,1.89.91,3,2.44,3a2.3,2.3,0,0,0,2.3-1.68l.28.1a2.63,2.63,0,0,1-2.82,2.24,3.15,3.15,0,0,1-3.22-3.42c0-2.22,1.41-3.64,3.15-3.64S26.65,304.83,26.65,307Zm-1-.51c0-1.2-.45-2.34-1.9-2.34-1.19,0-1.95.91-2.1,2.34Z"/>
        <path class="cls-1" d="M28.46,305.25c0,.7.46,1.07,1.72,1.29,1.85.32,2.49.94,2.49,2,0,1.27-1.06,2.07-2.48,2.07a3.86,3.86,0,0,1-2-.6l-.48.6h-.1l-.15-2.56h.18c.66,1.32,1.51,2,2.59,2,.91,0,1.6-.43,1.6-1.31s-.66-1.13-1.92-1.35c-1.65-.29-2.25-.87-2.25-1.93a2,2,0,0,1,2.24-1.91,3.22,3.22,0,0,1,1.87.59l.51-.59h.1v2.3h-.16a3,3,0,0,0-2.32-1.75C29,304.12,28.46,304.6,28.46,305.25Z"/>
        <path class="cls-1" d="M39.64,307H34.57c0,1.89.91,3,2.44,3a2.28,2.28,0,0,0,2.3-1.68l.28.1a2.63,2.63,0,0,1-2.82,2.24,3.15,3.15,0,0,1-3.22-3.42c0-2.22,1.41-3.64,3.15-3.64S39.64,304.83,39.64,307Zm-1-.51c0-1.2-.44-2.34-1.9-2.34-1.19,0-1.95.91-2.1,2.34Z"/>
        <path class="cls-1" d="M46.74,309c0,.93.21,1,.81,1.42v.08H45v-.08c.6-.38.81-.49.81-1.42v-2.77c0-1-.38-1.93-1.58-1.93s-2.15,1-2.15,2.64V309c0,.93.21,1,.81,1.42v.08H40.36v-.08c.6-.38.81-.49.81-1.42v-3.86c0-.73-.45-1-1-1.33v-.09H42l.05,1.68a2.5,2.5,0,0,1,2.48-1.82c1.39,0,2.17.9,2.17,2.44Z"/>
        <path class="cls-1" d="M47.89,303.91c1.17-.24,1.48-1.11,1.68-2.49H50v2.29h2.46l-.07.53H50v4.46c0,.8.42,1.23,1.13,1.23s1.23-.47,1.41-1.52l.27,0c-.08,1.3-.78,2.18-1.9,2.18A1.71,1.71,0,0,1,49,308.81v-4.57H47.89Z"/>
        <path class="cls-1" d="M60.33,305.22a1.62,1.62,0,0,0,.23-.75c0-.27-.35-.46-.74-.67v-.09H62v.09a3.76,3.76,0,0,0-1.15,1.57l-2.43,5.26H58.4L56,305.37a3.68,3.68,0,0,0-1.14-1.57v-.09H57.1v.09c-.37.22-.53.31-.53.54a2.27,2.27,0,0,0,.29.88l1.76,3.83Z"/>
        <path class="cls-1" d="M68.12,307H63.05c0,1.89.91,3,2.44,3a2.28,2.28,0,0,0,2.29-1.68l.28.1a2.61,2.61,0,0,1-2.81,2.24A3.15,3.15,0,0,1,62,307.21c0-2.22,1.41-3.64,3.15-3.64S68.12,304.83,68.12,307Zm-1.05-.51c0-1.2-.45-2.34-1.91-2.34-1.19,0-1.94.91-2.1,2.34Z"/>
        <path class="cls-1" d="M70.57,309.13c0,.79.28,1,1.36,1.25v.11h-3.1v-.08c.6-.38.81-.49.81-1.42v-3.86c0-.73-.44-1-1-1.33v-.09h1.83l.06,1.91c.38-1.07,1.06-2.05,2.24-2.05.69,0,1.09.37,1.09.91a.71.71,0,0,1-.81.74c0-.51-.2-.82-.7-.82-1,0-1.82,1.4-1.82,3Z"/>
        <path class="cls-1" d="M75,310.63h-.18a14.93,14.93,0,0,0,.19-3.11v-6.1c0-.73-.44-1-1-1.34V300h1.89v5.41a2.6,2.6,0,0,1,2.52-1.84c1.74,0,3,1.29,3,3.42a3.34,3.34,0,0,1-3.15,3.64,2.71,2.71,0,0,1-2.52-1.43A2.2,2.2,0,0,1,75,310.63Zm.94-2.85A2.1,2.1,0,0,0,78.07,310c1.38,0,2.34-1.13,2.34-3,0-1.64-.88-2.75-2.29-2.75a2.42,2.42,0,0,0-2.23,2.62Z"/>
        <path class="cls-1" d="M83.31,305.25c0,.7.46,1.07,1.72,1.29,1.85.32,2.49.94,2.49,2,0,1.27-1.06,2.07-2.48,2.07a3.89,3.89,0,0,1-2-.6l-.48.6h-.09l-.16-2.56h.18c.66,1.32,1.51,2,2.59,2,.92,0,1.6-.43,1.6-1.31s-.66-1.13-1.92-1.35c-1.65-.29-2.25-.87-2.25-1.93a2,2,0,0,1,2.24-1.91,3.25,3.25,0,0,1,1.88.59l.5-.59h.1v2.3H87a3,3,0,0,0-2.32-1.75C83.8,304.12,83.31,304.6,83.31,305.25Z"/>
        <path class="cls-1" d="M25.55,355.28l-1.92,5.35h-.05l-1.94-5.26a2.79,2.79,0,0,0-1.09-1.57v-.09h2.26v.09c-.37.22-.49.33-.49.53a2.69,2.69,0,0,0,.23.89l1.27,3.52,1.44-4.2a1.73,1.73,0,0,0-.77-.74v-.09h2.22v.09c-.36.21-.49.33-.49.53a3,3,0,0,0,.23.89l1.15,3.58L29,355.21a1.87,1.87,0,0,0,.19-.68c0-.27-.25-.45-.8-.73v-.09h2.23v.09a2.86,2.86,0,0,0-1.09,1.57l-2.07,5.26h-.06Z"/>
        <path class="cls-1" d="M32.37,359c0,.93.21,1,.81,1.42v.08H30.63v-.08c.6-.38.82-.49.82-1.42v-3.86c0-.73-.45-1-1-1.33v-.09h1.89Zm-.56-8.46a.76.76,0,0,1,.76.76.76.76,0,0,1-1.52,0A.76.76,0,0,1,31.81,350.53Z"/>
        <path class="cls-1" d="M33.46,353.91c1.18-.24,1.49-1.11,1.68-2.49h.38v2.29H38l-.07.53H35.52v4.46c0,.8.42,1.23,1.13,1.23s1.24-.47,1.42-1.52l.27,0c-.09,1.3-.79,2.18-1.91,2.18a1.71,1.71,0,0,1-1.85-1.82v-4.57H33.46Z"/>
        <path class="cls-1" d="M45.2,359c0,.93.21,1,.81,1.42v.08H43.46v-.08c.6-.38.81-.49.81-1.42v-2.77c0-1-.38-1.93-1.58-1.93s-2.15,1-2.15,2.64V359c0,.93.22,1,.82,1.42v.08H38.81v-.08c.6-.38.81-.49.81-1.42v-7.57c0-.73-.45-1-1-1.34V350h1.89v5.39A2.52,2.52,0,0,1,43,353.57c1.38,0,2.17.9,2.17,2.44Z"/>
        <path class="cls-1" d="M50.55,359c0,.93.22,1,.82,1.42v.08H48.82v-.08c.6-.38.81-.49.81-1.42v-7.57c0-.73-.45-1-1-1.34V350h1.89Z"/>
        <path class="cls-1" d="M55.26,360.63a3.54,3.54,0,1,1,3.32-3.53A3.31,3.31,0,0,1,55.26,360.63Zm0-6.48c-1.47,0-2.27,1.19-2.27,3s.8,3,2.27,3,2.27-1.2,2.27-3S56.73,354.15,55.26,354.15Z"/>
        <path class="cls-1" d="M65.68,359c0,.93.21,1,.81,1.42v.08H63.94v-.08c.6-.38.81-.49.81-1.42v-2.77c0-1-.37-1.93-1.58-1.93s-2.14,1-2.14,2.64V359c0,.93.21,1,.81,1.42v.08H59.29v-.08c.6-.38.81-.49.81-1.42v-3.86c0-.73-.45-1-1-1.33v-.09H61l.06,1.68a2.5,2.5,0,0,1,2.48-1.82c1.38,0,2.17.9,2.17,2.44Z"/>
        <path class="cls-1" d="M70,363.64c-1.7,0-3.24-.6-3.24-1.94,0-.8.73-1.39,1.89-1.59-.71-.11-1.36-.39-1.36-1.16a1.54,1.54,0,0,1,1.11-1.33,2.12,2.12,0,0,1-.89-1.79,2.28,2.28,0,0,1,2.56-2.26,2.71,2.71,0,0,1,1.89.65,2,2,0,0,1,1.43-1,.73.73,0,0,1,.8.74.7.7,0,0,1-.7.7c0-.34-.17-.62-.52-.62a1,1,0,0,0-.74.45,2.31,2.31,0,0,1,.4,1.32,2.27,2.27,0,0,1-2.56,2.25,3.21,3.21,0,0,1-1.39-.29,1,1,0,0,0-.61.8c0,.57.39.74,1.21.74H71c1.66,0,2.63.62,2.63,1.89C73.67,362.82,72,363.64,70,363.64Zm-.14-3.44c-1.4,0-2.12.49-2.12,1.43s1,1.47,2.26,1.47c1.59,0,2.74-.6,2.74-1.68,0-.73-.49-1.22-1.72-1.22Zm.21-6.11a1.74,1.74,0,0,0,0,3.47c.94,0,1.55-.61,1.55-1.73S71,354.09,70.1,354.09Z"/>
        <path class="cls-1" d="M20.9,408.8a2.6,2.6,0,0,1-2.52,1.83c-1.74,0-3-1.29-3-3.42a3.35,3.35,0,0,1,3.15-3.64A2.49,2.49,0,0,1,20.9,405v-3.53c0-.73-.45-1-1-1.34V400h1.89v9c0,.93.21,1,.81,1.42v.08H21Zm0-2.37a2.11,2.11,0,0,0-2.19-2.2c-1.37,0-2.34,1.14-2.34,3,0,1.64.89,2.75,2.3,2.75a2.42,2.42,0,0,0,2.23-2.62Z"/>
        <path class="cls-1" d="M29.3,407H24.23c0,1.89.91,3,2.44,3A2.28,2.28,0,0,0,29,408.29l.28.1a2.61,2.61,0,0,1-2.81,2.24,3.15,3.15,0,0,1-3.22-3.42c0-2.22,1.41-3.64,3.15-3.64S29.3,404.83,29.3,407Zm-1.05-.51c0-1.2-.45-2.34-1.91-2.34-1.19,0-1.94.91-2.1,2.34Z"/>
        <path class="cls-1" d="M31.69,412c0,.93.32,1.06,1.09,1.39v.11H30v-.08c.6-.38.82-.49.82-1.42v-6.87c0-.73-.45-1-1-1.33v-.09h1.83l.06,1.7a2.6,2.6,0,0,1,2.52-1.84c1.74,0,3,1.29,3,3.42a3.35,3.35,0,0,1-3.15,3.64,2.48,2.48,0,0,1-2.4-1.37Zm0-4.22A2.1,2.1,0,0,0,33.88,410c1.37,0,2.33-1.13,2.33-3,0-1.64-.88-2.75-2.29-2.75a2.42,2.42,0,0,0-2.23,2.62Z"/>
        <path class="cls-1" d="M44.18,407H39.11c0,1.89.91,3,2.44,3a2.28,2.28,0,0,0,2.29-1.68l.28.1a2.61,2.61,0,0,1-2.81,2.24,3.15,3.15,0,0,1-3.22-3.42c0-2.22,1.41-3.64,3.15-3.64S44.18,404.83,44.18,407Zm-1-.51c0-1.2-.45-2.34-1.91-2.34-1.18,0-1.94.91-2.1,2.34Z"/>
        <path class="cls-1" d="M51.28,409c0,.93.21,1,.81,1.42v.08H49.54v-.08c.6-.38.81-.49.81-1.42v-2.77c0-1-.38-1.93-1.58-1.93s-2.14,1-2.14,2.64V409c0,.93.21,1,.81,1.42v.08H44.89v-.08c.6-.38.81-.49.81-1.42v-3.86c0-.73-.45-1-1-1.33v-.09h1.83l.06,1.68a2.5,2.5,0,0,1,2.48-1.82c1.38,0,2.17.9,2.17,2.44Z"/>
        <path class="cls-1" d="M58.21,408.8a2.61,2.61,0,0,1-2.52,1.83c-1.74,0-3-1.29-3-3.42a3.34,3.34,0,0,1,3.15-3.64,2.49,2.49,0,0,1,2.4,1.38v-3.53c0-.73-.45-1-1-1.34V400h1.89v9c0,.93.21,1,.82,1.42v.08H58.26Zm0-2.37a2.11,2.11,0,0,0-2.19-2.2c-1.37,0-2.34,1.14-2.34,3,0,1.64.89,2.75,2.3,2.75a2.42,2.42,0,0,0,2.23-2.62Z"/>
        <path class="cls-1" d="M66.61,407H61.54c0,1.89.91,3,2.43,3a2.28,2.28,0,0,0,2.3-1.68l.28.1a2.62,2.62,0,0,1-2.81,2.24,3.16,3.16,0,0,1-3.23-3.42c0-2.22,1.42-3.64,3.16-3.64S66.61,404.83,66.61,407Zm-1-.51c0-1.2-.45-2.34-1.91-2.34-1.19,0-1.94.91-2.1,2.34Z"/>
        <path class="cls-1" d="M73.71,409c0,.93.21,1,.81,1.42v.08H72v-.08c.6-.38.81-.49.81-1.42v-2.77c0-1-.38-1.93-1.58-1.93s-2.15,1-2.15,2.64V409c0,.93.22,1,.82,1.42v.08H67.32v-.08c.6-.38.81-.49.81-1.42v-3.86c0-.73-.45-1-1-1.33v-.09H69l0,1.68a2.52,2.52,0,0,1,2.49-1.82c1.38,0,2.17.9,2.17,2.44Z"/>
        <path class="cls-1" d="M74.85,403.91c1.18-.24,1.48-1.11,1.68-2.49h.38v2.29h2.46l-.07.53H76.91v4.46c0,.8.42,1.23,1.13,1.23s1.24-.47,1.42-1.52l.26,0c-.08,1.3-.78,2.18-1.9,2.18A1.71,1.71,0,0,1,76,408.81v-4.57H74.85Z"/>
        <path class="cls-1" d="M9,460.37a3.44,3.44,0,0,1-1.13.22c-.79,0-1.19-.5-1.19-1.51a2.59,2.59,0,0,1-2.45,1.55c-1.14,0-2-.59-2-1.73,0-1.48,1.59-1.92,3.31-2.23l1.12-.2V456c0-1.43-.5-1.92-1.65-1.92-.89,0-1.43.42-1.43,1.12a1.17,1.17,0,0,0,.19.64.91.91,0,0,1-.56.16c-.39,0-.67-.25-.67-.75,0-.86,1-1.72,2.64-1.72s2.46.81,2.46,2.3,0,2.42,0,3.22.46,1.07,1.41,1.09Zm-3.46-3.23c-1.47.28-2.29.68-2.29,1.7,0,.8.51,1.18,1.33,1.18a2.22,2.22,0,0,0,2.07-2.4v-.69Z"/>
        <path class="cls-1" d="M14.57,458.8a2.6,2.6,0,0,1-2.52,1.83c-1.74,0-3-1.29-3-3.42a3.35,3.35,0,0,1,3.16-3.64A2.48,2.48,0,0,1,14.57,455v-3.53c0-.73-.45-1-1-1.34V450h1.9v9c0,.93.21,1,.81,1.42v.08H14.63Zm0-2.37a2.11,2.11,0,0,0-2.19-2.2c-1.37,0-2.33,1.14-2.33,3,0,1.64.88,2.75,2.29,2.75a2.42,2.42,0,0,0,2.23-2.62Z"/>
        <path class="cls-1" d="M21.74,455.22a1.7,1.7,0,0,0,.22-.75c0-.27-.35-.46-.74-.67v-.09h2.23v.09a3.6,3.6,0,0,0-1.15,1.57l-2.44,5.26H19.8l-2.43-5.26a3.68,3.68,0,0,0-1.15-1.57v-.09H18.5v.09c-.36.22-.53.31-.53.54a2.47,2.47,0,0,0,.29.88L20,459.05Z"/>
        <path class="cls-1" d="M29.52,457H24.45c0,1.89.91,3,2.44,3a2.29,2.29,0,0,0,2.3-1.68l.28.1a2.63,2.63,0,0,1-2.82,2.24,3.15,3.15,0,0,1-3.22-3.42c0-2.22,1.41-3.64,3.15-3.64S29.52,454.83,29.52,457Zm-1.05-.51c0-1.2-.44-2.34-1.9-2.34-1.19,0-1.95.91-2.1,2.34Z"/>
        <path class="cls-1" d="M32,459.13c0,.79.28,1,1.36,1.25v.11h-3.1v-.08c.61-.38.81-.49.81-1.42v-3.86c0-.73-.44-1-1-1.33v-.09h1.83l.06,1.91c.38-1.07,1.07-2.05,2.24-2.05.69,0,1.09.37,1.09.91a.71.71,0,0,1-.81.74c0-.51-.2-.82-.7-.82-1,0-1.82,1.4-1.82,3Z"/>
        <path class="cls-1" d="M36.35,460.63h-.18a14.2,14.2,0,0,0,.2-3.11v-6.1c0-.73-.45-1-1-1.34V450h1.89v5.41a2.6,2.6,0,0,1,2.52-1.84c1.74,0,3,1.29,3,3.42a3.35,3.35,0,0,1-3.15,3.64,2.73,2.73,0,0,1-2.53-1.43A2.2,2.2,0,0,1,36.35,460.63Zm.94-2.85A2.1,2.1,0,0,0,39.48,460c1.37,0,2.33-1.13,2.33-3,0-1.64-.88-2.75-2.29-2.75a2.42,2.42,0,0,0-2.23,2.62Z"/>
        <path class="cls-1" d="M45.28,459c0,.93.21,1,.82,1.42v.08H43.55v-.08c.6-.38.81-.49.81-1.42v-3.86c0-.73-.45-1-1-1.33v-.09h1.89Zm-.56-8.46a.76.76,0,0,1,.76.76.75.75,0,0,1-.76.75.74.74,0,0,1-.75-.75A.75.75,0,0,1,44.72,450.53Z"/>
        <path class="cls-1" d="M53.46,460.37a3.55,3.55,0,0,1-1.13.22c-.79,0-1.19-.5-1.19-1.51a2.59,2.59,0,0,1-2.45,1.55c-1.14,0-2-.59-2-1.73,0-1.48,1.59-1.92,3.31-2.23l1.12-.2V456c0-1.43-.5-1.92-1.65-1.92-.89,0-1.43.42-1.43,1.12a1.17,1.17,0,0,0,.19.64.91.91,0,0,1-.56.16c-.39,0-.67-.25-.67-.75,0-.86,1-1.72,2.63-1.72s2.47.81,2.47,2.3,0,2.42,0,3.22.46,1.07,1.41,1.09ZM50,457.14c-1.47.28-2.29.68-2.29,1.7,0,.8.51,1.18,1.33,1.18a2.22,2.22,0,0,0,2.07-2.4v-.69Z"/>
        <path class="cls-1" d="M55.21,459c0,.93.21,1,.81,1.42v.08H53.47v-.08c.61-.38.82-.49.82-1.42v-7.57c0-.73-.45-1-1-1.34V450h1.89Z"/>
        <path class="cls-1" d="M59.87,457.06c0,1.81.93,2.9,2.34,2.9a2.3,2.3,0,0,0,2.26-1.68l.26.11A2.6,2.6,0,0,1,62,460.63a3.11,3.11,0,0,1-3.15-3.42,3.37,3.37,0,0,1,3.33-3.64c1.41,0,2.41.74,2.41,1.7a.75.75,0,0,1-.83.8.61.61,0,0,1-.22,0,1.59,1.59,0,0,0,.07-.49,1.32,1.32,0,0,0-1.43-1.42C60.73,454.13,59.87,455.42,59.87,457.06Z"/>
        <path class="cls-1" d="M67,459c0,.93.21,1,.81,1.42v.08H65.3v-.08c.61-.38.82-.49.82-1.42v-7.57c0-.73-.45-1-1-1.34V450H67Z"/>
        <path class="cls-1" d="M75.28,460.37a3.55,3.55,0,0,1-1.14.22c-.78,0-1.19-.5-1.19-1.51a2.59,2.59,0,0,1-2.45,1.55c-1.14,0-2-.59-2-1.73,0-1.48,1.59-1.92,3.31-2.23l1.12-.2V456c0-1.43-.5-1.92-1.65-1.92-.88,0-1.43.42-1.43,1.12a1.1,1.1,0,0,0,.2.64,1,1,0,0,1-.56.16.66.66,0,0,1-.68-.75c0-.86,1-1.72,2.64-1.72s2.46.81,2.46,2.3,0,2.42,0,3.22.46,1.07,1.42,1.09Zm-3.47-3.23c-1.47.28-2.29.68-2.29,1.7,0,.8.52,1.18,1.33,1.18a2.22,2.22,0,0,0,2.07-2.4v-.69Z"/>
        <path class="cls-1" d="M77,458c0,1,.38,2,1.59,2s2.08-1,2.08-2.68v-2.14c0-.73-.45-1-1-1.33v-.09h1.89V459c0,.93.22,1,.82,1.42v.08H80.62v-1.71a2.42,2.42,0,0,1-2.42,1.85c-1.39,0-2.17-.89-2.17-2.43v-3.07c0-.73-.45-1-1-1.33v-.09H77Z"/>
        <path class="cls-1" d="M84,455.25c0,.7.46,1.07,1.72,1.29,1.85.32,2.49.94,2.49,2,0,1.27-1.06,2.07-2.48,2.07a3.86,3.86,0,0,1-2-.6l-.48.6h-.1L83,458.07h.18c.66,1.32,1.51,2,2.59,2,.91,0,1.6-.43,1.6-1.31s-.66-1.13-1.92-1.35c-1.65-.29-2.25-.87-2.25-1.93a2,2,0,0,1,2.24-1.91,3.22,3.22,0,0,1,1.87.59l.51-.59h.1v2.3h-.16a3,3,0,0,0-2.32-1.75C84.53,454.12,84,454.6,84,455.25Z"/>
        <path class="cls-1" d="M89.16,456.4h3.49v.6H89.16Z"/>
        <path class="cls-1" d="M18.31,507H13.24c0,1.89.91,3,2.44,3A2.28,2.28,0,0,0,18,508.29l.28.1a2.61,2.61,0,0,1-2.81,2.24,3.16,3.16,0,0,1-3.23-3.42c0-2.22,1.42-3.64,3.16-3.64S18.31,504.83,18.31,507Zm-1-.51c0-1.2-.45-2.34-1.91-2.34-1.19,0-1.94.91-2.1,2.34Z"/>
        <path class="cls-1" d="M20.11,505.25c0,.7.46,1.07,1.73,1.29,1.84.32,2.49.94,2.49,2a2.2,2.2,0,0,1-2.48,2.07,3.92,3.92,0,0,1-2.05-.6l-.47.6h-.1l-.15-2.56h.18c.66,1.32,1.51,2,2.59,2,.91,0,1.6-.43,1.6-1.31s-.66-1.13-1.92-1.35c-1.66-.29-2.26-.87-2.26-1.93a2,2,0,0,1,2.24-1.91,3.23,3.23,0,0,1,1.88.59l.5-.59H24v2.3h-.15a3,3,0,0,0-2.33-1.75C20.6,504.12,20.11,504.6,20.11,505.25Z"/>
        <path class="cls-1" d="M28.09,510.63h-.18a14.2,14.2,0,0,0,.2-3.11v-6.1c0-.73-.45-1-1-1.34V500H29v5.41a2.6,2.6,0,0,1,2.52-1.84c1.74,0,3,1.29,3,3.42a3.35,3.35,0,0,1-3.15,3.64,2.73,2.73,0,0,1-2.53-1.43A2.2,2.2,0,0,1,28.09,510.63Zm.94-2.85A2.1,2.1,0,0,0,31.21,510c1.38,0,2.34-1.13,2.34-3,0-1.64-.88-2.75-2.29-2.75A2.42,2.42,0,0,0,29,506.86Z"/>
        <path class="cls-1" d="M41.52,507H36.45c0,1.89.91,3,2.44,3a2.28,2.28,0,0,0,2.29-1.68l.28.1a2.61,2.61,0,0,1-2.81,2.24,3.15,3.15,0,0,1-3.22-3.42c0-2.22,1.41-3.64,3.15-3.64S41.52,504.83,41.52,507Zm-1.05-.51c0-1.2-.45-2.34-1.91-2.34-1.19,0-1.94.91-2.1,2.34Z"/>
        <path class="cls-1" d="M43.34,507.06c0,1.81.92,2.9,2.34,2.9a2.29,2.29,0,0,0,2.25-1.68l.27.11a2.61,2.61,0,0,1-2.75,2.24,3.11,3.11,0,0,1-3.15-3.42,3.37,3.37,0,0,1,3.33-3.64c1.42,0,2.41.74,2.41,1.7a.75.75,0,0,1-.82.8.63.63,0,0,1-.23,0,1.34,1.34,0,0,0,.07-.49,1.31,1.31,0,0,0-1.43-1.42C44.19,504.13,43.34,505.42,43.34,507.06Z"/>
        <path class="cls-1" d="M55.62,510.37a3.55,3.55,0,0,1-1.14.22c-.78,0-1.19-.5-1.19-1.51a2.59,2.59,0,0,1-2.45,1.55c-1.13,0-2-.59-2-1.73,0-1.48,1.58-1.92,3.3-2.23l1.12-.2V506c0-1.43-.5-1.92-1.65-1.92-.88,0-1.43.42-1.43,1.12a1.1,1.1,0,0,0,.2.64,1,1,0,0,1-.56.16c-.39,0-.67-.25-.67-.75,0-.86,1-1.72,2.63-1.72s2.46.81,2.46,2.3,0,2.42,0,3.22.46,1.07,1.42,1.09Zm-3.46-3.23c-1.47.28-2.3.68-2.3,1.7,0,.8.52,1.18,1.33,1.18a2.22,2.22,0,0,0,2.07-2.4v-.69Z"/>
        <path class="cls-1" d="M64.1,503.57c1.31,0,2,.9,2,2.44v3c0,.93.21,1,.81,1.42v.08H64.38v-.08c.6-.38.82-.49.82-1.42v-2.77c0-1-.28-2-1.42-2s-2,1-2,2.67V509c0,.93.21,1,.81,1.42v.08H60v-.08c.6-.38.81-.49.81-1.42v-2.77c0-1-.28-2-1.41-2s-2,1-2,2.67V509c0,.93.2,1,.81,1.42v.08H55.7v-.08c.6-.38.81-.49.81-1.42v-3.86c0-.73-.45-1-1-1.33v-.09h1.84l.06,1.68a2.39,2.39,0,0,1,2.32-1.82,1.87,1.87,0,0,1,2,1.88A2.41,2.41,0,0,1,64.1,503.57Z"/>
        <path class="cls-1" d="M73.59,507H68.52c0,1.89.91,3,2.44,3a2.29,2.29,0,0,0,2.3-1.68l.28.1a2.63,2.63,0,0,1-2.82,2.24,3.15,3.15,0,0,1-3.22-3.42c0-2.22,1.41-3.64,3.15-3.64S73.59,504.83,73.59,507Zm-1-.51c0-1.2-.45-2.34-1.9-2.34-1.19,0-2,.91-2.1,2.34Z"/>
        <path class="cls-1" d="M83.32,510.37a3.44,3.44,0,0,1-1.13.22c-.79,0-1.19-.5-1.19-1.51a2.59,2.59,0,0,1-2.45,1.55c-1.14,0-2-.59-2-1.73,0-1.48,1.59-1.92,3.31-2.23l1.12-.2V506c0-1.43-.5-1.92-1.65-1.92-.88,0-1.43.42-1.43,1.12a1.17,1.17,0,0,0,.19.64.9.9,0,0,1-.55.16.66.66,0,0,1-.68-.75c0-.86,1-1.72,2.64-1.72s2.46.81,2.46,2.3,0,2.42,0,3.22.46,1.07,1.41,1.09Zm-3.46-3.23c-1.47.28-2.29.68-2.29,1.7,0,.8.51,1.18,1.33,1.18a2.22,2.22,0,0,0,2.07-2.4v-.69Z"/>
        <path class="cls-1" d="M12.87,562c0,.93.32,1.06,1.09,1.39v.11H11.13v-.08c.6-.38.81-.49.81-1.42v-6.87c0-.73-.45-1-1-1.33v-.09h1.83l.06,1.7a2.6,2.6,0,0,1,2.52-1.84c1.73,0,3,1.29,3,3.42a3.34,3.34,0,0,1-3.15,3.64,2.45,2.45,0,0,1-2.39-1.37Zm0-4.22A2.1,2.1,0,0,0,15.05,560c1.38,0,2.34-1.13,2.34-3,0-1.64-.88-2.75-2.3-2.75a2.42,2.42,0,0,0-2.22,2.62Z"/>
        <path class="cls-1" d="M26,560.37a3.44,3.44,0,0,1-1.13.22c-.79,0-1.19-.5-1.19-1.51a2.59,2.59,0,0,1-2.45,1.55c-1.14,0-2-.59-2-1.73,0-1.48,1.59-1.92,3.31-2.23l1.12-.2V556c0-1.43-.5-1.92-1.65-1.92-.88,0-1.43.42-1.43,1.12a1.17,1.17,0,0,0,.19.64.9.9,0,0,1-.55.16.66.66,0,0,1-.68-.75c0-.86,1-1.72,2.64-1.72s2.46.81,2.46,2.3,0,2.42,0,3.22.46,1.07,1.41,1.09Zm-3.46-3.23c-1.47.28-2.29.68-2.29,1.7,0,.8.51,1.18,1.33,1.18a2.22,2.22,0,0,0,2.07-2.4v-.69Z"/>
        <path class="cls-1" d="M27.36,555.25c0,.7.46,1.07,1.72,1.29,1.85.32,2.49.94,2.49,2,0,1.27-1.06,2.07-2.48,2.07a3.89,3.89,0,0,1-2-.6l-.48.6h-.1l-.15-2.56h.18c.66,1.32,1.52,2,2.59,2,.91,0,1.6-.43,1.6-1.31s-.66-1.13-1.92-1.35c-1.65-.29-2.25-.87-2.25-1.93a2,2,0,0,1,2.24-1.91,3.22,3.22,0,0,1,1.87.59l.51-.59h.1v2.3h-.16a3,3,0,0,0-2.32-1.75C27.85,554.12,27.36,554.6,27.36,555.25Z"/>
        <path class="cls-1" d="M33.54,555.25c0,.7.47,1.07,1.73,1.29,1.85.32,2.49.94,2.49,2,0,1.27-1.06,2.07-2.48,2.07a3.86,3.86,0,0,1-2-.6l-.48.6h-.1l-.15-2.56h.18c.66,1.32,1.51,2,2.59,2,.91,0,1.6-.43,1.6-1.31s-.66-1.13-1.92-1.35c-1.65-.29-2.25-.87-2.25-1.93A2,2,0,0,1,35,553.57a3.22,3.22,0,0,1,1.87.59l.51-.59h.1v2.3h-.16A3,3,0,0,0,35,554.12C34,554.12,33.54,554.6,33.54,555.25Z"/>
        <path class="cls-1" d="M40.38,559c0,.93.21,1,.81,1.42v.08H38.64v-.08c.6-.38.81-.49.81-1.42v-3.86c0-.73-.45-1-1-1.33v-.09h1.89Zm-.56-8.46a.75.75,0,0,1,.75.76.74.74,0,0,1-.75.75.75.75,0,0,1-.76-.75A.76.76,0,0,1,39.82,550.53Z"/>
        <path class="cls-1" d="M45,560.63a3.54,3.54,0,1,1,3.32-3.53A3.31,3.31,0,0,1,45,560.63Zm0-6.48c-1.47,0-2.27,1.19-2.27,3s.8,3,2.27,3,2.27-1.2,2.27-3S46.5,554.15,45,554.15Z"/>
        <path class="cls-1" d="M55.44,559c0,.93.21,1,.82,1.42v.08H53.71v-.08c.6-.38.81-.49.81-1.42v-2.77c0-1-.38-1.93-1.58-1.93s-2.15,1-2.15,2.64V559c0,.93.21,1,.82,1.42v.08H49.06v-.08c.6-.38.81-.49.81-1.42v-3.86c0-.73-.45-1-1-1.33v-.09h1.84l0,1.68a2.51,2.51,0,0,1,2.48-1.82c1.39,0,2.17.9,2.17,2.44Z"/>
        <path class="cls-1" d="M63.41,555.28l-1.92,5.35h-.06l-1.93-5.26a2.79,2.79,0,0,0-1.09-1.57v-.09h2.25v.09c-.36.22-.49.33-.49.53a2.76,2.76,0,0,0,.24.89l1.26,3.52,1.44-4.2a1.63,1.63,0,0,0-.77-.74v-.09h2.23v.09c-.36.21-.49.33-.49.53a2.89,2.89,0,0,0,.22.89l1.15,3.58,1.36-3.59a1.76,1.76,0,0,0,.2-.68c0-.27-.25-.45-.8-.73v-.09h2.23v.09a2.87,2.87,0,0,0-1.1,1.57l-2.07,5.26h-.06Z"/>
        <path class="cls-1" d="M70.22,559c0,.93.22,1,.82,1.42v.08H68.49v-.08c.6-.38.81-.49.81-1.42v-3.86c0-.73-.45-1-1-1.33v-.09h1.89Zm-.56-8.46a.75.75,0,0,1,.76.76.76.76,0,1,1-.76-.76Z"/>
        <path class="cls-1" d="M71.32,553.91c1.17-.24,1.48-1.11,1.68-2.49h.38v2.29h2.46l-.07.53H73.38v4.46c0,.8.42,1.23,1.13,1.23s1.23-.47,1.42-1.52l.26,0c-.08,1.3-.78,2.18-1.9,2.18a1.71,1.71,0,0,1-1.85-1.82v-4.57H71.32Z"/>
        <path class="cls-1" d="M83.05,559c0,.93.21,1,.81,1.42v.08H81.31v-.08c.61-.38.82-.49.82-1.42v-2.77c0-1-.38-1.93-1.59-1.93s-2.14,1-2.14,2.64V559c0,.93.21,1,.81,1.42v.08H76.66v-.08c.61-.38.82-.49.82-1.42v-7.57c0-.73-.45-1-1-1.34V550H78.4v5.39a2.5,2.5,0,0,1,2.48-1.82c1.39,0,2.17.9,2.17,2.44Z"/>
        <path class="cls-1" d="M14.87,603.57c1.3,0,2,.9,2,2.44v3c0,.93.21,1,.82,1.42v.08H15.15v-.08c.6-.38.81-.49.81-1.42v-2.77c0-1-.28-2-1.42-2s-2,1-2,2.67V609c0,.93.21,1,.81,1.42v.08H10.8v-.08c.61-.38.82-.49.82-1.42v-2.77c0-1-.28-2-1.42-2s-2,1-2,2.67V609c0,.93.21,1,.81,1.42v.08H6.46v-.08c.6-.38.81-.49.81-1.42v-3.86c0-.73-.45-1-1-1.33v-.09H8.14l.06,1.68a2.39,2.39,0,0,1,2.32-1.82,1.87,1.87,0,0,1,2,1.88A2.42,2.42,0,0,1,14.87,603.57Z"/>
        <path class="cls-1" d="M24.36,607H19.29c0,1.89.91,3,2.43,3a2.28,2.28,0,0,0,2.3-1.68l.28.1a2.62,2.62,0,0,1-2.82,2.24,3.16,3.16,0,0,1-3.22-3.42c0-2.22,1.42-3.64,3.15-3.64S24.36,604.83,24.36,607Zm-1.05-.51c0-1.2-.45-2.34-1.91-2.34-1.19,0-1.95.91-2.1,2.34Z"/>
        <path class="cls-1" d="M26,610.62a.83.83,0,1,1,.83-.83A.82.82,0,0,1,26,610.62Z"/>
        <path class="cls-1" d="M30.08,600.79v-.1h2.74v.1a1.26,1.26,0,0,0-.89,1.44V609c0,.93.24,1.09.89,1.44v.1H30.08v-.1c.66-.35.89-.51.89-1.44v-6.72A1.26,1.26,0,0,0,30.08,600.79Z"/>
        <path class="cls-1" d="M42.16,609c0,.93.21,1,.81,1.42v.08H40.43v-.08c.6-.38.81-.49.81-1.42v-2.77c0-1-.38-1.93-1.58-1.93s-2.15,1-2.15,2.64V609c0,.93.21,1,.81,1.42v.08H35.78v-.08c.6-.38.81-.49.81-1.42v-7.57c0-.73-.45-1-1-1.34V600h1.89v5.39A2.5,2.5,0,0,1,40,603.57c1.39,0,2.17.9,2.17,2.44Z"/>
        <path class="cls-1" d="M50.4,610.37a3.55,3.55,0,0,1-1.14.22c-.78,0-1.19-.5-1.19-1.51a2.59,2.59,0,0,1-2.45,1.55c-1.14,0-2-.59-2-1.73,0-1.48,1.58-1.92,3.3-2.23l1.12-.2V606c0-1.43-.5-1.92-1.65-1.92-.88,0-1.43.42-1.43,1.12a1.1,1.1,0,0,0,.2.64,1,1,0,0,1-.56.16.66.66,0,0,1-.68-.75c0-.86,1-1.72,2.64-1.72s2.46.81,2.46,2.3,0,2.42,0,3.22.46,1.07,1.42,1.09Zm-3.46-3.23c-1.48.28-2.3.68-2.3,1.7,0,.8.52,1.18,1.33,1.18a2.22,2.22,0,0,0,2.07-2.4v-.69Z"/>
        <path class="cls-1" d="M55.12,605.22a1.62,1.62,0,0,0,.23-.75c0-.27-.35-.46-.74-.67v-.09h2.22v.09a3.68,3.68,0,0,0-1.14,1.57l-2.44,5.26h-.06l-2.43-5.26a3.76,3.76,0,0,0-1.15-1.57v-.09h2.28v.09c-.36.22-.53.31-.53.54a2.47,2.47,0,0,0,.29.88l1.77,3.83Z"/>
        <path class="cls-1" d="M62.91,607H57.84c0,1.89.91,3,2.44,3a2.28,2.28,0,0,0,2.29-1.68l.29.1A2.63,2.63,0,0,1,60,610.63a3.15,3.15,0,0,1-3.22-3.42c0-2.22,1.41-3.64,3.15-3.64S62.91,604.83,62.91,607Zm-1-.51c0-1.2-.45-2.34-1.9-2.34-1.19,0-2,.91-2.11,2.34Z"/>
        <path class="cls-1" d="M65.55,603.91c1.18-.24,1.49-1.11,1.68-2.49h.38v2.29h2.47l-.07.53h-2.4v4.46a1.07,1.07,0,0,0,1.14,1.23c.75,0,1.23-.47,1.41-1.52l.27,0c-.09,1.3-.79,2.18-1.91,2.18a1.71,1.71,0,0,1-1.85-1.82v-4.57H65.55Z"/>
        <path class="cls-1" d="M74.22,610.63a3.54,3.54,0,1,1,3.32-3.53A3.31,3.31,0,0,1,74.22,610.63Zm0-6.48c-1.47,0-2.27,1.19-2.27,3s.8,3,2.27,3,2.27-1.2,2.27-3S75.69,604.15,74.22,604.15Z"/>
        <path class="cls-1" d="M79.92,609c0,.93.21,1,.81,1.42v.08H78.18v-.08c.6-.38.81-.49.81-1.42v-7.57c0-.73-.45-1-1-1.34V600h1.89Z"/>
        <path class="cls-1" d="M86.85,608.8a2.6,2.6,0,0,1-2.52,1.83c-1.74,0-3-1.29-3-3.42a3.35,3.35,0,0,1,3.16-3.64A2.48,2.48,0,0,1,86.85,605v-3.53c0-.73-.45-1-1-1.34V600h1.9v9c0,.93.2,1,.81,1.42v.08H86.91Zm0-2.37a2.11,2.11,0,0,0-2.19-2.2c-1.37,0-2.33,1.14-2.33,3,0,1.64.88,2.75,2.29,2.75a2.42,2.42,0,0,0,2.23-2.62Z"/>
        <path class="cls-1" d="M1.15,655.37A3.5,3.5,0,0,0,0,653.8v-.09H2.3v.09c-.37.22-.53.35-.53.54a2.44,2.44,0,0,0,.29.88l1.74,4.19,1.69-4.19a2,2,0,0,0,.2-.75c0-.24-.3-.43-.74-.67v-.09H7.17v.09a3.55,3.55,0,0,0-1.12,1.57L3.4,661.7c-.46,1.1-.85,1.94-1.93,1.94a1,1,0,0,1-1-.92.91.91,0,0,1,.71-.83c0,.07,0,.23,0,.28a.61.61,0,0,0,.61.66c.49,0,.8-.45,1.15-1.26l.48-1.06Z"/>
        <path class="cls-1" d="M10.47,660.63a3.54,3.54,0,1,1,3.32-3.53A3.31,3.31,0,0,1,10.47,660.63Zm0-6.48c-1.47,0-2.26,1.19-2.26,3s.79,3,2.26,3,2.27-1.2,2.27-3S12,654.15,10.47,654.15Z"/>
        <path class="cls-1" d="M16.1,658c0,1,.38,2,1.58,2s2.09-1,2.09-2.68v-2.14c0-.73-.45-1-1-1.33v-.09h1.9V659c0,.93.21,1,.81,1.42v.08H19.77v-1.71a2.42,2.42,0,0,1-2.42,1.85c-1.39,0-2.17-.89-2.17-2.43v-3.07c0-.73-.45-1-1-1.33v-.09H16.1Z"/>
        <path class="cls-1" d="M24,653.91c1.18-.24,1.49-1.11,1.68-2.49h.38v2.29h2.47l-.07.53h-2.4v4.46a1.07,1.07,0,0,0,1.14,1.23c.75,0,1.23-.47,1.41-1.52l.27,0c-.09,1.3-.79,2.18-1.91,2.18a1.71,1.71,0,0,1-1.85-1.82v-4.57H24Z"/>
        <path class="cls-1" d="M35.76,659c0,.93.21,1,.81,1.42v.08H34v-.08c.6-.38.81-.49.81-1.42v-2.77c0-1-.37-1.93-1.58-1.93s-2.14,1-2.14,2.64V659c0,.93.21,1,.81,1.42v.08H29.37v-.08c.6-.38.81-.49.81-1.42v-7.57c0-.73-.44-1-1-1.34V650h1.89v5.39a2.5,2.5,0,0,1,2.48-1.82c1.38,0,2.17.9,2.17,2.44Z"/>
        <path class="cls-1" d="M44,660.37a3.55,3.55,0,0,1-1.13.22c-.79,0-1.19-.5-1.19-1.51a2.59,2.59,0,0,1-2.46,1.55c-1.13,0-2-.59-2-1.73,0-1.48,1.58-1.92,3.31-2.23l1.12-.2V656c0-1.43-.51-1.92-1.66-1.92-.88,0-1.43.42-1.43,1.12a1.1,1.1,0,0,0,.2.64.93.93,0,0,1-.56.16c-.39,0-.67-.25-.67-.75,0-.86,1-1.72,2.63-1.72s2.47.81,2.47,2.3,0,2.42,0,3.22.46,1.07,1.41,1.09Zm-3.46-3.23c-1.47.28-2.3.68-2.3,1.7,0,.8.52,1.18,1.33,1.18a2.23,2.23,0,0,0,2.08-2.4v-.69Z"/>
        <path class="cls-1" d="M43.76,653.91c1.18-.24,1.49-1.11,1.68-2.49h.38v2.29h2.47l-.07.53h-2.4v4.46A1.07,1.07,0,0,0,47,659.93c.75,0,1.23-.47,1.41-1.52l.27,0c-.09,1.3-.79,2.18-1.91,2.18a1.71,1.71,0,0,1-1.85-1.82v-4.57H43.76Z"/>
        <path class="cls-1" d="M51.42,650.79v-.1h2.75v.1a1.26,1.26,0,0,0-.9,1.44V659c0,.93.24,1.09.9,1.44v.1H51.42v-.1c.66-.35.9-.51.9-1.44v-6.72A1.26,1.26,0,0,0,51.42,650.79Z"/>
        <path class="cls-1" d="M58.93,659.13c0,.79.28,1,1.35,1.25v.11H57.19v-.08c.6-.38.81-.49.81-1.42v-3.86c0-.73-.45-1-1-1.33v-.09h1.83l.06,1.91c.37-1.07,1.06-2,2.24-2,.68,0,1.09.37,1.09.91a.71.71,0,0,1-.81.74c0-.51-.2-.82-.7-.82-1,0-1.82,1.4-1.82,3Z"/>
        <path class="cls-1" d="M68.62,657H63.54c0,1.89.92,3,2.44,3a2.28,2.28,0,0,0,2.3-1.68l.28.1a2.62,2.62,0,0,1-2.82,2.24,3.15,3.15,0,0,1-3.22-3.42c0-2.22,1.42-3.64,3.15-3.64S68.62,654.83,68.62,657Zm-1.05-.51c0-1.2-.45-2.34-1.91-2.34-1.19,0-1.95.91-2.1,2.34Z"/>
        <path class="cls-1" d="M70.43,657.06c0,1.81.93,2.9,2.34,2.9A2.3,2.3,0,0,0,75,658.28l.26.11a2.6,2.6,0,0,1-2.74,2.24,3.11,3.11,0,0,1-3.15-3.42,3.37,3.37,0,0,1,3.33-3.64c1.41,0,2.41.74,2.41,1.7a.75.75,0,0,1-.83.8.61.61,0,0,1-.22,0,1.59,1.59,0,0,0,.07-.49,1.32,1.32,0,0,0-1.43-1.42C71.29,654.13,70.43,655.42,70.43,657.06Z"/>
        <path class="cls-1" d="M79.32,660.63a3.54,3.54,0,1,1,3.32-3.53A3.3,3.3,0,0,1,79.32,660.63Zm0-6.48c-1.47,0-2.26,1.19-2.26,3s.79,3,2.26,3,2.27-1.2,2.27-3S80.79,654.15,79.32,654.15Z"/>
        <path class="cls-1" d="M86.25,663.64c-1.69,0-3.23-.6-3.23-1.94,0-.8.73-1.39,1.89-1.59-.71-.11-1.36-.39-1.36-1.16a1.53,1.53,0,0,1,1.11-1.33,2.13,2.13,0,0,1-.9-1.79,2.28,2.28,0,0,1,2.56-2.26,2.69,2.69,0,0,1,1.89.65,2,2,0,0,1,1.43-1,.73.73,0,0,1,.8.74.7.7,0,0,1-.7.7c0-.34-.17-.62-.52-.62a1,1,0,0,0-.74.45,2.25,2.25,0,0,1,.41,1.32,2.28,2.28,0,0,1-2.57,2.25,3.2,3.2,0,0,1-1.38-.29,1,1,0,0,0-.62.8c0,.57.39.74,1.22.74h1.72c1.67,0,2.64.62,2.64,1.89C89.9,662.82,88.2,663.64,86.25,663.64Zm-.14-3.44c-1.4,0-2.11.49-2.11,1.43s1,1.47,2.25,1.47c1.6,0,2.75-.6,2.75-1.68,0-.73-.49-1.22-1.72-1.22Zm.21-6.11c-.94,0-1.55.62-1.55,1.74s.61,1.73,1.55,1.73a1.74,1.74,0,0,0,0-3.47Z"/>
        <path class="cls-1" d="M90.66,656.4h3.49v.6H90.66Z"/>
        <path class="cls-1" d="M12.14,709c0,.93.21,1,.81,1.42v.08H10.4v-.08c.61-.38.82-.49.82-1.42v-2.77c0-1-.38-1.93-1.59-1.93s-2.14,1-2.14,2.64V709c0,.93.21,1,.81,1.42v.08H5.75v-.08c.61-.38.82-.49.82-1.42v-3.86c0-.73-.45-1-1-1.33v-.09H7.44l0,1.68A2.5,2.5,0,0,1,10,703.57c1.39,0,2.17.9,2.17,2.44Z"/>
        <path class="cls-1" d="M15.33,709c0,.93.21,1,.81,1.42v.08H13.59v-.08c.61-.38.82-.49.82-1.42v-3.86c0-.73-.45-1-1-1.33v-.09h1.89Zm-.56-8.46a.76.76,0,0,1,.76.76.76.76,0,0,1-1.52,0A.76.76,0,0,1,14.77,700.53Z"/>
        <path class="cls-1" d="M21.09,704.22H19.14c-1,0-1.26.31-2,1.69H17l.21-2.34a2.34,2.34,0,0,0,1,.14h4.22v.06L18.05,710h2.29c.94,0,1.31-.34,2.09-1.72h.17l-.41,2.22H16.64v0Z"/>
        <path class="cls-1" d="M29.33,707H24.26c0,1.89.91,3,2.44,3a2.29,2.29,0,0,0,2.3-1.68l.28.1a2.63,2.63,0,0,1-2.82,2.24,3.15,3.15,0,0,1-3.22-3.42c0-2.22,1.41-3.64,3.15-3.64S29.33,704.83,29.33,707Zm-1-.51c0-1.2-.45-2.34-1.9-2.34-1.19,0-1.95.91-2.1,2.34Z"/>
        <path class="cls-1" d="M37.07,705.22a1.62,1.62,0,0,0,.23-.75c0-.27-.35-.46-.75-.67v-.09h2.23v.09a3.68,3.68,0,0,0-1.15,1.57l-2.43,5.26h-.06l-2.44-5.26a3.6,3.6,0,0,0-1.15-1.57v-.09h2.29v.09c-.37.22-.53.31-.53.54a2.27,2.27,0,0,0,.29.88l1.77,3.83Z"/>
        <path class="cls-1" d="M44.86,707H39.79c0,1.89.91,3,2.43,3a2.28,2.28,0,0,0,2.3-1.68l.28.1A2.62,2.62,0,0,1,42,710.63a3.15,3.15,0,0,1-3.22-3.42c0-2.22,1.41-3.64,3.15-3.64S44.86,704.83,44.86,707Zm-1-.51c0-1.2-.45-2.34-1.91-2.34-1.19,0-1.94.91-2.1,2.34Z"/>
        <path class="cls-1" d="M47.31,709.13c0,.79.28,1,1.35,1.25v.11H45.57v-.08c.6-.38.81-.49.81-1.42v-3.86c0-.73-.45-1-1-1.33v-.09h1.83l.06,1.91c.37-1.07,1.06-2,2.24-2,.68,0,1.09.37,1.09.91a.71.71,0,0,1-.81.74c0-.51-.2-.82-.7-.82-1,0-1.82,1.4-1.82,3Z"/>
        <path class="cls-1" d="M51.69,710.63h-.18a14.93,14.93,0,0,0,.19-3.11v-6.1c0-.73-.45-1-1-1.34V700h1.89v5.41a2.61,2.61,0,0,1,2.53-1.84c1.73,0,3,1.29,3,3.42A3.34,3.34,0,0,1,55,710.63a2.71,2.71,0,0,1-2.52-1.43A2.24,2.24,0,0,1,51.69,710.63Zm.93-2.85A2.1,2.1,0,0,0,54.81,710c1.37,0,2.34-1.13,2.34-3,0-1.64-.88-2.75-2.3-2.75a2.42,2.42,0,0,0-2.23,2.62Z"/>
        <path class="cls-1" d="M60,705.25c0,.7.47,1.07,1.73,1.29,1.85.32,2.49.94,2.49,2,0,1.27-1.06,2.07-2.48,2.07a3.86,3.86,0,0,1-2-.6l-.48.6h-.1L59,708.07h.18c.66,1.32,1.51,2,2.59,2,.91,0,1.6-.43,1.6-1.31s-.66-1.13-1.92-1.35c-1.65-.29-2.25-.87-2.25-1.93a2,2,0,0,1,2.24-1.91,3.22,3.22,0,0,1,1.87.59l.51-.59h.1v2.3h-.16a3,3,0,0,0-2.32-1.75C60.54,704.12,60,704.6,60,705.25Z"/>
        <path class="cls-1" d="M74.16,710.37a3.55,3.55,0,0,1-1.13.22c-.79,0-1.19-.5-1.19-1.51a2.59,2.59,0,0,1-2.46,1.55c-1.13,0-2-.59-2-1.73,0-1.48,1.58-1.92,3.31-2.23l1.12-.2V706c0-1.43-.51-1.92-1.66-1.92-.88,0-1.43.42-1.43,1.12a1.1,1.1,0,0,0,.2.64.93.93,0,0,1-.56.16c-.39,0-.67-.25-.67-.75,0-.86,1-1.72,2.63-1.72s2.47.81,2.47,2.3,0,2.42,0,3.22.46,1.07,1.41,1.09Zm-3.46-3.23c-1.47.28-2.3.68-2.3,1.7,0,.8.52,1.18,1.33,1.18a2.23,2.23,0,0,0,2.08-2.4v-.69Z"/>
        <path class="cls-1" d="M80.63,709c0,.93.21,1,.81,1.42v.08H78.89v-.08c.6-.38.82-.49.82-1.42v-2.77c0-1-.38-1.93-1.59-1.93s-2.14,1-2.14,2.64V709c0,.93.21,1,.81,1.42v.08H74.24v-.08c.6-.38.81-.49.81-1.42v-3.86c0-.73-.44-1-1-1.33v-.09h1.83l.06,1.68a2.5,2.5,0,0,1,2.48-1.82c1.38,0,2.17.9,2.17,2.44Z"/>
        <path class="cls-1" d="M87.56,708.8A2.61,2.61,0,0,1,85,710.63c-1.74,0-3-1.29-3-3.42a3.34,3.34,0,0,1,3.15-3.64,2.49,2.49,0,0,1,2.4,1.38v-3.53c0-.73-.45-1-1-1.34V700h1.89v9c0,.93.21,1,.81,1.42v.08H87.61Zm0-2.37a2.11,2.11,0,0,0-2.19-2.2c-1.37,0-2.34,1.14-2.34,3,0,1.64.89,2.75,2.3,2.75a2.42,2.42,0,0,0,2.23-2.62Z"/>
        <path class="cls-1" d="M13.43,760.37a3.55,3.55,0,0,1-1.14.22c-.78,0-1.18-.5-1.18-1.51a2.59,2.59,0,0,1-2.46,1.55c-1.13,0-2-.59-2-1.73,0-1.48,1.58-1.92,3.31-2.23l1.12-.2V756c0-1.43-.51-1.92-1.66-1.92-.88,0-1.43.42-1.43,1.12a1.1,1.1,0,0,0,.2.64.93.93,0,0,1-.56.16c-.39,0-.67-.25-.67-.75,0-.86,1-1.72,2.63-1.72s2.47.81,2.47,2.3,0,2.42,0,3.22.46,1.07,1.41,1.09ZM10,757.14c-1.47.28-2.3.68-2.3,1.7,0,.8.52,1.18,1.33,1.18a2.23,2.23,0,0,0,2.08-2.4v-.69Z"/>
        <path class="cls-1" d="M19,758.8a2.6,2.6,0,0,1-2.52,1.83c-1.74,0-3-1.29-3-3.42a3.35,3.35,0,0,1,3.15-3.64A2.49,2.49,0,0,1,19,755v-3.53c0-.73-.45-1-1-1.34V750h1.89v9c0,.93.21,1,.81,1.42v.08H19Zm0-2.37a2.11,2.11,0,0,0-2.19-2.2c-1.37,0-2.34,1.14-2.34,3,0,1.64.89,2.75,2.3,2.75A2.42,2.42,0,0,0,19,757.34Z"/>
        <path class="cls-1" d="M26.15,755.22a1.62,1.62,0,0,0,.23-.75c0-.27-.35-.46-.74-.67v-.09h2.22v.09a3.76,3.76,0,0,0-1.15,1.57l-2.43,5.26h-.06l-2.43-5.26a3.76,3.76,0,0,0-1.15-1.57v-.09h2.28v.09c-.37.22-.53.31-.53.54a2.27,2.27,0,0,0,.29.88l1.77,3.83Z"/>
        <path class="cls-1" d="M33.94,757H28.87c0,1.89.91,3,2.44,3a2.28,2.28,0,0,0,2.29-1.68l.28.1a2.61,2.61,0,0,1-2.81,2.24,3.15,3.15,0,0,1-3.22-3.42c0-2.22,1.41-3.64,3.15-3.64S33.94,754.83,33.94,757Zm-1-.51c0-1.2-.45-2.34-1.91-2.34-1.19,0-1.94.91-2.1,2.34Z"/>
        <path class="cls-1" d="M36.39,759.13c0,.79.28,1,1.36,1.25v.11h-3.1v-.08c.6-.38.81-.49.81-1.42v-3.86c0-.73-.45-1-1-1.33v-.09h1.83l.06,1.91c.38-1.07,1.06-2,2.24-2,.68,0,1.09.37,1.09.91a.71.71,0,0,1-.81.74c0-.51-.2-.82-.7-.82-1,0-1.82,1.4-1.82,3Z"/>
        <path class="cls-1" d="M40.77,760.63h-.18a14.93,14.93,0,0,0,.19-3.11v-6.1c0-.73-.44-1-1-1.34V750h1.89v5.41a2.6,2.6,0,0,1,2.52-1.84c1.74,0,3,1.29,3,3.42a3.34,3.34,0,0,1-3.15,3.64,2.71,2.71,0,0,1-2.52-1.43A2.2,2.2,0,0,1,40.77,760.63Zm.94-2.85A2.1,2.1,0,0,0,43.89,760c1.38,0,2.34-1.13,2.34-3,0-1.64-.88-2.75-2.29-2.75a2.42,2.42,0,0,0-2.23,2.62Z"/>
        <path class="cls-1" d="M49.13,755.25c0,.7.46,1.07,1.72,1.29,1.85.32,2.49.94,2.49,2,0,1.27-1.06,2.07-2.48,2.07a3.89,3.89,0,0,1-2-.6l-.48.6h-.1l-.15-2.56h.18c.66,1.32,1.52,2,2.59,2,.91,0,1.6-.43,1.6-1.31s-.66-1.13-1.92-1.35c-1.65-.29-2.25-.87-2.25-1.93a2,2,0,0,1,2.24-1.91,3.22,3.22,0,0,1,1.87.59l.51-.59H53v2.3h-.16a3,3,0,0,0-2.32-1.75C49.62,754.12,49.13,754.6,49.13,755.25Z"/>
        <path class="cls-1" d="M63.24,760.37a3.55,3.55,0,0,1-1.13.22c-.79,0-1.19-.5-1.19-1.51a2.59,2.59,0,0,1-2.46,1.55c-1.13,0-2-.59-2-1.73,0-1.48,1.58-1.92,3.31-2.23l1.12-.2V756c0-1.43-.51-1.92-1.65-1.92-.89,0-1.43.42-1.43,1.12a1.17,1.17,0,0,0,.19.64.91.91,0,0,1-.56.16c-.39,0-.67-.25-.67-.75,0-.86,1-1.72,2.63-1.72s2.47.81,2.47,2.3,0,2.42,0,3.22.46,1.07,1.41,1.09Zm-3.46-3.23c-1.47.28-2.3.68-2.3,1.7,0,.8.52,1.18,1.33,1.18a2.22,2.22,0,0,0,2.08-2.4v-.69Z"/>
        <path class="cls-1" d="M65.06,759c0,.93.21,1,.81,1.42v.08H63.32v-.08c.6-.38.81-.49.81-1.42v-3.86c0-.73-.44-1-1-1.33v-.09h1.89Zm-.56-8.46a.76.76,0,0,1,.76.76.76.76,0,0,1-1.52,0A.76.76,0,0,1,64.5,750.53Z"/>
        <path class="cls-1" d="M71.94,758.8a2.61,2.61,0,0,1-2.53,1.83c-1.73,0-3-1.29-3-3.42a3.34,3.34,0,0,1,3.15-3.64,2.49,2.49,0,0,1,2.4,1.38v-3.53c0-.73-.45-1-1-1.34V750h1.89v9c0,.93.21,1,.81,1.42v.08H72Zm0-2.37a2.11,2.11,0,0,0-2.19-2.2c-1.37,0-2.34,1.14-2.34,3,0,1.64.88,2.75,2.3,2.75a2.42,2.42,0,0,0,2.23-2.62Z"/>
        <path class="cls-1" d="M80.34,757H75.27c0,1.89.91,3,2.43,3a2.28,2.28,0,0,0,2.3-1.68l.28.1a2.62,2.62,0,0,1-2.82,2.24,3.16,3.16,0,0,1-3.22-3.42c0-2.22,1.42-3.64,3.15-3.64S80.34,754.83,80.34,757Zm-1-.51c0-1.2-.45-2.34-1.91-2.34-1.19,0-1.95.91-2.1,2.34Z"/>
        <path class="cls-1" d="M86.66,758.8a2.59,2.59,0,0,1-2.52,1.83c-1.74,0-3-1.29-3-3.42a3.34,3.34,0,0,1,3.15-3.64A2.46,2.46,0,0,1,86.66,755v-3.53c0-.73-.45-1-1-1.34V750h1.89v9c0,.93.21,1,.81,1.42v.08H86.72Zm0-2.37a2.1,2.1,0,0,0-2.18-2.2c-1.37,0-2.34,1.14-2.34,3,0,1.64.88,2.75,2.3,2.75a2.42,2.42,0,0,0,2.22-2.62Z"/>
        <path class="cls-1" d="M3,810.63H2.79a14.2,14.2,0,0,0,.2-3.11v-6.1c0-.73-.45-1-1-1.34V800H3.91v5.41a2.61,2.61,0,0,1,2.53-1.84c1.73,0,3,1.29,3,3.42a3.34,3.34,0,0,1-3.15,3.64,2.7,2.7,0,0,1-2.52-1.43A2.21,2.21,0,0,1,3,810.63Zm.94-2.85A2.1,2.1,0,0,0,6.1,810c1.37,0,2.34-1.13,2.34-3,0-1.64-.88-2.75-2.3-2.75a2.42,2.42,0,0,0-2.23,2.62Z"/>
        <path class="cls-1" d="M10.59,805.37a3.5,3.5,0,0,0-1.15-1.57v-.09h2.3v.09c-.36.22-.53.35-.53.54a2.44,2.44,0,0,0,.29.88l1.74,4.19,1.69-4.19a1.8,1.8,0,0,0,.2-.75c0-.24-.29-.43-.74-.67v-.09h2.23v.09a3.55,3.55,0,0,0-1.13,1.57l-2.64,6.33c-.47,1.1-.86,1.94-1.94,1.94a1,1,0,0,1-1.05-.92.91.91,0,0,1,.72-.83,1.49,1.49,0,0,0,0,.28.61.61,0,0,0,.62.66c.49,0,.79-.45,1.14-1.26l.48-1.06Z"/>
        <path class="cls-1" d="M20.59,812c0,.93.32,1.06,1.09,1.39v.11H18.85v-.08c.6-.38.81-.49.81-1.42v-6.87c0-.73-.45-1-1-1.33v-.09h1.83l.06,1.7a2.6,2.6,0,0,1,2.52-1.84c1.74,0,3,1.29,3,3.42A3.34,3.34,0,0,1,23,810.63a2.45,2.45,0,0,1-2.39-1.37Zm0-4.22A2.1,2.1,0,0,0,22.77,810c1.37,0,2.34-1.13,2.34-3,0-1.64-.88-2.75-2.3-2.75a2.42,2.42,0,0,0-2.22,2.62Z"/>
        <path class="cls-1" d="M28.58,809.13c0,.79.28,1,1.36,1.25v.11h-3.1v-.08c.61-.38.82-.49.82-1.42v-3.86c0-.73-.45-1-1-1.33v-.09h1.84l0,1.91c.38-1.07,1.06-2,2.24-2,.69,0,1.09.37,1.09.91a.71.71,0,0,1-.81.74c0-.51-.19-.82-.7-.82-1,0-1.82,1.4-1.82,3Z"/>
        <path class="cls-1" d="M38.27,807H33.2c0,1.89.91,3,2.44,3a2.3,2.3,0,0,0,2.3-1.68l.27.1a2.61,2.61,0,0,1-2.81,2.24,3.15,3.15,0,0,1-3.22-3.42c0-2.22,1.41-3.64,3.15-3.64S38.27,804.83,38.27,807Zm-1.05-.51c0-1.2-.45-2.34-1.9-2.34-1.2,0-2,.91-2.11,2.34Z"/>
        <path class="cls-1" d="M40.66,812c0,.93.32,1.06,1.1,1.39v.11H38.93v-.08c.6-.38.81-.49.81-1.42v-6.87c0-.73-.45-1-1-1.33v-.09h1.84l0,1.7a2.6,2.6,0,0,1,2.52-1.84c1.74,0,3,1.29,3,3.42a3.35,3.35,0,0,1-3.15,3.64,2.48,2.48,0,0,1-2.4-1.37Zm0-4.22A2.1,2.1,0,0,0,42.85,810c1.37,0,2.34-1.13,2.34-3,0-1.64-.89-2.75-2.3-2.75a2.42,2.42,0,0,0-2.23,2.62Z"/>
        <path class="cls-1" d="M50.38,810.63a3.54,3.54,0,1,1,3.32-3.53A3.31,3.31,0,0,1,50.38,810.63Zm0-6.48c-1.47,0-2.27,1.19-2.27,3s.8,3,2.27,3,2.27-1.2,2.27-3S51.85,804.15,50.38,804.15Z"/>
        <path class="cls-1" d="M55.57,805.25c0,.7.47,1.07,1.72,1.29,1.85.32,2.5.94,2.5,2a2.2,2.2,0,0,1-2.48,2.07,3.92,3.92,0,0,1-2.05-.6l-.47.6h-.1l-.15-2.56h.18c.66,1.32,1.51,2,2.59,2,.91,0,1.6-.43,1.6-1.31s-.66-1.13-1.92-1.35c-1.66-.29-2.26-.87-2.26-1.93A2,2,0,0,1,57,803.57a3.23,3.23,0,0,1,1.88.59l.5-.59h.1v2.3H59.3A3,3,0,0,0,57,804.12C56.06,804.12,55.57,804.6,55.57,805.25Z"/>
        <path class="cls-1" d="M62.4,809c0,.93.22,1,.82,1.42v.08H60.67v-.08c.6-.38.81-.49.81-1.42v-3.86c0-.73-.45-1-1-1.33v-.09H62.4Zm-.56-8.46a.75.75,0,0,1,.76.76.76.76,0,1,1-.76-.76Z"/>
        <path class="cls-1" d="M63.5,803.91c1.17-.24,1.48-1.11,1.68-2.49h.37v2.29H68l-.07.53h-2.4v4.46a1.08,1.08,0,0,0,1.14,1.23c.76,0,1.23-.47,1.42-1.52l.26,0c-.08,1.3-.78,2.18-1.9,2.18a1.71,1.71,0,0,1-1.85-1.82v-4.57H63.5Z"/>
        <path class="cls-1" d="M70.65,809c0,.93.21,1,.81,1.42v.08H68.91v-.08c.61-.38.82-.49.82-1.42v-3.86c0-.73-.45-1-1-1.33v-.09h1.89Zm-.56-8.46a.76.76,0,0,1,.76.76.76.76,0,0,1-1.52,0A.76.76,0,0,1,70.09,800.53Z"/>
        <path class="cls-1" d="M75.3,810.63a3.54,3.54,0,1,1,3.32-3.53A3.31,3.31,0,0,1,75.3,810.63Zm0-6.48c-1.47,0-2.27,1.19-2.27,3s.8,3,2.27,3,2.27-1.2,2.27-3S76.77,804.15,75.3,804.15Z"/>
        <path class="cls-1" d="M85.72,809c0,.93.21,1,.81,1.42v.08H84v-.08c.6-.38.81-.49.81-1.42v-2.77c0-1-.38-1.93-1.58-1.93s-2.14,1-2.14,2.64V809c0,.93.21,1,.81,1.42v.08H79.33v-.08c.6-.38.81-.49.81-1.42v-3.86c0-.73-.45-1-1-1.33v-.09H81l.06,1.68a2.5,2.5,0,0,1,2.48-1.82c1.38,0,2.17.9,2.17,2.44Z"/>
        <path class="cls-1" d="M88.26,805.25c0,.7.46,1.07,1.73,1.29,1.84.32,2.49.94,2.49,2A2.2,2.2,0,0,1,90,810.63a3.86,3.86,0,0,1-2-.6l-.48.6h-.1l-.15-2.56h.18c.66,1.32,1.51,2,2.59,2,.91,0,1.6-.43,1.6-1.31s-.66-1.13-1.92-1.35c-1.66-.29-2.26-.87-2.26-1.93a2,2,0,0,1,2.24-1.91,3.23,3.23,0,0,1,1.88.59l.5-.59h.1v2.3H92a3,3,0,0,0-2.33-1.75C88.75,804.12,88.26,804.6,88.26,805.25Z"/>
        <path class="cls-1" d="M16.75,860.37a3.55,3.55,0,0,1-1.14.22c-.78,0-1.19-.5-1.19-1.51A2.58,2.58,0,0,1,12,860.63c-1.13,0-2-.59-2-1.73,0-1.48,1.58-1.92,3.3-2.23l1.12-.2V856c0-1.43-.5-1.92-1.65-1.92-.88,0-1.43.42-1.43,1.12a1.1,1.1,0,0,0,.2.64A1,1,0,0,1,11,856c-.39,0-.67-.25-.67-.75,0-.86,1-1.72,2.63-1.72s2.47.81,2.47,2.3-.05,2.42-.05,3.22.46,1.07,1.42,1.09Zm-3.46-3.23c-1.47.28-2.3.68-2.3,1.7,0,.8.52,1.18,1.33,1.18a2.22,2.22,0,0,0,2.07-2.4v-.69Z"/>
        <path class="cls-1" d="M23.21,859c0,.93.22,1,.82,1.42v.08H21.48v-.08c.6-.38.81-.49.81-1.42v-2.77c0-1-.38-1.93-1.58-1.93s-2.15,1-2.15,2.64V859c0,.93.22,1,.82,1.42v.08H16.83v-.08c.6-.38.81-.49.81-1.42v-3.86c0-.73-.45-1-1-1.33v-.09h1.84l0,1.68A2.51,2.51,0,0,1,21,853.57c1.39,0,2.17.9,2.17,2.44Z"/>
        <path class="cls-1" d="M30.14,858.8a2.59,2.59,0,0,1-2.52,1.83c-1.74,0-3-1.29-3-3.42a3.34,3.34,0,0,1,3.15-3.64A2.46,2.46,0,0,1,30.14,855v-3.53c0-.73-.44-1-1-1.34V850h1.89v9c0,.93.21,1,.81,1.42v.08H30.2Zm0-2.37a2.1,2.1,0,0,0-2.18-2.2c-1.37,0-2.34,1.14-2.34,3,0,1.64.88,2.75,2.3,2.75a2.42,2.42,0,0,0,2.22-2.62Z"/>
        <path class="cls-1" d="M35.73,857.06c0,1.81.92,2.9,2.34,2.9a2.29,2.29,0,0,0,2.25-1.68l.27.11a2.61,2.61,0,0,1-2.75,2.24,3.11,3.11,0,0,1-3.15-3.42A3.38,3.38,0,0,1,38,853.57c1.41,0,2.4.74,2.4,1.7a.75.75,0,0,1-.82.8.63.63,0,0,1-.23,0,1.34,1.34,0,0,0,.07-.49A1.31,1.31,0,0,0,38,854.13C36.58,854.13,35.73,855.42,35.73,857.06Z"/>
        <path class="cls-1" d="M44.62,860.63a3.54,3.54,0,1,1,3.32-3.53A3.31,3.31,0,0,1,44.62,860.63Zm0-6.48c-1.47,0-2.27,1.19-2.27,3s.8,3,2.27,3,2.27-1.2,2.27-3S46.09,854.15,44.62,854.15Z"/>
        <path class="cls-1" d="M55,859c0,.93.21,1,.81,1.42v.08H53.3v-.08c.6-.38.81-.49.81-1.42v-2.77c0-1-.38-1.93-1.58-1.93s-2.15,1-2.15,2.64V859c0,.93.22,1,.82,1.42v.08H48.65v-.08c.6-.38.81-.49.81-1.42v-3.86c0-.73-.45-1-1-1.33v-.09h1.84l.05,1.68a2.52,2.52,0,0,1,2.49-1.82c1.38,0,2.17.9,2.17,2.44Z"/>
        <path class="cls-1" d="M57.23,855.13c0-.73-.45-1-1-1.33v-.09h1.89V861c0,1.65-.75,2.66-2.17,2.66-1,0-1.63-.5-1.63-1.19a.68.68,0,0,1,.77-.71,1,1,0,0,1,.28,0,1.64,1.64,0,0,0-.09.58.8.8,0,0,0,.81.84c.82,0,1.11-.82,1.11-2Zm.37-4.6a.75.75,0,0,1,.75.76.76.76,0,0,1-1.51,0A.75.75,0,0,1,57.6,850.53Z"/>
        <path class="cls-1" d="M61.1,858c0,1,.37,2,1.58,2s2.09-1,2.09-2.68v-2.14c0-.73-.45-1-1-1.33v-.09h1.89V859c0,.93.21,1,.81,1.42v.08H64.77v-1.71a2.43,2.43,0,0,1-2.43,1.85c-1.38,0-2.17-.89-2.17-2.43v-3.07c0-.73-.45-1-1-1.33v-.09h1.9Z"/>
        <path class="cls-1" d="M73.47,859c0,.93.21,1,.82,1.42v.08H71.74v-.08c.6-.38.81-.49.81-1.42v-2.77c0-1-.38-1.93-1.58-1.93s-2.15,1-2.15,2.64V859c0,.93.21,1,.81,1.42v.08H67.09v-.08c.6-.38.81-.49.81-1.42v-3.86c0-.73-.45-1-1-1.33v-.09h1.84l0,1.68a2.5,2.5,0,0,1,2.48-1.82c1.39,0,2.17.9,2.17,2.44Z"/>
        <path class="cls-1" d="M75.89,857.06c0,1.81.93,2.9,2.34,2.9a2.3,2.3,0,0,0,2.26-1.68l.26.11A2.6,2.6,0,0,1,78,860.63a3.11,3.11,0,0,1-3.15-3.42,3.37,3.37,0,0,1,3.33-3.64c1.41,0,2.41.74,2.41,1.7a.75.75,0,0,1-.83.8.61.61,0,0,1-.22,0,1.59,1.59,0,0,0,.07-.49,1.32,1.32,0,0,0-1.43-1.42C76.75,854.13,75.89,855.42,75.89,857.06Z"/>
        <path class="cls-1" d="M81.42,856.4h3.49v.6H81.42Z"/>
        <path class="cls-1" d="M5.36,903.91c1.18-.24,1.49-1.11,1.68-2.49h.38v2.29H9.89l-.07.53H7.42v4.46c0,.8.42,1.23,1.13,1.23s1.24-.47,1.42-1.52l.27,0c-.09,1.3-.79,2.18-1.91,2.18a1.71,1.71,0,0,1-1.85-1.82v-4.57H5.36Z"/>
        <path class="cls-1" d="M12.52,909c0,.93.21,1,.81,1.42v.08H10.78v-.08c.6-.38.81-.49.81-1.42v-3.86c0-.73-.45-1-1-1.33v-.09h1.89ZM12,900.53a.75.75,0,0,1,.75.76A.74.74,0,0,1,12,902a.75.75,0,0,1-.76-.75A.76.76,0,0,1,12,900.53Z"/>
        <path class="cls-1" d="M17.17,910.63a3.54,3.54,0,1,1,3.32-3.53A3.31,3.31,0,0,1,17.17,910.63Zm0-6.48c-1.47,0-2.27,1.19-2.27,3s.8,3,2.27,3,2.27-1.2,2.27-3S18.64,904.15,17.17,904.15Z"/>
        <path class="cls-1" d="M27.58,909c0,.93.21,1,.82,1.42v.08H25.85v-.08c.6-.38.81-.49.81-1.42v-2.77c0-1-.38-1.93-1.58-1.93s-2.15,1-2.15,2.64V909c0,.93.21,1,.82,1.42v.08H21.2v-.08c.6-.38.81-.49.81-1.42v-3.86c0-.73-.45-1-1-1.33v-.09h1.84l.05,1.68a2.51,2.51,0,0,1,2.48-1.82c1.39,0,2.17.9,2.17,2.44Z"/>
        <path class="cls-1" d="M30.13,905.25c0,.7.46,1.07,1.72,1.29,1.85.32,2.49.94,2.49,2a2.19,2.19,0,0,1-2.47,2.07,3.89,3.89,0,0,1-2.05-.6l-.48.6h-.09l-.16-2.56h.18c.66,1.32,1.52,2,2.6,2,.91,0,1.59-.43,1.59-1.31s-.66-1.13-1.92-1.35c-1.65-.29-2.25-.87-2.25-1.93a2,2,0,0,1,2.24-1.91,3.25,3.25,0,0,1,1.88.59l.5-.59H34v2.3h-.16a3,3,0,0,0-2.32-1.75C30.62,904.12,30.13,904.6,30.13,905.25Z"/>
        <path class="cls-1" d="M41.73,905.28l-1.91,5.35h-.06l-1.93-5.26a2.8,2.8,0,0,0-1.1-1.57v-.09H39v.09c-.37.22-.49.33-.49.53a2.52,2.52,0,0,0,.24.89L40,908.74l1.44-4.2a1.73,1.73,0,0,0-.77-.74v-.09H42.9v.09c-.37.21-.49.33-.49.53a2.89,2.89,0,0,0,.22.89l1.15,3.58,1.36-3.59a2,2,0,0,0,.2-.68c0-.27-.26-.45-.8-.73v-.09h2.22v.09a2.86,2.86,0,0,0-1.09,1.57l-2.07,5.26h-.06Z"/>
        <path class="cls-1" d="M48.55,909c0,.93.21,1,.82,1.42v.08H46.81v-.08c.61-.38.82-.49.82-1.42v-3.86c0-.73-.45-1-1-1.33v-.09h1.89ZM48,900.53a.76.76,0,0,1,.76.76A.75.75,0,0,1,48,902a.74.74,0,0,1-.75-.75A.75.75,0,0,1,48,900.53Z"/>
        <path class="cls-1" d="M49.64,903.91c1.18-.24,1.49-1.11,1.68-2.49h.38v2.29h2.47l-.07.53H51.7v4.46a1.07,1.07,0,0,0,1.14,1.23c.75,0,1.23-.47,1.41-1.52l.27,0c-.09,1.3-.79,2.18-1.91,2.18a1.71,1.71,0,0,1-1.85-1.82v-4.57H49.64Z"/>
        <path class="cls-1" d="M61.38,909c0,.93.21,1,.81,1.42v.08H59.64v-.08c.6-.38.82-.49.82-1.42v-2.77c0-1-.38-1.93-1.59-1.93s-2.14,1-2.14,2.64V909c0,.93.21,1,.81,1.42v.08H55v-.08c.6-.38.81-.49.81-1.42v-7.57c0-.73-.44-1-1-1.34V900h1.89v5.39a2.5,2.5,0,0,1,2.48-1.82c1.38,0,2.17.9,2.17,2.44Z"/>
        <path class="cls-1" d="M66.75,912c0,.93.32,1.06,1.1,1.39v.11H65v-.08c.6-.38.81-.49.81-1.42v-6.87c0-.73-.45-1-1-1.33v-.09H66.7l0,1.7a2.6,2.6,0,0,1,2.52-1.84c1.74,0,3,1.29,3,3.42a3.35,3.35,0,0,1-3.15,3.64,2.48,2.48,0,0,1-2.4-1.37Zm0-4.22A2.1,2.1,0,0,0,68.94,910c1.37,0,2.34-1.13,2.34-3,0-1.64-.89-2.75-2.3-2.75a2.42,2.42,0,0,0-2.23,2.62Z"/>
        <path class="cls-1" d="M74.75,909.13c0,.79.28,1,1.36,1.25v.11H73v-.08c.6-.38.81-.49.81-1.42v-3.86c0-.73-.45-1-1-1.33v-.09h1.83l.06,1.91c.37-1.07,1.06-2,2.24-2,.68,0,1.09.37,1.09.91a.71.71,0,0,1-.81.74c0-.51-.2-.82-.7-.82-1,0-1.82,1.4-1.82,3Z"/>
        <path class="cls-1" d="M81.66,910.63A3.54,3.54,0,1,1,85,907.1,3.31,3.31,0,0,1,81.66,910.63Zm0-6.48c-1.47,0-2.27,1.19-2.27,3s.8,3,2.27,3,2.27-1.2,2.27-3S83.13,904.15,81.66,904.15Z"/>
        <path class="cls-1" d="M85.72,906.4h3.49v.6H85.72Z"/>
        <path class="cls-1" d="M14,959c0,.93.21,1,.82,1.42v.08H12.29v-.08c.6-.38.81-.49.81-1.42v-2.77c0-1-.38-1.93-1.58-1.93s-2.15,1-2.15,2.64V959c0,.93.21,1,.82,1.42v.08H7.64v-.08c.6-.38.81-.49.81-1.42v-3.86c0-.73-.45-1-1-1.33v-.09H9.32l0,1.68a2.51,2.51,0,0,1,2.48-1.82c1.39,0,2.17.9,2.17,2.44Z"/>
        <path class="cls-1" d="M18.73,960.63a3.54,3.54,0,1,1,3.32-3.53A3.31,3.31,0,0,1,18.73,960.63Zm0-6.48c-1.47,0-2.27,1.19-2.27,3s.8,3,2.27,3,2.27-1.2,2.27-3S20.2,954.15,18.73,954.15Z"/>
        <path class="cls-1" d="M24.35,958c0,1,.38,2,1.59,2S28,959,28,957.27v-2.14c0-.73-.45-1-1-1.33v-.09H29V959c0,.93.21,1,.81,1.42v.08H28v-1.71a2.42,2.42,0,0,1-2.42,1.85c-1.39,0-2.17-.89-2.17-2.43v-3.07c0-.73-.45-1-1-1.33v-.09h1.89Z"/>
        <path class="cls-1" d="M36.73,959c0,.93.21,1,.81,1.42v.08H35v-.08c.61-.38.82-.49.82-1.42v-2.77c0-1-.38-1.93-1.59-1.93s-2.14,1-2.14,2.64V959c0,.93.21,1,.81,1.42v.08H30.34v-.08c.61-.38.82-.49.82-1.42v-3.86c0-.73-.45-1-1-1.33v-.09H32l0,1.68a2.5,2.5,0,0,1,2.48-1.82c1.39,0,2.17.9,2.17,2.44Z"/>
        <path class="cls-1" d="M39.28,955.25c0,.7.46,1.07,1.72,1.29,1.85.32,2.49.94,2.49,2,0,1.27-1.06,2.07-2.48,2.07a3.86,3.86,0,0,1-2-.6l-.48.6h-.1l-.15-2.56h.18c.66,1.32,1.51,2,2.59,2,.91,0,1.6-.43,1.6-1.31s-.66-1.13-1.92-1.35c-1.65-.29-2.25-.87-2.25-1.93a2,2,0,0,1,2.24-1.91,3.22,3.22,0,0,1,1.87.59l.51-.59h.1v2.3H43a3,3,0,0,0-2.32-1.75C39.77,954.12,39.28,954.6,39.28,955.25Z"/>
        <path class="cls-1" d="M53.39,960.37a3.55,3.55,0,0,1-1.13.22c-.79,0-1.2-.5-1.2-1.51a2.57,2.57,0,0,1-2.45,1.55c-1.13,0-2-.59-2-1.73,0-1.48,1.58-1.92,3.31-2.23l1.12-.2V956c0-1.43-.51-1.92-1.66-1.92-.88,0-1.42.42-1.42,1.12a1.17,1.17,0,0,0,.19.64.93.93,0,0,1-.56.16c-.39,0-.67-.25-.67-.75,0-.86,1-1.72,2.63-1.72s2.47.81,2.47,2.3-.05,2.42-.05,3.22.47,1.07,1.42,1.09Zm-3.46-3.23c-1.47.28-2.3.68-2.3,1.7,0,.8.52,1.18,1.33,1.18a2.22,2.22,0,0,0,2.08-2.4v-.69Z"/>
        <path class="cls-1" d="M54.7,955.25c0,.7.47,1.07,1.73,1.29,1.85.32,2.49.94,2.49,2,0,1.27-1.06,2.07-2.48,2.07a3.92,3.92,0,0,1-2-.6l-.47.6h-.1l-.15-2.56h.18c.66,1.32,1.51,2,2.59,2,.91,0,1.6-.43,1.6-1.31s-.66-1.13-1.92-1.35c-1.66-.29-2.26-.87-2.26-1.93a2,2,0,0,1,2.24-1.91,3.23,3.23,0,0,1,1.88.59l.5-.59h.1v2.3h-.15a3,3,0,0,0-2.33-1.75C55.19,954.12,54.7,954.6,54.7,955.25Z"/>
        <path class="cls-1" d="M63.72,962c0,.93.32,1.06,1.09,1.39v.11H62v-.08c.6-.38.81-.49.81-1.42v-6.87c0-.73-.44-1-1-1.33v-.09h1.83l.06,1.7a2.6,2.6,0,0,1,2.52-1.84c1.74,0,3,1.29,3,3.42a3.35,3.35,0,0,1-3.15,3.64,2.47,2.47,0,0,1-2.4-1.37Zm0-4.22A2.1,2.1,0,0,0,65.9,960c1.38,0,2.34-1.13,2.34-3,0-1.64-.88-2.75-2.29-2.75a2.42,2.42,0,0,0-2.23,2.62Z"/>
        <path class="cls-1" d="M73.44,960.63a3.54,3.54,0,1,1,3.32-3.53A3.31,3.31,0,0,1,73.44,960.63Zm0-6.48c-1.48,0-2.27,1.19-2.27,3s.79,3,2.27,3,2.27-1.2,2.27-3S74.91,954.15,73.44,954.15Z"/>
        <path class="cls-1" d="M78.63,955.25c0,.7.46,1.07,1.72,1.29,1.85.32,2.5.94,2.5,2a2.2,2.2,0,0,1-2.48,2.07,3.89,3.89,0,0,1-2.05-.6l-.48.6h-.09l-.16-2.56h.18c.66,1.32,1.52,2,2.6,2,.91,0,1.59-.43,1.59-1.31s-.66-1.13-1.92-1.35c-1.65-.29-2.25-.87-2.25-1.93A2,2,0,0,1,80,953.57a3.25,3.25,0,0,1,1.88.59l.5-.59h.1v2.3h-.15A3,3,0,0,0,80,954.12C79.12,954.12,78.63,954.6,78.63,955.25Z"/>
        <path class="cls-1" d="M83.75,956.4h3.49v.6H83.75Z"/>
        <path class="cls-1" d="M16.2,1005.25c0,.7.46,1.07,1.72,1.29,1.85.32,2.49.94,2.49,2a2.19,2.19,0,0,1-2.47,2.07,3.89,3.89,0,0,1-2.05-.6l-.48.6h-.09l-.16-2.56h.18c.66,1.32,1.52,2,2.6,2,.91,0,1.59-.43,1.59-1.31s-.66-1.13-1.92-1.35c-1.65-.29-2.25-.87-2.25-1.93a2,2,0,0,1,2.24-1.91,3.25,3.25,0,0,1,1.88.59l.5-.59h.1v2.3h-.16a3,3,0,0,0-2.32-1.75C16.69,1004.12,16.2,1004.6,16.2,1005.25Z"/>
        <path class="cls-1" d="M27.39,1007H22.32c0,1.89.91,3,2.43,3a2.28,2.28,0,0,0,2.3-1.68l.28.1a2.62,2.62,0,0,1-2.81,2.24,3.16,3.16,0,0,1-3.23-3.42c0-2.22,1.42-3.64,3.16-3.64S27.39,1004.83,27.39,1007Zm-1.05-.51c0-1.2-.45-2.34-1.91-2.34-1.19,0-1.95.91-2.1,2.34Z"/>
        <path class="cls-1" d="M29.19,1005.25c0,.7.46,1.07,1.72,1.29,1.85.32,2.5.94,2.5,2a2.2,2.2,0,0,1-2.48,2.07,3.89,3.89,0,0,1-2.05-.6l-.47.6h-.1l-.16-2.56h.19a3,3,0,0,0,2.59,2c.91,0,1.59-.43,1.59-1.31s-.65-1.13-1.91-1.35c-1.66-.29-2.26-.87-2.26-1.93a2,2,0,0,1,2.24-1.91,3.23,3.23,0,0,1,1.88.59l.5-.59h.1v2.3h-.15a3,3,0,0,0-2.33-1.75C29.68,1004.12,29.19,1004.6,29.19,1005.25Z"/>
        <path class="cls-1" d="M35.38,1005.25c0,.7.46,1.07,1.72,1.29,1.85.32,2.5.94,2.5,2a2.2,2.2,0,0,1-2.48,2.07,3.89,3.89,0,0,1-2-.6l-.48.6H34.5l-.16-2.56h.18c.66,1.32,1.52,2,2.6,2,.91,0,1.59-.43,1.59-1.31s-.66-1.13-1.92-1.35c-1.65-.29-2.25-.87-2.25-1.93a2,2,0,0,1,2.24-1.91,3.25,3.25,0,0,1,1.88.59l.5-.59h.1v2.3h-.15a3,3,0,0,0-2.33-1.75C35.87,1004.12,35.38,1004.6,35.38,1005.25Z"/>
        <path class="cls-1" d="M42.21,1009c0,.93.21,1,.81,1.42v.08H40.47v-.08c.61-.38.82-.49.82-1.42v-3.86c0-.73-.45-1-1-1.33v-.09h1.89Zm-.56-8.46a.76.76,0,0,1,.76.76.76.76,0,0,1-1.52,0A.76.76,0,0,1,41.65,1000.53Z"/>
        <path class="cls-1" d="M50,1009c0,.93.21,1,.81,1.42v.08H48.26v-.08c.6-.38.81-.49.81-1.42v-2.77c0-1-.37-1.93-1.58-1.93s-2.14,1-2.14,2.64V1009c0,.93.21,1,.81,1.42v.08H43.61v-.08c.6-.38.81-.49.81-1.42v-3.86c0-.73-.45-1-1-1.33v-.09h1.83l.06,1.68a2.5,2.5,0,0,1,2.48-1.82c1.38,0,2.17.9,2.17,2.44Z"/>
        <path class="cls-1" d="M54.35,1013.64c-1.7,0-3.24-.6-3.24-1.94,0-.8.73-1.39,1.89-1.59-.71-.11-1.36-.39-1.36-1.16a1.54,1.54,0,0,1,1.11-1.33,2.12,2.12,0,0,1-.89-1.79,2.28,2.28,0,0,1,2.56-2.26,2.69,2.69,0,0,1,1.89.65,2,2,0,0,1,1.43-1,.73.73,0,0,1,.8.74.7.7,0,0,1-.7.7c0-.34-.17-.62-.52-.62a1,1,0,0,0-.74.45,2.31,2.31,0,0,1,.4,1.32,2.27,2.27,0,0,1-2.56,2.25,3.21,3.21,0,0,1-1.39-.29,1,1,0,0,0-.61.8c0,.57.39.74,1.21.74h1.73c1.66,0,2.63.62,2.63,1.89C58,1012.82,56.29,1013.64,54.35,1013.64Zm-.14-3.44c-1.4,0-2.12.49-2.12,1.43s1,1.47,2.26,1.47c1.6,0,2.74-.6,2.74-1.68,0-.73-.49-1.22-1.72-1.22Zm.21-6.11a1.74,1.74,0,0,0,0,3.47c.94,0,1.55-.61,1.55-1.73S55.36,1004.09,54.42,1004.09Z"/>
        <path class="cls-1" d="M60.66,1003.91c1.18-.24,1.48-1.11,1.68-2.49h.38v2.29h2.47l-.07.53h-2.4v4.46c0,.8.42,1.23,1.13,1.23s1.24-.47,1.42-1.52l.27,0c-.09,1.3-.79,2.18-1.91,2.18a1.71,1.71,0,0,1-1.85-1.82v-4.57H60.66Z"/>
        <path class="cls-1" d="M72.4,1009c0,.93.21,1,.81,1.42v.08H70.66v-.08c.6-.38.81-.49.81-1.42v-2.77c0-1-.38-1.93-1.58-1.93s-2.14,1-2.14,2.64V1009c0,.93.21,1,.81,1.42v.08H66v-.08c.6-.38.81-.49.81-1.42v-7.57c0-.73-.45-1-1-1.34V1000h1.89v5.39a2.5,2.5,0,0,1,2.47-1.82c1.39,0,2.18.9,2.18,2.44Z"/>
        <path class="cls-1" d="M79.87,1007H74.8c0,1.89.91,3,2.44,3a2.29,2.29,0,0,0,2.3-1.68l.28.1a2.63,2.63,0,0,1-2.82,2.24,3.15,3.15,0,0,1-3.22-3.42c0-2.22,1.41-3.64,3.15-3.64S79.87,1004.83,79.87,1007Zm-1.05-.51c0-1.2-.44-2.34-1.9-2.34-1.19,0-2,.91-2.1,2.34Z"/>
        <path class="cls-1" d="M17.16,1055.28l-1.92,5.35h-.06l-1.93-5.26a2.79,2.79,0,0,0-1.09-1.57v-.09h2.25v.09c-.36.22-.49.33-.49.53a2.76,2.76,0,0,0,.24.89l1.26,3.52,1.45-4.2a1.71,1.71,0,0,0-.78-.74v-.09h2.23v.09c-.36.21-.49.33-.49.53a3.21,3.21,0,0,0,.22.89l1.16,3.58,1.35-3.59a1.76,1.76,0,0,0,.2-.68c0-.27-.25-.45-.8-.73v-.09h2.23v.09a2.81,2.81,0,0,0-1.09,1.57L19,1060.63H19Z"/>
        <path class="cls-1" d="M28.56,1059c0,.93.21,1,.81,1.42v.08H26.82v-.08c.6-.38.81-.49.81-1.42v-2.77c0-1-.38-1.93-1.58-1.93s-2.14,1-2.14,2.64V1059c0,.93.21,1,.81,1.42v.08H22.17v-.08c.6-.38.81-.49.81-1.42v-7.57c0-.73-.45-1-1-1.34V1050h1.89v5.39a2.5,2.5,0,0,1,2.47-1.82c1.39,0,2.18.9,2.18,2.44Z"/>
        <path class="cls-1" d="M33.26,1060.63a3.54,3.54,0,1,1,3.32-3.53A3.31,3.31,0,0,1,33.26,1060.63Zm0-6.48c-1.47,0-2.27,1.19-2.27,2.95s.8,3,2.27,3,2.27-1.2,2.27-3S34.73,1054.15,33.26,1054.15Z"/>
        <path class="cls-1" d="M39,1059c0,.93.21,1,.81,1.42v.08H37.22v-.08c.6-.38.81-.49.81-1.42v-7.57c0-.73-.45-1-1-1.34V1050H39Z"/>
        <path class="cls-1" d="M46.43,1057H41.36c0,1.89.91,3,2.44,3a2.28,2.28,0,0,0,2.3-1.68l.28.1a2.63,2.63,0,0,1-2.82,2.24,3.15,3.15,0,0,1-3.22-3.42c0-2.22,1.41-3.64,3.15-3.64S46.43,1054.83,46.43,1057Zm-1-.51c0-1.2-.44-2.34-1.9-2.34-1.19,0-1.95.91-2.1,2.34Z"/>
        <path class="cls-1" d="M52.63,1060.63A3.54,3.54,0,1,1,56,1057.1,3.31,3.31,0,0,1,52.63,1060.63Zm0-6.48c-1.47,0-2.26,1.19-2.26,2.95s.79,3,2.26,3,2.27-1.2,2.27-3S54.1,1054.15,52.63,1054.15Z"/>
        <path class="cls-1" d="M58.4,1059.13c0,.79.34,1,1.42,1.25v.11H56.66v-.08c.61-.38.82-.49.82-1.42v-4.75h-1v-.33l1-.28v-1A2.43,2.43,0,0,1,60,1050c1.06,0,1.86.57,1.86,1.26a.68.68,0,0,1-.77.71.92.92,0,0,1-.29,0,1.57,1.57,0,0,0,.09-.6c0-.49-.36-.86-1-.86-.87,0-1.46.7-1.46,2v1.31h2l-.07.53h-2Z"/>
        <path class="cls-1" d="M62.88,1053.91c1.18-.24,1.48-1.11,1.68-2.49h.38v2.29H67.4l-.07.53H64.94v4.46c0,.8.42,1.23,1.13,1.23s1.24-.47,1.42-1.52l.26,0c-.08,1.3-.78,2.18-1.9,2.18a1.71,1.71,0,0,1-1.85-1.82v-4.57H62.88Z"/>
        <path class="cls-1" d="M74.62,1059c0,.93.21,1,.81,1.42v.08H72.88v-.08c.6-.38.81-.49.81-1.42v-2.77c0-1-.38-1.93-1.58-1.93s-2.15,1-2.15,2.64V1059c0,.93.22,1,.82,1.42v.08H68.23v-.08c.6-.38.81-.49.81-1.42v-7.57c0-.73-.45-1-1-1.34V1050H70v5.39a2.51,2.51,0,0,1,2.48-1.82c1.39,0,2.18.9,2.18,2.44Z"/>
        <path class="cls-1" d="M82.09,1057H77c0,1.89.91,3,2.44,3a2.28,2.28,0,0,0,2.29-1.68l.29.1a2.63,2.63,0,0,1-2.82,2.24,3.15,3.15,0,0,1-3.22-3.42c0-2.22,1.41-3.64,3.15-3.64S82.09,1054.83,82.09,1057Zm-1-.51c0-1.2-.45-2.34-1.91-2.34-1.18,0-1.94.91-2.1,2.34Z"/>
        <path class="cls-1" d="M20.54,1110.37a3.55,3.55,0,0,1-1.14.22c-.78,0-1.19-.5-1.19-1.51a2.59,2.59,0,0,1-2.45,1.55c-1.14,0-2-.59-2-1.73,0-1.48,1.59-1.92,3.31-2.23l1.12-.2V1106c0-1.43-.5-1.92-1.65-1.92-.88,0-1.43.42-1.43,1.12a1.17,1.17,0,0,0,.19.64.9.9,0,0,1-.55.16.66.66,0,0,1-.68-.75c0-.86,1-1.72,2.64-1.72s2.46.81,2.46,2.3,0,2.42,0,3.22.46,1.07,1.42,1.09Zm-3.47-3.23c-1.47.28-2.29.68-2.29,1.7,0,.8.51,1.18,1.33,1.18a2.22,2.22,0,0,0,2.07-2.4v-.69Z"/>
        <path class="cls-1" d="M21.58,1107.06c0,1.81.93,2.9,2.34,2.9a2.3,2.3,0,0,0,2.26-1.68l.26.11a2.6,2.6,0,0,1-2.74,2.24,3.11,3.11,0,0,1-3.16-3.42,3.38,3.38,0,0,1,3.34-3.64c1.41,0,2.41.74,2.41,1.7a.75.75,0,0,1-.83.8.61.61,0,0,1-.22,0,1.59,1.59,0,0,0,.07-.49,1.32,1.32,0,0,0-1.43-1.42C22.44,1104.13,21.58,1105.42,21.58,1107.06Z"/>
        <path class="cls-1" d="M26.78,1103.91c1.17-.24,1.48-1.11,1.68-2.49h.37v2.29H31.3l-.07.53h-2.4v4.46a1.07,1.07,0,0,0,1.14,1.23c.75,0,1.23-.47,1.41-1.52l.27,0c-.09,1.3-.78,2.18-1.91,2.18a1.71,1.71,0,0,1-1.85-1.82v-4.57H26.78Z"/>
        <path class="cls-1" d="M33.93,1109c0,.93.21,1,.81,1.42v.08H32.19v-.08c.6-.38.82-.49.82-1.42v-3.86c0-.73-.45-1-1-1.33v-.09h1.89Zm-.56-8.46a.76.76,0,0,1,.76.76.76.76,0,0,1-1.52,0A.76.76,0,0,1,33.37,1100.53Z"/>
        <path class="cls-1" d="M40.12,1105.22a1.57,1.57,0,0,0,.22-.75c0-.27-.35-.46-.74-.67v-.09h2.23v.09a3.6,3.6,0,0,0-1.15,1.57l-2.44,5.26h-.05l-2.44-5.26a3.6,3.6,0,0,0-1.15-1.57v-.09h2.28v.09c-.36.22-.53.31-.53.54a2.34,2.34,0,0,0,.3.88l1.76,3.83Z"/>
        <path class="cls-1" d="M47.9,1107H42.83c0,1.89.91,3,2.44,3a2.28,2.28,0,0,0,2.3-1.68l.28.1a2.63,2.63,0,0,1-2.82,2.24,3.15,3.15,0,0,1-3.22-3.42c0-2.22,1.42-3.64,3.15-3.64S47.9,1104.83,47.9,1107Zm-1-.51c0-1.2-.45-2.34-1.91-2.34-1.19,0-2,.91-2.1,2.34Z"/>
        <path class="cls-1" d="M52.52,1109c0,.93.21,1,.81,1.42v.08H50.79v-.08c.6-.38.81-.49.81-1.42v-7.57c0-.73-.45-1-1-1.34V1100h1.89Z"/>
        <path class="cls-1" d="M55.71,1109c0,.93.21,1,.82,1.42v.08H54v-.08c.6-.38.81-.49.81-1.42v-3.86c0-.73-.45-1-1-1.33v-.09h1.89Zm-.56-8.46a.76.76,0,0,1,.76.76.75.75,0,0,1-.76.75.74.74,0,0,1-.75-.75A.75.75,0,0,1,55.15,1100.53Z"/>
        <path class="cls-1" d="M58.85,1109.13c0,.79.34,1,1.42,1.25v.11H57.11v-.08c.6-.38.82-.49.82-1.42v-4.75H57v-.33l1-.28v-1a2.43,2.43,0,0,1,2.52-2.66c1.06,0,1.86.57,1.86,1.26a.68.68,0,0,1-.77.71.92.92,0,0,1-.29,0,1.57,1.57,0,0,0,.09-.6c0-.49-.36-.86-1-.86-.87,0-1.46.7-1.46,2v1.31h2l-.07.53H58.85Z"/>
        <path class="cls-1" d="M67.42,1107H62.35c0,1.89.91,3,2.44,3a2.28,2.28,0,0,0,2.29-1.68l.29.1a2.63,2.63,0,0,1-2.82,2.24,3.15,3.15,0,0,1-3.22-3.42c0-2.22,1.41-3.64,3.15-3.64S67.42,1104.83,67.42,1107Zm-1-.51c0-1.2-.45-2.34-1.91-2.34-1.18,0-1.94.91-2.1,2.34Z"/>
        <path class="cls-1" d="M73.62,1110.63a3.54,3.54,0,1,1,3.32-3.53A3.31,3.31,0,0,1,73.62,1110.63Zm0-6.48c-1.47,0-2.27,1.19-2.27,2.95s.8,3,2.27,3,2.27-1.2,2.27-3S75.09,1104.15,73.62,1104.15Z"/>
        <path class="cls-1" d="M79.39,1109.13c0,.79.33,1,1.41,1.25v.11H77.65v-.08c.6-.38.81-.49.81-1.42v-4.75h-1v-.33l1-.28v-1A2.43,2.43,0,0,1,81,1100c1.07,0,1.87.57,1.87,1.26a.68.68,0,0,1-.77.71,1,1,0,0,1-.3,0,1.41,1.41,0,0,0,.1-.6c0-.49-.36-.86-1-.86-.86,0-1.45.7-1.45,2v1.31h2l-.07.53H79.39Z"/>
        <path class="cls-1" d="M30,1155.28l-1.92,5.35H28l-1.93-5.26A2.79,2.79,0,0,0,25,1153.8v-.09h2.25v.09c-.36.22-.49.33-.49.53a2.76,2.76,0,0,0,.24.89l1.26,3.52,1.44-4.2a1.68,1.68,0,0,0-.77-.74v-.09h2.23v.09c-.37.21-.49.33-.49.53a2.89,2.89,0,0,0,.22.89L32,1158.8l1.36-3.59a2,2,0,0,0,.2-.68c0-.27-.26-.45-.8-.73v-.09H35v.09a2.87,2.87,0,0,0-1.1,1.57l-2.07,5.26H31.8Z"/>
        <path class="cls-1" d="M36.81,1159.13c0,.79.28,1,1.36,1.25v.11H35.08v-.08c.6-.38.81-.49.81-1.42v-3.86c0-.73-.45-1-1-1.33v-.09h1.84l.05,1.91c.38-1.07,1.07-2,2.24-2,.69,0,1.1.37,1.1.91a.71.71,0,0,1-.81.74c0-.51-.2-.82-.71-.82-1,0-1.82,1.4-1.82,2.95Z"/>
        <path class="cls-1" d="M42.29,1159c0,.93.21,1,.81,1.42v.08H40.55v-.08c.6-.38.81-.49.81-1.42v-3.86c0-.73-.45-1-1-1.33v-.09h1.89Zm-.56-8.46a.75.75,0,0,1,.75.76.74.74,0,0,1-.75.75.75.75,0,0,1-.76-.75A.76.76,0,0,1,41.73,1150.53Z"/>
        <path class="cls-1" d="M43.38,1153.91c1.18-.24,1.48-1.11,1.68-2.49h.38v2.29H47.9l-.07.53H45.44v4.46c0,.8.42,1.23,1.13,1.23s1.24-.47,1.42-1.52l.26,0c-.08,1.3-.78,2.18-1.9,2.18a1.71,1.71,0,0,1-1.85-1.82v-4.57H43.38Z"/>
        <path class="cls-1" d="M50.53,1159c0,.93.21,1,.82,1.42v.08H48.8v-.08c.6-.38.81-.49.81-1.42v-3.86c0-.73-.45-1-1-1.33v-.09h1.89Zm-.56-8.46a.76.76,0,0,1,.76.76.75.75,0,0,1-.76.75.74.74,0,0,1-.75-.75A.75.75,0,0,1,50,1150.53Z"/>
        <path class="cls-1" d="M58.32,1159c0,.93.21,1,.81,1.42v.08H56.58v-.08c.61-.38.82-.49.82-1.42v-2.77c0-1-.38-1.93-1.59-1.93s-2.14,1-2.14,2.64V1159c0,.93.21,1,.81,1.42v.08H51.93v-.08c.61-.38.82-.49.82-1.42v-3.86c0-.73-.45-1-1-1.33v-.09h1.84l.05,1.68a2.5,2.5,0,0,1,2.48-1.82c1.39,0,2.17.9,2.17,2.44Z"/>
        <path class="cls-1" d="M62.67,1163.64c-1.69,0-3.23-.6-3.23-1.94,0-.8.72-1.39,1.89-1.59-.72-.11-1.36-.39-1.36-1.16a1.53,1.53,0,0,1,1.1-1.33,2.15,2.15,0,0,1-.89-1.79,2.28,2.28,0,0,1,2.56-2.26,2.69,2.69,0,0,1,1.89.65,2,2,0,0,1,1.43-1,.73.73,0,0,1,.8.74.7.7,0,0,1-.7.7c0-.34-.17-.62-.52-.62a1,1,0,0,0-.74.45,2.24,2.24,0,0,1,.4,1.32,2.27,2.27,0,0,1-2.56,2.25,3.16,3.16,0,0,1-1.38-.29,1,1,0,0,0-.62.8c0,.57.39.74,1.22.74h1.72c1.67,0,2.63.62,2.63,1.89C66.31,1162.82,64.62,1163.64,62.67,1163.64Zm-.14-3.44c-1.4,0-2.11.49-2.11,1.43s1,1.47,2.25,1.47c1.6,0,2.75-.6,2.75-1.68,0-.73-.49-1.22-1.72-1.22Zm.21-6.11c-.94,0-1.55.62-1.55,1.74s.61,1.73,1.55,1.73a1.74,1.74,0,0,0,0-3.47Z"/>
        <path class="cls-1" d="M68.12,1160.62a.83.83,0,1,1,.82-.83A.81.81,0,0,1,68.12,1160.62Z"/>
      </g>
    </g>
  </g>
</svg>
