<svg xmlns="http://www.w3.org/2000/svg" viewBox="0 0 89.64 1110.4">
  <defs>
    <style>
      .cls-1 {
        fill: gray;
      }
    </style>
  </defs>
  <g id="Layer_2" data-name="Layer 2">
    <g id="Layer_1-2" data-name="Layer 1">
      <g>
        <path class="cls-1" d="M23.69,1.86A10.54,10.54,0,0,0,26,1.63l-.41,6.73h-.31C24,4.86,23.42,3.15,20,3.15H15.79L10.51,24.28a6.26,6.26,0,0,0-.27,1.63c0,1.18.65,1.6,2,2.28v.27H4.2v-.27c2.39-1,3.11-1.4,3.76-3.91L13.24,3.15H9.52c-3.46,0-4.6,1.07-8.4,5.21H.74l3-6.73a8.6,8.6,0,0,0,2.2.23Z"/>
        <path class="cls-1" d="M28.86,15.73c1.86-3.57,5-6,8.21-6,2.54,0,3.76,1.71,3.76,4.06a8,8,0,0,1-.27,2l-2.24,9a6.06,6.06,0,0,0-.15,1c0,.84.53,1.29,1.56,1.29a7.9,7.9,0,0,0,2.43-.49v.38a6.67,6.67,0,0,1-4,1.9,2.34,2.34,0,0,1-2.47-2.62,7.14,7.14,0,0,1,.19-1.45l2.24-8.89a5.87,5.87,0,0,0,.23-1.59,2.31,2.31,0,0,0-2.51-2.62c-3.19,0-6.91,3.95-8.39,9.91l-1.71,6.88H23.28L29.39,3.84A3.76,3.76,0,0,0,29.51,3c0-1.33-1-2-2.17-2.73V0h5.43Z"/>
        <path class="cls-1" d="M46.11,24.81a5.43,5.43,0,0,0-.15,1c0,.87.57,1.29,1.56,1.29A7.84,7.84,0,0,0,50,26.56v.38a6.67,6.67,0,0,1-4,1.9,2.31,2.31,0,0,1-2.39-2.59,6.9,6.9,0,0,1,.19-1.48l2.7-10.86a4.39,4.39,0,0,0,.11-.88c0-1.33-1-2-2.16-2.73v-.23H49.8ZM49.76,5.55a2.06,2.06,0,1,1,2.05-2A2,2,0,0,1,49.76,5.55Z"/>
        <path class="cls-1" d="M50.86,28.46l3.61-14.55a3.83,3.83,0,0,0,.12-.88c0-1.33-1-2-2.17-2.73v-.23h5.24l-1.21,5.66c1.86-3.57,5-6,8.2-6,2.55,0,3.77,1.71,3.77,4.06a8.22,8.22,0,0,1-.27,2l-2.24,9a5.07,5.07,0,0,0-.15,1c0,.84.53,1.29,1.55,1.29a7.9,7.9,0,0,0,2.44-.49v.38a6.69,6.69,0,0,1-4,1.9,2.34,2.34,0,0,1-2.47-2.62,7.14,7.14,0,0,1,.19-1.45l2.24-8.89a6.29,6.29,0,0,0,.23-1.59,2.31,2.31,0,0,0-2.51-2.62c-3.19,0-6.91,3.95-8.4,9.91l-1.71,6.88Z"/>
        <path class="cls-1" d="M75.87,16.15c2.47-3.57,5.77-6.46,9.23-6.46,2.7,0,4,1.52,4,3.65,0,3.42-3.27,6.42-8,7.25l2.51,4.68a2.75,2.75,0,0,0,2.93,1.86,13.13,13.13,0,0,0,1.9-.15v.26a6.18,6.18,0,0,1-3.88,1.6c-1.6,0-2.28-.91-3-2.36l-3.68-7.1,1.74.38c4.71-.65,7-3.31,7-5.89,0-1.45-.72-2.32-2.5-2.32-3.08,0-7.26,4.52-8.78,7.33l-2.39,9.58H70.39L76.51,3.84A3.7,3.7,0,0,0,76.62,3c0-1.33-.94-2-2.16-2.73V0h5.43Z"/>
        <path class="cls-1" d="M14.67,92.41a4.48,4.48,0,0,0-.16.88c0,.91.5,1.36,1.52,1.36a7.79,7.79,0,0,0,2.43-.49v.38a6.64,6.64,0,0,1-4,1.9A2.31,2.31,0,0,1,12,93.82a7.22,7.22,0,0,1,.49-2.25C11.13,94.16,9,96.44,5.89,96.44,2.36,96.44,0,93.74,0,89.56c0-6.38,4.37-12.27,10-12.27,3.12,0,4.87,1.71,5.28,3.57A14.55,14.55,0,0,1,18,77.29h.46ZM14,85.27a10.5,10.5,0,0,0,.3-2.24c0-3-1.86-4.15-4-4.15-4.52,0-7.56,4.87-7.56,10.68,0,3.12,1.44,5.17,3.76,5.17,3.19,0,6.08-3.46,7.14-7.87Z"/>
        <path class="cls-1" d="M25.5,71.44a4.31,4.31,0,0,0,.11-.88c0-1.33-.95-2-2.16-2.73V67.6h5.43L25.27,82.15c1.44-2.58,3.87-4.86,7.14-4.86,3.65,0,5.85,2.66,5.85,6.88,0,6.38-3.95,12.27-10.33,12.27a5.51,5.51,0,0,1-5.47-3.76,14.75,14.75,0,0,1-2.7,3.57H19.3ZM31.58,79c-3.16,0-6.46,3.42-7.41,7.48l-.42,1.79a10.08,10.08,0,0,0-.23,2c0,3.08,2,4.6,4.29,4.6,4.83,0,7.72-5.62,7.72-10.71C35.53,81,34.24,79,31.58,79Z"/>
        <path class="cls-1" d="M46.7,96.44c-4.1,0-7.26-2.81-7.26-7.79,0-5.62,3.92-11.36,9.85-11.36,4.1,0,7.25,2.81,7.25,7.79C56.54,90.7,52.63,96.44,46.7,96.44Zm0-1.56c4,0,7.1-4.94,7.1-10.22,0-3.57-1.29-5.81-4.51-5.81-4,0-7.11,4.94-7.11,10.22C42.18,92.64,43.47,94.88,46.7,94.88Z"/>
        <path class="cls-1" d="M70.33,90.4c-1.86,3.57-5,6-8.2,6-2.55,0-3.76-1.71-3.76-4.07a7.87,7.87,0,0,1,.26-2l2.21-8.85a4.39,4.39,0,0,0,.11-.88c0-1.33-1-2-2.16-2.73v-.23h5.47L61.1,90.25A7,7,0,0,0,60.88,92c0,1.59.75,2.62,2.43,2.62,3.19,0,7-3.92,8.47-10.07l1.71-6.84h2.43L72.23,92.41a4.66,4.66,0,0,0-.11.88c0,.87.61,1.36,1.6,1.36a7.9,7.9,0,0,0,2.43-.49v.38a6.67,6.67,0,0,1-4,1.9,2.34,2.34,0,0,1-2.47-2.62,6.88,6.88,0,0,1,.19-1.45Z"/>
        <path class="cls-1" d="M80.79,91.46a3.79,3.79,0,0,0-.16,1.06c0,1.33.84,1.94,2.44,1.94a14.43,14.43,0,0,0,4-.72v.46a10.72,10.72,0,0,1-5.54,2.24,3.18,3.18,0,0,1-3.42-3.38,6.28,6.28,0,0,1,.19-1.45l3.08-12.5h-3l.26-1c3.27-.75,4.75-2.92,6.23-6.68h1l-1.59,6.23h5.43l-.57,1.44H83.83Z"/>
        <path class="cls-1" d="M24.36,160a4.4,4.4,0,0,0-.15.87c0,.92.49,1.37,1.51,1.37a7.9,7.9,0,0,0,2.44-.49v.38a6.67,6.67,0,0,1-4,1.9,2.31,2.31,0,0,1-2.43-2.62,7.22,7.22,0,0,1,.49-2.25c-1.37,2.59-3.49,4.87-6.61,4.87-3.53,0-5.89-2.7-5.89-6.88,0-6.38,4.37-12.27,10-12.27,3.12,0,4.87,1.71,5.28,3.57a15.27,15.27,0,0,1,2.7-3.57h.46Zm-.65-7.14a10.57,10.57,0,0,0,.31-2.24c0-3-1.87-4.15-4-4.15-4.52,0-7.56,4.87-7.56,10.68,0,3.12,1.44,5.17,3.76,5.17,3.19,0,6.08-3.46,7.14-7.87Z"/>
        <path class="cls-1" d="M29,163.66l3.61-14.55a3.83,3.83,0,0,0,.12-.88c0-1.33-.95-2-2.17-2.73v-.23h5.24l-1.21,5.66c1.86-3.57,5-6,8.2-6,2.55,0,3.77,1.71,3.77,4.07a8.2,8.2,0,0,1-.27,2l-2.24,9a5.07,5.07,0,0,0-.15,1c0,.84.53,1.29,1.55,1.29a7.9,7.9,0,0,0,2.44-.49v.38a6.69,6.69,0,0,1-4,1.9,2.34,2.34,0,0,1-2.47-2.62,6.5,6.5,0,0,1,.19-1.45l2.24-8.89a6.29,6.29,0,0,0,.23-1.59,2.31,2.31,0,0,0-2.51-2.62c-3.19,0-6.91,3.95-8.4,9.91l-1.71,6.88Z"/>
        <path class="cls-1" d="M61.6,158c-1.87,3.57-5,6-8.21,6-2.55,0-3.76-1.71-3.76-4.07a8.4,8.4,0,0,1,.26-2l2.21-8.85a4.39,4.39,0,0,0,.11-.88c0-1.33-1-2-2.16-2.73v-.23h5.47l-3.16,12.58a7,7,0,0,0-.22,1.7c0,1.6.76,2.63,2.43,2.63,3.19,0,7-3.92,8.47-10.07l1.71-6.84h2.43L63,162c-1.52,6.12-4.63,10.19-10.29,10.19-3.65,0-6.12-1.49-6.12-4A2.32,2.32,0,0,1,49,165.86a2.63,2.63,0,0,1,.91.15,2.66,2.66,0,0,0-.68,1.87c0,1.82,1.18,3,3.46,3,4.48,0,6.61-3.69,7.94-9Z"/>
        <path class="cls-1" d="M68.25,152.56h9.46l-.38,1.64H67.87Z"/>
        <path class="cls-1" d="M9.12,226.66A4.13,4.13,0,0,0,9,227.72c0,1.33.83,1.94,2.43,1.94a14.43,14.43,0,0,0,4-.72v.46a10.79,10.79,0,0,1-5.55,2.24,3.18,3.18,0,0,1-3.42-3.38,6.88,6.88,0,0,1,.19-1.45l3.08-12.5h-3l.27-1c3.26-.76,4.75-2.92,6.23-6.68h1l-1.59,6.23H18l-.57,1.44H12.16Z"/>
        <path class="cls-1" d="M21.89,218.53c1.86-3.57,5-6,8.2-6,2.55,0,3.77,1.71,3.77,4.06a8,8,0,0,1-.27,2l-2.24,9a5,5,0,0,0-.15.95c0,.84.53,1.29,1.55,1.29a7.9,7.9,0,0,0,2.44-.49v.38a6.69,6.69,0,0,1-4,1.9A2.34,2.34,0,0,1,28.69,229a6.57,6.57,0,0,1,.19-1.45l2.24-8.89a6.29,6.29,0,0,0,.23-1.59,2.32,2.32,0,0,0-2.51-2.63c-3.19,0-6.91,4-8.4,9.92l-1.71,6.88H16.3l6.12-24.62a4.31,4.31,0,0,0,.11-.88c0-1.33-1-2-2.16-2.73v-.23H25.8Z"/>
        <path class="cls-1" d="M39.14,227.61a4.52,4.52,0,0,0-.15.95c0,.87.57,1.29,1.55,1.29a7.9,7.9,0,0,0,2.44-.49v.38a6.67,6.67,0,0,1-4,1.9,2.31,2.31,0,0,1-2.39-2.59,6.32,6.32,0,0,1,.19-1.48l2.69-10.86a3.76,3.76,0,0,0,.12-.88c0-1.33-1-2-2.17-2.73v-.23h5.43Zm3.65-19.26a2.06,2.06,0,1,1,2.05-2A2,2,0,0,1,42.79,208.35Z"/>
        <path class="cls-1" d="M43.89,231.26l3.61-14.55a4.31,4.31,0,0,0,.11-.88c0-1.33-1-2-2.16-2.73v-.23h5.24l-1.22,5.66c1.87-3.57,5-6,8.21-6,2.55,0,3.76,1.71,3.76,4.06a8.17,8.17,0,0,1-.26,2l-2.24,9a5.07,5.07,0,0,0-.16.95c0,.84.53,1.29,1.56,1.29a7.79,7.79,0,0,0,2.43-.49v.38a6.64,6.64,0,0,1-4,1.9A2.34,2.34,0,0,1,56.28,229a7.17,7.17,0,0,1,.18-1.45l2.25-8.89a6.29,6.29,0,0,0,.23-1.59,2.32,2.32,0,0,0-2.51-2.63c-3.19,0-6.92,4-8.4,9.92l-1.71,6.88Z"/>
        <path class="cls-1" d="M76.57,226.85c-1.45,2.58-3.65,4.79-6.92,4.79-3.65,0-6-2.66-6-6.88,0-6.38,4.45-12.27,10.26-12.27,3.11,0,5.09,1.79,5.51,3.65a15.39,15.39,0,0,1,2.73-3.65h.46l-4.71,18.92c-1.37,5.55-4.45,8.4-9.65,8.4-3.84,0-6.76-1.9-6.76-4.56a2.23,2.23,0,0,1,2.27-2.43,2.64,2.64,0,0,1,1,.19,2.71,2.71,0,0,0-.68,1.86c0,2,1.48,3.57,4.22,3.57,4.22,0,6.15-2.77,7.25-7.14Zm1.55-6.19a9.41,9.41,0,0,0,.23-2c0-3.07-2-4.59-4.29-4.59-4.83,0-7.71,5.62-7.71,10.71,0,3.15,1.29,5.17,4,5.17,3.15,0,6.46-3.42,7.41-7.49Z"/>
        <path class="cls-1" d="M28.67,293.2c-1.86,3.57-5,6-8.21,6-2.54,0-3.76-1.71-3.76-4.07a7.91,7.91,0,0,1,.27-2l2.2-8.85a3.83,3.83,0,0,0,.12-.88c0-1.33-.95-2-2.17-2.73v-.23h5.47L19.44,293a7.2,7.2,0,0,0-.23,1.71c0,1.6.76,2.63,2.43,2.63,3.19,0,7-3.92,8.47-10.07l1.71-6.84h2.44l-4.18,16.75c-1.52,6.12-4.64,10.19-10.3,10.19-3.65,0-6.12-1.48-6.12-4a2.32,2.32,0,0,1,2.43-2.36,2.69,2.69,0,0,1,.92.15,2.62,2.62,0,0,0-.69,1.87c0,1.82,1.18,3,3.46,3,4.48,0,6.61-3.69,7.94-9Z"/>
        <path class="cls-1" d="M41.86,299.24c-4.11,0-7.26-2.81-7.26-7.79,0-5.62,3.91-11.36,9.84-11.36,4.1,0,7.26,2.81,7.26,7.79C51.7,293.5,47.78,299.24,41.86,299.24Zm0-1.56c4,0,7.1-4.94,7.1-10.22,0-3.57-1.29-5.81-4.52-5.81-4,0-7.11,4.94-7.11,10.22C37.33,295.44,38.63,297.68,41.86,297.68Z"/>
        <path class="cls-1" d="M65.49,293.2c-1.86,3.57-5,6-8.2,6-2.55,0-3.77-1.71-3.77-4.07a7.91,7.91,0,0,1,.27-2l2.2-8.85a3.83,3.83,0,0,0,.12-.88c0-1.33-1-2-2.17-2.73v-.23h5.47L56.26,293a7.2,7.2,0,0,0-.23,1.71c0,1.6.76,2.63,2.43,2.63,3.19,0,7-3.92,8.48-10.07l1.7-6.84h2.44l-3.69,14.74a4,4,0,0,0-.11.87c0,.88.6,1.37,1.59,1.37A7.79,7.79,0,0,0,71.3,297v.38a6.64,6.64,0,0,1-4,1.9,2.34,2.34,0,0,1-2.47-2.62,6.28,6.28,0,0,1,.19-1.45Z"/>
        <path class="cls-1" d="M7.24,354.45c1.71-3.23,4.1-6.76,7.33-6.76a2,2,0,0,1,2.32,2,2.45,2.45,0,0,1-2.58,2.47,1.83,1.83,0,0,0,.3-.95c0-.64-.46-1.18-1.41-1.18-2.47,0-6,4.91-7.1,9.12l-1.82,7.3H1.84l3.61-14.55a3.83,3.83,0,0,0,.12-.88c0-1.33-1-2-2.17-2.73v-.23H8.83Z"/>
        <path class="cls-1" d="M15.75,359.62c0-5.78,4.41-11.93,10.37-11.93,3.39,0,5.4,1.56,5.4,4.14,0,3.95-4.56,5.66-12.92,6.12a12.89,12.89,0,0,0-.11,1.67c0,3.46,1.78,5.51,4.9,5.51,2.32,0,4.37-1.14,6.19-3.65l.65.34a8.28,8.28,0,0,1-7.68,5C18.22,366.84,15.75,364,15.75,359.62Zm3.08-3c5.55-.27,10-.92,10-5.1,0-1.52-1-2.39-2.66-2.39C22.25,349.17,19.66,352.71,18.83,356.66Z"/>
        <path class="cls-1" d="M46.61,362.81a4.48,4.48,0,0,0-.16.88c0,.91.5,1.36,1.52,1.36a7.79,7.79,0,0,0,2.43-.49v.38a6.64,6.64,0,0,1-4,1.9A2.31,2.31,0,0,1,44,364.22a7,7,0,0,1,.49-2.25c-1.37,2.59-3.5,4.87-6.61,4.87-3.54,0-5.89-2.7-5.89-6.88,0-6.38,4.37-12.27,10-12.27,3.12,0,4.86,1.71,5.28,3.57a14.55,14.55,0,0,1,2.7-3.57h.46ZM46,355.67a10.5,10.5,0,0,0,.3-2.24c0-3-1.86-4.14-4-4.14-4.53,0-7.57,4.86-7.57,10.67,0,3.12,1.45,5.17,3.77,5.17,3.19,0,6.08-3.46,7.14-7.87Z"/>
        <path class="cls-1" d="M54.51,362.81a4.62,4.62,0,0,0-.15.95c0,.87.53,1.29,1.56,1.29a7.9,7.9,0,0,0,2.43-.49v.38a6.67,6.67,0,0,1-4,1.9,2.33,2.33,0,0,1-2.47-2.59,6.76,6.76,0,0,1,.23-1.48l5.13-20.93a4.31,4.31,0,0,0,.11-.88c0-1.33-1-2-2.16-2.73V338h5.43Z"/>
        <path class="cls-1" d="M62.49,362.81a4.62,4.62,0,0,0-.15.95c0,.87.53,1.29,1.55,1.29a7.9,7.9,0,0,0,2.44-.49v.38a6.67,6.67,0,0,1-4,1.9,2.33,2.33,0,0,1-2.47-2.59,6.76,6.76,0,0,1,.23-1.48l5.13-20.93a4.31,4.31,0,0,0,.11-.88c0-1.33-1-2-2.17-2.73V338h5.44Z"/>
        <path class="cls-1" d="M80.27,360.8c-1.86,3.57-5,6-8.21,6-2.54,0-3.76-1.71-3.76-4.07a8,8,0,0,1,.27-2l2.2-8.85a3.83,3.83,0,0,0,.12-.88c0-1.33-1-2-2.17-2.73v-.23h5.47L71,360.65a7.07,7.07,0,0,0-.23,1.71c0,1.59.76,2.62,2.43,2.62,3.19,0,7-3.92,8.47-10.07l1.72-6.84h2.43l-4.18,16.75C80.16,370.94,77,375,71.38,375c-3.65,0-6.12-1.48-6.12-4a2.32,2.32,0,0,1,2.44-2.36,2.67,2.67,0,0,1,.91.15,2.66,2.66,0,0,0-.69,1.87c0,1.82,1.18,3,3.46,3,4.48,0,6.61-3.69,7.94-9.05Z"/>
        <path class="cls-1" d="M21.57,430.41a4.59,4.59,0,0,0-.16.95c0,.87.54,1.29,1.56,1.29a7.79,7.79,0,0,0,2.43-.49v.38a6.67,6.67,0,0,1-4,1.9,2.33,2.33,0,0,1-2.47-2.59,7.37,7.37,0,0,1,.22-1.48l5.13-20.93a3.76,3.76,0,0,0,.12-.88c0-1.33-.95-2-2.17-2.73v-.23h5.43Z"/>
        <path class="cls-1" d="M29.62,430.41a4.52,4.52,0,0,0-.15.95c0,.87.57,1.29,1.56,1.29a7.9,7.9,0,0,0,2.43-.49v.38a6.67,6.67,0,0,1-4,1.9A2.31,2.31,0,0,1,27,431.85a6.32,6.32,0,0,1,.19-1.48l2.7-10.86a4.39,4.39,0,0,0,.11-.88c0-1.33-.95-2-2.17-2.73v-.23h5.44Zm3.65-19.26a2.06,2.06,0,1,1,2-2A2,2,0,0,1,33.27,411.15Z"/>
        <path class="cls-1" d="M39.84,421.75c2.47-3.57,5.78-6.46,9.24-6.46,2.69,0,4,1.52,4,3.65,0,3.42-3.27,6.42-8,7.25l2.51,4.68a2.74,2.74,0,0,0,2.92,1.86,13,13,0,0,0,1.9-.15v.26a6.13,6.13,0,0,1-3.87,1.6c-1.6,0-2.28-.91-3-2.36L41.74,425l1.75.38c4.71-.65,7-3.31,7-5.89,0-1.45-.72-2.32-2.51-2.32-3.07,0-7.25,4.52-8.77,7.33l-2.4,9.58H34.37l6.12-24.62a4.31,4.31,0,0,0,.11-.88c0-1.33-1-2-2.16-2.73v-.23h5.43Z"/>
        <path class="cls-1" d="M53.64,427.22c0-5.78,4.4-11.93,10.37-11.93,3.38,0,5.39,1.56,5.39,4.14,0,3.95-4.55,5.66-12.91,6.12a11.32,11.32,0,0,0-.12,1.67c0,3.46,1.79,5.51,4.9,5.51,2.32,0,4.37-1.14,6.2-3.65l.64.34a8.25,8.25,0,0,1-7.67,5C56.11,434.44,53.64,431.63,53.64,427.22Zm3.07-3c5.55-.27,10-.92,10-5.1,0-1.52-1-2.39-2.66-2.39C60.13,416.77,57.55,420.3,56.71,424.26Z"/>
        <path class="cls-1" d="M33.13,497.06a4.13,4.13,0,0,0-.15,1.06c0,1.34.84,1.94,2.44,1.94a14.43,14.43,0,0,0,4-.72v.46A10.72,10.72,0,0,1,33.86,502a3.18,3.18,0,0,1-3.42-3.38,6.28,6.28,0,0,1,.19-1.45l3.08-12.5h-3l.26-1c3.27-.76,4.75-2.92,6.23-6.68h1l-1.6,6.23H42l-.57,1.44H36.18Z"/>
        <path class="cls-1" d="M47.84,502c-4.1,0-7.26-2.81-7.26-7.79,0-5.62,3.92-11.36,9.84-11.36,4.11,0,7.26,2.81,7.26,7.79C57.68,496.3,53.77,502,47.84,502Zm0-1.56c4,0,7.11-4.94,7.11-10.22,0-3.57-1.3-5.81-4.53-5.81-4,0-7.1,4.94-7.1,10.22C43.32,498.24,44.61,500.48,47.84,500.48Z"/>
        <path class="cls-1" d="M37.92,564.78c-1.44,2.58-3.68,4.86-7,4.86-3.65,0-6-2.66-6-6.88,0-6.38,4.44-12.27,10.26-12.27,3.11,0,4.94,1.9,5.35,3.76l2.32-9.61a3.57,3.57,0,0,0,.12-.88c0-1.33-.92-2-2.17-2.73v-.23h5.43l-6.08,24.81a5.89,5.89,0,0,0-.15.95c0,.87.5,1.29,1.52,1.29a7.79,7.79,0,0,0,2.43-.49v.38a6.64,6.64,0,0,1-4,1.9A2.34,2.34,0,0,1,37.47,567,6.74,6.74,0,0,1,37.92,564.78Zm1.52-6.12a10.09,10.09,0,0,0,.23-2c0-3.07-2-4.59-4.29-4.59-4.83,0-7.72,5.62-7.72,10.71,0,3.15,1.3,5.17,4,5.17,3.15,0,6.45-3.42,7.4-7.49Z"/>
        <path class="cls-1" d="M52.44,569.64c-4.1,0-7.26-2.81-7.26-7.79,0-5.62,3.92-11.36,9.84-11.36,4.1,0,7.26,2.81,7.26,7.79C62.28,563.9,58.37,569.64,52.44,569.64Zm0-1.56c4,0,7.1-4.94,7.1-10.22,0-3.57-1.29-5.81-4.52-5.81-4,0-7.1,4.94-7.1,10.22C47.92,565.84,49.21,568.08,52.44,568.08Z"/>
        <path class="cls-1" d="M29.12,633.21a5.29,5.29,0,0,0-.15.87c0,.92.5,1.37,1.52,1.37a7.79,7.79,0,0,0,2.43-.49v.38a6.64,6.64,0,0,1-4,1.9,2.32,2.32,0,0,1-2.44-2.62,7.16,7.16,0,0,1,.5-2.24c-1.37,2.58-3.5,4.86-6.61,4.86-3.54,0-5.89-2.7-5.89-6.88,0-6.38,4.37-12.27,10-12.27,3.12,0,4.86,1.71,5.28,3.57a14.55,14.55,0,0,1,2.7-3.57h.46Zm-.64-7.14a10.5,10.5,0,0,0,.3-2.24c0-3-1.86-4.14-4-4.14-4.53,0-7.56,4.86-7.56,10.67,0,3.12,1.44,5.17,3.76,5.17,3.19,0,6.08-3.46,7.14-7.87Z"/>
        <path class="cls-1" d="M33.8,636.86l3.61-14.55a3.77,3.77,0,0,0,.11-.88c0-1.33-1-2-2.16-2.73v-.23H40.6l-1.21,5.66c1.86-3.57,5-6,8.2-6,2.55,0,3.76,1.71,3.76,4.06a8.17,8.17,0,0,1-.26,2l-2.24,9a5,5,0,0,0-.15.95c0,.84.53,1.29,1.55,1.29a7.79,7.79,0,0,0,2.43-.49v.38a6.64,6.64,0,0,1-4,1.9,2.34,2.34,0,0,1-2.47-2.62,6.57,6.57,0,0,1,.19-1.45l2.24-8.89a6.29,6.29,0,0,0,.23-1.59,2.32,2.32,0,0,0-2.51-2.63c-3.19,0-6.92,4-8.4,9.92l-1.71,6.88Z"/>
        <path class="cls-1" d="M66.52,632.38c-1.45,2.58-3.69,4.86-7,4.86-3.64,0-6-2.66-6-6.88,0-6.38,4.45-12.27,10.26-12.27,3.12,0,4.94,1.9,5.36,3.76l2.32-9.61a4.07,4.07,0,0,0,.11-.88c0-1.33-.91-2-2.17-2.73v-.23h5.44l-6.08,24.81a5,5,0,0,0-.15.95c0,.88.49,1.29,1.52,1.29a7.9,7.9,0,0,0,2.43-.49v.38a6.67,6.67,0,0,1-4,1.9,2.34,2.34,0,0,1-2.47-2.62A6.53,6.53,0,0,1,66.52,632.38ZM68,626.26a10.09,10.09,0,0,0,.23-2c0-3.07-2-4.59-4.3-4.59-4.82,0-7.71,5.62-7.71,10.71,0,3.16,1.29,5.17,4,5.17,3.15,0,6.46-3.42,7.41-7.49Z"/>
        <path class="cls-1" d="M28.67,698.8c-1.86,3.57-5,6-8.21,6-2.54,0-3.76-1.71-3.76-4.07a8,8,0,0,1,.27-2l2.2-8.85a3.83,3.83,0,0,0,.12-.88c0-1.33-.95-2-2.17-2.73v-.23h5.47l-3.15,12.58a7.07,7.07,0,0,0-.23,1.71c0,1.59.76,2.62,2.43,2.62,3.19,0,7-3.92,8.47-10.07l1.71-6.84h2.44l-4.18,16.75C28.56,708.94,25.44,713,19.78,713c-3.65,0-6.12-1.48-6.12-4a2.32,2.32,0,0,1,2.43-2.36,2.69,2.69,0,0,1,.92.15,2.62,2.62,0,0,0-.69,1.87c0,1.82,1.18,3,3.46,3,4.48,0,6.61-3.69,7.94-9Z"/>
        <path class="cls-1" d="M41.86,704.84c-4.11,0-7.26-2.81-7.26-7.79,0-5.62,3.91-11.36,9.84-11.36,4.1,0,7.26,2.81,7.26,7.79C51.7,699.1,47.78,704.84,41.86,704.84Zm0-1.56c4,0,7.1-4.94,7.1-10.22,0-3.57-1.29-5.81-4.52-5.81-4,0-7.11,4.94-7.11,10.22C37.33,701,38.63,703.28,41.86,703.28Z"/>
        <path class="cls-1" d="M65.49,698.8c-1.86,3.57-5,6-8.2,6-2.55,0-3.77-1.71-3.77-4.07a8,8,0,0,1,.27-2l2.2-8.85a3.83,3.83,0,0,0,.12-.88c0-1.33-1-2-2.17-2.73v-.23h5.47l-3.15,12.58a7.07,7.07,0,0,0-.23,1.71c0,1.59.76,2.62,2.43,2.62,3.19,0,7-3.92,8.48-10.07l1.7-6.84h2.44l-3.69,14.74a4,4,0,0,0-.11.88c0,.87.6,1.36,1.59,1.36a7.79,7.79,0,0,0,2.43-.49v.38a6.64,6.64,0,0,1-4,1.9,2.34,2.34,0,0,1-2.47-2.62,6.28,6.28,0,0,1,.19-1.45Z"/>
        <path class="cls-1" d="M32.07,757.51a3.53,3.53,0,0,0,.11-.88c0-1.33-.91-2-2.16-2.73v-.23h5.43l-2.66,10.68a11.65,11.65,0,0,0-.42,3c0,2.16.92,3.38,2.82,3.38,4.63,0,7.78-7,7.78-12.16,0-1.86-.72-2.93-2.43-2.93a4,4,0,0,0-1.82.42c.42-2,1.67-2.77,2.92-2.77,2.32,0,3.35,1.94,3.35,4.37,0,6.61-4.37,14.78-10.53,14.78-2.77,0-4.33-1.86-4.33-4.9-1.25,3-3.76,4.9-6.5,4.9-3,0-4.48-1.94-4.48-4.87a12.46,12.46,0,0,1,.42-3l1.75-7.1a4.39,4.39,0,0,0,.11-.88c0-1.33-.95-2-2.16-2.73v-.23H24.7L22,764.57a13,13,0,0,0-.42,2.89c0,2.13,1,3.27,2.89,3.27,3.12,0,5.28-3.57,6.12-7Z"/>
        <path class="cls-1" d="M48.9,768.41a5.29,5.29,0,0,0-.15,1c0,.87.57,1.29,1.56,1.29a7.84,7.84,0,0,0,2.43-.49v.38a6.67,6.67,0,0,1-4,1.9,2.31,2.31,0,0,1-2.39-2.59,6.9,6.9,0,0,1,.19-1.48l2.7-10.86a3.77,3.77,0,0,0,.11-.88c0-1.33-1-2-2.16-2.73v-.23h5.43Zm3.65-19.26a2.06,2.06,0,1,1,2.05-2A2,2,0,0,1,52.55,749.15Z"/>
        <path class="cls-1" d="M56.89,768.41a4.59,4.59,0,0,0-.16,1c0,.87.54,1.29,1.56,1.29a7.79,7.79,0,0,0,2.43-.49v.38a6.67,6.67,0,0,1-4,1.9,2.33,2.33,0,0,1-2.47-2.59,6.76,6.76,0,0,1,.23-1.48l5.12-20.93a3.76,3.76,0,0,0,.12-.88c0-1.33-1-2-2.17-2.73v-.23H63Z"/>
        <path class="cls-1" d="M64.87,768.41a4.59,4.59,0,0,0-.16,1c0,.87.54,1.29,1.56,1.29a7.84,7.84,0,0,0,2.43-.49v.38a6.64,6.64,0,0,1-4,1.9,2.33,2.33,0,0,1-2.47-2.59,7.37,7.37,0,0,1,.22-1.48l5.13-20.93a3.76,3.76,0,0,0,.12-.88c0-1.33-1-2-2.17-2.73v-.23H71Z"/>
        <path class="cls-1" d="M29.13,822.37c-2.47,0-4,1.18-4,3,0,1.37,1,2.28,3.8,3.88,3.34,1.9,4.41,3.26,4.41,5.28,0,3.26-3.08,5.47-6.92,5.47s-6.76-2.09-6.76-4.49a2,2,0,0,1,2.2-2.09,2.71,2.71,0,0,1,1,.16,2.3,2.3,0,0,0-.53,1.52c0,1.86,1.48,3.45,4.1,3.45,2.43,0,4.52-1.1,4.52-3.19,0-1.33-.87-2.51-3.61-4s-4.56-2.92-4.56-5.24c0-3,2.78-5.28,6.39-5.28s6,1.75,6,4a2.08,2.08,0,0,1-2.35,2,4.37,4.37,0,0,1-.76-.07,2.55,2.55,0,0,0,.49-1.6C32.47,823.51,31.22,822.37,29.13,822.37Z"/>
        <path class="cls-1" d="M35.4,832.82c0-5.78,4.4-11.93,10.37-11.93,3.38,0,5.39,1.56,5.39,4.14,0,4-4.55,5.66-12.91,6.12a11.32,11.32,0,0,0-.12,1.67c0,3.46,1.79,5.51,4.9,5.51,2.32,0,4.37-1.14,6.2-3.65l.64.34a8.25,8.25,0,0,1-7.67,5C37.87,840,35.4,837.23,35.4,832.82Zm3.07-3c5.55-.27,10-.92,10-5.1,0-1.52-1-2.39-2.66-2.39C41.89,822.37,39.31,825.9,38.47,829.86Z"/>
        <path class="cls-1" d="M51.62,832.82C51.62,827,56,820.89,62,820.89c3.39,0,5.4,1.56,5.4,4.14,0,4-4.56,5.66-12.92,6.12a12.89,12.89,0,0,0-.11,1.67c0,3.46,1.78,5.51,4.9,5.51,2.32,0,4.37-1.14,6.19-3.65l.65.34a8.28,8.28,0,0,1-7.68,5C54.09,840,51.62,837.23,51.62,832.82Zm3.08-3c5.55-.27,10-.92,10-5.1,0-1.52-1-2.39-2.66-2.39C58.12,822.37,55.54,825.9,54.7,829.86Z"/>
        <path class="cls-1" d="M19.05,892.71a3.57,3.57,0,0,0,.12-.88c0-1.33-.91-2-2.17-2.73v-.23h5.44l-2.66,10.67a11.4,11.4,0,0,0-.42,3c0,2.16.91,3.38,2.81,3.38,4.64,0,7.79-7,7.79-12.16,0-1.86-.72-2.93-2.43-2.93a4,4,0,0,0-1.82.42c.41-2,1.67-2.77,2.92-2.77,2.32,0,3.34,1.94,3.34,4.37,0,6.61-4.37,14.78-10.52,14.78-2.77,0-4.33-1.86-4.33-4.9-1.26,3-3.76,4.9-6.5,4.9-3,0-4.48-1.94-4.48-4.86a12.94,12.94,0,0,1,.41-3l1.75-7.1a3.76,3.76,0,0,0,.12-.88c0-1.33-1-2-2.17-2.73v-.23h5.43L9,899.77a12.49,12.49,0,0,0-.42,2.89c0,2.13,1,3.27,2.89,3.27,3.11,0,5.28-3.57,6.12-7Z"/>
        <path class="cls-1" d="M38.17,894.53c1.86-3.57,5-6,8.21-6,2.54,0,3.76,1.71,3.76,4.06a8,8,0,0,1-.27,2l-2.24,9a5,5,0,0,0-.15.95c0,.84.53,1.29,1.56,1.29a7.9,7.9,0,0,0,2.43-.49v.38a6.67,6.67,0,0,1-4,1.9A2.34,2.34,0,0,1,45,905a7.23,7.23,0,0,1,.19-1.45l2.24-8.89a6.29,6.29,0,0,0,.23-1.59,2.32,2.32,0,0,0-2.51-2.63c-3.19,0-6.91,4-8.39,9.92L35,907.26H32.59l6.11-24.62a3.76,3.76,0,0,0,.12-.88c0-1.33-1-2-2.17-2.73v-.23h5.43Z"/>
        <path class="cls-1" d="M67,903.61a5.29,5.29,0,0,0-.15.87c0,.92.49,1.37,1.52,1.37a7.79,7.79,0,0,0,2.43-.49v.38a6.67,6.67,0,0,1-4,1.9A2.32,2.32,0,0,1,64.31,905a6.89,6.89,0,0,1,.5-2.24c-1.37,2.58-3.5,4.86-6.61,4.86-3.54,0-5.89-2.7-5.89-6.88,0-6.38,4.37-12.27,10-12.27,3.12,0,4.86,1.71,5.28,3.57a14.55,14.55,0,0,1,2.7-3.57h.45Zm-.64-7.14a10.5,10.5,0,0,0,.3-2.24c0-3-1.86-4.15-4-4.15-4.52,0-7.56,4.87-7.56,10.68,0,3.12,1.45,5.17,3.76,5.17,3.2,0,6.08-3.46,7.15-7.87Z"/>
        <path class="cls-1" d="M75.45,902.66a3.73,3.73,0,0,0-.15,1.06c0,1.33.83,1.94,2.43,1.94a14.55,14.55,0,0,0,4-.72v.46a10.79,10.79,0,0,1-5.55,2.24,3.18,3.18,0,0,1-3.42-3.38,6.88,6.88,0,0,1,.19-1.45L76,890.31H73l.26-1c3.27-.76,4.75-2.92,6.23-6.68h1l-1.59,6.23H84.3l-.57,1.44H78.49Z"/>
        <path class="cls-1" d="M45.67,952.44a7.7,7.7,0,0,0,.27-1.67c0-1.14-.57-1.56-1.71-2.24v-.27h7.33v.27c-2,1-2.73,1.4-3.34,3.91l-4.56,18.24a8.37,8.37,0,0,0-.27,1.67c0,1.14.57,1.56,1.72,2.24v.27H37.77v-.27c2-1,2.74-1.4,3.35-3.91Z"/>
        <path class="cls-1" d="M17.16,1029.73c1.86-3.57,4.82-6,7.86-6,2.58,0,3.65,1.6,3.65,3.8a10,10,0,0,1-.31,2.28l-2.24,9a6.06,6.06,0,0,0-.15,1c0,.84.53,1.29,1.56,1.29a7.84,7.84,0,0,0,2.43-.49v.38a6.67,6.67,0,0,1-4,1.9,2.34,2.34,0,0,1-2.47-2.62,7.14,7.14,0,0,1,.19-1.45l2.24-8.89a7.62,7.62,0,0,0,.27-1.93c0-1.41-.61-2.28-2.32-2.28-3,0-6.57,3.76-8.13,9.95L14,1042.46H11.53l3.16-12.58A7.57,7.57,0,0,0,15,1028c0-1.41-.61-2.28-2.32-2.28-3,0-6.57,3.76-8.13,9.95l-1.71,6.84H.36L4,1027.91a3.83,3.83,0,0,0,.12-.88c0-1.33-.95-2-2.17-2.73v-.23H7.16L6,1029.73c1.86-3.57,4.82-6,7.86-6,2.47,0,3.61,1.63,3.61,3.91A8.33,8.33,0,0,1,17.16,1029.73Z"/>
        <path class="cls-1" d="M30.84,1035.62c0-5.78,4.4-11.93,10.37-11.93,3.38,0,5.4,1.56,5.4,4.14,0,4-4.57,5.66-12.92,6.12a11.32,11.32,0,0,0-.12,1.67c0,3.46,1.79,5.51,4.9,5.51,2.32,0,4.37-1.14,6.2-3.65l.64.34a8.25,8.25,0,0,1-7.67,5C33.31,1042.84,30.84,1040,30.84,1035.62Zm3.07-3c5.55-.27,10-.92,10-5.1,0-1.52-1-2.39-2.66-2.39C37.33,1025.17,34.75,1028.71,33.91,1032.66Z"/>
        <path class="cls-1" d="M61.69,1038.81a5.21,5.21,0,0,0-.15.88c0,.91.49,1.36,1.52,1.36a7.84,7.84,0,0,0,2.43-.49v.38a6.67,6.67,0,0,1-4,1.9,2.32,2.32,0,0,1-2.43-2.62,7,7,0,0,1,.5-2.25c-1.37,2.59-3.5,4.87-6.62,4.87-3.53,0-5.88-2.7-5.88-6.88,0-6.38,4.36-12.27,10-12.27,3.11,0,4.86,1.71,5.28,3.57a14.55,14.55,0,0,1,2.7-3.57h.45Zm-.65-7.14a10.57,10.57,0,0,0,.31-2.24c0-3-1.86-4.14-4-4.14-4.52,0-7.56,4.86-7.56,10.67,0,3.12,1.45,5.17,3.76,5.17,3.19,0,6.08-3.46,7.14-7.87Z"/>
        <path class="cls-1" d="M66.37,1042.46,70,1027.91a4.39,4.39,0,0,0,.11-.88c0-1.33-1-2-2.17-2.73v-.23h5.25L72,1029.73c1.86-3.57,5-6,8.21-6,2.54,0,3.76,1.71,3.76,4.06a8.22,8.22,0,0,1-.27,2l-2.24,9a6.06,6.06,0,0,0-.15,1c0,.84.53,1.29,1.56,1.29a7.84,7.84,0,0,0,2.43-.49v.38a6.67,6.67,0,0,1-4,1.9,2.34,2.34,0,0,1-2.47-2.62,7.14,7.14,0,0,1,.19-1.45l2.24-8.89a5.87,5.87,0,0,0,.23-1.59,2.31,2.31,0,0,0-2.51-2.62c-3.19,0-6.91,3.95-8.39,9.91l-1.71,6.88Z"/>
        <path class="cls-1" d="M41.8,1110.4a2.24,2.24,0,1,1,2.24-2.24A2.22,2.22,0,0,1,41.8,1110.4Z"/>
      </g>
    </g>
  </g>
</svg>
