<svg xmlns="http://www.w3.org/2000/svg" viewBox="0 0 91.7 1416.9">
  <defs>
    <style>
      .cls-1 {
        fill: gray;
      }
    </style>
  </defs>
  <g id="Layer_2" data-name="Layer 2">
    <g id="Layer_1-2" data-name="Layer 1">
      <g>
        <path class="cls-1" d="M23.08,1.34a2.4,2.4,0,0,0-2.69,2.32c0,1.24.72,1.69,1.82,2.17l1.38.6C25,7,25.88,7.82,25.88,9.2c0,2.36-2,3.7-4.18,3.7a5.18,5.18,0,0,1-3.45-1.19l-1,1.09h-.18l.85-3.72h.17c.62,2.12,1.71,3.14,3.6,3.14a2.73,2.73,0,0,0,3-2.67c0-1-.59-1.63-1.64-2.07l-1.46-.61C20.2,6.27,19.23,5.39,19.23,4c0-2,1.67-3.34,3.85-3.34a5.17,5.17,0,0,1,3.06.89L27,.7h.19l-.68,3.35h-.12C25.81,2.26,25,1.34,23.08,1.34Z"/>
        <path class="cls-1" d="M30.52,12.9a3.17,3.17,0,0,1-3.24-3.48c0-2.52,1.75-5.09,4.4-5.09a3.18,3.18,0,0,1,3.25,3.49C34.93,10.33,33.18,12.9,30.52,12.9Zm0-.69c1.79,0,3.18-2.21,3.18-4.58,0-1.59-.58-2.6-2-2.6C29.89,5,28.5,7.24,28.5,9.6,28.5,11.2,29.08,12.21,30.52,12.21Z"/>
        <path class="cls-1" d="M40,10.68a1.45,1.45,0,0,0-.07.47c0,.6.37.87,1.09.87a6.39,6.39,0,0,0,1.78-.32v.2a4.76,4.76,0,0,1-2.48,1,1.42,1.42,0,0,1-1.53-1.51,3,3,0,0,1,.08-.65l1.38-5.59H38.92L39,4.71c1.46-.34,2.13-1.31,2.79-3h.44L41.56,4.5H44l-.26.65H41.39Z"/>
        <path class="cls-1" d="M46.08,7a4.48,4.48,0,0,1,3.67-2.71,1.61,1.61,0,0,1,1.68,1.82,3.28,3.28,0,0,1-.12.9l-1,4.05a2.91,2.91,0,0,0-.07.43c0,.37.24.57.7.57A3.31,3.31,0,0,0,52,11.88v.17a3,3,0,0,1-1.8.85,1,1,0,0,1-1.11-1.17,2.66,2.66,0,0,1,.09-.65l1-4a2.76,2.76,0,0,0,.1-.72,1,1,0,0,0-1.12-1.17c-1.43,0-3.09,1.77-3.76,4.44l-.76,3.07H43.58l2.74-11a2.08,2.08,0,0,0,0-.39c0-.6-.43-.9-1-1.23V0h2.43Z"/>
        <path class="cls-1" d="M52.76,9.67c0-2.58,2-5.34,4.64-5.34,1.51,0,2.41.7,2.41,1.86,0,1.77-2,2.53-5.78,2.73a6.16,6.16,0,0,0-.05.75c0,1.55.8,2.47,2.2,2.47A3.39,3.39,0,0,0,59,10.51l.28.15A3.67,3.67,0,0,1,55.8,12.9C53.86,12.9,52.76,11.64,52.76,9.67Zm1.37-1.32c2.49-.12,4.46-.41,4.46-2.28A1,1,0,0,0,57.4,5C55.67,5,54.51,6.58,54.13,8.35Z"/>
        <path class="cls-1" d="M62.59,7.36c.76-1.44,1.83-3,3.28-3a.92.92,0,0,1,1,.91,1.1,1.1,0,0,1-1.15,1.1.86.86,0,0,0,.13-.42c0-.29-.2-.53-.63-.53-1.1,0-2.7,2.19-3.17,4.08l-.82,3.26H60.17l1.62-6.51a2,2,0,0,0,.05-.39c0-.59-.43-.9-1-1.22V4.5H63.3Z"/>
        <path class="cls-1" d="M66.73,9.67c0-2.58,2-5.34,4.64-5.34,1.52,0,2.42.7,2.42,1.86,0,1.77-2,2.53-5.78,2.73a4.65,4.65,0,0,0-.05.75c0,1.55.8,2.47,2.19,2.47a3.36,3.36,0,0,0,2.77-1.63l.29.15a3.69,3.69,0,0,1-3.43,2.24A2.9,2.9,0,0,1,66.73,9.67Zm1.38-1.32c2.48-.12,4.45-.41,4.45-2.28,0-.68-.45-1.07-1.19-1.07C69.64,5,68.48,6.58,68.11,8.35Z"/>
        <path class="cls-1" d="M27.28,63.1a2.51,2.51,0,0,0-.07.39c0,.41.23.61.68.61A3.26,3.26,0,0,0,29,63.88v.17a2.94,2.94,0,0,1-1.8.85,1,1,0,0,1-1.09-1.17,3.31,3.31,0,0,1,.22-1,3.48,3.48,0,0,1-2.95,2.17c-1.58,0-2.64-1.2-2.64-3.07,0-2.86,2-5.5,4.47-5.5a2.2,2.2,0,0,1,2.36,1.6,7,7,0,0,1,1.21-1.6H29ZM27,59.9a4.35,4.35,0,0,0,.14-1,1.66,1.66,0,0,0-1.8-1.85c-2,0-3.38,2.17-3.38,4.78,0,1.39.64,2.31,1.68,2.31,1.43,0,2.72-1.55,3.19-3.52Z"/>
        <path class="cls-1" d="M32.13,59.36c.76-1.44,1.83-3,3.28-3a.92.92,0,0,1,1,.91,1.11,1.11,0,0,1-1.16,1.1.78.78,0,0,0,.14-.42c0-.29-.21-.53-.63-.53-1.11,0-2.7,2.19-3.18,4.08l-.82,3.26H29.71l1.62-6.51a2,2,0,0,0,.05-.39c0-.59-.42-.9-1-1.22V56.5h2.43Z"/>
        <path class="cls-1" d="M36.28,61.67c0-2.58,2-5.34,4.64-5.34,1.51,0,2.41.7,2.41,1.86,0,1.77-2,2.53-5.78,2.73a6.16,6.16,0,0,0,0,.75c0,1.55.8,2.47,2.19,2.47a3.36,3.36,0,0,0,2.77-1.63l.29.15a3.68,3.68,0,0,1-3.43,2.24C37.38,64.9,36.28,63.64,36.28,61.67Zm1.37-1.32c2.48-.12,4.46-.41,4.46-2.28A1,1,0,0,0,40.92,57C39.18,57,38,58.58,37.65,60.35Z"/>
        <path class="cls-1" d="M50.83,62.68a1.78,1.78,0,0,0-.07.47c0,.6.37.87,1.09.87a6.39,6.39,0,0,0,1.78-.32v.2a4.76,4.76,0,0,1-2.48,1,1.42,1.42,0,0,1-1.53-1.51,3.07,3.07,0,0,1,.09-.65l1.37-5.59H49.72l.12-.44c1.46-.34,2.13-1.31,2.79-3h.44l-.71,2.78h2.43l-.25.65H52.19Z"/>
        <path class="cls-1" d="M56.88,59a4.49,4.49,0,0,1,3.67-2.71,1.62,1.62,0,0,1,1.69,1.82,3.72,3.72,0,0,1-.12.9l-1,4.05a2.91,2.91,0,0,0-.07.43c0,.37.24.57.7.57a3.31,3.31,0,0,0,1.09-.22v.17a3,3,0,0,1-1.8.85,1,1,0,0,1-1.11-1.17,3.26,3.26,0,0,1,.09-.65l1-4a2.76,2.76,0,0,0,.1-.72A1,1,0,0,0,60,57.22c-1.43,0-3.09,1.77-3.76,4.44l-.76,3.07H54.38l2.74-11a2.08,2.08,0,0,0,.05-.39c0-.6-.43-.9-1-1.23V52h2.43Z"/>
        <path class="cls-1" d="M63.56,61.67c0-2.58,2-5.34,4.64-5.34,1.52,0,2.42.7,2.42,1.86,0,1.77-2,2.53-5.78,2.73a4.65,4.65,0,0,0,0,.75c0,1.55.8,2.47,2.19,2.47a3.38,3.38,0,0,0,2.77-1.63l.29.15a3.69,3.69,0,0,1-3.43,2.24A2.9,2.9,0,0,1,63.56,61.67Zm1.38-1.32c2.48-.12,4.45-.41,4.45-2.28A1,1,0,0,0,68.2,57C66.47,57,65.31,58.58,64.94,60.35Z"/>
        <path class="cls-1" d="M5.59,114.2a4.47,4.47,0,0,1-3.67,2.7,1.61,1.61,0,0,1-1.68-1.82,3.38,3.38,0,0,1,.12-.9l1-4a1.44,1.44,0,0,0,0-.39c0-.59-.42-.9-1-1.22v-.11H2.87l-1.41,5.63a3.07,3.07,0,0,0-.1.77c0,.71.34,1.17,1.09,1.17,1.43,0,3.11-1.75,3.79-4.51L7,108.5H8.09l-1.65,6.6a2.18,2.18,0,0,0-.05.39c0,.39.27.61.72.61a3.26,3.26,0,0,0,1.08-.22v.17a2.94,2.94,0,0,1-1.8.85,1,1,0,0,1-1.1-1.17,3,3,0,0,1,.08-.65Z"/>
        <path class="cls-1" d="M8.91,116.73l1.61-6.51a1.44,1.44,0,0,0,.05-.39c0-.59-.42-.9-1-1.22v-.11H12L11.41,111a4.48,4.48,0,0,1,3.67-2.71,1.61,1.61,0,0,1,1.68,1.82,3.38,3.38,0,0,1-.12.9l-1,4a2.91,2.91,0,0,0-.07.43c0,.37.24.57.7.57a3.36,3.36,0,0,0,1.09-.22v.17a3,3,0,0,1-1.81.85,1,1,0,0,1-1.1-1.17,2.66,2.66,0,0,1,.09-.65l1-4a2.76,2.76,0,0,0,.1-.72,1,1,0,0,0-1.12-1.17c-1.43,0-3.1,1.77-3.76,4.44L10,116.73Z"/>
        <path class="cls-1" d="M19.46,115.1a2.45,2.45,0,0,0-.06.43c0,.39.25.57.69.57a3.26,3.26,0,0,0,1.09-.22v.17a3,3,0,0,1-1.8.85,1,1,0,0,1-1.07-1.15,3.07,3.07,0,0,1,.08-.67l1.21-4.86a2,2,0,0,0,0-.39c0-.59-.42-.9-1-1.22v-.11h2.43Zm1.64-8.62a.92.92,0,1,1,0-1.83.92.92,0,0,1,0,1.83Z"/>
        <path class="cls-1" d="M21.93,116.73l1.61-6.51a1.48,1.48,0,0,0,.06-.39c0-.59-.43-.9-1-1.22v-.11H25L24.43,111a4.49,4.49,0,0,1,3.67-2.71,1.61,1.61,0,0,1,1.68,1.82,3.38,3.38,0,0,1-.12.9l-1,4a2.91,2.91,0,0,0-.07.43c0,.37.24.57.7.57a3.31,3.31,0,0,0,1.09-.22v.17a3,3,0,0,1-1.8.85,1,1,0,0,1-1.11-1.17,3.26,3.26,0,0,1,.09-.65l1-4a2.76,2.76,0,0,0,.1-.72,1,1,0,0,0-1.12-1.17c-1.43,0-3.09,1.77-3.76,4.44L23,116.73Z"/>
        <path class="cls-1" d="M32.71,114.68a1.78,1.78,0,0,0-.07.47c0,.6.37.87,1.09.87a6.39,6.39,0,0,0,1.78-.32v.2a4.76,4.76,0,0,1-2.48,1,1.42,1.42,0,0,1-1.53-1.51,3.07,3.07,0,0,1,.09-.65L33,109.15H31.6l.12-.44c1.46-.34,2.13-1.31,2.79-3H35l-.71,2.78h2.43l-.26.65H34.07Z"/>
        <path class="cls-1" d="M36.36,113.67c0-2.58,2-5.34,4.64-5.34,1.52,0,2.42.7,2.42,1.86,0,1.77-2,2.53-5.78,2.73a4.65,4.65,0,0,0,0,.75c0,1.55.79,2.47,2.19,2.47a3.38,3.38,0,0,0,2.77-1.63l.29.15a3.7,3.7,0,0,1-3.44,2.24A2.9,2.9,0,0,1,36.36,113.67Zm1.38-1.32c2.48-.12,4.45-.41,4.45-2.28A1,1,0,0,0,41,109C39.27,109,38.11,110.58,37.74,112.35Z"/>
        <path class="cls-1" d="M46.19,111.36c.76-1.44,1.84-3,3.28-3a.92.92,0,0,1,1,.91,1.11,1.11,0,0,1-1.16,1.1.78.78,0,0,0,.14-.42c0-.29-.21-.53-.63-.53-1.11,0-2.71,2.19-3.18,4.08l-.82,3.26H43.78l1.61-6.51a2,2,0,0,0,0-.39c0-.59-.42-.9-1-1.22v-.11H46.9Z"/>
        <path class="cls-1" d="M50.34,113.67c0-2.58,2-5.34,4.64-5.34,1.51,0,2.41.7,2.41,1.86,0,1.77-2,2.53-5.78,2.73a6.16,6.16,0,0,0,0,.75c0,1.55.8,2.47,2.19,2.47a3.36,3.36,0,0,0,2.77-1.63l.29.15a3.68,3.68,0,0,1-3.43,2.24C51.44,116.9,50.34,115.64,50.34,113.67Zm1.37-1.32c2.49-.12,4.46-.41,4.46-2.28A1,1,0,0,0,55,109C53.24,109,52.09,110.58,51.71,112.35Z"/>
        <path class="cls-1" d="M61.68,109c-1.11,0-1.81.52-1.81,1.36,0,.61.46,1,1.7,1.73,1.5.85,2,1.46,2,2.36,0,1.47-1.37,2.45-3.09,2.45s-3-.93-3-2a.91.91,0,0,1,1-.94,1.27,1.27,0,0,1,.44.07,1,1,0,0,0-.23.68,1.63,1.63,0,0,0,1.83,1.55c1.09,0,2-.5,2-1.43,0-.6-.39-1.12-1.61-1.79s-2-1.31-2-2.34a2.6,2.6,0,0,1,2.86-2.37c1.64,0,2.66.79,2.66,1.77a.93.93,0,0,1-1.05.9,1.79,1.79,0,0,1-.34,0,1.11,1.11,0,0,0,.22-.71C63.17,109.51,62.61,109,61.68,109Z"/>
        <path class="cls-1" d="M66.42,114.68a1.78,1.78,0,0,0-.07.47c0,.6.37.87,1.09.87a6.39,6.39,0,0,0,1.78-.32v.2a4.76,4.76,0,0,1-2.48,1,1.42,1.42,0,0,1-1.53-1.51,3.07,3.07,0,0,1,.09-.65l1.37-5.59H65.31l.12-.44c1.46-.34,2.13-1.31,2.79-3h.44L68,108.5h2.43l-.26.65H67.78Z"/>
        <path class="cls-1" d="M71.45,115.1a2.55,2.55,0,0,0-.07.43c0,.39.26.57.7.57a3.31,3.31,0,0,0,1.09-.22v.17a3,3,0,0,1-1.8.85,1,1,0,0,1-1.08-1.15,3.08,3.08,0,0,1,.09-.67l1.21-4.86a2,2,0,0,0,0-.39c0-.59-.43-.9-1-1.22v-.11H73.1Zm1.63-8.62a.92.92,0,1,1,.92-.92A.92.92,0,0,1,73.08,106.48Z"/>
        <path class="cls-1" d="M73.92,116.73l1.61-6.51a2,2,0,0,0,0-.39c0-.59-.42-.9-1-1.22v-.11H77L76.41,111a4.51,4.51,0,0,1,3.68-2.71,1.61,1.61,0,0,1,1.68,1.82,3.85,3.85,0,0,1-.12.9l-1,4a2,2,0,0,0-.07.43c0,.37.24.57.7.57a3.26,3.26,0,0,0,1.08-.22v.17a2.94,2.94,0,0,1-1.8.85,1,1,0,0,1-1.1-1.17,3.2,3.2,0,0,1,.08-.65l1-4a2.8,2.8,0,0,0,.11-.72,1,1,0,0,0-1.12-1.17c-1.43,0-3.1,1.77-3.76,4.44L75,116.73Z"/>
        <path class="cls-1" d="M88.88,114.76a3.61,3.61,0,0,1-3.1,2.14c-1.63,0-2.7-1.19-2.7-3.07,0-2.86,2-5.5,4.59-5.5A2.35,2.35,0,0,1,90.13,110a6.83,6.83,0,0,1,1.23-1.64h.2l-2.11,8.47c-.61,2.48-2,3.76-4.32,3.76-1.71,0-3-.85-3-2a1,1,0,0,1,1-1.09,1.2,1.2,0,0,1,.42.08,1.25,1.25,0,0,0-.3.84,1.65,1.65,0,0,0,1.88,1.6c1.89,0,2.76-1.25,3.25-3.2Zm.69-2.77a4.27,4.27,0,0,0,.1-.9A1.88,1.88,0,0,0,87.75,109c-2.16,0-3.45,2.52-3.45,4.8,0,1.41.58,2.31,1.77,2.31,1.41,0,2.89-1.53,3.31-3.35Z"/>
        <path class="cls-1" d="M18,166.68a1.72,1.72,0,0,0-.06.47c0,.6.37.87,1.08.87a6.45,6.45,0,0,0,1.79-.32v.2a4.79,4.79,0,0,1-2.48,1,1.42,1.42,0,0,1-1.53-1.51,3,3,0,0,1,.08-.65l1.38-5.59H16.94l.12-.44c1.46-.34,2.12-1.31,2.79-3h.44l-.72,2.78H22l-.26.65H19.4Z"/>
        <path class="cls-1" d="M24.1,163a4.48,4.48,0,0,1,3.67-2.71,1.61,1.61,0,0,1,1.68,1.82,3.28,3.28,0,0,1-.12.9l-1,4a2,2,0,0,0-.07.43c0,.37.24.57.7.57a3.36,3.36,0,0,0,1.09-.22v.17a3,3,0,0,1-1.81.85,1,1,0,0,1-1.1-1.17,3.2,3.2,0,0,1,.08-.65l1-4a3.27,3.27,0,0,0,.1-.72,1,1,0,0,0-1.12-1.17c-1.43,0-3.1,1.77-3.76,4.44l-.76,3.07H21.6l2.73-11a1.55,1.55,0,0,0,.06-.39c0-.6-.43-.9-1-1.23V156h2.43Z"/>
        <path class="cls-1" d="M32.15,167.1a2.45,2.45,0,0,0-.06.43c0,.39.25.57.69.57a3.31,3.31,0,0,0,1.09-.22v.17a3,3,0,0,1-1.8.85A1,1,0,0,1,31,167.75a3.07,3.07,0,0,1,.08-.67l1.21-4.86a2,2,0,0,0,.05-.39c0-.59-.42-.9-1-1.22v-.11H33.8Zm1.64-8.62a.92.92,0,1,1,0-1.83.92.92,0,0,1,0,1.83Z"/>
        <path class="cls-1" d="M34.62,168.73l1.61-6.51a1.48,1.48,0,0,0,.06-.39c0-.59-.43-.9-1-1.22v-.11h2.34L37.12,163a4.49,4.49,0,0,1,3.67-2.71,1.61,1.61,0,0,1,1.68,1.82,3.38,3.38,0,0,1-.12.9l-1,4a2.91,2.91,0,0,0-.07.43c0,.37.24.57.7.57a3.36,3.36,0,0,0,1.09-.22v.17a3,3,0,0,1-1.8.85,1,1,0,0,1-1.11-1.17,3.26,3.26,0,0,1,.09-.65l1-4a2.76,2.76,0,0,0,.1-.72,1,1,0,0,0-1.12-1.17c-1.43,0-3.1,1.77-3.76,4.44l-.76,3.07Z"/>
        <path class="cls-1" d="M49.58,166.76a3.59,3.59,0,0,1-3.09,2.14c-1.64,0-2.71-1.19-2.71-3.07,0-2.86,2-5.5,4.59-5.5A2.37,2.37,0,0,1,50.84,162a6.55,6.55,0,0,1,1.22-1.64h.21l-2.11,8.47c-.62,2.48-2,3.76-4.32,3.76-1.72,0-3-.85-3-2a1,1,0,0,1,1-1.09,1.31,1.31,0,0,1,.43.08,1.25,1.25,0,0,0-.31.84c0,.88.67,1.6,1.89,1.6,1.89,0,2.75-1.25,3.25-3.2Zm.7-2.77a5.05,5.05,0,0,0,.1-.9A1.88,1.88,0,0,0,48.46,161c-2.16,0-3.45,2.52-3.45,4.8,0,1.41.57,2.31,1.77,2.31,1.41,0,2.88-1.53,3.31-3.35Z"/>
        <path class="cls-1" d="M56.48,161c-1.1,0-1.8.52-1.8,1.36,0,.61.46,1,1.7,1.73,1.5.85,2,1.46,2,2.36,0,1.47-1.38,2.45-3.09,2.45s-3-.93-3-2a.92.92,0,0,1,1-.94,1.31,1.31,0,0,1,.44.07,1,1,0,0,0-.24.68,1.63,1.63,0,0,0,1.84,1.55c1.09,0,2-.5,2-1.43,0-.6-.39-1.12-1.62-1.79s-2-1.31-2-2.34a2.6,2.6,0,0,1,2.86-2.37c1.65,0,2.67.79,2.67,1.77a.93.93,0,0,1-1,.9,1.79,1.79,0,0,1-.34,0,1.11,1.11,0,0,0,.22-.71C58,161.51,57.42,161,56.48,161Z"/>
        <path class="cls-1" d="M63.72,167.1a2.45,2.45,0,0,0-.06.43c0,.39.25.57.69.57a3.31,3.31,0,0,0,1.09-.22v.17a3,3,0,0,1-1.8.85,1,1,0,0,1-1.07-1.15,3.07,3.07,0,0,1,.08-.67l1.21-4.86a2,2,0,0,0,0-.39c0-.59-.42-.9-1-1.22v-.11h2.43Zm1.64-8.62a.92.92,0,1,1,0-1.83.92.92,0,0,1,0,1.83Z"/>
        <path class="cls-1" d="M66.19,168.73l1.61-6.51a1.48,1.48,0,0,0,.06-.39c0-.59-.43-.9-1-1.22v-.11h2.34L68.69,163a4.48,4.48,0,0,1,3.67-2.71A1.61,1.61,0,0,1,74,162.15a3.38,3.38,0,0,1-.12.9l-1,4a2.91,2.91,0,0,0-.07.43c0,.37.24.57.7.57a3.31,3.31,0,0,0,1.09-.22v.17a3,3,0,0,1-1.8.85,1,1,0,0,1-1.11-1.17,3.2,3.2,0,0,1,.08-.65l1-4a2.76,2.76,0,0,0,.1-.72,1,1,0,0,0-1.12-1.17c-1.43,0-3.09,1.77-3.76,4.44l-.76,3.07Z"/>
        <path class="cls-1" d="M3.6,224.39H2.52L5,214.22a1.44,1.44,0,0,0,0-.39c0-.59-.42-.9-1-1.22v-.11H6.46l-.41,2a3.8,3.8,0,0,1,3.2-2.18c1.63,0,2.62,1.19,2.62,3.08,0,2.86-1.77,5.49-4.63,5.49a2.36,2.36,0,0,1-2.36-1.68Zm1.77-7.14a4.27,4.27,0,0,0-.1.9,1.88,1.88,0,0,0,1.92,2.06c2.16,0,3.45-2.52,3.45-4.8,0-1.41-.58-2.31-1.77-2.31-1.41,0-2.89,1.53-3.31,3.35Z"/>
        <path class="cls-1" d="M18.36,218.2a4.48,4.48,0,0,1-3.67,2.7A1.61,1.61,0,0,1,13,219.08a3.85,3.85,0,0,1,.12-.9l1-4a2,2,0,0,0,.05-.39c0-.59-.42-.9-1-1.22v-.11h2.45l-1.41,5.63a3.07,3.07,0,0,0-.1.77c0,.71.34,1.17,1.08,1.17,1.43,0,3.12-1.75,3.8-4.51l.76-3.06h1.09l-1.65,6.6a2.18,2.18,0,0,0-.05.39c0,.39.27.61.71.61a3.31,3.31,0,0,0,1.09-.22v.17a3,3,0,0,1-1.8.85,1,1,0,0,1-1.11-1.17,3.07,3.07,0,0,1,.09-.65Z"/>
        <path class="cls-1" d="M21.67,220.73l1.62-6.51a2,2,0,0,0,.05-.39c0-.59-.42-.9-1-1.22v-.11h2.35L24.17,215a4.51,4.51,0,0,1,3.67-2.71,1.62,1.62,0,0,1,1.69,1.82,3.85,3.85,0,0,1-.12.9l-1,4a2,2,0,0,0-.07.43c0,.37.24.57.7.57a3.26,3.26,0,0,0,1.08-.22v.17a2.94,2.94,0,0,1-1.8.85,1.05,1.05,0,0,1-1.11-1.17,3.26,3.26,0,0,1,.09-.65l1-4a2.8,2.8,0,0,0,.11-.72,1,1,0,0,0-1.13-1.17c-1.42,0-3.09,1.77-3.75,4.44l-.77,3.07Z"/>
        <path class="cls-1" d="M35.43,213c-2.11,0-3.35,2.39-3.35,4.6,0,1.55.78,2.52,2.16,2.52a3.25,3.25,0,0,0,2.67-1.63l.29.17a3.58,3.58,0,0,1-3.34,2.24c-1.88,0-3-1.32-3-3.3,0-2.72,2-5.27,4.58-5.27,1.43,0,2.41.68,2.41,1.71a.94.94,0,0,1-1,1,.83.83,0,0,1-.43-.1,1.13,1.13,0,0,0,.26-.85C36.69,213.47,36.31,213,35.43,213Z"/>
        <path class="cls-1" d="M39.83,218.68a1.78,1.78,0,0,0-.07.47c0,.6.38.87,1.09.87a6.39,6.39,0,0,0,1.78-.32v.2a4.76,4.76,0,0,1-2.48,1,1.42,1.42,0,0,1-1.53-1.51,3.07,3.07,0,0,1,.09-.65l1.38-5.59H38.72l.12-.44c1.47-.34,2.13-1.31,2.79-3h.44l-.71,2.78h2.43l-.25.65H41.19Z"/>
        <path class="cls-1" d="M49.21,218.2a4.47,4.47,0,0,1-3.67,2.7,1.61,1.61,0,0,1-1.68-1.82,3.38,3.38,0,0,1,.12-.9l1-4a1.44,1.44,0,0,0,0-.39c0-.59-.42-.9-1-1.22v-.11h2.45l-1.41,5.63a3.07,3.07,0,0,0-.1.77c0,.71.34,1.17,1.09,1.17,1.43,0,3.11-1.75,3.79-4.51l.76-3.06h1.09l-1.65,6.6a2.18,2.18,0,0,0-.05.39c0,.39.27.61.72.61a3.26,3.26,0,0,0,1.08-.22v.17a2.94,2.94,0,0,1-1.8.85,1,1,0,0,1-1.1-1.17,3,3,0,0,1,.08-.65Z"/>
        <path class="cls-1" d="M59.18,219.1a1.7,1.7,0,0,0-.07.39c0,.41.22.61.68.61a3.36,3.36,0,0,0,1.09-.22v.17a3,3,0,0,1-1.81.85A1,1,0,0,1,58,219.73a3.07,3.07,0,0,1,.23-1,3.51,3.51,0,0,1-3,2.17c-1.58,0-2.64-1.2-2.64-3.07,0-2.86,2-5.5,4.47-5.5a2.22,2.22,0,0,1,2.37,1.6,6.69,6.69,0,0,1,1.2-1.6h.21Zm-.29-3.2a4.9,4.9,0,0,0,.13-1,1.66,1.66,0,0,0-1.8-1.85c-2,0-3.38,2.17-3.38,4.78,0,1.39.64,2.31,1.68,2.31,1.43,0,2.72-1.55,3.2-3.52Z"/>
        <path class="cls-1" d="M63.31,218.68a1.78,1.78,0,0,0-.07.47c0,.6.37.87,1.09.87a6.39,6.39,0,0,0,1.78-.32v.2a4.79,4.79,0,0,1-2.48,1,1.42,1.42,0,0,1-1.53-1.51,2.54,2.54,0,0,1,.09-.65l1.37-5.59H62.2l.12-.44c1.46-.34,2.13-1.31,2.79-3h.44l-.71,2.78h2.43l-.26.65H64.67Z"/>
        <path class="cls-1" d="M68.34,219.1a1.82,1.82,0,0,0-.07.43c0,.39.26.57.7.57a3.26,3.26,0,0,0,1.08-.22v.17a2.94,2.94,0,0,1-1.8.85,1,1,0,0,1-1.07-1.15,3.08,3.08,0,0,1,.09-.67l1.2-4.86a1.48,1.48,0,0,0,.06-.39c0-.59-.43-.9-1-1.22v-.11H70ZM70,210.48a.92.92,0,1,1,.92-.92A.92.92,0,0,1,70,210.48Z"/>
        <path class="cls-1" d="M74.17,220.9a3.17,3.17,0,0,1-3.25-3.48c0-2.52,1.75-5.09,4.4-5.09a3.18,3.18,0,0,1,3.25,3.49C78.57,218.33,76.82,220.9,74.17,220.9Zm0-.69c1.78,0,3.18-2.21,3.18-4.58,0-1.59-.58-2.6-2-2.6-1.78,0-3.17,2.21-3.17,4.57C72.15,219.2,72.72,220.21,74.17,220.21Z"/>
        <path class="cls-1" d="M79.25,220.73l1.62-6.51a2,2,0,0,0,0-.39c0-.59-.43-.9-1-1.22v-.11h2.34L81.75,215a4.49,4.49,0,0,1,3.67-2.71,1.62,1.62,0,0,1,1.69,1.82,3.85,3.85,0,0,1-.12.9l-1,4a2.74,2.74,0,0,0-.06.43c0,.37.23.57.69.57a3.31,3.31,0,0,0,1.09-.22v.17a3,3,0,0,1-1.8.85,1.05,1.05,0,0,1-1.11-1.17,3.26,3.26,0,0,1,.09-.65l1-4a2.76,2.76,0,0,0,.1-.72,1,1,0,0,0-1.12-1.17c-1.43,0-3.09,1.77-3.75,4.44l-.77,3.07Z"/>
        <path class="cls-1" d="M5.59,270.2a4.47,4.47,0,0,1-3.67,2.7,1.61,1.61,0,0,1-1.68-1.82,3.38,3.38,0,0,1,.12-.9l1-4a1.44,1.44,0,0,0,0-.39c0-.59-.42-.9-1-1.22v-.11H2.87l-1.41,5.63a3.07,3.07,0,0,0-.1.77c0,.71.34,1.17,1.09,1.17,1.43,0,3.11-1.75,3.79-4.51L7,264.5H8.09l-1.65,6.6a2.18,2.18,0,0,0-.05.39c0,.39.27.61.72.61a3.26,3.26,0,0,0,1.08-.22v.17a2.94,2.94,0,0,1-1.8.85,1,1,0,0,1-1.1-1.17,3,3,0,0,1,.08-.65Z"/>
        <path class="cls-1" d="M8.91,272.73l1.61-6.51a1.44,1.44,0,0,0,.05-.39c0-.59-.42-.9-1-1.22v-.11H12L11.41,267a4.48,4.48,0,0,1,3.67-2.71,1.61,1.61,0,0,1,1.68,1.82,3.38,3.38,0,0,1-.12.9l-1,4.05a2.91,2.91,0,0,0-.07.43c0,.37.24.57.7.57a3.36,3.36,0,0,0,1.09-.22v.17a3,3,0,0,1-1.81.85,1,1,0,0,1-1.1-1.17,2.66,2.66,0,0,1,.09-.65l1-4a2.76,2.76,0,0,0,.1-.72,1,1,0,0,0-1.12-1.17c-1.43,0-3.1,1.77-3.76,4.44L10,272.73Z"/>
        <path class="cls-1" d="M19.46,271.1a2.45,2.45,0,0,0-.06.43c0,.39.25.57.69.57a3.26,3.26,0,0,0,1.09-.22v.17a3,3,0,0,1-1.8.85,1,1,0,0,1-1.07-1.15,3.07,3.07,0,0,1,.08-.67l1.21-4.86a2,2,0,0,0,0-.39c0-.59-.42-.9-1-1.22v-.11h2.43Zm1.64-8.62a.92.92,0,1,1,0-1.83.92.92,0,0,1,0,1.83Z"/>
        <path class="cls-1" d="M21.93,272.73l1.61-6.51a1.48,1.48,0,0,0,.06-.39c0-.59-.43-.9-1-1.22v-.11H25L24.43,267a4.49,4.49,0,0,1,3.67-2.71,1.61,1.61,0,0,1,1.68,1.82,3.38,3.38,0,0,1-.12.9l-1,4.05a2.91,2.91,0,0,0-.07.43c0,.37.24.57.7.57a3.31,3.31,0,0,0,1.09-.22v.17a3,3,0,0,1-1.8.85,1,1,0,0,1-1.11-1.17,3.26,3.26,0,0,1,.09-.65l1-4a2.76,2.76,0,0,0,.1-.72,1,1,0,0,0-1.12-1.17c-1.43,0-3.09,1.77-3.76,4.44L23,272.73Z"/>
        <path class="cls-1" d="M32.71,270.68a1.78,1.78,0,0,0-.07.47c0,.6.37.87,1.09.87a6.39,6.39,0,0,0,1.78-.32v.2a4.76,4.76,0,0,1-2.48,1,1.42,1.42,0,0,1-1.53-1.51,3.07,3.07,0,0,1,.09-.65L33,265.15H31.6l.12-.44c1.46-.34,2.13-1.31,2.79-3H35l-.71,2.78h2.43l-.26.65H34.07Z"/>
        <path class="cls-1" d="M36.36,269.67c0-2.58,2-5.34,4.64-5.34,1.52,0,2.42.7,2.42,1.86,0,1.77-2,2.53-5.78,2.73a4.65,4.65,0,0,0,0,.75c0,1.55.79,2.47,2.19,2.47a3.38,3.38,0,0,0,2.77-1.63l.29.15a3.7,3.7,0,0,1-3.44,2.24A2.9,2.9,0,0,1,36.36,269.67Zm1.38-1.32c2.48-.12,4.45-.41,4.45-2.28A1,1,0,0,0,41,265C39.27,265,38.11,266.58,37.74,268.35Z"/>
        <path class="cls-1" d="M46.19,267.36c.76-1.44,1.84-3,3.28-3a.92.92,0,0,1,1,.91,1.11,1.11,0,0,1-1.16,1.1.78.78,0,0,0,.14-.42c0-.29-.21-.53-.63-.53-1.11,0-2.71,2.19-3.18,4.08l-.82,3.26H43.78l1.61-6.51a2,2,0,0,0,0-.39c0-.59-.42-.9-1-1.22v-.11H46.9Z"/>
        <path class="cls-1" d="M50.34,269.67c0-2.58,2-5.34,4.64-5.34,1.51,0,2.41.7,2.41,1.86,0,1.77-2,2.53-5.78,2.73a6.16,6.16,0,0,0,0,.75c0,1.55.8,2.47,2.19,2.47a3.36,3.36,0,0,0,2.77-1.63l.29.15a3.68,3.68,0,0,1-3.43,2.24C51.44,272.9,50.34,271.64,50.34,269.67Zm1.37-1.32c2.49-.12,4.46-.41,4.46-2.28A1,1,0,0,0,55,265C53.24,265,52.09,266.58,51.71,268.35Z"/>
        <path class="cls-1" d="M61.68,265c-1.11,0-1.81.52-1.81,1.36,0,.61.46,1,1.7,1.73,1.5.85,2,1.46,2,2.36,0,1.47-1.37,2.45-3.09,2.45s-3-.93-3-2a.91.91,0,0,1,1-.94,1.27,1.27,0,0,1,.44.07,1,1,0,0,0-.23.68,1.63,1.63,0,0,0,1.83,1.55c1.09,0,2-.5,2-1.43,0-.6-.39-1.12-1.61-1.79s-2-1.31-2-2.34a2.6,2.6,0,0,1,2.86-2.37c1.64,0,2.66.79,2.66,1.77a.93.93,0,0,1-1.05.9,1.79,1.79,0,0,1-.34,0,1.11,1.11,0,0,0,.22-.71C63.17,265.51,62.61,265,61.68,265Z"/>
        <path class="cls-1" d="M66.42,270.68a1.78,1.78,0,0,0-.07.47c0,.6.37.87,1.09.87a6.39,6.39,0,0,0,1.78-.32v.2a4.76,4.76,0,0,1-2.48,1,1.42,1.42,0,0,1-1.53-1.51,3.07,3.07,0,0,1,.09-.65l1.37-5.59H65.31l.12-.44c1.46-.34,2.13-1.31,2.79-3h.44L68,264.5h2.43l-.26.65H67.78Z"/>
        <path class="cls-1" d="M71.45,271.1a2.55,2.55,0,0,0-.07.43c0,.39.26.57.7.57a3.31,3.31,0,0,0,1.09-.22v.17a3,3,0,0,1-1.8.85,1,1,0,0,1-1.08-1.15,3.08,3.08,0,0,1,.09-.67l1.21-4.86a2,2,0,0,0,0-.39c0-.59-.43-.9-1-1.22v-.11H73.1Zm1.63-8.62a.92.92,0,1,1,.92-.92A.92.92,0,0,1,73.08,262.48Z"/>
        <path class="cls-1" d="M73.92,272.73l1.61-6.51a2,2,0,0,0,0-.39c0-.59-.42-.9-1-1.22v-.11H77L76.41,267a4.51,4.51,0,0,1,3.68-2.71,1.61,1.61,0,0,1,1.68,1.82,3.85,3.85,0,0,1-.12.9l-1,4.05a2,2,0,0,0-.07.43c0,.37.24.57.7.57a3.26,3.26,0,0,0,1.08-.22v.17a2.94,2.94,0,0,1-1.8.85,1,1,0,0,1-1.1-1.17,3.2,3.2,0,0,1,.08-.65l1-4a2.8,2.8,0,0,0,.11-.72,1,1,0,0,0-1.12-1.17c-1.43,0-3.1,1.77-3.76,4.44L75,272.73Z"/>
        <path class="cls-1" d="M88.88,270.76a3.61,3.61,0,0,1-3.1,2.14c-1.63,0-2.7-1.19-2.7-3.07,0-2.86,2-5.5,4.59-5.5A2.35,2.35,0,0,1,90.13,266a6.83,6.83,0,0,1,1.23-1.64h.2l-2.11,8.47c-.61,2.48-2,3.76-4.32,3.76-1.71,0-3-.85-3-2a1,1,0,0,1,1-1.09,1.2,1.2,0,0,1,.42.08,1.25,1.25,0,0,0-.3.84,1.65,1.65,0,0,0,1.88,1.6c1.89,0,2.76-1.25,3.25-3.2Zm.69-2.77a4.27,4.27,0,0,0,.1-.9A1.88,1.88,0,0,0,87.75,265c-2.16,0-3.45,2.52-3.45,4.8,0,1.41.58,2.31,1.77,2.31,1.41,0,2.89-1.53,3.31-3.35Z"/>
        <path class="cls-1" d="M18.32,323.1a1.82,1.82,0,0,0-.07.43c0,.39.25.57.7.57a3.26,3.26,0,0,0,1.08-.22v.17a2.94,2.94,0,0,1-1.8.85,1,1,0,0,1-1.07-1.15,3.08,3.08,0,0,1,.09-.67l1.2-4.86a1.44,1.44,0,0,0,.05-.39c0-.59-.42-.9-1-1.22v-.11H20ZM20,314.48a.92.92,0,1,1,.92-.92A.92.92,0,0,1,20,314.48Z"/>
        <path class="cls-1" d="M20.78,324.73l1.62-6.51a2,2,0,0,0,.05-.39c0-.59-.43-.9-1-1.22v-.11h2.35L23.28,319A4.51,4.51,0,0,1,27,316.33a1.62,1.62,0,0,1,1.69,1.82,3.85,3.85,0,0,1-.12.9l-1,4.05a2.74,2.74,0,0,0-.06.43c0,.37.23.57.69.57a3.31,3.31,0,0,0,1.09-.22v.17a3,3,0,0,1-1.8.85,1,1,0,0,1-1.11-1.17,3.26,3.26,0,0,1,.09-.65l1-4a2.76,2.76,0,0,0,.1-.72,1,1,0,0,0-1.12-1.17c-1.43,0-3.09,1.77-3.76,4.44l-.76,3.07Z"/>
        <path class="cls-1" d="M39.23,323.1a1.7,1.7,0,0,0-.07.39c0,.41.22.61.68.61a3.36,3.36,0,0,0,1.09-.22v.17a3,3,0,0,1-1.81.85A1,1,0,0,1,38,323.73a3,3,0,0,1,.22-1,3.49,3.49,0,0,1-3,2.17c-1.58,0-2.63-1.2-2.63-3.07,0-2.86,1.95-5.5,4.47-5.5a2.22,2.22,0,0,1,2.36,1.6,6.47,6.47,0,0,1,1.21-1.6h.2Zm-.29-3.2a4.9,4.9,0,0,0,.13-1,1.66,1.66,0,0,0-1.8-1.85c-2,0-3.38,2.17-3.38,4.78,0,1.39.65,2.31,1.68,2.31,1.43,0,2.72-1.55,3.2-3.52Z"/>
        <path class="cls-1" d="M50.6,318.22a1.81,1.81,0,0,0,0-.39c0-.59-.41-.9-1-1.22v-.11h2.43l-1.19,4.78a5.39,5.39,0,0,0-.18,1.34c0,1,.4,1.52,1.25,1.52,2.08,0,3.49-3.15,3.49-5.44,0-.83-.32-1.31-1.09-1.31a1.76,1.76,0,0,0-.82.19,1.36,1.36,0,0,1,1.31-1.25c1,0,1.5.87,1.5,2,0,3-2,6.61-4.71,6.61-1.24,0-1.94-.83-1.94-2.19a3.24,3.24,0,0,1-2.9,2.19,1.9,1.9,0,0,1-2-2.17A5.6,5.6,0,0,1,45,321.4l.78-3.18a2,2,0,0,0,.05-.39c0-.59-.42-.9-1-1.22v-.11H47.3l-1.22,4.88a5.66,5.66,0,0,0-.19,1.3c0,.95.44,1.46,1.29,1.46,1.4,0,2.37-1.6,2.74-3.13Z"/>
        <path class="cls-1" d="M63.64,323.1a2.51,2.51,0,0,0-.07.39c0,.41.22.61.68.61a3.31,3.31,0,0,0,1.09-.22v.17a3,3,0,0,1-1.8.85,1,1,0,0,1-1.09-1.17,3,3,0,0,1,.22-1,3.48,3.48,0,0,1-3,2.17c-1.58,0-2.63-1.2-2.63-3.07,0-2.86,2-5.5,4.47-5.5a2.22,2.22,0,0,1,2.36,1.6,6.72,6.72,0,0,1,1.21-1.6h.2Zm-.29-3.2a4.35,4.35,0,0,0,.14-1,1.67,1.67,0,0,0-1.81-1.85c-2,0-3.38,2.17-3.38,4.78,0,1.39.65,2.31,1.68,2.31,1.43,0,2.73-1.55,3.2-3.52Z"/>
        <path class="cls-1" d="M71.9,322.2a4.48,4.48,0,0,1-3.67,2.7,1.61,1.61,0,0,1-1.68-1.82,3.38,3.38,0,0,1,.12-.9l1-4a1.44,1.44,0,0,0,0-.39c0-.59-.42-.9-1-1.22v-.11h2.45l-1.41,5.63a3.07,3.07,0,0,0-.1.77c0,.71.34,1.17,1.09,1.17,1.42,0,3.11-1.75,3.79-4.51l.76-3.06H74.4L72.53,324c-.68,2.74-2.07,4.56-4.61,4.56-1.63,0-2.73-.67-2.73-1.79a1,1,0,0,1,1.09-1,1.12,1.12,0,0,1,.4.07,1.18,1.18,0,0,0-.3.83c0,.81.52,1.34,1.54,1.34,2,0,3-1.65,3.56-4Z"/>
        <path class="cls-1" d="M26.36,374.68a1.78,1.78,0,0,0-.07.47c0,.6.37.87,1.09.87a6.39,6.39,0,0,0,1.78-.32v.2a4.76,4.76,0,0,1-2.48,1,1.42,1.42,0,0,1-1.53-1.51,3.07,3.07,0,0,1,.09-.65l1.37-5.59H25.25l.12-.44c1.46-.34,2.13-1.31,2.79-3h.44l-.71,2.78h2.43l-.26.65H27.72Z"/>
        <path class="cls-1" d="M32.41,371a4.49,4.49,0,0,1,3.67-2.71,1.61,1.61,0,0,1,1.68,1.82,3.28,3.28,0,0,1-.12.9l-1,4.05a2.91,2.91,0,0,0-.07.43c0,.37.24.57.7.57a3.31,3.31,0,0,0,1.09-.22v.17a3,3,0,0,1-1.8.85,1,1,0,0,1-1.11-1.17,3.26,3.26,0,0,1,.09-.65l1-4a2.76,2.76,0,0,0,.1-.72,1,1,0,0,0-1.12-1.17c-1.43,0-3.09,1.77-3.76,4.44L31,376.73H29.91l2.74-11a2.08,2.08,0,0,0,.05-.39c0-.6-.43-.9-1-1.23V364h2.43Z"/>
        <path class="cls-1" d="M45.63,375.1a2.33,2.33,0,0,0-.06.39c0,.41.22.61.68.61a3.26,3.26,0,0,0,1.08-.22v.17a2.94,2.94,0,0,1-1.8.85,1,1,0,0,1-1.09-1.17,3.07,3.07,0,0,1,.23-1,3.51,3.51,0,0,1-3,2.17c-1.58,0-2.64-1.2-2.64-3.07,0-2.86,2-5.5,4.47-5.5a2.22,2.22,0,0,1,2.37,1.6,6.69,6.69,0,0,1,1.2-1.6h.21Zm-.28-3.2a4.9,4.9,0,0,0,.13-1,1.66,1.66,0,0,0-1.8-1.85c-2,0-3.38,2.17-3.38,4.78,0,1.39.64,2.31,1.68,2.31,1.43,0,2.72-1.55,3.2-3.52Z"/>
        <path class="cls-1" d="M49.77,374.68a1.45,1.45,0,0,0-.07.47c0,.6.37.87,1.09.87a6.45,6.45,0,0,0,1.78-.32v.2a4.79,4.79,0,0,1-2.48,1,1.42,1.42,0,0,1-1.53-1.51,3,3,0,0,1,.08-.65L50,369.15H48.66l.12-.44c1.46-.34,2.12-1.31,2.79-3H52l-.72,2.78h2.44l-.26.65H51.12Z"/>
        <path class="cls-1" d="M57.52,375.1a1.82,1.82,0,0,0-.07.43c0,.39.26.57.7.57a3.26,3.26,0,0,0,1.08-.22v.17a2.94,2.94,0,0,1-1.8.85,1,1,0,0,1-1.07-1.15,3.08,3.08,0,0,1,.09-.67l1.2-4.86a1.48,1.48,0,0,0,.06-.39c0-.59-.43-.9-1-1.22v-.11h2.43Zm1.63-8.62a.92.92,0,1,1,.92-.92A.92.92,0,0,1,59.15,366.48Z"/>
        <path class="cls-1" d="M63.91,369c-1.11,0-1.8.52-1.8,1.36,0,.61.46,1,1.7,1.73,1.49.85,2,1.46,2,2.36,0,1.47-1.38,2.45-3.09,2.45s-3-.93-3-2a.92.92,0,0,1,1-.94,1.31,1.31,0,0,1,.44.07,1,1,0,0,0-.24.68,1.63,1.63,0,0,0,1.84,1.55c1.08,0,2-.5,2-1.43,0-.6-.39-1.12-1.62-1.79s-2-1.31-2-2.34a2.6,2.6,0,0,1,2.86-2.37c1.65,0,2.67.79,2.67,1.77,0,.63-.53.9-1.06.9a2,2,0,0,1-.34,0,1.11,1.11,0,0,0,.23-.71C65.41,369.51,64.84,369,63.91,369Z"/>
        <path class="cls-1" d="M15.75,432.39H14.66l2.52-10.17a2,2,0,0,0,.05-.39c0-.59-.43-.9-1-1.22v-.11h2.35l-.41,2a3.77,3.77,0,0,1,3.19-2.18c1.64,0,2.62,1.19,2.62,3.08,0,2.86-1.77,5.49-4.62,5.49A2.35,2.35,0,0,1,17,427.22Zm1.77-7.14a4.27,4.27,0,0,0-.1.9,1.88,1.88,0,0,0,1.92,2.06c2.16,0,3.45-2.52,3.45-4.8,0-1.41-.58-2.31-1.77-2.31-1.41,0-2.89,1.53-3.31,3.35Z"/>
        <path class="cls-1" d="M24.86,425.67c0-2.58,2-5.34,4.64-5.34,1.52,0,2.42.7,2.42,1.86,0,1.77-2,2.53-5.78,2.73a4.65,4.65,0,0,0-.05.75c0,1.55.79,2.47,2.19,2.47a3.38,3.38,0,0,0,2.77-1.63l.29.15a3.7,3.7,0,0,1-3.44,2.24A2.9,2.9,0,0,1,24.86,425.67Zm1.38-1.32c2.48-.12,4.45-.41,4.45-2.28A1,1,0,0,0,29.5,421C27.77,421,26.61,422.58,26.24,424.35Z"/>
        <path class="cls-1" d="M34.69,423.36c.76-1.44,1.83-3,3.28-3a.92.92,0,0,1,1,.91,1.11,1.11,0,0,1-1.16,1.1.87.87,0,0,0,.14-.42c0-.29-.21-.53-.63-.53-1.11,0-2.71,2.19-3.18,4.08l-.82,3.26H32.27l1.62-6.51a2,2,0,0,0,0-.39c0-.59-.42-.9-1-1.22v-.11H35.4Z"/>
        <path class="cls-1" d="M39.38,430.09c-.41,1.58-.92,2.47-2.18,2.47h-.1a8.91,8.91,0,0,0,1.52-3.62l1.93-7.79H39.31l.12-.44,1.29-.31.41-1.61c.48-1.85,1.65-2.84,3.15-2.84,1.2,0,1.83.53,1.83,1.22A1.06,1.06,0,0,1,45,418.23a1.78,1.78,0,0,1-.35,0,1.67,1.67,0,0,0,.37-.93c0-.48-.26-.77-.88-.77-1,0-1.58.84-1.82,2l-.43,2h2.31l-.27.65H41.67Z"/>
        <path class="cls-1" d="M43.44,425.67c0-2.58,2-5.34,4.64-5.34,1.52,0,2.42.7,2.42,1.86,0,1.77-2,2.53-5.78,2.73a4.65,4.65,0,0,0,0,.75c0,1.55.8,2.47,2.19,2.47a3.38,3.38,0,0,0,2.77-1.63l.29.15a3.69,3.69,0,0,1-3.43,2.24A2.9,2.9,0,0,1,43.44,425.67Zm1.38-1.32c2.48-.12,4.45-.41,4.45-2.28A1,1,0,0,0,48.08,421C46.35,421,45.19,422.58,44.82,424.35Z"/>
        <path class="cls-1" d="M55.62,421c-2.11,0-3.35,2.39-3.35,4.6,0,1.55.78,2.52,2.15,2.52a3.24,3.24,0,0,0,2.67-1.63l.29.17a3.57,3.57,0,0,1-3.33,2.24c-1.89,0-3-1.32-3-3.3,0-2.72,2-5.27,4.58-5.27C57,420.33,58,421,58,422a.94.94,0,0,1-1,1,.79.79,0,0,1-.42-.1,1.13,1.13,0,0,0,.25-.85C56.87,421.47,56.5,421,55.62,421Z"/>
        <path class="cls-1" d="M60,426.68a1.78,1.78,0,0,0-.07.47c0,.6.37.87,1.09.87a6.39,6.39,0,0,0,1.78-.32v.2a4.76,4.76,0,0,1-2.48,1,1.42,1.42,0,0,1-1.53-1.51,3.07,3.07,0,0,1,.09-.65l1.37-5.59H58.91l.12-.44c1.46-.34,2.13-1.31,2.79-3h.44l-.71,2.78H64l-.26.65H61.38Z"/>
        <path class="cls-1" d="M65,427.1a1.82,1.82,0,0,0-.07.43c0,.39.24.57.69.57a3.26,3.26,0,0,0,1.09-.22v.17a2.94,2.94,0,0,1-1.8.85,1,1,0,0,1-1.1-1.15,3.2,3.2,0,0,1,.1-.67l2.29-9.36a1.49,1.49,0,0,0,0-.39c0-.6-.42-.9-1-1.23V416h2.44Z"/>
        <path class="cls-1" d="M73.31,426.2a4.48,4.48,0,0,1-3.67,2.7A1.61,1.61,0,0,1,68,427.08a3.8,3.8,0,0,1,.11-.9l1-4a1.44,1.44,0,0,0,0-.39c0-.59-.42-.9-1-1.22v-.11h2.45l-1.41,5.63a3.07,3.07,0,0,0-.1.77c0,.71.34,1.17,1.09,1.17,1.42,0,3.11-1.75,3.79-4.51l.76-3.06h1.09L73.94,428c-.68,2.74-2.07,4.56-4.61,4.56-1.63,0-2.73-.67-2.73-1.79a1,1,0,0,1,1.08-1,1.14,1.14,0,0,1,.41.07,1.18,1.18,0,0,0-.3.83c0,.81.52,1.34,1.54,1.34,2,0,3-1.65,3.55-4Z"/>
        <path class="cls-1" d="M4.94,480.9a3.17,3.17,0,0,1-3.25-3.48c0-2.52,1.75-5.09,4.4-5.09a3.18,3.18,0,0,1,3.25,3.49C9.34,478.33,7.59,480.9,4.94,480.9Zm0-.69c1.78,0,3.18-2.21,3.18-4.58,0-1.59-.58-2.6-2-2.6-1.78,0-3.17,2.21-3.17,4.57C2.92,479.2,3.49,480.21,4.94,480.21Z"/>
        <path class="cls-1" d="M12.78,469.72a2.08,2.08,0,0,0,.05-.39c0-.6-.43-.9-1-1.23V468h2.43l-1.62,6.51a3.8,3.8,0,0,1,3.2-2.18c1.63,0,2.62,1.19,2.62,3.08,0,2.86-1.77,5.49-4.63,5.49a2.45,2.45,0,0,1-2.44-1.68,6.72,6.72,0,0,1-1.21,1.6H10Zm2.72,3.38c-1.42,0-2.89,1.53-3.32,3.35l-.19.8a5.05,5.05,0,0,0-.1.9,1.88,1.88,0,0,0,1.92,2.06c2.16,0,3.45-2.52,3.45-4.8C17.26,474,16.69,473.1,15.5,473.1Z"/>
        <path class="cls-1" d="M20.56,474.22a1.44,1.44,0,0,0,.05-.39c0-.59-.42-.9-1-1.22v-.11h2.43l-1.19,4.78a5.78,5.78,0,0,0-.18,1.24,1.38,1.38,0,0,0,1.56,1.57c2.21,0,3.76-3.15,3.76-5.24,0-1-.43-1.5-1.23-1.5a2.06,2.06,0,0,0-.86.19,1.33,1.33,0,0,1,1.32-1.21c1.09,0,1.67.87,1.67,2.06,0,2.86-2.23,6.51-5,6.51a2.07,2.07,0,0,1-2.27-2.31,5.52,5.52,0,0,1,.17-1.29Z"/>
        <path class="cls-1" d="M29,479.1a2.45,2.45,0,0,0-.06.43c0,.39.25.57.69.57a3.31,3.31,0,0,0,1.09-.22v.17a3,3,0,0,1-1.8.85,1,1,0,0,1-1.07-1.15,3.07,3.07,0,0,1,.08-.67l1.21-4.86a2,2,0,0,0,.05-.39c0-.59-.42-.9-1-1.22v-.11h2.43Zm1.63-8.62a.92.92,0,1,1,.92-.92A.92.92,0,0,1,30.62,470.48Z"/>
        <path class="cls-1" d="M34.82,480.9a3.17,3.17,0,0,1-3.24-3.48c0-2.52,1.75-5.09,4.4-5.09a3.18,3.18,0,0,1,3.25,3.49C39.23,478.33,37.48,480.9,34.82,480.9Zm0-.69c1.79,0,3.18-2.21,3.18-4.58,0-1.59-.57-2.6-2-2.6-1.78,0-3.18,2.21-3.18,4.57C32.8,479.2,33.38,480.21,34.82,480.21Z"/>
        <path class="cls-1" d="M45.74,478.2a4.5,4.5,0,0,1-3.67,2.7,1.61,1.61,0,0,1-1.69-1.82,3.85,3.85,0,0,1,.12-.9l1-4a2,2,0,0,0,0-.39c0-.59-.43-.9-1-1.22v-.11H43l-1.41,5.63a3.11,3.11,0,0,0-.11.77c0,.71.34,1.17,1.09,1.17,1.43,0,3.11-1.75,3.79-4.51l.77-3.06h1.09l-1.65,6.6a1.54,1.54,0,0,0-.05.39c0,.39.27.61.71.61a3.31,3.31,0,0,0,1.09-.22v.17a3,3,0,0,1-1.8.85,1,1,0,0,1-1.11-1.17,2.54,2.54,0,0,1,.09-.65Z"/>
        <path class="cls-1" d="M53,473c-1.1,0-1.8.52-1.8,1.36,0,.61.46,1,1.7,1.73,1.49.85,2,1.46,2,2.36,0,1.47-1.38,2.45-3.09,2.45s-3-.93-3-2a.92.92,0,0,1,1-.94,1.31,1.31,0,0,1,.44.07,1,1,0,0,0-.24.68,1.63,1.63,0,0,0,1.84,1.55c1.08,0,2-.5,2-1.43,0-.6-.39-1.12-1.62-1.79s-2-1.31-2-2.34A2.6,2.6,0,0,1,53,472.33c1.65,0,2.67.79,2.67,1.77,0,.63-.53.9-1.06.9a2,2,0,0,1-.34,0,1.11,1.11,0,0,0,.23-.71C54.48,473.51,53.91,473,53,473Z"/>
        <path class="cls-1" d="M56.57,480.68a.75.75,0,0,1-.8-.78.94.94,0,0,1,1-.95,1.13,1.13,0,0,1,1.09,1.24,3.19,3.19,0,0,1-3.08,3l.05-.44A2.46,2.46,0,0,0,57,480.53.86.86,0,0,1,56.57,480.68Z"/>
        <path class="cls-1" d="M69.16,479.1a2.33,2.33,0,0,0-.06.39c0,.41.22.61.68.61a3.26,3.26,0,0,0,1.08-.22v.17a2.94,2.94,0,0,1-1.8.85A1,1,0,0,1,68,479.73a3.07,3.07,0,0,1,.23-1,3.51,3.51,0,0,1-3,2.17c-1.58,0-2.64-1.2-2.64-3.07,0-2.86,2-5.5,4.47-5.5a2.22,2.22,0,0,1,2.37,1.6,6.69,6.69,0,0,1,1.2-1.6h.21Zm-.28-3.2a4.9,4.9,0,0,0,.13-1,1.66,1.66,0,0,0-1.8-1.85c-2,0-3.38,2.17-3.38,4.78,0,1.39.64,2.31,1.68,2.31,1.43,0,2.72-1.55,3.2-3.52Z"/>
        <path class="cls-1" d="M71.6,480.73l1.61-6.51a2,2,0,0,0,.05-.39c0-.59-.42-.9-1-1.22v-.11h2.35L74.1,475a4.48,4.48,0,0,1,3.67-2.71,1.61,1.61,0,0,1,1.68,1.82,3.38,3.38,0,0,1-.12.9l-1,4.05a2,2,0,0,0-.07.43c0,.37.24.57.7.57a3.26,3.26,0,0,0,1.08-.22v.17a2.94,2.94,0,0,1-1.8.85,1,1,0,0,1-1.1-1.17,3.2,3.2,0,0,1,.08-.65l1-4a2.8,2.8,0,0,0,.11-.72,1,1,0,0,0-1.12-1.17c-1.43,0-3.1,1.77-3.76,4.44l-.77,3.07Z"/>
        <path class="cls-1" d="M86.57,478.73a3.66,3.66,0,0,1-3.11,2.17c-1.63,0-2.7-1.19-2.7-3.07,0-2.86,2-5.5,4.59-5.5A2.3,2.3,0,0,1,87.74,474l1-4.3a1.39,1.39,0,0,0,0-.39c0-.6-.41-.9-1-1.23V468h2.43l-2.72,11.1a2.59,2.59,0,0,0-.06.43c0,.39.22.57.68.57a3.36,3.36,0,0,0,1.09-.22v.17a3,3,0,0,1-1.81.85,1,1,0,0,1-1.1-1.17A3.1,3.1,0,0,1,86.57,478.73Zm.68-2.74a4.27,4.27,0,0,0,.1-.9A1.88,1.88,0,0,0,85.43,473c-2.16,0-3.45,2.52-3.45,4.8,0,1.41.58,2.31,1.77,2.31,1.41,0,2.89-1.53,3.31-3.35Z"/>
        <path class="cls-1" d="M7.58,525c-1.1,0-1.8.52-1.8,1.36,0,.61.46,1,1.7,1.73,1.49.85,2,1.46,2,2.36,0,1.47-1.38,2.45-3.09,2.45s-3-.93-3-2a.92.92,0,0,1,1-.94,1.31,1.31,0,0,1,.44.07,1,1,0,0,0-.24.68,1.64,1.64,0,0,0,1.84,1.55c1.09,0,2-.5,2-1.43,0-.6-.39-1.12-1.61-1.79s-2-1.31-2-2.34a2.59,2.59,0,0,1,2.85-2.37c1.65,0,2.67.79,2.67,1.77a.93.93,0,0,1-1.05.9,1.79,1.79,0,0,1-.34,0,1.17,1.17,0,0,0,.22-.71C9.08,525.51,8.52,525,7.58,525Z"/>
        <path class="cls-1" d="M14,532.9a3.18,3.18,0,0,1-3.25-3.48c0-2.52,1.76-5.09,4.41-5.09a3.17,3.17,0,0,1,3.24,3.49C18.39,530.33,16.64,532.9,14,532.9Zm0-.69c1.79,0,3.18-2.21,3.18-4.58,0-1.59-.58-2.6-2-2.6-1.79,0-3.18,2.21-3.18,4.57C12,531.2,12.55,532.21,14,532.21Z"/>
        <path class="cls-1" d="M28,526.22a1.81,1.81,0,0,0,.05-.39c0-.59-.41-.9-1-1.22v-.11h2.43l-1.19,4.78a5,5,0,0,0-.19,1.34c0,1,.41,1.52,1.26,1.52,2.07,0,3.48-3.15,3.48-5.44,0-.83-.32-1.31-1.08-1.31a1.76,1.76,0,0,0-.82.19,1.36,1.36,0,0,1,1.31-1.25c1,0,1.49.87,1.49,2,0,3-1.95,6.61-4.7,6.61-1.24,0-1.94-.83-1.94-2.19a3.24,3.24,0,0,1-2.91,2.19c-1.36,0-2-.86-2-2.17a5.55,5.55,0,0,1,.18-1.33l.79-3.18a2,2,0,0,0,.05-.39c0-.59-.43-.9-1-1.22v-.11h2.43l-1.23,4.88a6.19,6.19,0,0,0-.18,1.3c0,1,.44,1.46,1.29,1.46,1.39,0,2.36-1.6,2.74-3.13Z"/>
        <path class="cls-1" d="M34.51,529.67c0-2.58,2-5.34,4.64-5.34,1.51,0,2.41.7,2.41,1.86,0,1.77-2,2.53-5.77,2.73a4.65,4.65,0,0,0-.06.75c0,1.55.8,2.47,2.2,2.47a3.39,3.39,0,0,0,2.77-1.63l.29.15a3.7,3.7,0,0,1-3.44,2.24A2.9,2.9,0,0,1,34.51,529.67Zm1.38-1.32c2.48-.12,4.45-.41,4.45-2.28A1,1,0,0,0,39.15,525C37.42,525,36.26,526.58,35.89,528.35Z"/>
        <path class="cls-1" d="M50.54,530.73a3.66,3.66,0,0,1-3.11,2.17c-1.63,0-2.7-1.19-2.7-3.07,0-2.86,2-5.5,4.59-5.5A2.3,2.3,0,0,1,51.71,526l1-4.3a1.39,1.39,0,0,0,0-.39c0-.6-.41-.9-1-1.23V520h2.43l-2.72,11.1a2.59,2.59,0,0,0-.06.43c0,.39.22.57.68.57a3.26,3.26,0,0,0,1.08-.22v.17a2.94,2.94,0,0,1-1.8.85,1,1,0,0,1-1.1-1.17A3.1,3.1,0,0,1,50.54,530.73Zm.68-2.74a4.27,4.27,0,0,0,.1-.9A1.88,1.88,0,0,0,49.4,525c-2.16,0-3.45,2.52-3.45,4.8,0,1.41.58,2.31,1.77,2.31,1.41,0,2.89-1.53,3.32-3.35Z"/>
        <path class="cls-1" d="M57.38,532.9a3.17,3.17,0,0,1-3.25-3.48c0-2.52,1.75-5.09,4.4-5.09a3.18,3.18,0,0,1,3.25,3.49C61.78,530.33,60,532.9,57.38,532.9Zm0-.69c1.78,0,3.17-2.21,3.17-4.58,0-1.59-.57-2.6-2-2.6-1.78,0-3.18,2.21-3.18,4.57C55.35,531.2,55.93,532.21,57.38,532.21Z"/>
        <path class="cls-1" d="M65.18,532.73l1.61-6.51a1.48,1.48,0,0,0,.06-.39c0-.59-.43-.9-1-1.22v-.11h2.34L67.68,527a4.48,4.48,0,0,1,3.67-2.71A1.61,1.61,0,0,1,73,526.15a3.38,3.38,0,0,1-.12.9l-1,4.05a2.91,2.91,0,0,0-.07.43c0,.37.24.57.7.57a3.31,3.31,0,0,0,1.09-.22v.17a3,3,0,0,1-1.8.85,1,1,0,0,1-1.11-1.17,3.2,3.2,0,0,1,.08-.65l1-4a2.76,2.76,0,0,0,.1-.72,1,1,0,0,0-1.12-1.17c-1.43,0-3.09,1.77-3.76,4.44l-.76,3.07Z"/>
        <path class="cls-1" d="M77.62,532.9a3.17,3.17,0,0,1-3.24-3.48c0-2.52,1.75-5.09,4.4-5.09A3.18,3.18,0,0,1,82,527.82C82,530.33,80.28,532.9,77.62,532.9Zm0-.69c1.79,0,3.18-2.21,3.18-4.58,0-1.59-.58-2.6-2-2.6-1.79,0-3.18,2.21-3.18,4.57C75.6,531.2,76.18,532.21,77.62,532.21Z"/>
        <path class="cls-1" d="M84.41,530.68a1.45,1.45,0,0,0-.07.47c0,.6.37.87,1.09.87a6.45,6.45,0,0,0,1.78-.32v.2a4.79,4.79,0,0,1-2.48,1,1.42,1.42,0,0,1-1.53-1.51,3,3,0,0,1,.08-.65l1.38-5.59H83.3l.12-.44c1.46-.34,2.12-1.31,2.79-3h.44l-.71,2.78h2.43l-.26.65H85.77Z"/>
        <path class="cls-1" d="M13.06,579a4.51,4.51,0,0,1,3.67-2.71,1.61,1.61,0,0,1,1.69,1.82,3.72,3.72,0,0,1-.12.9l-1,4.05a2,2,0,0,0-.07.43c0,.37.24.57.7.57a3.26,3.26,0,0,0,1.08-.22v.17a2.94,2.94,0,0,1-1.8.85,1,1,0,0,1-1.1-1.17,3.2,3.2,0,0,1,.08-.65l1-4a2.8,2.8,0,0,0,.11-.72,1,1,0,0,0-1.13-1.17c-1.42,0-3.09,1.77-3.75,4.44l-.77,3.07H10.56l2.74-11a1.49,1.49,0,0,0,0-.39c0-.6-.42-.9-1-1.23V572h2.43Z"/>
        <path class="cls-1" d="M26.29,583.1a2.51,2.51,0,0,0-.07.39c0,.41.22.61.68.61a3.31,3.31,0,0,0,1.09-.22v.17a3,3,0,0,1-1.8.85,1,1,0,0,1-1.09-1.17,3,3,0,0,1,.22-1,3.48,3.48,0,0,1-3,2.17c-1.58,0-2.63-1.2-2.63-3.07,0-2.86,1.95-5.5,4.47-5.5a2.21,2.21,0,0,1,2.36,1.6,6.72,6.72,0,0,1,1.21-1.6H28ZM26,579.9a4.35,4.35,0,0,0,.14-1,1.67,1.67,0,0,0-1.81-1.85c-2,0-3.38,2.17-3.38,4.78,0,1.39.65,2.31,1.68,2.31,1.43,0,2.73-1.55,3.2-3.52Z"/>
        <path class="cls-1" d="M30.13,578.22a1.44,1.44,0,0,0,.05-.39c0-.59-.42-.9-1-1.22v-.11h2.43l-1.19,4.78a5.78,5.78,0,0,0-.18,1.24,1.38,1.38,0,0,0,1.56,1.57c2.21,0,3.76-3.15,3.76-5.24,0-1-.43-1.5-1.23-1.5a2.06,2.06,0,0,0-.86.19,1.33,1.33,0,0,1,1.32-1.21c1.09,0,1.67.87,1.67,2.06,0,2.86-2.23,6.51-5,6.51a2.07,2.07,0,0,1-2.26-2.31,5,5,0,0,1,.17-1.29Z"/>
        <path class="cls-1" d="M37.19,581.67c0-2.58,2-5.34,4.64-5.34,1.51,0,2.41.7,2.41,1.86,0,1.77-2,2.53-5.78,2.73a6.16,6.16,0,0,0-.05.75c0,1.55.8,2.47,2.19,2.47a3.36,3.36,0,0,0,2.77-1.63l.29.15a3.68,3.68,0,0,1-3.43,2.24C38.29,584.9,37.19,583.64,37.19,581.67Zm1.37-1.32c2.48-.12,4.46-.41,4.46-2.28A1,1,0,0,0,41.83,577C40.09,577,38.94,578.58,38.56,580.35Z"/>
        <path class="cls-1" d="M49,582.68a1.78,1.78,0,0,0-.07.47c0,.6.37.87,1.09.87a6.39,6.39,0,0,0,1.78-.32v.2a4.76,4.76,0,0,1-2.48,1,1.42,1.42,0,0,1-1.53-1.51,3.07,3.07,0,0,1,.09-.65l1.37-5.59H47.91l.12-.44c1.46-.34,2.13-1.31,2.79-3h.44l-.71,2.78H53l-.26.65H50.38Z"/>
        <path class="cls-1" d="M55.94,584.9a3.17,3.17,0,0,1-3.25-3.48c0-2.52,1.75-5.09,4.4-5.09a3.18,3.18,0,0,1,3.25,3.49C60.34,582.33,58.59,584.9,55.94,584.9Zm0-.69c1.78,0,3.18-2.21,3.18-4.58,0-1.59-.58-2.6-2-2.6-1.78,0-3.18,2.21-3.18,4.57C53.91,583.2,54.49,584.21,55.94,584.21Z"/>
        <path class="cls-1" d="M69.62,582.76a3.58,3.58,0,0,1-3.09,2.14c-1.63,0-2.7-1.19-2.7-3.07,0-2.86,2-5.5,4.59-5.5A2.36,2.36,0,0,1,70.88,578a6.8,6.8,0,0,1,1.22-1.64h.21L70.2,584.8c-.61,2.48-2,3.76-4.32,3.76-1.71,0-3-.85-3-2a1,1,0,0,1,1-1.09,1.25,1.25,0,0,1,.42.08,1.25,1.25,0,0,0-.3.84,1.65,1.65,0,0,0,1.88,1.6c1.89,0,2.76-1.25,3.25-3.2Zm.7-2.77a4.27,4.27,0,0,0,.1-.9A1.88,1.88,0,0,0,68.5,577c-2.16,0-3.45,2.52-3.45,4.8,0,1.41.58,2.31,1.77,2.31,1.41,0,2.89-1.53,3.31-3.35Z"/>
        <path class="cls-1" d="M76,584.9a3.17,3.17,0,0,1-3.24-3.48c0-2.52,1.75-5.09,4.4-5.09a3.18,3.18,0,0,1,3.25,3.49C80.37,582.33,78.62,584.9,76,584.9Zm0-.69c1.79,0,3.18-2.21,3.18-4.58,0-1.59-.58-2.6-2-2.6-1.79,0-3.18,2.21-3.18,4.57C73.94,583.2,74.52,584.21,76,584.21Z"/>
        <path class="cls-1" d="M13.35,635.1a2.33,2.33,0,0,0-.06.39c0,.41.22.61.67.61a3.26,3.26,0,0,0,1.09-.22v.17a2.94,2.94,0,0,1-1.8.85,1,1,0,0,1-1.09-1.17,3.31,3.31,0,0,1,.22-1,3.48,3.48,0,0,1-3,2.17c-1.58,0-2.64-1.2-2.64-3.07,0-2.86,2-5.5,4.47-5.5a2.2,2.2,0,0,1,2.36,1.6,6.72,6.72,0,0,1,1.21-1.6H15Zm-.29-3.2a4.35,4.35,0,0,0,.14-1,1.66,1.66,0,0,0-1.8-1.85c-2,0-3.38,2.17-3.38,4.78,0,1.39.64,2.31,1.68,2.31,1.43,0,2.72-1.55,3.19-3.52Z"/>
        <path class="cls-1" d="M15.79,636.73l1.61-6.51a2,2,0,0,0,.05-.39c0-.59-.42-.9-1-1.22v-.11h2.35L18.28,631A4.51,4.51,0,0,1,22,628.33a1.61,1.61,0,0,1,1.68,1.82,3.85,3.85,0,0,1-.12.9l-1,4.05a2,2,0,0,0-.07.43c0,.37.24.57.69.57a3.26,3.26,0,0,0,1.09-.22v.17a2.94,2.94,0,0,1-1.8.85,1,1,0,0,1-1.1-1.17,3.2,3.2,0,0,1,.08-.65l1-4a2.8,2.8,0,0,0,.11-.72,1,1,0,0,0-1.13-1.17c-1.42,0-3.09,1.77-3.75,4.44l-.77,3.07Z"/>
        <path class="cls-1" d="M30.69,634.2A4.48,4.48,0,0,1,27,636.9a1.61,1.61,0,0,1-1.68-1.82,3.38,3.38,0,0,1,.12-.9l1-4a1.44,1.44,0,0,0,0-.39c0-.59-.42-.9-1-1.22v-.11H28l-1.41,5.63a3.07,3.07,0,0,0-.1.77c0,.71.34,1.17,1.09,1.17,1.42,0,3.11-1.75,3.79-4.51l.76-3.06h1.09L31.32,636c-.68,2.74-2.07,4.56-4.61,4.56-1.63,0-2.73-.67-2.73-1.79a1,1,0,0,1,1.09-1,1.12,1.12,0,0,1,.4.07,1.18,1.18,0,0,0-.3.83c0,.81.53,1.34,1.54,1.34,2,0,3-1.65,3.56-4Z"/>
        <path class="cls-1" d="M36.93,638.09c-.4,1.58-.91,2.47-2.17,2.47h-.11a8.91,8.91,0,0,0,1.52-3.62l1.94-7.79H36.87l.11-.44,1.3-.31.4-1.61c.48-1.85,1.65-2.84,3.15-2.84,1.21,0,1.83.53,1.83,1.22a1.06,1.06,0,0,1-1.13,1.06,1.79,1.79,0,0,1-.36,0,1.67,1.67,0,0,0,.37-.93c0-.48-.25-.77-.88-.77-1,0-1.58.84-1.82,2l-.43,2h2.32l-.27.65H39.23Z"/>
        <path class="cls-1" d="M47.54,635.1a2.51,2.51,0,0,0-.07.39c0,.41.22.61.68.61a3.31,3.31,0,0,0,1.09-.22v.17a3,3,0,0,1-1.8.85,1,1,0,0,1-1.09-1.17,3,3,0,0,1,.22-1,3.48,3.48,0,0,1-3,2.17c-1.58,0-2.63-1.2-2.63-3.07,0-2.86,2-5.5,4.47-5.5a2.22,2.22,0,0,1,2.36,1.6,6.72,6.72,0,0,1,1.21-1.6h.2Zm-.29-3.2a4.35,4.35,0,0,0,.14-1,1.67,1.67,0,0,0-1.81-1.85c-2,0-3.38,2.17-3.38,4.78,0,1.39.65,2.31,1.68,2.31,1.43,0,2.73-1.55,3.2-3.52Z"/>
        <path class="cls-1" d="M52.38,631.36c.77-1.44,1.84-3,3.29-3a.92.92,0,0,1,1,.91,1.1,1.1,0,0,1-1.15,1.1.86.86,0,0,0,.13-.42c0-.29-.2-.53-.63-.53-1.1,0-2.7,2.19-3.17,4.08l-.82,3.26H50l1.62-6.51a2,2,0,0,0,0-.39c0-.59-.43-.9-1-1.22v-.11H53.1Z"/>
        <path class="cls-1" d="M58.3,634.68a1.78,1.78,0,0,0-.07.47c0,.6.38.87,1.09.87a6.45,6.45,0,0,0,1.79-.32v.2a4.79,4.79,0,0,1-2.49,1,1.42,1.42,0,0,1-1.53-1.51,3.07,3.07,0,0,1,.09-.65l1.38-5.59H57.2l.11-.44c1.47-.34,2.13-1.31,2.79-3h.44l-.71,2.78h2.43l-.25.65H59.66Z"/>
        <path class="cls-1" d="M64.35,631A4.51,4.51,0,0,1,68,628.33a1.62,1.62,0,0,1,1.69,1.82,3.72,3.72,0,0,1-.12.9l-1,4.05a2.74,2.74,0,0,0-.06.43c0,.37.23.57.69.57a3.31,3.31,0,0,0,1.09-.22v.17a3,3,0,0,1-1.8.85,1.05,1.05,0,0,1-1.11-1.17,3.26,3.26,0,0,1,.09-.65l1-4a2.76,2.76,0,0,0,.1-.72,1,1,0,0,0-1.12-1.17c-1.42,0-3.09,1.77-3.75,4.44l-.77,3.07H61.85l2.74-11a2.08,2.08,0,0,0,0-.39c0-.6-.43-.9-1-1.23V624H66.1Z"/>
        <path class="cls-1" d="M71,633.67c0-2.58,2-5.34,4.64-5.34,1.52,0,2.42.7,2.42,1.86,0,1.77-2,2.53-5.78,2.73a4.65,4.65,0,0,0,0,.75c0,1.55.8,2.47,2.19,2.47a3.38,3.38,0,0,0,2.77-1.63l.29.15a3.69,3.69,0,0,1-3.43,2.24A2.9,2.9,0,0,1,71,633.67Zm1.38-1.32c2.48-.12,4.45-.41,4.45-2.28A1,1,0,0,0,75.67,629C73.94,629,72.78,630.58,72.41,632.35Z"/>
        <path class="cls-1" d="M80.86,631.36c.76-1.44,1.84-3,3.28-3a.92.92,0,0,1,1,.91,1.11,1.11,0,0,1-1.16,1.1.78.78,0,0,0,.14-.42c0-.29-.21-.53-.63-.53-1.11,0-2.7,2.19-3.18,4.08l-.82,3.26H78.45l1.61-6.51a2,2,0,0,0,0-.39c0-.59-.42-.9-1-1.22v-.11h2.43Z"/>
        <path class="cls-1" d="M16.09,687.1a2.55,2.55,0,0,0-.07.43c0,.39.26.57.7.57a3.31,3.31,0,0,0,1.09-.22v.17a3,3,0,0,1-1.81.85,1,1,0,0,1-1.07-1.15,3.08,3.08,0,0,1,.09-.67l1.21-4.86a2,2,0,0,0,.05-.39c0-.59-.43-.9-1-1.22v-.11h2.43Zm1.63-8.62a.92.92,0,1,1,.92-.92A.92.92,0,0,1,17.72,678.48Z"/>
        <path class="cls-1" d="M18.55,688.73l1.62-6.51a2,2,0,0,0,0-.39c0-.59-.42-.9-1-1.22v-.11H21.6L21.05,683a4.51,4.51,0,0,1,3.67-2.71,1.61,1.61,0,0,1,1.69,1.82,3.38,3.38,0,0,1-.12.9l-1,4.05a2,2,0,0,0-.07.43c0,.37.24.57.7.57a3.26,3.26,0,0,0,1.08-.22v.17a2.94,2.94,0,0,1-1.8.85,1,1,0,0,1-1.1-1.17,3.2,3.2,0,0,1,.08-.65l1-4a2.8,2.8,0,0,0,.11-.72,1,1,0,0,0-1.13-1.17c-1.42,0-3.09,1.77-3.75,4.44l-.77,3.07Z"/>
        <path class="cls-1" d="M29.33,686.68a1.78,1.78,0,0,0-.07.47c0,.6.38.87,1.09.87a6.45,6.45,0,0,0,1.79-.32v.2a4.79,4.79,0,0,1-2.49,1,1.42,1.42,0,0,1-1.53-1.51,3.07,3.07,0,0,1,.09-.65l1.38-5.59H28.23l.12-.44c1.46-.34,2.12-1.31,2.78-3h.45l-.72,2.78h2.43l-.25.65H30.69Z"/>
        <path class="cls-1" d="M36.25,688.9A3.18,3.18,0,0,1,33,685.42c0-2.52,1.76-5.09,4.41-5.09a3.17,3.17,0,0,1,3.24,3.49C40.65,686.33,38.9,688.9,36.25,688.9Zm0-.69c1.79,0,3.18-2.21,3.18-4.58,0-1.59-.58-2.6-2-2.6-1.79,0-3.18,2.21-3.18,4.57C34.23,687.2,34.81,688.21,36.25,688.21Z"/>
        <path class="cls-1" d="M45.75,686.68a1.72,1.72,0,0,0-.06.47c0,.6.37.87,1.08.87a6.45,6.45,0,0,0,1.79-.32v.2a4.79,4.79,0,0,1-2.48,1,1.42,1.42,0,0,1-1.53-1.51,3,3,0,0,1,.08-.65L46,681.15H44.65l.12-.44c1.46-.34,2.12-1.31,2.79-3H48l-.72,2.78h2.43l-.25.65H47.11Z"/>
        <path class="cls-1" d="M51.81,683a4.48,4.48,0,0,1,3.67-2.71,1.61,1.61,0,0,1,1.68,1.82,3.28,3.28,0,0,1-.12.9l-1,4.05a2,2,0,0,0-.07.43c0,.37.24.57.7.57a3.36,3.36,0,0,0,1.09-.22v.17a3,3,0,0,1-1.81.85,1,1,0,0,1-1.1-1.17,3.2,3.2,0,0,1,.08-.65l1-4a3.27,3.27,0,0,0,.1-.72,1,1,0,0,0-1.12-1.17c-1.43,0-3.1,1.77-3.76,4.44l-.77,3.07H49.31l2.73-11a1.55,1.55,0,0,0,.06-.39c0-.6-.43-.9-1-1.23V676h2.44Z"/>
        <path class="cls-1" d="M65,687.1a2.51,2.51,0,0,0-.07.39c0,.41.23.61.68.61a3.26,3.26,0,0,0,1.09-.22v.17a2.94,2.94,0,0,1-1.8.85,1,1,0,0,1-1.09-1.17,3.31,3.31,0,0,1,.22-1,3.48,3.48,0,0,1-3,2.17c-1.59,0-2.64-1.2-2.64-3.07,0-2.86,2-5.5,4.47-5.5a2.21,2.21,0,0,1,2.36,1.6,6.72,6.72,0,0,1,1.21-1.6h.2Zm-.29-3.2a4.35,4.35,0,0,0,.14-1,1.67,1.67,0,0,0-1.8-1.85c-2,0-3.39,2.17-3.39,4.78,0,1.39.65,2.31,1.69,2.31,1.42,0,2.72-1.55,3.19-3.52Z"/>
        <path class="cls-1" d="M69.16,686.68a1.78,1.78,0,0,0-.07.47c0,.6.38.87,1.09.87A6.45,6.45,0,0,0,72,687.7v.2a4.79,4.79,0,0,1-2.49,1A1.42,1.42,0,0,1,68,687.39a3,3,0,0,1,.08-.65l1.38-5.59H68.06l.12-.44c1.46-.34,2.12-1.31,2.78-3h.45l-.72,2.78h2.43l-.25.65H70.52Z"/>
        <path class="cls-1" d="M74,688.88a1,1,0,1,1,1-1A1,1,0,0,1,74,688.88Z"/>
        <path class="cls-1" d="M23.23,728.83a5,5,0,0,0,1.05-.1l-.18,3H24c-.59-1.56-.85-2.33-2.4-2.33H19.69l-2.36,9.45a3.1,3.1,0,0,0-.12.73c0,.53.29.72.92,1v.12H14.51v-.12c1.07-.42,1.39-.63,1.68-1.75l2.36-9.45H16.89c-1.55,0-2.06.48-3.76,2.33H13l1.33-3a4,4,0,0,0,1,.1Z"/>
        <path class="cls-1" d="M25.88,735a4.49,4.49,0,0,1,3.67-2.71,1.62,1.62,0,0,1,1.69,1.82,3.72,3.72,0,0,1-.12.9l-1,4.05a2,2,0,0,0-.07.43c0,.37.24.57.69.57a3.26,3.26,0,0,0,1.09-.22v.17a3,3,0,0,1-1.8.85,1.05,1.05,0,0,1-1.11-1.17,3.26,3.26,0,0,1,.09-.65l1-4a2.8,2.8,0,0,0,.11-.72A1,1,0,0,0,29,733.22c-1.43,0-3.09,1.77-3.75,4.44l-.77,3.07H23.38l2.74-11a2.08,2.08,0,0,0,.05-.39c0-.6-.42-.9-1-1.23V728h2.43Z"/>
        <path class="cls-1" d="M32.56,737.67c0-2.58,2-5.34,4.64-5.34,1.52,0,2.42.7,2.42,1.86,0,1.77-2,2.53-5.78,2.73a4.65,4.65,0,0,0-.05.75c0,1.55.8,2.47,2.19,2.47a3.38,3.38,0,0,0,2.77-1.63l.29.15a3.69,3.69,0,0,1-3.43,2.24A2.9,2.9,0,0,1,32.56,737.67Zm1.38-1.32c2.48-.12,4.45-.41,4.45-2.28A1,1,0,0,0,37.2,733C35.47,733,34.31,734.58,33.94,736.35Z"/>
        <path class="cls-1" d="M42.39,735.36c.76-1.44,1.83-3,3.28-3a.92.92,0,0,1,1,.91,1.11,1.11,0,0,1-1.16,1.1.87.87,0,0,0,.14-.42c0-.29-.21-.53-.63-.53-1.11,0-2.7,2.19-3.18,4.08l-.82,3.26H40l1.62-6.51a2,2,0,0,0,0-.39c0-.59-.42-.9-1-1.22v-.11H43.1Z"/>
        <path class="cls-1" d="M46.54,737.67c0-2.58,2-5.34,4.64-5.34,1.51,0,2.41.7,2.41,1.86,0,1.77-2,2.53-5.78,2.73a6.16,6.16,0,0,0-.05.75c0,1.55.8,2.47,2.19,2.47a3.36,3.36,0,0,0,2.77-1.63l.29.15a3.68,3.68,0,0,1-3.43,2.24C47.64,740.9,46.54,739.64,46.54,737.67Zm1.37-1.32c2.49-.12,4.46-.41,4.46-2.28A1,1,0,0,0,51.18,733C49.44,733,48.29,734.58,47.91,736.35Z"/>
        <path class="cls-1" d="M63.32,739.1a1.7,1.7,0,0,0-.07.39c0,.41.22.61.68.61a3.36,3.36,0,0,0,1.09-.22v.17a3,3,0,0,1-1.81.85,1,1,0,0,1-1.09-1.17,3.07,3.07,0,0,1,.23-1,3.51,3.51,0,0,1-3,2.17c-1.58,0-2.64-1.2-2.64-3.07,0-2.86,2-5.5,4.47-5.5a2.22,2.22,0,0,1,2.37,1.6,6.69,6.69,0,0,1,1.2-1.6H65ZM63,735.9a4.9,4.9,0,0,0,.13-1,1.66,1.66,0,0,0-1.8-1.85c-2,0-3.38,2.17-3.38,4.78,0,1.39.64,2.31,1.68,2.31,1.43,0,2.72-1.55,3.2-3.52Z"/>
        <path class="cls-1" d="M68.16,735.36c.77-1.44,1.84-3,3.28-3a.92.92,0,0,1,1,.91,1.1,1.1,0,0,1-1.16,1.1.78.78,0,0,0,.14-.42c0-.29-.2-.53-.63-.53-1.11,0-2.7,2.19-3.18,4.08l-.81,3.26H65.75l1.61-6.51a1.44,1.44,0,0,0,0-.39c0-.59-.42-.9-1-1.22v-.11h2.43Z"/>
        <path class="cls-1" d="M72.31,737.67c0-2.58,2-5.34,4.64-5.34,1.51,0,2.41.7,2.41,1.86,0,1.77-2,2.53-5.78,2.73a6.16,6.16,0,0,0,0,.75c0,1.55.8,2.47,2.19,2.47a3.39,3.39,0,0,0,2.78-1.63l.29.15a3.7,3.7,0,0,1-3.44,2.24C73.41,740.9,72.31,739.64,72.31,737.67Zm1.38-1.32c2.48-.12,4.45-.41,4.45-2.28A1,1,0,0,0,77,733C75.21,733,74.06,734.58,73.69,736.35Z"/>
        <path class="cls-1" d="M22.81,781.72a1.49,1.49,0,0,0,.05-.39c0-.6-.42-.9-1-1.23V780h2.44l-1.62,6.51a3.8,3.8,0,0,1,3.2-2.18c1.63,0,2.61,1.19,2.61,3.08,0,2.86-1.76,5.49-4.62,5.49a2.47,2.47,0,0,1-2.45-1.68,6.69,6.69,0,0,1-1.2,1.6H20Zm2.72,3.38c-1.41,0-2.89,1.53-3.31,3.35l-.19.8a4.27,4.27,0,0,0-.1.9,1.88,1.88,0,0,0,1.92,2.06c2.16,0,3.45-2.52,3.45-4.8C27.3,786,26.72,785.1,25.53,785.1Z"/>
        <path class="cls-1" d="M29.38,789.67c0-2.58,2-5.34,4.64-5.34,1.51,0,2.41.7,2.41,1.86,0,1.77-2,2.53-5.78,2.73a6.16,6.16,0,0,0,0,.75c0,1.55.8,2.47,2.19,2.47a3.36,3.36,0,0,0,2.77-1.63l.29.15a3.69,3.69,0,0,1-3.43,2.24C30.48,792.9,29.38,791.64,29.38,789.67Zm1.37-1.32c2.48-.12,4.46-.41,4.46-2.28A1,1,0,0,0,34,785C32.28,785,31.12,786.58,30.75,788.35Z"/>
        <path class="cls-1" d="M40.71,785c-1.1,0-1.8.52-1.8,1.36,0,.61.46,1,1.7,1.73,1.5.85,2,1.46,2,2.36,0,1.47-1.37,2.45-3.09,2.45s-3-.93-3-2a.92.92,0,0,1,1-.94,1.27,1.27,0,0,1,.44.07,1,1,0,0,0-.24.68,1.64,1.64,0,0,0,1.84,1.55c1.09,0,2-.5,2-1.43,0-.6-.39-1.12-1.61-1.79s-2-1.31-2-2.34a2.59,2.59,0,0,1,2.85-2.37c1.65,0,2.67.79,2.67,1.77a.93.93,0,0,1-1.05.9,1.79,1.79,0,0,1-.34,0,1.11,1.11,0,0,0,.22-.71C42.21,785.51,41.65,785,40.71,785Z"/>
        <path class="cls-1" d="M45.24,791.1a1.82,1.82,0,0,0-.07.43c0,.39.25.57.7.57a3.26,3.26,0,0,0,1.08-.22v.17a2.94,2.94,0,0,1-1.8.85,1,1,0,0,1-1.07-1.15,3.08,3.08,0,0,1,.09-.67l1.2-4.86a1.44,1.44,0,0,0,.05-.39c0-.59-.42-.9-1-1.22v-.11h2.42Zm1.63-8.62a.92.92,0,1,1,.92-.92A.92.92,0,0,1,46.87,782.48Z"/>
        <path class="cls-1" d="M53.6,790.73a3.66,3.66,0,0,1-3.11,2.17c-1.63,0-2.7-1.19-2.7-3.07,0-2.86,2-5.5,4.59-5.5A2.3,2.3,0,0,1,54.77,786l1-4.3a1.89,1.89,0,0,0,0-.39c0-.6-.41-.9-1-1.23V780h2.43L54.6,791.1a2.59,2.59,0,0,0-.06.43c0,.39.22.57.67.57a3.26,3.26,0,0,0,1.09-.22v.17a2.94,2.94,0,0,1-1.8.85,1,1,0,0,1-1.1-1.17A2.86,2.86,0,0,1,53.6,790.73Zm.68-2.74a4.27,4.27,0,0,0,.1-.9A1.88,1.88,0,0,0,52.46,785c-2.16,0-3.45,2.52-3.45,4.8,0,1.41.58,2.31,1.77,2.31,1.41,0,2.89-1.53,3.31-3.35Z"/>
        <path class="cls-1" d="M57.17,789.67c0-2.58,2-5.34,4.64-5.34,1.51,0,2.41.7,2.41,1.86,0,1.77-2,2.53-5.77,2.73a4.65,4.65,0,0,0-.06.75c0,1.55.8,2.47,2.2,2.47a3.39,3.39,0,0,0,2.77-1.63l.29.15a3.7,3.7,0,0,1-3.44,2.24A2.9,2.9,0,0,1,57.17,789.67Zm1.38-1.32c2.48-.12,4.45-.41,4.45-2.28A1,1,0,0,0,61.81,785C60.08,785,58.92,786.58,58.55,788.35Z"/>
        <path class="cls-1" d="M68.51,785c-1.11,0-1.8.52-1.8,1.36,0,.61.46,1,1.7,1.73,1.49.85,2,1.46,2,2.36,0,1.47-1.38,2.45-3.09,2.45s-3-.93-3-2a.92.92,0,0,1,1-.94,1.31,1.31,0,0,1,.44.07,1,1,0,0,0-.24.68,1.63,1.63,0,0,0,1.84,1.55c1.08,0,2-.5,2-1.43,0-.6-.39-1.12-1.62-1.79s-2-1.31-2-2.34a2.6,2.6,0,0,1,2.86-2.37c1.65,0,2.67.79,2.67,1.77,0,.63-.53.9-1.06.9a2,2,0,0,1-.34,0,1.11,1.11,0,0,0,.23-.71C70,785.51,69.44,785,68.51,785Z"/>
        <path class="cls-1" d="M12.09,842.73A3.65,3.65,0,0,1,9,844.9c-1.63,0-2.7-1.19-2.7-3.07,0-2.86,2-5.5,4.59-5.5a2.32,2.32,0,0,1,2.4,1.69l1-4.3a1.43,1.43,0,0,0,.06-.39c0-.6-.41-.9-1-1.23V832h2.43L13.1,843.1a1.91,1.91,0,0,0-.07.43c0,.39.22.57.68.57a3.31,3.31,0,0,0,1.09-.22v.17a3,3,0,0,1-1.8.85,1,1,0,0,1-1.11-1.17A3.1,3.1,0,0,1,12.09,842.73Zm.68-2.74a4.32,4.32,0,0,0,.11-.9A1.88,1.88,0,0,0,11,837c-2.16,0-3.46,2.52-3.46,4.8,0,1.41.58,2.31,1.77,2.31,1.41,0,2.89-1.53,3.32-3.35Z"/>
        <path class="cls-1" d="M22.21,843.1a2.51,2.51,0,0,0-.07.39c0,.41.22.61.68.61a3.31,3.31,0,0,0,1.09-.22v.17a3,3,0,0,1-1.8.85A1,1,0,0,1,21,843.73a3,3,0,0,1,.22-1,3.48,3.48,0,0,1-3,2.17c-1.58,0-2.63-1.2-2.63-3.07,0-2.86,2-5.5,4.47-5.5a2.22,2.22,0,0,1,2.36,1.6,6.72,6.72,0,0,1,1.21-1.6h.2Zm-.29-3.2a4.35,4.35,0,0,0,.14-1,1.67,1.67,0,0,0-1.81-1.85c-2,0-3.38,2.17-3.38,4.78,0,1.39.65,2.31,1.68,2.31,1.43,0,2.73-1.55,3.2-3.52Z"/>
        <path class="cls-1" d="M28.57,837c-1.11,0-1.8.52-1.8,1.36,0,.61.45,1,1.69,1.73,1.5.85,2,1.46,2,2.36,0,1.47-1.38,2.45-3.1,2.45s-3-.93-3-2a.91.91,0,0,1,1-.94,1.23,1.23,0,0,1,.44.07,1,1,0,0,0-.23.68,1.63,1.63,0,0,0,1.83,1.55c1.09,0,2-.5,2-1.43,0-.6-.4-1.12-1.62-1.79s-2-1.31-2-2.34a2.6,2.6,0,0,1,2.86-2.37c1.64,0,2.67.79,2.67,1.77,0,.63-.53.9-1.06.9a1.79,1.79,0,0,1-.34,0,1.11,1.11,0,0,0,.22-.71C30.06,837.51,29.5,837,28.57,837Z"/>
        <path class="cls-1" d="M34.11,839a4.49,4.49,0,0,1,3.67-2.71,1.61,1.61,0,0,1,1.68,1.82,3.68,3.68,0,0,1-.11.9l-1,4.05a2.91,2.91,0,0,0-.07.43c0,.37.24.57.7.57a3.31,3.31,0,0,0,1.09-.22v.17a3,3,0,0,1-1.8.85,1,1,0,0,1-1.11-1.17,3.26,3.26,0,0,1,.09-.65l1-4a2.76,2.76,0,0,0,.1-.72,1,1,0,0,0-1.12-1.17c-1.43,0-3.09,1.77-3.76,4.44l-.76,3.07H31.61l2.74-11a2.08,2.08,0,0,0,0-.39c0-.6-.43-.9-1-1.23V832h2.43Z"/>
        <path class="cls-1" d="M40.79,841.67c0-2.58,2-5.34,4.64-5.34,1.52,0,2.42.7,2.42,1.86,0,1.77-2.05,2.53-5.78,2.73a4.65,4.65,0,0,0,0,.75c0,1.55.79,2.47,2.19,2.47A3.39,3.39,0,0,0,47,842.51l.29.15a3.7,3.7,0,0,1-3.44,2.24A2.9,2.9,0,0,1,40.79,841.67Zm1.38-1.32c2.48-.12,4.45-.41,4.45-2.28A1,1,0,0,0,45.43,837C43.7,837,42.54,838.58,42.17,840.35Z"/>
        <path class="cls-1" d="M52.13,837c-1.11,0-1.8.52-1.8,1.36,0,.61.46,1,1.7,1.73,1.49.85,2,1.46,2,2.36,0,1.47-1.38,2.45-3.09,2.45s-3-.93-3-2a.92.92,0,0,1,1-.94,1.31,1.31,0,0,1,.44.07,1,1,0,0,0-.24.68,1.63,1.63,0,0,0,1.84,1.55c1.08,0,2-.5,2-1.43,0-.6-.39-1.12-1.62-1.79s-2-1.31-2-2.34a2.6,2.6,0,0,1,2.86-2.37c1.65,0,2.67.79,2.67,1.77,0,.63-.53.9-1.06.9a1.87,1.87,0,0,1-.34,0,1.11,1.11,0,0,0,.22-.71C53.62,837.51,53.06,837,52.13,837Z"/>
        <path class="cls-1" d="M64.54,843.1a2.51,2.51,0,0,0-.07.39c0,.41.22.61.68.61a3.31,3.31,0,0,0,1.09-.22v.17a3,3,0,0,1-1.8.85,1,1,0,0,1-1.09-1.17,3.31,3.31,0,0,1,.22-1,3.48,3.48,0,0,1-3,2.17c-1.58,0-2.63-1.2-2.63-3.07,0-2.86,2-5.5,4.47-5.5a2.22,2.22,0,0,1,2.36,1.6,6.72,6.72,0,0,1,1.21-1.6h.2Zm-.29-3.2a4.35,4.35,0,0,0,.14-1,1.67,1.67,0,0,0-1.8-1.85c-2,0-3.39,2.17-3.39,4.78,0,1.39.65,2.31,1.69,2.31,1.42,0,2.72-1.55,3.19-3.52Z"/>
        <path class="cls-1" d="M67,844.73l1.62-6.51a2,2,0,0,0,0-.39c0-.59-.43-.9-1-1.22v-.11H70L69.47,839a4.49,4.49,0,0,1,3.67-2.71,1.61,1.61,0,0,1,1.68,1.82,3.8,3.8,0,0,1-.11.9l-1,4.05a2.91,2.91,0,0,0-.07.43c0,.37.24.57.7.57a3.31,3.31,0,0,0,1.09-.22v.17a3,3,0,0,1-1.8.85,1,1,0,0,1-1.11-1.17,3.26,3.26,0,0,1,.09-.65l1-4a2.76,2.76,0,0,0,.1-.72,1,1,0,0,0-1.12-1.17c-1.43,0-3.09,1.77-3.76,4.44l-.76,3.07Z"/>
        <path class="cls-1" d="M82,842.73a3.67,3.67,0,0,1-3.11,2.17c-1.63,0-2.71-1.19-2.71-3.07,0-2.86,2-5.5,4.59-5.5a2.31,2.31,0,0,1,2.4,1.69l1-4.3a1.89,1.89,0,0,0,0-.39c0-.6-.41-.9-1-1.23V832h2.43L83,843.1a2.72,2.72,0,0,0-.07.43c0,.39.22.57.68.57a3.31,3.31,0,0,0,1.09-.22v.17a3,3,0,0,1-1.8.85,1,1,0,0,1-1.11-1.17A2.89,2.89,0,0,1,82,842.73Zm.68-2.74a4.27,4.27,0,0,0,.1-.9A1.88,1.88,0,0,0,80.81,837c-2.16,0-3.45,2.52-3.45,4.8,0,1.41.58,2.31,1.77,2.31,1.41,0,2.89-1.53,3.31-3.35Z"/>
        <path class="cls-1" d="M34.8,894.73a3.67,3.67,0,0,1-3.11,2.17c-1.64,0-2.71-1.19-2.71-3.07,0-2.86,2-5.5,4.59-5.5A2.31,2.31,0,0,1,36,890l1-4.3a1.89,1.89,0,0,0,.05-.39c0-.6-.41-.9-1-1.23V884h2.43L35.8,895.1a2.72,2.72,0,0,0-.07.43c0,.39.22.57.68.57a3.31,3.31,0,0,0,1.09-.22v.17a3,3,0,0,1-1.8.85,1,1,0,0,1-1.11-1.17A2.89,2.89,0,0,1,34.8,894.73Zm.68-2.74a5.05,5.05,0,0,0,.1-.9A1.88,1.88,0,0,0,33.66,889c-2.16,0-3.45,2.52-3.45,4.8,0,1.41.58,2.31,1.77,2.31,1.41,0,2.89-1.53,3.31-3.35Z"/>
        <path class="cls-1" d="M41.63,896.9a3.18,3.18,0,0,1-3.25-3.48c0-2.52,1.76-5.09,4.41-5.09A3.18,3.18,0,0,1,46,891.82C46,894.33,44.28,896.9,41.63,896.9Zm0-.69c1.79,0,3.18-2.21,3.18-4.58,0-1.59-.58-2.6-2-2.6-1.79,0-3.18,2.21-3.18,4.57C39.61,895.2,40.19,896.21,41.63,896.21Z"/>
        <path class="cls-1" d="M48.41,894.68a1.72,1.72,0,0,0-.06.47c0,.6.37.87,1.08.87a6.45,6.45,0,0,0,1.79-.32v.2a4.79,4.79,0,0,1-2.48,1,1.42,1.42,0,0,1-1.53-1.51,3,3,0,0,1,.08-.65l1.38-5.59H47.31l.12-.44c1.46-.34,2.12-1.31,2.79-3h.44l-.72,2.78h2.44l-.26.65H49.77Z"/>
        <path class="cls-1" d="M55.89,889c-1.1,0-1.8.52-1.8,1.36,0,.61.46,1,1.7,1.73,1.5.85,2,1.46,2,2.36,0,1.47-1.37,2.45-3.09,2.45s-3-.93-3-2a.92.92,0,0,1,1-.94,1.27,1.27,0,0,1,.44.07,1,1,0,0,0-.24.68,1.64,1.64,0,0,0,1.84,1.55c1.09,0,2-.5,2-1.43,0-.6-.39-1.12-1.61-1.79s-2-1.31-2-2.34a2.59,2.59,0,0,1,2.85-2.37c1.65,0,2.67.79,2.67,1.77a.93.93,0,0,1-1.05.9,1.79,1.79,0,0,1-.34,0,1.11,1.11,0,0,0,.22-.71C57.39,889.51,56.83,889,55.89,889Z"/>
        <path class="cls-1" d="M59.48,896.68a.75.75,0,0,1-.8-.78.94.94,0,0,1,1-.95,1.13,1.13,0,0,1,1.09,1.24,3.19,3.19,0,0,1-3.08,3l.06-.44a2.45,2.45,0,0,0,2.17-2.19A.84.84,0,0,1,59.48,896.68Z"/>
        <path class="cls-1" d="M19.17,947.1a1.7,1.7,0,0,0-.07.39c0,.41.22.61.68.61a3.36,3.36,0,0,0,1.09-.22v.17a3,3,0,0,1-1.81.85A1,1,0,0,1,18,947.73a3,3,0,0,1,.22-1,3.49,3.49,0,0,1-3,2.17c-1.58,0-2.63-1.2-2.63-3.07,0-2.86,2-5.5,4.47-5.5a2.22,2.22,0,0,1,2.36,1.6,6.69,6.69,0,0,1,1.2-1.6h.21Zm-.29-3.2a4.9,4.9,0,0,0,.13-1,1.66,1.66,0,0,0-1.8-1.85c-2,0-3.38,2.17-3.38,4.78,0,1.39.64,2.31,1.68,2.31,1.43,0,2.72-1.55,3.2-3.52Z"/>
        <path class="cls-1" d="M21.6,948.73l1.61-6.51a1.44,1.44,0,0,0,.05-.39c0-.59-.42-.9-1-1.22v-.11h2.35L24.1,943a4.48,4.48,0,0,1,3.67-2.71,1.61,1.61,0,0,1,1.68,1.82,3.38,3.38,0,0,1-.12.9l-1,4.05a2,2,0,0,0-.07.43c0,.37.24.57.7.57a3.36,3.36,0,0,0,1.09-.22v.17a3,3,0,0,1-1.81.85,1,1,0,0,1-1.1-1.17,3.2,3.2,0,0,1,.08-.65l1-4a3.27,3.27,0,0,0,.1-.72,1,1,0,0,0-1.12-1.17c-1.43,0-3.1,1.77-3.76,4.44l-.76,3.07Z"/>
        <path class="cls-1" d="M36.57,946.73a3.65,3.65,0,0,1-3.11,2.17c-1.63,0-2.7-1.19-2.7-3.07,0-2.86,2-5.5,4.59-5.5a2.32,2.32,0,0,1,2.4,1.69l1-4.3a1.39,1.39,0,0,0,0-.39c0-.6-.4-.9-1-1.23V936H40.3l-2.72,11.1a1.91,1.91,0,0,0-.07.43c0,.39.22.57.68.57a3.36,3.36,0,0,0,1.09-.22v.17a3,3,0,0,1-1.81.85,1,1,0,0,1-1.1-1.17A3.1,3.1,0,0,1,36.57,946.73Zm.68-2.74a4.32,4.32,0,0,0,.11-.9A1.88,1.88,0,0,0,35.44,941c-2.16,0-3.46,2.52-3.46,4.8,0,1.41.58,2.31,1.77,2.31,1.41,0,2.89-1.53,3.32-3.35Z"/>
        <path class="cls-1" d="M44.46,946.68a1.78,1.78,0,0,0-.07.47c0,.6.38.87,1.09.87a6.45,6.45,0,0,0,1.79-.32v.2a4.79,4.79,0,0,1-2.48,1,1.42,1.42,0,0,1-1.53-1.51,3,3,0,0,1,.08-.65l1.38-5.59H43.36l.12-.44c1.46-.34,2.12-1.31,2.79-3h.44L46,940.5h2.43l-.25.65H45.82Z"/>
        <path class="cls-1" d="M50.51,943a4.51,4.51,0,0,1,3.68-2.71,1.61,1.61,0,0,1,1.68,1.82,3.72,3.72,0,0,1-.12.9l-1,4.05a2,2,0,0,0-.07.43c0,.37.24.57.7.57a3.26,3.26,0,0,0,1.08-.22v.17a2.94,2.94,0,0,1-1.8.85,1,1,0,0,1-1.1-1.17,3.2,3.2,0,0,1,.08-.65l1-4a2.8,2.8,0,0,0,.11-.72,1,1,0,0,0-1.13-1.17c-1.42,0-3.09,1.77-3.75,4.44l-.77,3.07H48l2.73-11a1.49,1.49,0,0,0,0-.39c0-.6-.42-.9-1-1.23V936h2.44Z"/>
        <path class="cls-1" d="M57.2,945.67c0-2.58,2-5.34,4.64-5.34,1.51,0,2.41.7,2.41,1.86,0,1.77-2,2.53-5.78,2.73a6.16,6.16,0,0,0,0,.75c0,1.55.8,2.47,2.19,2.47a3.36,3.36,0,0,0,2.77-1.63l.29.15a3.68,3.68,0,0,1-3.43,2.24C58.3,948.9,57.2,947.64,57.2,945.67Zm1.37-1.32c2.48-.12,4.46-.41,4.46-2.28A1,1,0,0,0,61.84,941C60.1,941,59,942.58,58.57,944.35Z"/>
        <path class="cls-1" d="M68.54,941c-1.11,0-1.81.52-1.81,1.36,0,.61.46,1,1.7,1.73,1.5.85,2,1.46,2,2.36,0,1.47-1.37,2.45-3.09,2.45s-3-.93-3-2a.91.91,0,0,1,1-.94,1.27,1.27,0,0,1,.44.07,1,1,0,0,0-.24.68,1.64,1.64,0,0,0,1.84,1.55c1.09,0,2-.5,2-1.43,0-.6-.39-1.12-1.61-1.79s-2-1.31-2-2.34a2.6,2.6,0,0,1,2.86-2.37c1.64,0,2.66.79,2.66,1.77a.93.93,0,0,1-1,.9,1.79,1.79,0,0,1-.34,0,1.11,1.11,0,0,0,.22-.71C70,941.51,69.47,941,68.54,941Z"/>
        <path class="cls-1" d="M71.68,945.67c0-2.58,2-5.34,4.64-5.34,1.51,0,2.41.7,2.41,1.86,0,1.77-2,2.53-5.77,2.73a4.65,4.65,0,0,0-.06.75c0,1.55.8,2.47,2.2,2.47a3.39,3.39,0,0,0,2.77-1.63l.29.15a3.7,3.7,0,0,1-3.44,2.24A2.9,2.9,0,0,1,71.68,945.67Zm1.38-1.32c2.48-.12,4.45-.41,4.45-2.28A1,1,0,0,0,76.32,941C74.59,941,73.43,942.58,73.06,944.35Z"/>
        <path class="cls-1" d="M23.09,995c.84-1.6,2.16-2.71,3.52-2.71A1.51,1.51,0,0,1,28.24,994a4.59,4.59,0,0,1-.13,1l-1,4.05a2,2,0,0,0-.07.43c0,.37.24.57.69.57a3.26,3.26,0,0,0,1.09-.22v.17a3,3,0,0,1-1.8.85,1,1,0,0,1-1.1-1.17,3.2,3.2,0,0,1,.08-.65l1-4a3.28,3.28,0,0,0,.12-.87.9.9,0,0,0-1-1c-1.33,0-2.95,1.68-3.64,4.45l-.77,3.06h-1.1L22,995.11a3.75,3.75,0,0,0,.12-.87c0-.63-.27-1-1-1-1.32,0-2.94,1.68-3.64,4.45l-.76,3.06H15.58l1.62-6.51a2,2,0,0,0,.05-.39c0-.59-.43-.9-1-1.22v-.11h2.34L18.08,995c.83-1.6,2.16-2.71,3.52-2.71a1.55,1.55,0,0,1,1.61,1.76A3.59,3.59,0,0,1,23.09,995Z"/>
        <path class="cls-1" d="M30.93,999.1a2.55,2.55,0,0,0-.07.43c0,.39.26.57.7.57a3.31,3.31,0,0,0,1.09-.22v.17a3,3,0,0,1-1.8.85,1,1,0,0,1-1.07-1.15,3.07,3.07,0,0,1,.08-.67l1.21-4.86a2,2,0,0,0,.05-.39c0-.59-.43-.9-1-1.22v-.11h2.43Zm1.63-8.62a.92.92,0,1,1,.92-.92A.92.92,0,0,1,32.56,990.48Z"/>
        <path class="cls-1" d="M39.28,998.76a3.6,3.6,0,0,1-3.1,2.14c-1.63,0-2.7-1.19-2.7-3.07,0-2.86,2-5.5,4.59-5.5A2.37,2.37,0,0,1,40.54,994a6.55,6.55,0,0,1,1.22-1.64H42l-2.1,8.47c-.62,2.48-2,3.76-4.32,3.76-1.72,0-3-.85-3-2a1,1,0,0,1,1-1.09,1.31,1.31,0,0,1,.43.08,1.21,1.21,0,0,0-.31.84c0,.88.66,1.6,1.89,1.6,1.88,0,2.75-1.25,3.25-3.2ZM40,996a4.32,4.32,0,0,0,.11-.9A1.88,1.88,0,0,0,38.16,993c-2.16,0-3.45,2.52-3.45,4.8,0,1.41.57,2.31,1.76,2.31,1.41,0,2.89-1.53,3.32-3.35Z"/>
        <path class="cls-1" d="M44.75,995a4.51,4.51,0,0,1,3.67-2.71,1.62,1.62,0,0,1,1.69,1.82,3.72,3.72,0,0,1-.12.9l-1,4.05a2.74,2.74,0,0,0-.06.43c0,.37.23.57.69.57a3.31,3.31,0,0,0,1.09-.22v.17a3,3,0,0,1-1.8.85,1.05,1.05,0,0,1-1.11-1.17,3.26,3.26,0,0,1,.09-.65l1-4a2.76,2.76,0,0,0,.1-.72,1,1,0,0,0-1.12-1.17c-1.42,0-3.09,1.77-3.75,4.44l-.77,3.07H42.25l2.74-11a2.08,2.08,0,0,0,0-.39c0-.6-.42-.9-1-1.23V988H46.5Z"/>
        <path class="cls-1" d="M53,998.68a1.78,1.78,0,0,0-.07.47c0,.6.38.87,1.09.87a6.45,6.45,0,0,0,1.79-.32v.2a4.79,4.79,0,0,1-2.49,1,1.42,1.42,0,0,1-1.53-1.51,3.07,3.07,0,0,1,.09-.65l1.38-5.59H51.93l.11-.44c1.47-.34,2.13-1.31,2.79-3h.45l-.72,2.78H57l-.25.65H54.39Z"/>
        <path class="cls-1" d="M62.06,989.72a2.08,2.08,0,0,0,0-.39c0-.6-.43-.9-1-1.23V988h2.43L62,994.51a3.77,3.77,0,0,1,3.19-2.18c1.63,0,2.62,1.19,2.62,3.08,0,2.86-1.77,5.49-4.62,5.49a2.46,2.46,0,0,1-2.45-1.68,6.72,6.72,0,0,1-1.21,1.6h-.2Zm2.72,3.38c-1.41,0-2.89,1.53-3.32,3.35l-.18.8a4.32,4.32,0,0,0-.11.9,1.88,1.88,0,0,0,1.93,2.06c2.15,0,3.44-2.52,3.44-4.8C66.54,994,66,993.1,64.78,993.1Z"/>
        <path class="cls-1" d="M68.62,997.67c0-2.58,2-5.34,4.64-5.34,1.51,0,2.41.7,2.41,1.86,0,1.77-2,2.53-5.78,2.73a6.16,6.16,0,0,0,0,.75c0,1.55.8,2.47,2.2,2.47a3.39,3.39,0,0,0,2.77-1.63l.29.15a3.7,3.7,0,0,1-3.44,2.24C69.72,1000.9,68.62,999.64,68.62,997.67ZM70,996.35c2.48-.12,4.45-.41,4.45-2.28A1,1,0,0,0,73.26,993C71.53,993,70.37,994.58,70,996.35Z"/>
        <path class="cls-1" d="M10.35,1051.1a2.45,2.45,0,0,0-.06.43c0,.39.25.57.69.57a3.31,3.31,0,0,0,1.09-.22v.17a3,3,0,0,1-1.8.85,1,1,0,0,1-1.07-1.15,3.07,3.07,0,0,1,.08-.67l1.21-4.86a2,2,0,0,0,0-.39c0-.59-.42-.9-1-1.22v-.11H12Zm1.63-8.62a.92.92,0,1,1,.92-.92A.91.91,0,0,1,12,1042.48Z"/>
        <path class="cls-1" d="M12.82,1052.73l1.61-6.51a1.44,1.44,0,0,0,.05-.39c0-.59-.42-.9-1-1.22v-.11h2.34l-.54,2.54a4.48,4.48,0,0,1,3.67-2.71,1.61,1.61,0,0,1,1.68,1.82,3.38,3.38,0,0,1-.12.9l-1,4a2.91,2.91,0,0,0-.07.43c0,.37.24.57.7.57a3.36,3.36,0,0,0,1.09-.22v.17a3,3,0,0,1-1.81.85,1,1,0,0,1-1.1-1.17,3.2,3.2,0,0,1,.08-.65l1-4a2.76,2.76,0,0,0,.1-.72,1,1,0,0,0-1.12-1.17c-1.43,0-3.1,1.77-3.76,4.44l-.76,3.07Z"/>
        <path class="cls-1" d="M23.6,1050.68a1.45,1.45,0,0,0-.07.47c0,.6.37.87,1.09.87a6.45,6.45,0,0,0,1.78-.32v.2a4.79,4.79,0,0,1-2.48,1,1.42,1.42,0,0,1-1.53-1.51,3,3,0,0,1,.08-.65l1.38-5.59H22.49l.12-.44c1.46-.34,2.12-1.31,2.79-3h.44l-.72,2.78h2.43l-.25.65H25Z"/>
        <path class="cls-1" d="M27.25,1049.67c0-2.58,2-5.34,4.64-5.34,1.51,0,2.41.7,2.41,1.86,0,1.77-2,2.53-5.77,2.73a4.65,4.65,0,0,0-.06.75c0,1.55.8,2.47,2.2,2.47a3.39,3.39,0,0,0,2.77-1.63l.29.15a3.7,3.7,0,0,1-3.44,2.24A2.9,2.9,0,0,1,27.25,1049.67Zm1.38-1.32c2.48-.12,4.45-.41,4.45-2.28a1,1,0,0,0-1.19-1.07C30.16,1045,29,1046.58,28.63,1048.35Z"/>
        <path class="cls-1" d="M37.08,1047.36c.76-1.44,1.83-3,3.28-3a.91.91,0,0,1,1,.91,1.1,1.1,0,0,1-1.15,1.1.87.87,0,0,0,.14-.42c0-.29-.21-.53-.64-.53-1.1,0-2.7,2.19-3.17,4.08l-.82,3.26H34.66l1.62-6.51a2,2,0,0,0,0-.39c0-.59-.43-.9-1-1.22v-.11h2.43Z"/>
        <path class="cls-1" d="M41.22,1049.67c0-2.58,2-5.34,4.64-5.34,1.52,0,2.42.7,2.42,1.86,0,1.77-2,2.53-5.78,2.73a4.65,4.65,0,0,0,0,.75c0,1.55.8,2.47,2.19,2.47a3.36,3.36,0,0,0,2.77-1.63l.29.15a3.69,3.69,0,0,1-3.43,2.24A2.9,2.9,0,0,1,41.22,1049.67Zm1.38-1.32c2.48-.12,4.45-.41,4.45-2.28,0-.68-.45-1.07-1.19-1.07C44.13,1045,43,1046.58,42.6,1048.35Z"/>
        <path class="cls-1" d="M52.56,1045c-1.1,0-1.8.52-1.8,1.36,0,.61.46,1,1.7,1.73,1.5.85,2,1.46,2,2.36,0,1.47-1.37,2.45-3.09,2.45s-3-.93-3-2a.92.92,0,0,1,1-.94,1.27,1.27,0,0,1,.44.07,1,1,0,0,0-.24.68,1.64,1.64,0,0,0,1.84,1.55c1.09,0,2-.5,2-1.43,0-.6-.39-1.12-1.61-1.79s-2-1.31-2-2.34a2.59,2.59,0,0,1,2.85-2.37c1.65,0,2.67.79,2.67,1.77a.93.93,0,0,1-1,.9,1.79,1.79,0,0,1-.34,0,1.11,1.11,0,0,0,.22-.71C54.06,1045.51,53.5,1045,52.56,1045Z"/>
        <path class="cls-1" d="M57.31,1050.68a1.78,1.78,0,0,0-.07.47c0,.6.37.87,1.09.87a6.39,6.39,0,0,0,1.78-.32v.2a4.79,4.79,0,0,1-2.48,1,1.42,1.42,0,0,1-1.53-1.51,2.54,2.54,0,0,1,.09-.65l1.37-5.59H56.2l.12-.44c1.46-.34,2.13-1.31,2.79-3h.44l-.71,2.78h2.43l-.26.65H58.67Z"/>
        <path class="cls-1" d="M62.34,1051.1a1.82,1.82,0,0,0-.07.43c0,.39.26.57.7.57a3.26,3.26,0,0,0,1.08-.22v.17a2.94,2.94,0,0,1-1.8.85,1,1,0,0,1-1.07-1.15,3.08,3.08,0,0,1,.09-.67l1.2-4.86a1.48,1.48,0,0,0,.06-.39c0-.59-.43-.9-1-1.22v-.11H64Zm1.63-8.62a.92.92,0,1,1,.92-.92A.92.92,0,0,1,64,1042.48Z"/>
        <path class="cls-1" d="M64.8,1052.73l1.62-6.51a2,2,0,0,0,0-.39c0-.59-.43-.9-1-1.22v-.11h2.35L67.3,1047a4.49,4.49,0,0,1,3.67-2.71,1.62,1.62,0,0,1,1.69,1.82,3.85,3.85,0,0,1-.12.9l-1,4a2,2,0,0,0-.07.43c0,.37.24.57.69.57a3.26,3.26,0,0,0,1.09-.22v.17a3,3,0,0,1-1.8.85,1.05,1.05,0,0,1-1.11-1.17,3.26,3.26,0,0,1,.09-.65l1-4a2.8,2.8,0,0,0,.11-.72,1,1,0,0,0-1.13-1.17c-1.43,0-3.09,1.77-3.75,4.44l-.77,3.07Z"/>
        <path class="cls-1" d="M79.76,1050.76a3.58,3.58,0,0,1-3.09,2.14c-1.63,0-2.7-1.19-2.7-3.07,0-2.86,2-5.5,4.59-5.5A2.36,2.36,0,0,1,81,1046a7.07,7.07,0,0,1,1.22-1.64h.21l-2.11,8.47c-.61,2.48-2,3.76-4.32,3.76-1.71,0-3-.85-3-2a1,1,0,0,1,1-1.09,1.25,1.25,0,0,1,.42.08,1.25,1.25,0,0,0-.3.84A1.65,1.65,0,0,0,76,1056c1.89,0,2.76-1.25,3.25-3.2Zm.7-2.77a4.27,4.27,0,0,0,.1-.9,1.88,1.88,0,0,0-1.92-2.06c-2.16,0-3.45,2.52-3.45,4.8,0,1.41.58,2.31,1.77,2.31,1.41,0,2.89-1.53,3.31-3.35Z"/>
        <path class="cls-1" d="M4.25,1097c-1.11,0-1.8.52-1.8,1.36,0,.61.46,1,1.7,1.73,1.49.85,2,1.46,2,2.36,0,1.47-1.38,2.45-3.09,2.45s-3-.93-3-2a.92.92,0,0,1,1-.94,1.31,1.31,0,0,1,.44.07,1,1,0,0,0-.24.68A1.63,1.63,0,0,0,3,1104.26c1.08,0,2-.5,2-1.43,0-.6-.39-1.12-1.62-1.79s-2-1.31-2-2.34a2.6,2.6,0,0,1,2.86-2.37c1.65,0,2.67.79,2.67,1.77,0,.63-.53.9-1.06.9a2,2,0,0,1-.34,0,1.11,1.11,0,0,0,.23-.71C5.75,1097.51,5.18,1097,4.25,1097Z"/>
        <path class="cls-1" d="M7.62,1108.39H6.53L9,1098.22a1.48,1.48,0,0,0,.06-.39c0-.59-.43-.9-1-1.22v-.11h2.34l-.41,2a3.8,3.8,0,0,1,3.2-2.18c1.63,0,2.62,1.19,2.62,3.08,0,2.86-1.77,5.49-4.63,5.49a2.36,2.36,0,0,1-2.36-1.68Zm1.76-7.14a5.05,5.05,0,0,0-.1.9,1.88,1.88,0,0,0,1.92,2.06c2.16,0,3.45-2.52,3.45-4.8,0-1.41-.57-2.31-1.76-2.31-1.42,0-2.89,1.53-3.32,3.35Z"/>
        <path class="cls-1" d="M23.27,1103.1a2.51,2.51,0,0,0-.07.39c0,.41.23.61.68.61a3.26,3.26,0,0,0,1.09-.22v.17a2.94,2.94,0,0,1-1.8.85,1,1,0,0,1-1.09-1.17,3.31,3.31,0,0,1,.22-1,3.48,3.48,0,0,1-2.95,2.17c-1.59,0-2.64-1.2-2.64-3.07,0-2.86,2-5.5,4.47-5.5a2.21,2.21,0,0,1,2.36,1.6,6.72,6.72,0,0,1,1.21-1.6H25Zm-.29-3.2a4.35,4.35,0,0,0,.14-1,1.66,1.66,0,0,0-1.8-1.85c-2,0-3.39,2.17-3.39,4.78,0,1.39.65,2.31,1.69,2.31,1.42,0,2.72-1.55,3.19-3.52Z"/>
        <path class="cls-1" d="M30.38,1097c-2.11,0-3.35,2.39-3.35,4.6,0,1.55.78,2.52,2.16,2.52a3.25,3.25,0,0,0,2.67-1.63l.29.17a3.58,3.58,0,0,1-3.34,2.24c-1.88,0-3-1.32-3-3.3,0-2.72,2-5.27,4.58-5.27,1.43,0,2.41.68,2.41,1.71a.94.94,0,0,1-1,1,.83.83,0,0,1-.43-.1,1.13,1.13,0,0,0,.26-.85C31.64,1097.47,31.26,1097,30.38,1097Z"/>
        <path class="cls-1" d="M33.18,1101.67c0-2.58,2-5.34,4.64-5.34,1.52,0,2.42.7,2.42,1.86,0,1.77-2,2.53-5.78,2.73a4.65,4.65,0,0,0-.05.75c0,1.55.8,2.47,2.19,2.47a3.38,3.38,0,0,0,2.77-1.63l.29.15a3.69,3.69,0,0,1-3.43,2.24A2.9,2.9,0,0,1,33.18,1101.67Zm1.38-1.32c2.48-.12,4.45-.41,4.45-2.28a1,1,0,0,0-1.19-1.07C36.09,1097,34.93,1098.58,34.56,1100.35Z"/>
        <path class="cls-1" d="M44.52,1097c-1.1,0-1.8.52-1.8,1.36,0,.61.46,1,1.7,1.73,1.5.85,2,1.46,2,2.36,0,1.47-1.37,2.45-3.09,2.45s-3-.93-3-2a.92.92,0,0,1,1-.94,1.31,1.31,0,0,1,.44.07,1,1,0,0,0-.24.68,1.63,1.63,0,0,0,1.84,1.55c1.09,0,2-.5,2-1.43,0-.6-.39-1.12-1.61-1.79s-2-1.31-2-2.34a2.59,2.59,0,0,1,2.85-2.37c1.65,0,2.67.79,2.67,1.77a.93.93,0,0,1-1,.9,1.79,1.79,0,0,1-.34,0,1.11,1.11,0,0,0,.22-.71C46,1097.51,45.46,1097,44.52,1097Z"/>
        <path class="cls-1" d="M57.8,1099c.83-1.6,2.16-2.71,3.52-2.71A1.51,1.51,0,0,1,63,1098a4.09,4.09,0,0,1-.14,1l-1,4a2.91,2.91,0,0,0-.07.43c0,.37.24.57.7.57a3.31,3.31,0,0,0,1.09-.22v.17a3,3,0,0,1-1.8.85,1,1,0,0,1-1.11-1.17,3.26,3.26,0,0,1,.09-.65l1-4a3.75,3.75,0,0,0,.12-.87c0-.63-.27-1-1-1-1.33,0-2.94,1.68-3.64,4.45l-.76,3.06H55.28l1.42-5.62a3.69,3.69,0,0,0,.11-.87.9.9,0,0,0-1-1c-1.33,0-2.94,1.68-3.64,4.45l-.76,3.06H50.29l1.61-6.51a1.44,1.44,0,0,0,.05-.39c0-.59-.42-.9-1-1.22v-.11h2.35l-.54,2.54c.83-1.6,2.15-2.71,3.51-2.71a1.55,1.55,0,0,1,1.62,1.76A4.05,4.05,0,0,1,57.8,1099Z"/>
        <path class="cls-1" d="M65.64,1103.1a1.82,1.82,0,0,0-.07.43c0,.39.25.57.7.57a3.26,3.26,0,0,0,1.08-.22v.17a2.94,2.94,0,0,1-1.8.85,1,1,0,0,1-1.07-1.15,3.08,3.08,0,0,1,.09-.67l1.2-4.86a1.44,1.44,0,0,0,0-.39c0-.59-.42-.9-1-1.22v-.11h2.43Zm1.63-8.62a.92.92,0,1,1,.92-.92A.92.92,0,0,1,67.27,1094.48Z"/>
        <path class="cls-1" d="M74,1102.76a3.58,3.58,0,0,1-3.09,2.14c-1.63,0-2.7-1.19-2.7-3.07,0-2.86,2-5.5,4.59-5.5a2.36,2.36,0,0,1,2.46,1.64,7.07,7.07,0,0,1,1.22-1.64h.21l-2.11,8.47c-.61,2.48-2,3.76-4.32,3.76-1.71,0-3-.85-3-2a1,1,0,0,1,1-1.09,1.2,1.2,0,0,1,.42.08,1.25,1.25,0,0,0-.3.84,1.65,1.65,0,0,0,1.88,1.6c1.89,0,2.76-1.25,3.25-3.2Zm.7-2.77a4.27,4.27,0,0,0,.1-.9,1.88,1.88,0,0,0-1.92-2.06c-2.16,0-3.45,2.52-3.45,4.8,0,1.41.58,2.31,1.77,2.31,1.41,0,2.89-1.53,3.31-3.35Z"/>
        <path class="cls-1" d="M79.46,1099a4.49,4.49,0,0,1,3.67-2.71,1.61,1.61,0,0,1,1.68,1.82,3.28,3.28,0,0,1-.12.9l-1,4a2.91,2.91,0,0,0-.07.43c0,.37.24.57.7.57a3.36,3.36,0,0,0,1.09-.22v.17a3,3,0,0,1-1.8.85,1,1,0,0,1-1.11-1.17,3.26,3.26,0,0,1,.09-.65l1-4a2.76,2.76,0,0,0,.1-.72,1,1,0,0,0-1.12-1.17c-1.43,0-3.1,1.77-3.76,4.44l-.76,3.07H77l2.74-11a2.08,2.08,0,0,0,0-.39c0-.6-.43-.9-1-1.23v-.1h2.43Z"/>
        <path class="cls-1" d="M87.74,1102.68a1.78,1.78,0,0,0-.07.47c0,.6.37.87,1.09.87a6.45,6.45,0,0,0,1.78-.32v.2a4.79,4.79,0,0,1-2.48,1,1.42,1.42,0,0,1-1.53-1.51,2.54,2.54,0,0,1,.09-.65l1.37-5.59H86.63l.12-.44c1.46-.34,2.13-1.31,2.79-3H90l-.71,2.78H91.7l-.26.65H89.1Z"/>
        <path class="cls-1" d="M10.21,1145.72a2.08,2.08,0,0,0,0-.39c0-.6-.43-.9-1-1.23v-.1h2.43l-1.61,6.51a3.77,3.77,0,0,1,3.19-2.18c1.63,0,2.62,1.19,2.62,3.08,0,2.86-1.77,5.49-4.62,5.49a2.46,2.46,0,0,1-2.45-1.68,6.72,6.72,0,0,1-1.21,1.6h-.2Zm2.72,3.38c-1.41,0-2.89,1.53-3.32,3.35l-.18.8a4.32,4.32,0,0,0-.11.9,1.88,1.88,0,0,0,1.93,2.06c2.15,0,3.45-2.52,3.45-4.8C14.7,1150,14.12,1149.1,12.93,1149.1Z"/>
        <path class="cls-1" d="M16.77,1153.67c0-2.58,2-5.34,4.64-5.34,1.51,0,2.41.7,2.41,1.86,0,1.77-2,2.53-5.78,2.73a6.16,6.16,0,0,0-.05.75c0,1.55.8,2.47,2.2,2.47a3.39,3.39,0,0,0,2.77-1.63l.29.15a3.7,3.7,0,0,1-3.44,2.24A2.9,2.9,0,0,1,16.77,1153.67Zm1.38-1.32c2.48-.12,4.45-.41,4.45-2.28a1,1,0,0,0-1.19-1.07C19.68,1149,18.52,1150.58,18.15,1152.35Z"/>
        <path class="cls-1" d="M28.38,1155.1a2.55,2.55,0,0,0-.07.43c0,.39.26.57.7.57a3.31,3.31,0,0,0,1.09-.22v.17a3,3,0,0,1-1.8.85,1,1,0,0,1-1.07-1.15,3.07,3.07,0,0,1,.08-.67l1.21-4.86a2,2,0,0,0,.05-.39c0-.59-.43-.9-1-1.22v-.11H30Zm1.63-8.62a.92.92,0,1,1,.92-.92A.91.91,0,0,1,30,1146.48Z"/>
        <path class="cls-1" d="M30.85,1156.73l1.61-6.51a1.44,1.44,0,0,0,0-.39c0-.59-.42-.9-1-1.22v-.11h2.35l-.54,2.54a4.48,4.48,0,0,1,3.67-2.71,1.61,1.61,0,0,1,1.68,1.82,3.38,3.38,0,0,1-.12.9l-1,4a2,2,0,0,0-.07.43c0,.37.24.57.7.57a3.26,3.26,0,0,0,1.08-.22v.17a2.94,2.94,0,0,1-1.8.85,1,1,0,0,1-1.1-1.17,3.2,3.2,0,0,1,.08-.65l1-4a3.27,3.27,0,0,0,.1-.72,1,1,0,0,0-1.12-1.17c-1.43,0-3.1,1.77-3.76,4.44l-.76,3.07Z"/>
        <path class="cls-1" d="M41.62,1154.68a1.72,1.72,0,0,0-.06.47c0,.6.37.87,1.08.87a6.45,6.45,0,0,0,1.79-.32v.2a4.79,4.79,0,0,1-2.48,1,1.42,1.42,0,0,1-1.53-1.51,3,3,0,0,1,.08-.65l1.38-5.59H40.52l.12-.44c1.46-.34,2.12-1.31,2.79-3h.44l-.72,2.78h2.43l-.25.65H43Z"/>
        <path class="cls-1" d="M45.28,1153.67c0-2.58,2-5.34,4.64-5.34,1.51,0,2.41.7,2.41,1.86,0,1.77-2,2.53-5.78,2.73a6.16,6.16,0,0,0,0,.75c0,1.55.8,2.47,2.2,2.47a3.39,3.39,0,0,0,2.77-1.63l.29.15a3.7,3.7,0,0,1-3.44,2.24C46.38,1156.9,45.28,1155.64,45.28,1153.67Zm1.38-1.32c2.48-.12,4.45-.41,4.45-2.28a1,1,0,0,0-1.19-1.07C48.19,1149,47,1150.58,46.66,1152.35Z"/>
        <path class="cls-1" d="M55.11,1151.36c.76-1.44,1.83-3,3.28-3a.92.92,0,0,1,1,.91,1.1,1.1,0,0,1-1.15,1.1.86.86,0,0,0,.13-.42c0-.29-.2-.53-.63-.53-1.1,0-2.7,2.19-3.17,4.08l-.82,3.26H52.69l1.62-6.51a2,2,0,0,0,0-.39c0-.59-.43-.9-1-1.22v-.11h2.43Z"/>
        <path class="cls-1" d="M59.25,1153.67c0-2.58,2-5.34,4.64-5.34,1.52,0,2.42.7,2.42,1.86,0,1.77-2,2.53-5.78,2.73a4.65,4.65,0,0,0-.05.75c0,1.55.8,2.47,2.19,2.47a3.38,3.38,0,0,0,2.77-1.63l.29.15a3.7,3.7,0,0,1-3.44,2.24A2.9,2.9,0,0,1,59.25,1153.67Zm1.38-1.32c2.48-.12,4.45-.41,4.45-2.28a1,1,0,0,0-1.19-1.07C62.16,1149,61,1150.58,60.63,1152.35Z"/>
        <path class="cls-1" d="M70.59,1149c-1.1,0-1.8.52-1.8,1.36,0,.61.46,1,1.7,1.73,1.5.85,2,1.46,2,2.36,0,1.47-1.37,2.45-3.09,2.45s-3-.93-3-2a.92.92,0,0,1,1-.94,1.31,1.31,0,0,1,.44.07,1,1,0,0,0-.24.68,1.64,1.64,0,0,0,1.84,1.55c1.09,0,2-.5,2-1.43,0-.6-.39-1.12-1.61-1.79s-2-1.31-2-2.34a2.59,2.59,0,0,1,2.85-2.37c1.65,0,2.67.79,2.67,1.77a.93.93,0,0,1-1.05.9,1.79,1.79,0,0,1-.34,0,1.11,1.11,0,0,0,.22-.71C72.09,1149.51,71.53,1149,70.59,1149Z"/>
        <path class="cls-1" d="M75.34,1154.68a1.78,1.78,0,0,0-.07.47c0,.6.37.87,1.09.87a6.45,6.45,0,0,0,1.78-.32v.2a4.79,4.79,0,0,1-2.48,1,1.42,1.42,0,0,1-1.53-1.51,3,3,0,0,1,.08-.65l1.38-5.59H74.23l.12-.44c1.46-.34,2.12-1.31,2.79-3h.44l-.71,2.78H79.3l-.26.65H76.7Z"/>
        <path class="cls-1" d="M79.33,1151.77h4.23l-.17.73H79.16Z"/>
        <path class="cls-1" d="M14.71,1207.1a1.82,1.82,0,0,0-.07.43c0,.39.25.57.69.57a3.26,3.26,0,0,0,1.09-.22v.17a3,3,0,0,1-1.8.85,1,1,0,0,1-1.07-1.15,3.07,3.07,0,0,1,.08-.67l1.21-4.86a1.44,1.44,0,0,0,.05-.39c0-.59-.42-.9-1-1.22v-.11h2.43Zm1.63-8.62a.92.92,0,1,1,0-1.83.92.92,0,0,1,0,1.83Z"/>
        <path class="cls-1" d="M17.17,1208.73l1.62-6.51a2,2,0,0,0,.05-.39c0-.59-.43-.9-1-1.22v-.11h2.34l-.54,2.54a4.49,4.49,0,0,1,3.67-2.71,1.61,1.61,0,0,1,1.68,1.82,3.38,3.38,0,0,1-.12.9l-1,4a2.91,2.91,0,0,0-.07.43c0,.37.24.57.7.57a3.31,3.31,0,0,0,1.09-.22v.17a3,3,0,0,1-1.8.85,1,1,0,0,1-1.11-1.17,3.26,3.26,0,0,1,.09-.65l1-4a2.76,2.76,0,0,0,.1-.72,1,1,0,0,0-1.12-1.17c-1.43,0-3.09,1.77-3.76,4.44l-.76,3.07Z"/>
        <path class="cls-1" d="M32.13,1206.76A3.59,3.59,0,0,1,29,1208.9c-1.64,0-2.71-1.19-2.71-3.07,0-2.86,2-5.5,4.59-5.5a2.37,2.37,0,0,1,2.47,1.64,6.55,6.55,0,0,1,1.22-1.64h.2l-2.1,8.47c-.61,2.48-2,3.76-4.32,3.76-1.72,0-3-.85-3-2a1,1,0,0,1,1-1.09,1.31,1.31,0,0,1,.43.08,1.25,1.25,0,0,0-.31.84c0,.88.67,1.6,1.89,1.6,1.89,0,2.75-1.25,3.25-3.2Zm.7-2.77a5.05,5.05,0,0,0,.1-.9A1.88,1.88,0,0,0,31,1201c-2.16,0-3.45,2.52-3.45,4.8,0,1.41.57,2.31,1.76,2.31,1.41,0,2.89-1.53,3.32-3.35Z"/>
        <path class="cls-1" d="M35.89,1208.88a1,1,0,1,1,1-1A1,1,0,0,1,35.89,1208.88Z"/>
        <path class="cls-1" d="M52.94,1196.83a5,5,0,0,0,1.05-.1l-.19,3h-.13c-.6-1.56-.85-2.33-2.4-2.33H49.4L47,1206.86a2.65,2.65,0,0,0-.12.73c0,.53.29.72.92,1v.12H44.22v-.12c1.07-.42,1.39-.63,1.68-1.75l2.36-9.45H46.6c-1.55,0-2.06.48-3.76,2.33h-.17l1.33-3a4,4,0,0,0,1,.1Z"/>
        <path class="cls-1" d="M55.59,1203a4.49,4.49,0,0,1,3.67-2.71,1.62,1.62,0,0,1,1.69,1.82,3.72,3.72,0,0,1-.12.9l-1,4a2.91,2.91,0,0,0-.07.43c0,.37.24.57.7.57a3.31,3.31,0,0,0,1.09-.22v.17a3,3,0,0,1-1.8.85,1,1,0,0,1-1.11-1.17,3.26,3.26,0,0,1,.09-.65l1-4a2.76,2.76,0,0,0,.1-.72,1,1,0,0,0-1.12-1.17c-1.43,0-3.09,1.77-3.76,4.44l-.76,3.07H53.09l2.74-11a2.08,2.08,0,0,0,.05-.39c0-.6-.43-.9-1-1.23v-.1h2.43Z"/>
        <path class="cls-1" d="M62.27,1205.67c0-2.58,2-5.34,4.64-5.34,1.52,0,2.42.7,2.42,1.86,0,1.77-2,2.53-5.78,2.73a4.65,4.65,0,0,0,0,.75c0,1.55.79,2.47,2.19,2.47a3.39,3.39,0,0,0,2.77-1.63l.29.15a3.7,3.7,0,0,1-3.44,2.24A2.9,2.9,0,0,1,62.27,1205.67Zm1.38-1.32c2.48-.12,4.45-.41,4.45-2.28a1,1,0,0,0-1.19-1.07C65.18,1201,64,1202.58,63.65,1204.35Z"/>
        <path class="cls-1" d="M75.51,1206.2a4.47,4.47,0,0,1-3.67,2.7,1.61,1.61,0,0,1-1.68-1.82,3.38,3.38,0,0,1,.12-.9l1-4a1.44,1.44,0,0,0,0-.39c0-.59-.42-.9-1-1.22v-.11h2.44l-1.41,5.63a3.07,3.07,0,0,0-.1.77c0,.71.34,1.17,1.09,1.17,1.43,0,3.11-1.75,3.79-4.51l.76-3.06H78l-1.87,7.5c-.68,2.74-2.07,4.56-4.6,4.56-1.64,0-2.74-.67-2.74-1.79a1,1,0,0,1,1.09-1,1.12,1.12,0,0,1,.4.07,1.18,1.18,0,0,0-.3.83c0,.81.53,1.34,1.55,1.34,2,0,2.95-1.65,3.55-4Z"/>
        <path class="cls-1" d="M32.82,1255c.83-1.6,2.16-2.71,3.52-2.71A1.51,1.51,0,0,1,38,1254a4.09,4.09,0,0,1-.14,1l-1,4a2,2,0,0,0-.07.43c0,.37.24.57.7.57a3.26,3.26,0,0,0,1.08-.22v.17a2.94,2.94,0,0,1-1.8.85,1,1,0,0,1-1.1-1.17,3.2,3.2,0,0,1,.08-.65l1-4a3.75,3.75,0,0,0,.12-.87.9.9,0,0,0-1-1c-1.33,0-2.94,1.68-3.64,4.45l-.76,3.06H30.3l1.41-5.62a3.28,3.28,0,0,0,.12-.87c0-.63-.27-1-1-1-1.32,0-2.94,1.68-3.63,4.45l-.77,3.06H25.3l1.62-6.51a2,2,0,0,0,0-.39c0-.59-.43-.9-1-1.22v-.11h2.35L27.8,1255c.84-1.6,2.16-2.71,3.52-2.71a1.55,1.55,0,0,1,1.62,1.76A4.05,4.05,0,0,1,32.82,1255Z"/>
        <path class="cls-1" d="M40.65,1259.1a2.45,2.45,0,0,0-.06.43c0,.39.25.57.69.57a3.26,3.26,0,0,0,1.09-.22v.17a2.94,2.94,0,0,1-1.8.85,1,1,0,0,1-1.07-1.15,3.07,3.07,0,0,1,.08-.67l1.21-4.86a2,2,0,0,0,.05-.39c0-.59-.42-.9-1-1.22v-.11H42.3Zm1.64-8.62a.92.92,0,1,1,.92-.92A.92.92,0,0,1,42.29,1250.48Z"/>
        <path class="cls-1" d="M49,1258.76a3.58,3.58,0,0,1-3.09,2.14c-1.63,0-2.7-1.19-2.7-3.07,0-2.86,2-5.5,4.58-5.5a2.37,2.37,0,0,1,2.47,1.64,6.55,6.55,0,0,1,1.22-1.64h.21l-2.11,8.47c-.61,2.48-2,3.76-4.32,3.76-1.72,0-3-.85-3-2a1,1,0,0,1,1-1.09,1.3,1.3,0,0,1,.42.08,1.25,1.25,0,0,0-.3.84,1.65,1.65,0,0,0,1.88,1.6c1.89,0,2.76-1.25,3.25-3.2Zm.7-2.77a4.27,4.27,0,0,0,.1-.9,1.88,1.88,0,0,0-1.92-2.06c-2.16,0-3.45,2.52-3.45,4.8,0,1.41.58,2.31,1.77,2.31,1.41,0,2.89-1.53,3.31-3.35Z"/>
        <path class="cls-1" d="M54.48,1255a4.48,4.48,0,0,1,3.67-2.71,1.61,1.61,0,0,1,1.68,1.82,3.28,3.28,0,0,1-.12.9l-1,4a2,2,0,0,0-.07.43c0,.37.24.57.7.57a3.36,3.36,0,0,0,1.09-.22v.17a3,3,0,0,1-1.81.85,1,1,0,0,1-1.1-1.17,3.2,3.2,0,0,1,.08-.65l1-4a3.27,3.27,0,0,0,.1-.72,1,1,0,0,0-1.12-1.17c-1.43,0-3.1,1.77-3.76,4.44l-.77,3.07H52l2.73-11a1.55,1.55,0,0,0,.06-.39c0-.6-.43-.9-1-1.23v-.1h2.44Z"/>
        <path class="cls-1" d="M62.76,1258.68a1.45,1.45,0,0,0-.07.47c0,.6.37.87,1.09.87a6.45,6.45,0,0,0,1.78-.32v.2a4.79,4.79,0,0,1-2.48,1,1.42,1.42,0,0,1-1.53-1.51,3,3,0,0,1,.08-.65l1.38-5.59H61.65l.12-.44c1.46-.34,2.12-1.31,2.79-3H65l-.71,2.78h2.42l-.25.65H64.12Z"/>
        <path class="cls-1" d="M17.13,1311.1a1.82,1.82,0,0,0-.07.43c0,.39.25.57.7.57a3.26,3.26,0,0,0,1.08-.22v.17a2.94,2.94,0,0,1-1.8.85,1,1,0,0,1-1.07-1.15,3.08,3.08,0,0,1,.09-.67l1.2-4.86a1.44,1.44,0,0,0,0-.39c0-.59-.42-.9-1-1.22v-.11h2.43Zm1.63-8.62a.92.92,0,1,1,.92-.92A.92.92,0,0,1,18.76,1302.48Z"/>
        <path class="cls-1" d="M20.24,1314.09c-.41,1.58-.92,2.47-2.18,2.47H18a8.92,8.92,0,0,0,1.51-3.62l1.94-7.79H20.17l.12-.44,1.29-.31.41-1.61c.47-1.85,1.65-2.84,3.14-2.84,1.21,0,1.84.53,1.84,1.22a1.06,1.06,0,0,1-1.14,1.06,2,2,0,0,1-.36,0,1.62,1.62,0,0,0,.38-.93c0-.48-.26-.77-.89-.77-1,0-1.58.84-1.82,2l-.42,2H25l-.27.65H22.53Z"/>
        <path class="cls-1" d="M30.29,1312.9a3.17,3.17,0,0,1-3.25-3.48c0-2.52,1.75-5.09,4.4-5.09a3.18,3.18,0,0,1,3.25,3.49C34.69,1310.33,32.94,1312.9,30.29,1312.9Zm0-.69c1.78,0,3.17-2.21,3.17-4.58,0-1.59-.57-2.6-2-2.6-1.78,0-3.18,2.21-3.18,4.57C28.26,1311.2,28.84,1312.21,30.29,1312.21Z"/>
        <path class="cls-1" d="M35.37,1312.73l1.61-6.51a1.48,1.48,0,0,0,.06-.39c0-.59-.43-.9-1-1.22v-.11h2.34l-.54,2.54a4.48,4.48,0,0,1,3.67-2.71,1.61,1.61,0,0,1,1.68,1.82,3.38,3.38,0,0,1-.12.9l-1,4a2.91,2.91,0,0,0-.07.43c0,.37.24.57.7.57a3.31,3.31,0,0,0,1.09-.22v.17a3,3,0,0,1-1.8.85,1,1,0,0,1-1.11-1.17,3.2,3.2,0,0,1,.08-.65l1-4a2.76,2.76,0,0,0,.1-.72,1,1,0,0,0-1.12-1.17c-1.43,0-3.1,1.77-3.76,4.44l-.76,3.07Z"/>
        <path class="cls-1" d="M44.55,1309.67c0-2.58,2-5.34,4.64-5.34,1.51,0,2.41.7,2.41,1.86,0,1.77-2,2.53-5.78,2.73a6.16,6.16,0,0,0,0,.75c0,1.55.8,2.47,2.19,2.47a3.36,3.36,0,0,0,2.77-1.63l.29.15a3.68,3.68,0,0,1-3.43,2.24C45.65,1312.9,44.55,1311.64,44.55,1309.67Zm1.37-1.32c2.49-.12,4.46-.41,4.46-2.28a1,1,0,0,0-1.19-1.07C47.46,1305,46.3,1306.58,45.92,1308.35Z"/>
        <path class="cls-1" d="M55.33,1314.09c-.41,1.58-.92,2.47-2.18,2.47h-.1a8.92,8.92,0,0,0,1.51-3.62l1.94-7.79H55.26l.12-.44,1.29-.31.41-1.61c.47-1.85,1.65-2.84,3.14-2.84,1.21,0,1.84.53,1.84,1.22a1.06,1.06,0,0,1-1.14,1.06,1.79,1.79,0,0,1-.36,0,1.62,1.62,0,0,0,.38-.93c0-.48-.26-.77-.89-.77-1,0-1.58.84-1.82,2l-.42,2h2.31l-.27.65H57.62Z"/>
        <path class="cls-1" d="M59.39,1309.67c0-2.58,2-5.34,4.64-5.34,1.51,0,2.41.7,2.41,1.86,0,1.77-2,2.53-5.78,2.73a6.16,6.16,0,0,0,0,.75c0,1.55.8,2.47,2.2,2.47a3.39,3.39,0,0,0,2.77-1.63l.29.15a3.7,3.7,0,0,1-3.44,2.24C60.49,1312.9,59.39,1311.64,59.39,1309.67Zm1.38-1.32c2.48-.12,4.45-.41,4.45-2.28A1,1,0,0,0,64,1305C62.3,1305,61.14,1306.58,60.77,1308.35Z"/>
        <path class="cls-1" d="M68.25,1311.1a1.82,1.82,0,0,0-.07.43c0,.39.24.57.7.57a3.26,3.26,0,0,0,1.08-.22v.17a2.94,2.94,0,0,1-1.8.85,1,1,0,0,1-1.1-1.15,3.2,3.2,0,0,1,.1-.67l2.29-9.36a1.55,1.55,0,0,0,.06-.39c0-.6-.43-.9-1-1.23v-.1H71Z"/>
        <path class="cls-1" d="M72.41,1310.68a1.78,1.78,0,0,0-.07.47c0,.6.38.87,1.09.87a6.45,6.45,0,0,0,1.79-.32v.2a4.79,4.79,0,0,1-2.49,1,1.42,1.42,0,0,1-1.52-1.51,3,3,0,0,1,.08-.65l1.38-5.59H71.31l.12-.44c1.46-.34,2.12-1.31,2.78-3h.45l-.72,2.78h2.43l-.25.65H73.77Z"/>
        <path class="cls-1" d="M16.62,1362.68a1.45,1.45,0,0,0-.07.47c0,.6.37.87,1.09.87a6.39,6.39,0,0,0,1.78-.32v.2a4.76,4.76,0,0,1-2.48,1,1.42,1.42,0,0,1-1.53-1.51,3,3,0,0,1,.08-.65l1.38-5.59H15.51l.12-.44c1.46-.34,2.13-1.31,2.79-3h.44l-.71,2.78h2.43l-.26.65H18Z"/>
        <path class="cls-1" d="M22.67,1359a4.48,4.48,0,0,1,3.67-2.71,1.61,1.61,0,0,1,1.68,1.82,3.28,3.28,0,0,1-.12.9l-1,4a2.91,2.91,0,0,0-.07.43c0,.37.24.57.7.57a3.31,3.31,0,0,0,1.09-.22v.17a3,3,0,0,1-1.8.85,1,1,0,0,1-1.11-1.17,3.2,3.2,0,0,1,.08-.65l1-4a2.76,2.76,0,0,0,.1-.72,1,1,0,0,0-1.12-1.17c-1.43,0-3.09,1.77-3.76,4.44l-.76,3.07H20.17l2.74-11a2.08,2.08,0,0,0,.05-.39c0-.6-.43-.9-1-1.23v-.1h2.43Z"/>
        <path class="cls-1" d="M35.89,1363.1a2.51,2.51,0,0,0-.07.39c0,.41.23.61.68.61a3.26,3.26,0,0,0,1.09-.22v.17a2.94,2.94,0,0,1-1.8.85,1,1,0,0,1-1.09-1.17,3.31,3.31,0,0,1,.22-1,3.48,3.48,0,0,1-3,2.17c-1.59,0-2.64-1.2-2.64-3.07,0-2.86,2-5.5,4.47-5.5a2.2,2.2,0,0,1,2.36,1.6,7,7,0,0,1,1.21-1.6h.21Zm-.29-3.2a4.35,4.35,0,0,0,.14-1,1.66,1.66,0,0,0-1.8-1.85c-2,0-3.39,2.17-3.39,4.78,0,1.39.65,2.31,1.69,2.31,1.43,0,2.72-1.55,3.19-3.52Z"/>
        <path class="cls-1" d="M40,1362.68a1.45,1.45,0,0,0-.07.47c0,.6.37.87,1.08.87a6.45,6.45,0,0,0,1.79-.32v.2a4.79,4.79,0,0,1-2.48,1,1.42,1.42,0,0,1-1.53-1.51,3,3,0,0,1,.08-.65l1.38-5.59H38.92l.12-.44c1.46-.34,2.12-1.31,2.79-3h.44l-.72,2.78H44l-.25.65H41.38Z"/>
        <path class="cls-1" d="M52.52,1358.22a1.81,1.81,0,0,0,0-.39c0-.59-.41-.9-1-1.22v-.11H54l-1.19,4.78a5.45,5.45,0,0,0-.19,1.34c0,1,.41,1.52,1.26,1.52,2.08,0,3.49-3.15,3.49-5.44,0-.83-.33-1.31-1.09-1.31a1.76,1.76,0,0,0-.82.19,1.36,1.36,0,0,1,1.31-1.25c1,0,1.5.87,1.5,2,0,3-2,6.61-4.71,6.61-1.24,0-1.94-.83-1.94-2.19a3.24,3.24,0,0,1-2.9,2.19c-1.37,0-2-.86-2-2.17a5.6,5.6,0,0,1,.19-1.33l.78-3.18a2,2,0,0,0,0-.39c0-.59-.43-.9-1-1.22v-.11h2.43L48,1361.38a5.66,5.66,0,0,0-.19,1.3c0,1,.44,1.46,1.29,1.46,1.4,0,2.36-1.6,2.74-3.13Z"/>
        <path class="cls-1" d="M65.56,1363.1a1.7,1.7,0,0,0-.07.39c0,.41.22.61.68.61a3.31,3.31,0,0,0,1.09-.22v.17a3,3,0,0,1-1.8.85,1,1,0,0,1-1.09-1.17,3,3,0,0,1,.22-1,3.48,3.48,0,0,1-3,2.17c-1.58,0-2.63-1.2-2.63-3.07,0-2.86,2-5.5,4.47-5.5a2.22,2.22,0,0,1,2.36,1.6,6.47,6.47,0,0,1,1.21-1.6h.2Zm-.29-3.2a4.9,4.9,0,0,0,.13-1,1.66,1.66,0,0,0-1.8-1.85c-2,0-3.38,2.17-3.38,4.78,0,1.39.65,2.31,1.68,2.31,1.43,0,2.72-1.55,3.2-3.52Z"/>
        <path class="cls-1" d="M73.82,1362.2a4.48,4.48,0,0,1-3.67,2.7,1.61,1.61,0,0,1-1.69-1.82,3.85,3.85,0,0,1,.12-.9l1-4a1.44,1.44,0,0,0,.05-.39c0-.59-.42-.9-1-1.22v-.11H71.1l-1.41,5.63a3.07,3.07,0,0,0-.1.77c0,.71.34,1.17,1.09,1.17,1.42,0,3.11-1.75,3.79-4.51l.76-3.06h1.09l-1.87,7.5c-.68,2.74-2.07,4.56-4.61,4.56-1.63,0-2.73-.67-2.73-1.79a1,1,0,0,1,1.08-1,1.18,1.18,0,0,1,.41.07,1.18,1.18,0,0,0-.31.83c0,.81.53,1.34,1.55,1.34,2,0,3-1.65,3.55-4Z"/>
        <path class="cls-1" d="M10.44,1415.1a1.7,1.7,0,0,0-.07.39c0,.41.22.61.68.61a3.31,3.31,0,0,0,1.09-.22v.17a3,3,0,0,1-1.81.85,1,1,0,0,1-1.08-1.17,3,3,0,0,1,.22-1,3.49,3.49,0,0,1-3,2.17c-1.58,0-2.63-1.2-2.63-3.07,0-2.86,2-5.49,4.47-5.49a2.21,2.21,0,0,1,2.36,1.59,6.23,6.23,0,0,1,1.21-1.59h.2Zm-.29-3.19a5.08,5.08,0,0,0,.13-1,1.66,1.66,0,0,0-1.8-1.85c-2,0-3.38,2.17-3.38,4.78,0,1.39.65,2.31,1.68,2.31,1.43,0,2.72-1.55,3.2-3.52Z"/>
        <path class="cls-1" d="M15.62,1405.72a1.49,1.49,0,0,0,.05-.39c0-.6-.42-.9-1-1.23v-.1h2.42l-1.61,6.51a3.79,3.79,0,0,1,3.2-2.17c1.63,0,2.61,1.19,2.61,3.07,0,2.86-1.76,5.49-4.62,5.49a2.47,2.47,0,0,1-2.45-1.68,6.47,6.47,0,0,1-1.21,1.6h-.2Zm2.72,3.38c-1.41,0-2.89,1.53-3.31,3.35l-.19.8a4.27,4.27,0,0,0-.1.9,1.88,1.88,0,0,0,1.92,2.06c2.16,0,3.45-2.52,3.45-4.8C20.11,1410,19.53,1409.1,18.34,1409.1Z"/>
        <path class="cls-1" d="M25.45,1416.9a3.17,3.17,0,0,1-3.25-3.48c0-2.52,1.75-5.08,4.4-5.08a3.17,3.17,0,0,1,3.25,3.48C29.85,1414.34,28.1,1416.9,25.45,1416.9Zm0-.69c1.78,0,3.17-2.21,3.17-4.58,0-1.59-.57-2.6-2-2.6-1.78,0-3.18,2.21-3.18,4.57C23.42,1415.2,24,1416.21,25.45,1416.21Z"/>
        <path class="cls-1" d="M36.36,1414.2a4.48,4.48,0,0,1-3.67,2.7,1.61,1.61,0,0,1-1.68-1.82,3.8,3.8,0,0,1,.11-.9l1-4a1.44,1.44,0,0,0,0-.39c0-.59-.42-.9-1-1.22v-.1h2.45l-1.41,5.62a3.07,3.07,0,0,0-.1.77c0,.71.34,1.17,1.09,1.17,1.42,0,3.11-1.75,3.79-4.51l.76-3h1.09l-1.65,6.59a2.18,2.18,0,0,0-.05.39c0,.39.27.61.72.61a3.26,3.26,0,0,0,1.08-.22v.17a2.94,2.94,0,0,1-1.8.85,1.05,1.05,0,0,1-1.11-1.17,3.07,3.07,0,0,1,.09-.65Z"/>
        <path class="cls-1" d="M41.38,1414.68a1.78,1.78,0,0,0-.07.47c0,.6.37.87,1.09.87a6.39,6.39,0,0,0,1.78-.32v.2a4.76,4.76,0,0,1-2.48,1,1.42,1.42,0,0,1-1.53-1.51,3.07,3.07,0,0,1,.09-.65l1.37-5.59H40.27l.12-.44c1.46-.34,2.13-1.31,2.79-3h.44l-.71,2.79h2.43l-.26.64H42.74Z"/>
        <path class="cls-1" d="M49.35,1414.68a1.78,1.78,0,0,0-.07.47c0,.6.38.87,1.09.87a6.39,6.39,0,0,0,1.78-.32v.2a4.76,4.76,0,0,1-2.48,1,1.42,1.42,0,0,1-1.53-1.51,3.07,3.07,0,0,1,.09-.65l1.38-5.59H48.24l.12-.44c1.47-.34,2.13-1.31,2.79-3h.44l-.71,2.79h2.43l-.26.64H50.71Z"/>
        <path class="cls-1" d="M55.4,1411a4.48,4.48,0,0,1,3.67-2.7,1.61,1.61,0,0,1,1.69,1.81,3.72,3.72,0,0,1-.12.9l-1,4a2.74,2.74,0,0,0-.06.43c0,.37.23.57.69.57a3.26,3.26,0,0,0,1.09-.22v.17a3,3,0,0,1-1.8.85,1.05,1.05,0,0,1-1.11-1.17,3.26,3.26,0,0,1,.09-.65l1-4a2.76,2.76,0,0,0,.1-.72,1,1,0,0,0-1.12-1.17c-1.43,0-3.09,1.77-3.75,4.44l-.77,3.07H52.9l2.74-11a2.08,2.08,0,0,0,0-.39c0-.6-.42-.9-1-1.23v-.1h2.43Z"/>
        <path class="cls-1" d="M62.08,1413.67c0-2.58,2-5.33,4.64-5.33,1.52,0,2.42.69,2.42,1.85,0,1.77-2,2.53-5.78,2.73a4.65,4.65,0,0,0,0,.75c0,1.55.8,2.47,2.19,2.47a3.38,3.38,0,0,0,2.77-1.63l.29.15a3.7,3.7,0,0,1-3.44,2.24A2.9,2.9,0,0,1,62.08,1413.67Zm1.38-1.32c2.48-.12,4.45-.41,4.45-2.28a1,1,0,0,0-1.19-1.07C65,1409,63.83,1410.58,63.46,1412.35Z"/>
        <path class="cls-1" d="M77,1411c.83-1.6,2.16-2.7,3.52-2.7a1.5,1.5,0,0,1,1.63,1.7,4.09,4.09,0,0,1-.14,1l-1,4a2.91,2.91,0,0,0-.07.43c0,.37.24.57.7.57a3.36,3.36,0,0,0,1.09-.22v.17a3,3,0,0,1-1.81.85,1,1,0,0,1-1.1-1.17,3.2,3.2,0,0,1,.08-.65l1-4a3.75,3.75,0,0,0,.12-.87.9.9,0,0,0-1-1c-1.33,0-2.94,1.68-3.64,4.45l-.76,3.06H74.49l1.41-5.62a3.28,3.28,0,0,0,.12-.87c0-.63-.27-1-1-1-1.32,0-2.94,1.68-3.63,4.45l-.77,3.06H69.49l1.62-6.51a2,2,0,0,0,0-.39c0-.59-.42-.9-1-1.22v-.1h2.35L72,1411c.84-1.6,2.16-2.7,3.52-2.7a1.54,1.54,0,0,1,1.62,1.75A4.05,4.05,0,0,1,77,1411Z"/>
        <path class="cls-1" d="M84.83,1416.89a1,1,0,1,1,1-1A1,1,0,0,1,84.83,1416.89Z"/>
      </g>
    </g>
  </g>
</svg>
