<svg xmlns="http://www.w3.org/2000/svg" viewBox="0 0 89.99 1064.48">
  <defs>
    <style>
      .cls-1 {
        fill: gray;
      }
    </style>
  </defs>
  <g id="Layer_2" data-name="Layer 2">
    <g id="Layer_1-2" data-name="Layer 1">
      <g>
        <path class="cls-1" d="M39.59,1.36c-3.2,0-5.37,1.9-5.37,4.62,0,2.49,1.43,3.4,3.64,4.35l2.75,1.2c2.86,1.22,4.59,2.78,4.59,5.54,0,4.72-3.94,7.41-8.36,7.41a10.36,10.36,0,0,1-6.9-2.38l-2,2.17h-.37l1.7-7.44h.34c1.26,4.25,3.43,6.29,7.21,6.29,3.63,0,6-2.25,6-5.34,0-2.07-1.19-3.26-3.3-4.15l-2.92-1.22c-2.82-1.19-4.76-3-4.76-5.75C31.91,2.58,35.24,0,39.59,0a10.4,10.4,0,0,1,6.12,1.77L47.44.07h.38l-1.36,6.7h-.24C45.06,3.2,43.33,1.36,39.59,1.36Z"/>
        <path class="cls-1" d="M54.48,24.48c-3.67,0-6.49-2.52-6.49-7,0-5,3.5-10.17,8.8-10.17,3.67,0,6.5,2.52,6.5,7C63.29,19.34,59.79,24.48,54.48,24.48Zm0-1.4c3.57,0,6.36-4.42,6.36-9.14,0-3.2-1.16-5.2-4.05-5.2-3.57,0-6.35,4.42-6.35,9.14C50.44,21.08,51.59,23.08,54.48,23.08Z"/>
        <path class="cls-1" d="M16.37,65.74l3.23-13a3.47,3.47,0,0,0,.1-.78c0-1.19-.85-1.81-1.94-2.45v-.21h4.7l-1.09,5.07c1.66-3.2,4.45-5.41,7.34-5.41,2.28,0,3.37,1.53,3.37,3.64a7.32,7.32,0,0,1-.24,1.8l-2,8.09a4.65,4.65,0,0,0-.13.85c0,.75.47,1.16,1.39,1.16A7.24,7.24,0,0,0,33.27,64v.34a6,6,0,0,1-3.61,1.7,2.09,2.09,0,0,1-2.21-2.35,6.27,6.27,0,0,1,.17-1.29l2-7.95a5.85,5.85,0,0,0,.2-1.43,2.07,2.07,0,0,0-2.24-2.35c-2.86,0-6.19,3.54-7.51,8.87l-1.54,6.16Z"/>
        <path class="cls-1" d="M41.26,66.08c-3.68,0-6.5-2.52-6.5-7,0-5,3.5-10.17,8.81-10.17,3.67,0,6.49,2.52,6.49,7C50.06,60.94,46.56,66.08,41.26,66.08Zm0-1.4c3.57,0,6.35-4.42,6.35-9.14,0-3.2-1.15-5.2-4-5.2-3.57,0-6.36,4.42-6.36,9.14C37.21,62.68,38.37,64.68,41.26,64.68Z"/>
        <path class="cls-1" d="M63.87,52.72a3.79,3.79,0,0,0,.1-.78c0-1.19-.82-1.81-1.94-2.45v-.21h4.86l-2.38,9.56a10.38,10.38,0,0,0-.37,2.68c0,1.94.81,3,2.51,3,4.15,0,7-6.29,7-10.88,0-1.67-.64-2.62-2.17-2.62a3.47,3.47,0,0,0-1.63.38,2.71,2.71,0,0,1,2.61-2.49c2.08,0,3,1.74,3,3.91,0,5.92-3.91,13.23-9.42,13.23-2.48,0-3.88-1.67-3.88-4.39-1.12,2.72-3.36,4.39-5.81,4.39-2.72,0-4-1.74-4-4.35a11.22,11.22,0,0,1,.37-2.66l1.56-6.35a3.54,3.54,0,0,0,.11-.78c0-1.19-.85-1.81-1.94-2.45v-.21h4.86L54.82,59a11.74,11.74,0,0,0-.37,2.58c0,1.91.88,2.93,2.58,2.93,2.79,0,4.73-3.2,5.48-6.26Z"/>
        <path class="cls-1" d="M36.21,103.22a3.7,3.7,0,0,0-.14,1c0,1.19.75,1.73,2.18,1.73a12.55,12.55,0,0,0,3.57-.65v.41a9.57,9.57,0,0,1-5,2,2.85,2.85,0,0,1-3.07-3,5.94,5.94,0,0,1,.17-1.29l2.76-11.18H34l.24-.89c2.92-.68,4.25-2.62,5.57-6h.89l-1.43,5.57h4.86l-.51,1.3H38.93Z"/>
        <path class="cls-1" d="M50.05,107.68c-3.67,0-6.5-2.52-6.5-7,0-5,3.5-10.17,8.81-10.17,3.67,0,6.49,2.52,6.49,7C58.85,102.54,55.35,107.68,50.05,107.68Zm0-1.4c3.57,0,6.35-4.42,6.35-9.14,0-3.2-1.15-5.2-4-5.2-3.57,0-6.36,4.42-6.36,9.14C46,104.28,47.16,106.28,50.05,106.28Z"/>
        <path class="cls-1" d="M18.65,133.47c-4.22,0-6.7,4.79-6.7,9.21,0,3.1,1.56,5,4.32,5,2,0,3.74-1,5.34-3.26l.57.34a7.16,7.16,0,0,1-6.66,4.49c-3.77,0-6-2.65-6-6.6,0-5.44,3.95-10.54,9.15-10.54,2.85,0,4.82,1.36,4.82,3.4a1.89,1.89,0,0,1-2,2.08,1.62,1.62,0,0,1-.85-.21,2.26,2.26,0,0,0,.51-1.7C21.16,134.42,20.42,133.47,18.65,133.47Z"/>
        <path class="cls-1" d="M30.79,149.28c-3.68,0-6.5-2.52-6.5-7,0-5,3.5-10.17,8.81-10.17,3.67,0,6.49,2.52,6.49,7C39.59,144.14,36.09,149.28,30.79,149.28Zm0-1.4c3.57,0,6.35-4.42,6.35-9.14,0-3.2-1.15-5.2-4-5.2-3.57,0-6.36,4.42-6.36,9.14C26.74,145.88,27.9,147.88,30.79,147.88Z"/>
        <path class="cls-1" d="M56,137.55c1.66-3.2,4.32-5.41,7-5.41,2.31,0,3.26,1.43,3.26,3.4a8.81,8.81,0,0,1-.27,2l-2,8.09a4.65,4.65,0,0,0-.13.85c0,.75.47,1.16,1.39,1.16a7.24,7.24,0,0,0,2.18-.44v.34a6,6,0,0,1-3.61,1.7,2.09,2.09,0,0,1-2.21-2.35,6.27,6.27,0,0,1,.17-1.29l2-8A6.75,6.75,0,0,0,64,136c0-1.26-.55-2-2.08-2-2.65,0-5.88,3.37-7.27,8.91l-1.53,6.12H51l2.82-11.26A6.75,6.75,0,0,0,54,136c0-1.26-.55-2-2.08-2-2.65,0-5.88,3.37-7.27,8.91l-1.53,6.12H41l3.23-13a3.55,3.55,0,0,0,.11-.79c0-1.18-.86-1.8-1.94-2.44v-.21H47L46,137.55c1.67-3.2,4.32-5.41,7-5.41,2.21,0,3.23,1.47,3.23,3.51A7.5,7.5,0,0,1,56,137.55Z"/>
        <path class="cls-1" d="M68.9,142.82c0-5.17,3.94-10.68,9.28-10.68,3,0,4.83,1.4,4.83,3.71,0,3.53-4.08,5.06-11.56,5.47a10.5,10.5,0,0,0-.1,1.5c0,3.09,1.6,4.93,4.38,4.93,2.08,0,3.91-1,5.55-3.27l.57.31A7.41,7.41,0,0,1,75,149.28C71.11,149.28,68.9,146.76,68.9,142.82Zm2.75-2.65c5-.24,8.91-.82,8.91-4.56a2.09,2.09,0,0,0-2.38-2.14C74.71,133.47,72.4,136.63,71.65,140.17Z"/>
        <path class="cls-1" d="M36.21,186.42a3.7,3.7,0,0,0-.14,1c0,1.19.75,1.73,2.18,1.73a12.55,12.55,0,0,0,3.57-.65v.41a9.57,9.57,0,0,1-5,2,2.85,2.85,0,0,1-3.07-3,5.94,5.94,0,0,1,.17-1.29l2.76-11.18H34l.24-.89c2.92-.68,4.25-2.62,5.57-6h.89l-1.43,5.57h4.86l-.51,1.3H38.93Z"/>
        <path class="cls-1" d="M50.05,190.88c-3.67,0-6.5-2.52-6.5-7,0-5,3.5-10.17,8.81-10.17,3.67,0,6.49,2.52,6.49,7C58.85,185.74,55.35,190.88,50.05,190.88Zm0-1.4c3.57,0,6.35-4.42,6.35-9.14,0-3.2-1.15-5.2-4-5.2-3.57,0-6.36,4.42-6.36,9.14C46,187.48,47.16,189.48,50.05,189.48Z"/>
        <path class="cls-1" d="M28.06,228a3.64,3.64,0,0,0-.13,1c0,1.19.75,1.73,2.18,1.73a12.55,12.55,0,0,0,3.56-.65v.41a9.57,9.57,0,0,1-5,2,2.85,2.85,0,0,1-3.06-3,5.94,5.94,0,0,1,.17-1.29L28.57,217H25.86l.23-.89c2.93-.68,4.25-2.62,5.58-6h.88l-1.43,5.57H36l-.51,1.3H30.79Z"/>
        <path class="cls-1" d="M40.17,220.75c1.66-3.2,4.45-5.41,7.34-5.41,2.28,0,3.37,1.53,3.37,3.64a7,7,0,0,1-.24,1.8l-2,8.09a5.72,5.72,0,0,0-.13.85c0,.75.47,1.16,1.39,1.16a7.19,7.19,0,0,0,2.18-.44v.34a6,6,0,0,1-3.61,1.7,2.1,2.1,0,0,1-2.21-2.35,6.27,6.27,0,0,1,.17-1.29l2-8a5.28,5.28,0,0,0,.2-1.42,2.07,2.07,0,0,0-2.24-2.35c-2.85,0-6.19,3.54-7.51,8.87l-1.53,6.16H35.17l5.47-22a3.54,3.54,0,0,0,.11-.78c0-1.19-.85-1.81-1.94-2.45v-.21h4.86Z"/>
        <path class="cls-1" d="M53.53,226c0-5.17,3.94-10.68,9.28-10.68,3,0,4.83,1.4,4.83,3.71,0,3.53-4.08,5.06-11.56,5.47A10.5,10.5,0,0,0,56,226c0,3.09,1.6,4.93,4.39,4.93,2.07,0,3.91-1,5.54-3.27l.57.31a7.39,7.39,0,0,1-6.86,4.49C55.74,232.48,53.53,230,53.53,226Zm2.76-2.65c5-.24,8.9-.82,8.9-4.56a2.08,2.08,0,0,0-2.38-2.14C59.35,216.67,57,219.83,56.29,223.37Z"/>
        <path class="cls-1" d="M24.29,263c1.53-2.89,3.67-6.06,6.56-6.06a1.84,1.84,0,0,1,2.08,1.81A2.21,2.21,0,0,1,30.62,261a1.69,1.69,0,0,0,.27-.85c0-.58-.41-1.06-1.26-1.06-2.21,0-5.41,4.39-6.36,8.16l-1.63,6.53H19.46l3.23-13a3.54,3.54,0,0,0,.11-.78c0-1.19-.85-1.81-1.94-2.45v-.21h4.86Z"/>
        <path class="cls-1" d="M32.59,267.62c0-5.17,3.94-10.68,9.28-10.68,3,0,4.83,1.4,4.83,3.71,0,3.53-4.08,5.06-11.56,5.47a10.5,10.5,0,0,0-.1,1.5c0,3.09,1.59,4.93,4.38,4.93,2.08,0,3.91-1,5.54-3.27l.58.31a7.41,7.41,0,0,1-6.87,4.49C34.8,274.08,32.59,271.56,32.59,267.62ZM35.34,265c5-.24,8.91-.82,8.91-4.56a2.09,2.09,0,0,0-2.38-2.14C38.4,258.27,36.09,261.43,35.34,265Z"/>
        <path class="cls-1" d="M60.88,270.47a4.13,4.13,0,0,0-.14.79c0,.81.44,1.22,1.36,1.22a7.24,7.24,0,0,0,2.18-.44v.34a6,6,0,0,1-3.61,1.7,2.07,2.07,0,0,1-2.17-2.35,6.32,6.32,0,0,1,.44-2c-1.23,2.31-3.13,4.35-5.92,4.35-3.16,0-5.27-2.42-5.27-6.16,0-5.71,3.91-11,8.94-11,2.79,0,4.35,1.53,4.73,3.2a13.22,13.22,0,0,1,2.41-3.2h.41Zm-.58-6.39a9.3,9.3,0,0,0,.27-2c0-2.69-1.67-3.71-3.61-3.71-4,0-6.76,4.35-6.76,9.55,0,2.79,1.29,4.63,3.37,4.63,2.85,0,5.44-3.1,6.39-7Z"/>
        <path class="cls-1" d="M68.63,270.47a4.4,4.4,0,0,0-.14.85c0,.79.48,1.16,1.39,1.16a7.13,7.13,0,0,0,2.18-.44v.34a5.92,5.92,0,0,1-3.6,1.7,2.08,2.08,0,0,1-2.21-2.31,6.4,6.4,0,0,1,.2-1.33L71,251.71a3.47,3.47,0,0,0,.1-.78c0-1.19-.85-1.81-1.93-2.45v-.21h4.86Z"/>
        <path class="cls-1" d="M20.52,311.39c-1.3,2.32-3.27,4.29-6.19,4.29-3.26,0-5.41-2.38-5.41-6.16,0-5.71,4-11,9.18-11,2.79,0,4.56,1.6,4.93,3.27a13.77,13.77,0,0,1,2.45-3.27h.41l-6,24.11H17.73Zm1.39-5.54a8.59,8.59,0,0,0,.21-1.8,3.76,3.76,0,0,0-3.85-4.11c-4.31,0-6.9,5-6.9,9.58,0,2.83,1.16,4.63,3.54,4.63,2.82,0,5.78-3.06,6.63-6.7Z"/>
        <path class="cls-1" d="M38.13,310.27c-1.67,3.2-4.46,5.41-7.34,5.41-2.28,0-3.37-1.53-3.37-3.64a7.09,7.09,0,0,1,.24-1.8l2-7.92a3.47,3.47,0,0,0,.1-.78c0-1.19-.85-1.81-1.94-2.45v-.21h4.9l-2.82,11.26a6.11,6.11,0,0,0-.21,1.53c0,1.42.68,2.34,2.18,2.34,2.86,0,6.22-3.5,7.58-9L41,298.88h2.17l-3.29,13.19a3.69,3.69,0,0,0-.1.79c0,.78.54,1.22,1.42,1.22a7.13,7.13,0,0,0,2.18-.44V314a5.92,5.92,0,0,1-3.6,1.7,2.09,2.09,0,0,1-2.21-2.35,5.38,5.38,0,0,1,.17-1.29Z"/>
        <path class="cls-1" d="M45,309.22c0-5.17,3.95-10.68,9.28-10.68,3,0,4.83,1.4,4.83,3.71,0,3.54-4.08,5.06-11.56,5.47a12.19,12.19,0,0,0-.1,1.5c0,3.09,1.6,4.93,4.39,4.93,2.07,0,3.91-1,5.54-3.27l.58.31a7.42,7.42,0,0,1-6.87,4.49C47.17,315.68,45,313.16,45,309.22Zm2.76-2.65c5-.24,8.9-.82,8.9-4.56a2.08,2.08,0,0,0-2.38-2.14C50.78,299.87,48.46,303,47.72,306.57Z"/>
        <path class="cls-1" d="M67.64,299.87c-2.21,0-3.6,1.05-3.6,2.72,0,1.22.92,2,3.4,3.47,3,1.7,3.94,2.92,3.94,4.72,0,2.93-2.76,4.9-6.19,4.9s-6-1.87-6-4a1.83,1.83,0,0,1,2-1.87,2.63,2.63,0,0,1,.89.13,2,2,0,0,0-.48,1.36c0,1.67,1.33,3.1,3.67,3.1,2.18,0,4-1,4-2.86,0-1.19-.78-2.24-3.23-3.57s-4.08-2.62-4.08-4.69c0-2.69,2.48-4.73,5.71-4.73S73,300.11,73,302.08a1.87,1.87,0,0,1-2.11,1.8,3.55,3.55,0,0,1-.68-.07,2.2,2.2,0,0,0,.44-1.42C70.63,300.89,69.51,299.87,67.64,299.87Z"/>
        <path class="cls-1" d="M74.61,305.41h8.46l-.34,1.46H74.27Z"/>
        <path class="cls-1" d="M23.19,352.82a3.31,3.31,0,0,0-.14,1c0,1.19.75,1.73,2.18,1.73a12.55,12.55,0,0,0,3.56-.65v.41a9.57,9.57,0,0,1-5,2,2.85,2.85,0,0,1-3.06-3,5.94,5.94,0,0,1,.17-1.29l2.76-11.18H21l.23-.89c2.93-.68,4.25-2.62,5.58-6h.88l-1.42,5.57h4.86l-.51,1.3H25.91Z"/>
        <path class="cls-1" d="M33.25,353.67a4.4,4.4,0,0,0-.14.85c0,.79.51,1.16,1.4,1.16a7.13,7.13,0,0,0,2.17-.44v.34a5.9,5.9,0,0,1-3.6,1.7A2.06,2.06,0,0,1,30.94,355a6.06,6.06,0,0,1,.17-1.33l2.41-9.72a3.48,3.48,0,0,0,.1-.79c0-1.18-.85-1.8-1.93-2.44v-.21h4.86Zm3.26-17.23a1.84,1.84,0,1,1,1.84-1.84A1.83,1.83,0,0,1,36.51,336.44Z"/>
        <path class="cls-1" d="M44.91,357.28c-3.67,0-6.49-2.52-6.49-7,0-5,3.5-10.17,8.8-10.17,3.68,0,6.5,2.52,6.5,7C53.72,352.14,50.22,357.28,44.91,357.28Zm0-1.4c3.57,0,6.36-4.42,6.36-9.14,0-3.2-1.16-5.2-4.05-5.2-3.57,0-6.35,4.42-6.35,9.14C40.87,353.88,42,355.88,44.91,355.88Z"/>
        <path class="cls-1" d="M55.08,356.94l3.23-13a3.48,3.48,0,0,0,.1-.79c0-1.18-.85-1.8-1.94-2.44v-.21h4.69l-1.08,5.07c1.66-3.2,4.45-5.41,7.34-5.41,2.28,0,3.37,1.53,3.37,3.64a7.26,7.26,0,0,1-.24,1.8l-2,8.09a4.65,4.65,0,0,0-.13.85c0,.75.47,1.16,1.39,1.16a7.13,7.13,0,0,0,2.17-.44v.34a5.9,5.9,0,0,1-3.6,1.7,2.09,2.09,0,0,1-2.21-2.35,6.27,6.27,0,0,1,.17-1.29l2-8a5.77,5.77,0,0,0,.2-1.42,2.07,2.07,0,0,0-2.24-2.35c-2.86,0-6.19,3.54-7.51,8.87l-1.54,6.16Z"/>
        <path class="cls-1" d="M40.19,398.88c-3.68,0-6.5-2.52-6.5-7,0-5,3.5-10.17,8.81-10.17,3.67,0,6.49,2.52,6.49,7C49,393.74,45.49,398.88,40.19,398.88Zm0-1.4c3.57,0,6.35-4.42,6.35-9.14,0-3.2-1.15-5.2-4-5.2-3.57,0-6.36,4.42-6.36,9.14C36.14,395.48,37.3,397.48,40.19,397.48Z"/>
        <path class="cls-1" d="M51.64,401.26c-.81,3.16-1.83,4.93-4.35,4.93h-.2c1.36-1.57,2.21-4,3-7.24L54,383.38H51.51l.24-.89,2.58-.61.82-3.23c1-3.71,3.29-5.68,6.29-5.68,2.41,0,3.67,1.06,3.67,2.45a2.12,2.12,0,0,1-2.28,2.11,4.6,4.6,0,0,1-.71-.07,3.35,3.35,0,0,0,.74-1.87c0-.95-.51-1.53-1.76-1.53-2.08,0-3.17,1.67-3.64,4l-.85,4h4.62l-.54,1.3H56.23Z"/>
        <path class="cls-1" d="M7,447.45H4.86l5-20.33a3.48,3.48,0,0,0,.1-.79c0-1.18-.85-1.8-1.93-2.44v-.21h4.69l-.82,4c1.29-2.32,3.47-4.36,6.39-4.36,3.27,0,5.24,2.38,5.24,6.16,0,5.71-3.54,11-9.25,11a4.7,4.7,0,0,1-4.72-3.37Zm3.53-14.28a9.25,9.25,0,0,0-.2,1.8,3.75,3.75,0,0,0,3.84,4.11c4.32,0,6.9-5,6.9-9.58,0-2.83-1.15-4.63-3.53-4.63-2.83,0-5.78,3.06-6.63,6.7Z"/>
        <path class="cls-1" d="M36.55,435.07c-1.67,3.2-4.46,5.41-7.34,5.41-2.28,0-3.37-1.53-3.37-3.64a7.09,7.09,0,0,1,.24-1.8l2-7.92a3.48,3.48,0,0,0,.1-.79c0-1.18-.85-1.8-1.94-2.44v-.21h4.9l-2.82,11.26a6.11,6.11,0,0,0-.21,1.53c0,1.42.68,2.34,2.18,2.34,2.86,0,6.22-3.5,7.58-9l1.53-6.12h2.17l-3.29,13.19a3.69,3.69,0,0,0-.1.79c0,.78.54,1.22,1.42,1.22a7.13,7.13,0,0,0,2.18-.44v.34a5.92,5.92,0,0,1-3.6,1.7,2.09,2.09,0,0,1-2.21-2.35,5.38,5.38,0,0,1,.17-1.29Z"/>
        <path class="cls-1" d="M43.18,440.14l3.23-13a3.48,3.48,0,0,0,.1-.79c0-1.18-.85-1.8-1.94-2.44v-.21h4.69l-1.08,5.07c1.66-3.2,4.45-5.41,7.34-5.41,2.28,0,3.36,1.53,3.36,3.64a7.21,7.21,0,0,1-.23,1.8l-2,8.09a4.65,4.65,0,0,0-.13.85c0,.75.47,1.16,1.39,1.16a7.24,7.24,0,0,0,2.18-.44v.34a6,6,0,0,1-3.61,1.7,2.09,2.09,0,0,1-2.21-2.35,6.27,6.27,0,0,1,.17-1.29l2-8a5.71,5.71,0,0,0,.2-1.42,2.07,2.07,0,0,0-2.24-2.35c-2.86,0-6.19,3.54-7.52,8.87l-1.52,6.16Z"/>
        <path class="cls-1" d="M70.68,424.67c-4.21,0-6.69,4.79-6.69,9.21,0,3.1,1.56,5,4.31,5,2,0,3.74-1,5.34-3.26l.58.34a7.16,7.16,0,0,1-6.66,4.49c-3.78,0-6-2.65-6-6.6,0-5.44,3.94-10.54,9.14-10.54,2.86,0,4.83,1.36,4.83,3.4a1.88,1.88,0,0,1-2,2.08,1.62,1.62,0,0,1-.85-.21,2.26,2.26,0,0,0,.51-1.7C73.2,425.62,72.45,424.67,70.68,424.67Z"/>
        <path class="cls-1" d="M77,430.21h8.47l-.34,1.46H76.63Z"/>
        <path class="cls-1" d="M21.16,477.62a3.64,3.64,0,0,0-.13,1c0,1.19.75,1.73,2.17,1.73a12.55,12.55,0,0,0,3.57-.65v.41a9.57,9.57,0,0,1-5,2,2.85,2.85,0,0,1-3.06-3,5.94,5.94,0,0,1,.17-1.29l2.75-11.18H19l.24-.89c2.93-.68,4.25-2.62,5.58-6h.88l-1.43,5.57h4.87l-.52,1.3H23.88Z"/>
        <path class="cls-1" d="M39.93,476.67c-1.66,3.2-4.45,5.41-7.34,5.41-2.28,0-3.37-1.53-3.37-3.64a7.09,7.09,0,0,1,.24-1.8l2-7.92a3.47,3.47,0,0,0,.1-.78c0-1.19-.85-1.81-1.93-2.45v-.21h4.89l-2.82,11.26a6.11,6.11,0,0,0-.21,1.53,2,2,0,0,0,2.18,2.34c2.86,0,6.22-3.5,7.58-9l1.53-6.12h2.18l-3.3,13.19a3.69,3.69,0,0,0-.1.79c0,.78.54,1.22,1.43,1.22a7.13,7.13,0,0,0,2.17-.44v.34a5.9,5.9,0,0,1-3.6,1.7,2.09,2.09,0,0,1-2.21-2.35,5.94,5.94,0,0,1,.17-1.29Z"/>
        <path class="cls-1" d="M59.86,478.47a4.13,4.13,0,0,0-.14.79c0,.81.44,1.22,1.36,1.22a7.13,7.13,0,0,0,2.17-.44v.34a5.9,5.9,0,0,1-3.6,1.7,2.07,2.07,0,0,1-2.18-2.35,6.1,6.1,0,0,1,.45-2c-1.23,2.31-3.13,4.35-5.92,4.35-3.16,0-5.27-2.42-5.27-6.16,0-5.71,3.91-11,8.94-11,2.79,0,4.36,1.53,4.73,3.2a13.22,13.22,0,0,1,2.41-3.2h.41Zm-.58-6.39a9.3,9.3,0,0,0,.27-2c0-2.69-1.67-3.71-3.6-3.71-4.05,0-6.77,4.35-6.77,9.55,0,2.79,1.29,4.63,3.36,4.63,2.86,0,5.44-3.1,6.4-7Z"/>
        <path class="cls-1" d="M65.6,471.81h8.47l-.34,1.46H65.26Z"/>
        <path class="cls-1" d="M18.73,519.22a3.64,3.64,0,0,0-.13,1c0,1.19.75,1.73,2.17,1.73a12.55,12.55,0,0,0,3.57-.65v.41a9.57,9.57,0,0,1-5,2,2.85,2.85,0,0,1-3.06-3,5.94,5.94,0,0,1,.17-1.29l2.75-11.18H16.52l.24-.89c2.93-.68,4.25-2.62,5.58-6h.88l-1.43,5.57h4.86l-.51,1.3H21.45Z"/>
        <path class="cls-1" d="M28.8,520.07a4.4,4.4,0,0,0-.14.85c0,.79.51,1.16,1.39,1.16a7.13,7.13,0,0,0,2.18-.44V522a5.92,5.92,0,0,1-3.6,1.7,2.07,2.07,0,0,1-2.15-2.31,5.53,5.53,0,0,1,.18-1.33l2.41-9.72a3.47,3.47,0,0,0,.1-.78c0-1.19-.85-1.81-1.94-2.45v-.21H32.1Zm3.26-17.23A1.84,1.84,0,1,1,33.9,501,1.84,1.84,0,0,1,32.06,502.84Z"/>
        <path class="cls-1" d="M40.46,523.68c-3.67,0-6.49-2.52-6.49-7,0-5,3.5-10.17,8.8-10.17,3.67,0,6.49,2.52,6.49,7C49.26,518.54,45.76,523.68,40.46,523.68Zm0-1.4c3.57,0,6.36-4.42,6.36-9.14,0-3.2-1.16-5.2-4-5.2-3.57,0-6.36,4.42-6.36,9.14C36.41,520.28,37.57,522.28,40.46,522.28Z"/>
        <path class="cls-1" d="M50.62,523.34l3.24-13a4.16,4.16,0,0,0,.1-.78c0-1.19-.85-1.81-1.94-2.45v-.21h4.69L55.62,512c1.67-3.2,4.46-5.41,7.35-5.41,2.27,0,3.36,1.53,3.36,3.64a7.26,7.26,0,0,1-.24,1.8l-2,8.09a4.79,4.79,0,0,0-.14.85c0,.75.48,1.16,1.4,1.16a7.13,7.13,0,0,0,2.17-.44V522a5.9,5.9,0,0,1-3.6,1.7,2.09,2.09,0,0,1-2.21-2.35,6.27,6.27,0,0,1,.17-1.29l2-8a5.31,5.31,0,0,0,.21-1.42,2.07,2.07,0,0,0-2.25-2.35c-2.85,0-6.18,3.54-7.51,8.87l-1.53,6.16Z"/>
        <path class="cls-1" d="M71.23,523.24a1.51,1.51,0,0,1-1.6-1.57,1.89,1.89,0,0,1,2-1.9,2.25,2.25,0,0,1,2.18,2.48c0,3.13-2.83,5.71-6.16,6l.1-.88c2.45-.55,4.36-2.18,4.36-4.39A1.72,1.72,0,0,1,71.23,523.24Z"/>
        <path class="cls-1" d="M14.63,572.25H12.46l5-20.33a3.48,3.48,0,0,0,.1-.79c0-1.18-.85-1.8-1.93-2.44v-.21h4.69l-.82,4c1.29-2.32,3.47-4.36,6.39-4.36,3.27,0,5.24,2.38,5.24,6.16,0,5.71-3.54,11-9.25,11a4.7,4.7,0,0,1-4.72-3.37ZM18.17,558a9.25,9.25,0,0,0-.2,1.8,3.75,3.75,0,0,0,3.84,4.11c4.32,0,6.9-5,6.9-9.58,0-2.83-1.16-4.63-3.54-4.63-2.82,0-5.78,3.06-6.63,6.7Z"/>
        <path class="cls-1" d="M32.86,558.82c0-5.17,3.94-10.68,9.28-10.68,3,0,4.83,1.4,4.83,3.71,0,3.53-4.08,5.06-11.56,5.47a10.5,10.5,0,0,0-.1,1.5c0,3.09,1.6,4.93,4.38,4.93,2.08,0,3.91-1,5.54-3.27l.58.31A7.4,7.4,0,0,1,39,565.28C35.07,565.28,32.86,562.76,32.86,558.82Zm2.75-2.65c5-.24,8.91-.82,8.91-4.56a2.09,2.09,0,0,0-2.38-2.14C38.67,549.47,36.36,552.63,35.61,556.17Z"/>
        <path class="cls-1" d="M52.51,554.19c1.53-2.89,3.67-6.05,6.56-6.05A1.84,1.84,0,0,1,61.15,550a2.21,2.21,0,0,1-2.31,2.21,1.7,1.7,0,0,0,.27-.86c0-.57-.41-1-1.26-1-2.21,0-5.41,4.39-6.36,8.16l-1.63,6.53H47.68l3.23-13a3.55,3.55,0,0,0,.11-.79c0-1.18-.85-1.8-1.94-2.44v-.21h4.86Z"/>
        <path class="cls-1" d="M63.56,561.67a4.3,4.3,0,0,0-.13.85c0,.79.51,1.16,1.39,1.16a7.24,7.24,0,0,0,2.18-.44v.34a6,6,0,0,1-3.61,1.7A2.06,2.06,0,0,1,61.25,563a6.06,6.06,0,0,1,.17-1.33l2.41-9.72a3.55,3.55,0,0,0,.11-.79c0-1.18-.85-1.8-1.94-2.44v-.21h4.86Zm3.27-17.23a1.84,1.84,0,1,1,1.83-1.84A1.83,1.83,0,0,1,66.83,544.44Z"/>
        <path class="cls-1" d="M69.38,555h8.46l-.34,1.46H69Z"/>
        <path class="cls-1" d="M24.6,606.88c-3.67,0-6.5-2.52-6.5-7,0-5,3.51-10.17,8.81-10.17,3.67,0,6.49,2.52,6.49,7C33.4,601.74,29.9,606.88,24.6,606.88Zm0-1.4c3.57,0,6.36-4.42,6.36-9.14,0-3.2-1.16-5.2-4.05-5.2-3.57,0-6.36,4.42-6.36,9.14C20.55,603.48,21.71,605.48,24.6,605.48Z"/>
        <path class="cls-1" d="M46.73,602.53c-1.29,2.31-3.3,4.35-6.22,4.35-3.27,0-5.41-2.38-5.41-6.16,0-5.71,4-11,9.18-11a4.63,4.63,0,0,1,4.8,3.37l2.07-8.6a3.21,3.21,0,0,0,.1-.78c0-1.19-.81-1.81-1.94-2.45v-.21h4.87l-5.44,22.2a4.79,4.79,0,0,0-.14.85c0,.79.44,1.16,1.36,1.16a7.13,7.13,0,0,0,2.17-.44v.34a5.9,5.9,0,0,1-3.6,1.7,2.09,2.09,0,0,1-2.21-2.35A6,6,0,0,1,46.73,602.53Zm1.36-5.48a8.54,8.54,0,0,0,.2-1.8,3.75,3.75,0,0,0-3.84-4.11c-4.32,0-6.9,5-6.9,9.58,0,2.83,1.16,4.63,3.54,4.63,2.82,0,5.78-3.06,6.63-6.7Z"/>
        <path class="cls-1" d="M61.52,591.07c-2.21,0-3.6,1-3.6,2.72,0,1.22.92,2,3.4,3.47,3,1.7,3.94,2.92,3.94,4.72,0,2.93-2.75,4.9-6.19,4.9s-6-1.87-6-4A1.83,1.83,0,0,1,55,601a2.59,2.59,0,0,1,.89.13,2.06,2.06,0,0,0-.48,1.36c0,1.67,1.33,3.1,3.67,3.1,2.18,0,4-1,4-2.86,0-1.19-.78-2.24-3.23-3.57s-4.08-2.62-4.08-4.69c0-2.69,2.48-4.73,5.71-4.73s5.34,1.57,5.34,3.54a1.87,1.87,0,0,1-2.11,1.8,3.64,3.64,0,0,1-.68-.07,2.21,2.21,0,0,0,.44-1.43C64.51,592.09,63.39,591.07,61.52,591.07Z"/>
        <path class="cls-1" d="M68.7,606.44a1.51,1.51,0,0,1-1.6-1.57,1.89,1.89,0,0,1,2-1.9,2.24,2.24,0,0,1,2.17,2.48c0,3.13-2.82,5.71-6.15,5.95l.1-.88c2.45-.55,4.35-2.18,4.35-4.39A1.66,1.66,0,0,1,68.7,606.44Z"/>
        <path class="cls-1" d="M20.89,632.67c-4.21,0-6.7,4.79-6.7,9.21,0,3.1,1.57,5,4.32,5,2,0,3.74-1,5.34-3.26l.58.34a7.17,7.17,0,0,1-6.67,4.49c-3.77,0-6-2.65-6-6.6,0-5.44,3.94-10.54,9.14-10.54,2.86,0,4.83,1.36,4.83,3.4a1.88,1.88,0,0,1-2,2.08,1.6,1.6,0,0,1-.85-.21,2.3,2.3,0,0,0,.51-1.7C23.41,633.62,22.66,632.67,20.89,632.67Z"/>
        <path class="cls-1" d="M33,648.48c-3.67,0-6.49-2.52-6.49-7,0-5,3.5-10.17,8.8-10.17,3.67,0,6.49,2.52,6.49,7C41.83,643.34,38.33,648.48,33,648.48Zm0-1.4c3.57,0,6.36-4.42,6.36-9.14,0-3.2-1.16-5.2-4-5.2-3.57,0-6.36,4.42-6.36,9.14C29,645.08,30.14,647.08,33,647.08Z"/>
        <path class="cls-1" d="M58.22,636.75c1.67-3.2,4.32-5.41,7-5.41,2.31,0,3.26,1.43,3.26,3.4a8.81,8.81,0,0,1-.27,2l-2,8.09a4.79,4.79,0,0,0-.14.85c0,.75.48,1.16,1.39,1.16a7.13,7.13,0,0,0,2.18-.44v.34a5.92,5.92,0,0,1-3.6,1.7,2.09,2.09,0,0,1-2.21-2.35,6.27,6.27,0,0,1,.17-1.29l2-8a6.75,6.75,0,0,0,.24-1.73c0-1.26-.54-2-2.07-2-2.66,0-5.88,3.37-7.28,8.91l-1.53,6.12H53.19L56,636.88a6.75,6.75,0,0,0,.24-1.73c0-1.26-.54-2-2.07-2-2.65,0-5.88,3.37-7.28,8.91l-1.53,6.12H43.2l3.23-13a4.15,4.15,0,0,0,.1-.79c0-1.18-.85-1.8-1.94-2.44v-.21h4.69l-1.09,5.07c1.67-3.2,4.32-5.41,7-5.41,2.21,0,3.23,1.47,3.23,3.51A7.5,7.5,0,0,1,58.22,636.75Z"/>
        <path class="cls-1" d="M71.82,638.21h8.47L80,639.67H71.48Z"/>
        <path class="cls-1" d="M27.84,678.35c1.67-3.2,4.32-5.41,7-5.41,2.31,0,3.26,1.43,3.26,3.4a8.81,8.81,0,0,1-.27,2l-2,8.09a4.79,4.79,0,0,0-.14.85c0,.75.48,1.16,1.39,1.16A7.13,7.13,0,0,0,39.3,688v.34a5.9,5.9,0,0,1-3.6,1.7,2.09,2.09,0,0,1-2.21-2.35,5.65,5.65,0,0,1,.17-1.29l2-8a6.88,6.88,0,0,0,.24-1.74c0-1.26-.54-2-2.07-2-2.65,0-5.88,3.37-7.28,8.91L25,689.74H22.81l2.82-11.25a6.88,6.88,0,0,0,.24-1.74c0-1.26-.54-2-2.07-2-2.65,0-5.88,3.37-7.28,8.91L15,689.74H12.82l3.23-13a3.47,3.47,0,0,0,.1-.78c0-1.19-.85-1.81-1.94-2.45v-.21H18.9l-1.09,5.07c1.67-3.2,4.32-5.41,7-5.41,2.21,0,3.23,1.47,3.23,3.51A7.5,7.5,0,0,1,27.84,678.35Z"/>
        <path class="cls-1" d="M53.85,686.47a4.93,4.93,0,0,0-.13.79c0,.81.44,1.22,1.36,1.22a7.13,7.13,0,0,0,2.17-.44v.34a5.9,5.9,0,0,1-3.6,1.7,2.07,2.07,0,0,1-2.18-2.35,6.32,6.32,0,0,1,.44-2c-1.22,2.31-3.12,4.35-5.91,4.35-3.16,0-5.27-2.42-5.27-6.16,0-5.71,3.91-11,8.94-11,2.79,0,4.35,1.53,4.73,3.2a13.22,13.22,0,0,1,2.41-3.2h.41Zm-.57-6.39a9.3,9.3,0,0,0,.27-2c0-2.69-1.67-3.71-3.61-3.71-4,0-6.76,4.35-6.76,9.55,0,2.79,1.29,4.63,3.36,4.63,2.86,0,5.44-3.1,6.4-7Z"/>
        <path class="cls-1" d="M66.57,674.27c-2.21,0-3.6,1.05-3.6,2.72,0,1.22.91,2,3.4,3.47,3,1.7,3.94,2.92,3.94,4.72,0,2.93-2.76,4.9-6.19,4.9s-6.05-1.87-6.05-4a1.83,1.83,0,0,1,2-1.87,2.63,2.63,0,0,1,.89.13,2,2,0,0,0-.48,1.36c0,1.67,1.33,3.1,3.67,3.1,2.18,0,4-1,4-2.86,0-1.19-.79-2.24-3.23-3.57s-4.08-2.62-4.08-4.69c0-2.69,2.48-4.73,5.71-4.73s5.34,1.57,5.34,3.54a1.87,1.87,0,0,1-2.11,1.8,3.55,3.55,0,0,1-.68-.07,2.2,2.2,0,0,0,.44-1.42C69.56,675.29,68.44,674.27,66.57,674.27Z"/>
        <path class="cls-1" d="M73.74,689.64a1.51,1.51,0,0,1-1.59-1.57,1.89,1.89,0,0,1,2-1.9,2.25,2.25,0,0,1,2.17,2.48c0,3.13-2.82,5.71-6.15,6l.1-.88c2.45-.55,4.35-2.18,4.35-4.39A1.66,1.66,0,0,1,73.74,689.64Z"/>
        <path class="cls-1" d="M11.62,715.87c-4.21,0-6.69,4.79-6.69,9.21,0,3.1,1.56,5,4.32,5,2,0,3.74-1,5.33-3.26l.58.34a7.16,7.16,0,0,1-6.66,4.49c-3.78,0-6-2.65-6-6.6,0-5.44,3.94-10.54,9.14-10.54,2.86,0,4.83,1.36,4.83,3.4a1.89,1.89,0,0,1-2,2.08,1.62,1.62,0,0,1-.85-.21,2.26,2.26,0,0,0,.51-1.7C14.14,716.82,13.39,715.87,11.62,715.87Z"/>
        <path class="cls-1" d="M23.76,731.68c-3.67,0-6.49-2.52-6.49-7,0-5,3.5-10.17,8.81-10.17,3.67,0,6.49,2.52,6.49,7C32.57,726.54,29.07,731.68,23.76,731.68Zm0-1.4c3.57,0,6.36-4.42,6.36-9.14,0-3.2-1.16-5.2-4-5.2-3.57,0-6.36,4.42-6.36,9.14C19.72,728.28,20.88,730.28,23.76,730.28Z"/>
        <path class="cls-1" d="M36.82,728.07a4.3,4.3,0,0,0-.13.85c0,.79.47,1.16,1.39,1.16a7.13,7.13,0,0,0,2.17-.44V730a5.9,5.9,0,0,1-3.6,1.7,2.08,2.08,0,0,1-2.21-2.31,6.4,6.4,0,0,1,.2-1.33l4.59-18.73a3.54,3.54,0,0,0,.11-.78c0-1.19-.85-1.81-1.94-2.45v-.21h4.86Z"/>
        <path class="cls-1" d="M48.48,731.68c-3.67,0-6.49-2.52-6.49-7,0-5,3.5-10.17,8.8-10.17,3.67,0,6.5,2.52,6.5,7C57.29,726.54,53.79,731.68,48.48,731.68Zm0-1.4c3.57,0,6.36-4.42,6.36-9.14,0-3.2-1.16-5.2-4.05-5.2-3.57,0-6.35,4.42-6.35,9.14C44.44,728.28,45.59,730.28,48.48,730.28Z"/>
        <path class="cls-1" d="M58.65,731.34l3.23-13a3.47,3.47,0,0,0,.1-.78c0-1.2-.85-1.81-1.94-2.45v-.21h4.69L63.64,720c1.67-3.2,4.46-5.41,7.35-5.41,2.28,0,3.36,1.53,3.36,3.64a7.27,7.27,0,0,1-.23,1.8l-2,8.09a4.79,4.79,0,0,0-.14.85c0,.75.48,1.16,1.4,1.16a7.13,7.13,0,0,0,2.17-.44V730a5.9,5.9,0,0,1-3.6,1.7,2.09,2.09,0,0,1-2.21-2.35A6.27,6.27,0,0,1,69.9,728l2-8a5.71,5.71,0,0,0,.2-1.42,2.07,2.07,0,0,0-2.24-2.35c-2.86,0-6.19,3.54-7.52,8.87l-1.53,6.16Z"/>
        <path class="cls-1" d="M84.66,715.87c-2.21,0-3.61,1-3.61,2.72,0,1.22.92,2,3.4,3.47,3,1.7,4,2.92,4,4.72,0,2.93-2.76,4.9-6.19,4.9s-6-1.87-6-4a1.83,1.83,0,0,1,2-1.87,2.54,2.54,0,0,1,.88.13,2.06,2.06,0,0,0-.47,1.36c0,1.67,1.32,3.1,3.67,3.1,2.17,0,4.05-1,4.05-2.86,0-1.19-.79-2.24-3.23-3.57S79,721.34,79,719.27c0-2.69,2.48-4.73,5.71-4.73S90,716.11,90,718.08a1.86,1.86,0,0,1-2.1,1.8,3.55,3.55,0,0,1-.68-.07,2.21,2.21,0,0,0,.44-1.43C87.65,716.89,86.53,715.87,84.66,715.87Z"/>
        <path class="cls-1" d="M3.54,772.84a1.51,1.51,0,0,1-1.6-1.57,1.89,1.89,0,0,1,2-1.9,2.24,2.24,0,0,1,2.17,2.48c0,3.13-2.82,5.71-6.15,5.95l.1-.88c2.45-.55,4.35-2.18,4.35-4.39A1.66,1.66,0,0,1,3.54,772.84Z"/>
        <path class="cls-1" d="M23.29,757.47c-2.21,0-3.6,1-3.6,2.72,0,1.22.91,2,3.4,3.47,3,1.7,3.94,2.92,3.94,4.72,0,2.93-2.75,4.9-6.19,4.9s-6.05-1.87-6.05-4a1.83,1.83,0,0,1,2-1.87,2.63,2.63,0,0,1,.89.13,2,2,0,0,0-.48,1.36c0,1.67,1.33,3.1,3.67,3.1,2.18,0,4.05-1,4.05-2.86,0-1.19-.78-2.24-3.23-3.57s-4.08-2.62-4.08-4.69c0-2.69,2.48-4.73,5.71-4.73s5.34,1.57,5.34,3.54a1.87,1.87,0,0,1-2.11,1.8,3.55,3.55,0,0,1-.68-.07,2.2,2.2,0,0,0,.44-1.42C26.28,758.49,25.16,757.47,23.29,757.47Z"/>
        <path class="cls-1" d="M29.58,766.82c0-5.17,3.94-10.68,9.28-10.68,3,0,4.83,1.4,4.83,3.71,0,3.53-4.08,5.06-11.56,5.47a10.5,10.5,0,0,0-.1,1.5c0,3.09,1.59,4.93,4.38,4.93,2.08,0,3.91-1,5.55-3.27l.57.31a7.41,7.41,0,0,1-6.87,4.49C31.79,773.28,29.58,770.76,29.58,766.82Zm2.75-2.65c5-.24,8.91-.82,8.91-4.56a2.09,2.09,0,0,0-2.38-2.14C35.39,757.47,33.08,760.63,32.33,764.17Z"/>
        <path class="cls-1" d="M59.43,761.55c1.67-3.2,4.32-5.41,7-5.41,2.31,0,3.26,1.43,3.26,3.4a8.81,8.81,0,0,1-.27,2l-2,8.09a4.65,4.65,0,0,0-.13.85c0,.75.47,1.16,1.39,1.16a7.24,7.24,0,0,0,2.18-.44v.34a6,6,0,0,1-3.61,1.7,2.1,2.1,0,0,1-2.21-2.35,6.27,6.27,0,0,1,.17-1.29l2-8a6.75,6.75,0,0,0,.24-1.73c0-1.26-.55-2-2.08-2-2.65,0-5.88,3.37-7.27,8.91l-1.53,6.12H54.4l2.82-11.26a6.75,6.75,0,0,0,.24-1.73c0-1.26-.55-2-2.08-2-2.65,0-5.88,3.37-7.27,8.91l-1.53,6.12H44.4l3.23-13a3.48,3.48,0,0,0,.1-.79c0-1.18-.85-1.8-1.93-2.44v-.21h4.69l-1.09,5.07c1.67-3.2,4.32-5.41,7-5.41,2.21,0,3.23,1.47,3.23,3.51A7.5,7.5,0,0,1,59.43,761.55Z"/>
        <path class="cls-1" d="M75.11,769.67a4.4,4.4,0,0,0-.14.85c0,.79.51,1.16,1.39,1.16a7.19,7.19,0,0,0,2.18-.44v.34a6,6,0,0,1-3.6,1.7A2.07,2.07,0,0,1,72.79,771a6.06,6.06,0,0,1,.17-1.33l2.42-9.72a3.48,3.48,0,0,0,.1-.79c0-1.18-.85-1.8-1.94-2.44v-.21H78.4Zm3.26-17.23a1.84,1.84,0,1,1,1.84-1.84A1.84,1.84,0,0,1,78.37,752.44Z"/>
        <path class="cls-1" d="M80.92,763h8.46L89,764.47H80.58Z"/>
        <path class="cls-1" d="M11.62,799.07c-4.21,0-6.69,4.79-6.69,9.21,0,3.1,1.56,5,4.32,5,2,0,3.74-1,5.33-3.26l.58.34a7.16,7.16,0,0,1-6.66,4.49c-3.78,0-6-2.65-6-6.6,0-5.44,3.94-10.54,9.14-10.54,2.86,0,4.83,1.36,4.83,3.4a1.89,1.89,0,0,1-2,2.08,1.62,1.62,0,0,1-.85-.21,2.26,2.26,0,0,0,.51-1.7C14.14,800,13.39,799.07,11.62,799.07Z"/>
        <path class="cls-1" d="M23.76,814.88c-3.67,0-6.49-2.52-6.49-7,0-5,3.5-10.17,8.81-10.17,3.67,0,6.49,2.52,6.49,7C32.57,809.74,29.07,814.88,23.76,814.88Zm0-1.4c3.57,0,6.36-4.42,6.36-9.14,0-3.2-1.16-5.2-4-5.2-3.57,0-6.36,4.42-6.36,9.14C19.72,811.48,20.88,813.48,23.76,813.48Z"/>
        <path class="cls-1" d="M36.82,811.27a4.3,4.3,0,0,0-.13.85c0,.79.47,1.16,1.39,1.16a7.13,7.13,0,0,0,2.17-.44v.34a5.9,5.9,0,0,1-3.6,1.7,2.08,2.08,0,0,1-2.21-2.31,6.4,6.4,0,0,1,.2-1.33l4.59-18.73a3.54,3.54,0,0,0,.11-.78c0-1.19-.85-1.81-1.94-2.45v-.21h4.86Z"/>
        <path class="cls-1" d="M48.48,814.88c-3.67,0-6.49-2.52-6.49-7,0-5,3.5-10.17,8.8-10.17,3.67,0,6.5,2.52,6.5,7C57.29,809.74,53.79,814.88,48.48,814.88Zm0-1.4c3.57,0,6.36-4.42,6.36-9.14,0-3.2-1.16-5.2-4.05-5.2-3.57,0-6.35,4.42-6.35,9.14C44.44,811.48,45.59,813.48,48.48,813.48Z"/>
        <path class="cls-1" d="M58.65,814.54l3.23-13a3.47,3.47,0,0,0,.1-.78c0-1.2-.85-1.81-1.94-2.45v-.21h4.69l-1.09,5.07c1.67-3.2,4.46-5.41,7.35-5.41,2.28,0,3.36,1.53,3.36,3.64a7.27,7.27,0,0,1-.23,1.8l-2,8.09a4.79,4.79,0,0,0-.14.85c0,.75.48,1.16,1.4,1.16a7.13,7.13,0,0,0,2.17-.44v.34a5.9,5.9,0,0,1-3.6,1.7,2.09,2.09,0,0,1-2.21-2.35,6.27,6.27,0,0,1,.17-1.29l2-8a5.85,5.85,0,0,0,.2-1.43,2.07,2.07,0,0,0-2.24-2.35c-2.86,0-6.19,3.54-7.52,8.87l-1.53,6.16Z"/>
        <path class="cls-1" d="M84.66,799.07c-2.21,0-3.61,1-3.61,2.72,0,1.22.92,2,3.4,3.47,3,1.7,4,2.92,4,4.72,0,2.93-2.76,4.9-6.19,4.9s-6-1.87-6-4a1.83,1.83,0,0,1,2-1.87,2.54,2.54,0,0,1,.88.13,2.06,2.06,0,0,0-.47,1.36c0,1.67,1.32,3.1,3.67,3.1,2.17,0,4.05-1,4.05-2.86,0-1.19-.79-2.24-3.23-3.57S79,804.54,79,802.47c0-2.69,2.48-4.73,5.71-4.73S90,799.31,90,801.28a1.86,1.86,0,0,1-2.1,1.8,3.55,3.55,0,0,1-.68-.07,2.21,2.21,0,0,0,.44-1.43C87.65,800.09,86.53,799.07,84.66,799.07Z"/>
        <path class="cls-1" d="M32.28,852.87a4.13,4.13,0,0,0-.14.79c0,.81.45,1.22,1.36,1.22a7.13,7.13,0,0,0,2.18-.44v.34a5.92,5.92,0,0,1-3.6,1.7,2.07,2.07,0,0,1-2.18-2.35,6.32,6.32,0,0,1,.44-2c-1.22,2.31-3.13,4.35-5.91,4.35-3.16,0-5.27-2.42-5.27-6.16,0-5.71,3.91-11,8.94-11,2.79,0,4.35,1.53,4.72,3.2a13,13,0,0,1,2.42-3.2h.41Zm-.58-6.39a9.3,9.3,0,0,0,.27-2c0-2.69-1.66-3.71-3.6-3.71-4,0-6.76,4.35-6.76,9.55,0,2.79,1.29,4.63,3.36,4.63,2.86,0,5.44-3.1,6.39-7Z"/>
        <path class="cls-1" d="M37.14,856.14l3.23-13a3.48,3.48,0,0,0,.1-.79c0-1.18-.85-1.8-1.93-2.44v-.21h4.69l-1.09,5.07c1.67-3.2,4.45-5.41,7.34-5.41,2.28,0,3.37,1.53,3.37,3.64a7.26,7.26,0,0,1-.24,1.8l-2,8.09a4.79,4.79,0,0,0-.14.85c0,.75.48,1.16,1.39,1.16a7.13,7.13,0,0,0,2.18-.44v.34a5.92,5.92,0,0,1-3.6,1.7,2.09,2.09,0,0,1-2.21-2.35,5.65,5.65,0,0,1,.17-1.29l2-8a5.31,5.31,0,0,0,.21-1.42,2.08,2.08,0,0,0-2.25-2.35c-2.85,0-6.19,3.54-7.51,8.87l-1.53,6.16Z"/>
        <path class="cls-1" d="M67.1,852.13c-1.3,2.31-3.3,4.35-6.22,4.35-3.27,0-5.41-2.38-5.41-6.16,0-5.71,4-11,9.18-11a4.61,4.61,0,0,1,4.79,3.37l2.08-8.6a3.79,3.79,0,0,0,.1-.78c0-1.19-.82-1.81-1.94-2.45v-.21h4.86l-5.44,22.2a4.65,4.65,0,0,0-.13.85c0,.79.44,1.16,1.36,1.16a7.13,7.13,0,0,0,2.17-.44v.34a5.9,5.9,0,0,1-3.6,1.7,2.09,2.09,0,0,1-2.21-2.35A5.75,5.75,0,0,1,67.1,852.13Zm1.36-5.48a9.25,9.25,0,0,0,.2-1.8,3.75,3.75,0,0,0-3.84-4.11c-4.32,0-6.9,5-6.9,9.58,0,2.83,1.15,4.63,3.53,4.63,2.83,0,5.78-3.06,6.63-6.7Z"/>
        <path class="cls-1" d="M20.94,882.27c-4.21,0-6.7,4.79-6.7,9.21,0,3.1,1.57,5,4.32,5,2,0,3.74-1,5.34-3.26l.58.34a7.17,7.17,0,0,1-6.67,4.49c-3.77,0-6-2.65-6-6.6,0-5.44,3.94-10.54,9.14-10.54,2.86,0,4.83,1.36,4.83,3.4a1.89,1.89,0,0,1-2,2.08,1.62,1.62,0,0,1-.85-.21,2.26,2.26,0,0,0,.51-1.7C23.46,883.22,22.71,882.27,20.94,882.27Z"/>
        <path class="cls-1" d="M39.64,894.47a4,4,0,0,0-.13.79c0,.81.44,1.22,1.36,1.22A7.13,7.13,0,0,0,43,896v.34a5.9,5.9,0,0,1-3.6,1.7,2.07,2.07,0,0,1-2.18-2.35,6.32,6.32,0,0,1,.44-2c-1.22,2.31-3.12,4.35-5.91,4.35-3.16,0-5.27-2.42-5.27-6.16,0-5.71,3.91-11,8.94-11,2.79,0,4.35,1.53,4.73,3.2a13,13,0,0,1,2.41-3.2H43Zm-.58-6.39a9.45,9.45,0,0,0,.28-2c0-2.69-1.67-3.71-3.61-3.71-4,0-6.76,4.35-6.76,9.55,0,2.79,1.29,4.63,3.36,4.63,2.86,0,5.44-3.1,6.39-7Z"/>
        <path class="cls-1" d="M45.15,905.05H43l5-20.33a4.15,4.15,0,0,0,.1-.79c0-1.18-.85-1.8-1.94-2.44v-.21h4.69l-.81,4c1.29-2.31,3.46-4.35,6.39-4.35,3.26,0,5.23,2.38,5.23,6.16,0,5.71-3.53,11-9.24,11a4.7,4.7,0,0,1-4.73-3.37Zm3.54-14.28a8.59,8.59,0,0,0-.21,1.8,3.75,3.75,0,0,0,3.84,4.11c4.32,0,6.91-5,6.91-9.58,0-2.83-1.16-4.63-3.54-4.63-2.82,0-5.78,3.06-6.63,6.7Z"/>
        <path class="cls-1" d="M66,894.47a4.4,4.4,0,0,0-.14.85c0,.79.51,1.16,1.4,1.16a7.13,7.13,0,0,0,2.17-.44v.34a5.9,5.9,0,0,1-3.6,1.7,2.06,2.06,0,0,1-2.14-2.31,5.51,5.51,0,0,1,.17-1.33l2.41-9.72a3.48,3.48,0,0,0,.1-.79c0-1.18-.85-1.8-1.94-2.44v-.21h4.87Zm3.26-17.23a1.84,1.84,0,1,1,1.84-1.84A1.83,1.83,0,0,1,69.22,877.24Z"/>
        <path class="cls-1" d="M71.77,887.81h8.47l-.34,1.46H71.43Z"/>
        <path class="cls-1" d="M24.7,935.22a3.7,3.7,0,0,0-.14,1c0,1.19.75,1.73,2.18,1.73a12.55,12.55,0,0,0,3.57-.65v.41a9.57,9.57,0,0,1-5,2,2.85,2.85,0,0,1-3.06-3,5.38,5.38,0,0,1,.17-1.29l2.75-11.19H22.49l.24-.88c2.92-.68,4.25-2.62,5.57-6h.89l-1.43,5.57h4.86l-.51,1.29H27.42Z"/>
        <path class="cls-1" d="M45.1,936.07a4.13,4.13,0,0,0-.14.79c0,.81.44,1.22,1.36,1.22a7.13,7.13,0,0,0,2.18-.44V938a5.92,5.92,0,0,1-3.61,1.7,2.07,2.07,0,0,1-2.17-2.35,6.32,6.32,0,0,1,.44-2c-1.22,2.31-3.13,4.35-5.91,4.35-3.17,0-5.27-2.42-5.27-6.16,0-5.71,3.91-11,8.94-11,2.79,0,4.35,1.53,4.72,3.2a13,13,0,0,1,2.42-3.2h.4Zm-.58-6.39a9.38,9.38,0,0,0,.27-2c0-2.69-1.66-3.71-3.6-3.71-4,0-6.77,4.35-6.77,9.55,0,2.79,1.29,4.63,3.37,4.63,2.85,0,5.44-3.1,6.39-7Z"/>
        <path class="cls-1" d="M52.85,936.07a4.3,4.3,0,0,0-.13.85c0,.79.47,1.16,1.39,1.16a7.24,7.24,0,0,0,2.18-.44V938a6,6,0,0,1-3.61,1.7,2.08,2.08,0,0,1-2.21-2.31,5.83,5.83,0,0,1,.21-1.33l4.59-18.73a4.16,4.16,0,0,0,.1-.78c0-1.19-.85-1.81-1.94-2.45v-.21h4.86Z"/>
        <path class="cls-1" d="M65.63,923.87c-2.2,0-3.6,1-3.6,2.72,0,1.22.92,2,3.4,3.47,3,1.7,3.95,2.92,3.95,4.72,0,2.93-2.76,4.9-6.19,4.9s-6-1.87-6-4a1.82,1.82,0,0,1,2-1.87,2.57,2.57,0,0,1,.88.13,2.06,2.06,0,0,0-.47,1.36c0,1.67,1.32,3.1,3.67,3.1,2.17,0,4-1,4-2.86,0-1.19-.78-2.24-3.23-3.57s-4.08-2.62-4.08-4.69c0-2.69,2.49-4.73,5.71-4.73S71,924.11,71,926.08a1.86,1.86,0,0,1-2.1,1.8,3.55,3.55,0,0,1-.68-.07,2.27,2.27,0,0,0,.44-1.43C68.63,924.89,67.5,923.87,65.63,923.87Z"/>
        <path class="cls-1" d="M32.28,977.67a4.13,4.13,0,0,0-.14.79c0,.81.45,1.22,1.36,1.22a7.13,7.13,0,0,0,2.18-.44v.34a5.92,5.92,0,0,1-3.6,1.7,2.07,2.07,0,0,1-2.18-2.35,6.32,6.32,0,0,1,.44-2c-1.22,2.31-3.13,4.35-5.91,4.35-3.16,0-5.27-2.42-5.27-6.16,0-5.71,3.91-11,8.94-11,2.79,0,4.35,1.53,4.72,3.2a13,13,0,0,1,2.42-3.2h.41Zm-.58-6.39a9.3,9.3,0,0,0,.27-2c0-2.69-1.66-3.71-3.6-3.71-4,0-6.76,4.35-6.76,9.55,0,2.79,1.29,4.63,3.36,4.63,2.86,0,5.44-3.1,6.39-7Z"/>
        <path class="cls-1" d="M37.14,980.94l3.23-13a3.48,3.48,0,0,0,.1-.79c0-1.18-.85-1.8-1.93-2.44v-.21h4.69l-1.09,5.07c1.67-3.2,4.45-5.41,7.34-5.41,2.28,0,3.37,1.53,3.37,3.64a7.26,7.26,0,0,1-.24,1.8l-2,8.09a4.79,4.79,0,0,0-.14.85c0,.75.48,1.16,1.39,1.16a7.13,7.13,0,0,0,2.18-.44v.34a5.92,5.92,0,0,1-3.6,1.7,2.09,2.09,0,0,1-2.21-2.35,5.65,5.65,0,0,1,.17-1.29l2-8a5.37,5.37,0,0,0,.21-1.42,2.08,2.08,0,0,0-2.25-2.35c-2.85,0-6.19,3.54-7.51,8.87l-1.53,6.16Z"/>
        <path class="cls-1" d="M67.1,976.93c-1.3,2.31-3.3,4.35-6.22,4.35-3.27,0-5.41-2.38-5.41-6.16,0-5.71,4-11,9.18-11a4.61,4.61,0,0,1,4.79,3.37l2.08-8.6a3.79,3.79,0,0,0,.1-.78c0-1.19-.82-1.81-1.94-2.45v-.21h4.86l-5.44,22.2a4.65,4.65,0,0,0-.13.85c0,.79.44,1.16,1.36,1.16a7.13,7.13,0,0,0,2.17-.44v.34a5.9,5.9,0,0,1-3.6,1.7,2.09,2.09,0,0,1-2.21-2.35A5.75,5.75,0,0,1,67.1,976.93Zm1.36-5.48a9.25,9.25,0,0,0,.2-1.8,3.75,3.75,0,0,0-3.84-4.11c-4.32,0-6.9,5-6.9,9.58,0,2.83,1.15,4.63,3.53,4.63,2.83,0,5.78-3.06,6.63-6.7Z"/>
        <path class="cls-1" d="M16.62,1007.07c-2.21,0-3.6,1-3.6,2.72,0,1.22.92,2,3.4,3.47,3,1.7,3.94,2.92,3.94,4.72,0,2.93-2.75,4.9-6.18,4.9s-6.06-1.87-6.06-4a1.83,1.83,0,0,1,2-1.87,2.57,2.57,0,0,1,.88.13,2.06,2.06,0,0,0-.48,1.36c0,1.67,1.33,3.1,3.68,3.1,2.17,0,4-1,4-2.86,0-1.19-.78-2.24-3.23-3.57s-4.08-2.62-4.08-4.69c0-2.69,2.48-4.73,5.71-4.73s5.34,1.57,5.34,3.54a1.87,1.87,0,0,1-2.11,1.8,3.73,3.73,0,0,1-.68-.07,2.2,2.2,0,0,0,.45-1.43C19.62,1008.09,18.49,1007.07,16.62,1007.07Z"/>
        <path class="cls-1" d="M37.74,1011.15c1.66-3.2,4.31-5.41,7-5.41,2.32,0,3.27,1.43,3.27,3.4a8.81,8.81,0,0,1-.27,2l-2,8.09a4.79,4.79,0,0,0-.14.85c0,.75.48,1.16,1.4,1.16a7.13,7.13,0,0,0,2.17-.44v.34a5.9,5.9,0,0,1-3.6,1.7,2.09,2.09,0,0,1-2.21-2.35,6.27,6.27,0,0,1,.17-1.29l2-8a6.83,6.83,0,0,0,.23-1.74c0-1.26-.54-2-2.07-2-2.65,0-5.88,3.37-7.27,8.91l-1.53,6.12H32.71l2.82-11.25a6.88,6.88,0,0,0,.24-1.74c0-1.26-.55-2-2.08-2-2.65,0-5.88,3.37-7.27,8.91l-1.53,6.12H22.71l3.23-13a3.47,3.47,0,0,0,.1-.78c0-1.2-.85-1.81-1.94-2.45v-.21h4.69l-1.08,5.07c1.66-3.2,4.32-5.41,7-5.41,2.21,0,3.22,1.47,3.22,3.51A7.47,7.47,0,0,1,37.74,1011.15Z"/>
        <path class="cls-1" d="M63.75,1019.27a4.13,4.13,0,0,0-.14.79c0,.81.44,1.22,1.36,1.22a7.19,7.19,0,0,0,2.18-.44v.34a6,6,0,0,1-3.61,1.7,2.07,2.07,0,0,1-2.17-2.35,6.32,6.32,0,0,1,.44-2c-1.22,2.31-3.13,4.35-5.92,4.35-3.16,0-5.27-2.42-5.27-6.16,0-5.71,3.92-11,9-11,2.78,0,4.35,1.53,4.72,3.2a13,13,0,0,1,2.42-3.2h.4Zm-.58-6.39a9.3,9.3,0,0,0,.27-2c0-2.69-1.66-3.71-3.6-3.71-4.05,0-6.77,4.35-6.77,9.55,0,2.79,1.29,4.63,3.37,4.63,2.85,0,5.44-3.1,6.39-7Z"/>
        <path class="cls-1" d="M71.5,1019.27a4.4,4.4,0,0,0-.14.85c0,.79.48,1.16,1.4,1.16a7.13,7.13,0,0,0,2.17-.44v.34a5.9,5.9,0,0,1-3.6,1.7,2.08,2.08,0,0,1-2.21-2.31,6.4,6.4,0,0,1,.2-1.33l4.59-18.73a3.54,3.54,0,0,0,.11-.78c0-1.19-.85-1.81-1.94-2.45v-.21h4.86Z"/>
        <path class="cls-1" d="M79.32,1019.27a4.4,4.4,0,0,0-.14.85c0,.79.48,1.16,1.4,1.16a7.13,7.13,0,0,0,2.17-.44v.34a5.9,5.9,0,0,1-3.6,1.7,2.08,2.08,0,0,1-2.21-2.31,6.4,6.4,0,0,1,.2-1.33l4.59-18.73a3.47,3.47,0,0,0,.1-.78c0-1.19-.85-1.81-1.93-2.45v-.21h4.86Z"/>
        <path class="cls-1" d="M2.84,1060.87a4.4,4.4,0,0,0-.14.85c0,.79.48,1.16,1.4,1.16a7.13,7.13,0,0,0,2.17-.44v.34a5.9,5.9,0,0,1-3.6,1.7,2.08,2.08,0,0,1-2.21-2.31,6.4,6.4,0,0,1,.2-1.33l4.59-18.73a3.47,3.47,0,0,0,.1-.78c0-1.19-.85-1.81-1.93-2.45v-.21H8.28Z"/>
        <path class="cls-1" d="M8,1058c0-5.17,3.94-10.68,9.28-10.68,3,0,4.83,1.4,4.83,3.71,0,3.53-4.08,5.06-11.56,5.47a10.5,10.5,0,0,0-.1,1.5c0,3.09,1.6,4.93,4.38,4.93,2.08,0,3.91-1,5.55-3.27l.57.31a7.39,7.39,0,0,1-6.86,4.49C10.18,1064.48,8,1062,8,1058Zm2.75-2.65c5-.24,8.91-.82,8.91-4.56a2.09,2.09,0,0,0-2.38-2.14C13.79,1048.67,11.47,1051.83,10.72,1055.37Z"/>
        <path class="cls-1" d="M26.2,1060a3.31,3.31,0,0,0-.14,1c0,1.19.75,1.73,2.17,1.73a12.55,12.55,0,0,0,3.57-.65v.41a9.57,9.57,0,0,1-5,2,2.85,2.85,0,0,1-3.06-3,5.94,5.94,0,0,1,.17-1.29L26.71,1049H24l.24-.89c2.93-.68,4.25-2.62,5.58-6h.88l-1.43,5.57h4.87l-.51,1.3h-4.7Z"/>
        <path class="cls-1" d="M36.7,1060a3.7,3.7,0,0,0-.14,1c0,1.19.75,1.73,2.18,1.73a12.55,12.55,0,0,0,3.57-.65v.41a9.57,9.57,0,0,1-5,2,2.85,2.85,0,0,1-3.06-3,5.94,5.94,0,0,1,.17-1.29L37.21,1049H34.49l.24-.89c2.92-.68,4.25-2.62,5.57-6h.89l-1.43,5.57h4.86l-.51,1.3H39.42Z"/>
        <path class="cls-1" d="M44,1058c0-5.17,4-10.68,9.28-10.68,3,0,4.83,1.4,4.83,3.71,0,3.53-4.08,5.06-11.56,5.47a10.5,10.5,0,0,0-.1,1.5c0,3.09,1.6,4.93,4.38,4.93,2.08,0,3.91-1,5.55-3.27l.57.31a7.39,7.39,0,0,1-6.86,4.49C46.22,1064.48,44,1062,44,1058Zm2.76-2.65c5-.24,8.9-.82,8.9-4.56a2.09,2.09,0,0,0-2.38-2.14C49.82,1048.67,47.51,1051.83,46.77,1055.37Z"/>
        <path class="cls-1" d="M63.66,1053.39c1.53-2.89,3.67-6.05,6.56-6.05a1.84,1.84,0,0,1,2.08,1.81,2.21,2.21,0,0,1-2.31,2.21,1.7,1.7,0,0,0,.27-.86c0-.57-.41-1-1.26-1-2.21,0-5.4,4.39-6.36,8.16L61,1064.14H58.84l3.22-13a3.55,3.55,0,0,0,.11-.79c0-1.18-.85-1.8-1.94-2.44v-.21h4.86Z"/>
        <path class="cls-1" d="M79.44,1048.67c-2.21,0-3.6,1-3.6,2.72,0,1.22.91,2,3.39,3.47,3,1.7,4,2.92,4,4.72,0,2.93-2.76,4.9-6.19,4.9s-6-1.87-6-4a1.83,1.83,0,0,1,2-1.87,2.54,2.54,0,0,1,.88.13,2.06,2.06,0,0,0-.47,1.36c0,1.67,1.32,3.1,3.67,3.1,2.18,0,4.05-1,4.05-2.86,0-1.19-.79-2.24-3.23-3.57s-4.08-2.62-4.08-4.69c0-2.69,2.48-4.73,5.71-4.73s5.34,1.57,5.34,3.54a1.87,1.87,0,0,1-2.11,1.8,3.55,3.55,0,0,1-.68-.07,2.2,2.2,0,0,0,.44-1.42C82.43,1049.69,81.31,1048.67,79.44,1048.67Z"/>
        <path class="cls-1" d="M87.09,1064.44a2,2,0,1,1,2-2A2,2,0,0,1,87.09,1064.44Z"/>
      </g>
    </g>
  </g>
</svg>
