<svg xmlns="http://www.w3.org/2000/svg" viewBox="0 0 63.89 1248.41">
  <defs>
    <style>
      .cls-1 {
        fill: gray;
      }
    </style>
  </defs>
  <g id="Layer_2" data-name="Layer 2">
    <g id="Layer_1-2" data-name="Layer 1">
      <g>
        <path class="cls-1" d="M31.87,8.25V0h.54V8.25Z"/>
        <path class="cls-1" d="M20.18,132.25v-8.61h.53v4.22a1.62,1.62,0,0,1,.62-.63,2.16,2.16,0,0,1,1.1-.26,2,2,0,0,1,1,.24,1.6,1.6,0,0,1,.65.71,2.64,2.64,0,0,1,.22,1.14v3.19h-.53v-3.09a1.92,1.92,0,0,0-.39-1.3,1.39,1.39,0,0,0-1.11-.45,1.75,1.75,0,0,0-.85.2,1.48,1.48,0,0,0-.55.53,1.42,1.42,0,0,0-.18.69v3.42Z"/>
        <path class="cls-1" d="M28.67,132.41a2.48,2.48,0,0,1-1.3-.35,2.6,2.6,0,0,1-.92-1,3.13,3.13,0,0,1,0-2.8,2.57,2.57,0,0,1,.91-1,2.52,2.52,0,0,1,1.31-.35,2.47,2.47,0,0,1,1.32.36,2.18,2.18,0,0,1,.88,1v-1.17h.53v5.12h-.53v-1.19a2.54,2.54,0,0,1-.9,1A2.42,2.42,0,0,1,28.67,132.41Zm.11-.47a2.12,2.12,0,0,0,1.1-.29,2,2,0,0,0,.75-.8,2.42,2.42,0,0,0,.27-1.16,2.46,2.46,0,0,0-.27-1.17,2,2,0,0,0-.75-.79,2.23,2.23,0,0,0-2.2,0,2,2,0,0,0-.75.79,2.47,2.47,0,0,0-.28,1.17,2.43,2.43,0,0,0,.28,1.16,2,2,0,0,0,.75.8A2.12,2.12,0,0,0,28.78,131.94Z"/>
        <path class="cls-1" d="M35.33,132.25l-2.44-5.12h.63l2,4.33,2-4.33h.63l-2.44,5.12Z"/>
        <path class="cls-1" d="M42,132.41a2.81,2.81,0,0,1-1.43-.36,2.62,2.62,0,0,1-1.34-2.33,2.77,2.77,0,0,1,.79-2,2.63,2.63,0,0,1,1.87-.79,2.67,2.67,0,0,1,1.32.33,2.59,2.59,0,0,1,.94.92,2.69,2.69,0,0,1,.39,1.33v.18H39.75a2.31,2.31,0,0,0,.29,1.15,2.12,2.12,0,0,0,.81.79,2.48,2.48,0,0,0,2.29,0,2,2,0,0,0,.82-.75l.4.23a2.55,2.55,0,0,1-1,.91A2.86,2.86,0,0,1,42,132.41Zm-2.22-3.1H44a2.12,2.12,0,0,0-1.11-1.64,2,2,0,0,0-1-.25,2.12,2.12,0,0,0-1.76.92A2,2,0,0,0,39.78,129.31Z"/>
        <path class="cls-1" d="M22.94,256.25v-8.61h.53v4.22a1.72,1.72,0,0,1,.63-.63,2.16,2.16,0,0,1,1.1-.26,2.08,2.08,0,0,1,1,.24,1.6,1.6,0,0,1,.65.71,2.64,2.64,0,0,1,.22,1.14v3.19h-.53v-3.09a1.92,1.92,0,0,0-.39-1.3,1.39,1.39,0,0,0-1.11-.45,1.75,1.75,0,0,0-.85.2,1.48,1.48,0,0,0-.55.53,1.43,1.43,0,0,0-.19.69v3.42Z"/>
        <path class="cls-1" d="M31.44,256.41a2.54,2.54,0,0,1-1.31-.35,2.65,2.65,0,0,1-.91-1,3.05,3.05,0,0,1,0-2.8,2.55,2.55,0,0,1,3.54-1,2.23,2.23,0,0,1,.88,1v-1.17h.53v5.12h-.53v-1.19a2.49,2.49,0,0,1-.91,1A2.36,2.36,0,0,1,31.44,256.41Zm.11-.47a2.06,2.06,0,0,0,1.09-.29,2,2,0,0,0,.75-.8,2.32,2.32,0,0,0,.28-1.16,2.36,2.36,0,0,0-.28-1.17,2,2,0,0,0-.75-.79,2.06,2.06,0,0,0-1.09-.29,2.1,2.1,0,0,0-1.1.29,2,2,0,0,0-.75.79,2.36,2.36,0,0,0-.28,1.17,2.32,2.32,0,0,0,.28,1.16,2,2,0,0,0,.75.8A2.1,2.1,0,0,0,31.55,255.94Z"/>
        <path class="cls-1" d="M38.6,256.41a2.51,2.51,0,0,1-1.3-.35,2.68,2.68,0,0,1-.92-1,3.13,3.13,0,0,1,0-2.8,2.6,2.6,0,0,1,.92-1,2.49,2.49,0,0,1,1.31-.35,2.42,2.42,0,0,1,1.3.36,2.39,2.39,0,0,1,.89,1v-4.66h.53v8.61H40.8v-1.19a2.39,2.39,0,0,1-.9,1A2.42,2.42,0,0,1,38.6,256.41Zm.11-.47a2.12,2.12,0,0,0,1.1-.29,2,2,0,0,0,.75-.8,2.42,2.42,0,0,0,.27-1.16,2.49,2.49,0,0,0-.27-1.17,2,2,0,0,0-.75-.79,2.12,2.12,0,0,0-1.1-.29,2.06,2.06,0,0,0-1.09.29,2,2,0,0,0-.76.79,2.49,2.49,0,0,0-.27,1.17,2.42,2.42,0,0,0,.27,1.16,2,2,0,0,0,.75.8A2.12,2.12,0,0,0,38.71,255.94Z"/>
        <path class="cls-1" d="M31.87,380.41a2.48,2.48,0,0,1-1.3-.35,2.6,2.6,0,0,1-.92-1,3.05,3.05,0,0,1,0-2.8,2.57,2.57,0,0,1,.91-1,2.52,2.52,0,0,1,1.31-.35,2.47,2.47,0,0,1,1.32.36,2.18,2.18,0,0,1,.88,1v-1.17h.53v5.12h-.53v-1.19a2.54,2.54,0,0,1-.9,1A2.42,2.42,0,0,1,31.87,380.41Zm.11-.47a2.12,2.12,0,0,0,1.1-.29,2,2,0,0,0,.75-.8,2.42,2.42,0,0,0,.27-1.16,2.46,2.46,0,0,0-.27-1.17,2,2,0,0,0-.75-.79,2.23,2.23,0,0,0-2.2,0,2,2,0,0,0-.75.79,2.46,2.46,0,0,0-.27,1.17,2.42,2.42,0,0,0,.27,1.16,2,2,0,0,0,.75.8A2.12,2.12,0,0,0,32,379.94Z"/>
        <path class="cls-1" d="M21.61,504.25v-8.6h.53v8.6Z"/>
        <path class="cls-1" d="M26.8,504.41a2.9,2.9,0,0,1-1.42-.35,2.48,2.48,0,0,1-1-.95,2.91,2.91,0,0,1,0-2.84,2.5,2.5,0,0,1,1-1,3.14,3.14,0,0,1,2.84,0,2.63,2.63,0,0,1,1,1,2.91,2.91,0,0,1,0,2.84,2.61,2.61,0,0,1-1,.95A2.93,2.93,0,0,1,26.8,504.41Zm0-.49a2.34,2.34,0,0,0,1.16-.28,2.09,2.09,0,0,0,.79-.8,2.35,2.35,0,0,0,0-2.3,2.09,2.09,0,0,0-.79-.8,2.34,2.34,0,0,0-1.16-.28,2.32,2.32,0,0,0-1.16.28,2.12,2.12,0,0,0-.8.8,2.43,2.43,0,0,0,0,2.3,2.12,2.12,0,0,0,.8.8A2.32,2.32,0,0,0,26.8,503.92Z"/>
        <path class="cls-1" d="M31.43,504.25v-5.12H32v.73a1.72,1.72,0,0,1,.63-.63,2.16,2.16,0,0,1,1.1-.26,2.08,2.08,0,0,1,1,.24,1.6,1.6,0,0,1,.65.71,2.64,2.64,0,0,1,.22,1.14v3.19h-.53v-3.09a1.92,1.92,0,0,0-.39-1.3,1.38,1.38,0,0,0-1.11-.44,1.65,1.65,0,0,0-.85.2,1.38,1.38,0,0,0-.55.52,1.43,1.43,0,0,0-.19.69v3.42Z"/>
        <path class="cls-1" d="M39.94,507a3.24,3.24,0,0,1-1.62-.38,2.43,2.43,0,0,1-1-1.11l.46-.2a1.9,1.9,0,0,0,.83.9,2.5,2.5,0,0,0,1.32.34,2.52,2.52,0,0,0,1.12-.24,2,2,0,0,0,.79-.72,2.14,2.14,0,0,0,.28-1.14v-1.39a2.39,2.39,0,0,1-.9,1,2.42,2.42,0,0,1-1.3.36,2.51,2.51,0,0,1-1.3-.35,2.68,2.68,0,0,1-.92-1,3.13,3.13,0,0,1,0-2.8,2.6,2.6,0,0,1,.92-1,2.49,2.49,0,0,1,1.31-.35,2.42,2.42,0,0,1,1.3.36,2.39,2.39,0,0,1,.89,1v-1.17h.53v5.26a2.8,2.8,0,0,1-.34,1.45,2.06,2.06,0,0,1-1,.87A3.38,3.38,0,0,1,39.94,507Zm.1-3.06a2.12,2.12,0,0,0,1.1-.29,2,2,0,0,0,.75-.8,2.42,2.42,0,0,0,.27-1.16,2.49,2.49,0,0,0-.27-1.17,2,2,0,0,0-.75-.79,2.23,2.23,0,0,0-2.2,0,2,2,0,0,0-.75.79,2.49,2.49,0,0,0-.27,1.17,2.42,2.42,0,0,0,.27,1.16,2,2,0,0,0,.75.8A2.12,2.12,0,0,0,40,503.94Z"/>
        <path class="cls-1" d="M25.14,628.41a2.46,2.46,0,0,1-1.3-.35,2.52,2.52,0,0,1-.92-1,3.05,3.05,0,0,1,0-2.8,2.57,2.57,0,0,1,.91-1,2.49,2.49,0,0,1,1.31-.35,2.52,2.52,0,0,1,1.32.36,2.23,2.23,0,0,1,.88,1v-1.17h.53v5.12h-.53v-1.19a2.54,2.54,0,0,1-.9,1A2.42,2.42,0,0,1,25.14,628.41Zm.11-.47a2,2,0,0,0,1.85-1.09,2.42,2.42,0,0,0,.27-1.16,2.46,2.46,0,0,0-.27-1.17,2.16,2.16,0,0,0-3-.79,2,2,0,0,0-.75.79,2.36,2.36,0,0,0-.28,1.17,2.32,2.32,0,0,0,.28,1.16,2,2,0,0,0,.75.8A2.1,2.1,0,0,0,25.25,627.94Z"/>
        <path class="cls-1" d="M30.11,628.25v-5.12h.53v.73a1.58,1.58,0,0,1,.63-.63,2.12,2.12,0,0,1,1.09-.26,2,2,0,0,1,1,.24,1.55,1.55,0,0,1,.65.71,2.63,2.63,0,0,1,.23,1.14v3.19h-.53v-3.09a1.92,1.92,0,0,0-.39-1.3,1.4,1.4,0,0,0-1.11-.44,1.66,1.66,0,0,0-.86.2,1.42,1.42,0,0,0-.54.52,1.33,1.33,0,0,0-.19.69v3.42Z"/>
        <path class="cls-1" d="M38.6,628.41a2.51,2.51,0,0,1-1.3-.35,2.68,2.68,0,0,1-.92-1,3.13,3.13,0,0,1,0-2.8,2.6,2.6,0,0,1,.92-1,2.49,2.49,0,0,1,1.31-.35,2.42,2.42,0,0,1,1.3.36,2.39,2.39,0,0,1,.89,1v-4.66h.53v8.61H40.8v-1.19a2.39,2.39,0,0,1-.9,1A2.42,2.42,0,0,1,38.6,628.41Zm.11-.47a2.12,2.12,0,0,0,1.1-.29,2,2,0,0,0,.75-.8,2.42,2.42,0,0,0,.27-1.16,2.49,2.49,0,0,0-.27-1.17,2,2,0,0,0-.75-.79,2.12,2.12,0,0,0-1.1-.29,2.06,2.06,0,0,0-1.09.29,2,2,0,0,0-.76.79,2.49,2.49,0,0,0-.27,1.17,2.42,2.42,0,0,0,.27,1.16,2,2,0,0,0,.75.8A2.12,2.12,0,0,0,38.71,627.94Z"/>
        <path class="cls-1" d="M2.76,752.41a2.92,2.92,0,0,1-1.08-.2,2.78,2.78,0,0,1-.88-.57,2.59,2.59,0,0,1-.59-.86,2.93,2.93,0,0,1,0-2.18,2.66,2.66,0,0,1,.58-.86,2.9,2.9,0,0,1,.88-.57,3,3,0,0,1,1.09-.2,3,3,0,0,1,1,.15,2.78,2.78,0,0,1,.8.43l-.24.36a2.32,2.32,0,0,0-1.47-.48,2.4,2.4,0,0,0-1.18.29,2.14,2.14,0,0,0-.8.81,2.46,2.46,0,0,0,0,2.32,2.05,2.05,0,0,0,.8.8,2.34,2.34,0,0,0,1.19.3,2.56,2.56,0,0,0,.79-.12,1.92,1.92,0,0,0,.66-.36l.25.36a2.54,2.54,0,0,1-.8.42A2.67,2.67,0,0,1,2.76,752.41Z"/>
        <path class="cls-1" d="M8.61,752.41a2.94,2.94,0,0,1-1.43-.35,2.61,2.61,0,0,1-1-.95,2.91,2.91,0,0,1,0-2.84,2.63,2.63,0,0,1,1-1A2.93,2.93,0,0,1,8.61,747a2.92,2.92,0,0,1,1.42.34,2.63,2.63,0,0,1,1,1,2.91,2.91,0,0,1,0,2.84,2.61,2.61,0,0,1-1,.95A2.93,2.93,0,0,1,8.61,752.41Zm0-.49a2.3,2.3,0,0,0,1.15-.28,2.05,2.05,0,0,0,.8-.8,2.35,2.35,0,0,0,0-2.3,2.05,2.05,0,0,0-.8-.8,2.3,2.3,0,0,0-1.15-.28,2.32,2.32,0,0,0-1.16.28,2.05,2.05,0,0,0-.8.8,2.43,2.43,0,0,0,0,2.3,2.05,2.05,0,0,0,.8.8A2.32,2.32,0,0,0,8.61,751.92Z"/>
        <path class="cls-1" d="M13.24,752.25v-5.12h.53v.73a1.89,1.89,0,0,1,.72-.66,2.13,2.13,0,0,1,1-.23,2.08,2.08,0,0,1,1.11.29,1.47,1.47,0,0,1,.63.82,2.3,2.3,0,0,1,.74-.81,2.22,2.22,0,0,1,2.08-.08,1.74,1.74,0,0,1,.67.65,2.09,2.09,0,0,1,.24,1v3.36h-.53V749a1.74,1.74,0,0,0-.39-1.19,1.34,1.34,0,0,0-1-.43,1.65,1.65,0,0,0-.83.2,1.52,1.52,0,0,0-.58.51,1.07,1.07,0,0,0-.22.63v3.49h-.53V749a1.6,1.6,0,0,0-.39-1.13,1.31,1.31,0,0,0-1-.41,1.74,1.74,0,0,0-.82.19,1.82,1.82,0,0,0-.6.48,1,1,0,0,0-.23.6v3.56Z"/>
        <path class="cls-1" d="M23.1,754.85v-7.72h.53v1.16a2.38,2.38,0,0,1,.89-1,2.51,2.51,0,0,1,1.3-.35,2.5,2.5,0,0,1,2.23,1.32,2.93,2.93,0,0,1,.34,1.4,2.89,2.89,0,0,1-.34,1.39,2.52,2.52,0,0,1-3.52,1,2.39,2.39,0,0,1-.9-1v3.79Zm2.63-2.91a2.09,2.09,0,0,0,1.09-.29,2,2,0,0,0,.75-.8,2.32,2.32,0,0,0,.28-1.16,2.38,2.38,0,0,0-.28-1.17,2,2,0,0,0-.75-.79,2.06,2.06,0,0,0-1.09-.29,2.16,2.16,0,0,0-1.11.29,2,2,0,0,0-.75.79,2.46,2.46,0,0,0-.27,1.17,2.42,2.42,0,0,0,.27,1.16,2,2,0,0,0,.76.8A2.12,2.12,0,0,0,25.73,751.94Z"/>
        <path class="cls-1" d="M30.27,752.25v-8.6h.53v8.6Z"/>
        <path class="cls-1" d="M33.29,746.12a.32.32,0,0,1-.18-.06.35.35,0,0,1-.14-.13.39.39,0,0,1,0-.18.36.36,0,0,1,0-.19.47.47,0,0,1,.14-.14.39.39,0,0,1,.18,0,.36.36,0,0,1,.19,0,.47.47,0,0,1,.14.14.35.35,0,0,1,.05.18.41.41,0,0,1-.05.19.35.35,0,0,1-.14.13A.29.29,0,0,1,33.29,746.12ZM33,752.25v-5.12h.53v5.12Z"/>
        <path class="cls-1" d="M38.18,752.41a3,3,0,0,1-1.08-.2,2.9,2.9,0,0,1-.88-.57,2.56,2.56,0,0,1-.58-.86,3,3,0,0,1,0-2.18,2.86,2.86,0,0,1,.59-.86,2.78,2.78,0,0,1,.88-.57,2.92,2.92,0,0,1,1.08-.2,3,3,0,0,1,1,.15,2.92,2.92,0,0,1,.8.43l-.24.36a2.33,2.33,0,0,0-1.48-.48,2.36,2.36,0,0,0-1.17.29,2.25,2.25,0,0,0-.81.81,2.54,2.54,0,0,0,0,2.32,2.14,2.14,0,0,0,.81.8,2.3,2.3,0,0,0,1.18.3,2.56,2.56,0,0,0,.79-.12,2.07,2.07,0,0,0,.67-.36l.25.36a2.65,2.65,0,0,1-.8.42A2.76,2.76,0,0,1,38.18,752.41Z"/>
        <path class="cls-1" d="M43.76,752.41a2.48,2.48,0,0,1-1.3-.35,2.6,2.6,0,0,1-.92-1,3.05,3.05,0,0,1,0-2.8,2.57,2.57,0,0,1,.91-1,2.52,2.52,0,0,1,1.31-.35,2.47,2.47,0,0,1,1.32.36,2.18,2.18,0,0,1,.88,1v-1.17h.53v5.12H46v-1.19a2.54,2.54,0,0,1-.9,1A2.42,2.42,0,0,1,43.76,752.41Zm.11-.47a2.12,2.12,0,0,0,1.1-.29,2,2,0,0,0,.75-.8,2.42,2.42,0,0,0,.27-1.16,2.46,2.46,0,0,0-.27-1.17,2,2,0,0,0-.75-.79,2.23,2.23,0,0,0-2.2,0,2,2,0,0,0-.75.79,2.47,2.47,0,0,0-.28,1.17,2.43,2.43,0,0,0,.28,1.16,2,2,0,0,0,.75.8A2.12,2.12,0,0,0,43.87,751.94Z"/>
        <path class="cls-1" d="M49.81,752.41a1,1,0,0,1-.82-.36,1.64,1.64,0,0,1-.28-1v-3.49h-.49v-.4h.49v-1.91h.52v1.91h1.31v.4H49.23V751a1.15,1.15,0,0,0,.18.7.58.58,0,0,0,.5.24.83.83,0,0,0,.54-.17l.13.43a1.42,1.42,0,0,1-.35.15A1.52,1.52,0,0,1,49.81,752.41Z"/>
        <path class="cls-1" d="M54.63,752.41a2.81,2.81,0,0,1-1.43-.36,2.59,2.59,0,0,1-1.33-2.33,2.71,2.71,0,0,1,.78-2,2.62,2.62,0,0,1,.85-.58,2.53,2.53,0,0,1,1-.21,2.63,2.63,0,0,1,1.31.33,2.59,2.59,0,0,1,.94.92,2.69,2.69,0,0,1,.39,1.33v.18H52.38a2.31,2.31,0,0,0,.29,1.15,2.05,2.05,0,0,0,.81.79,2.48,2.48,0,0,0,2.29,0,2,2,0,0,0,.81-.75l.4.23a2.45,2.45,0,0,1-1,.91A2.86,2.86,0,0,1,54.63,752.41Zm-2.22-3.1h4.23a2.14,2.14,0,0,0-.35-1,2.19,2.19,0,0,0-.75-.67,2,2,0,0,0-1-.25,2.06,2.06,0,0,0-1,.25,2.09,2.09,0,0,0-.75.67A2,2,0,0,0,52.41,749.31Z"/>
        <path class="cls-1" d="M61.16,752.41a2.51,2.51,0,0,1-1.3-.35,2.57,2.57,0,0,1-.91-1,2.82,2.82,0,0,1-.34-1.4,2.9,2.9,0,0,1,.33-1.4,2.6,2.6,0,0,1,.92-1,2.52,2.52,0,0,1,1.31-.35,2.42,2.42,0,0,1,1.3.36,2.32,2.32,0,0,1,.89,1v-4.66h.53v8.61h-.53v-1.19a2.39,2.39,0,0,1-.9,1A2.42,2.42,0,0,1,61.16,752.41Zm.11-.47a2.12,2.12,0,0,0,1.1-.29,2,2,0,0,0,.75-.8,2.42,2.42,0,0,0,.27-1.16,2.49,2.49,0,0,0-.27-1.17,2,2,0,0,0-.75-.79,2.12,2.12,0,0,0-1.1-.29,2.07,2.07,0,0,0-1.85,1.08,2.49,2.49,0,0,0-.27,1.17,2.42,2.42,0,0,0,.27,1.16,2,2,0,0,0,.75.8A2.12,2.12,0,0,0,61.27,751.94Z"/>
        <path class="cls-1" d="M25.38,876.25v-8.6h.53v8.6Z"/>
        <path class="cls-1" d="M28.4,870.12a.32.32,0,0,1-.18-.06.35.35,0,0,1-.14-.13.39.39,0,0,1,0-.18.36.36,0,0,1,0-.19.47.47,0,0,1,.14-.14.39.39,0,0,1,.18,0,.38.38,0,0,1,.19,0,.35.35,0,0,1,.13.14.28.28,0,0,1,.06.18.33.33,0,0,1-.06.19.27.27,0,0,1-.13.13A.31.31,0,0,1,28.4,870.12Zm-.26,6.13v-5.12h.53v5.12Z"/>
        <path class="cls-1" d="M31,876.25v-4.72h-.48v-.4H31v-2a2.35,2.35,0,0,1,.15-.9,1.12,1.12,0,0,1,.43-.56,1.29,1.29,0,0,1,.72-.19,1.53,1.53,0,0,1,.49.07,1.07,1.07,0,0,1,.38.2l-.19.38a.93.93,0,0,0-.59-.19.83.83,0,0,0-.48.14.79.79,0,0,0-.28.4,1.65,1.65,0,0,0-.1.62v2h1.33v.4H31.52v4.72Z"/>
        <path class="cls-1" d="M36.8,876.41a2.81,2.81,0,0,1-1.43-.36A2.59,2.59,0,0,1,34,873.72a2.71,2.71,0,0,1,.78-2,2.62,2.62,0,0,1,.85-.58,2.53,2.53,0,0,1,1-.21,2.63,2.63,0,0,1,1.31.33,2.59,2.59,0,0,1,.94.92,2.69,2.69,0,0,1,.39,1.33v.18H34.55a2.31,2.31,0,0,0,.29,1.15,2.05,2.05,0,0,0,.81.79,2.48,2.48,0,0,0,2.29,0,2,2,0,0,0,.81-.75l.4.23a2.45,2.45,0,0,1-1,.91A2.86,2.86,0,0,1,36.8,876.41Zm-2.22-3.1h4.23a2.14,2.14,0,0,0-.35-1,2.19,2.19,0,0,0-.75-.67,2,2,0,0,0-1-.25,2.06,2.06,0,0,0-1,.25,2.09,2.09,0,0,0-.75.67A2,2,0,0,0,34.58,873.31Z"/>
        <path class="cls-1" d="M23.78,1000.25l-2.43-5.12H22l2,4.32,1.69-4.32H26l1.68,4.32,2-4.32h.6l-2.43,5.12h-.35L25.81,996l-1.68,4.24Z"/>
        <path class="cls-1" d="M32.07,994.12a.33.33,0,0,1-.19-.06.33.33,0,0,1-.13-.13.31.31,0,0,1-.05-.18.29.29,0,0,1,.05-.19.44.44,0,0,1,.13-.14.47.47,0,0,1,.38,0,.44.44,0,0,1,.13.14.35.35,0,0,1,0,.18.41.41,0,0,1,0,.19.33.33,0,0,1-.13.13A.33.33,0,0,1,32.07,994.12Zm-.27,6.13v-5.12h.53v5.12Z"/>
        <path class="cls-1" d="M35.73,1000.41a1,1,0,0,1-.82-.36,1.64,1.64,0,0,1-.29-1v-3.49h-.48v-.4h.48v-1.91h.53v1.91h1.31v.4H35.15V999a1.15,1.15,0,0,0,.18.7.57.57,0,0,0,.5.24.8.8,0,0,0,.53-.17l.14.43a1.6,1.6,0,0,1-.35.15A1.52,1.52,0,0,1,35.73,1000.41Z"/>
        <path class="cls-1" d="M38.16,1000.25v-8.61h.53v4.22a1.72,1.72,0,0,1,.63-.63,2.16,2.16,0,0,1,1.1-.26,2.08,2.08,0,0,1,1,.24,1.6,1.6,0,0,1,.65.71,2.64,2.64,0,0,1,.22,1.14v3.19h-.53v-3.09a1.92,1.92,0,0,0-.39-1.3,1.39,1.39,0,0,0-1.11-.45,1.72,1.72,0,0,0-.85.2,1.48,1.48,0,0,0-.55.53,1.43,1.43,0,0,0-.19.69v3.42Z"/>
        <path class="cls-1" d="M29.1,1124.41a2.48,2.48,0,0,1-1.3-.35,2.6,2.6,0,0,1-.92-1,3.05,3.05,0,0,1,0-2.8,2.57,2.57,0,0,1,.91-1,2.52,2.52,0,0,1,1.31-.35,2.47,2.47,0,0,1,1.32.36,2.18,2.18,0,0,1,.88,1v-1.17h.53v5.12H31.3v-1.19a2.54,2.54,0,0,1-.9,1A2.42,2.42,0,0,1,29.1,1124.41Zm.11-.47a2.12,2.12,0,0,0,1.1-.29,2,2,0,0,0,.75-.8,2.42,2.42,0,0,0,.27-1.16,2.46,2.46,0,0,0-.27-1.17,2,2,0,0,0-.75-.79,2.23,2.23,0,0,0-2.2,0,2,2,0,0,0-.75.79,2.46,2.46,0,0,0-.27,1.17,2.42,2.42,0,0,0,.27,1.16,2,2,0,0,0,.75.8A2.12,2.12,0,0,0,29.21,1123.94Z"/>
        <path class="cls-1" d="M34.07,1124.25v-8.6h.53v8.6Z"/>
        <path class="cls-1" d="M36.84,1124.25v-8.6h.53v8.6Z"/>
        <path class="cls-1" d="M18.43,1248.41a1,1,0,0,1-.82-.36,1.64,1.64,0,0,1-.29-1v-3.49h-.48v-.4h.48v-1.91h.53v1.91h1.31v.4H17.85V1247a1.15,1.15,0,0,0,.18.7.57.57,0,0,0,.5.24.79.79,0,0,0,.53-.17l.14.43a1.6,1.6,0,0,1-.35.15A1.52,1.52,0,0,1,18.43,1248.41Z"/>
        <path class="cls-1" d="M20.86,1248.25v-8.61h.53v4.22a1.72,1.72,0,0,1,.63-.63,2.16,2.16,0,0,1,1.1-.26,2.08,2.08,0,0,1,1,.24,1.6,1.6,0,0,1,.65.71,2.64,2.64,0,0,1,.22,1.14v3.19h-.53v-3.09a1.92,1.92,0,0,0-.39-1.3,1.39,1.39,0,0,0-1.11-.45,1.75,1.75,0,0,0-.85.2,1.48,1.48,0,0,0-.55.53,1.43,1.43,0,0,0-.19.69v3.42Z"/>
        <path class="cls-1" d="M29.55,1248.41a2.79,2.79,0,0,1-1.43-.36,2.62,2.62,0,0,1-1.34-2.33,2.74,2.74,0,0,1,.21-1.08,2.9,2.9,0,0,1,.57-.88,2.73,2.73,0,0,1,.85-.58,2.6,2.6,0,0,1,1-.21,2.67,2.67,0,0,1,1.32.33,2.59,2.59,0,0,1,.94.92,2.69,2.69,0,0,1,.39,1.33v.18H27.3a2.31,2.31,0,0,0,.29,1.15,2.09,2.09,0,0,0,.8.79,2.39,2.39,0,0,0,1.17.29,2.33,2.33,0,0,0,1.13-.27,2,2,0,0,0,.81-.75l.4.23a2.45,2.45,0,0,1-1,.91A2.86,2.86,0,0,1,29.55,1248.41Zm-2.22-3.1h4.23a2.12,2.12,0,0,0-1.11-1.64,2,2,0,0,0-1-.25,2,2,0,0,0-1,.25,1.94,1.94,0,0,0-.75.67A2,2,0,0,0,27.33,1245.31Z"/>
        <path class="cls-1" d="M35.14,1248.41a1.86,1.86,0,0,1-1.1-.33,2,2,0,0,1-.73-.95l.32-.26a1.91,1.91,0,0,0,.61.82,1.47,1.47,0,0,0,.9.29,1.39,1.39,0,0,0,.64-.14,1.27,1.27,0,0,0,.47-.42,1.23,1.23,0,0,0,.17-.65.82.82,0,0,0-.15-.52,1.38,1.38,0,0,0-.46-.32l-.72-.3a6.22,6.22,0,0,1-.64-.29,1.55,1.55,0,0,1-.52-.42,1,1,0,0,1-.2-.64,1.19,1.19,0,0,1,.19-.67,1.48,1.48,0,0,1,.55-.47,1.79,1.79,0,0,1,.78-.17,1.73,1.73,0,0,1,.81.2,2,2,0,0,1,.63.58l-.29.28a1.31,1.31,0,0,0-1.15-.65,1.12,1.12,0,0,0-.74.24.81.81,0,0,0-.28.64.65.65,0,0,0,.16.46,1.27,1.27,0,0,0,.43.3c.18.08.38.17.6.25a7,7,0,0,1,.8.35,1.28,1.28,0,0,1,.53.43,1.15,1.15,0,0,1,.19.71,1.57,1.57,0,0,1-.23.87,1.63,1.63,0,0,1-.64.58A2.12,2.12,0,0,1,35.14,1248.41Z"/>
        <path class="cls-1" d="M41.15,1248.41a2.79,2.79,0,0,1-1.43-.36,2.58,2.58,0,0,1-1-1,2.64,2.64,0,0,1-.36-1.37,2.74,2.74,0,0,1,.21-1.08,2.9,2.9,0,0,1,.57-.88,2.73,2.73,0,0,1,.85-.58,2.6,2.6,0,0,1,1-.21,2.67,2.67,0,0,1,1.32.33,2.59,2.59,0,0,1,.94.92,2.69,2.69,0,0,1,.39,1.33v.18H38.9a2.31,2.31,0,0,0,.29,1.15,2,2,0,0,0,.8.79,2.39,2.39,0,0,0,1.17.29,2.33,2.33,0,0,0,1.13-.27,2.08,2.08,0,0,0,.81-.75l.4.23a2.45,2.45,0,0,1-1,.91A2.86,2.86,0,0,1,41.15,1248.41Zm-2.22-3.1h4.23a2.12,2.12,0,0,0-1.11-1.64,2,2,0,0,0-1-.25,2,2,0,0,0-1,.25,1.94,1.94,0,0,0-.75.67A2,2,0,0,0,38.93,1245.31Z"/>
        <path class="cls-1" d="M46.24,1248.41a.41.41,0,0,1-.19-.05.54.54,0,0,1-.15-.15.42.42,0,0,1,0-.2.41.41,0,0,1,0-.19.5.5,0,0,1,.15-.14.33.33,0,0,1,.19-.06.36.36,0,0,1,.2.06.47.47,0,0,1,.14.14.41.41,0,0,1,.05.19.42.42,0,0,1-.05.2.5.5,0,0,1-.14.15A.46.46,0,0,1,46.24,1248.41Z"/>
      </g>
    </g>
  </g>
</svg>
