<svg xmlns="http://www.w3.org/2000/svg" viewBox="0 0 89.28 943.98">
  <defs>
    <style>
      .cls-1 {
        fill: gray;
      }
    </style>
  </defs>
  <g id="Layer_2" data-name="Layer 2">
    <g id="Layer_1-2" data-name="Layer 1">
      <g>
        <path class="cls-1" d="M25.61,11.94H28.8c2,0,2.83-.58,4.54-2.58h.14L32,12.6H23.15v-.12a2.2,2.2,0,0,0,1.58-1.86L26.89,2A4,4,0,0,0,27,1.19c0-.54-.27-.74-.81-1.06V0h3.47V.13A2.19,2.19,0,0,0,28.1,2Z"/>
        <path class="cls-1" d="M34.33,9.36c0-2.73,2.08-5.65,4.91-5.65,1.6,0,2.56.74,2.56,2,0,1.87-2.16,2.68-6.12,2.9a5.06,5.06,0,0,0-.06.79C35.62,11,36.47,12,38,12a3.58,3.58,0,0,0,2.93-1.72l.31.16a3.92,3.92,0,0,1-3.64,2.37C35.5,12.78,34.33,11.45,34.33,9.36ZM35.78,8c2.63-.13,4.72-.43,4.72-2.41a1.11,1.11,0,0,0-1.26-1.14C37.4,4.41,36.18,6.09,35.78,8Z"/>
        <path class="cls-1" d="M44,10.43a2,2,0,0,0-.07.5c0,.63.4.92,1.15.92a6.88,6.88,0,0,0,1.89-.34v.21a5.07,5.07,0,0,1-2.63,1.06,1.5,1.5,0,0,1-1.61-1.6,2.77,2.77,0,0,1,.09-.68l1.45-5.93H42.8l.13-.46c1.55-.36,2.25-1.39,3-3.17h.47l-.76,3h2.58l-.27.68H45.41Z"/>
        <path class="cls-1" d="M56.79,9.92a4.76,4.76,0,0,1-3.89,2.86,1.7,1.7,0,0,1-1.78-1.92,3.82,3.82,0,0,1,.12-1l1-4.19a1.65,1.65,0,0,0,.05-.42c0-.63-.45-1-1-1.29V3.89h2.59l-1.49,6a3,3,0,0,0-.11.81c0,.76.36,1.24,1.15,1.24,1.51,0,3.29-1.85,4-4.77l.82-3.24h1.15l-1.75,7a1.68,1.68,0,0,0,0,.41c0,.41.29.65.75.65a3.46,3.46,0,0,0,1.15-.24v.18a3.09,3.09,0,0,1-1.9.9,1.1,1.1,0,0,1-1.17-1.24,2.77,2.77,0,0,1,.09-.68Z"/>
        <path class="cls-1" d="M64.46,4.41c-1.17,0-1.91.56-1.91,1.44,0,.65.49,1.08,1.8,1.84,1.58.9,2.09,1.55,2.09,2.5,0,1.55-1.46,2.59-3.28,2.59s-3.2-1-3.2-2.12a1,1,0,0,1,1-1,1.49,1.49,0,0,1,.47.07,1.06,1.06,0,0,0-.25.72,1.72,1.72,0,0,0,1.94,1.64c1.15,0,2.14-.52,2.14-1.51,0-.63-.41-1.19-1.71-1.89s-2.16-1.39-2.16-2.49c0-1.42,1.32-2.5,3-2.5s2.83.83,2.83,1.87a1,1,0,0,1-1.12,1,2,2,0,0,1-.36,0A1.2,1.2,0,0,0,66,5.74C66,5,65.45,4.41,64.46,4.41Z"/>
        <path class="cls-1" d="M10.47,78.54a2.27,2.27,0,0,0,0-.42c0-.63-.45-1-1-1.29v-.11h2.58l-1.71,6.89a4,4,0,0,1,3.38-2.3c1.73,0,2.78,1.26,2.78,3.26,0,3-1.88,5.81-4.9,5.81A2.6,2.6,0,0,1,9,88.6a6.83,6.83,0,0,1-1.28,1.69H7.53Zm2.88,3.58c-1.5,0-3.06,1.62-3.51,3.55l-.2.84a5,5,0,0,0-.11,1,2,2,0,0,0,2,2.18c2.28,0,3.65-2.67,3.65-5.08C15.22,83.07,14.61,82.12,13.35,82.12Z"/>
        <path class="cls-1" d="M17.41,87c0-2.73,2.09-5.65,4.92-5.65,1.6,0,2.56.74,2.56,2,0,1.87-2.16,2.69-6.12,2.9a5.06,5.06,0,0,0-.06.79c0,1.64.85,2.61,2.32,2.61A3.6,3.6,0,0,0,24,87.85l.3.16a3.89,3.89,0,0,1-3.63,2.37C18.58,90.38,17.41,89.05,17.41,87Zm1.46-1.4c2.63-.13,4.72-.43,4.72-2.41A1.11,1.11,0,0,0,22.33,82C20.49,82,19.27,83.69,18.87,85.56Z"/>
        <path class="cls-1" d="M31.58,88.12a3.81,3.81,0,0,1-3.28,2.26c-1.72,0-2.86-1.26-2.86-3.26,0-3,2.11-5.81,4.86-5.81A2.5,2.5,0,0,1,32.91,83a7.32,7.32,0,0,1,1.3-1.73h.22l-2.24,9c-.65,2.63-2.1,4-4.57,4-1.82,0-3.21-.9-3.21-2.17a1.07,1.07,0,0,1,1.09-1.15A1.5,1.5,0,0,1,26,91a1.26,1.26,0,0,0-.33.89c0,.93.7,1.69,2,1.69,2,0,2.92-1.32,3.44-3.39Zm.74-2.94a4.87,4.87,0,0,0,.11-1,2,2,0,0,0-2-2.18c-2.28,0-3.65,2.66-3.65,5.07,0,1.5.61,2.45,1.87,2.45,1.5,0,3.06-1.62,3.51-3.54Z"/>
        <path class="cls-1" d="M36.29,88.48a2.76,2.76,0,0,0-.07.45c0,.41.27.61.74.61a3.46,3.46,0,0,0,1.15-.24v.18a3.09,3.09,0,0,1-1.9.9,1.09,1.09,0,0,1-1.14-1.22,3.27,3.27,0,0,1,.09-.7l1.28-5.15a1.65,1.65,0,0,0,.05-.42c0-.63-.45-1-1-1.29v-.11H38ZM38,79.35a1,1,0,0,1,0-1.95,1,1,0,1,1,0,1.95Z"/>
        <path class="cls-1" d="M38.9,90.2l1.72-6.89a2.27,2.27,0,0,0,.05-.42c0-.63-.45-1-1-1.29v-.11h2.49l-.58,2.68a4.76,4.76,0,0,1,3.89-2.86,1.7,1.7,0,0,1,1.78,1.93,3.85,3.85,0,0,1-.12,1L46,88.48a2.26,2.26,0,0,0-.08.45c0,.39.25.61.74.61a3.51,3.51,0,0,0,1.15-.24v.18a3.12,3.12,0,0,1-1.9.9,1.1,1.1,0,0,1-1.17-1.24,2.89,2.89,0,0,1,.09-.68l1.06-4.22a3,3,0,0,0,.11-.75,1.09,1.09,0,0,0-1.19-1.24c-1.52,0-3.28,1.87-4,4.7l-.81,3.25Z"/>
        <path class="cls-1" d="M58,83.31a2.18,2.18,0,0,0,0-.42c0-.63-.43-1-1-1.29v-.11h2.58l-1.26,5.06a5.25,5.25,0,0,0-.2,1.42c0,1,.43,1.6,1.33,1.6,2.2,0,3.69-3.33,3.69-5.76,0-.88-.34-1.38-1.15-1.38a1.92,1.92,0,0,0-.86.19,1.44,1.44,0,0,1,1.38-1.31c1.1,0,1.59.92,1.59,2.07,0,3.13-2.07,7-5,7-1.31,0-2-.88-2-2.32A3.44,3.44,0,0,1,54,90.38c-1.44,0-2.12-.91-2.12-2.3a6.39,6.39,0,0,1,.19-1.41l.83-3.36a1.7,1.7,0,0,0,.06-.42c0-.63-.46-1-1-1.29v-.11h2.57L53.2,86.66A5.73,5.73,0,0,0,53,88c0,1,.47,1.54,1.37,1.54,1.47,0,2.5-1.69,2.9-3.31Z"/>
        <path class="cls-1" d="M66.32,88.48a2,2,0,0,0-.07.45c0,.41.27.61.73.61a3.56,3.56,0,0,0,1.16-.24v.18a3.14,3.14,0,0,1-1.91.9,1.09,1.09,0,0,1-1.14-1.22,2.75,2.75,0,0,1,.1-.7l1.27-5.15a1.7,1.7,0,0,0,.06-.42c0-.63-.45-1-1-1.29v-.11h2.58Zm1.73-9.13a1,1,0,1,1,1-1A1,1,0,0,1,68.05,79.35Z"/>
        <path class="cls-1" d="M70.73,88a2,2,0,0,0-.07.5c0,.63.39.92,1.15.92a6.94,6.94,0,0,0,1.89-.34v.21a5.07,5.07,0,0,1-2.63,1.06,1.51,1.51,0,0,1-1.62-1.6,3.35,3.35,0,0,1,.09-.68L71,82.17H69.56l.13-.46c1.54-.36,2.25-1.39,3-3.17h.47l-.76,2.95h2.57l-.27.68H72.17Z"/>
        <path class="cls-1" d="M77.14,84.17A4.76,4.76,0,0,1,81,81.31a1.71,1.71,0,0,1,1.78,1.93,3.79,3.79,0,0,1-.13,1l-1.06,4.29a2.16,2.16,0,0,0-.07.45c0,.39.25.61.74.61a3.56,3.56,0,0,0,1.15-.24v.18a3.12,3.12,0,0,1-1.91.9,1.1,1.1,0,0,1-1.17-1.24,3.54,3.54,0,0,1,.09-.68l1.06-4.22a3,3,0,0,0,.11-.75,1.09,1.09,0,0,0-1.19-1.24c-1.51,0-3.28,1.87-4,4.7l-.81,3.25H74.49l2.9-11.66a2.27,2.27,0,0,0,0-.42c0-.63-.45-1-1-1.29v-.11H79Z"/>
        <path class="cls-1" d="M24.71,165.62a1.77,1.77,0,0,0-.08.51c0,.63.4.92,1.16.92a7,7,0,0,0,1.89-.34v.21A5.14,5.14,0,0,1,25.05,168a1.51,1.51,0,0,1-1.62-1.6,2.77,2.77,0,0,1,.09-.68L25,159.77H23.53l.13-.46c1.55-.36,2.25-1.39,2.95-3.17h.47l-.76,3H28.9l-.27.68H26.14Z"/>
        <path class="cls-1" d="M31.11,161.77A4.77,4.77,0,0,1,35,158.91a1.71,1.71,0,0,1,1.79,1.93,3.79,3.79,0,0,1-.13.95l-1.06,4.29a2.16,2.16,0,0,0-.07.45c0,.39.25.61.73.61a3.56,3.56,0,0,0,1.16-.24v.18a3.14,3.14,0,0,1-1.91.9,1.1,1.1,0,0,1-1.17-1.24,2.89,2.89,0,0,1,.09-.68l1.06-4.22a3,3,0,0,0,.11-.75,1.09,1.09,0,0,0-1.19-1.24c-1.51,0-3.28,1.87-4,4.69l-.81,3.26H28.47l2.9-11.66a2.37,2.37,0,0,0,.05-.42c0-.63-.45-.95-1-1.29v-.11H33Z"/>
        <path class="cls-1" d="M38.19,164.56c0-2.73,2.09-5.65,4.91-5.65,1.6,0,2.56.74,2.56,2,0,1.87-2.16,2.68-6.12,2.9a5.06,5.06,0,0,0-.06.79c0,1.64.85,2.61,2.32,2.61a3.59,3.59,0,0,0,2.94-1.72l.3.16A3.89,3.89,0,0,1,41.41,168C39.36,168,38.19,166.65,38.19,164.56Zm1.45-1.4c2.63-.13,4.72-.43,4.72-2.41a1.11,1.11,0,0,0-1.26-1.14C41.27,159.61,40,161.29,39.64,163.16Z"/>
        <path class="cls-1" d="M50.19,159.61c-1.17,0-1.9.56-1.9,1.44,0,.65.48,1.08,1.8,1.84,1.58.9,2.08,1.55,2.08,2.5,0,1.55-1.46,2.59-3.27,2.59s-3.21-1-3.21-2.12a1,1,0,0,1,1.05-1,1.49,1.49,0,0,1,.47.07,1.06,1.06,0,0,0-.26.72,1.73,1.73,0,0,0,1.95,1.64c1.15,0,2.14-.52,2.14-1.51,0-.63-.42-1.19-1.71-1.89s-2.16-1.39-2.16-2.49a2.74,2.74,0,0,1,3-2.5c1.75,0,2.83.83,2.83,1.87a1,1,0,0,1-1.12,1,2.09,2.09,0,0,1-.36,0,1.14,1.14,0,0,0,.24-.76C51.78,160.15,51.18,159.61,50.19,159.61Z"/>
        <path class="cls-1" d="M53.52,164.56c0-2.73,2.09-5.65,4.92-5.65,1.6,0,2.55.74,2.55,2,0,1.87-2.16,2.68-6.12,2.9a6.7,6.7,0,0,0,0,.79c0,1.64.84,2.61,2.32,2.61a3.6,3.6,0,0,0,2.94-1.72l.3.16A3.92,3.92,0,0,1,56.74,168C54.69,168,53.52,166.65,53.52,164.56Zm1.46-1.4c2.63-.13,4.72-.43,4.72-2.41a1.11,1.11,0,0,0-1.26-1.14C56.6,159.61,55.38,161.29,55,163.16Z"/>
        <path class="cls-1" d="M67.17,157.18a4,4,0,0,0,.12-.79c0-.54-.27-.74-.81-1.06v-.13H70v.13a2.19,2.19,0,0,0-1.59,1.85l-2.16,8.64a4.08,4.08,0,0,0-.12.8c0,.54.27.73.8,1.06v.12H63.42v-.12A2.2,2.2,0,0,0,65,165.82Z"/>
        <path class="cls-1" d="M26.49,242.72a4.76,4.76,0,0,1-3.89,2.86,1.7,1.7,0,0,1-1.78-1.92,3.76,3.76,0,0,1,.12-1l1-4.19a2.27,2.27,0,0,0,.05-.42c0-.63-.45-1-1-1.29v-.11h2.6l-1.5,6a3.49,3.49,0,0,0-.11.81,1.08,1.08,0,0,0,1.16,1.24c1.51,0,3.29-1.85,4-4.77l.81-3.24h1.15l-1.74,7a1.76,1.76,0,0,0-.06.41c0,.41.29.65.76.65a3.46,3.46,0,0,0,1.15-.24v.18a3.09,3.09,0,0,1-1.91.9,1.11,1.11,0,0,1-1.17-1.24,3.35,3.35,0,0,1,.09-.68Z"/>
        <path class="cls-1" d="M34.15,237.21c-1.17,0-1.9.56-1.9,1.44,0,.65.48,1.08,1.8,1.84,1.58.9,2.08,1.55,2.08,2.5,0,1.55-1.45,2.59-3.27,2.59s-3.21-1-3.21-2.12a1,1,0,0,1,1.05-1,1.49,1.49,0,0,1,.47.07,1.06,1.06,0,0,0-.26.72,1.73,1.73,0,0,0,1.95,1.64c1.15,0,2.14-.52,2.14-1.51,0-.63-.41-1.19-1.71-1.89s-2.16-1.39-2.16-2.49a2.75,2.75,0,0,1,3-2.5c1.75,0,2.83.83,2.83,1.87a1,1,0,0,1-1.11,1,1.88,1.88,0,0,1-.36,0,1.2,1.2,0,0,0,.23-.76C35.74,237.75,35.14,237.21,34.15,237.21Z"/>
        <path class="cls-1" d="M37.48,242.16c0-2.73,2.09-5.65,4.92-5.65,1.6,0,2.56.74,2.56,2,0,1.87-2.17,2.68-6.13,2.9a6.7,6.7,0,0,0,0,.79c0,1.64.84,2.61,2.32,2.61A3.59,3.59,0,0,0,44,243l.3.17a3.9,3.9,0,0,1-3.63,2.37C38.65,245.58,37.48,244.25,37.48,242.16Zm1.46-1.4c2.63-.13,4.72-.43,4.72-2.41a1.11,1.11,0,0,0-1.26-1.14C40.56,237.21,39.34,238.89,38.94,240.76Z"/>
        <path class="cls-1" d="M50,243.23a2,2,0,0,0-.07.5c0,.63.4.92,1.15.92a6.88,6.88,0,0,0,1.89-.34v.21a5.07,5.07,0,0,1-2.63,1.06,1.51,1.51,0,0,1-1.62-1.6,3.35,3.35,0,0,1,.09-.68l1.46-5.93H48.84l.13-.46c1.55-.37,2.25-1.39,3-3.17h.47l-.76,2.95h2.58l-.27.68H51.45Z"/>
        <path class="cls-1" d="M56.42,239.37a4.76,4.76,0,0,1,3.89-2.86,1.7,1.7,0,0,1,1.78,1.93,3.79,3.79,0,0,1-.13.95l-1.06,4.29a3.13,3.13,0,0,0-.07.45c0,.39.25.61.74.61a3.51,3.51,0,0,0,1.15-.24v.18a3.12,3.12,0,0,1-1.91.9,1.11,1.11,0,0,1-1.17-1.24,3.54,3.54,0,0,1,.09-.68l1.06-4.22a2.62,2.62,0,0,0,.11-.75,1.09,1.09,0,0,0-1.19-1.24c-1.51,0-3.27,1.87-4,4.7l-.81,3.25H53.77l2.9-11.66a1.76,1.76,0,0,0,.06-.42c0-.63-.45-.95-1-1.29v-.11h2.58Z"/>
        <path class="cls-1" d="M63.49,242.16c0-2.73,2.09-5.65,4.92-5.65,1.6,0,2.55.74,2.55,2,0,1.87-2.16,2.68-6.12,2.9a6.7,6.7,0,0,0,0,.79c0,1.64.84,2.61,2.32,2.61A3.59,3.59,0,0,0,70.05,243l.3.17a3.91,3.91,0,0,1-3.64,2.37C64.66,245.58,63.49,244.25,63.49,242.16Zm1.46-1.4c2.63-.13,4.72-.43,4.72-2.41a1.11,1.11,0,0,0-1.26-1.14C66.57,237.21,65.35,238.89,65,240.76Z"/>
        <path class="cls-1" d="M14.17,321.28a2.76,2.76,0,0,0-.07.45c0,.41.26.61.74.61A3.46,3.46,0,0,0,16,322.1v.18a3.09,3.09,0,0,1-1.91.9A1.1,1.1,0,0,1,12.91,322a3.51,3.51,0,0,1,.11-.7l2.43-9.92a1.76,1.76,0,0,0,.06-.42c0-.63-.45-.95-1-1.29v-.11h2.57Z"/>
        <path class="cls-1" d="M16.89,319.76c0-2.73,2.09-5.65,4.92-5.65,1.6,0,2.55.74,2.55,2,0,1.87-2.16,2.68-6.12,2.9a6.7,6.7,0,0,0,0,.79c0,1.64.85,2.61,2.32,2.61a3.6,3.6,0,0,0,2.94-1.72l.3.16a3.9,3.9,0,0,1-3.63,2.37C18.06,323.18,16.89,321.85,16.89,319.76Zm1.46-1.4c2.63-.13,4.72-.43,4.72-2.41a1.11,1.11,0,0,0-1.26-1.14C20,314.81,18.75,316.49,18.35,318.36Z"/>
        <path class="cls-1" d="M31.87,321.28a1.85,1.85,0,0,0-.07.41c0,.43.23.65.72.65a3.56,3.56,0,0,0,1.15-.24v.18a3.12,3.12,0,0,1-1.91.9,1.09,1.09,0,0,1-1.15-1.24,3.45,3.45,0,0,1,.23-1.06,3.67,3.67,0,0,1-3.13,2.3c-1.67,0-2.79-1.27-2.79-3.26,0-3,2.07-5.81,4.73-5.81a2.35,2.35,0,0,1,2.51,1.69,7,7,0,0,1,1.28-1.69h.21Zm-.31-3.39a5.07,5.07,0,0,0,.15-1.06,1.77,1.77,0,0,0-1.91-2c-2.14,0-3.59,2.3-3.59,5.05,0,1.48.69,2.45,1.79,2.45,1.51,0,2.88-1.63,3.38-3.72Z"/>
        <path class="cls-1" d="M38.6,314.81c-1.17,0-1.91.56-1.91,1.44,0,.65.49,1.08,1.8,1.84,1.59.9,2.09,1.55,2.09,2.5,0,1.55-1.46,2.59-3.28,2.59s-3.2-1-3.2-2.12a1,1,0,0,1,1-1,1.45,1.45,0,0,1,.47.07,1.11,1.11,0,0,0-.25.72,1.72,1.72,0,0,0,1.94,1.64c1.16,0,2.15-.52,2.15-1.51,0-.63-.42-1.19-1.71-1.89s-2.16-1.39-2.16-2.49a2.74,2.74,0,0,1,3-2.5c1.75,0,2.83.83,2.83,1.87a1,1,0,0,1-1.12,1,2.09,2.09,0,0,1-.36,0,1.14,1.14,0,0,0,.24-.76C40.19,315.35,39.59,314.81,38.6,314.81Z"/>
        <path class="cls-1" d="M43.62,320.83a2,2,0,0,0-.07.5c0,.63.4.92,1.15.92a6.88,6.88,0,0,0,1.89-.34v.21A5.07,5.07,0,0,1,44,323.18a1.51,1.51,0,0,1-1.62-1.6,3.35,3.35,0,0,1,.09-.68L43.89,315H42.45l.13-.46c1.54-.36,2.25-1.39,3-3.17H46l-.76,3h2.58l-.27.68H45.06Z"/>
        <path class="cls-1" d="M51,324.44c-.44,1.68-1,2.62-2.31,2.62h-.11a9.35,9.35,0,0,0,1.61-3.84l2-8.25H50.88l.12-.46,1.37-.33.43-1.71c.5-2,1.75-3,3.33-3,1.28,0,1.95.56,1.95,1.3a1.13,1.13,0,0,1-1.21,1.12,2.11,2.11,0,0,1-.38,0,1.75,1.75,0,0,0,.4-1c0-.5-.27-.81-.94-.81-1.1,0-1.67.88-1.92,2.11l-.45,2.14H56l-.28.68H53.38Z"/>
        <path class="cls-1" d="M56.71,321.28a2,2,0,0,0-.08.45c0,.41.27.61.74.61a3.56,3.56,0,0,0,1.16-.24v.18a3.14,3.14,0,0,1-1.91.9A1.09,1.09,0,0,1,55.48,322a3.27,3.27,0,0,1,.09-.7l1.28-5.15a1.65,1.65,0,0,0,0-.42c0-.63-.44-.95-1-1.29v-.11h2.57Zm1.73-9.13a1,1,0,1,1,1-1A1,1,0,0,1,58.44,312.15Z"/>
        <path class="cls-1" d="M61.87,317.31c.81-1.53,2-3.2,3.48-3.2a1,1,0,0,1,1.1.95,1.16,1.16,0,0,1-1.23,1.17.86.86,0,0,0,.15-.45c0-.3-.22-.55-.67-.55-1.17,0-2.86,2.32-3.37,4.32L60.47,323H59.32L61,316.11a2.27,2.27,0,0,0,0-.42c0-.63-.45-.95-1-1.29v-.11h2.58Z"/>
        <path class="cls-1" d="M70.22,314.81c-1.17,0-1.9.56-1.9,1.44,0,.65.48,1.08,1.8,1.84,1.58.9,2.09,1.55,2.09,2.5,0,1.55-1.46,2.59-3.28,2.59s-3.21-1-3.21-2.12a1,1,0,0,1,1-1,1.49,1.49,0,0,1,.47.07,1.06,1.06,0,0,0-.26.72,1.73,1.73,0,0,0,2,1.64c1.15,0,2.14-.52,2.14-1.51,0-.63-.41-1.19-1.71-1.89s-2.16-1.39-2.16-2.49a2.74,2.74,0,0,1,3-2.5c1.75,0,2.83.83,2.83,1.87a1,1,0,0,1-1.11,1,2.1,2.1,0,0,1-.37,0,1.14,1.14,0,0,0,.24-.76C71.81,315.35,71.21,314.81,70.22,314.81Z"/>
        <path class="cls-1" d="M75.25,320.83a1.66,1.66,0,0,0-.08.5c0,.63.4.92,1.16.92a7,7,0,0,0,1.89-.34v.21a5.14,5.14,0,0,1-2.63,1.06,1.51,1.51,0,0,1-1.62-1.6,2.77,2.77,0,0,1,.09-.68L75.52,315H74.07l.13-.46c1.55-.36,2.25-1.39,3-3.17h.47l-.75,3h2.57l-.27.68H76.69Z"/>
        <path class="cls-1" d="M17.62,398.88a2.7,2.7,0,0,0-.07.41c0,.43.24.65.72.65a3.46,3.46,0,0,0,1.15-.24v.18a3.09,3.09,0,0,1-1.9.9,1.1,1.1,0,0,1-1.16-1.24,3.22,3.22,0,0,1,.24-1.06,3.7,3.7,0,0,1-3.14,2.3c-1.67,0-2.79-1.27-2.79-3.25,0-3,2.07-5.82,4.74-5.82a2.35,2.35,0,0,1,2.5,1.69,7,7,0,0,1,1.28-1.69h.22Zm-.3-3.39a5,5,0,0,0,.14-1.06,1.76,1.76,0,0,0-1.91-2c-2.14,0-3.58,2.3-3.58,5.06,0,1.47.68,2.44,1.78,2.44,1.52,0,2.88-1.63,3.39-3.72Z"/>
        <path class="cls-1" d="M20.2,400.6l1.71-6.89a2.27,2.27,0,0,0,.05-.42c0-.63-.45-1-1-1.29v-.11h2.49l-.58,2.68a4.76,4.76,0,0,1,3.89-2.86,1.7,1.7,0,0,1,1.78,1.93,3.85,3.85,0,0,1-.12.95l-1.06,4.29a2.26,2.26,0,0,0-.08.45c0,.39.26.61.74.61a3.46,3.46,0,0,0,1.15-.24v.18a3.09,3.09,0,0,1-1.9.9,1.1,1.1,0,0,1-1.17-1.24,2.89,2.89,0,0,1,.09-.68l1.06-4.22a3,3,0,0,0,.11-.75,1.09,1.09,0,0,0-1.19-1.24c-1.52,0-3.28,1.87-4,4.7l-.81,3.25Z"/>
        <path class="cls-1" d="M36.05,398.48a3.87,3.87,0,0,1-3.29,2.3c-1.73,0-2.86-1.26-2.86-3.25,0-3,2.1-5.82,4.86-5.82a2.46,2.46,0,0,1,2.54,1.78l1.1-4.55a2.18,2.18,0,0,0,.05-.42c0-.63-.43-.95-1-1.29v-.11H40l-2.88,11.76a2.26,2.26,0,0,0-.08.45c0,.41.24.61.73.61a3.56,3.56,0,0,0,1.15-.24v.18a3.12,3.12,0,0,1-1.91.9,1.1,1.1,0,0,1-1.17-1.24A3.3,3.3,0,0,1,36.05,398.48Zm.73-2.9a4.8,4.8,0,0,0,.1-.95,2,2,0,0,0-2-2.18c-2.29,0-3.66,2.66-3.66,5.08,0,1.49.62,2.44,1.88,2.44,1.49,0,3.06-1.62,3.51-3.54Z"/>
        <path class="cls-1" d="M44.41,398.43a1.66,1.66,0,0,0-.08.5c0,.63.4.92,1.16.92a7,7,0,0,0,1.89-.34v.21a5.14,5.14,0,0,1-2.63,1.06,1.51,1.51,0,0,1-1.62-1.6,2.77,2.77,0,0,1,.09-.68l1.46-5.93H43.23l.13-.46c1.55-.36,2.25-1.39,3-3.17h.47L46,391.89H48.6l-.27.68H45.85Z"/>
        <path class="cls-1" d="M50.81,394.57a4.77,4.77,0,0,1,3.89-2.86,1.71,1.71,0,0,1,1.79,1.93,3.79,3.79,0,0,1-.13.95l-1.06,4.29a2.16,2.16,0,0,0-.07.45c0,.39.25.61.73.61a3.56,3.56,0,0,0,1.16-.24v.18a3.14,3.14,0,0,1-1.91.9A1.1,1.1,0,0,1,54,399.54a2.89,2.89,0,0,1,.09-.68l1.06-4.22a3,3,0,0,0,.11-.75,1.09,1.09,0,0,0-1.19-1.24c-1.51,0-3.28,1.87-4,4.7l-.81,3.25H48.17l2.9-11.66a2.37,2.37,0,0,0,0-.42c0-.63-.45-.95-1-1.29v-.11h2.58Z"/>
        <path class="cls-1" d="M57.89,397.36c0-2.73,2.09-5.65,4.91-5.65,1.6,0,2.56.74,2.56,2,0,1.87-2.16,2.68-6.12,2.9a5.06,5.06,0,0,0-.06.79c0,1.64.85,2.61,2.33,2.61a3.58,3.58,0,0,0,2.93-1.72l.31.16a3.92,3.92,0,0,1-3.64,2.37C59.06,400.78,57.89,399.45,57.89,397.36Zm1.46-1.4c2.62-.13,4.71-.43,4.71-2.41a1.11,1.11,0,0,0-1.26-1.14C61,392.41,59.74,394.09,59.35,396Z"/>
        <path class="cls-1" d="M69.89,392.41c-1.17,0-1.9.56-1.9,1.44,0,.65.48,1.08,1.8,1.84,1.58.9,2.09,1.55,2.09,2.5,0,1.55-1.46,2.59-3.28,2.59s-3.21-1-3.21-2.12a1,1,0,0,1,1-1,1.49,1.49,0,0,1,.47.07,1.06,1.06,0,0,0-.26.72,1.73,1.73,0,0,0,1.95,1.64c1.15,0,2.14-.52,2.14-1.51,0-.63-.41-1.19-1.71-1.89s-2.16-1.39-2.16-2.49a2.74,2.74,0,0,1,3-2.5c1.75,0,2.83.83,2.83,1.87a1,1,0,0,1-1.11,1,2.1,2.1,0,0,1-.37,0,1.14,1.14,0,0,0,.24-.76C71.48,393,70.88,392.41,69.89,392.41Z"/>
        <path class="cls-1" d="M73.22,397.36c0-2.73,2.09-5.65,4.92-5.65,1.6,0,2.56.74,2.56,2,0,1.87-2.16,2.68-6.13,2.9a6.7,6.7,0,0,0,0,.79c0,1.64.85,2.61,2.32,2.61a3.6,3.6,0,0,0,2.94-1.72l.3.16a3.9,3.9,0,0,1-3.63,2.37C74.39,400.78,73.22,399.45,73.22,397.36Zm1.46-1.4c2.63-.13,4.72-.43,4.72-2.41a1.11,1.11,0,0,0-1.26-1.14C76.3,392.41,75.08,394.09,74.68,396Z"/>
        <path class="cls-1" d="M15.8,476.48a2.7,2.7,0,0,0-.07.41c0,.43.24.65.72.65a3.56,3.56,0,0,0,1.16-.24v.18a3.14,3.14,0,0,1-1.91.9,1.1,1.1,0,0,1-1.16-1.24,3.22,3.22,0,0,1,.24-1.06,3.7,3.7,0,0,1-3.13,2.3c-1.68,0-2.79-1.27-2.79-3.26,0-3,2.07-5.81,4.73-5.81a2.34,2.34,0,0,1,2.5,1.69,7,7,0,0,1,1.28-1.69h.22Zm-.3-3.39a5,5,0,0,0,.14-1.06,1.76,1.76,0,0,0-1.91-2c-2.14,0-3.58,2.3-3.58,5.05,0,1.48.69,2.45,1.78,2.45,1.52,0,2.88-1.63,3.39-3.72Z"/>
        <path class="cls-1" d="M20.93,472.51c.81-1.53,1.95-3.2,3.48-3.2a1,1,0,0,1,1.1.95,1.16,1.16,0,0,1-1.23,1.17.86.86,0,0,0,.15-.45c0-.3-.22-.55-.67-.55-1.17,0-2.86,2.32-3.37,4.32l-.86,3.45H18.38l1.71-6.89a2.27,2.27,0,0,0,.05-.42c0-.63-.45-.95-1-1.29v-.11h2.57Z"/>
        <path class="cls-1" d="M25.32,475c0-2.73,2.09-5.65,4.92-5.65,1.6,0,2.56.74,2.56,2,0,1.87-2.16,2.69-6.12,2.9a5.06,5.06,0,0,0-.06.79c0,1.64.85,2.61,2.32,2.61a3.6,3.6,0,0,0,2.94-1.72l.3.16a3.89,3.89,0,0,1-3.63,2.37C26.49,478.38,25.32,477.05,25.32,475Zm1.46-1.4c2.63-.13,4.72-.43,4.72-2.41A1.11,1.11,0,0,0,30.24,470C28.4,470,27.18,471.69,26.78,473.56Z"/>
        <path class="cls-1" d="M41,470c-2.23,0-3.54,2.54-3.54,4.88,0,1.64.83,2.67,2.28,2.67a3.43,3.43,0,0,0,2.83-1.73l.31.18a3.79,3.79,0,0,1-3.53,2.37c-2,0-3.19-1.4-3.19-3.49,0-2.88,2.09-5.58,4.84-5.58,1.52,0,2.56.72,2.56,1.8a1,1,0,0,1-1,1.1.88.88,0,0,1-.45-.11,1.23,1.23,0,0,0,.27-.9C42.34,470.52,41.94,470,41,470Z"/>
        <path class="cls-1" d="M47.43,478.38A3.36,3.36,0,0,1,44,474.69c0-2.66,1.86-5.38,4.66-5.38A3.36,3.36,0,0,1,52.09,473C52.09,475.67,50.24,478.38,47.43,478.38Zm0-.73c1.89,0,3.37-2.34,3.37-4.85,0-1.69-.61-2.75-2.15-2.75-1.89,0-3.36,2.34-3.36,4.84C45.29,476.58,45.9,477.65,47.43,477.65Z"/>
        <path class="cls-1" d="M54.34,476.48a2,2,0,0,0-.07.45c0,.41.25.61.74.61a3.56,3.56,0,0,0,1.15-.24v.18a3.12,3.12,0,0,1-1.91.9,1.1,1.1,0,0,1-1.17-1.22,2.91,2.91,0,0,1,.11-.7l2.43-9.92a2.27,2.27,0,0,0,.05-.42c0-.63-.45-.95-1-1.29v-.11h2.57Z"/>
        <path class="cls-1" d="M60.52,478.38a3.36,3.36,0,0,1-3.44-3.69c0-2.66,1.85-5.38,4.66-5.38A3.36,3.36,0,0,1,65.18,473C65.18,475.67,63.32,478.38,60.52,478.38Zm0-.73c1.89,0,3.36-2.34,3.36-4.85,0-1.69-.61-2.75-2.14-2.75-1.89,0-3.37,2.34-3.37,4.84C58.37,476.58,59,477.65,60.52,477.65Z"/>
        <path class="cls-1" d="M65.9,478.2l1.71-6.89a2.27,2.27,0,0,0,0-.42c0-.63-.45-.95-1-1.29v-.11h2.49l-.58,2.68a4.77,4.77,0,0,1,3.89-2.86,1.7,1.7,0,0,1,1.78,1.93,3.85,3.85,0,0,1-.12.95L73,476.48a2.16,2.16,0,0,0-.07.45c0,.39.25.61.73.61a3.56,3.56,0,0,0,1.16-.24v.18a3.14,3.14,0,0,1-1.91.9,1.1,1.1,0,0,1-1.17-1.24,2.89,2.89,0,0,1,.09-.68l1.06-4.22a3,3,0,0,0,.11-.75,1.09,1.09,0,0,0-1.19-1.24c-1.51,0-3.28,1.87-4,4.7l-.81,3.25Z"/>
        <path class="cls-1" d="M79.67,470c-1.17,0-1.91.56-1.91,1.44,0,.65.48,1.08,1.8,1.84,1.58.9,2.09,1.55,2.09,2.5,0,1.55-1.46,2.59-3.28,2.59s-3.2-1-3.2-2.12a1,1,0,0,1,1-1,1.49,1.49,0,0,1,.47.07,1.06,1.06,0,0,0-.25.72,1.72,1.72,0,0,0,1.94,1.64c1.15,0,2.14-.52,2.14-1.51,0-.63-.41-1.19-1.71-1.89s-2.16-1.39-2.16-2.49c0-1.42,1.32-2.5,3-2.5s2.82.83,2.82,1.87a1,1,0,0,1-1.11,1,1.88,1.88,0,0,1-.36,0,1.2,1.2,0,0,0,.23-.76C81.25,470.55,80.66,470,79.67,470Z"/>
        <path class="cls-1" d="M38.29,554.08a2.7,2.7,0,0,0-.07.41c0,.43.24.65.72.65a3.56,3.56,0,0,0,1.16-.24v.18a3.14,3.14,0,0,1-1.91.9A1.09,1.09,0,0,1,37,554.74a3.18,3.18,0,0,1,.23-1.06,3.7,3.7,0,0,1-3.13,2.3c-1.68,0-2.79-1.27-2.79-3.26,0-3,2.07-5.81,4.73-5.81a2.34,2.34,0,0,1,2.5,1.69,7,7,0,0,1,1.28-1.69h.22Zm-.3-3.39a5,5,0,0,0,.14-1.06,1.76,1.76,0,0,0-1.91-2c-2.14,0-3.58,2.3-3.58,5.05,0,1.48.69,2.45,1.78,2.45,1.52,0,2.88-1.63,3.39-3.72Z"/>
        <path class="cls-1" d="M40.87,555.8l1.71-6.89a1.65,1.65,0,0,0,.05-.42c0-.63-.45-1-1-1.29v-.11h2.48l-.58,2.68a4.77,4.77,0,0,1,3.89-2.86,1.71,1.71,0,0,1,1.79,1.93,3.91,3.91,0,0,1-.13.95L48,554.08a2.16,2.16,0,0,0-.07.45c0,.39.25.61.73.61a3.56,3.56,0,0,0,1.16-.24v.18a3.14,3.14,0,0,1-1.91.9,1.1,1.1,0,0,1-1.17-1.24,2.89,2.89,0,0,1,.09-.68l1.06-4.22a3,3,0,0,0,.11-.75,1.09,1.09,0,0,0-1.19-1.24c-1.51,0-3.28,1.87-4,4.69L42,555.8Z"/>
        <path class="cls-1" d="M56.73,553.68a3.89,3.89,0,0,1-3.3,2.3c-1.73,0-2.86-1.26-2.86-3.26,0-3,2.11-5.81,4.86-5.81A2.45,2.45,0,0,1,58,548.69l1.1-4.55a2.18,2.18,0,0,0,0-.42c0-.63-.43-1-1-1.29v-.11h2.57l-2.88,11.76a2.16,2.16,0,0,0-.07.45c0,.41.23.61.72.61a3.51,3.51,0,0,0,1.15-.24v.18a3.12,3.12,0,0,1-1.91.9,1.11,1.11,0,0,1-1.17-1.24A3.09,3.09,0,0,1,56.73,553.68Zm.72-2.9a4.8,4.8,0,0,0,.1-.95,2,2,0,0,0-2-2.18c-2.29,0-3.65,2.66-3.65,5.07,0,1.5.61,2.45,1.87,2.45,1.49,0,3.06-1.62,3.51-3.54Z"/>
        <path class="cls-1" d="M4.5,625.21c-1.17,0-1.91.56-1.91,1.44,0,.65.49,1.08,1.8,1.84,1.59.9,2.09,1.55,2.09,2.5,0,1.55-1.46,2.59-3.27,2.59S0,632.59,0,631.46a1,1,0,0,1,1-1,1.41,1.41,0,0,1,.47.07,1.11,1.11,0,0,0-.25.72,1.73,1.73,0,0,0,2,1.64c1.15,0,2.14-.52,2.14-1.51,0-.63-.42-1.19-1.71-1.89S1.48,628.11,1.48,627a2.74,2.74,0,0,1,3-2.5c1.75,0,2.83.83,2.83,1.87a1,1,0,0,1-1.12,1,2.09,2.09,0,0,1-.36,0,1.14,1.14,0,0,0,.24-.76C6.09,625.75,5.49,625.21,4.5,625.21Z"/>
        <path class="cls-1" d="M7.83,630.16c0-2.73,2.09-5.65,4.91-5.65,1.61,0,2.56.74,2.56,2,0,1.87-2.16,2.68-6.12,2.9a5.06,5.06,0,0,0-.06.79c0,1.64.85,2.61,2.33,2.61A3.56,3.56,0,0,0,14.38,631l.31.17a3.92,3.92,0,0,1-3.64,2.37C9,633.58,7.83,632.25,7.83,630.16Zm1.46-1.4c2.63-.13,4.72-.43,4.72-2.41a1.12,1.12,0,0,0-1.27-1.14C10.91,625.21,9.68,626.89,9.29,628.76Z"/>
        <path class="cls-1" d="M23.63,627.37c.89-1.69,2.29-2.86,3.73-2.86a1.59,1.59,0,0,1,1.73,1.8,4.71,4.71,0,0,1-.14,1.08l-1.07,4.29a3.13,3.13,0,0,0-.07.45c0,.39.25.61.74.61a3.51,3.51,0,0,0,1.15-.24v.18a3.12,3.12,0,0,1-1.91.9,1.11,1.11,0,0,1-1.17-1.24,3.54,3.54,0,0,1,.09-.68l1.07-4.22a3.51,3.51,0,0,0,.12-.91c0-.67-.29-1.08-1.1-1.08-1.4,0-3.11,1.78-3.85,4.71l-.81,3.24H21l1.49-6a3.56,3.56,0,0,0,.13-.91c0-.67-.29-1.08-1.1-1.08-1.4,0-3.11,1.78-3.85,4.71l-.81,3.24H15.68l1.71-6.89a2.27,2.27,0,0,0,.05-.42c0-.63-.45-1-1-1.29v-.11H18.9l-.58,2.68c.89-1.69,2.29-2.86,3.73-2.86a1.63,1.63,0,0,1,1.71,1.85A3.94,3.94,0,0,1,23.63,627.37Z"/>
        <path class="cls-1" d="M31.93,631.68a2,2,0,0,0-.07.45c0,.41.27.61.74.61a3.56,3.56,0,0,0,1.15-.24v.18a3.12,3.12,0,0,1-1.91.9,1.09,1.09,0,0,1-1.13-1.22,2.74,2.74,0,0,1,.09-.7l1.28-5.15a2.27,2.27,0,0,0,.05-.42c0-.63-.45-1-1-1.29v-.11h2.58Zm1.73-9.13a1,1,0,1,1,1-1A1,1,0,0,1,33.66,622.55Z"/>
        <path class="cls-1" d="M35,628.15h4.48l-.18.77H34.83Z"/>
        <path class="cls-1" d="M45.43,625.21c-2.23,0-3.55,2.54-3.55,4.88,0,1.64.83,2.67,2.29,2.67A3.44,3.44,0,0,0,47,631l.3.18a3.76,3.76,0,0,1-3.52,2.37c-2,0-3.19-1.4-3.19-3.49,0-2.88,2.09-5.58,4.84-5.58,1.51,0,2.56.72,2.56,1.8a1,1,0,0,1-1.05,1.1.91.91,0,0,1-.45-.11,1.19,1.19,0,0,0,.27-.9C46.76,625.72,46.37,625.21,45.43,625.21Z"/>
        <path class="cls-1" d="M51.86,633.58a3.36,3.36,0,0,1-3.44-3.69c0-2.66,1.85-5.38,4.66-5.38a3.36,3.36,0,0,1,3.44,3.69C56.52,630.87,54.67,633.58,51.86,633.58Zm0-.73c1.89,0,3.36-2.35,3.36-4.85,0-1.69-.61-2.75-2.14-2.75-1.89,0-3.37,2.34-3.37,4.84C49.71,631.78,50.33,632.85,51.86,632.85Z"/>
        <path class="cls-1" d="M58.77,631.68a2,2,0,0,0-.07.45c0,.41.25.61.74.61a3.56,3.56,0,0,0,1.15-.24v.18a3.14,3.14,0,0,1-1.91.9,1.1,1.1,0,0,1-1.17-1.22,2.91,2.91,0,0,1,.11-.7l2.43-9.92a2.37,2.37,0,0,0,.05-.42c0-.63-.45-1-1-1.29v-.11h2.58Z"/>
        <path class="cls-1" d="M64.94,633.58a3.36,3.36,0,0,1-3.44-3.69c0-2.66,1.86-5.38,4.67-5.38a3.36,3.36,0,0,1,3.44,3.69C69.61,630.87,67.75,633.58,64.94,633.58Zm0-.73c1.89,0,3.37-2.35,3.37-4.85,0-1.69-.61-2.75-2.14-2.75-1.89,0-3.37,2.34-3.37,4.84C62.8,631.78,63.41,632.85,64.94,632.85Z"/>
        <path class="cls-1" d="M70.32,633.4,72,626.51a1.7,1.7,0,0,0,.06-.42c0-.63-.45-1-1-1.29v-.11h2.48L73,627.37a4.76,4.76,0,0,1,3.89-2.86,1.71,1.71,0,0,1,1.78,1.93,3.85,3.85,0,0,1-.12.95l-1.07,4.29a3.13,3.13,0,0,0-.07.45c0,.39.25.61.74.61a3.51,3.51,0,0,0,1.15-.24v.18a3.12,3.12,0,0,1-1.91.9,1.11,1.11,0,0,1-1.17-1.24,3.54,3.54,0,0,1,.09-.68l1.07-4.22a3,3,0,0,0,.1-.75,1.09,1.09,0,0,0-1.18-1.24c-1.52,0-3.28,1.87-4,4.7l-.82,3.25Z"/>
        <path class="cls-1" d="M84.09,625.21c-1.17,0-1.9.56-1.9,1.44,0,.65.48,1.08,1.8,1.84,1.58.9,2.08,1.55,2.08,2.5,0,1.55-1.45,2.59-3.27,2.59s-3.21-1-3.21-2.12a1,1,0,0,1,1-1,1.49,1.49,0,0,1,.47.07,1.06,1.06,0,0,0-.26.72,1.73,1.73,0,0,0,2,1.64c1.15,0,2.14-.52,2.14-1.51,0-.63-.41-1.19-1.71-1.89s-2.16-1.39-2.16-2.49a2.74,2.74,0,0,1,3-2.5c1.75,0,2.83.83,2.83,1.87a1,1,0,0,1-1.12,1,1.87,1.87,0,0,1-.35,0,1.2,1.2,0,0,0,.23-.76C85.68,625.75,85.08,625.21,84.09,625.21Z"/>
        <path class="cls-1" d="M87.89,633.35a.8.8,0,0,1-.85-.83,1,1,0,0,1,1.08-1,1.2,1.2,0,0,1,1.16,1.32A3.39,3.39,0,0,1,86,636l0-.47a2.6,2.6,0,0,0,2.31-2.32A.86.86,0,0,1,87.89,633.35Z"/>
        <path class="cls-1" d="M13,711.18a3.36,3.36,0,0,1-3.44-3.69c0-2.66,1.85-5.38,4.66-5.38a3.36,3.36,0,0,1,3.44,3.69C17.65,708.47,15.8,711.18,13,711.18Zm0-.73c1.89,0,3.37-2.34,3.37-4.85,0-1.69-.62-2.75-2.15-2.75-1.89,0-3.36,2.34-3.36,4.84C10.85,709.38,11.46,710.45,13,710.45Z"/>
        <path class="cls-1" d="M18.37,711l1.71-6.89a1.65,1.65,0,0,0,.05-.42c0-.63-.45-1-1-1.29v-.11h2.48L21,705a4.75,4.75,0,0,1,3.88-2.86A1.71,1.71,0,0,1,26.69,704a3.91,3.91,0,0,1-.13,1l-1.06,4.29a2.16,2.16,0,0,0-.07.45c0,.39.25.61.74.61a3.56,3.56,0,0,0,1.15-.24v.18a3.14,3.14,0,0,1-1.91.9,1.1,1.1,0,0,1-1.17-1.24,3.54,3.54,0,0,1,.09-.68L25.39,705a3,3,0,0,0,.11-.75,1.09,1.09,0,0,0-1.19-1.24c-1.51,0-3.28,1.87-4,4.7L19.52,711Z"/>
        <path class="cls-1" d="M28.09,707.76c0-2.73,2.09-5.65,4.91-5.65,1.61,0,2.56.74,2.56,2,0,1.87-2.16,2.68-6.12,2.9a5.06,5.06,0,0,0-.06.79c0,1.64.85,2.61,2.33,2.61a3.58,3.58,0,0,0,2.93-1.72l.31.16a3.92,3.92,0,0,1-3.64,2.37C29.26,711.18,28.09,709.85,28.09,707.76Zm1.46-1.4c2.63-.13,4.71-.43,4.71-2.41A1.11,1.11,0,0,0,33,702.81C31.17,702.81,29.94,704.49,29.55,706.36Z"/>
        <path class="cls-1" d="M46.78,705c.88-1.69,2.28-2.86,3.72-2.86a1.59,1.59,0,0,1,1.73,1.8,4.71,4.71,0,0,1-.14,1.08L51,709.28a3.13,3.13,0,0,0-.07.45c0,.39.25.61.74.61a3.46,3.46,0,0,0,1.15-.24v.18a3.12,3.12,0,0,1-1.91.9,1.11,1.11,0,0,1-1.17-1.24,3.54,3.54,0,0,1,.09-.68L50.92,705a3.51,3.51,0,0,0,.12-.91c0-.67-.29-1.08-1.1-1.08-1.4,0-3.11,1.78-3.85,4.71L45.28,711H44.11l1.49-6a3.56,3.56,0,0,0,.13-.91c0-.67-.29-1.08-1.1-1.08-1.4,0-3.11,1.78-3.85,4.71L40,711H38.82l1.71-6.89a2.27,2.27,0,0,0,0-.42c0-.63-.45-1-1-1.29v-.11H42L41.46,705c.89-1.69,2.29-2.86,3.73-2.86A1.63,1.63,0,0,1,46.9,704,3.93,3.93,0,0,1,46.78,705Z"/>
        <path class="cls-1" d="M55.07,709.28a2.76,2.76,0,0,0-.07.45c0,.41.27.61.74.61a3.51,3.51,0,0,0,1.15-.24v.18a3.12,3.12,0,0,1-1.91.9A1.09,1.09,0,0,1,53.85,710a2.74,2.74,0,0,1,.09-.7l1.27-5.15a1.7,1.7,0,0,0,.06-.42c0-.63-.45-1-1-1.29v-.11h2.58Zm1.73-9.13a1,1,0,1,1,1-1A1,1,0,0,1,56.8,700.15Z"/>
        <path class="cls-1" d="M63.91,708.92a3.82,3.82,0,0,1-3.28,2.26c-1.73,0-2.86-1.26-2.86-3.26,0-3,2.11-5.81,4.86-5.81a2.5,2.5,0,0,1,2.61,1.73,7.32,7.32,0,0,1,1.3-1.73h.21l-2.23,9c-.65,2.63-2.11,4-4.57,4-1.82,0-3.21-.9-3.21-2.17a1.06,1.06,0,0,1,1.08-1.15,1.39,1.39,0,0,1,.45.09,1.3,1.3,0,0,0-.32.88c0,.94.7,1.7,2,1.7,2,0,2.92-1.32,3.44-3.39Zm.74-2.94a4.87,4.87,0,0,0,.11-1,2,2,0,0,0-2-2.18c-2.29,0-3.65,2.66-3.65,5.07,0,1.5.61,2.45,1.87,2.45,1.49,0,3.06-1.62,3.51-3.54Z"/>
        <path class="cls-1" d="M69.7,705a4.77,4.77,0,0,1,3.89-2.86A1.71,1.71,0,0,1,75.38,704a3.79,3.79,0,0,1-.13,1l-1.06,4.29a2.16,2.16,0,0,0-.07.45c0,.39.25.61.73.61A3.56,3.56,0,0,0,76,710.1v.18a3.14,3.14,0,0,1-1.91.9,1.1,1.1,0,0,1-1.17-1.24,2.89,2.89,0,0,1,.09-.68L74.08,705a3,3,0,0,0,.11-.75A1.09,1.09,0,0,0,73,703.05c-1.51,0-3.28,1.87-4,4.7L68.21,711H67.06L70,699.34a2.37,2.37,0,0,0,.05-.42c0-.63-.45-.95-1-1.29v-.11h2.58Z"/>
        <path class="cls-1" d="M78.47,708.83a2,2,0,0,0-.07.5c0,.63.39.92,1.15.92a6.88,6.88,0,0,0,1.89-.34v.21a5.07,5.07,0,0,1-2.63,1.06,1.51,1.51,0,0,1-1.62-1.6,3.35,3.35,0,0,1,.09-.68L78.74,703H77.3l.13-.46c1.54-.36,2.25-1.39,2.95-3.17h.47l-.76,2.95h2.58l-.28.68H79.91Z"/>
        <path class="cls-1" d="M29.45,786.88a1.85,1.85,0,0,0-.07.41c0,.43.23.65.72.65a3.56,3.56,0,0,0,1.15-.24v.18a3.12,3.12,0,0,1-1.91.9,1.09,1.09,0,0,1-1.15-1.24,3.45,3.45,0,0,1,.23-1.06,3.67,3.67,0,0,1-3.13,2.3c-1.67,0-2.79-1.27-2.79-3.25,0-3,2.07-5.82,4.73-5.82a2.35,2.35,0,0,1,2.51,1.69A7,7,0,0,1,31,779.71h.21Zm-.31-3.39a5.07,5.07,0,0,0,.15-1.06,1.77,1.77,0,0,0-1.91-2c-2.14,0-3.59,2.3-3.59,5.06,0,1.47.69,2.44,1.79,2.44,1.51,0,2.88-1.63,3.38-3.72Z"/>
        <path class="cls-1" d="M38.27,786.48a3.89,3.89,0,0,1-3.3,2.3c-1.72,0-2.86-1.26-2.86-3.25,0-3,2.11-5.82,4.86-5.82a2.45,2.45,0,0,1,2.54,1.78l1.1-4.55a1.6,1.6,0,0,0,0-.42c0-.63-.43-.95-1-1.29v-.11h2.57l-2.88,11.76a2.16,2.16,0,0,0-.07.45c0,.41.23.61.72.61a3.51,3.51,0,0,0,1.15-.24v.18a3.12,3.12,0,0,1-1.91.9,1.11,1.11,0,0,1-1.17-1.24A3.09,3.09,0,0,1,38.27,786.48Zm.72-2.9a4.87,4.87,0,0,0,.11-1,2,2,0,0,0-2-2.18c-2.28,0-3.65,2.66-3.65,5.08,0,1.49.61,2.44,1.87,2.44,1.5,0,3.06-1.62,3.51-3.54Z"/>
        <path class="cls-1" d="M48.19,786.48a3.89,3.89,0,0,1-3.3,2.3c-1.73,0-2.86-1.26-2.86-3.25,0-3,2.1-5.82,4.86-5.82a2.45,2.45,0,0,1,2.54,1.78l1.1-4.55a2.18,2.18,0,0,0,0-.42c0-.63-.43-.95-1-1.29v-.11h2.58l-2.88,11.76a2.16,2.16,0,0,0-.07.45c0,.41.23.61.72.61a3.51,3.51,0,0,0,1.15-.24v.18a3.12,3.12,0,0,1-1.91.9A1.1,1.1,0,0,1,48,787.54,3.09,3.09,0,0,1,48.19,786.48Zm.72-2.9a4.8,4.8,0,0,0,.1-1,2,2,0,0,0-2-2.18c-2.29,0-3.66,2.66-3.66,5.08,0,1.49.62,2.44,1.88,2.44,1.49,0,3.06-1.62,3.51-3.54Z"/>
        <path class="cls-1" d="M56.54,786.43a1.66,1.66,0,0,0-.08.5c0,.63.4.92,1.16.92a7,7,0,0,0,1.89-.34v.21a5.14,5.14,0,0,1-2.63,1.06,1.51,1.51,0,0,1-1.62-1.6,2.77,2.77,0,0,1,.09-.68l1.46-5.93H55.37l.12-.46c1.55-.36,2.25-1.39,3-3.17h.46l-.75,2.95h2.57l-.27.68H58Z"/>
        <path class="cls-1" d="M63.86,788.78a3.36,3.36,0,0,1-3.44-3.69c0-2.66,1.86-5.38,4.67-5.38a3.36,3.36,0,0,1,3.44,3.69C68.53,786.07,66.67,788.78,63.86,788.78Zm0-.73c1.89,0,3.37-2.34,3.37-4.85,0-1.69-.61-2.75-2.14-2.75-1.89,0-3.37,2.34-3.37,4.84C61.72,787,62.33,788.05,63.86,788.05Z"/>
        <path class="cls-1" d="M28.39,864a2,2,0,0,0-.07.5c0,.63.4.92,1.15.92a7,7,0,0,0,1.9-.34v.21a5.14,5.14,0,0,1-2.63,1.06,1.51,1.51,0,0,1-1.62-1.6,2.77,2.77,0,0,1,.09-.68l1.45-5.93H27.22l.13-.46c1.55-.36,2.25-1.39,2.95-3.17h.47l-.75,3h2.57l-.27.68H29.84Z"/>
        <path class="cls-1" d="M34.8,860.17a4.77,4.77,0,0,1,3.89-2.86,1.7,1.7,0,0,1,1.78,1.93,3.74,3.74,0,0,1-.12,1l-1.06,4.29a2.26,2.26,0,0,0-.08.45c0,.39.26.61.74.61a3.56,3.56,0,0,0,1.16-.24v.18a3.14,3.14,0,0,1-1.91.9A1.1,1.1,0,0,1,38,865.14a2.89,2.89,0,0,1,.09-.68l1.06-4.22a3,3,0,0,0,.11-.75,1.09,1.09,0,0,0-1.19-1.24c-1.51,0-3.28,1.87-4,4.7l-.81,3.25H32.16l2.9-11.66a2.27,2.27,0,0,0,0-.42c0-.63-.45-1-1-1.29v-.11h2.58Z"/>
        <path class="cls-1" d="M41.88,863c0-2.73,2.08-5.65,4.91-5.65,1.6,0,2.56.74,2.56,2,0,1.87-2.16,2.69-6.12,2.9a5.06,5.06,0,0,0-.06.79c0,1.64.85,2.61,2.33,2.61a3.58,3.58,0,0,0,2.93-1.72l.31.16a3.92,3.92,0,0,1-3.64,2.37C43.05,866.38,41.88,865.05,41.88,863Zm1.45-1.4c2.63-.13,4.72-.43,4.72-2.41A1.11,1.11,0,0,0,46.79,858C45,858,43.73,859.69,43.33,861.56Z"/>
        <path class="cls-1" d="M53.88,858c-1.17,0-1.91.56-1.91,1.44,0,.65.49,1.08,1.81,1.84,1.58.9,2.08,1.55,2.08,2.5,0,1.55-1.45,2.59-3.27,2.59s-3.21-1-3.21-2.12a1,1,0,0,1,1-1,1.39,1.39,0,0,1,.46.07,1.11,1.11,0,0,0-.25.72,1.73,1.73,0,0,0,2,1.64c1.15,0,2.14-.52,2.14-1.51,0-.63-.41-1.19-1.71-1.89s-2.16-1.39-2.16-2.49a2.74,2.74,0,0,1,3-2.5c1.75,0,2.83.83,2.83,1.87a1,1,0,0,1-1.12,1,2.09,2.09,0,0,1-.36,0,1.14,1.14,0,0,0,.24-.76C55.47,858.55,54.87,858,53.88,858Z"/>
        <path class="cls-1" d="M57.21,863c0-2.73,2.09-5.65,4.92-5.65,1.6,0,2.55.74,2.55,2,0,1.87-2.16,2.69-6.12,2.9a6.7,6.7,0,0,0-.05.79c0,1.64.85,2.61,2.32,2.61a3.6,3.6,0,0,0,2.94-1.72l.3.16a3.9,3.9,0,0,1-3.63,2.37C58.38,866.38,57.21,865.05,57.21,863Zm1.46-1.4c2.63-.13,4.72-.43,4.72-2.41A1.11,1.11,0,0,0,62.13,858C60.29,858,59.07,859.69,58.67,861.56Z"/>
        <path class="cls-1" d="M17.22,935.61c-2.24,0-3.55,2.54-3.55,4.88,0,1.64.83,2.67,2.29,2.67a3.44,3.44,0,0,0,2.83-1.73l.3.18A3.79,3.79,0,0,1,15.56,944c-2,0-3.18-1.4-3.18-3.49,0-2.88,2.08-5.58,4.84-5.58,1.51,0,2.56.72,2.56,1.8a1,1,0,0,1-1.05,1.1.91.91,0,0,1-.45-.11,1.19,1.19,0,0,0,.27-.9C18.55,936.12,18.15,935.61,17.22,935.61Z"/>
        <path class="cls-1" d="M23.64,944a3.36,3.36,0,0,1-3.43-3.69c0-2.66,1.85-5.38,4.66-5.38a3.36,3.36,0,0,1,3.44,3.69C28.31,941.27,26.45,944,23.64,944Zm0-.73c1.9,0,3.37-2.34,3.37-4.85,0-1.69-.61-2.75-2.14-2.75-1.89,0-3.37,2.34-3.37,4.84C21.5,942.18,22.11,943.25,23.64,943.25Z"/>
        <path class="cls-1" d="M37,937.77c.89-1.69,2.29-2.86,3.73-2.86a1.6,1.6,0,0,1,1.73,1.8,4.75,4.75,0,0,1-.15,1.08l-1.06,4.29a3.13,3.13,0,0,0-.07.45c0,.39.25.61.74.61a3.51,3.51,0,0,0,1.15-.24v.18a3.12,3.12,0,0,1-1.91.9A1.1,1.1,0,0,1,40,942.74a3.54,3.54,0,0,1,.09-.68l1.06-4.22a3.56,3.56,0,0,0,.13-.91c0-.67-.29-1.08-1.1-1.08-1.4,0-3.11,1.78-3.85,4.71l-.81,3.24H34.32l1.49-6a3.56,3.56,0,0,0,.13-.91c0-.67-.29-1.08-1.1-1.08-1.4,0-3.12,1.78-3.85,4.71l-.81,3.24H29l1.71-6.89a1.7,1.7,0,0,0,.06-.42c0-.63-.45-1-1-1.29v-.11h2.49l-.58,2.68c.88-1.69,2.29-2.86,3.73-2.86a1.63,1.63,0,0,1,1.71,1.85A3.94,3.94,0,0,1,37,937.77Z"/>
        <path class="cls-1" d="M51.67,937.77c.88-1.69,2.29-2.86,3.73-2.86a1.6,1.6,0,0,1,1.73,1.8,4.75,4.75,0,0,1-.15,1.08l-1.06,4.29a2.16,2.16,0,0,0-.07.45c0,.39.25.61.74.61a3.51,3.51,0,0,0,1.15-.24v.18a3.12,3.12,0,0,1-1.91.9,1.1,1.1,0,0,1-1.17-1.24,3.54,3.54,0,0,1,.09-.68l1.06-4.22a3.56,3.56,0,0,0,.13-.91c0-.67-.29-1.08-1.1-1.08-1.4,0-3.12,1.78-3.85,4.71l-.81,3.24H49l1.49-6a3.56,3.56,0,0,0,.13-.91c0-.67-.29-1.08-1.1-1.08-1.41,0-3.12,1.78-3.85,4.71l-.81,3.24H43.71l1.71-6.89a1.7,1.7,0,0,0,.06-.42c0-.63-.45-1-1-1.29v-.11h2.49l-.58,2.68c.88-1.69,2.29-2.86,3.73-2.86a1.63,1.63,0,0,1,1.71,1.85A3.94,3.94,0,0,1,51.67,937.77Z"/>
        <path class="cls-1" d="M65.44,942.08a1.85,1.85,0,0,0-.07.41c0,.43.23.65.72.65a3.51,3.51,0,0,0,1.15-.24v.18a3.12,3.12,0,0,1-1.91.9,1.09,1.09,0,0,1-1.15-1.24,3.45,3.45,0,0,1,.23-1.06,3.67,3.67,0,0,1-3.13,2.3c-1.67,0-2.79-1.27-2.79-3.26,0-3,2.07-5.81,4.74-5.81a2.35,2.35,0,0,1,2.5,1.69A7,7,0,0,1,67,934.91h.21Zm-.31-3.39a5.07,5.07,0,0,0,.15-1.06,1.76,1.76,0,0,0-1.91-2c-2.14,0-3.58,2.3-3.58,5.05,0,1.48.68,2.45,1.78,2.45,1.51,0,2.88-1.63,3.39-3.72Z"/>
        <path class="cls-1" d="M72.17,935.61c-1.17,0-1.91.56-1.91,1.44,0,.65.49,1.08,1.8,1.84,1.59.9,2.09,1.55,2.09,2.5,0,1.55-1.45,2.59-3.27,2.59s-3.21-1-3.21-2.12a1,1,0,0,1,1-1,1.41,1.41,0,0,1,.47.07,1.11,1.11,0,0,0-.25.72,1.73,1.73,0,0,0,1.95,1.64c1.15,0,2.14-.52,2.14-1.51,0-.63-.41-1.19-1.71-1.89s-2.16-1.39-2.16-2.49a2.74,2.74,0,0,1,3-2.5c1.75,0,2.83.83,2.83,1.87a1,1,0,0,1-1.12,1,2.09,2.09,0,0,1-.36,0,1.14,1.14,0,0,0,.24-.76C73.76,936.15,73.16,935.61,72.17,935.61Z"/>
        <path class="cls-1" d="M76.22,944a1.07,1.07,0,1,1,1.06-1.07A1.05,1.05,0,0,1,76.22,944Z"/>
      </g>
    </g>
  </g>
</svg>
