<svg xmlns="http://www.w3.org/2000/svg" viewBox="0 0 172.17 43.55">
  <g>
    <g>
      <path d="M37.18,6.38a21.78,21.78,0,1,0-30.8,30.8,21.78,21.78,0,0,0,30.8-30.8ZM21.78,40.55A18.77,18.77,0,0,1,8.5,8.5,18.77,18.77,0,1,1,35.05,35.05,18.62,18.62,0,0,1,21.78,40.55Z"/>
      <polygon points="32.09 9.34 21.61 19.82 11.13 9.34 9.01 11.46 19.49 21.94 9.01 32.43 11.13 34.55 21.61 24.07 32.09 34.55 34.22 32.43 23.73 21.94 34.22 11.46 32.09 9.34"/>
    </g>
    <g>
      <path d="M81.23,11.65a10.2,10.2,0,0,0-4-3.25,11.75,11.75,0,0,0-4.93-1.08,12.24,12.24,0,0,0-5.45,1.21,13.63,13.63,0,0,0-4.3,3.24,14.9,14.9,0,0,0-2.82,4.73,15.85,15.85,0,0,0-1,5.6,16.45,16.45,0,0,0,1,5.81,14.47,14.47,0,0,0,2.79,4.67,13,13,0,0,0,4.28,3.15,12.9,12.9,0,0,0,5.5,1.15,12.76,12.76,0,0,0,5.83-1.28,13.21,13.21,0,0,0,4.48-3.69l3.16,2.66A14.59,14.59,0,0,1,80,39.3a18.78,18.78,0,0,1-7.67,1.51,18.26,18.26,0,0,1-7.14-1.41,17.53,17.53,0,0,1-5.75-3.9,17.87,17.87,0,0,1-3.82-5.91,19.78,19.78,0,0,1-1.39-7.49,20,20,0,0,1,1.34-7.34A17.5,17.5,0,0,1,65,4.86,17.94,17.94,0,0,1,72.33,3.4a19,19,0,0,1,7,1.31A12.91,12.91,0,0,1,84.9,9Z"/>
      <path d="M90.33,1.89h3.92v38H90.33Z"/>
      <path d="M99.68,28.14a12.92,12.92,0,0,1,.95-5,11.9,11.9,0,0,1,2.62-3.9,11.66,11.66,0,0,1,4-2.54,14.48,14.48,0,0,1,10,0,11.7,11.7,0,0,1,4,2.54,12,12,0,0,1,2.61,3.9,12.74,12.74,0,0,1,1,5,12.72,12.72,0,0,1-1,5,12,12,0,0,1-2.61,3.9,11.7,11.7,0,0,1-4,2.54,14.48,14.48,0,0,1-10,0,11.66,11.66,0,0,1-4-2.54,11.9,11.9,0,0,1-2.62-3.9A12.9,12.9,0,0,1,99.68,28.14Zm4.22,0a9.86,9.86,0,0,0,.58,3.44,7.85,7.85,0,0,0,4.32,4.62,9.07,9.07,0,0,0,6.89,0A7.91,7.91,0,0,0,120,31.58a10.7,10.7,0,0,0,0-6.89,8,8,0,0,0-4.33-4.62,9.07,9.07,0,0,0-6.89,0,7.93,7.93,0,0,0-4.32,4.62A9.92,9.92,0,0,0,103.9,28.14Z"/>
      <path d="M130.4,33.72A9.8,9.8,0,0,0,132.94,36a6.52,6.52,0,0,0,3.49.85,8.21,8.21,0,0,0,1.83-.2A5.36,5.36,0,0,0,140,36a3.86,3.86,0,0,0,1.21-1.13,2.9,2.9,0,0,0,.45-1.64,2.58,2.58,0,0,0-.43-1.55,3.66,3.66,0,0,0-1.13-1,6.33,6.33,0,0,0-1.61-.67c-.6-.17-1.22-.32-1.86-.46-1.11-.23-2.16-.5-3.17-.8a10.66,10.66,0,0,1-2.64-1.18A5.74,5.74,0,0,1,129,25.67a5.81,5.81,0,0,1-.68-3,6,6,0,0,1,.76-3,6.49,6.49,0,0,1,2-2.16,9.85,9.85,0,0,1,2.82-1.31,11.47,11.47,0,0,1,3.21-.45,10.76,10.76,0,0,1,4.65,1A7.23,7.23,0,0,1,145.08,20l-3.27,2.16a6.13,6.13,0,0,0-2-2,5.48,5.48,0,0,0-3-.78,7.06,7.06,0,0,0-1.63.2,5.23,5.23,0,0,0-1.49.6,3.66,3.66,0,0,0-1.08,1,2.53,2.53,0,0,0-.42,1.43,1.84,1.84,0,0,0,.48,1.29,4.18,4.18,0,0,0,1.3.93,11.1,11.1,0,0,0,1.91.7,22.18,22.18,0,0,0,2.24.5,23.26,23.26,0,0,1,3,.78,8.51,8.51,0,0,1,2.47,1.29,5.71,5.71,0,0,1,1.66,2,6.59,6.59,0,0,1,.6,3,6.76,6.76,0,0,1-.81,3.42,6.59,6.59,0,0,1-2.13,2.29,9.3,9.3,0,0,1-3,1.28,14.64,14.64,0,0,1-3.44.4,13.24,13.24,0,0,1-5.2-.93,9.45,9.45,0,0,1-3.95-3.44Z"/>
      <path d="M171.32,35.63a11.91,11.91,0,0,1-4.63,3.79,14.61,14.61,0,0,1-5.83,1.08,12,12,0,0,1-5-1,11.05,11.05,0,0,1-3.75-2.64A11.48,11.48,0,0,1,149.78,33a13.76,13.76,0,0,1-.83-4.82,13.61,13.61,0,0,1,.9-5,11.64,11.64,0,0,1,2.52-3.92,11.31,11.31,0,0,1,3.82-2.54,12.65,12.65,0,0,1,4.82-.9,12.09,12.09,0,0,1,4.53.83A9.86,9.86,0,0,1,169.08,19a11,11,0,0,1,2.29,3.87,15.84,15.84,0,0,1,.8,5.21v1.25h-19a8.26,8.26,0,0,0,.73,2.89,8.51,8.51,0,0,0,1.63,2.42,7.59,7.59,0,0,0,2.37,1.63,7.22,7.22,0,0,0,3,.6,9.47,9.47,0,0,0,4.33-.9,9.87,9.87,0,0,0,3.16-2.67ZM168,26a6.76,6.76,0,0,0-2-4.82,7,7,0,0,0-5.13-1.81A7.24,7.24,0,0,0,153.17,26Z"/>
    </g>
  </g>
</svg>
