<svg xmlns="http://www.w3.org/2000/svg" viewBox="0 0 48.77 71.9">
  <g>
    <path d="M43.24,37.65l.19-.26c6-8.29,6.61-16.77,1.73-25.19S32.23-.37,22.08.51C13,1.31,6.21,6.07,2.55,14.27s-2.6,16,3,23.36c1,1.27,1.9,2.57,2.82,3.83s2,2.84,3.11,4.22a8.27,8.27,0,0,1,1.8,6,31.53,31.53,0,0,0,0,3.38c0,.38,0,.75,0,1.13H35.43c0-.52,0-1,0-1.53,0-1.61,0-3.12,0-4.65a5.05,5.05,0,0,1,.79-2.6C38.53,44.14,40.93,40.84,43.24,37.65ZM25.48,55.76H25.2c-3.27-.06-3.46-.22-4.19-3.39-.38-1.7-.77-3.39-1.15-5.09-.7-3.1-1.42-6.31-2.16-9.46a1.89,1.89,0,0,1,1.08-2.44c.55-.29,1.07-.63,1.68-1l.9-.59.5-.31L23.2,38l2.69-6.26,2,5,3.63-1.51-.12.76c-.05.31-.09.59-.13.86-.07.54-.15,1.06-.26,1.56-.39,1.79-.79,3.57-1.18,5.36-.75,3.35-1.51,6.8-2.23,10.21A1.84,1.84,0,0,1,25.48,55.76Zm9.4-5.88c-.07.83-.06,1.69-.05,2.52,0,.64,0,1.3,0,2,0,.43-.45,1.29-1,1.31-.95,0-1.91,0-2.89,0H27.76l1-4.35c.61-2.82,1.21-5.57,1.82-8.31s1.17-5.3,1.76-7.94l.77-3.49c-.38-.18-.49-.13-.5-.13s-.11.06-.16.47l0,.14s0,0,0,.07c0,3-2.36,3.78-4.14,4.12l-.38.07L26,31.23,23.8,36.12l-.92,0-.89-3L17.4,36l-1.15-4.55-.72.11L21,55.68H19c-1.41,0-2.74,0-4.08,0-.57,0-1-.92-1.06-1.4a26.61,26.61,0,0,1,0-3.91,5.4,5.4,0,0,0-1.15-3.79c-.88-1.19-1.74-2.41-2.58-3.59C8.8,41.07,7.43,39.13,6,37.29A22.14,22.14,0,0,1,8.81,6.71,23.85,23.85,0,0,1,40.34,7a22.14,22.14,0,0,1,2.75,29.92c-2.65,3.44-5.17,7.09-7.53,10.54A5.17,5.17,0,0,0,34.88,49.88Z" fill="#e7e0d4"/>
    <path d="M14.45,2.76a21.89,21.89,0,0,1,2.55-1c.43-.13.86-.28,1.3-.4l1.33-.29-1.41.31-1.39.43-.7.21-.67.28-1.34.56-1.29.67-.64.35-.61.39-1.22.8L9.23,6a22.93,22.93,0,0,0-6.82,9.19A22.64,22.64,0,0,0,2.56,32,22.92,22.92,0,0,0,3.84,34.6c.25.41.46.85.74,1.24L5.41,37c2.23,3.09,4.47,6.11,6.66,9.19.27.39.55.75.77,1.13a5.59,5.59,0,0,1,.52,1.21,4.71,4.71,0,0,1,.17,1.29c0,.42-.06.91-.07,1.38,0,.93,0,1.87,0,2.79a2.3,2.3,0,0,0,.14.78,2.69,2.69,0,0,0,.4.69,1.23,1.23,0,0,0,.83.48l.72,0,2.85,0H21.4V56l0-.15-.06-.3c-.41-1.84-.82-3.66-1.23-5.48L17.75,39.64c-.38-1.7-1.13-5.12-1.5-6.82l-.2-.9H16l.09,0-.13,0h0c.39,1.56.79,3.14,1.2,4.76l4.61-2.87.82,2.75,1.55,0,1.82-4.13h0l.2.55.59,1.59.59,1.59.14.38.07.2c0,.05,0,.17.12.12l.77-.15c.3-.06.59-.13.88-.21a6.13,6.13,0,0,0,1.7-.75,4,4,0,0,0,1.3-1.36,4.29,4.29,0,0,0,.51-1.75l0-.44s0,0,0,0l0-.12v0h0l-.24-.48c-.79,3.58-1.56,7-2.28,10.33-1.49,6.83-2.5,12-2.5,12L27.42,56c.57,0,1,0,1,0s0,0-.15,0l-.75,0,0-.17c.39-1.76,1.07-4.82,1.65-7.45L29.9,45l.24-1c.05-.23.09-.37.09-.37s-.08.43-.22,1.07L29.49,47a.66.66,0,0,1,0,.23l-.11.61-.39,2c-.32,1.53-.67,3.23-.84,4.06l-.4,1.86h3.21l1.87,0,1,0a.9.9,0,0,0,.74-.49,1.71,1.71,0,0,0,.3-.83V51.92l0-2.05c.08-1,.08-1.24,0-.88,0,.18-.06.51-.1,1l-.05,1.67,0,2.2c0,.19,0,.42,0,.6a1.61,1.61,0,0,1-.2.54,1.36,1.36,0,0,1-.38.44.41.41,0,0,1-.23.09h-.33l-2.85,0-2.61,0,1.12-5c.77-3.4,0,0,.08,0L31.13,42,33.44,31.7l.06-.28-.27-.12a1.56,1.56,0,0,0-.59-.18.49.49,0,0,0-.46.27,1.42,1.42,0,0,0-.1.29c0,.09,0,.23,0,.27V32s0,.1,0,.15v.16a3.88,3.88,0,0,1-.22,1.21,3.11,3.11,0,0,1-1.37,1.63l-.3.16a6.52,6.52,0,0,1-1.05.41c-.25.07-.58.15-.89.21,0,0-.08,0-.08,0l-.18-.48-1.15-3.11L26,30.27l-.28.65c0,.1,0,.1,0,.11v0l-2.1,4.79h-.41l-.27-.91h0l-.69-2.28-4.58,2.86L17,32.77h0c-.15-.59-.3-1.18-.43-1.72l-1.47.23c.12.55.22,1,.3,1.35s.07.37.07.37h0c.2.86.48,2.13.72,3.2l.31,1.36c.07.34.12.56.12.56h0c1.53,6.82,2.68,11.93,3.82,17l0,.1H18.87l-2.8,0H15c-.08,0,0,0-.08,0l-.06,0a1.47,1.47,0,0,1-.53-.88,1.74,1.74,0,0,1,0-.3l0-.35,0-.7c0-.47,0-.94,0-1.41s0-.92.08-1.44a5.86,5.86,0,0,0-.15-1.56,5.94,5.94,0,0,0-.59-1.48c-.26-.46-.59-.88-.87-1.28-1.16-1.62-2.33-3.26-3.55-4.91C6.8,37.51,4,34.41,2.83,30.54A24,24,0,0,1,2,27.67c-.1-.49-.15-1-.23-1.47l-.1-.73,0-.74a20.48,20.48,0,0,1,.42-5.81,18.18,18.18,0,0,1,.54-2.07c.13-.41.12-.42-.16.39a22,22,0,0,1,.89-2.42l.54-1.18.64-1.12a13.17,13.17,0,0,1,1-1.5l.45-.67a6.54,6.54,0,0,1,.5-.64C6.69,9.42,7,9,7.61,8.35a24,24,0,0,1,8.74-5.72A24.32,24.32,0,0,1,26.82,1.36a24.22,24.22,0,0,1,10,3.41,22.78,22.78,0,0,1,7.37,7.31l.63,1.14c.1.19.21.37.31.57l.26.59.51,1.19.41,1.22a21.86,21.86,0,0,1,.65,2.5c.09.42.13.85.19,1.28a9.11,9.11,0,0,1,.14,1.28,21.68,21.68,0,0,1-1.67,10.09l-.52,1.19-.63,1.13A19.38,19.38,0,0,1,43,36.44c-1,1.41-2.12,2.83-3.14,4.26s-2,2.88-3,4.33l-1.49,2.18a5.38,5.38,0,0,0-.78,2.64,5.41,5.41,0,0,1,.74-2.57c.47-.69.93-1.36,1.39-2,.91-1.32,1.79-2.58,2.69-3.84s1.81-2.5,2.77-3.78l.73-1,.7-1a19,19,0,0,0,1.3-2.16s.08,0,.76-1.56a21.91,21.91,0,0,0,.62-15.39,21.43,21.43,0,0,0-3.11-6.08,22.21,22.21,0,0,0-3.48-3.72L38.61,5.9c-.39-.31-.86-.6-1.4-1A22.44,22.44,0,0,0,32,2.4a24.06,24.06,0,0,1,2.47,1c.42.17.79.41,1.18.61s.79.41,1.16.65l0,0c-.37-.25-.78-.44-1.18-.67s-.79-.46-1.23-.63a24.33,24.33,0,0,0-2.67-1.06,24,24,0,0,0-2.86-.76c-.49-.11-1-.16-1.48-.24l-.75-.1c-.25,0-.5,0-.75-.05A23.57,23.57,0,0,0,20,1.46l-1.42.31c-.48.09-.92.27-1.37.4a20.09,20.09,0,0,0-2.57,1l0,0c-.55.22-1,.54-1.58.8a12.28,12.28,0,0,0-1.52.92c-.75.47-.3.15.93-.65a24.2,24.2,0,0,1,6.16-2.51,23.61,23.61,0,0,1,9-.47,24.07,24.07,0,0,1,7.78,2.46l0,0a13.3,13.3,0,0,0-1.62-.76L33,2.51c-.28-.11-.57-.19-.85-.29v0C42.29,5.76,48.37,14.86,47.59,25.31l.07-1.58c0-.6,0-1.25-.06-1.91a21.58,21.58,0,0,0-.53-3.45s0,0,0-.21a10,10,0,0,0-.4-1.48l.2.63c.07.22.11.44.16.65l.31,1.34c.08.45.13.91.2,1.38l.1.7,0,.71a21.52,21.52,0,0,1-.41,5.81l-.33,1.44c-.13.47-.3.94-.45,1.4l-.23.7-.3.67c-.2.44-.38.89-.59,1.32a31.28,31.28,0,0,1-3,4.64c-.52.71-.51.71,0,0,.26-.35.69-.85,1.19-1.58l.86-1.22c.28-.48.57-1,.9-1.58a22.38,22.38,0,0,0,2.2-6.64l.22-1.64.08-1.69a23.64,23.64,0,0,0-.26-3.65h0a22.12,22.12,0,0,1,.08,6.12c-.09.54-.12,1.09-.25,1.61L47,29.36c-.15.5-.32,1-.47,1.45l-.23.67-.27.63c-.36.8,0,0,.36-.81s.57-1.67.3-.83a23.25,23.25,0,0,1-2.23,4.8l1-1.8c.3-.65.58-1.32.88-2s.49-1.42.7-2.16l.26-1.12a8.36,8.36,0,0,0,.22-1.13,22.93,22.93,0,0,0-.29-8.72A21.28,21.28,0,0,0,46.56,16a7.66,7.66,0,0,0-.26-.75L46.19,15a22.49,22.49,0,0,0-7.26-9.39,24.67,24.67,0,0,0-8.46-4.15A24.44,24.44,0,0,0,23.71.65l-1.22,0c-.41,0-.82.1-1.23.15S20.42.92,20,1l-1.22.26-.6.13-.58.18L16.49,2C15.75,2.18,15.09,2.51,14.45,2.76Z" fill="#e7e0d4"/>
    <path d="M31.43,35l.3-.12.08,0h0s0,0,0,0l0,.15-.1.64-.15.94.28-1.75s0,0,0,0h0l-.06,0-.13,0-.25.1-.5.21-.71.3L28,36.42l-2.13-5.5C25,33,24.13,35,23.26,37l-1.13-4,0-.13s0,0,0,0l-.05,0-.23.14-.44.28-.59.38-1,.61-1,.58a4.54,4.54,0,0,0-1,.71,2.05,2.05,0,0,0-.57,1.14,3.47,3.47,0,0,0,.07,1.17c.9,4.06,2.08,9.13,3,13.19.24,1,.46,1.89.67,2.53a6,6,0,0,0,.41,1c.26.53.8.9.38.45A5.69,5.69,0,0,1,20.94,53l-.22-1a2.67,2.67,0,0,1-.07-.42s0,.13.08.32l.16.7a6.26,6.26,0,0,1,.28.8,8.43,8.43,0,0,0,.44,1.17,2.12,2.12,0,0,0,.49.65,2.39,2.39,0,0,0,1.24.44c.93.09,1.87.05,2.14.06.8,0,0,0-1.27-.14a3.68,3.68,0,0,1-1.89-.5,3,3,0,0,1-.75-1.58c-.24-1,0,0,.07,0-.27-1-.34-1.51-.58-2.52l-.37-1.71L20,46.38l-.47-2-.11-.44c0-.06,0-.06,0-.06h0c-.13-.51-.35-1.53-.47-2h0c-.25-1-.47-2-.71-3h0l-.16-.7c0-.19-.06-.32-.06-.32h0a2.61,2.61,0,0,1-.08-.84.92.92,0,0,1,.12-.43h0a2,2,0,0,1,.91-.8L20.23,35l1.07-.67.25-.16,0,0h0s0,0,0,0c.47,1.66,1,3.42,1.5,5.26l2.75-6.43h0l.1.26.5,1.25c.19.49.4,1,.23.48l.57,1.46.36.91.54-.24.73-.31,1.47-.63.55-.23c.05,0,.15-.1.11,0l-.17,1.15c-.08.5-.15,1-.25,1.51l-1.35,6.1-1.34,6.1-.66,3.06a2.28,2.28,0,0,1-.54,1.24,1.72,1.72,0,0,1-1.25.38,1.77,1.77,0,0,0,1.22-.33,2,2,0,0,0,.54-1c.19-.89.39-1.77.61-2.79,0,0,0,0,0-.06a3.64,3.64,0,0,0,.11-.44c.68-3.05,1.44-6.62,1.81-8.13.13-.51.27-1,.61-2.54l-.34,1.53h0c.23-1,.48-2.16.74-3.3.09-.58.19-1.15.28-1.71l.12-.75c0-.16.14-.46-.11-.28l0,0-.86.36c-.26.08-.11,0,.3-.17l.69-.3.11-.05s0,.06,0,.08l0,.23-.08.53c-.12.81-.25,1.72-.43,2.59l-.51,2.32h0l.22-1h0l-1.9,8.64.45-2s0,0,0-.07l.1-.44c-.44,2-1,4.55-1.44,6.61-.1.51,0,0,.39-1.51s.55-2.54.89-4.07h0c-.23,1-.56,2.53-.78,3.56-.1.51.25-1,.15-.5l-.33,1.53,1.12-5.08.16-.7a1.41,1.41,0,0,1,.1-.31c.54-2.54,1-4.57,1.41-6.09.06-.25.26-1,.4-1.92.07-.45.16-.94.22-1.4l.15-1,.08-.53s0,0,0,0l-.06,0-.12,0Z" fill="#e7e0d4"/>
    <path d="M12.07,46a8.58,8.58,0,0,1,1.44,3.49,8.73,8.73,0,0,0-1.58-3.71c-.78-1.06-1.57-2.13-2.35-3.21C8,40.45,6.39,38.27,4.86,36.12A25.2,25.2,0,0,1,1.49,29a19.91,19.91,0,0,1-.57-7.75,21.62,21.62,0,0,1,.8-3.82,27.45,27.45,0,0,1,1.42-3.62A23.32,23.32,0,0,1,7.5,7.45l.68-.68.72-.64c.47-.44,1-.79,1.51-1.19A22.67,22.67,0,0,1,13.72,3a24.56,24.56,0,0,1,3.56-1.31A27.6,27.6,0,0,1,21,1a31.86,31.86,0,0,1,5-.18,23.94,23.94,0,0,1,7.61,1.57,21.2,21.2,0,0,1,6.85,4.4,26.19,26.19,0,0,1,4.85,6.5,22.67,22.67,0,0,1,2.49,7.16,21.27,21.27,0,0,1,.08,6,21.76,21.76,0,0,1-.46,2.36c-.14.6-.33,1.17-.42,1.46s-.07.3.14-.27a20.42,20.42,0,0,0,1.06-5,19.09,19.09,0,0,0,0-2.34c0-.61,0-1,0-1s0,.07,0,.2l0,.55,0,.78c0,.28,0,.58,0,.89a.92.92,0,0,1,0,.16v.43c0,.36-.06.85-.1,1.38a17.74,17.74,0,0,1-.54,2.85,22.43,22.43,0,0,1-1.76,4.57c-.24.49-.49,1-.76,1.41s-.5.88-.75,1.24c-.5.74-.88,1.32-1.06,1.57-.54.76-.53.76-.16.29.18-.24.46-.59.78-1s.73-1,1.1-1.63a25.78,25.78,0,0,0,2.23-4.36,22.82,22.82,0,0,0,1.22-4.38c.3-2.46.06,0,.07,0l.19-1.66.05-1.44a19.43,19.43,0,0,0-.25-3.1l0-.33-.18-.88c-.08-.37-.17-.81-.32-1.29a15.63,15.63,0,0,0-.51-1.56,28.09,28.09,0,0,0-3.23-6.22L43.6,9.2A26.53,26.53,0,0,0,41,6.26l-.83-.74L40,5.42h0c-.23-.22-.56-.45-.9-.72l-.54-.41L38,3.88a23.16,23.16,0,0,0-2.19-1.31h0A23.08,23.08,0,0,0,28.53.31v0L27.6.16,26.78.1,26,0V0c-.64,0-1.6,0-2.4,0l-1,.06-.42,0v0a27.27,27.27,0,0,0-6.73,1.4,22.21,22.21,0,0,0-5.26,2.67A22.73,22.73,0,0,0,4.52,9.84,27.69,27.69,0,0,0,.89,17.5a24.58,24.58,0,0,0-.82,4.27,21.9,21.9,0,0,0,.08,4.36,22.59,22.59,0,0,0,2.72,8.13l.44.78.36.56c.18.26.18.25-.14-.28.64,1.07,1.4,2.09,2.12,3.08l2.22,3,2.22,3,1.1,1.5a9.18,9.18,0,0,1,1,1.51,7.59,7.59,0,0,1,.84,3.4,8.63,8.63,0,0,1,0,.88c0,.31-.05.63-.06.94,0,.62,0,1.24,0,1.85l0,.92v1.17H35.75s0-.06,0-.08v-.87c0-.61,0-1.22,0-1.83l0-3.66a5.46,5.46,0,0,1,.33-1.7,4.1,4.1,0,0,1,.39-.75l.53-.76,2.16-3,4.3-6-4,5.53L37.63,46l-1,1.39A4.21,4.21,0,0,0,35.93,49s0,0,0,.13a5.32,5.32,0,0,0-.14,1c0,1.83-.05,3.73,0,5.63v.68s0,.05,0,.07H30.22l-8.68,0c-1.27,0-2.53,0-6.32,0H19v0H13.17s-.07,0-.07,0v-.44l0-2.1c0-.69,0-1.38.07-2.07a8.36,8.36,0,0,0,0-2,8.11,8.11,0,0,0-1.39-3.51l0,0c-.47-.66-1-1.33-1.45-2-.36-.51-.12-.2.5.62.3.41.72.94,1.16,1.58A8.7,8.7,0,0,1,13,48.81a8.43,8.43,0,0,1,.23,3A27.6,27.6,0,0,0,13.19,55l0,.78v.52s.06,0,.09,0h4.43v0H15.22v0H35.41s0,0,0,0v0H31.64s0,0-.15,0h3.89c0-.27,0-.63,0-1,0-.68,0-1.37,0-2.06l0-2.06a9.17,9.17,0,0,1,.14-2,4.51,4.51,0,0,1,.79-1.82c.38-.53.75-1.05,1.1-1.56s.35-.51,0,0l-.82,1.12c-.17.26-.39.52-.6.87a5.18,5.18,0,0,0-.47,1.19,10.54,10.54,0,0,0-.18,2.57l0,2.34V56s0,.1,0,.09h-2.4v0h2.4a.33.33,0,0,0,0-.1V54.37c0-1.53,0-3.06,0-4.29s-.06,2.46-.05,1.23a16.41,16.41,0,0,1,.06-1.85,5.38,5.38,0,0,1,.57-1.81,5.89,5.89,0,0,0-.64,2.93c0,1,0,2.11,0,3.18,0,.54,0,1.07,0,1.6V56c0,.06-.06,0-.09,0H29.33a1,1,0,0,1-.21,0Q19.64,56,14,56h-.41v-.78c0-.81,0-1.8,0-2.85,0-.52.1-1.1.08-1.67a8.28,8.28,0,0,0-.23-1.72A8.66,8.66,0,0,0,12.07,46Z" fill="#e7e0d4"/>
    <path d="M20.25,64.14H15l-.59,0h0c-.27,1.9,1.28,3.65,3.85,4.31a3.31,3.31,0,0,1,1.95,1.22,5,5,0,0,0,4.35,1.88,5.22,5.22,0,0,0,4.3-2,3.24,3.24,0,0,1,1.61-1c2.36-.65,3.94-2.12,4.13-3.83,0-.27,0-.43-.09-.5a1.16,1.16,0,0,0-.69-.11C29.26,64.14,24.68,64.14,20.25,64.14ZM28,69.22c-.38,1.14-1.53,1.82-3.26,1.91h-.39a3.84,3.84,0,0,1-3.62-1.87l-.25-.45h7.66ZM33.69,65c-.13,1.81-2.16,3.24-4.73,3.32-1.48,0-3,.07-4.56.07s-3,0-4.62-.07c-2.44-.06-4.4-1.42-4.75-3.3L15,64.64H33.72Z" fill="#e7e0d4"/>
    <path d="M20.51,64.43h.95l-4.09,0H14.59v.06l0,.16c0,.21.08.47.11.56A3.71,3.71,0,0,0,15,66a4.76,4.76,0,0,0,2.84,2.29,6.88,6.88,0,0,0,2.06.33l1.94.05,1.27,0c1.28,0,2.71,0,4.15,0h1.07c.36,0,.71,0,1.1,0a6.77,6.77,0,0,0,2-.5,4.41,4.41,0,0,0,1.29-.83,3,3,0,0,0,.37-.41c.18-.22.28-.45.11-.24a4.46,4.46,0,0,1-.88.8,4.12,4.12,0,0,1-.5.29.93.93,0,0,1-.23.1s.27-.13.51-.3c0,0,.16-.14.33-.3a5.55,5.55,0,0,0,.44-.46,3.18,3.18,0,0,0,.52-.85,2.74,2.74,0,0,0,.19-.91c0-.36,0,0-.21.52A3.44,3.44,0,0,1,32.31,67c-.43.31,0,0-.06,0a4.63,4.63,0,0,1-1.15.67,6.42,6.42,0,0,1-.92.28,6.86,6.86,0,0,1-1.66.16l-1.27,0c-.32,0-.32,0-.32,0v0c-.31,0-.95,0-1.27,0v0c-.63,0-1.26,0-1.9,0h-.63c-.32,0-.95,0-.95,0h0l-1.7,0-.74,0c-.23,0-.44,0-.66-.06a4.72,4.72,0,0,1-3-1.6,3,3,0,0,1-.42-.67c-.06-.12-.1-.24-.15-.36L15.47,65H16.7c.31,0,.63,0,.31,0h1c.63,0,.32,0,1,0,4.93,0,9.86,0,14.8,0l-.33-.25,0,.34,0-.34.32.24c-1.06,0-1.92,0-3,0,0,0,0,0-.31,0-1.91,0-4.14,0-5.09,0-.32,0-.64,0-1.59,0h.95v0l-4.13,0v0h-.63c-.64,0,2.86,0,4.45,0v0h3.49s0,0-.32,0c1.28,0,2.87,0,4.14,0,.32,0,0,0-1,0H28.14v0h2.23c.31,0-.64,0-.32,0H27.82a5.63,5.63,0,0,1-.63,0c-1.59,0-2.86,0-3.82-.06C23.06,64.42,21.46,64.43,20.51,64.43Z" fill="#e7e0d4"/>
    <path d="M22.83,68.61h.4l-1.75,0H20s0,0-.05,0l0,0,0,.06.14.26.27.48a3.6,3.6,0,0,0,1,1.15,4.55,4.55,0,0,0,1.56.72,5.41,5.41,0,0,0,.58.12,6.9,6.9,0,0,0,1.92,0,4.61,4.61,0,0,0,1.76-.65,1.7,1.7,0,0,0,.47-.45,1.37,1.37,0,0,0,.11-.21c.06-.1.09-.2,0-.12a3,3,0,0,1-.36.37.85.85,0,0,1-.29.2s.09-.08.19-.16.17-.29.23-.38a2.86,2.86,0,0,0,.2-.38,2.05,2.05,0,0,0,.11-.39c0-.15-.05,0-.19.2a2.81,2.81,0,0,1-.53.6c-.16.14,0,0-.06,0a2.64,2.64,0,0,1-.41.32l-.33.17a4.2,4.2,0,0,1-.62.22l-.1,0a2.9,2.9,0,0,1-.37.08c-.12,0-.12,0-.12,0v0a2.73,2.73,0,0,1-.5.06h0a6.26,6.26,0,0,1-.75,0h0a.92.92,0,0,1-.24,0v0a2.12,2.12,0,0,1-.36-.06h0a3.23,3.23,0,0,1-1.06-.39,3.38,3.38,0,0,1-1-.91,2.82,2.82,0,0,1-.18-.29s0,0,0,0h.08c.14,0,.27,0,.14,0h.41c.27,0,.13,0,.41,0,2,0,4,0,6,0l-.32-.3-.13.4.14-.4.31.28h-.94s0,0-.13,0c-.82,0-1.77,0-2.18,0a6.44,6.44,0,0,0-.68,0h.41v0l-1.77,0v0h-.28a13.16,13.16,0,0,1,1.91-.06v0h-.27v0H26s0,0-.14,0h1.77c.14,0,0,0-.41,0h-.13c.13,0-.28,0-.14,0H26c-.14,0-.28,0-.28,0a15,15,0,0,1-1.63,0C23.92,68.6,23.23,68.61,22.83,68.61Z" fill="#e7e0d4"/>
    <path d="M34.06,65.5a3,3,0,0,0,.2-.77,4.08,4.08,0,0,1-2.16,2.86,6.18,6.18,0,0,1-1,.46,5.62,5.62,0,0,1-.53.19l-.27.08-.3.1A3.67,3.67,0,0,0,29,69a3,3,0,0,0-.4.39c-.11.14-.2.25-.31.37a4.61,4.61,0,0,1-1.61,1.14,5.93,5.93,0,0,1-2.12.42A5.7,5.7,0,0,1,22.43,71a4.05,4.05,0,0,1-1.55-1,4.76,4.76,0,0,1-.36-.44,3.37,3.37,0,0,0-.44-.51,3.42,3.42,0,0,0-1-.62A10.07,10.07,0,0,0,18,68.05a6.26,6.26,0,0,1-1.85-1A3.72,3.72,0,0,1,15,65.63a3.27,3.27,0,0,1-.2-.79v-.33s0-.06,0-.05h.4l.5,0,.83,0,.75,0c.37,0,.75,0,.37-.06H15.3a1.5,1.5,0,0,1-.3,0h.75a13.78,13.78,0,0,1,1.5-.09l3-.07a28.08,28.08,0,0,0-3.75-.16c-.75,0,0,0,0-.06H15.13a2.08,2.08,0,0,0-.25,0l-.38,0h-.13a.81.81,0,0,0-.27.08,1.28,1.28,0,0,0-.11.36.52.52,0,0,0,0,.21v.16a2.4,2.4,0,0,0,0,.37,3.44,3.44,0,0,0,.57,1.41l0,.06a1.54,1.54,0,0,0,.13.17,4.78,4.78,0,0,0,.73.73,1.41,1.41,0,0,0,.25.18s0,0,0,0h0a7.39,7.39,0,0,0,1.27.7h0a9.77,9.77,0,0,0,1.08.36,4,4,0,0,1,.9.34h0c.13.07.25.16.34.22l.12.12h0a4.74,4.74,0,0,1,.35.39,2.26,2.26,0,0,1,.22.28h0a5.22,5.22,0,0,0,3.2,1.72,7.76,7.76,0,0,0,2.54,0,5.63,5.63,0,0,0,2.39-1A6.08,6.08,0,0,0,29,70l.18-.22a1.3,1.3,0,0,1,.15-.18,2.89,2.89,0,0,1,.37-.31,3.23,3.23,0,0,1,1-.43,8.65,8.65,0,0,0,1.21-.45c.34-.16.65-.34.31-.19a5.15,5.15,0,0,0,.91-.56,1.78,1.78,0,0,0,.39-.33l.35-.35a4.06,4.06,0,0,0,.84-1.31,3.2,3.2,0,0,0,.19-.72,2.21,2.21,0,0,0,0-.37.62.62,0,0,0-.19-.49,1.27,1.27,0,0,0-.64-.18H27.36l-7.11,0c1.5,0,2.62,0,4.12,0,0,0,0,0,.37,0,2.25,0,4.88,0,6,0,.38,0,.75,0,1.88,0H31.49v0h2.64a1,1,0,0,1,.44.14.5.5,0,0,1,.14.42,2,2,0,0,1,0,.36,3.47,3.47,0,0,1-.19.67h0a3.71,3.71,0,0,1-.26.53c-.13.15,0,0,.15-.38a3.68,3.68,0,0,0,.21-.68c0-.13.05-.27.06-.41a.81.81,0,0,0,0-.22.41.41,0,0,0-.11-.23,1.48,1.48,0,0,0-.72-.12H31.87v0h.75v0H27.75s0,0,.37,0H23.25c-.38,0,0,0,1.12,0h3v0H24.75c-.38,0,.75,0,.37,0h2.63l.75,0c1.87,0,3.37,0,4.5,0h1l.17,0s.06,0,.08,0,.05.3,0,.52A2.72,2.72,0,0,1,34.06,65.5Z" fill="#e7e0d4"/>
    <path d="M13,60.46c0,1.22,1.18,2,3,2H32.65c2,0,3.16-.75,3.19-2a1.62,1.62,0,0,0-.71-1.35,4.15,4.15,0,0,0-2.45-.65H16C14.13,58.49,13,59.25,13,60.46Zm3.32-1.53H32.61a3.59,3.59,0,0,1,2.11.54,1.29,1.29,0,0,1,.55,1c0,1-1.08,1.56-2.7,1.57H16.24a3.62,3.62,0,0,1-2.19-.57,1.23,1.23,0,0,1-.53-1.09C13.55,60,13.88,58.93,16.28,58.93Z" fill="#e7e0d4"/>
    <path d="M23.64,62.29H22.57l9.18,0c.39,0,.74,0,1.17,0a4.52,4.52,0,0,0,1.21-.21,2.59,2.59,0,0,0,1-.57,1.44,1.44,0,0,0,.45-.89,1.32,1.32,0,0,0-.23-.93,2.08,2.08,0,0,0-.86-.7,5.41,5.41,0,0,0-2.28-.37l-1.42,0c-2.83,0-6.38,0-9.22,0-1.42,0-2.48.09-2.48.09-.35,0-.71,0-.35.06h1.5c.53,0,1,0,1,0h-.71a12.36,12.36,0,0,1-1.42.09L16.28,59a25.18,25.18,0,0,0,3.55.16c.71,0,0,0,0,.06H28v0c.7,0,1.41,0,2.12,0v0h1.38a2.67,2.67,0,0,1,.39,0v0a7.62,7.62,0,0,1,1.77.12,1.75,1.75,0,0,1,1,.59,1,1,0,0,1-.11,1.22,2.58,2.58,0,0,1-1.76.59l-4.9,0c-.35,0-.71,0-.35,0H26.47c-.71,0-.35,0-1.06,0H16.9a6.39,6.39,0,0,1-2-.18,1.4,1.4,0,0,1-1.07-1,1.07,1.07,0,0,1,.6-1.16,4.06,4.06,0,0,1,1.81-.36,4.28,4.28,0,0,0-1.7.29,1.15,1.15,0,0,0-.76,1s0,0,0,.23a1.24,1.24,0,0,0,.72.85,3.67,3.67,0,0,0,1.37.32c1,0,1.89,0,2.42,0,.35,0,.71,0,1.77,0H19v0l4.61,0v0h.71c.7.06-3.2,0-5,0v0h.71v0h-3a14.68,14.68,0,0,1-1.48,0,3.43,3.43,0,0,1-1.41-.44,3.44,3.44,0,0,0,1.29.42l0,0,.31,0a3.09,3.09,0,0,1-2-.75,1.23,1.23,0,0,1-.06-1.63c.09-.12.08-.12,0,0a1.17,1.17,0,0,0-.32.76c0,.82.66,1.35,1.69,1.58h0A2.8,2.8,0,0,1,14,61.57a1.42,1.42,0,0,1-.57-.84c0-.14,0,0,0,.13s.11.27,0,.14a1.32,1.32,0,0,1-.08-.83,1.29,1.29,0,0,0,.44,1.32,3.07,3.07,0,0,0,1.62.65c.37.06.74.07.74.08,1.77,0,3.19,0,4.25.06Z" fill="#e7e0d4"/>
    <path d="M27.84,58.69H26.7l4.92,0h1.23a5.7,5.7,0,0,1,1.12.16A2,2,0,0,1,35.42,60a1.48,1.48,0,0,1-.33,1.52,3,3,0,0,1-1.85.7,10.84,10.84,0,0,1-1.15,0H30.9l-2.32,0-1.53,0c-3.06,0-6.88,0-9.93,0l-1.07,0c-.3,0-.56,0-.77,0a4,4,0,0,1-.67-.11c-.32-.09-.62-.23-.34-.07a4,4,0,0,0,1.43.33c.54,0,1,0,1,0H16a2.56,2.56,0,0,1-.61,0,3.35,3.35,0,0,1-.86-.15,2.5,2.5,0,0,1-1.16-.69,1.76,1.76,0,0,1-.43-1.07c0-.21,0-.21,0-.07a1.56,1.56,0,0,0,.07.76,1.9,1.9,0,0,0,.86,1,3.68,3.68,0,0,0,1.36.47c.8.1,0,0,0,.06a8.16,8.16,0,0,0,1,.06c.28,0,.57,0,.95,0l1.29,0h3.68c.38,0,.38,0,.38,0v0c.39,0,1.15,0,1.53,0h2.82a1,1,0,0,1,.24,0H28.2v0l3.82,0a7.38,7.38,0,0,0,2.56-.28,2.9,2.9,0,0,0,1.15-.69,1.89,1.89,0,0,0,.53-1,1.81,1.81,0,0,0-.16-1.11,2.32,2.32,0,0,0-.91-.93,5.36,5.36,0,0,0-2.76-.56c-.38,0-.76,0-.38,0H30.9c-.76,0-.38,0-1.15,0l-9.17,0H16a4.75,4.75,0,0,0-2.36.55,1.91,1.91,0,0,0-1,1.67,1.87,1.87,0,0,1,.86-1.55,4.12,4.12,0,0,1,2.09-.63H16c2.29,0,5,0,6.11,0,.38,0,.76,0,1.91,0H22.87v0l5,0v0h.77c.76.05-3.44,0-5.35.05v0H17c-.43,0-.86,0-1.27,0a5.1,5.1,0,0,0-1.16.2c-.17.06-.16.07,0,0a5.56,5.56,0,0,1,1.09-.17c1.13,0,1.91,0,3.05,0H16c-.38,0,.76,0,.38,0a6.89,6.89,0,0,0-1.12.06,16,16,0,0,1,1.88,0h1.91a4.83,4.83,0,0,1,.77,0c1.91,0,3.44,0,4.58,0C24.78,58.7,26.7,58.69,27.84,58.69Z" fill="#e7e0d4"/>
  </g>
</svg>
