<svg xmlns="http://www.w3.org/2000/svg" viewBox="0 0 84.11 88.4">
  <g>
    <path d="M60.66,54.15l.19-.26c6-8.29,6.61-16.77,1.73-25.18S49.65,16.13,39.5,17c-9.12.8-15.87,5.56-19.53,13.76s-2.6,16,3,23.36c1,1.27,1.9,2.57,2.82,3.83s2.05,2.84,3.11,4.22a8.27,8.27,0,0,1,1.8,6,31.53,31.53,0,0,0-.05,3.38c0,.38,0,.75,0,1.13H52.85c0-.52,0-1,0-1.53,0-1.61,0-3.12,0-4.65a5.05,5.05,0,0,1,.79-2.6C56,60.64,58.35,57.34,60.66,54.15ZM42.9,72.26h-.28c-3.27-.07-3.46-.23-4.19-3.4-.38-1.7-.77-3.39-1.15-5.08-.7-3.11-1.42-6.32-2.16-9.47a1.89,1.89,0,0,1,1.08-2.44c.55-.29,1.07-.63,1.68-1l.9-.59.51-.31,1.33,4.6,2.69-6.26,2,5,3.63-1.51-.12.76c-.05.31-.09.59-.13.86-.07.55-.15,1.06-.26,1.56-.39,1.79-.79,3.57-1.18,5.36-.75,3.35-1.51,6.8-2.23,10.21A1.84,1.84,0,0,1,42.9,72.26Zm9.4-5.88c-.07.83-.06,1.69,0,2.52,0,.64,0,1.3,0,2,0,.43-.45,1.29-1,1.31-1,0-1.91,0-2.89,0H45.18l1-4.35c.61-2.82,1.21-5.57,1.82-8.31s1.17-5.3,1.76-7.94l.77-3.49C50.11,47.94,50,48,50,48s-.11.06-.16.47l0,.14s0,0,0,.07c0,3-2.36,3.78-4.14,4.12l-.38.07-1.9-5.13-2.15,4.89-.92,0-.89-3-4.59,2.87L33.67,48l-.72.11,5.43,24.1h-2c-1.41,0-2.74,0-4.08-.05-.57,0-1-.92-1.06-1.4a26.61,26.61,0,0,1,0-3.91A5.4,5.4,0,0,0,30.13,63c-.88-1.19-1.74-2.41-2.58-3.59-1.33-1.87-2.7-3.81-4.13-5.65a22.14,22.14,0,0,1,2.81-30.58,23.86,23.86,0,0,1,31.53.29,22.14,22.14,0,0,1,2.75,29.92C57.86,56.86,55.34,60.51,53,64A5.17,5.17,0,0,0,52.3,66.38Z"/>
    <path d="M31.87,19.26a21.89,21.89,0,0,1,2.55-1c.43-.13.86-.28,1.3-.4l1.33-.29-1.41.31-1.39.43-.7.21-.67.28-1.34.56-1.29.67-.64.35L29,20.8l-1.22.8-1.13.9a22.93,22.93,0,0,0-6.82,9.19A22.64,22.64,0,0,0,20,48.52a22.92,22.92,0,0,0,1.28,2.58c.25.41.46.85.74,1.24l.83,1.18c2.23,3.09,4.47,6.11,6.66,9.19.27.39.55.75.77,1.14a5.32,5.32,0,0,1,.52,1.2A4.71,4.71,0,0,1,31,66.34c0,.42-.06.91-.07,1.38,0,.93,0,1.87.05,2.79a2.3,2.3,0,0,0,.14.78,2.53,2.53,0,0,0,.4.69,1.23,1.23,0,0,0,.83.48l.72,0,2.85,0c.47,0,.94,0,1.41,0h1.54v-.07l0-.15-.06-.3c-.41-1.84-.82-3.66-1.23-5.48L35.17,56.14c-.38-1.7-1.13-5.12-1.5-6.82l-.2-.9h-.1l.09,0-.13,0h0c.39,1.56.79,3.15,1.2,4.76l4.61-2.87L40,53.08l1.55,0,1.82-4.13h0l.2.55.59,1.59.59,1.59.14.38.07.2c0,.05,0,.17.12.12l.77-.15c.3-.06.59-.13.88-.21a6.13,6.13,0,0,0,1.7-.75,4,4,0,0,0,1.3-1.36,4.29,4.29,0,0,0,.51-1.75l0-.44s0,0,0,0l0-.13v0h0L50.06,48c-.79,3.58-1.56,7-2.28,10.33-1.49,6.83-2.5,12-2.5,12l-.44,2.15c.57,0,1,0,1,0s0,0-.15,0l-.75,0,0-.17c.39-1.76,1.07-4.82,1.65-7.45l.73-3.31.24-1c0-.23.09-.37.09-.37s-.08.43-.22,1.07l-.52,2.34a.64.64,0,0,1,0,.23l-.11.61-.39,1.95c-.32,1.53-.67,3.23-.84,4.06l-.4,1.86h3.21l1.87,0,1,0a.9.9,0,0,0,.74-.49,1.61,1.61,0,0,0,.3-.83V68.42l0-2c.08-1,.08-1.25,0-.89,0,.18-.06.51-.1,1l0,1.67,0,2.2c0,.2,0,.42,0,.6a1.61,1.61,0,0,1-.2.54,1.36,1.36,0,0,1-.38.44.41.41,0,0,1-.23.09h-.33l-2.85,0-2.61,0c.42-1.85.81-3.59,1.12-4.95.77-3.41,0,0,.08,0l1.88-8.53L50.86,48.2l.06-.28-.26-.12a1.6,1.6,0,0,0-.6-.18.48.48,0,0,0-.46.28,1.16,1.16,0,0,0-.1.28c0,.09,0,.23,0,.27v.06s0,.11,0,.15v.16A4.2,4.2,0,0,1,49.2,50a3.17,3.17,0,0,1-1.38,1.63l-.3.16a6.52,6.52,0,0,1-1.05.41c-.25.07-.58.15-.89.21,0,0-.08,0-.08,0l-.18-.48-1.15-3.11-.77-2.06-.28.65,0,.11v0L41,52.28h-.41l-.27-.91h0l-.69-2.28L35.05,52l-.68-2.68h0c-.15-.59-.3-1.18-.43-1.72l-1.47.23c.12.55.22,1,.3,1.35s.07.37.07.37h0c.2.86.48,2.13.72,3.2l.31,1.36c.07.34.12.56.12.56h0c1.53,6.82,2.68,11.93,3.82,17.05l0,.1H36.29l-2.8,0H32.34l-.06,0a1.47,1.47,0,0,1-.53-.88,1.63,1.63,0,0,1,0-.3l0-.35,0-.7c0-.47,0-.94,0-1.41s0-.92.08-1.44A5.86,5.86,0,0,0,31.59,65,5.94,5.94,0,0,0,31,63.55c-.26-.46-.59-.88-.87-1.28C29,60.65,27.8,59,26.58,57.36,24.22,54,21.44,50.91,20.25,47a24,24,0,0,1-.81-2.87c-.1-.49-.15-1-.23-1.47l-.1-.73,0-.74a20.51,20.51,0,0,1,.42-5.81A18.18,18.18,0,0,1,20,33.35c.13-.41.12-.42-.16.39a19.45,19.45,0,0,1,.9-2.41l.53-1.18L21.94,29a13.17,13.17,0,0,1,1-1.5l.45-.67a6.54,6.54,0,0,1,.5-.64c.26-.29.59-.72,1.18-1.36a24,24,0,0,1,8.74-5.72A23.59,23.59,0,0,1,54.2,21.27a22.78,22.78,0,0,1,7.37,7.31l.63,1.14c.1.19.21.37.31.57l.26.59.52,1.19.4,1.22a21.86,21.86,0,0,1,.65,2.5c.09.42.13.85.19,1.28a9.28,9.28,0,0,1,.14,1.28A21.68,21.68,0,0,1,63,48.44l-.52,1.19-.63,1.13a19.38,19.38,0,0,1-1.42,2.18c-1,1.41-2.12,2.83-3.14,4.26s-2,2.88-3,4.33l-1.49,2.18A5.38,5.38,0,0,0,52,66.35a5.41,5.41,0,0,1,.74-2.57c.47-.69.93-1.35,1.39-2,.91-1.32,1.79-2.58,2.69-3.84s1.81-2.5,2.77-3.78l.73-1,.7-1A19,19,0,0,0,62.3,50s.08,0,.76-1.56a21.91,21.91,0,0,0,.62-15.39A21.43,21.43,0,0,0,60.57,27a22.21,22.21,0,0,0-3.48-3.72L56,22.4c-.39-.31-.86-.6-1.4-1a22.44,22.44,0,0,0-5.17-2.52,24.06,24.06,0,0,1,2.47,1c.42.17.79.41,1.18.61s.79.41,1.16.65l0,0c-.37-.25-.78-.44-1.18-.67s-.79-.46-1.23-.63a24.33,24.33,0,0,0-2.67-1.06A24,24,0,0,0,46.35,18c-.49-.11-1-.16-1.48-.24l-.75-.1c-.25,0-.5,0-.75-.05a23.57,23.57,0,0,0-5.95.33L36,18.27c-.48.09-.92.27-1.37.4a20.09,20.09,0,0,0-2.57,1l0,0c-.55.22-1.05.54-1.58.8a12.28,12.28,0,0,0-1.52.92c-.75.47-.3.15.93-.65A24.58,24.58,0,0,1,36,18.17a23.61,23.61,0,0,1,9-.47,24.07,24.07,0,0,1,7.78,2.46l0,0a13.3,13.3,0,0,0-1.62-.76L50.38,19c-.28-.11-.57-.19-.85-.29v0C59.71,22.26,65.79,31.36,65,41.81l.07-1.58c0-.6,0-1.25-.06-1.91a21.58,21.58,0,0,0-.53-3.45s0,0,0-.21a10,10,0,0,0-.4-1.48l.2.63c.07.22.11.44.16.65l.31,1.34c.08.45.13.91.2,1.38l.1.7,0,.72a21.47,21.47,0,0,1-.41,5.8l-.33,1.44c-.13.47-.3.94-.45,1.4l-.23.7-.3.67c-.2.44-.38.89-.59,1.32a31.28,31.28,0,0,1-3.05,4.64c-.52.71-.51.71,0,0,.26-.35.69-.85,1.19-1.58l.86-1.22c.28-.48.57-1,.9-1.58a22.38,22.38,0,0,0,2.2-6.64l.22-1.64.08-1.69a23.73,23.73,0,0,0-.26-3.65h0A22,22,0,0,1,65,42.69c-.09.54-.12,1.09-.25,1.62l-.36,1.55c-.15.5-.32,1-.47,1.45l-.23.67-.27.63c-.36.8,0,0,.36-.81s.57-1.67.3-.83a23.25,23.25,0,0,1-2.23,4.8l1-1.8c.3-.65.58-1.32.88-2s.49-1.42.7-2.16l.26-1.11a8.82,8.82,0,0,0,.22-1.14,22.94,22.94,0,0,0-.29-8.72A21.28,21.28,0,0,0,64,32.51a7.66,7.66,0,0,0-.26-.75l-.11-.29a22.49,22.49,0,0,0-7.26-9.39,23.91,23.91,0,0,0-15.22-4.93l-1.22,0c-.41,0-.82.1-1.23.15s-.83.08-1.24.18l-1.22.26-.6.13-.58.18-1.13.36C33.17,18.68,32.51,19,31.87,19.26Z"/>
    <path d="M48.85,51.52l.3-.12.08,0,0,0s0,0,0,0l0,.15-.1.64-.15.94.28-1.75s0,0,0,0h0l-.06,0-.13,0-.25.1-.5.21-.71.3-2.14.88-2.13-5.5c-.88,2-1.77,4.1-2.64,6.11l-1.13-4,0-.13s0,0,0,0l-.05,0-.23.14-.44.28-.59.38c-.33.21-.65.42-1,.61l-1,.58a4.54,4.54,0,0,0-1,.71,2.05,2.05,0,0,0-.57,1.14,3.47,3.47,0,0,0,.07,1.17c.9,4.06,2.08,9.13,3,13.19.24,1,.46,1.89.67,2.53a6,6,0,0,0,.41,1c.26.53.8.9.38.45a5.69,5.69,0,0,1-.81-2.14l-.22-1a2.49,2.49,0,0,1-.07-.42s0,.13.08.32l.16.7a6.26,6.26,0,0,1,.28.8A8.43,8.43,0,0,0,39,71.06a2.12,2.12,0,0,0,.49.65,2.39,2.39,0,0,0,1.24.44,20.24,20.24,0,0,0,2.14.06c.8,0,0,0-1.27-.14a3.68,3.68,0,0,1-1.89-.5A3,3,0,0,1,39,70c-.24-1,0,0,.07,0-.27-1-.34-1.51-.58-2.52l-.37-1.71-.65-2.86-.47-2-.11-.45c0-.06,0-.06,0-.06h0c-.13-.51-.35-1.53-.47-2h0c-.25-1-.47-2-.71-3h0l-.16-.7c0-.19-.06-.32-.06-.32h0a2.61,2.61,0,0,1-.08-.84.92.92,0,0,1,.12-.43h0a2,2,0,0,1,.91-.8l1.19-.72c.38-.22.73-.45,1.07-.67l.25-.16,0,0h0s0,0,0,0c.47,1.66,1,3.42,1.5,5.26l2.75-6.43h0l.1.26L43.9,51c.19.49.4,1,.23.48l.57,1.46.36.91.54-.24.73-.31,1.47-.63.55-.23s.15-.1.11,0l-.17,1.15c-.08.5-.15,1-.25,1.52l-1.35,6.09-1.34,6.1-.66,3.06a2.25,2.25,0,0,1-.54,1.24A1.77,1.77,0,0,1,42.9,72a1.88,1.88,0,0,0,1.22-.33,2,2,0,0,0,.54-1.05c.19-.89.39-1.77.61-2.79,0,0,0,0,0-.06a3.64,3.64,0,0,0,.11-.44c.68-3,1.44-6.62,1.81-8.13.13-.51.27-1,.61-2.53l-.34,1.52h0c.23-1,.48-2.16.74-3.3.09-.58.19-1.15.28-1.71l.12-.75c0-.16.14-.46-.11-.28l0,0-.86.36c-.26.08-.11,0,.3-.17l.69-.3.11-.05s0,.06,0,.08l0,.23-.08.53c-.12.81-.25,1.72-.43,2.59l-.51,2.32h0l.22-1h0l-1.9,8.64.45-2s0,0,0-.07l.1-.44c-.44,2-1,4.55-1.44,6.61-.1.51,0,0,.39-1.51s.55-2.54.89-4.07h0c-.23,1-.56,2.53-.78,3.56-.1.51.25-1,.15-.5l-.33,1.53,1.12-5.08.16-.7a1.41,1.41,0,0,1,.1-.31c.54-2.54,1-4.57,1.41-6.09.06-.25.26-1,.4-1.92.07-.45.16-.94.22-1.4l.15-1,.08-.53s0,0,0,0l-.06,0-.12,0Z"/>
    <path d="M29.49,62.51A8.58,8.58,0,0,1,30.93,66a8.64,8.64,0,0,0-1.58-3.7c-.78-1.07-1.57-2.14-2.35-3.22-1.57-2.13-3.19-4.31-4.72-6.46a25.2,25.2,0,0,1-3.37-7.11,19.91,19.91,0,0,1-.57-7.75,21.62,21.62,0,0,1,.8-3.82,27.45,27.45,0,0,1,1.42-3.62A23.32,23.32,0,0,1,24.92,24l.68-.68.72-.64c.47-.44,1-.79,1.51-1.19a22.67,22.67,0,0,1,3.31-1.9,24.56,24.56,0,0,1,3.56-1.31,27.6,27.6,0,0,1,3.69-.71,31.86,31.86,0,0,1,5-.18A23.94,23.94,0,0,1,51,18.91a21.26,21.26,0,0,1,6.85,4.4,26.19,26.19,0,0,1,4.85,6.5A22.67,22.67,0,0,1,65.17,37a21.27,21.27,0,0,1,.08,6,21.76,21.76,0,0,1-.46,2.36c-.13.6-.33,1.17-.42,1.46s-.07.3.14-.27a20.33,20.33,0,0,0,1.06-5,19.25,19.25,0,0,0,0-2.35c0-.6,0-1,0-1s0,.07,0,.2l0,.55,0,.78c0,.28,0,.58,0,.89a.92.92,0,0,1,0,.16v.43c0,.36-.06.85-.1,1.38A17.74,17.74,0,0,1,65,45.39,22.67,22.67,0,0,1,63.28,50c-.24.48-.49,1-.76,1.4s-.5.88-.75,1.24c-.5.74-.88,1.32-1.06,1.57-.54.76-.53.76-.16.29.18-.24.46-.59.78-1s.73-1,1.1-1.63a25.78,25.78,0,0,0,2.23-4.36,22.82,22.82,0,0,0,1.22-4.38c.3-2.46.06,0,.08,0l.18-1.66,0-1.44a19.43,19.43,0,0,0-.25-3.1l0-.33-.18-.88c-.08-.37-.17-.81-.32-1.29a15.63,15.63,0,0,0-.51-1.56,28.09,28.09,0,0,0-3.23-6.22L61,25.7a26.53,26.53,0,0,0-2.61-2.94L57.58,22c-.12-.11-.12-.1-.12-.1h0c-.23-.22-.56-.44-.9-.72L56,20.78l-.59-.4a20.89,20.89,0,0,0-2.19-1.3v0A23.08,23.08,0,0,0,46,16.81v0L45,16.66l-.82-.05-.8-.07v0c-.64,0-1.6,0-2.4,0l-1,.06-.42,0v0A27.27,27.27,0,0,0,32.83,18a22.21,22.21,0,0,0-5.26,2.67,22.73,22.73,0,0,0-5.63,5.65A27.69,27.69,0,0,0,18.31,34a24.58,24.58,0,0,0-.82,4.27,21.9,21.9,0,0,0,.08,4.36,22.59,22.59,0,0,0,2.72,8.13l.44.78.36.56c.18.26.18.25-.14-.28.64,1.07,1.4,2.09,2.12,3.08l2.22,3,2.22,3,1.1,1.5a9.18,9.18,0,0,1,1,1.51,7.59,7.59,0,0,1,.84,3.4,8.63,8.63,0,0,1,0,.88c0,.31-.05.63-.06.94,0,.62,0,1.24,0,1.85l0,.92V73H53.17s0-.05,0-.08v-.87c0-.61,0-1.22,0-1.83l0-3.66a5.46,5.46,0,0,1,.33-1.7,4.1,4.1,0,0,1,.39-.75l.53-.76,2.16-3,4.3-6-4,5.53-1.91,2.67-1,1.39a4.21,4.21,0,0,0-.71,1.53s0,0-.05.13a5.32,5.32,0,0,0-.14,1c0,1.83,0,3.73,0,5.63v.68s0,.06,0,.07H47.65L39,73c-1.27,0-2.53,0-6.32,0h3.79v0H30.6s-.08,0-.08,0v-.44l0-2.1a20.46,20.46,0,0,1,.08-2.07,8.91,8.91,0,0,0,0-2,8.11,8.11,0,0,0-1.39-3.51l0,0c-.47-.66-1-1.33-1.45-2-.36-.51-.12-.2.5.62.3.41.72.94,1.16,1.58a8.7,8.7,0,0,1,1.07,2.38,8.43,8.43,0,0,1,.23,3,27.6,27.6,0,0,0-.05,3.15l0,.78v.52s.06,0,.09,0h4.43v0H32.64v0H52.83s0,0,0,0v0H49.06s0,0-.15,0H52.8c0-.27,0-.63,0-1,0-.68,0-1.37,0-2.06l0-2.06a9.17,9.17,0,0,1,.14-2,4.51,4.51,0,0,1,.79-1.82c.38-.53.75-1.05,1.1-1.56s.35-.51,0,0L54,63.29c-.17.26-.39.52-.6.87A5.18,5.18,0,0,0,53,65.35a10.54,10.54,0,0,0-.18,2.57l0,2.34v2.27s0,.1,0,.09h-2.4v0h2.4s0-.06,0-.1V70.87c0-1.53,0-3.06,0-4.29s-.06,2.46-.05,1.23A16.41,16.41,0,0,1,52.78,66a5.38,5.38,0,0,1,.57-1.81,5.89,5.89,0,0,0-.64,2.93c0,1,0,2.11,0,3.18,0,.54,0,1.08,0,1.61v.65c0,.06-.06,0-.09,0H46.54q-9.48,0-15.17-.07H31v-.78c0-.81,0-1.8,0-2.85,0-.52.1-1.09.08-1.67a8.28,8.28,0,0,0-.23-1.72A8.66,8.66,0,0,0,29.49,62.51Z"/>
    <path d="M37.67,80.64H32.38l-.59,0h0c-.26,1.9,1.28,3.65,3.85,4.31a3.31,3.31,0,0,1,1.95,1.22,5,5,0,0,0,4.35,1.88,5.22,5.22,0,0,0,4.3-2,3.24,3.24,0,0,1,1.61-1c2.36-.65,3.94-2.12,4.13-3.83,0-.26,0-.43-.09-.5a1.16,1.16,0,0,0-.69-.11C46.68,80.64,42.1,80.64,37.67,80.64Zm7.73,5.08c-.37,1.14-1.53,1.82-3.26,1.91h-.39a3.84,3.84,0,0,1-3.62-1.87l-.25-.45h7.66Zm5.71-4.24C51,83.29,49,84.72,46.38,84.8c-1.48,0-3,.07-4.56.07s-3,0-4.62-.07c-2.44-.06-4.4-1.42-4.75-3.29l-.07-.37H51.14Z"/>
    <path d="M37.93,80.93h1l-4.09,0H32V81l0,.16c0,.21.08.47.11.56a3.71,3.71,0,0,0,.27.77,4.76,4.76,0,0,0,2.84,2.29,6.88,6.88,0,0,0,2.06.33l1.94.05,1.27,0c1.28,0,2.71,0,4.15,0h1.07c.36,0,.71,0,1.1,0a6.77,6.77,0,0,0,2-.5,4.64,4.64,0,0,0,1.29-.82,3.42,3.42,0,0,0,.37-.42c.18-.22.28-.45.11-.24a4.46,4.46,0,0,1-.88.8,4.12,4.12,0,0,1-.5.29.93.93,0,0,1-.23.1s.27-.13.51-.29a2.77,2.77,0,0,1,.33-.31,5.55,5.55,0,0,0,.44-.46,3.18,3.18,0,0,0,.52-.85,2.74,2.74,0,0,0,.19-.91c0-.36,0,0-.21.52a3.44,3.44,0,0,1-1.12,1.46c-.43.31,0,0-.06,0a4.63,4.63,0,0,1-1.15.67,6.42,6.42,0,0,1-.92.28,6.86,6.86,0,0,1-1.66.16l-1.27,0c-.32,0-.32,0-.32,0v0c-.31,0-1,0-1.27,0v0c-.63,0-1.26,0-1.9,0h-.63c-.32,0-.95,0-.95,0h0l-1.7,0-.74,0c-.23,0-.44,0-.66-.06a4.68,4.68,0,0,1-3-1.6,3,3,0,0,1-.42-.67c-.06-.12-.1-.24-.15-.36l-.08-.33h1.23c.31,0,.63,0,.31,0h1c.63,0,.32,0,1,0,4.93,0,9.86,0,14.8,0l-.33-.25,0,.34,0-.34.32.24c-1.06,0-1.92,0-3,0,0,0,0,0-.31,0-1.91,0-4.14,0-5.09,0-.32,0-.64,0-1.59,0h1v0l-4.13,0v0H37.3c-.64,0,2.86,0,4.45,0v0h3.49s0,0-.32,0c1.28,0,2.87,0,4.14,0,.32,0,0,0-1,0H45.56v0h2.23c.31,0-.64,0-.32,0H45.24a5.63,5.63,0,0,1-.63,0c-1.59,0-2.86,0-3.82-.06C40.48,80.92,38.88,80.93,37.93,80.93Z"/>
    <path d="M40.25,85.11h.4l-1.75,0H37.44s0,0,0,0l0,0,0,.06.14.26.27.48a3.6,3.6,0,0,0,1,1.15,4.38,4.38,0,0,0,1.56.72,5.41,5.41,0,0,0,.58.12,6.9,6.9,0,0,0,1.92,0,4.61,4.61,0,0,0,1.76-.65,1.7,1.7,0,0,0,.47-.45,1.37,1.37,0,0,0,.11-.21c.06-.1.09-.2,0-.12a3,3,0,0,1-.36.37.85.85,0,0,1-.29.2s.09-.08.19-.16.17-.29.23-.38a2.86,2.86,0,0,0,.2-.38,2.05,2.05,0,0,0,.11-.39c0-.15-.05,0-.19.2a2.59,2.59,0,0,1-.53.6c-.16.14,0,0-.06,0a2.64,2.64,0,0,1-.41.32l-.33.17a4.2,4.2,0,0,1-.62.22l-.1,0a2.9,2.9,0,0,1-.37.08c-.12,0-.12,0-.12,0h0a4,4,0,0,1-.5.05h0a6.26,6.26,0,0,1-.75,0h0a.92.92,0,0,1-.24,0v0a2.12,2.12,0,0,1-.36-.06h0a3.23,3.23,0,0,1-1.06-.39,3.38,3.38,0,0,1-1-.91,2.82,2.82,0,0,1-.18-.29h.06c.14,0,.27,0,.14,0h.41c.27,0,.13,0,.41,0,2,0,4,0,6,0l-.32-.3-.13.4.14-.4.31.28H44.6s0,0-.13,0c-.82,0-1.77,0-2.18,0a6.44,6.44,0,0,0-.68,0H42v0l-1.77,0v0H40a13.16,13.16,0,0,1,1.91-.06v0h-.27v0h1.77s0,0-.14,0H45c.14,0,0,0-.41,0h-.13c.13,0-.28,0-.14,0h-.95c-.14,0-.28,0-.28,0a15,15,0,0,1-1.63,0C41.34,85.1,40.65,85.11,40.25,85.11Z"/>
    <path d="M51.48,82a3,3,0,0,0,.2-.77,4.08,4.08,0,0,1-2.16,2.86,7.26,7.26,0,0,1-1,.47c-.18.06-.35.13-.53.18l-.27.08-.3.1a3.67,3.67,0,0,0-1.07.58,3,3,0,0,0-.4.39c-.11.14-.2.25-.31.37a4.61,4.61,0,0,1-1.61,1.14,5.93,5.93,0,0,1-2.12.42,5.7,5.7,0,0,1-2.09-.32,4.05,4.05,0,0,1-1.55-1,4.76,4.76,0,0,1-.36-.44,3.37,3.37,0,0,0-.44-.51,3.42,3.42,0,0,0-1-.62,10.07,10.07,0,0,0-1.15-.37,6.26,6.26,0,0,1-1.85-1,3.72,3.72,0,0,1-1.12-1.45,3.27,3.27,0,0,1-.2-.79V81s0-.06,0-.05h.9l.83,0,.75,0c.37,0,.75,0,.37-.06H32.72a2,2,0,0,1-.3,0h.75a13.78,13.78,0,0,1,1.5-.09l3-.07a30.58,30.58,0,0,0-3.75-.16c-.75,0,0,0,0-.06-.38,0-.66,0-.94,0H32.3l-.38,0h-.13a.81.81,0,0,0-.27.08,1.28,1.28,0,0,0-.11.36.52.52,0,0,0,0,.21v.16a2.4,2.4,0,0,0,0,.37A3.44,3.44,0,0,0,32,83l0,.06a1.54,1.54,0,0,0,.13.17,4.78,4.78,0,0,0,.73.73c.13.11.21.16.25.19s0,0,0,0h0a7.39,7.39,0,0,0,1.27.7h0a9.77,9.77,0,0,0,1.08.36,4.55,4.55,0,0,1,.9.34h0c.13.07.25.16.34.22l.12.12h0a4.74,4.74,0,0,1,.35.39c.12.15.23.28.22.28h0a5.22,5.22,0,0,0,3.2,1.72,8.1,8.1,0,0,0,2.55,0,5.79,5.79,0,0,0,2.38-1,6.08,6.08,0,0,0,.86-.81l.18-.22a1.3,1.3,0,0,1,.15-.18,2.89,2.89,0,0,1,.37-.31,3.23,3.23,0,0,1,1-.43,8.65,8.65,0,0,0,1.21-.45c.34-.16.65-.34.31-.19a5.15,5.15,0,0,0,.91-.56,1.78,1.78,0,0,0,.39-.33l.35-.35a4.06,4.06,0,0,0,.84-1.31,3.06,3.06,0,0,0,.19-.72,2.1,2.1,0,0,0,0-.37.62.62,0,0,0-.19-.49,1.27,1.27,0,0,0-.64-.18c-.18,0-.33,0-.48,0H44.78l-7.11,0c1.5,0,2.62,0,4.12,0,0,0,0,0,.38,0,2.24,0,4.87,0,6,0,.38,0,.75,0,1.88,0H48.91v0h2.64a1,1,0,0,1,.44.14.5.5,0,0,1,.14.42,2,2,0,0,1,0,.36,3.47,3.47,0,0,1-.19.67h0a3.71,3.71,0,0,1-.26.53c-.13.15,0,0,.15-.38a3.68,3.68,0,0,0,.21-.68c0-.13.05-.27.06-.41a.81.81,0,0,0,0-.22.41.41,0,0,0-.11-.23,1.48,1.48,0,0,0-.72-.12H49.29v0H50v0H45.17s0,0,.37,0c-1.5,0-3.37,0-4.87,0-.38,0,0,0,1.12,0h3v0H42.17c-.38,0,.75,0,.37,0h2.63l.75,0c1.87,0,3.37,0,4.5,0h1l.17,0s.06,0,.08,0,.05.3,0,.52A2.72,2.72,0,0,1,51.48,82Z"/>
    <path d="M30.38,77c0,1.22,1.18,2,3,2H50.07c2,0,3.16-.75,3.19-2a1.62,1.62,0,0,0-.71-1.35A4.15,4.15,0,0,0,50.1,75H33.42C31.55,75,30.39,75.75,30.38,77Zm3.32-1.53H50a3.59,3.59,0,0,1,2.11.54,1.29,1.29,0,0,1,.55,1c0,.94-1.08,1.55-2.7,1.56H33.66A3.62,3.62,0,0,1,31.47,78a1.23,1.23,0,0,1-.53-1.09C31,76.46,31.3,75.43,33.7,75.43Z"/>
    <path d="M41.06,78.79H40l9.18,0c.39,0,.74,0,1.17,0a4.52,4.52,0,0,0,1.21-.21,2.59,2.59,0,0,0,1-.57,1.44,1.44,0,0,0,.45-.89,1.32,1.32,0,0,0-.23-.93,2.08,2.08,0,0,0-.86-.7,5.57,5.57,0,0,0-2.28-.37l-1.42,0c-2.83,0-6.38,0-9.22,0-1.42,0-2.48.09-2.48.09-.35,0-.71,0-.35.06h1.5c.53,0,1,0,1,0H38a12.36,12.36,0,0,1-1.42.09l-2.84.08a29.24,29.24,0,0,0,3.55.15c.71,0,0,0,0,.06h8.16v0c.7,0,1.41,0,2.12,0v0H48a.82.82,0,0,1,.22,0H49.3v0a7.62,7.62,0,0,1,1.77.12,1.75,1.75,0,0,1,1,.59A1,1,0,0,1,52,77.65a2.58,2.58,0,0,1-1.76.59l-4.9,0c-.35,0-.71,0-.35,0H43.89c-.71,0-.35,0-1.06,0H34.32a6.39,6.39,0,0,1-2-.18,1.39,1.39,0,0,1-1.07-1,1.09,1.09,0,0,1,.6-1.16,4.06,4.06,0,0,1,1.81-.36A4.28,4.28,0,0,0,32,76a1.15,1.15,0,0,0-.76,1s0,0,0,.23A1.24,1.24,0,0,0,32,78a3.67,3.67,0,0,0,1.37.32c1,0,1.89,0,2.42,0,.35,0,.71,0,1.77,0H36.45v0l4.61,0v0h.71c.7.06-3.2.05-5,.05v0h.71v0h-3a14.68,14.68,0,0,1-1.48,0,3.43,3.43,0,0,1-1.41-.44,3.44,3.44,0,0,0,1.29.42s0,0,0,0l.31,0a3,3,0,0,1-2-.75,1.23,1.23,0,0,1-.06-1.63c.09-.12.08-.12,0,0a1.17,1.17,0,0,0-.32.76c0,.82.66,1.35,1.69,1.58h0a2.8,2.8,0,0,1-1.12-.47,1.42,1.42,0,0,1-.57-.84c0-.14,0,0,0,.13s.11.27,0,.14a1.3,1.3,0,0,1-.08-.82A1.3,1.3,0,0,0,31.25,78a3.14,3.14,0,0,0,1.62.64c.37.06.74.07.74.08,1.77,0,3.19,0,4.25.06Z"/>
    <path d="M45.26,75.19H44.12l4.92,0h1.23a5.7,5.7,0,0,1,1.12.16,2,2,0,0,1,1.45,1.09A1.48,1.48,0,0,1,52.51,78a3,3,0,0,1-1.85.7,10.84,10.84,0,0,1-1.15,0H48.32l-2.32,0-1.53,0c-3.06,0-6.88,0-9.93,0l-1.07,0c-.3,0-.56,0-.77,0a4,4,0,0,1-.67-.11c-.32-.09-.62-.23-.34-.07a4,4,0,0,0,1.43.33c.54,0,1,0,1,0h-.76a2.56,2.56,0,0,1-.61,0,3.35,3.35,0,0,1-.86-.15A2.5,2.5,0,0,1,30.76,78,1.76,1.76,0,0,1,30.33,77c0-.21,0-.21,0-.07a1.56,1.56,0,0,0,.07.76,1.9,1.9,0,0,0,.86,1,3.68,3.68,0,0,0,1.36.47c.8.1,0,0,0,.06a8.16,8.16,0,0,0,1,.06H39.5c.38,0,.38,0,.38,0v0c.39,0,1.15,0,1.53,0h0c.77,0,1.53,0,2.29,0h1.49a3.27,3.27,0,0,1,.43,0v0l3.82,0A7.38,7.38,0,0,0,52,79a2.9,2.9,0,0,0,1.15-.69,1.89,1.89,0,0,0,.53-1,1.81,1.81,0,0,0-.16-1.11,2.32,2.32,0,0,0-.91-.93,5.36,5.36,0,0,0-2.76-.56c-.38,0-.76,0-.38,0H48.32c-.76,0-.38,0-1.14,0H33.42a4.75,4.75,0,0,0-2.36.55,1.91,1.91,0,0,0-1,1.67,1.87,1.87,0,0,1,.86-1.55A4.12,4.12,0,0,1,33,74.78a2.46,2.46,0,0,0,.41,0c2.29,0,5,0,6.11,0,.38,0,.76,0,1.91,0H40.29v0l5,0v0H46c.76,0-3.44,0-5.35,0v0H36.47a2.23,2.23,0,0,0,.39,0H34.37c-.43,0-.86,0-1.27,0a5.1,5.1,0,0,0-1.16.2c-.17.06-.16.07,0,0A5.56,5.56,0,0,1,33,75.07c1.13,0,1.91,0,3.05,0H33.42c-.38,0,.76,0,.38,0a6.7,6.7,0,0,0-1.11.06,15.79,15.79,0,0,1,1.87,0h1.91a4.83,4.83,0,0,1,.77,0c1.91,0,3.44,0,4.58,0C42.21,75.2,44.12,75.19,45.26,75.19Z"/>
    <path d="M43,10.48l0,0-.48,0c.09-.11.12-.13.11-.18s0,.07-.11.18l.49,0,0-.11a.15.15,0,0,1,0-.06c0-2.29,0-4.7.09-6.85l0-.6V1h0a.31.31,0,0,1,0-.09l-.75.06.09.11h0v.39l0,.77a4.75,4.75,0,0,0,.13,1c0,.14.06.29.08.14a8.22,8.22,0,0,1,0-1,1.58,1.58,0,0,1,0,.29,1.67,1.67,0,0,1,.13.59L43,4.41c0,.44.18-.89.2-1.49,0-.3,0,0,.08,0,0-.3,0-.45,0-.75,0,0,0-.22,0-.5V1A.57.57,0,0,0,43.2.71L43.15.62,43,.44,42.65,0l-.26.49-.08.16a.77.77,0,0,0-.06.33c0,.15,0,.15,0,.15h0c0,.15,0,.44,0,.59h0c0,.3,0,.6,0,.89h0a1.73,1.73,0,0,1,0,.3h0c0,.15,0,.44,0,.44h0l0,1.49c0,1.18,0,2.67,0,4,0,.15,0,.3,0,.15v.45c0,.29,0,.14,0,.44v.51a.71.71,0,0,0,.06.26,1.31,1.31,0,0,0,.09.17l.26.46.31-.41a1.7,1.7,0,0,0,.15-.21.62.62,0,0,0,.09-.32V9.15l0-1.59c0-1.06,0-2.09,0-3.15,0,.59,0,1,0,1.63,0,0,0,0,0,.15,0,.88,0,1.93-.05,2.37,0,.15,0,.3,0,.74V8.86h0l0,.93v.48a.45.45,0,0,1,0,.27,1.41,1.41,0,0,1-.16.21l-.14.18-.1-.2,0-.06,0,0a.58.58,0,0,1-.09-.27v-.06c0-.06,0,0,0,.06a.68.68,0,0,0,.12.31l.06.09.05-.08c.06-.09.2-.22.17-.39V9h0v.3h0l0-2.52v.59s0,0,0,.15c0-.59,0-1.33,0-1.93,0-.15,0,0,0,.45V7.22h0c0-.29,0-.74,0-1s0,.29,0,.14,0-.29,0-.44c0,.44,0,1,0,1.48a.9.9,0,0,1,0,.3,13.73,13.73,0,0,1-.09,1.77,4.89,4.89,0,0,0,0,.51v.37a.14.14,0,0,1,0,.06l-.09.11.48,0Z"/>
    <path d="M78.11,23l.42-.21c-2.42,1.18-5,2.48-7.24,3.57l-.59.25-.59.29a4,4,0,0,1-.59.26l.43.07h0l0,0-.13-.08.08.45.07,0h0l.27-.14.57-.3,1.08-.57a5.84,5.84,0,0,0,.94-.61c.13-.09.25-.19.1-.14a8.38,8.38,0,0,1-1,.46,1.61,1.61,0,0,1,.28-.15s.37-.32.51-.39l1.08-.66c.41-.24-.93.27-1.51.53-.29.13,0,0,0-.07-.27.16-.43.2-.71.35,0,0-.21.09-.48.23l-.8.41-.57.3c-.13.07-.16.1-.15.1h0a.9.9,0,0,0-.33.44l-.08.25.2.13.2.13,0,0h0l.19.12.16-.06.1,0h0a3.33,3.33,0,0,0,.46-.22l.43-.21v0l.28-.14v0c.15-.06.42-.22.43-.2v0l1.42-.7c1.15-.54,2.56-1.28,3.82-1.94.14-.08.27-.16.12-.11l.42-.22c.29-.14.13-.09.41-.24l.79-.41.4-.21s.17-.08.28-.15.11-.22.17-.32l.19-.36-.44-.07-.2,0a.65.65,0,0,0-.31,0l-.14.07-.09,0-.16.08-.65.33-1.31.64-2.6,1.31c.58-.27,1-.47,1.57-.76,0,0,0,0,.16,0,.86-.42,1.84-.93,2.28-1.11a7.73,7.73,0,0,0,.73-.32l-.43.21,0,0,.47-.23a.7.7,0,0,1,.31-.1,2.16,2.16,0,0,1,.32.05l.19,0-.08.17-.07.15c0,.05,0,.1-.1.12l-.26.13-.43.21v0l-.29.14c-.11,0,0-.05.24-.17l.41-.22.25-.13.07,0,0-.07.06-.14,0-.05H79a.62.62,0,0,0-.5,0l-.37.19,0,0,.28-.15v0L76.06,24l.57-.29s0,0,.15-.05c-.57.28-1.28.63-1.84.93-.14.08,0,0,.45-.17l1.13-.57v0c-.28.14-.71.34-1,.5s.3-.12.16,0l-.42.22,1.42-.71c.14-.06.29-.12.3-.1A14.66,14.66,0,0,1,78.71,23c.05,0,0,0,.26,0l-.22-.37s0,.07,0,.08l-.17.09Z"/>
    <path d="M1.9,42.39l-.47,0c2.65-.11,5.45-.29,8-.37H10l.54,0h.21l.05,0-.07-.67-.08.07-.33,0-.76.06-1.44.11A5.67,5.67,0,0,0,7,41.83c-.15,0-.31.08-.15.09a9.13,9.13,0,0,1,1.09,0l-.31,0a1.86,1.86,0,0,1-.61.16l-1.24.18c-.47.06.94.12,1.57.1.31,0,0,0,0,.08.31,0,.47,0,.78,0l.53,0,.87-.06.63,0c.15,0,.15,0,.15,0v0l.32,0a.9.9,0,0,0,.26,0,.7.7,0,0,0,.21-.14v0L11.3,42l.34-.33-.39-.23a1.62,1.62,0,0,0-.27-.14.88.88,0,0,0-.32,0l-.38,0v0H10v0c-.16,0-.47,0-.47,0v0l-1.56.07c-1.25,0-2.81.15-4.21.25-.16,0-.31,0-.16,0l-.46,0c-.32,0-.16,0-.47,0l-1.09.08-.54,0H.84a.44.44,0,0,0-.22,0A.8.8,0,0,0,.43,42l-.11.1L0,42.42l.37.21a.78.78,0,0,0,.43.17c1,0,2-.06,3-.12l.32,0v-.31h0l-.3.33c.67-.07,1.36-.09,2-.14-.63,0-1.1,0-1.71.08,0,0,0,0-.16,0H3.8L4,42.34H4v.26H3.79c-.89.05-1.89.09-2.33.07-.14,0-.26,0-.65,0a.53.53,0,0,1-.2,0,.46.46,0,0,0,.2,0l.34,0v0H.82a.68.68,0,0,1-.36-.14l-.2-.12.17-.13c.08-.06.2-.21.36-.23l.39,0,.69,0v0l.31,0c.13,0-.09.05-.44.08l-.61,0-.34,0a1,1,0,0,0-.28.2l0,0,.05,0a.59.59,0,0,0,.31.12H1v0H.83a.22.22,0,0,1-.14,0v0a.24.24,0,0,0,.14,0l2.5-.09-.62,0s0,0-.16,0l1.22-.06,0,0h0v0h0l.79-.07c.16,0,0,0-.47,0l-.33,0H3.67v.09h0l.09-.1-.9.05v0l.9,0-.1.11h0v-.1h.11l.18,0c.11,0-.13,0-.18,0H3.64l0,.16h0l.14-.15h0l-.14.15h0l0-.12.17,0h0l.47,0-.49,0H3.6v.15h0l.16-.16-1.06,0a1.1,1.1,0,0,1-.31,0c-.61,0-1.16,0-1.54,0,0,0-.06,0-.14-.1h0l0,.42s.1-.09.12-.09,0,0,.06,0h.17Z"/>
    <path d="M79.76,42.26l-.45,0,3.43.24s.12.05.22.13l.06-.56a.79.79,0,0,1-.3.1h0c-1.14-.07-2.26-.14-3.33-.23l-.6-.08c-1.21-.1-2.72-.18-3.92-.25a4.94,4.94,0,0,0-1.06,0c-.15,0-.31,0-.16.07a8.09,8.09,0,0,1,1.05.12h-.3a1.87,1.87,0,0,1-.62.07h-.35a.91.91,0,0,1-.47-.18l0,0,0,0a1.27,1.27,0,0,1,.34-.13c.11,0,.11,0,0,0a.83.83,0,0,0-.43.06l-.23.07.2.19a1.81,1.81,0,0,0,.25.19.6.6,0,0,0,.2.08l.17,0,.56.08c.3,0,0,0,0,.08.3,0,.45,0,.76.06l.51,0,.85.07.61,0c.15,0,.15,0,.15,0v0c.15,0,.45,0,.6,0v0c.31,0,.61,0,.91,0v0l.3,0v0c.15,0,.45,0,.45,0v0l1.52.1c.6,0,1.29.09,2,.13h0a1.41,1.41,0,0,0,.69-.16l.77-.28L83.42,42l-.23-.14a.9.9,0,0,0-.37-.11l-1.19-.06c-.16,0-.31,0-.16,0l-.45,0c-.3,0-.16,0-.46,0-2.42-.1-4.84-.29-7.26-.41.6,0,1.06.09,1.66.12,0,0,0,0,.15,0,.91.06,2,.11,2.42.17a6.72,6.72,0,0,0,.75.09l-.45,0v0l2,.14v0l.3,0A12.9,12.9,0,0,1,78,41.83v0l.3,0v0l-2.57-.15.61,0s0,0,.15,0c-.61,0-1.36-.09-2-.11-.15,0,0,0,.45.08l1.21.07v0l-1.06-.06c-.15,0,.3,0,.15,0l-.45,0c.45,0,1,0,1.51.09a.93.93,0,0,1,.3.06,15.79,15.79,0,0,1,1.8.17C78.55,42.2,79.31,42.24,79.76,42.26Z"/>
    <path d="M13.31,59.51l-.39.26,2.95-1.94.1,0h.24L16,57.29a2,2,0,0,1-.3.29l-.41.27-.82.54-1.6,1-.54.32C11.25,60.41,10,61.29,8.94,62a6.11,6.11,0,0,0-.84.71c-.12.1-.22.22-.08.15A10.38,10.38,0,0,1,9,62.29a1.09,1.09,0,0,1-.25.18s-.32.36-.45.45l-.41.33a.75.75,0,0,1-.41.07h0l0,0a.76.76,0,0,1,.14-.3c.09-.07.09-.08,0-.06l-.06,0a.34.34,0,0,0-.09.08l-.13.2-.09.16.22,0a1.3,1.3,0,0,0,.22,0,.43.43,0,0,0,.29,0c.3-.16.56-.3.75-.42s0,0,.05.06c.25-.18.4-.25.65-.43l.45-.28.73-.49.51-.35c.13-.09.12-.1.12-.11v0c.12-.1.39-.26.51-.36l0,0c.24-.19.51-.35.77-.53h0l.26-.16h0a4.35,4.35,0,0,1,.4-.25v0l1.31-.85,1-.65.53-.35a2,2,0,0,0,.31-.25,1.94,1.94,0,0,0,.24-.27l.6-.69-.93,0h-.38l-.13,0a1.17,1.17,0,0,0-.24.09l-1,.71c-.13.09-.25.19-.11.12l-.39.27c-.25.17-.11.11-.37.28-2,1.44-4.14,2.8-6.2,4.22.53-.34.93-.59,1.44-1,0,0,0,0,.15-.06.78-.52,1.67-1.14,2.09-1.37.13-.08.28-.15.67-.41l-.39.26v0l1.71-1.11v0l.26-.17a14.64,14.64,0,0,1-1.77,1.27l0,0,.26-.18v0l-2.2,1.48.52-.35s0,0,.14-.07c-.52.35-1.17.78-1.67,1.14-.13.1,0,0,.41-.22l1-.7v0l-.91.61c-.12.1.28-.15.16-.06L9,62.29l1.3-.87c.13-.08.27-.16.28-.14a16.36,16.36,0,0,1,1.59-1C12.28,60.22,12.92,59.77,13.31,59.51Z"/>
    <path d="M61.79,10.61l.25-.4-1.48,2.3-.74,1.15-.36.57-.1.14-.1.1-.2.21.4-.06h0l.19.31a1.17,1.17,0,0,1,.08-.47L60,14l.65-1,.37-.51c.68-1,1.49-2.35,2.12-3.41a6,6,0,0,0,.48-1c.06-.14.11-.3,0-.17A7.89,7.89,0,0,1,63,8.8a1.15,1.15,0,0,1,.16-.27A1.71,1.71,0,0,1,63.4,8c.07-.14.51-1,.56-1.11s-.05,0-.27.26-.54.7-.72,1,0,0-.07,0c-.15.27-.26.38-.42.65l-.29.44-.46.73-.32.54c-.08.13-.07.13-.07.14h0c-.07.14-.25.39-.32.53h0c-.15.27-.33.52-.48.79h0a1.54,1.54,0,0,1-.17.26h0c-.09.13-.24.4-.25.39h0l-.83,1.31a2.38,2.38,0,0,0-.3.5,2.11,2.11,0,0,0-.1.63l0,.27.26.13,0,0,.28.14.23-.22a6.64,6.64,0,0,0,1-1.34l.83-1.35c.08-.13.15-.27,0-.15l.24-.39c.17-.26.06-.15.22-.41.54-.9,1.09-1.79,1.64-2.68l.83-1.34.41-.66L65,6.57c.15-.16.1-.47.09-.57l0-.43-.41.17a2.38,2.38,0,0,0-.32.16,1.3,1.3,0,0,0-.29.28,4,4,0,0,0-.32.54,4.62,4.62,0,0,1,.35-.55,1.16,1.16,0,0,1,.28-.25,1.75,1.75,0,0,1,.31-.15l.39-.16,0,.39v.15a.54.54,0,0,1,0,.22.72.72,0,0,1-.09.2l-.08.12s0,0-.11.12c-.49.78-1,1.71-1.33,2.09-.09.13-.19.24-.44.64l.25-.4h0l-1.09,1.7,0,0-.17.26A15.37,15.37,0,0,1,63.06,9.2l0,0-.16.26h0l1.39-2.24-.33.53s0,0-.1.12L64.33,7l.27-.45.13-.21a.3.3,0,0,0,0-.21c0-.07,0-.07,0,0a1,1,0,0,1,0,.15.91.91,0,0,1-.14.22l-.65,1.06h0l.58-.92c.07-.14-.19.24-.12.11l.23-.4c-.24.39-.56.92-.81,1.31-.09.13-.18.26-.2.25a16,16,0,0,1-1,1.54C62.44,9.55,62,10.21,61.79,10.61Z"/>
    <path d="M20.88,8.61l.25.4L19.38,6.15a.07.07,0,0,1,0-.05.74.74,0,0,1,0-.15V5.61l-.18.27.06,0-.45-.16a16.79,16.79,0,0,0,1,1.75l1,1.63.3.56c.63,1.08,1.47,2.42,2.15,3.48a5.38,5.38,0,0,0,.69.87c.1.13.21.24.15.1a10.11,10.11,0,0,1-.54-1,1.43,1.43,0,0,1,.18.26,2.05,2.05,0,0,1,.43.47l.23.32.17.23a1.22,1.22,0,0,1,0,.27v0h0a.86.86,0,0,1-.31-.16c-.07-.09-.08-.09-.06,0a.32.32,0,0,0,.11.16l.21.14.17.1.05-.21a.8.8,0,0,0,0-.39L24.53,14l-.29-.54c-.14-.28.05,0,.07,0-.17-.26-.23-.41-.4-.67l-.27-.46-.46-.76s-.09-.13-.34-.53c-.09-.13-.1-.13-.1-.12h0c-.1-.13-.25-.41-.34-.54h0c-.18-.25-.33-.53-.51-.79h0a2.2,2.2,0,0,1-.16-.28h0c-.07-.14-.26-.39-.24-.4h0l-.82-1.35-.6-1-.33-.54-.26-.51L19.32,5l-.4.2-.07,0-.24.12V6a1.93,1.93,0,0,0,0,.23.82.82,0,0,0,.11.32l.55.87c.09.13.19.25.12.11l.25.4c.17.27.11.12.28.39,1.38,2.11,2.68,4.27,4.05,6.4-.33-.54-.56-.95-.91-1.48,0,0,0,0-.05-.15-.5-.81-1.1-1.73-1.32-2.16a7.19,7.19,0,0,0-.38-.68l.25.4,0,0L20.51,8.83l0,0-.17-.26a16,16,0,0,1,1.23,1.83l0,0-.17-.27h0l1.42,2.27-.34-.53s0,0-.06-.14c.33.53.74,1.2,1.09,1.73.1.13,0,0-.2-.43l-.67-1.07h0c.17.27.41.68.59.94s-.14-.29,0-.16.17.27.26.4c-.25-.4-.59-.93-.84-1.34-.07-.13-.15-.27-.13-.28a14.62,14.62,0,0,1-.94-1.64C21.56,9.68,21.13,9,20.88,8.61Z"/>
    <path d="M8.1,24.15l.42.21L5,22.53l.08.17.06,0h0v0l0-.06-.23.39s.06,0,.08,0l.15.08.44.23.89.46,1.71.91.55.32c1.11.59,2.54,1.3,3.68,1.85a5.9,5.9,0,0,0,1,.4c.15.05.31.09.18,0a9.54,9.54,0,0,1-1-.54,2.43,2.43,0,0,1,.29.13,2,2,0,0,1,.62.19l.55.22a1,1,0,0,1,.27.22l0,0h0l-.32.11c-.23,0,0,.08.35,0l.23,0-.15-.2a1.14,1.14,0,0,0-.27-.3c-.28-.17-.58-.36-.79-.47s0-.05,0-.07c-.29-.14-.42-.23-.71-.37,0,0-.2-.12-.47-.25l-.79-.41s-.15-.06-.57-.28c-.15-.07-.15-.06-.16-.05v0c-.15-.05-.42-.21-.57-.28h0c-.29-.13-.57-.29-.85-.42v0l-.27-.15v0C9,24.12,8.66,24,8.67,24h0l-1.4-.73L6.18,22.7l-.57-.3-.33-.16-.15-.07S5,22.1,5,22.13l-.31.09-.45.13.14.39.08.25,0,.13.15.07,1.42.7c.14.07.29.13.16,0l.42.22c.28.14.16,0,.44.19,2.29,1.11,4.53,2.31,6.81,3.44-.57-.3-1-.53-1.55-.81,0,0,0,0-.13-.1-.84-.44-1.84-.93-2.25-1.18a7.93,7.93,0,0,0-.69-.4l.43.22v0l-1.82-1v0l-.28-.14a14.78,14.78,0,0,1,2,.95l0,0-.28-.14v0l2.4,1.23L11.22,26s0,0-.13-.09c.57.29,1.27.66,1.84.93.15.06,0,0-.4-.26L11.4,26v0l1,.51c.15.06-.27-.17-.12-.11a3.42,3.42,0,0,0,.43.21l-1.42-.72c-.13-.08-.27-.16-.26-.18a18.82,18.82,0,0,1-1.66-.92C9.23,24.72,8.52,24.36,8.1,24.15Z"/>
    <path d="M71.69,60l.38.26-3.69-2.58s0,0,0,0l-.07-.14-.36.44.22.06,2.12,1.49.49.38c1,.71,2.3,1.57,3.34,2.25a5.59,5.59,0,0,0,1,.51c.14.07.29.12.17,0a7.62,7.62,0,0,1-.87-.65l.27.17a2,2,0,0,1,.58.25c.2.11.89.5,1.08.62.41.23-.66-.67-1.16-1-.24-.19,0,0,0-.06-.26-.17-.38-.28-.64-.44l-.42-.31-.72-.49s-.14-.08-.52-.34c-.13-.09-.14-.08-.14-.07v0c-.14-.07-.39-.26-.52-.34h0c-.27-.16-.52-.35-.78-.51v0l-.25-.18v0a3.76,3.76,0,0,1-.38-.27v0L69.56,58l-1-.7a1.24,1.24,0,0,0-.55-.17L67.23,57l.31.74a1.5,1.5,0,0,0,.11.22.72.72,0,0,0,.24.29l1.85,1.23c.12.09.26.16.15.06l.38.26c.26.18.15.07.4.24,1,.62,1.89,1.26,2.82,1.9l1.41.95a12.48,12.48,0,0,0,1.46.92l.19.1.16-.11.07-.05.23-.17-.13-.23a1.51,1.51,0,0,0-.44-.57,1.53,1.53,0,0,1,.43.58l.12.23-.22.15-.07,0-.17.11-.16-.1c-.3-.18-.61-.36-.92-.57,0,0,0,0-.12-.11-.76-.53-1.67-1.12-2-1.42a6.62,6.62,0,0,0-.62-.47l.39.26v0l-1.64-1.16v0l-.25-.18A14.61,14.61,0,0,1,73,61.29l0,0-.25-.18h0L75,62.55l-.52-.35s0,0-.11-.1c.51.35,1.15.79,1.67,1.11.14.07,0,0-.35-.29l-1-.7h0c.26.17.64.44.9.6s-.24-.19-.11-.11l.4.25c-.39-.26-.91-.6-1.29-.87a1.08,1.08,0,0,1-.23-.2,16.82,16.82,0,0,1-1.5-1.11C72.72,60.67,72.07,60.24,71.69,60Z"/>
  </g>
</svg>
