<svg xmlns="http://www.w3.org/2000/svg" viewBox="0 0 124.99 171.26">
  <g>
    <path d="M3.17,130.65c0-.72,0-1.43,0-2.14V113.2c0-5.94,0-12,.06-18.15.08-12.29.15-24.89.22-37.51,0-3.16,0-6.31,0-9.47V43.35c0-.79,0-1.57,0-2.36l0-1.19c0-.39.05-.78.08-1.18A43,43,0,0,1,4.26,34,39,39,0,0,1,5.5,29.41c.13-.37.24-.74.38-1.11l.43-1.09.22-.55.24-.53.48-1.06c.17-.36.35-.7.52-1.05s.35-.69.55-1c.39-.67.76-1.35,1.19-2l.63-1,.68-.95.33-.47.36-.46.71-.91c.24-.3.5-.58.75-.87s.49-.59.77-.87c.53-.55,1-1.12,1.6-1.64a38.68,38.68,0,0,1,7.23-5.5,39.08,39.08,0,0,1,8.16-3.64,40,40,0,0,1,8.58-1.64L40,3l.65,0,1.3,0,2.59,0,5.19,0,10.44-.07L81.26,2.7c.88,0,1.78,0,2.68,0,.45,0,.9,0,1.35.08s.9.06,1.35.12L88,3.1c.45.06.89.15,1.33.22l.67.12.66.14L92,3.89l1.3.36.65.19.65.22c.42.14.86.27,1.28.44l1.27.49c.21.08.42.17.62.27l.62.27c.42.19.83.37,1.23.58l1.22.62L102,8A39.28,39.28,0,0,1,116.9,23.58c.21.4.42.8.62,1.21l.57,1.25c.2.41.36.84.53,1.26l.25.64.13.31.11.33.44,1.29c.14.43.26.88.39,1.31l.18.66c.06.22.11.45.16.67l.31,1.33.25,1.35c0,.22.08.44.11.67l.09.68c0,.45.13.9.16,1.35l.11,1.37c0,.45,0,.91.06,1.36s0,.92,0,1.36v2.68q0,10.71,0,21.34c0,14.16,0,28.19-.13,41.92-.06,0-.12-4.58-.17,0-.08,9.16-.16,13.74-.21,16,0,1.14-.05,1.72-.07,2s0,.29-.06.29a1.08,1.08,0,0,1,0-.16v-6.14c0-2.86,0-5.15,0-2.86,0-13.74,0-36.64,0-22.9-.06,4.58,0,22.9-.09,27.47s-.15-4.57-.21,0l0,4.16v2.45c0,.84,0,1.7,0,2.55a41,41,0,0,1-.4,5l-.2,1.13c-.07.37-.11.73-.2,1.06l-.22,1c-.07.31-.13.61-.21.88-.63,2.19-.34,1.08-.06,0,.08-.27.13-.55.18-.78l.09-.47,0,.16-.09.41c0,.17-.09.4-.17.67l-.35,1.25c0,.21-.12.42-.19.63l-.21.63c-.26.85-.62,1.68-.94,2.54a44.16,44.16,0,0,1-2.58,5.08,40.13,40.13,0,0,1-3.52,4.89,38,38,0,0,1-29.11,13.53h0l1.75-.05c.37,0,.79,0,1.26-.08s1-.07,1.55-.15a38,38,0,0,0,32.09-27.71,37.37,37.37,0,0,0,1.24-7.36l.07-.93c0-.31,0-.62,0-.94,0-.62,0-1.24,0-1.87l0-3.78q-.13-15.12-.2-30.28t-.08-30.34q0-7.59,0-15.19c0-2.53,0-5.07,0-7.6a39.16,39.16,0,0,0-.67-7.42,37.75,37.75,0,0,0-29.74-30A39.49,39.49,0,0,0,82,3.93l-7.62,0L43.9,3.72H42l-1.88,0-1.88.14-1.88.22A37.79,37.79,0,0,0,16.2,13.69,37.88,37.88,0,0,0,3.93,40.49c0,1.25,0,2.53,0,3.79v3.81L4,55.7q0,7.61.1,15.21.11,15.21.23,30.4l.06,15.18v13.27c0,.62,0,1.24,0,1.86A37.81,37.81,0,0,0,7.87,146a38.49,38.49,0,0,0,8.69,12,38.15,38.15,0,0,0,19.83,9.69l1.86.25,1.86.16,1.87.06,1.88,0q15.07.15,30.11.17c9.15,0,10.3,0,7.43,0H64.81l9.16,0H46.49l13.74,0c4.58,0,0,0,0,0H51.07v0h9.16v0l-16,0H42.05l-2.13-.06-1.06-.08c-.35,0-.7,0-1-.09l-1-.13-.51-.06-.5-.09a38.69,38.69,0,0,1-7.35-1.94l0,0A38.25,38.25,0,0,0,35.76,168l.5.08.52.07,1,.12c.35.05.7.07,1,.09l1.06.08c.71,0,1.42,0,2.13.05H44.2l16-.05-4,0h-.57l-10.3.06c-1.72,0-3.43,0-5.16,0l-1.29-.09-.65,0c-.21,0-.42-.05-.64-.07l-1.28-.16c-.43-.06-.85-.14-1.28-.21l-.64-.11-.63-.14-1.26-.28-1.25-.34-.63-.18-.61-.2-1.23-.41-1.21-.46-.6-.24-.6-.26-1.18-.53c-.77-.4-1.55-.76-2.3-1.21-.37-.21-.76-.41-1.12-.65l-1.1-.69a38.12,38.12,0,0,1-4.15-3.12,38.34,38.34,0,0,0,11.84,7A38.48,38.48,0,0,1,5.15,142.25c-.08-.26-.17-.51-.25-.76l-.22-.76c-.14-.51-.3-1-.41-1.52s-.24-1-.34-1.5l-.26-1.48c0-.24-.09-.49-.12-.73l-.09-.73-.09-.71c0-.23,0-.47-.06-.7L3.2,132Z"/>
    <path d="M.09,132.86c0-.74,0-1.49-.08-2.24V114.68q0-9.29.07-18.9C.14,83,.21,69.87.29,56.73l0-9.85V42c0-.82,0-1.64,0-2.46,0-.41,0-.82.08-1.23L.55,37a42,42,0,0,1,2.17-9.55c.12-.39.29-.76.43-1.14s.29-.76.45-1.13l.5-1.12.25-.55L4.63,23l.55-1.08c.19-.36.4-.71.6-1.06s.39-.71.62-1.05l.65-1c.21-.34.44-.67.68-1l.7-1,.74-1c.25-.32.49-.64.76-.94.52-.6,1-1.22,1.59-1.79.28-.28.55-.58.83-.86l.86-.83A40.17,40.17,0,0,1,20.79,5.8a39.73,39.73,0,0,1,8.52-3.73A40.72,40.72,0,0,1,38.25.39l.67-.06c.23,0,.45,0,.68,0L41,.26l2.69,0L49,.2,59.92.13l22-.12h1.38l1.4,0c.94,0,1.87.09,2.81.15a40.49,40.49,0,0,1,5.56.9c.92.19,1.82.47,2.73.72l1.34.44.67.23.66.26a40.37,40.37,0,0,1,5.13,2.37,41.38,41.38,0,0,1,16,15.74l.35.62c.12.21.22.42.33.63.22.42.44.84.65,1.27.39.86.81,1.71,1.14,2.6l.26.67c.09.21.18.44.25.66l.46,1.35c.08.22.14.45.21.68l.19.68c.13.46.27.91.37,1.38l.32,1.38c.1.47.18.93.26,1.4l.13.7.09.7.18,1.41.12,1.42.05.71,0,.71,0,1.42V64.83c0,14.74,0,29.34-.13,43.64,0,0-.11-4.76-.16,0-.09,9.54-.16,14.3-.21,16.69,0,1.19,0,1.78-.07,2.08s0,.3-.07.3V121c0-3,0-5.37,0-3,0-14.29,0-38.14-.06-23.83-.06,4.77,0,23.83-.09,28.6s-.14-4.77-.2,0v4.32c0,1.64,0,3.43,0,5.21a41,41,0,0,1-1.5,9.36,5.26,5.26,0,0,1-.4,1.26l.14-.48.21-.8c.15-.58.31-1.15.32-1.3s0,0,0,.17-.16.55-.31,1.12c-.22.86-.53,1.71-.82,2.59-.16.44-.34.87-.5,1.31l-.26.66-.29.66a39.48,39.48,0,0,1-2.77,5.24l-.41.65c-.14.22-.28.43-.43.64l-.9,1.28-1,1.25-.25.31-.26.3-.52.61a42.33,42.33,0,0,1-4.67,4.6A40.19,40.19,0,0,1,83.59,171h0L85.4,171l.62,0,.7-.06c.48,0,1-.06,1.61-.15A39.81,39.81,0,0,0,103.1,166a40.21,40.21,0,0,0,19-23.77,39.79,39.79,0,0,0,1.46-7.64l.13-1.94,0-2,0-3.93q-.14-15.73-.2-31.52t-.08-31.59q0-7.91,0-15.81v-4c0-1.31,0-2.65,0-3.93A39.92,39.92,0,0,0,90.46,1.86c-.32-.05-.63-.12-1-.16l-1-.13-1-.12-1-.07-1-.08-1,0-1,0h-1l-7.93,0L43,1H41l-2,0-2,.13-1.95.23A40.21,40.21,0,0,0,4.69,23.81,39.82,39.82,0,0,0,.83,39c0,.66,0,1.32,0,2s0,1.32,0,2v4l0,7.92q.06,7.92.1,15.84Q1,86.48,1.15,102.3l.06,15.8v11.84c0,.66,0,1.3,0,1.95s.07,1.29.11,1.94a40.39,40.39,0,0,0,27,34.78,40.7,40.7,0,0,0,7.55,1.81l1,.13c.32,0,.64.06,1,.09.64.06,1.29.12,1.94.13,1.3.06,2.61.06,3.92.07Q59.39,171,75,171c9.53,0,10.72,0,7.74,0H65.5L75,171H67.88l-21.46,0,14.31,0c4.77,0,0,0,0,0H51.19v0h9.54v0l-16.69,0c-1.49,0-3,0-4.45,0H39l-.55,0L37.4,171c-.37,0-.72-.07-1.08-.11l-1.06-.13a40.86,40.86,0,0,1-7.69-1.87l0,.05a39.49,39.49,0,0,0,7.7,1.86l1.06.13a9.88,9.88,0,0,0,1.08.11l1.1.08.54,0h.56c1.48.05,3,0,4.45,0l16.69-.06-4.18,0H56l-10.72.05-2.68,0H41.21l-1.35,0c-.9,0-1.79-.09-2.69-.15-.44,0-.89-.1-1.33-.15s-.9-.1-1.34-.18A41.2,41.2,0,0,1,15,162.05a41.1,41.1,0,0,0,12.51,7,41.73,41.73,0,0,1-3.93-1.56c-.37-.16-.73-.36-1.11-.54l-.58-.29-.29-.15-.29-.16-1.18-.66c-.21-.11-.4-.24-.6-.36l-.6-.38a40.73,40.73,0,0,1-9.52-8.36,41.44,41.44,0,0,1-6.82-11.74,43,43,0,0,1-1.77-6.2l-.28-1.5-.06-.37,0-.37-.09-.73C.21,134.71.16,133.76.09,132.86Z"/>
    <path d="M12.79,119.57c0-9.34,0-19.2.05-29.32s.14-20.5.22-30.9l0-3.9v-2c0-.65,0-1.3.05-2a36.54,36.54,0,0,1,8.25-21.36,36.94,36.94,0,0,1,11.72-9.4,36.3,36.3,0,0,1,14-3.86c.36,0,.71,0,1.07-.05l1.07,0,2.13,0,4.28,0,8.6-.07,8.68-.07h2.17l1.11,0c.37,0,.74,0,1.1,0l1.11.08.55,0,.55.06L80.6,17l1.09.18a34.21,34.21,0,0,1,8.52,2.6,35.56,35.56,0,0,1,7.66,4.61,37.87,37.87,0,0,1,3.37,3l.78.81c.12.14.26.27.38.41l.37.43.74.84.7.89a36.59,36.59,0,0,1,7.24,16.32l.1.56.07.56.15,1.12c0,.37.06.75.1,1.12s.06.75.07,1.12l0,1.13,0,.56V56q0,8.82,0,17.58c0,11.67,0,23.22-.13,34.54-.06,0-.12-3.78-.17,0l-.11,8.72c0,1.06,0,1.94-.06,2.68s-.06,1.34-.09,1.81c-.1,1-.16,1.42-.2,1.65s-.07.23-.09.23l.13-1.71c0-1,.08-2.31.07-3.48,0-2.36,0-4.25,0-2.36,0-11.32,0-30.19-.06-18.86-.06,3.77,0,18.86-.09,22.62-.08,1.89-.09,1-.1,0s-.08-1.89-.11,0a35.25,35.25,0,0,1-.76,7.46c-.16.68-.29,1.38-.49,2l-.27,1c-.1.32-.21.64-.31.94l-.3.9-.32.83-.3.76-.3.69c-.78,1.7-.42.83-.05,0l.25-.61a2.41,2.41,0,0,0,.13-.37c0-.11,0,.12-.42,1-.14.32-.28.65-.43,1l-.49,1-.25.49-.27.49-.56,1-.61,1-.31.49c-.1.16-.22.32-.33.48l-.68,1-.74.95-.37.48-.4.46c-.26.31-.52.63-.8.94l-.86.91-.21.22-.23.22-.46.44c-.3.3-.61.6-.93.87l-1,.85c-.67.54-1.35,1.1-2.07,1.6l-.54.38c-.18.13-.37.25-.56.37-.37.24-.74.49-1.12.72l-1.17.68c-.39.22-.8.42-1.2.63l-.61.31-.62.28c-.42.19-.82.4-1.25.56l-1.29.51-1.31.45a38,38,0,0,1-5.43,1.31,40.67,40.67,0,0,1-5.62.44h0l1.44,0,.49,0,.54,0,1.28-.1a35.58,35.58,0,0,0,28.66-20.77,35.47,35.47,0,0,0,3-11.87c0-.51.07-1,.09-1.53l0-1.54,0-3.11-.06-6.23q0-6.24-.08-12.48l-.08-25V53.85c0-.53,0-1,0-1.55v-.76c0-.26,0-.51-.06-.77,0-1-.19-2-.33-3.05A35.29,35.29,0,0,0,98.42,26.63,36.69,36.69,0,0,0,93.48,23a35.39,35.39,0,0,0-17.54-5.16l-25.09-.2H49.29l-1.56,0c-1,.06-2.06.12-3.09.26a37,37,0,0,0-6.07,1.29A35.57,35.57,0,0,0,19.16,34,35,35,0,0,0,14.4,45.41a36.7,36.7,0,0,0-.8,6.17l0,1.56V54.7l0,3.14.1,12.53q.12,12.52.23,25l.06,12.5v9.37c0,1,0,2.09,0,3.1a35.47,35.47,0,0,0,.67,6.08,36.53,36.53,0,0,0,1.72,5.87,35.27,35.27,0,0,0,2.68,5.49,34.2,34.2,0,0,0,3.59,5,36.14,36.14,0,0,0,4.37,4.29,34.91,34.91,0,0,0,5.05,3.49,35.62,35.62,0,0,0,11.54,4.14,38.16,38.16,0,0,0,6.14.52l6.2.05,12.39.06c7.54,0,8.48,0,6.13,0H60.82l7.55,0H51c-.83,0-1.68,0-2.56,0s-1.8-.09-2.74-.16a56,56,0,0,0,5.65.2h5.66c3.77,0,0,0,0,0H49.51v0l15.08,0H57.05v0H49.1l-1.73,0-1.76-.13-1.75-.22a36,36,0,0,1-6.76-1.69,36.46,36.46,0,0,1-5.7-2.61l0,.05a36.46,36.46,0,0,0,5.7,2.6,35.29,35.29,0,0,0,6.77,1.68l1.76.22,1.76.12c.58,0,1.16,0,1.73.05h1.7l6.25,0-3.3,0h-.48l-4.24,0-1.06,0-.54,0-.53,0-1.06-.08c-.35,0-.71-.08-1.06-.12a35.14,35.14,0,0,1-8.27-2,37,37,0,0,1-7.59-3.88,38.51,38.51,0,0,1-6.5-5.53,36.82,36.82,0,0,0,8.92,7,35.24,35.24,0,0,1-6.18-4.32c-.3-.24-.57-.5-.86-.77s-.58-.53-.86-.82c-.57-.58-1.15-1.17-1.7-1.82s-1.09-1.31-1.64-2-1-1.42-1.52-2.18-.93-1.54-1.39-2.32l-.62-1.21c-.11-.2-.21-.4-.3-.61l-.28-.62-.28-.62-.26-.63c-.16-.42-.34-.83-.49-1.26l-.43-1.27c-.15-.42-.25-.85-.38-1.27l-.18-.64c-.06-.21-.1-.42-.15-.63-.1-.43-.2-.84-.29-1.26-.15-.84-.32-1.66-.41-2.48,0-.4-.11-.8-.15-1.2l-.09-1.17-.05-.58v-.56Z"/>
  </g>
</svg>
