<svg xmlns="http://www.w3.org/2000/svg" viewBox="0 0 99.23 138.9">
  <g>
    <g>
      <path d="M17.82,133.81c-.56-.33-1.12-.68-1.67-1-1.09-.74-2.15-1.55-3.17-2.4A35.41,35.41,0,0,0,17.82,133.81Z" fill="#e7e0d4"/>
      <path d="M35.71,138.71c-.89,0-1.8-.09-2.73-.17,1.31.14,2.63.18,3.94.19Z" fill="#e7e0d4"/>
      <path d="M87.89,127.9a35.59,35.59,0,0,0,6.89-10.15,35.17,35.17,0,0,0,3-11.86c0-.52.08-1,.09-1.54l0-1.53,0-3.12c0-2.08,0-4.15,0-6.23L97.75,81q0-12.48-.07-25,0-6.26,0-12.52V37.22c0-.53,0-1,0-1.54l0-.77c0-.26,0-.51,0-.77-.06-1-.19-2-.34-3A35.53,35.53,0,0,0,80.71,6.35,35.74,35.74,0,0,0,75.2,3.62a37,37,0,0,0-5.9-1.75,35.08,35.08,0,0,0-6.12-.69L38.08,1H36.52L35,1c-1,.05-2.06.11-3.09.25a36.06,36.06,0,0,0-6.07,1.3A35.59,35.59,0,0,0,6.39,17.34,35.12,35.12,0,0,0,1.63,28.79,36.58,36.58,0,0,0,.83,35l0,1.56v1.57l0,3.13q.06,6.27.1,12.53.12,12.54.23,25l.06,12.5q0,3.14,0,6.25v3.12c0,1,0,2.09,0,3.11A34.95,34.95,0,0,0,3.64,115.7a35.82,35.82,0,0,0,2.68,5.5,36.38,36.38,0,0,0,3.59,5,37,37,0,0,0,4.38,4.29,34.61,34.61,0,0,0,5.05,3.49,35.46,35.46,0,0,0,11.53,4.13,39.45,39.45,0,0,0,6.14.53l6.2.05,12.39,0h7.55c.53,0,1.06,0,1.59-.07h.11l.77-.06c.53-.05,1.06-.11,1.58-.18A35.32,35.32,0,0,0,87.89,127.9Z" fill="#e7e0d4"/>
      <path d="M12.46,129.92q-.59-.49-1.14-1C11.69,129.25,12.07,129.58,12.46,129.92Z" fill="#e7e0d4"/>
    </g>
    <path d="M27.89,130.69c-.62.12-1.24.27-1.88.41l-1.89.44-.2.06-.1,0h.05l1,.25c2.65.67,5.4,1.28,8.18,1.74a91.65,91.65,0,0,0,16.31,1.22c3.06,0,6.18-.23,9.32-.51s6.3-.69,9.43-1.25c1.57-.27,3.12-.59,4.67-.92.78-.17,1.55-.34,2.32-.53l.18,0h0l-.27-.06c-.75-.19-1.52-.36-2.27-.53-1.52-.33-3-.65-4.53-.93,0,0,1,.1,0-.1l-3.51-.67c-.5-.11-.49-.13-.49-.16h.13l.33,0,.93.13c.63.1,1.14.18.64.09,1.51.22,3.52.58,4.78.82s1.76.33.26,0L70.07,130l-1.79-.32c-1.26-.22-2.53-.41-3-.49-1-.18,1,0,0-.14s-3.06-.35-4.08-.44,1,0,0-.06c-3.06-.27-7.15-.43-11.24-.44h1c4.47,0,9,.2,13.46.65q3.38.34,6.72,1l1.67.32,1.67.35.83.19.64.15.78.2,1.55.4.78.2.39.1-.39.09-3.1.8-1.06.26-.83.19c-1.11.25-2.23.48-3.34.69q-3.36.61-6.75,1t-6.81.59c-2.27.11-4.55.14-6.82.1-4.55-.08-9.09-.39-13.6-.89q-3.39-.37-6.75-.91c-1.12-.18-2.24-.37-3.36-.59L25,132.64l-.83-.18-.21-.05-.4-.1-.79-.21-1.58-.42-.19-.06-.1,0s-.06,0,0,0h.05l.4-.1.79-.22,1.58-.42.53-.13.42-.11,1.65-.38c.56-.13,1.11-.25,1.67-.35,2.22-.45,4.46-.79,6.7-1,4.5-.5,9-.66,13.47-.72h.14l-2.18,0,2,0h-.38l-1.15,0-1.92.07c-.77,0-1.66.08-2.68.15l1.53-.09,1.53-.07c1,0,0,0,0,0l-1.4.07-.64,0v0c1-.07,3.07-.17,4.09-.18l-1.41,0-.63,0v0c-2.05.09-5.1.34-7.13.59v0c1-.12,2.29-.26,3.56-.37s2.55-.2,3.57-.25l-.9.05c-.12,0-.12,0-.12,0-3.06.21-6.11.52-9.13,1,.5-.08,1-.16,1.51-.22s1-.15,1.52-.21C35.91,129.26,30.88,130,27.89,130.69Z"/>
    <path d="M0,103c0-9.35,0-19.2.05-29.32S.21,53.12.29,42.72l0-3.89V36.88c0-.65,0-1.31,0-2a35.8,35.8,0,0,1,1.21-7.71,36.53,36.53,0,0,1,18.75-23A36.37,36.37,0,0,1,34.3.3c.36,0,.71,0,1.07,0l1.07,0,2.13,0,4.28,0,8.6-.08L60.13,0,62.3,0l1.11,0c.37,0,.74,0,1.11,0l1.1.08.55,0,.56.07,1.1.13c.37,0,.73.12,1.09.18a38,38,0,0,1,4.34,1,37.47,37.47,0,0,1,8.15,3.63A37.24,37.24,0,0,1,85.1,7.76a36.62,36.62,0,0,1,3.37,3l.78.81c.13.13.26.26.38.4l.37.43.74.85.7.88a35.47,35.47,0,0,1,4.63,7.71,36.06,36.06,0,0,1,2.61,8.62l.1.55.07.56L99,32.67c0,.37.06.75.1,1.12s.07.75.07,1.13l0,1.12v20.9c0,11.67,0,23.22-.13,34.54,0,0-.11-3.77-.16,0l-.12,8.72c0,1.06,0,1.94-.06,2.68s-.05,1.34-.09,1.81c-.1,1-.16,1.42-.2,1.66s-.07.23-.09.22l.13-1.71c0-1,.08-2.3.07-3.48,0-2.36,0-4.24,0-2.36,0-11.31,0-30.19-.06-18.86-.06,3.77,0,18.86-.09,22.63-.08,1.88-.09.94-.1,0s-.08-1.89-.11,0a35.23,35.23,0,0,1-.76,7.45c-.16.69-.29,1.38-.49,2l-.27,1c-.09.32-.21.63-.31.94l-.3.89-.32.83-.3.77-.3.68c-.78,1.71-.42.84,0,0l.25-.6.14-.37c0-.12,0,.11-.43,1-.14.32-.28.65-.43,1l-.49,1-.25.49-.27.49-.56,1c-.19.32-.4.64-.61,1l-.31.49c-.1.17-.22.32-.33.48l-.68,1-.73.95-.38.48-.39.47c-.27.3-.53.62-.81.93l-.86.91-.21.23-.23.22-.46.44c-.3.29-.6.59-.93.87l-1,.85c-.68.53-1.36,1.09-2.08,1.59l-.54.39-.56.36c-.37.24-.74.49-1.12.72l-1.17.68c-.39.23-.8.42-1.2.63-.2.11-.4.22-.61.31l-.62.29c-.41.18-.82.39-1.25.55l-1.29.51-1.31.45A38,38,0,0,1,68,138.29a39,39,0,0,1-5.62.44h0l1.44,0h.49l.55,0,1.27-.1a35.58,35.58,0,0,0,28.66-20.77,35.17,35.17,0,0,0,3-11.86c0-.52.08-1,.09-1.54l0-1.53,0-3.12,0-6.23L97.75,81l-.07-25V37.22c0-.53,0-1,0-1.54l0-.77c0-.26,0-.51,0-.77-.06-1-.19-2-.34-3A35.53,35.53,0,0,0,80.71,6.35,35.74,35.74,0,0,0,75.2,3.62a37,37,0,0,0-5.9-1.75,35.08,35.08,0,0,0-6.12-.69L38.08,1H36.52L35,1c-1,.05-2.06.11-3.09.25a36.06,36.06,0,0,0-6.07,1.3A35.59,35.59,0,0,0,6.39,17.34,35.12,35.12,0,0,0,1.63,28.79,36.58,36.58,0,0,0,.83,35l0,1.56v1.57l0,3.13.1,12.53q.12,12.54.23,25l.06,12.5v9.37c0,1,0,2.09,0,3.11A34.95,34.95,0,0,0,3.64,115.7a35.82,35.82,0,0,0,2.68,5.5,36.38,36.38,0,0,0,3.59,5,37,37,0,0,0,4.38,4.29,34.61,34.61,0,0,0,5.05,3.49,35.46,35.46,0,0,0,11.53,4.13,39.45,39.45,0,0,0,6.14.53l6.2.05,12.39,0c7.54,0,8.48,0,6.13,0H48.05l7.55,0H38.27c-.83,0-1.68,0-2.56,0s-1.8-.09-2.73-.17a55.84,55.84,0,0,0,5.64.2h5.66c3.77,0,0,0,0,0H36.74v0h7.54v0l-6.25,0c-.56,0-1.12,0-1.7,0s-1.15,0-1.73,0l-1.76-.13-1.75-.22a35.2,35.2,0,0,1-6.76-1.69,35.92,35.92,0,0,1-5.69-2.6l0,0a35.57,35.57,0,0,0,5.7,2.61,36,36,0,0,0,6.77,1.68l1.76.21,1.76.13,1.73,0H38l6.25,0-3.3,0h-.47c-1.42,0-2.83,0-4.25,0l-1.06,0h-.54l-.53,0-1.06-.07L32,138.64a35.16,35.16,0,0,1-8.27-2,36.93,36.93,0,0,1-7.59-3.87,39,39,0,0,1-6.5-5.54,36.58,36.58,0,0,0,8.92,7A35.65,35.65,0,0,1,12.39,130c-.29-.24-.57-.51-.86-.78s-.58-.53-.86-.82c-.57-.58-1.15-1.17-1.7-1.81s-1.09-1.32-1.64-2-1-1.42-1.52-2.18-.93-1.53-1.39-2.32l-.62-1.2c-.11-.2-.21-.41-.3-.62l-.28-.62L2.94,117c-.09-.21-.17-.42-.25-.63-.17-.42-.35-.84-.5-1.26l-.43-1.27c-.15-.43-.25-.86-.38-1.28l-.18-.63-.15-.64c-.1-.42-.2-.84-.29-1.26-.14-.84-.32-1.66-.41-2.47,0-.41-.11-.81-.15-1.21l-.09-1.17,0-.57,0-.57Z" fill="#0c0905"/>
  </g>
</svg>
