<svg xmlns="http://www.w3.org/2000/svg" viewBox="0 0 172 224">
  <g>
    <g>
      <path d="M72.48,183.74c-.89,0-1.8-.09-2.74-.17,1.32.14,2.63.18,4,.19Z" fill="#e7e0d4"/>
      <path d="M54.59,178.84c-.56-.33-1.12-.68-1.67-1-1.1-.75-2.15-1.55-3.17-2.4A35.41,35.41,0,0,0,54.59,178.84Z" fill="#e7e0d4"/>
      <path d="M49.23,175c-.39-.34-.77-.68-1.14-1C48.46,174.28,48.84,174.61,49.23,175Z" fill="#e7e0d4"/>
      <path d="M0,0V224H172V0ZM135.87,136.51c-.06,0-.12-3.78-.17,0s-.09,6.6-.11,8.72c0,1.06,0,1.94-.06,2.68s-.06,1.34-.09,1.81c-.1.95-.16,1.42-.2,1.65s-.07.23-.09.23,0-.71.13-1.71.08-2.31.07-3.48c0-2.36,0-4.25,0-2.36,0-11.32,0-30.19-.06-18.86-.06,3.77,0,18.86-.09,22.63-.08,1.88-.09.94-.1,0s-.08-1.89-.11,0a35.23,35.23,0,0,1-.76,7.45c-.16.69-.29,1.38-.49,2l-.27,1c-.1.33-.21.64-.31.94s-.2.61-.3.9l-.32.83-.3.77-.3.68c-.78,1.7-.42.84-.05,0l.25-.6a2.82,2.82,0,0,0,.13-.38c0-.11,0,.12-.42,1-.14.32-.28.65-.43,1s-.33.65-.49,1l-.25.49-.27.49c-.19.32-.37.65-.56,1l-.61,1-.31.49c-.1.16-.22.32-.33.48l-.68,1c-.24.32-.49.63-.74.95l-.37.48-.4.46c-.26.31-.52.63-.8.94l-.86.91-.21.23-.23.22-.46.44c-.3.29-.61.59-.93.87l-1,.84c-.67.54-1.35,1.1-2.07,1.6l-.54.39-.56.36c-.37.24-.74.49-1.12.72l-1.17.68c-.39.22-.8.42-1.2.63l-.61.31-.62.29c-.42.18-.82.39-1.25.55l-1.29.51-1.31.45a38,38,0,0,1-5.43,1.31c-.26,0-.53.05-.79.09l-1.08.14-.5,0-.88.07-.44,0c-.18,0-.34,0-.49,0l-.66,0h-.37l-.41,0H84.82l7.55,0H81.05c3.77,0,0,0,0,0H73.51v0h7.54v0l-6.25,0H73.1c-.57,0-1.15,0-1.73,0l-1.76-.13-1.75-.22a35.2,35.2,0,0,1-6.76-1.69,36.46,36.46,0,0,1-5.7-2.6l0,0a36.46,36.46,0,0,0,5.7,2.61,36.84,36.84,0,0,0,6.77,1.68l1.76.21,1.76.13,1.73,0h1.7l6.25,0-3.3,0h-.48c-1.41,0-2.82,0-4.24,0l-1.06,0h-.54l-.53,0-1.06-.08c-.35,0-.71-.08-1.06-.11a35.66,35.66,0,0,1-8.27-2A37.17,37.17,0,0,1,54.77,179c.19.11.37.24.57.35A35.65,35.65,0,0,1,49.16,175c-.3-.24-.57-.51-.86-.78s-.58-.53-.86-.82c-.57-.58-1.15-1.17-1.7-1.81s-1.09-1.32-1.64-2-1-1.42-1.52-2.18-.93-1.53-1.39-2.32l-.62-1.21c-.11-.2-.21-.4-.3-.61l-.28-.62-.28-.62c-.09-.2-.17-.42-.26-.62-.16-.43-.34-.84-.49-1.27s-.29-.84-.43-1.27-.25-.85-.38-1.27L38,157c-.06-.22-.1-.43-.15-.64-.1-.42-.2-.84-.29-1.26-.15-.84-.32-1.66-.41-2.48,0-.4-.11-.8-.15-1.2l-.09-1.17c0-.19,0-.38-.05-.57v-.57l0-1.1c0-9.34,0-19.19.05-29.32s.14-20.5.22-30.9l0-3.9V81.91c0-.65,0-1.31.05-2a36.54,36.54,0,0,1,8.25-21.36,37.08,37.08,0,0,1,11.72-9.4,36.48,36.48,0,0,1,14-3.86c.36,0,.71,0,1.07,0l1.07,0,2.13,0,4.28,0,8.6-.07L96.9,45h2.17l1.11,0c.37,0,.74,0,1.1,0l1.11.08.55,0,.55.07,1.11.13,1.09.18a35.36,35.36,0,0,1,8.52,2.6,35.56,35.56,0,0,1,7.66,4.61,39.54,39.54,0,0,1,3.37,3l.78.81c.12.14.26.27.38.41l.37.43.74.84.7.89a36.56,36.56,0,0,1,7.24,16.33l.1.55.07.56.15,1.12c0,.37.06.75.1,1.12s.06.75.07,1.13l0,1.12,0,.57v2.75c0,5.88,0,11.75,0,17.58C136,113.64,136,125.19,135.87,136.51Z" fill="#e7e0d4"/>
    </g>
    <path d="M27.17,159.05c0-.72,0-1.43,0-2.14V141.6c0-5.94,0-12,.06-18.15.08-12.29.15-24.89.22-37.51q0-4.74,0-9.46V71.75c0-.79,0-1.57,0-2.36l0-1.18c0-.4,0-.79.08-1.18a42.83,42.83,0,0,1,.65-4.68,39.56,39.56,0,0,1,1.24-4.54c.13-.37.24-.74.38-1.11l.43-1.09.22-.54.24-.54.48-1.06.52-1c.18-.34.35-.69.55-1,.39-.67.76-1.35,1.19-2l.63-1,.68-1,.33-.47.36-.45.71-.92c.24-.29.5-.58.75-.87s.49-.59.77-.86c.53-.56,1-1.13,1.6-1.65a38.68,38.68,0,0,1,7.23-5.5,39.08,39.08,0,0,1,8.16-3.64,40,40,0,0,1,8.58-1.64l.65,0,.65,0,1.3,0,2.59,0,5.19,0,10.44-.07,21.13-.12c.88,0,1.78,0,2.68,0,.45,0,.9.06,1.35.08s.9.06,1.35.12l1.34.17c.45.06.89.15,1.33.22l.67.12c.22,0,.44.1.66.15l1.33.3,1.3.36.65.19.65.22c.42.15.86.27,1.28.44l1.27.49c.21.08.42.17.62.27l.62.28c.42.18.83.36,1.23.58l1.22.61,1.18.68A39.19,39.19,0,0,1,140.9,52l.62,1.21.57,1.25c.2.41.36.84.53,1.26l.25.64.13.32.11.32.44,1.29c.14.44.26.88.39,1.32l.18.65c.06.22.11.45.16.67l.31,1.33.25,1.35c0,.22.08.45.11.67l.09.68c.05.45.13.9.16,1.36l.11,1.36c.05.45,0,.91.06,1.36s0,.92,0,1.36v2.68q0,10.71,0,21.34c0,14.17,0,28.19-.13,41.93-.06,0-.12-4.58-.17,0-.08,9.15-.16,13.73-.21,16,0,1.14-.05,1.72-.07,2s0,.29-.06.29a.85.85,0,0,1,0-.15v-6.15c0-2.86,0-5.15,0-2.86,0-13.73,0-36.64-.05-22.89-.06,4.58,0,22.89-.09,27.46s-.15-4.57-.21,0l0,4.16v2.45c0,.84,0,1.7,0,2.55a40.83,40.83,0,0,1-.4,5l-.2,1.13c-.07.37-.11.73-.2,1.06l-.22,1c-.07.31-.13.61-.21.88-.63,2.19-.34,1.08-.06,0,.08-.27.13-.55.18-.78l.09-.47c0-.07,0,0,0,.16l-.09.41c0,.18-.09.4-.17.68l-.35,1.24c-.05.21-.12.42-.19.63l-.21.63c-.26.85-.62,1.68-.94,2.54a44.16,44.16,0,0,1-2.58,5.08,40.13,40.13,0,0,1-3.52,4.89,38.11,38.11,0,0,1-15.76,11.12,38.71,38.71,0,0,1-13.35,2.42h0l1.75,0c.37,0,.79-.06,1.26-.09s1-.07,1.55-.15a38,38,0,0,0,32.09-27.71,37.37,37.37,0,0,0,1.24-7.36l.07-.93c0-.31,0-.62,0-.93,0-.63,0-1.25,0-1.88l0-3.78q-.13-15.12-.2-30.28t-.08-30.34q0-7.59,0-15.19c0-2.53,0-5.07,0-7.6a39.16,39.16,0,0,0-.67-7.42,37.71,37.71,0,0,0-29.74-30,38.69,38.69,0,0,0-7.44-.73l-7.62,0L67.9,32.12H66l-1.88,0-1.88.13-1.88.22A37.79,37.79,0,0,0,40.2,42.09a37.88,37.88,0,0,0-12.27,26.8c0,1.25,0,2.53,0,3.8v3.8l0,7.61c0,5.07.07,10.15.1,15.21q.11,15.21.23,30.4l.06,15.18v13.27c0,.63,0,1.24,0,1.86a37.81,37.81,0,0,0,3.47,14.37,38.21,38.21,0,0,0,21.31,19.77,38.86,38.86,0,0,0,7.21,1.9l1.86.25,1.86.16,1.87.06,1.88,0q15.08.15,30.11.18c9.15,0,10.3,0,7.43,0H88.81l9.16,0H70.49l13.74,0c4.58,0,0,0,0,0H75.07v0h9.16v0l-16,0H66.05l-2.13-.06-1.06-.08c-.35,0-.7,0-1-.09l-1-.13-.51-.06-.5-.09a38.69,38.69,0,0,1-7.35-1.94l0,0a38.25,38.25,0,0,0,7.36,1.95l.5.09.52.06,1,.13c.35.05.7.06,1,.09l1.06.07,2.13.06H68.2l16-.06-4,0h-.57l-10.3.05c-1.72,0-3.43,0-5.16,0l-1.29-.09-.65,0c-.21,0-.42,0-.64-.07l-1.28-.15L59,196.36l-.64-.11c-.21,0-.42-.09-.63-.13l-1.26-.29-1.25-.34-.63-.17-.61-.21-1.23-.4-1.21-.47L51,194l-.6-.26-1.18-.53c-.77-.4-1.55-.76-2.3-1.2-.37-.22-.76-.42-1.12-.65l-1.1-.7a38.12,38.12,0,0,1-4.15-3.12,38.34,38.34,0,0,0,11.84,7,38.48,38.48,0,0,1-23.22-23.92l-.25-.76-.22-.76c-.14-.51-.3-1-.41-1.52s-.24-1-.34-1.5l-.26-1.48c-.05-.24-.09-.49-.12-.73l-.09-.72-.09-.72c0-.23,0-.47-.06-.7l-.11-1.38Z" fill="#0c0905"/>
    <path d="M24.09,161.26C24,160.52,24,159.77,24,159V143.08q0-9.29.07-18.9c.07-12.79.14-25.91.22-39.05l0-9.85V70.36c0-.81,0-1.64.05-2.46,0-.41.05-.82.08-1.23l.09-1.23a42.13,42.13,0,0,1,2.17-9.55c.12-.39.29-.76.43-1.14s.29-.76.45-1.13l.5-1.11.25-.56.28-.54.55-1.08c.19-.36.4-.71.6-1.06s.39-.71.62-1.05l.65-1c.21-.34.44-.67.68-1l.7-1,.74-.95c.25-.31.49-.64.76-.93.52-.61,1-1.23,1.59-1.79.28-.29.55-.59.83-.87l.86-.83a41.24,41.24,0,0,1,16.1-9.38,41.32,41.32,0,0,1,8.94-1.68l.67-.06.68,0L65,28.66l2.69,0,5.4,0,10.88-.08,22-.12h1.38l1.4,0c.94,0,1.87.09,2.81.15a40.49,40.49,0,0,1,5.56.9c.92.19,1.82.47,2.73.72.45.14.89.3,1.34.45l.67.22.66.26a40.37,40.37,0,0,1,5.13,2.37,41.34,41.34,0,0,1,16,15.75l.35.61c.12.21.22.42.33.63.22.42.44.84.65,1.27.39.86.81,1.72,1.14,2.61l.26.66c.09.22.18.44.25.66L147,57c.08.22.14.45.21.68l.19.68c.13.46.27.91.37,1.38l.32,1.38c.1.47.18.94.26,1.4l.13.7.09.71.18,1.41.12,1.41.05.71,0,.71,0,1.42V93.23c0,14.75,0,29.35-.13,43.65-.05,0-.11-4.77-.16,0-.09,9.53-.16,14.29-.21,16.68,0,1.19-.05,1.79-.07,2.08s0,.3-.07.3v-6.55c0-3,0-5.37,0-3,0-14.3,0-38.15-.06-23.84-.06,4.77,0,23.84-.09,28.6s-.14-4.76-.2,0v4.32c0,1.64,0,3.43,0,5.21a41,41,0,0,1-1.5,9.36,6.34,6.34,0,0,1-.4,1.27l.14-.49.21-.8c.15-.58.31-1.15.32-1.29s0,0,0,.16-.16.55-.31,1.12c-.22.86-.53,1.72-.82,2.6-.16.43-.34.86-.5,1.3l-.26.66-.29.66a39.48,39.48,0,0,1-2.77,5.24l-.41.65c-.14.22-.28.44-.43.65l-.9,1.27-1,1.25-.25.31-.26.31-.52.6a42.33,42.33,0,0,1-4.67,4.6,40.19,40.19,0,0,1-25.76,9.31h0l1.82-.05.62,0,.7,0c.48,0,1-.07,1.61-.16a39.81,39.81,0,0,0,14.77-4.77,40.36,40.36,0,0,0,11.85-10A40.08,40.08,0,0,0,147.58,163l.13-1.94,0-2,0-3.93q-.14-15.73-.2-31.52T147.44,92q0-7.91,0-15.81v-4c0-1.31,0-2.65,0-3.93a39.89,39.89,0,0,0-7.29-21.79A40.26,40.26,0,0,0,128.9,35.87a39.53,39.53,0,0,0-14.44-5.6c-.32-.06-.63-.13-1-.17l-1-.13c-.33,0-.65-.08-1-.12l-1-.07-1-.08-1,0-1,0h-1l-7.93,0L67,29.43H65l-2,0-2,.14c-.65.06-1.3.15-1.95.23A40.17,40.17,0,0,0,28.69,52.21a39.82,39.82,0,0,0-3.86,15.18c0,.65,0,1.31,0,2s0,1.32,0,2v4l0,7.92q.06,7.92.1,15.84.12,15.82.23,31.64l.06,15.8v11.84c0,.67,0,1.3,0,1.95s.07,1.29.11,1.94A40.22,40.22,0,0,0,59.9,198.82l1,.13c.32.05.64.06,1,.09.64.06,1.29.12,1.94.13,1.3.06,2.61.06,3.92.07q15.69.15,31.33.17c9.53,0,10.72,0,7.74,0H89.5l9.53,0H70.42l14.31,0c4.77,0,0,0,0,0H75.19v0h9.54v0l-16.69,0c-1.49,0-3,0-4.45,0H63l-.55,0-1.09-.08c-.37,0-.72-.06-1.08-.11l-1.06-.13a40.88,40.88,0,0,1-7.69-1.86l0,0a39.47,39.47,0,0,0,7.7,1.87l1.06.13c.36,0,.72.09,1.08.11l1.1.07.54,0,.56,0c1.48,0,3,0,4.45,0l16.69-.05-4.18,0H80l-10.72.06h-4l-1.35,0c-.9,0-1.79-.09-2.69-.15-.44,0-.89-.1-1.33-.15s-.9-.09-1.34-.18A41.2,41.2,0,0,1,39,190.45a41.1,41.1,0,0,0,12.51,7,41.73,41.73,0,0,1-3.93-1.56c-.37-.16-.73-.36-1.11-.54l-.58-.29-.29-.15-.29-.16-1.18-.66c-.21-.11-.4-.23-.6-.36l-.6-.38A40.91,40.91,0,0,1,33.43,185a41.57,41.57,0,0,1-6.82-11.74,43.71,43.71,0,0,1-1.77-6.2l-.28-1.51-.06-.37-.05-.37-.09-.73C24.21,163.11,24.16,162.17,24.09,161.26Z" fill="#0c0905"/>
    <path d="M36.79,148c0-9.34,0-19.19.05-29.32s.14-20.5.22-30.9l0-3.9V81.91c0-.65,0-1.31.05-2a36.54,36.54,0,0,1,8.25-21.36,37.08,37.08,0,0,1,11.72-9.4,36.48,36.48,0,0,1,14-3.86c.36,0,.71,0,1.07,0l1.07,0,2.13,0,4.28,0,8.6-.07L96.9,45h2.17l1.11,0c.37,0,.74,0,1.1,0l1.11.08.55,0,.55.07,1.11.13,1.09.18a35.36,35.36,0,0,1,8.52,2.6,35.56,35.56,0,0,1,7.66,4.61,39.54,39.54,0,0,1,3.37,3l.78.81c.12.14.26.27.38.41l.37.43.74.84.7.89a36.56,36.56,0,0,1,7.24,16.33l.1.55.07.56.15,1.12c0,.37.06.75.1,1.12s.06.75.07,1.13l0,1.12,0,.57v2.75c0,5.88,0,11.75,0,17.58,0,11.67,0,23.22-.13,34.54-.06,0-.12-3.78-.17,0l-.11,8.72c0,1.06,0,1.94-.06,2.68s-.06,1.34-.09,1.81c-.1.95-.16,1.42-.2,1.65s-.07.23-.09.23l.13-1.71c.05-1,.08-2.31.07-3.48,0-2.36,0-4.25,0-2.36,0-11.32,0-30.19-.06-18.86-.06,3.77,0,18.86-.09,22.63-.08,1.88-.09.94-.1,0s-.08-1.89-.11,0a35.23,35.23,0,0,1-.76,7.45c-.16.69-.29,1.38-.49,2l-.27,1c-.1.33-.21.64-.31.94l-.3.9-.32.83-.3.77-.3.68c-.78,1.7-.42.84-.05,0l.25-.6a2.82,2.82,0,0,0,.13-.38c0-.11,0,.12-.42,1-.14.32-.28.65-.43,1l-.49,1-.25.49-.27.49-.56,1-.61,1-.31.49c-.1.16-.22.32-.33.48l-.68,1c-.24.32-.49.63-.74.95l-.37.48-.4.46c-.26.31-.52.63-.8.94l-.86.91-.21.23-.23.22-.46.44c-.3.29-.61.59-.93.87l-1,.84c-.67.54-1.35,1.1-2.07,1.6l-.54.39-.56.36c-.37.24-.74.49-1.12.72l-1.17.68c-.39.22-.8.42-1.2.63l-.61.31-.62.29c-.42.18-.82.39-1.25.55l-1.29.51-1.31.45a38,38,0,0,1-5.43,1.31,39.18,39.18,0,0,1-5.62.44h0l1.44,0c.15,0,.31,0,.49,0l.54,0,1.28-.1a35.58,35.58,0,0,0,28.66-20.77,35.41,35.41,0,0,0,3-11.87c0-.51.07-1,.09-1.53l0-1.54,0-3.11-.06-6.23q0-6.24-.08-12.48l-.08-25V82.25c0-.53,0-1,0-1.55v-.76c0-.26,0-.51-.06-.77-.05-1-.19-2-.33-3A35.35,35.35,0,0,0,122.42,55a36.69,36.69,0,0,0-4.94-3.66A36.26,36.26,0,0,0,112,48.65a35.58,35.58,0,0,0-5.89-1.75,35.09,35.09,0,0,0-6.13-.69L74.85,46H73.29l-1.56,0c-1,0-2.06.11-3.09.25a36.06,36.06,0,0,0-6.07,1.3A35.49,35.49,0,0,0,43.16,62.37,35.12,35.12,0,0,0,38.4,73.82,36.45,36.45,0,0,0,37.6,80l0,1.56V83.1l0,3.14.1,12.53q.12,12.53.23,25l.06,12.5v9.37c0,1,0,2.09,0,3.1a35.47,35.47,0,0,0,.67,6.08,36.53,36.53,0,0,0,1.72,5.87,35.82,35.82,0,0,0,2.68,5.5,34.11,34.11,0,0,0,3.59,5,36.14,36.14,0,0,0,4.37,4.29A34.13,34.13,0,0,0,56.1,179a35.62,35.62,0,0,0,11.54,4.14,38.16,38.16,0,0,0,6.14.52l6.2,0,12.39.06c7.54,0,8.48,0,6.13,0H84.82l7.55,0H75c-.83,0-1.68,0-2.56,0s-1.8-.09-2.74-.17a56,56,0,0,0,5.65.2h5.66c3.77,0,0,0,0,0H73.51v0h7.54v0l-6.25,0H73.1c-.57,0-1.15,0-1.73,0l-1.76-.13-1.75-.22a35.2,35.2,0,0,1-6.76-1.69,36.46,36.46,0,0,1-5.7-2.6l0,0a36.46,36.46,0,0,0,5.7,2.61,36.84,36.84,0,0,0,6.77,1.68l1.76.21,1.76.13,1.73,0h1.7l6.25,0-3.3,0h-.48c-1.41,0-2.82,0-4.24,0l-1.06,0h-.54l-.53,0-1.06-.08c-.35,0-.71-.08-1.06-.11a35.66,35.66,0,0,1-8.27-2,36.93,36.93,0,0,1-7.59-3.87,39,39,0,0,1-6.5-5.54,36.58,36.58,0,0,0,8.92,7A35.65,35.65,0,0,1,49.16,175c-.3-.24-.57-.51-.86-.78s-.58-.53-.86-.82c-.57-.58-1.15-1.17-1.7-1.81s-1.09-1.32-1.64-2-1-1.42-1.52-2.18-.93-1.53-1.39-2.32l-.62-1.21c-.11-.2-.21-.4-.3-.61l-.28-.62-.28-.62c-.09-.2-.17-.42-.26-.63-.16-.42-.34-.83-.49-1.26l-.43-1.27c-.15-.42-.25-.85-.38-1.27L38,157c-.06-.22-.1-.43-.15-.64-.1-.42-.2-.84-.29-1.26-.15-.84-.32-1.66-.41-2.48,0-.4-.11-.8-.15-1.2l-.09-1.17-.05-.57v-.57Z" fill="#0c0905"/>
  </g>
</svg>
