<svg xmlns="http://www.w3.org/2000/svg" viewBox="0 0 260.13 73.8">
  <g>
    <g>
      <g>
        <path d="M21,44.83c1.07,5.58,5.32,9.72,13.5,9.72,8.44,0,12.38-3.94,12.38-8.9S44.59,38,34.05,35.88c-8.54-1.69-12.32-3.58-12.32-9.36s5.37-9.1,12.07-9.1c10.33,0,12.68,6,13.29,9.36H46c-1-3.89-3.58-8.39-12.22-8.39-5.53,0-11,2.4-11,8.08,0,4.45,2.2,6.65,11.56,8.44C45.76,37.11,48,40.49,48,45.5c0,7-6.18,10-13.45,10-8.13,0-13.35-3.53-14.63-10.69Z" fill="#fff"/>
        <path d="M19.41,49.27A11.89,11.89,0,0,0,23,53.51a12.67,12.67,0,0,0,5.09,2.75,19.15,19.15,0,0,0,4.81.65,29.75,29.75,0,0,0,4.79-.36A20.67,20.67,0,0,0,43.17,55a10.58,10.58,0,0,0,4.23-3.57A9.92,9.92,0,0,0,49,46.54a13.35,13.35,0,0,0,0-2.45,9.86,9.86,0,0,0-.55-2.5A9,9,0,0,0,45,37.35c-.62-.16-1.67-.72-3.07-1.22a44.5,44.5,0,0,0-4.89-1.55c-.9-.24-1.84-.43-2.75-.64s-1.79-.4-2.64-.61c-1.69-.41-3.2-.86-4.33-1.25a10,10,0,0,1-2.8-1.66c-.38-.34-.45-.1.4.81a4.62,4.62,0,0,1-1.39-2,5.79,5.79,0,0,1-.26-1.3,15.13,15.13,0,0,1,.16-3.23A6.46,6.46,0,0,0,23.54,26a7,7,0,0,1,1.54-3.52,6.59,6.59,0,0,1,1.08-1.36,15.16,15.16,0,0,1,5.34-1.92,14.89,14.89,0,0,1,2.82-.24,14.94,14.94,0,0,1,3.28.38,10.17,10.17,0,0,1-1.08-.3,1.66,1.66,0,0,1,.62,0c.72.06,1.78.33,1.64.17.17.07.48.19.82.35a8,8,0,0,1,1,.51c.64.32,1,.66.55.42a10,10,0,0,1,3.1,2.92,10.62,10.62,0,0,1,1.51,3.44l0,.19H46l1.07,0h.33l0-.35c-.06-.42-.11-.83-.17-1.26A11.58,11.58,0,0,0,46.56,24a11.81,11.81,0,0,0-5-5.39h-.38a18.63,18.63,0,0,0-3-.91l-.83-.19-.79-.12c-.51-.07-1-.17-1.32-.2a16.23,16.23,0,0,0-7,.91,9.7,9.7,0,0,0-5.37,4.42,6.44,6.44,0,0,0-.85,2.1A4.18,4.18,0,0,0,22,25.66a25.87,25.87,0,0,0,.45,2.93,5.58,5.58,0,0,0,2.23,3.5,19.32,19.32,0,0,0,3.23,1.78,18.41,18.41,0,0,1-3.36-1.49,5.17,5.17,0,0,1-2.34-3c.18.69-.46-.76-.54-2.12-.08-.67-.05-1.28-.07-1.52s-.06-.11-.16.74a10.63,10.63,0,0,0,.46,2.76,6.93,6.93,0,0,0,1.47,2.51,12.23,12.23,0,0,0,5.12,2.85A45.48,45.48,0,0,0,34.08,36c1.82.35,3.56.71,5.15,1.11-.32.17,1.67.68,3.77,1.88a7.58,7.58,0,0,1,2.68,2.44,6.89,6.89,0,0,1,1,2.74l-.09.19a10.45,10.45,0,0,1-.25,3.44A7.65,7.65,0,0,1,44,51.57a10.13,10.13,0,0,1-2.94,1.76,15.18,15.18,0,0,1-3.26.84A18.69,18.69,0,0,1,31.53,54a17.64,17.64,0,0,1-4.16-1.31,12.06,12.06,0,0,1-3.46-2.42,13.43,13.43,0,0,1-3.08-5.45,11.25,11.25,0,0,0,1.93,4.92,11.13,11.13,0,0,0,3.85,3.28,15.8,15.8,0,0,0,4.46,1.48,38,38,0,0,0,4.26.55,29.89,29.89,0,0,1-5.07-.38,15.43,15.43,0,0,1-4.12-1.24,7.17,7.17,0,0,0,.93.53,6.68,6.68,0,0,0,1,.47,14.22,14.22,0,0,1-1.65-.61c.74.56-1.4-.46-1.24-.22a15.84,15.84,0,0,0,6.12,2.14c-1.69-.34-1.94-.55-1.67-.54s1.08.06,1.57.07a24.41,24.41,0,0,0,3.19.3c-.75-.09-2.69-.22-.38-.24a30.14,30.14,0,0,0,4.36-.25,21,21,0,0,1-2.49.59,31.73,31.73,0,0,0,5.38-1,9,9,0,0,0,4.82-3.14,11.12,11.12,0,0,0,1.06-.91,9.48,9.48,0,0,0,1.3-4l.05.49a12.15,12.15,0,0,0,.11-2.46,10.58,10.58,0,0,0-.4-2.49,6.08,6.08,0,0,0-1.39-2.45,3.54,3.54,0,0,0-.79-.64,15.15,15.15,0,0,0-4-2.54,15.51,15.51,0,0,1,2.11.85,16.11,16.11,0,0,0-1.85-1c1.26.62-1.63-.58-2.11-.58-2.11-.7-2.86-.84-3.41-1l-2.2-.63a32.94,32.94,0,0,1-3.9-.86,7.2,7.2,0,0,0-2-.46c-2.22-.81-4.16-2-4.78-3.7a7.38,7.38,0,0,1-.43-3,6.37,6.37,0,0,1,.71-2.76l.37-.74c.16-.23.29-.47.47-.7a11.23,11.23,0,0,1,5.26-2.65,18.49,18.49,0,0,1,6.52-.27l-.43,0a9,9,0,0,1,1.47.13,11.28,11.28,0,0,1,1.43.27,11,11,0,0,1,4,2.37,8,8,0,0,1,2.36,4.53l.11.58,1.33-1.6H46l1.33,1a10.88,10.88,0,0,0-2.55-5,7.34,7.34,0,0,0-2.74-1.89,18,18,0,0,0-8.57-2.1c.55-.06,1.09-.06,1.64-.09-.69-.07-1.39-.15-2.1-.16a19.71,19.71,0,0,0-3.89.58,11.94,11.94,0,0,0-1.83.64A10.81,10.81,0,0,0,24.77,20a7.52,7.52,0,0,0-2.41,3.14,11,11,0,0,0-.31,1.17,7.17,7.17,0,0,0-.06.85A16.5,16.5,0,0,0,22.43,28a6.21,6.21,0,0,0,1,3,7.71,7.71,0,0,0,2.4,2.16L25.77,33a10.69,10.69,0,0,0,1.12.43,8.73,8.73,0,0,0,.88.28l1.62.52c.61.18,1.37.42,2.5.69s2.61.56,4.6,1l-.32-.3c1.32.43,2.27.66,3.32.93A15.29,15.29,0,0,1,43.25,38a8.53,8.53,0,0,1,3.22,3,10.55,10.55,0,0,1,1.14,5.17,9.25,9.25,0,0,1-3.24,6.46,10.65,10.65,0,0,1-2.79,1.76,13.07,13.07,0,0,1-3.55,1,40.78,40.78,0,0,1-4.07.26,4.38,4.38,0,0,1-2.09-.28l.58,0c-.38-.16-.77-.3-1.14-.49l-.18.24A20.61,20.61,0,0,1,28,54.28a7.77,7.77,0,0,1-2.61-1.51A10.51,10.51,0,0,1,21.89,50a12.56,12.56,0,0,0,2.42,2.61l0-.14a6.76,6.76,0,0,0,.94.65,10.37,10.37,0,0,0,1.29.71c.46.23.94.41,1.38.59l1.18.41c-.52-.13-1.06-.24-1.58-.42.87.36,1,.39.72.38a5.42,5.42,0,0,1-1-.25,24.79,24.79,0,0,1-2.83-1.51,8,8,0,0,1-2-1.61c-.44-.52-1.11-1.62-.78-1.26A6.41,6.41,0,0,1,21,49.1a11.33,11.33,0,0,1-.64-1.44c-.18-.51-.32-1-.47-1.51s-.2-.92-.29-1.26l-.11-.38.45,0c.42,0,.7-.06.73-.12l.34,0a3.4,3.4,0,0,0-1.07-.48l-.76-.22L19,45A11.11,11.11,0,0,0,19.41,49.27Z" fill="#fff"/>
      </g>
      <g>
        <path d="M56.4,54.81V18.13h1.28C65,27.29,83.15,49.74,85.91,53.27h0c-.2-2.4-.15-10.94-.15-16.83V18.13h1.07V54.81H85.76c-7.16-9-26.85-33.35-28.39-35.5h0c.2,4.81.15,10.74.15,17.08V54.81Z" fill="#fff"/>
        <path d="M59.26,50.33c-.06-2-.14-3.88-.26-5.48a106.91,106.91,0,0,0-.11-10.92c-.09-1.66-.19-3.33-.25-5.15,0-.91,0-1.85-.08-2.85,0-.5,0-1,0-1.54v-.53c0-.33,0-.65,0-1,0-.06,0-.21,0-.19l.14.16.28.34.54.64L61,25.63c2.13,2.62,4.21,5.22,6.54,8.27,2.2,1.47,9.22,11.75,13.18,15.88,2.41,2.85,4.18,4.57,2.29,2l1.13,1.42c.35.44.63.82.87,1.06l.62.7c.1.08.15.21.27.22l.37,0,.75,0h.1v-.08l0-.17.06-.39.13-1c0-.42,0-1.07,0-1.75l.14,1a8.78,8.78,0,0,1,.09,1c.12-.73.11-2.09.16-3s.07-1.69,0-2.65l-.27-2.14c.3-5.25-.24-8.22,0-13.91-.2,3.71-.16-1.7-.38-1.29.11-.86.16-4.3.24-3.12.06-3.61-.19-7-.15-9.64v-.25h-.26l-1.07,0h-.28v.3q0,.71-.12,1.29l.12,1.77c.17,3,0,5.42-.1,8.19l.15.38a66.31,66.31,0,0,1-.07,6.8c0,2.26,0,4.78.09,7.33,0,1.28.11,2.56.16,3.83s.15,2.63.22,3.88c0,.33,0,.66,0,1,0,.15,0,.29,0,.43v.35h0c-.59-.71-1-1.17-1.26-1.47s-.47-.42-.68-.62-.45-.39-.85-.81c-.2-.21-.44-.47-.74-.82l-.89-1c-1.7-2.27-5-6-5.87-7.46,2.49,3.06,3.16,3.23,5.7,6.53-.45-.67.7.71,1.64,1.8s1.54,1.76.58.4l-.86-1c-.33-.4-.67-.79-1-1.19l-2-2.47L75.5,40.14c-2.76-3.43-5.47-6.79-7.91-9.55.67.17-5.52-7.27-7.59-9.75l0-.23c-.43-.54-.92-1.21-1.37-1.74l-.7-.75L57.72,18l-.08-.08H56.36c-.13,0-.1.09-.11.18l0,.29c0,.39,0,.8-.07,1.24,0,.92,0,2,.07,3.15,0,5.27.1,10.47-.14,14.91a141.76,141.76,0,0,0,.44,17.17c.37-8-.24-15.54.44-21.48a95.61,95.61,0,0,0,.24,10.2l.14-2.26.09,1.84c.14-.94.27,1.49.41,1.21V37.66c-.13,3.57-.29,1.21-.45.17l.06-3.43c-.07.8-.13,2.91-.22.41,0-1.38-.06-3.21,0-4.74l.32,2.73A50,50,0,0,1,57.66,27c0-.92.09-1.84.11-2.79,0-.47,0-1,0-1.45,0-.25,0-.5,0-.76v-.38c0-.06,0-.08,0-.12a.26.26,0,0,1,.33,0s0-.13,0-.16.11,0,.14,0a.91.91,0,0,0,0,.17.41.41,0,0,1,0,.07l1.31,1.66a11.57,11.57,0,0,0,2.38,2.45c1.24,1.54,2.47,3,2.92,3.66l-1.59-1.66L64.5,29.4c-.86-1.18,1.2,1.3,1.59,1.66,2.94,3.73,2.09,2.63,3.82,5.06,2,2.32,4.21,5.41,4.53,5.39,1.64,2.15,3.35,4.35,5.07,6.52l3.31,4.15c.81,1,1.75,2.41,2.3,2.41l.47.23c.15.08.34.19.41.16l.54,0h0l.33,0,.84-.22-.22-2.38c0-4-.06-6.91-.08-9.86,0-2.33-.11-4.7-.13-8l.08.52-.21-3.61c.16-5-.23-6.9,0-12.66,0-.23,0-.46,0-.65l-1.35,1.36h1.07l-1.36-1.37a50.81,50.81,0,0,0,.53,9.31c.17,3-.07,6.8-.09,9.5l-.12-1.76-.14,2.25c.06,3.89,0,4.09.09,9.16,0,1.74,0,3,0,3.9q0,.33,0,.63l0,.23.1.45c.07.29.16.59.24,1,0,.19.07.4.11.65l0,.19v.1s0,0-.06,0l-.34.09-.31,0c-.11,0-.14-.15-.22-.22L85.06,53l-.66-1-1.83-2.56,0,.16c-2.76-2.81-2-2.25-7.83-9.5l.08.47c-1.75-2.59-2.87-3.43-5.37-6.59-1.24-1.53-4.71-6.47-7.11-9-.53-.71-1-1.36-1.52-2L59.17,21c-.28-.35-.5-.52-.73-.77s-.44-.43-.65-.65l-.29-.29-.15-.15s0-.05-.07-.06,0,0-.05.08c0,.32,0,.64,0,1,0,1.24.09,2.69.15,4s.11,2.63.12,4.15c-.14,3.65.28,6.24-.09,6.94v-.65L57,35.88l.26.17c-.09,2.19,0,5.34-.29,7.22l.48,5.09c0-1.25,0-2.63,0-4l-.07.14c0-1.32-.06-4.54,0-6.07l.09,1.84c.06-2.12.18-.35.22.24A62.41,62.41,0,0,0,58,46.8c0,.73-.06,2.11-.14,1.6,0,1.5-.08,4.94,0,6.41l0,.33-.37,0c-.4,0-.66.05-.69.11l-.38,0a3.31,3.31,0,0,0,1.07.44l.54.15.33-1A35.81,35.81,0,0,0,59.26,50.33Z" fill="#fff"/>
      </g>
      <g>
        <path d="M101.05,40.28,94.76,54.81H93.63l16-36.68h1l15.86,36.68h-1.18L119,40.28Zm17.54-1c-5.32-12.43-7.88-18.11-8.44-19.9h-.05c-.41,1.23-4.25,9.87-8.59,19.9Z" fill="#fff"/>
        <path d="M117.19,37.52a8.57,8.57,0,0,0-1.39.27c-2.19-.36-3.3.49-5.57.31a50.9,50.9,0,0,1-5.38,0,.73.73,0,0,1-.35.22l-.24.07a1.1,1.1,0,0,1-.16,0,2.42,2.42,0,0,1-.71,0c-.21-.06-.55,0-.3-.31a.66.66,0,0,0,0-.54c.07-.41.08-1.21-.34-.57.49-1.2.67-.77,1-1.84l.1.45a3.78,3.78,0,0,0,.64-1.09l0-.6c.81-1.09.61-2,1.36-3.24-.56.78,0-.46-.22-.45.19-.16.58-.93.54-.63.56-1.08.58-2.3,1.22-2.77l.06-.46a6.34,6.34,0,0,1,.92-1.86l-.1-.15a3.55,3.55,0,0,1,.69-1.42,8.45,8.45,0,0,0,.61-1.73c.11-.39.22-.81.34-1.22.06-.23.11-.43.17-.6s.09.05.12.09l.08.17c.22.66.3.73.39.68s.22-.14.52.44a11.69,11.69,0,0,0,.64,1.56c.11.27.23.53.31.76a1.33,1.33,0,0,1,.11.47,4.25,4.25,0,0,0-.65-1,2.27,2.27,0,0,1-.55-1c0,.28-.15-.08-.3-.34s-.26-.38-.15.17a6.13,6.13,0,0,1,.61,1.07c.21.45.42.92.65,1.45a18.26,18.26,0,0,0,1.4,2.8c-.43,0,.69,2.21,1.07,2.94l-.08.09a9.23,9.23,0,0,0,1,2.12,17.1,17.1,0,0,1,1.37,3.52,9.57,9.57,0,0,0,2.11,3.81c-.46-2-1.77-3.51-1.74-5.16a6.24,6.24,0,0,0,1.25,2.27l-.1-.58.26.39c0-.27.4.24.5.12l-.66-1.55c.24.88-.15.4-.4.22l-.29-.82c0,.22.17.73-.16.19a6.5,6.5,0,0,1-.43-1.12l.56.51c-.65-.88-.4-1.86-1-2.73l.18-.43-.42-.91.15.06-.44-1.12c-.3-.57-.48-.6-.63-.66a5.79,5.79,0,0,1-.46-1.09l.41.45-.15-.52c.08.37-.29-.36-.41-.45a4.85,4.85,0,0,1-.47-1.54c-.42-.66-.58-1.63-.84-1.57-.06-.19-.11-.37-.17-.54l-.37-1c-.26-.65-.52-1.34-.77-2.05a17.38,17.38,0,0,0-.82-1.91l-.82,0a1.65,1.65,0,0,1-.35.16l-.32,0a.49.49,0,0,0-.17,0l-.2.08c-.13.08-.26.06-.38.24s-.22.48-.34.72c-.44.9-.85,2.27-1.35,3.43l0-.25a11.71,11.71,0,0,0-.33,1.3c-.65,1.09-.49,1.69-1.28,2.93a4,4,0,0,0-.64,2.76,9.42,9.42,0,0,1-1,2.16l.07-.45-.35.46c-.34.93-.46.93-.84,2.16-.84,1.55-.22,1.53-.33,2.29-.33.49-.62.85-1.09,1.67l.1,0a3.39,3.39,0,0,1-.29,1.26l-.41.87c0,.17-.39.56,0,.46h1a1,1,0,0,1,.09-.22c.74.24,1.48-.1,2.49-.09a10,10,0,0,0,2.9.08c1.79.22,2.65-.44,4.19-.4.92.17,1.57-.22,1.75.15h-.17l.35.37,0-.26a5.69,5.69,0,0,1,1.82.29l1.29-.48a4.37,4.37,0,0,1-1,0l0,.07a6.6,6.6,0,0,1-1.53,0l.46-.08c-.53-.07-.09-.19.06-.23,1.07.12.78-.13,1.6-.19.18,0,.53.07.4.14.48-.05,1.75.15,1.79-.11l.1,0A3.26,3.26,0,0,0,117.19,37.52Z" fill="#fff"/>
        <path d="M104.13,42.07c1.12-.06,2.15-.15,3.05-.27a35.45,35.45,0,0,0,5.9-.07c.89-.07,1.78-.15,2.74-.2s2.32-.08,2.4-.06l0,.14,2.25,5c.77,1.71,1.51,3.41,2.27,5.4a3.45,3.45,0,0,1,.81,1.13c.15.27.29.58.45.92.21.5.44,1,.69,1.6l1.74,0,1.31,0-.5-1.25a43.27,43.27,0,0,0-2.73-6.12c-.93-1.91-1.68-2.84-1.16-1.3-1.19-2.68-.57-2.13-1.67-4.32l.58.65a20.11,20.11,0,0,0-1-2.59l-.73-1c-.87-2.79-2-4.09-3.11-7.07.63,2-.52-.8-.63-.5-.09-.49-.8-2.26-.47-1.69-1-2.49-2.4-4.57-2.64-6.12l-.5-.86a13.88,13.88,0,0,1-1-2.12c-.13-.35-.26-.72-.4-1.08s-.32-.86-.49-1.29a.63.63,0,0,0-.19,0c-.13-.2-.28-.46-.43-.75l-.12-.22s0-.09-.06-.11h-1c-.08,0-.09.13-.14.19l-.24.41c-.16.27-.31.47-.44.66-.71,1.53-1.2,2.81-1.73,4.27s-1,2.89-1.49,4.19c-1.24,2.46-.37,1.54-1.27,3.86-.72,1.41-1.61,4-2.19,4.8.85-2,.59-2.47,1.6-4.55-.48.75,1.42-3.65.41-1.84-1.46,4.21-4,9.14-5.27,13-.26-.44-2.26,4.55-2.92,6.21l-.15.06a45.83,45.83,0,0,0-2,4.73l-.34.79-.09.23h.24l1.12,0h.1l0-.08a61.8,61.8,0,0,1,2.65-5.72,43.8,43.8,0,0,0,3.38-8.92c-2.1,3.94-3.2,8-5.14,10.78a29.52,29.52,0,0,0,2-5.3l-.62,1.09.32-1c-.34.42.08-.86-.12-.78l-1.46,3.39c.9-1.77.53-.5.45.09l-.81,1.73c.24-.38.76-1.43.29-.12-.33.69-.65,1.66-1.09,2.4L95.09,51a18,18,0,0,1-1.52,3.27l1.18-.78c-.37,0-.74-.06-1.12-.07l1.25,1.92a11.17,11.17,0,0,0,.63-1.57l.59-.52.86-2v.27l1.1-2.4a3.8,3.8,0,0,0,.46-1.86c.43-1,.81-2,1-2.38l-.32,1.25.53-1.06c-.39.72.28-.94.32-1.24a22.87,22.87,0,0,1,1.58-3.16c.57-1.62,1.63-3.45,1.43-3.64,1.39-2.81,2.72-5.86,3.92-8.58l.37-1.26c.79-1.58,1.29-2.76,1.77-4,.23-.58.46-1.18.72-1.83A2.79,2.79,0,0,1,110,21v.16c0-.08,0-.23.07-.28s.16-.16.18-.12a1.9,1.9,0,0,0,.16.44l.1.18.33.68a27.73,27.73,0,0,1,1.44,3.39,17.86,17.86,0,0,0,2.91,5.42,48.36,48.36,0,0,1,2,4.88l-.5-.85.37,1.2c.92,2,.86,2.11,2.11,4.64,1.39,3.59,1.67,2.84,2.51,4.26l1.15,3.51,0-.1c1.23,1.84.82,1.47,2.89,6.21l.11-.31c.06.25.14.47.21.68l.37-.56a4.7,4.7,0,0,0-.92,0c-.15-.27-.3-.55-.48-.86s-.44-.87-.69-1.46a47.26,47.26,0,0,0-2.46-5.88,40.55,40.55,0,0,0-2.91-6c-.84.06-1.64.11-2.61.1-2-.17-3.47.22-3.86-.15h.37l-.75-.37-.1.26a26.82,26.82,0,0,1-4-.29l-2.83.48a21,21,0,0,1,2.24,0l-.08-.07a31.93,31.93,0,0,1,3.37,0l-1,.08c1.17.07.2.19-.13.23a19.38,19.38,0,0,0-3.51.19c-.4,0-1.17-.07-.89-.14-1.06,0-3.85-.15-3.94.11l-.21,0A7.24,7.24,0,0,0,104.13,42.07Z" fill="#fff"/>
      </g>
      <g>
        <path d="M164.21,45.24c-2.56,6.55-7.32,10.33-16.42,10.33-11.35,0-17.85-8.64-17.85-19,0-11.25,7.31-19.13,18.26-19.13,9.16,0,14.22,4.55,16,10.59h-1.13c-1.68-5.17-6.34-9.62-14.88-9.62-10.18,0-17.13,7.26-17.13,18.11,0,9.87,6.39,18,16.82,18,8.34,0,12.74-3.48,15.19-9.36Z" fill="#fff"/>
        <path d="M160,47.25a14.81,14.81,0,0,1-2.48,3.08,15.2,15.2,0,0,1-3.81,1.83A19.56,19.56,0,0,1,150,53c-.63.11-1.28.14-1.95.2s-1.32,0-2,0a13.46,13.46,0,0,1-4.43-1.11A14.59,14.59,0,0,1,138,49.9a14.38,14.38,0,0,1-1.45-1.35c-.42-.5-.85-1-1.22-1.52a16.23,16.23,0,0,1-2.81-7.55c-.55-.87-.84-3.92-.13-7.11a20.09,20.09,0,0,1,1.59-4.59,21,21,0,0,1,1.1-1.91c.34-.6.73-1.1,1-1.56s1-1,1.3-1.45.69-.66.86-.86c.33-.39.14-.38-.84.28.43-.33.78-.6,1.1-.82l.85-.49a6.19,6.19,0,0,1,1.17-.51c.66-.24,1.22-.47,2.9-1a6.79,6.79,0,0,0-1,.6,28.76,28.76,0,0,1,3.83-.68c.55-.16,1.11-.25,1.68-.37a34.34,34.34,0,0,1,5.36.63,11.1,11.1,0,0,1,5,2.39c-1.12-1-.86-.76-.26-.44l.88.6c.25.19.43.31.41.21.23.27.81.92,1.19,1.46s.61.92.3.57a16.62,16.62,0,0,1,1.95,3.69l.09.25h.23l1.13-.05h.41l-.12-.37a40.9,40.9,0,0,0-1.8-4.15c-.3-.4-.65-.76-1-1.13a17.46,17.46,0,0,0-5.44-4.12h-.36c-.72-.24-1.76-.55-2.78-.79s-2-.41-2.71-.53a19.42,19.42,0,0,0-6.5.45A17,17,0,0,0,138,20.41a12.77,12.77,0,0,0-1.72,1.25,5.43,5.43,0,0,0-.64.77c-.31.42-.56.83-1.61,2.28A10.83,10.83,0,0,0,133,26.33c-.17.32-.34.64-.52,1l-.42,1c-.55,1.34-.88,2.63-1.12,3.29.14-.78.31-1.38.44-1.91,0-.26.11-.51.16-.75l.21-.68A10.09,10.09,0,0,1,133.27,25c-.21.25-.13.07.1-.3.12-.19.27-.42.42-.67l.58-.73.53-.67.37-.41c.14-.17,0-.12-.58.39a22.4,22.4,0,0,0-2.83,4.4,23.07,23.07,0,0,0-1.64,5.19,21.7,21.7,0,0,0,.52,10.11c-.24-.18.1,1.7,1.1,3.77a16.78,16.78,0,0,0,3.74,5l0,.21,1.26,1.09c.43.33.9.61,1.39.94s1.09.56,1.73.88a20.11,20.11,0,0,0,2.3.75,20.79,20.79,0,0,0,6.37.71,29.5,29.5,0,0,0,5.88-.7,12.24,12.24,0,0,0,6.95-4.46,15.26,15.26,0,0,0,2.59-5.34,17.28,17.28,0,0,1-5.58,7.34,12.84,12.84,0,0,1-7.59,2.31,14.16,14.16,0,0,0,4.33-1A12.91,12.91,0,0,0,158.33,52a13.29,13.29,0,0,1-1.55.79c.41-.24.78-.52,1.16-.78-.65.28.75-.88.48-.87a13.25,13.25,0,0,1-4.37,2.21c1.31-.33,1.52-.42,1.37-.25a7.33,7.33,0,0,1-1.11.64A11,11,0,0,1,153,54a11.92,11.92,0,0,1-1.33.23c.32,0,.89-.08,1.14-.11s.19.06-.78.28a18.13,18.13,0,0,1-3.75.28l1.08-.19,1.06-.25c-3.32.52-5.77-.21-8.79-1.05l-.78-.64-1.31-.65c-.42-.24-.82-.52-1.23-.78l.34.09a14.23,14.23,0,0,1-2.59-2.31,13.15,13.15,0,0,0-1.78-1.82,12,12,0,0,1-1.57-3.17,13.17,13.17,0,0,0,.87,1.51,12.62,12.62,0,0,1-.58-1.48c.17.52,0,.23-.2-.25s-.43-1.15-.54-1.32a15.17,15.17,0,0,1-.54-2.88,11.38,11.38,0,0,1,0-1.92c-.26-2.37.4-5.22.24-5.37a18.63,18.63,0,0,1,2.46-5.93,15.37,15.37,0,0,1,4.28-4.4c.47-.33.92-.72,1.42-1a19.76,19.76,0,0,1,5.6-1.65,20,20,0,0,1,6.11,0h-.4a18.94,18.94,0,0,1,2.72.38,19.37,19.37,0,0,1,4.07,2,9.62,9.62,0,0,1,3.28,3.61,19.65,19.65,0,0,1,1.43,3.25l1.29-1.73-1.13,0,1.24.9A9.91,9.91,0,0,0,162,23.93,19.64,19.64,0,0,0,159,20.88a13.89,13.89,0,0,0-3.45-2.09,13.53,13.53,0,0,1,1.46.54,16.48,16.48,0,0,0-1.76-.94l-1.1-.35-.9-.23c-.54-.16-1-.21-1.52-.31a17.67,17.67,0,0,0-4.34-.16,11.28,11.28,0,0,0-5,1c-.74.44-1.09.66-2.17,1.32a15.53,15.53,0,0,0-4.8,3l.14,0c-1,1.35-1.34,1.9-2,2.9A17.42,17.42,0,0,0,131,31.87l.29-.3a7.47,7.47,0,0,0-.39,1.7,13.14,13.14,0,0,0-.12,1.52c0,.52,0,1.06,0,1.67s.1,1.32.15,2.15a23.54,23.54,0,0,0,.71,4.26,12.67,12.67,0,0,0,2.3,4.73,12.76,12.76,0,0,0,5.27,4.88,20.23,20.23,0,0,0,6.23,1.82c3,.53,5.09-.2,5.69.12l-.54.07c.39.09.77.14,1.17.21l.09-.28a15.39,15.39,0,0,0,3-.68c1-.35,2-.77,2.76-1.07a12.82,12.82,0,0,0,2.88-3.15,9.61,9.61,0,0,1-2.41,2.24h.14A11.49,11.49,0,0,1,156.15,53a10.37,10.37,0,0,1-2.43.84c.48-.18.95-.34,1.4-.56-1.64.52-.31-.06.11-.28a7.38,7.38,0,0,0,2.48-1.35c.39-.34.71-.62,1.6-1.53.45-.37,1.16-1.21,1-.85a17.34,17.34,0,0,0,1.38-2c.25-.39.45-.82.66-1.2s.34-.76.46-1.06l.09-.21h.24a1.76,1.76,0,0,0,.82-.08l.31,0a3.25,3.25,0,0,0-1.1-.58l-.26-.09-.66.68C161.64,45.41,160.92,46.35,160,47.25Z" fill="#fff"/>
      </g>
      <g>
        <path d="M173.05,18.13h1.08V38.54c8.54-6.34,16.26-12.53,26.13-20.41h1.64L181.54,34.19l21.53,20.62h-1.53l-20.82-20-6.59,5v15h-1.08Z" fill="#fff"/>
        <path d="M171.26,22.86c.06,1.71.15,3.29.27,4.66-.36,7.38.49,11.12.32,18.76,0,3.14.05,5.87.07,8.53V56h3.33V54.81c0-2.72,0-5.43.07-8.53A9,9,0,0,1,175,43.8c0-.57,0-1.2,0-1.88V40.87l0-.67L178.05,38l1.68-1.24.56-.42.36-.29a5.62,5.62,0,0,0,.53.44c.31.27.67.57,1,.8,2.41,2.18,3.9,3.17,2.21,1.36,3.25,3.09,2.18,2.54,5,5l-1.1-.68c.85.9,1.73,1.95,2.94,3l1.51,1.07a48.38,48.38,0,0,0,4.11,4L198.86,53,200,54l1.35,1.35h0c-.79-.84-.84-.94-.77-.91a10.86,10.86,0,0,1,.85.71c.84,0,1.49-.08,1.35-.18l.32,0,.49.05-.35-.4c-.67-.75-2.24-2.33-1.54-1.77-2.9-2.89-6-5.16-7.37-7.06l-1.17-.95c-2-1.65-3.3-3.21-5-4.89l-.34-.11a49.55,49.55,0,0,1-4.12-4.05l-.86-.84-.82-.77,1.79-1.51,2.1-1.79,4-3.51c3.41-2.48,1.7-1.69,4.63-4.13,2-1.42,5.11-4.19,6.4-4.93-2.62,2.09-2.73,2.71-5.56,4.84,1.15-.73-4.61,3.83-2,2C196,23,199,20.57,202,18.22l.25-.2h-1.73c-.27-.07-.44.14-.63.29l-.55.43-2.11,1.67c-1.37,1.1-2.67,2.18-3.84,3.2.11-.62-6.27,4.58-8.4,6.32l-.2,0c-1.9,1.4-3.29,2.45-6.16,4.87l-2.54,2-1.2.94-.59.47c0-.23,0-.49,0-.74,0-1,0-2,.05-2.91s.06-2,.12-2.95a104.75,104.75,0,0,0-.33-13.53l0,0-1.07.11,1.07.05-.18-.19c-.12,3.21-.06,6.31,0,9.21,0,1.45,0,2.85-.05,4.19,0,.66,0,1.32-.1,1.95,0,.31-.06.62-.08.94s-.08.7-.11,1.06c0-1.25,0-2.2,0-3s0-1.34,0-1.91c-.07-1.09-.14-2.12-.25-3.92l-.14,1.91L173.09,27c-.15.8-.27-1.26-.42-1v5.67c.13-3,.29-1,.45-.15l-.06,2.92c.08-.68.14-2.48.23-.35,0,.31,0,.65,0,1s0,1,0,1.51c0,1,0,2.06,0,3.12-.1-1-.21-2.07-.32-3.31.07,1.46.08,2.77.06,4.14v.26s0,.1,0,.11l.09-.07.38-.28.76-.56,1.54-1.12,2.77-2c.65-.48,1.3-1,2-1.6l1.06-.41,2.64-2.1-.23.33,3.22-2.45a8.92,8.92,0,0,0,2.09-2c1.32-1,2.57-2.08,3.15-2.45L191,27.49l1.46-1.06c-1,.71,1.11-1,1.42-1.36a54,54,0,0,1,4.38-3.18c.79-.68,1.69-1.38,2.49-2,.17-.12,0,0,.16-.06.4,0,.74,0,1,0l-1-3c-.19.17-.3.3-.29.36-3.85,2.84-7.86,6-11.43,8.81l-1.47,1.37c-1.51,1.11-2.71,2-3.82,2.93l-4.67,3.79,4.53,4.23-.37-.25,2.36,2c2.94,3,4.39,3.9,7.78,7.45a41.64,41.64,0,0,0,7.13,6.12c.63.53,1.28,1.13,1.93,1.77l.53-1.34h-.76l-.45,0-1.2-1.25-1.32-1.33,1.17.95L199.23,51c-2.43-2.25-2.48-2.46-5.69-5.34-4.16-4.19-3.9-3.17-5.85-4.76l-3.83-4.15,0,.14c-.7-.53-1.17-.9-1.58-1.25s-1-.86-1.56-1.44l-2.29,1.69L175,38.45l.42,0c-.3.18-.56.35-.82.53l-.86.62c0,.46,0,1,0,1.36s0,.77.06,1.19c0,.84.09,1.79.08,3.06,0,1.65-.35,6.67-.09,9.64l.33-.34-.13,0-.94,0,.35.35c.12-5.4-.46-8.28-.43-13.16.17-3.1-.22-5.31.15-5.91v.56l.37-1.15-.26-.14c.1-1.87,0-4.55.29-6.15L173,24.53c.05,1.06,0,2.24,0,3.42l.07-.12c0,1.13.07,3.87,0,5.17L173,31.44c-.06,1.79-.19.29-.23-.21a43.2,43.2,0,0,0-.19-5.37c0-.62.07-1.8.14-1.36,0-1.62.15-5.9-.11-6l0-.33C172.16,18.68,171.7,20.51,171.26,22.86Z" fill="#fff"/>
      </g>
      <g>
        <path d="M207.32,44.83c1.07,5.58,5.31,9.72,13.5,9.72,8.44,0,12.38-3.94,12.38-8.9S231,38,220.41,35.88c-8.54-1.69-12.33-3.58-12.33-9.36s5.37-9.1,12.07-9.1c10.34,0,12.69,6,13.3,9.36h-1.07c-1-3.89-3.58-8.39-12.23-8.39-5.52,0-11,2.4-11,8.08,0,4.45,2.2,6.65,11.56,8.44,11.4,2.2,13.6,5.58,13.6,10.59,0,7-6.19,10-13.45,10-8.13,0-13.35-3.53-14.63-10.69Z" fill="#fff"/>
        <path d="M205.77,49.27a11.89,11.89,0,0,0,3.58,4.24,12.67,12.67,0,0,0,5.09,2.75,19.14,19.14,0,0,0,4.8.65,29.59,29.59,0,0,0,4.79-.36,20.67,20.67,0,0,0,5.49-1.6,10.52,10.52,0,0,0,4.23-3.57,10,10,0,0,0,1.64-4.84,12.52,12.52,0,0,0,0-2.45,10.28,10.28,0,0,0-.54-2.5,9,9,0,0,0-3.44-4.24c-.62-.16-1.68-.72-3.07-1.22a44,44,0,0,0-4.9-1.55c-.9-.24-1.84-.43-2.75-.64s-1.79-.4-2.63-.61c-1.69-.41-3.2-.86-4.33-1.25a9.82,9.82,0,0,1-2.8-1.66c-.39-.34-.46-.1.4.81a4.66,4.66,0,0,1-1.4-2,5.69,5.69,0,0,1-.25-1.3,14.47,14.47,0,0,1,.16-3.23A6.46,6.46,0,0,0,209.9,26a7.08,7.08,0,0,1,1.53-3.52,6.32,6.32,0,0,1,1.09-1.36,15.16,15.16,0,0,1,5.34-1.92,14.89,14.89,0,0,1,2.82-.24,14.94,14.94,0,0,1,3.28.38c-.77-.2-1.07-.28-1.09-.3a1.67,1.67,0,0,1,.62,0c.73.06,1.78.33,1.64.17.18.07.49.19.82.35a7.47,7.47,0,0,1,1,.51c.63.32,1,.66.55.42a10,10,0,0,1,3.1,2.92,10.84,10.84,0,0,1,1.51,3.44l.05.19h.2l1.07,0h.33l-.05-.35c0-.42-.1-.83-.16-1.26a13.16,13.16,0,0,0-.65-1.49,11.81,11.81,0,0,0-5-5.39h-.39a18.32,18.32,0,0,0-3-.91l-.82-.19-.79-.12c-.51-.07-1-.17-1.32-.2a16.19,16.19,0,0,0-7,.91,9.7,9.7,0,0,0-5.37,4.42,6.22,6.22,0,0,0-.85,2.1,3.76,3.76,0,0,0-.05,1.07,25.87,25.87,0,0,0,.45,2.93,5.54,5.54,0,0,0,2.23,3.5,18.94,18.94,0,0,0,3.23,1.78,18.56,18.56,0,0,1-3.37-1.49,5.25,5.25,0,0,1-2.34-3c.19.69-.45-.77-.53-2.12a14.7,14.7,0,0,1-.07-1.52c0-.24-.07-.11-.17.74a11.09,11.09,0,0,0,.47,2.76,6.65,6.65,0,0,0,1.47,2.51,12.23,12.23,0,0,0,5.12,2.85,45.48,45.48,0,0,0,5.6,1.35c1.82.35,3.55.71,5.14,1.11-.31.17,1.68.68,3.77,1.88A7.53,7.53,0,0,1,232,41.4a6.89,6.89,0,0,1,1,2.74l-.09.19a10.46,10.46,0,0,1-.26,3.44,7.65,7.65,0,0,1-2.29,3.8,10,10,0,0,1-2.93,1.76,15.12,15.12,0,0,1-3.27.84,18.63,18.63,0,0,1-6.26-.13,17.86,17.86,0,0,1-4.17-1.31,12,12,0,0,1-3.45-2.42,13.43,13.43,0,0,1-3.08-5.45,11.25,11.25,0,0,0,1.93,4.92A11,11,0,0,0,213,53.06a15.8,15.8,0,0,0,4.46,1.48,38,38,0,0,0,4.26.55,29.79,29.79,0,0,1-5.07-.38,15.33,15.33,0,0,1-4.12-1.24,17.06,17.06,0,0,0,1.89,1,17.1,17.1,0,0,1-1.64-.61c.74.56-1.4-.46-1.24-.22a15.85,15.85,0,0,0,6.11,2.14c-1.68-.34-1.94-.55-1.67-.54s1.08.06,1.58.07a24.43,24.43,0,0,0,3.18.3c-.74-.09-2.69-.22-.38-.24a30.27,30.27,0,0,0,4.37-.25,21.12,21.12,0,0,1-2.5.59,31.67,31.67,0,0,0,5.39-1,9,9,0,0,0,4.81-3.14,9.1,9.1,0,0,0,1.06-.91,9.36,9.36,0,0,0,1.31-4l0,.49a12.18,12.18,0,0,0,.12-2.46,10.58,10.58,0,0,0-.4-2.49,6.2,6.2,0,0,0-1.39-2.45,3.54,3.54,0,0,0-.8-.64,15.15,15.15,0,0,0-4-2.54,15.51,15.51,0,0,1,2.11.85,14.59,14.59,0,0,0-1.85-1c1.27.62-1.62-.58-2.11-.58-2.1-.7-2.85-.84-3.4-1l-2.2-.63a32.94,32.94,0,0,1-3.9-.86,7.23,7.23,0,0,0-2-.46c-2.21-.81-4.15-2-4.77-3.7a7.38,7.38,0,0,1-.43-3,6.23,6.23,0,0,1,.71-2.76l.36-.74c.16-.23.3-.47.48-.7a11.18,11.18,0,0,1,5.26-2.65,18.49,18.49,0,0,1,6.52-.27l-.43,0a8.81,8.81,0,0,1,1.46.13,11.43,11.43,0,0,1,1.44.27,11,11,0,0,1,4,2.37A8,8,0,0,1,232,26.44c0,.21.08.41.11.58l1.33-1.6h-1.07l1.32,1a10.78,10.78,0,0,0-2.54-5,7.29,7.29,0,0,0-2.75-1.89,18,18,0,0,0-8.56-2.1c.55-.06,1.09-.06,1.64-.09-.7-.07-1.39-.15-2.1-.16a19.59,19.59,0,0,0-3.89.58,11.58,11.58,0,0,0-1.83.64A10.84,10.84,0,0,0,211.12,20a7.56,7.56,0,0,0-2.4,3.14,9,9,0,0,0-.31,1.17c0,.33-.06.61-.07.85a17.58,17.58,0,0,0,.44,2.79,6.22,6.22,0,0,0,1,3,7.79,7.79,0,0,0,2.39,2.16l-.08-.14a9.91,9.91,0,0,0,1.12.43,8.61,8.61,0,0,0,.87.28l1.62.52c.62.18,1.38.42,2.5.69s2.61.56,4.6,1l-.31-.3c1.32.43,2.27.66,3.32.93a15.29,15.29,0,0,1,3.76,1.4,8.53,8.53,0,0,1,3.22,3A10.65,10.65,0,0,1,234,46.11a9.2,9.2,0,0,1-3.23,6.46,10.65,10.65,0,0,1-2.79,1.76,13,13,0,0,1-3.56,1,40.61,40.61,0,0,1-4.06.26,4.36,4.36,0,0,1-2.09-.28l.58,0c-.39-.16-.77-.3-1.14-.49l-.18.24a20.61,20.61,0,0,1-3.16-.83,7.83,7.83,0,0,1-2.62-1.51A10.58,10.58,0,0,1,208.25,50a12.56,12.56,0,0,0,2.42,2.61l0-.14a6.58,6.58,0,0,0,.93.65,12,12,0,0,0,1.29.71c.46.23.95.41,1.39.59l1.18.41c-.53-.13-1.07-.24-1.58-.42.87.36.95.39.71.38a5.85,5.85,0,0,1-1-.25,26.88,26.88,0,0,1-2.83-1.51,8,8,0,0,1-2-1.61c-.45-.52-1.11-1.62-.78-1.26a5.79,5.79,0,0,1-.65-1.09,11.33,11.33,0,0,1-.63-1.44c-.19-.51-.33-1-.47-1.51s-.21-.92-.3-1.26l-.1-.38.44,0c.43,0,.71-.06.74-.12l.34,0a3.37,3.37,0,0,0-1.08-.48l-.75-.22L205.35,45A11.16,11.16,0,0,0,205.77,49.27Z" fill="#fff"/>
      </g>
    </g>
    <path d="M259.56,65.53a14.87,14.87,0,0,0,.57-4.45q0-1.94-.06-3.78c-.06-2.45-.11-4.77-.16-6.92.18-11.61.06-20.35-.08-29.2,0-2.21-.08-4.43-.11-6.7,0-.58,0-1.12,0-1.73a12.51,12.51,0,0,0-.2-1.92,12.38,12.38,0,0,0-1.25-3.72,12.91,12.91,0,0,0-5.89-5.76A13.07,13.07,0,0,0,248,.09L246.84,0c-.39,0-.73,0-1.1,0h-2.22c-21.35,0-36.49.19-57,0-6.68.81-39.91-.13-55.12.39-10.21.1-15.75.41-8,.54C109.34,1,113,.63,101.17.77l4-.28C101.26.43,97,.29,91.87.34L86.13.61c-14-.3-22,.24-37.21.05,9.92.2-4.54.16-3.44.38C43.17.93,34,.88,37.12.8,30.68.75,24.49.85,19,.91c-2.75,0-5.3,0-7.68.08A13,13,0,0,0,5.22,3,12.24,12.24,0,0,0,2,6.53,12.15,12.15,0,0,0,.21,12.1C.13,14,.17,15.76.14,17.53c-.05,3.54-.09,7-.14,10.71l.15,1c.09,4.9.07,13.91-.07,18.18,0,3.23,0,6.66,0,10.2,0,.88,0,1.77,0,2.67a18,18,0,0,0,.14,2.73,11.93,11.93,0,0,0,2,5.14,12.33,12.33,0,0,0,4.12,3.65,11.63,11.63,0,0,0,5.25,1.37c3.6,0,7.11-.09,10.45-.13,13.25.16,7.49-.27,19.47-.38,7.6.1,20.78-.12,25.41.1-10.56,0-12,.44-23.17.35,4.26.14-18.84.15-8.91.36,21.43-.35,48,0,67.64-.38-1.46.42,24.42.25,33.05.19l.56.11c7.42.06,12.91.08,24.69-.05,14.11,0,28-.1,39.91.13,17.54.3,38.41-.16,45.92-.44-21.44-.36-41.56.24-57.47-.43,14.86.11,15.87,0,27.29-.25l-6-.14,4.9-.08c-2.51-.15,4-.27,3.24-.42H200.78c9.56.13,3.25.29.47.45l-9.19-.06c2.14.07,7.8.14,1.11.23-3.69,0-8.61,0-12.7-.05l7.31-.32c-11.22.25-19.67-.36-30.91-.11l-3.42-.33-10.59,0,1.2-.11-12.7,0a80.58,80.58,0,0,0-9.1.32c-5.29,0-10.39.06-12.53,0l6.14-.2-5.67-.06c3.88.06-4.73.12-6.12.2-12.72,0-9,0-17-.19-8.26.13-18.37-.11-18.84.15-15.05-.15-31.09-.15-45.4-.16l-6.3.17-3.08,0-1.45,0a12,12,0,0,1-1.22-.1,10.37,10.37,0,0,1-4.25-1.6,10.21,10.21,0,0,1-4.41-6.74,8.45,8.45,0,0,1-.13-1c0-.34-.05-.65,0-1.07,0-.79,0-1.58,0-2.39,0-1.61,0-3.26,0-5,0-3.46,0-7.25,0-11.66l.07,1.39-.21-9.65c.08-6.63,0-11.25,0-16.13,0-1.22,0-2.46,0-3.75,0-.32,0-.65,0-1s0-.59,0-.89A10.73,10.73,0,0,1,2,10.19,10.17,10.17,0,0,1,3.86,6.56,9.87,9.87,0,0,1,7.54,3.63a10.51,10.51,0,0,1,2.51-.86,15,15,0,0,1,2.52-.2h5c3.12,0,5.79-.05,8.1-.1,4.62-.1,7.84-.25,10.54-.43,8-.16,18.18.08,25.42.1L57,2.25l6,.14c10.41-.06,11,0,24.52-.1,18.57.15,15.75-.41,23.64-.61L128.86,2l-.39-.07c10.49-.4,8.07-.17,33-.18l-1.14-.23c8.37.25,12-.1,22.75-.08,5.27,0,21.44.36,30.72.08,9.47.11,16.49,0,23.18-.13,3.34-.06,6.6-.16,10-.18a11.64,11.64,0,0,1,5.14,1.27,11.87,11.87,0,0,1,4.32,3.82,13.54,13.54,0,0,1,1.48,3.2,12.63,12.63,0,0,1,.49,3.2c0,2,0,3.89.06,5.49a45.27,45.27,0,0,1-.15,6.32V22.77L258,26.39l.26.44c-.1,5.86,0,14.3-.29,19.33l.48,13.62c0-3.34,0-7,0-10.76l-.07.38c0-3.55-.07-12.16,0-16.25l.08,4.92c.07-5.65.19-.94.23.64-.12,11.33.13,8.25.19,16.89,0,1.95-.07,5.66-.14,4.29a15.77,15.77,0,0,1-.53,5.1,12.18,12.18,0,0,1-3.36,5.32A12.6,12.6,0,0,1,250.16,73a13.87,13.87,0,0,1-1.71.41,5.74,5.74,0,0,0-.74.18h-1.05a8.19,8.19,0,0,0,2.12.16,10.55,10.55,0,0,0,3.48-.77,12.46,12.46,0,0,0,4.06-2.59A13.37,13.37,0,0,0,259.56,65.53Z" fill="#fff"/>
  </g>
</svg>
