<svg xmlns="http://www.w3.org/2000/svg" viewBox="0 0 98.42 2308.8"><defs><style>.cls-1{fill:gray;}</style></defs><g id="Layer_2" data-name="Layer 2"><g id="Layer_1-2" data-name="Layer 1"><path class="cls-1" d="M23.33,1.86a9.62,9.62,0,0,0,2.28-.23l1.25,7.15h-.34c-2.2-3.31-3.46-5.51-7-5.51H15.77V24.16c0,2.51.68,3,2.77,4v.31h-9v-.31c2.08-1,2.73-1.48,2.73-4V3.27H8.59c-3.57,0-4.83,2.2-7,5.51H1.22L2.47,1.63a9.62,9.62,0,0,0,2.28.23Z"/><path class="cls-1" d="M50,24.32c0,2.5.53,2.85,2.17,3.87v.27H44.55v-.27c1.63-1,2.16-1.37,2.16-3.87V16.79c0-2.5-1-4.82-4-4.82-2.85,0-5.32,2.39-5.32,6.76v5.59c0,2.5.53,2.85,2.16,3.87v.27H31.93v-.27c1.64-1,2.17-1.37,2.17-3.87V4C34.1,1.86,33,1.18,31.52.27V0h5.89V14.59a6.79,6.79,0,0,1,6.68-5C48,9.61,50,12.16,50,16.22Z"/><path class="cls-1" d="M74.58,18.88H61.09c0,4.91,2.4,7.91,6.43,7.91a6,6,0,0,0,6.07-4.33l.8.26c-.87,3.88-3.61,6.12-7.86,6.12-5,0-9-3.38-9-9.39s3.95-9.84,8.86-9.84C71.58,9.61,74.58,13,74.58,18.88ZM71,17.44c-.08-3.23-1.06-6.31-4.67-6.31-3,0-4.83,2.55-5.17,6.31Z"/><path class="cls-1" d="M85.73,24.58c0,2.21.88,2.66,3.69,3.54v.34H80.26v-.27c1.64-1,2.17-1.37,2.17-3.87V13.91c0-2.06-1.1-2.78-2.55-3.69V10h5.7l.15,5.28c1-3,2.81-5.66,6-5.66,2,0,3.12,1.1,3.12,2.74a2.38,2.38,0,0,1-2.39,2.47c.07-1.48-.57-2.43-2.09-2.43-2.59,0-4.68,3.38-4.68,7.44Z"/><path class="cls-1" d="M18.73,58.88H5.24c0,4.91,2.4,7.91,6.42,7.91a6,6,0,0,0,6.08-4.33l.8.26c-.87,3.88-3.61,6.12-7.86,6.12-5,0-9-3.38-9-9.39s4-9.84,8.85-9.84C15.73,49.61,18.73,53,18.73,58.88Zm-3.57-1.44c-.08-3.23-1.06-6.31-4.67-6.31-3,0-4.83,2.55-5.17,6.31Z"/><path class="cls-1" d="M20.82,108.08a10.37,10.37,0,0,1-3.38.64c-2.32,0-3.46-1.25-3.57-4a6.81,6.81,0,0,1-6.58,4.14c-3,0-5.47-1.6-5.47-4.71,0-4.07,4.34-5.28,8.93-6.12l3-.53V96c0-3.53-1.21-4.94-4.18-4.94C7.37,91.09,6,92.2,6,94a2.63,2.63,0,0,0,.69,1.86,3.12,3.12,0,0,1-1.86.57,2,2,0,0,1-2.13-2.2c0-2.43,2.77-4.64,7.37-4.64,4.79,0,7.14,2.17,7.14,6.31,0,3.38-.11,6.19-.11,8.51,0,2.17,1.14,3,3.72,3.15ZM11,99.34c-3.69.72-5.7,1.75-5.7,4.41,0,2.09,1.29,3.11,3.34,3.11,2.4,0,5.13-2,5.13-6.11v-2Z"/><path class="cls-1" d="M46.74,104.58c0,2.21.88,2.66,3.69,3.54v.34H41.27v-.27c1.63-1,2.17-1.37,2.17-3.87V93.91c0-2.06-1.11-2.78-2.55-3.69V90h5.7l.15,5.28c1-3,2.81-5.66,6-5.66,2,0,3.12,1.1,3.12,2.74a2.38,2.38,0,0,1-2.4,2.47c.08-1.48-.57-2.43-2.08-2.43-2.59,0-4.68,3.38-4.68,7.44Z"/><path class="cls-1" d="M94,98.88H80.49c0,4.91,2.39,7.91,6.42,7.91A6,6,0,0,0,93,102.46l.8.26c-.88,3.88-3.61,6.12-7.87,6.12-5,0-9-3.38-9-9.39s4-9.84,8.85-9.84C91,89.61,94,93,94,98.88Zm-3.57-1.44c-.08-3.23-1.07-6.31-4.68-6.31-3,0-4.82,2.55-5.17,6.31Z"/><path class="cls-1" d="M5.36,134c0,1.83,1.29,2.7,4.56,3.35,4.94.95,6.8,2.58,6.8,5.7,0,3.53-3,5.81-7,5.81A10.84,10.84,0,0,1,4.1,147.2l-1.33,1.64h-.3l-.42-7h.53c1.94,3.57,4.22,5.43,7.11,5.43,2.32,0,4.1-1.06,4.1-3.3s-1.71-2.82-4.9-3.42c-4.71-1-6.34-2.55-6.34-5.55,0-3.15,2.69-5.36,6.3-5.36A9.32,9.32,0,0,1,14,131.13l1.45-1.52h.26v6.27h-.42c-1.67-2.66-3.64-4.71-6.38-4.71C6.65,131.17,5.36,132.31,5.36,134Z"/><path class="cls-1" d="M29.84,148.84c-5.32,0-9.27-4-9.27-9.61s3.95-9.62,9.27-9.62,9.27,4,9.27,9.62S35.16,148.84,29.84,148.84Zm0-17.67c-3.68,0-5.58,3.08-5.58,8.06s1.9,8.05,5.58,8.05,5.59-3.08,5.59-8.05S33.53,131.17,29.84,131.17Z"/><path class="cls-1" d="M66.22,129.61c3.61,0,5.51,2.55,5.51,6.58v8.13c0,2.5.5,2.85,2.13,3.87v.27H66.22v-.27c1.64-1,2.17-1.37,2.17-3.87v-7.49c0-2.51-.76-4.9-3.53-4.9s-5,2.43-5,6.8v5.59c0,2.5.53,2.85,2.16,3.87v.27H54.41v-.27c1.63-1,2.12-1.37,2.12-3.87v-7.49c0-2.51-.72-4.9-3.53-4.9-2.66,0-5,2.43-5,6.8v5.59c0,2.5.54,2.85,2.17,3.87v.27H42.55v-.27c1.64-1,2.17-1.37,2.17-3.87V133.91c0-2.06-1.1-2.78-2.55-3.69V130h5.7l.15,4.6c1.11-3.15,3.27-5,6.35-5,3.27,0,5.05,1.9,5.43,5.09C60.79,131.51,63.15,129.61,66.22,129.61Z"/><path class="cls-1" d="M94,138.88H80.49c0,4.91,2.39,7.91,6.42,7.91A6,6,0,0,0,93,142.46l.8.26c-.87,3.88-3.61,6.12-7.87,6.12-5,0-9-3.38-9-9.39s4-9.84,8.85-9.84C91,129.61,94,133,94,138.88Zm-3.57-1.44c-.08-3.23-1.07-6.31-4.68-6.31-3,0-4.82,2.55-5.16,6.31Z"/><path class="cls-1" d="M7.11,192.49c0,2.5.87,2.84,2.92,3.83v.31H1.63v-.27c1.64-1,2.17-1.37,2.17-3.87V173.91c0-2.06-1.1-2.78-2.55-3.69V170H7l.16,4.56A7,7,0,0,1,14,169.61c4.64,0,8.21,3.38,8.21,9.31,0,6.08-4,9.92-8.63,9.92-3.45,0-5.51-1.71-6.45-3.69Zm0-11.44a5.58,5.58,0,0,0,5.58,5.89c3.5,0,5.85-2.93,5.85-8,0-4.37-2.16-7.26-5.77-7.26-3.42,0-5.66,3.23-5.66,6.88Z"/><path class="cls-1" d="M32.66,181.62c0,2.51,1,4.9,4,4.9s5.2-2.47,5.2-6.8v-5.81c0-2.06-1.1-2.78-2.58-3.69V170h5.89v14.33c0,2.5.53,2.85,2.16,3.87v.27H41.81v-4.67c-1.06,3.26-3.34,5.05-6.57,5.05-3.8,0-5.89-2.51-5.89-6.57v-8.36c0-2.06-1.1-2.78-2.54-3.69V170h5.85Z"/><path class="cls-1" d="M70.52,184.32c0,2.5.53,2.85,2.16,3.87v.27H65.05v-.27c1.63-1,2.16-1.37,2.16-3.87v-7.53c0-2.5-1-4.82-4-4.82s-5.32,2.39-5.32,6.76v5.59c0,2.5.53,2.85,2.17,3.87v.27H52.43v-.27c1.64-1,2.17-1.37,2.17-3.87V173.91c0-2.06-1.1-2.78-2.55-3.69V170h5.7l.15,4.6a6.8,6.8,0,0,1,6.69-5c3.87,0,5.93,2.55,5.93,6.61Z"/><path class="cls-1" d="M81.33,179c0,4.86,2.39,7.79,6.15,7.79a6,6,0,0,0,5.93-4.29l.72.3a7.26,7.26,0,0,1-7.64,6.08c-4.9,0-8.77-3.38-8.77-9.35s4.14-9.88,9.34-9.88c3.84,0,6.69,1.94,6.69,4.64a2.25,2.25,0,0,1-2.47,2.35,1.61,1.61,0,0,1-1-.26,3.6,3.6,0,0,0,.38-1.64,3.29,3.29,0,0,0-3.57-3.57C83.45,171.13,81.33,174.63,81.33,179Z"/><path class="cls-1" d="M1,210.64c3.19-.65,4.67-3.12,5.28-6.88H7.29v6.31h6.58l-.19,1.56H7.29v11.62c0,2.21,1.07,3.38,3,3.38s3.27-1.29,3.8-4.06l.76.15c-.27,3.57-2.21,6.12-5.62,6.12-3.16,0-5.29-1.86-5.29-5.17l0-12H1Z"/><path class="cls-1" d="M30.36,221.62c0,2.51,1,4.9,4,4.9s5.21-2.47,5.21-6.8v-5.81c0-2.06-1.1-2.78-2.58-3.69V210h5.88v14.33c0,2.5.54,2.85,2.17,3.87v.27H39.52v-4.67c-1.06,3.26-3.34,5.05-6.57,5.05-3.8,0-5.89-2.51-5.89-6.57v-8.36c0-2.06-1.1-2.78-2.55-3.69V210h5.85Z"/><path class="cls-1" d="M74.67,228.08a10.42,10.42,0,0,1-3.38.64c-2.32,0-3.46-1.25-3.57-4a6.81,6.81,0,0,1-6.58,4.14c-3,0-5.47-1.6-5.47-4.71,0-4.07,4.33-5.28,8.93-6.12l3-.53V216c0-3.53-1.21-4.94-4.18-4.94-2.24,0-3.61,1.11-3.61,2.93a2.63,2.63,0,0,0,.69,1.86,3.13,3.13,0,0,1-1.87.57,2,2,0,0,1-2.12-2.2c0-2.43,2.77-4.64,7.37-4.64,4.79,0,7.14,2.17,7.14,6.31,0,3.38-.11,6.19-.11,8.51,0,2.17,1.14,3,3.72,3.15Zm-9.8-8.74c-3.69.72-5.7,1.75-5.7,4.41,0,2.09,1.29,3.11,3.34,3.11,2.4,0,5.13-2.05,5.13-6.11v-2Z"/><path class="cls-1" d="M84.14,217.06H93.6V219H84.14Z"/><path class="cls-1" d="M1,250.64c3.19-.65,4.67-3.12,5.28-6.88H7.29v6.31h6.58l-.19,1.56H7.29v11.62c0,2.21,1.07,3.38,3,3.38s3.27-1.29,3.8-4.06l.76.15c-.27,3.57-2.21,6.12-5.62,6.12-3.16,0-5.29-1.86-5.29-5.17l0-12H1Z"/><path class="cls-1" d="M24.42,264.32c0,2.5.53,2.85,2.16,3.87v.27H18.94v-.27c1.64-1,2.17-1.37,2.17-3.87V253.91c0-2.06-1.1-2.78-2.55-3.69V250h5.86Zm-1.87-23.18a2.38,2.38,0,1,1,0,4.75,2.38,2.38,0,1,1,0-4.75Z"/><path class="cls-1" d="M40.09,268.84c-5.32,0-9.27-4-9.27-9.61s4-9.62,9.27-9.62,9.27,4,9.27,9.62S45.41,268.84,40.09,268.84Zm0-17.67c-3.68,0-5.58,3.08-5.58,8.06s1.9,8,5.58,8,5.59-3.08,5.59-8S43.78,251.17,40.09,251.17Z"/><path class="cls-1" d="M72.07,264.32c0,2.5.53,2.85,2.17,3.87v.27H66.6v-.27c1.63-1,2.16-1.37,2.16-3.87v-7.53c0-2.5-1-4.82-4-4.82-2.85,0-5.31,2.39-5.31,6.76v5.59c0,2.5.53,2.85,2.16,3.87v.27H54v-.27c1.64-1,2.17-1.37,2.17-3.87V253.91c0-2.06-1.1-2.78-2.55-3.69V250h5.7l.16,4.6a6.79,6.79,0,0,1,6.68-5c3.88,0,5.93,2.55,5.93,6.61Z"/><path class="cls-1" d="M82.16,254c0,1.83,1.29,2.7,4.56,3.35,4.94.95,6.8,2.58,6.8,5.7,0,3.53-3,5.81-7,5.81a10.8,10.8,0,0,1-5.58-1.64l-1.33,1.64h-.31l-.41-7h.53c1.94,3.57,4.22,5.43,7.1,5.43,2.32,0,4.11-1.06,4.11-3.3s-1.71-2.82-4.9-3.42C81,259.57,79.35,258,79.35,255s2.7-5.36,6.31-5.36a9.32,9.32,0,0,1,5.13,1.52l1.44-1.52h.27v6.27h-.42c-1.67-2.66-3.65-4.71-6.38-4.71C83.45,251.17,82.16,252.31,82.16,254Z"/><path class="cls-1" d="M1,290.64c3.19-.65,4.67-3.12,5.28-6.88H7.29v6.31h6.58l-.19,1.56H7.29v11.62c0,2.21,1.07,3.38,3,3.38s3.27-1.29,3.8-4.06l.76.15c-.27,3.57-2.21,6.12-5.62,6.12-3.16,0-5.29-1.86-5.29-5.17l0-12H1Z"/><path class="cls-1" d="M42.21,304.32c0,2.5.53,2.85,2.16,3.87v.27H36.73v-.27c1.64-1,2.17-1.37,2.17-3.87v-7.53c0-2.5-1-4.82-4-4.82-2.85,0-5.32,2.39-5.32,6.76v5.59c0,2.5.53,2.85,2.17,3.87v.27H24.12v-.27c1.63-1,2.17-1.37,2.17-3.87V284c0-2.09-1.14-2.77-2.59-3.68V280h5.89v14.59a6.8,6.8,0,0,1,6.69-5c3.87,0,5.93,2.55,5.93,6.61Z"/><path class="cls-1" d="M73.13,308.08a10.43,10.43,0,0,1-3.39.64c-2.31,0-3.45-1.25-3.57-4a6.79,6.79,0,0,1-6.57,4.14c-3,0-5.47-1.6-5.47-4.71,0-4.07,4.33-5.28,8.93-6.12l3-.53V296c0-3.53-1.22-4.94-4.18-4.94-2.24,0-3.61,1.11-3.61,2.93a2.63,2.63,0,0,0,.68,1.86,3.12,3.12,0,0,1-1.86.57,2,2,0,0,1-2.13-2.2c0-2.43,2.78-4.64,7.37-4.64,4.79,0,7.15,2.17,7.15,6.31,0,3.38-.12,6.19-.12,8.51s1.14,3,3.73,3.15Zm-9.81-8.74c-3.68.72-5.7,1.75-5.7,4.41,0,2.09,1.3,3.11,3.35,3.11,2.39,0,5.13-2.05,5.13-6.11v-2Z"/><path class="cls-1" d="M80.57,290.64c3.19-.65,4.67-3.12,5.28-6.88h1.06v6.31h6.57l-.19,1.56H86.91v11.62c0,2.21,1.07,3.38,3,3.38s3.26-1.29,3.79-4.06l.76.15c-.26,3.57-2.2,6.12-5.62,6.12-3.15,0-5.28-1.86-5.28-5.17l0-12h-3Z"/><path class="cls-1" d="M20.82,348.08a10.37,10.37,0,0,1-3.38.64c-2.32,0-3.46-1.25-3.57-4a6.81,6.81,0,0,1-6.58,4.14c-3,0-5.47-1.6-5.47-4.71,0-4.07,4.34-5.28,8.93-6.12l3-.53V336c0-3.53-1.21-4.94-4.18-4.94C7.37,331.09,6,332.2,6,334a2.63,2.63,0,0,0,.69,1.86,3.12,3.12,0,0,1-1.86.57,2,2,0,0,1-2.13-2.2c0-2.43,2.77-4.64,7.37-4.64,4.79,0,7.14,2.17,7.14,6.31,0,3.38-.11,6.19-.11,8.51s1.14,3,3.72,3.15ZM11,339.34c-3.69.72-5.7,1.75-5.7,4.41,0,2.09,1.29,3.11,3.34,3.11,2.4,0,5.13-2.05,5.13-6.11v-2Z"/><path class="cls-1" d="M46.74,344.58c0,2.21.88,2.66,3.69,3.54v.34H41.27v-.27c1.63-1,2.17-1.37,2.17-3.87V333.91c0-2.06-1.11-2.78-2.55-3.69V330h5.7l.15,5.28c1-3,2.81-5.66,6-5.66,2,0,3.12,1.1,3.12,2.74a2.38,2.38,0,0,1-2.4,2.47c.08-1.48-.57-2.43-2.08-2.43-2.59,0-4.68,3.38-4.68,7.44Z"/><path class="cls-1" d="M94,338.88H80.49c0,4.91,2.39,7.91,6.42,7.91A6,6,0,0,0,93,342.46l.8.26c-.88,3.88-3.61,6.12-7.87,6.12-5,0-9-3.38-9-9.39s4-9.84,8.85-9.84C91,329.61,94,333,94,338.88Zm-3.57-1.44c-.08-3.23-1.07-6.31-4.68-6.31-3,0-4.82,2.55-5.17,6.31Z"/><path class="cls-1" d="M7.29,384.32c0,2.5.54,2.85,2.17,3.87v.27H1.82v-.27c1.64-1,2.17-1.37,2.17-3.87V373.91c0-2.06-1.1-2.78-2.55-3.69V370H7.29ZM5.43,361.14a2.38,2.38,0,1,1,0,4.75,2.38,2.38,0,1,1,0-4.75Z"/><path class="cls-1" d="M29.62,384.32c0,2.5.53,2.85,2.16,3.87v.27H24.14v-.27c1.64-1,2.17-1.37,2.17-3.87v-7.53c0-2.5-1-4.82-4-4.82S17,374.36,17,378.73v5.59c0,2.5.53,2.85,2.17,3.87v.27H11.53v-.27c1.63-1,2.17-1.37,2.17-3.87V373.91c0-2.06-1.11-2.78-2.55-3.69V370h5.7l.15,4.6a6.8,6.8,0,0,1,6.69-5c3.87,0,5.93,2.55,5.93,6.61Z"/><path class="cls-1" d="M33,370.64c3.19-.65,4.67-3.12,5.28-6.88h1.06v6.31H45.9l-.19,1.56H39.32v11.62c0,2.21,1.07,3.38,3,3.38s3.27-1.29,3.8-4.06l.76.15c-.27,3.57-2.21,6.12-5.63,6.12-3.15,0-5.28-1.86-5.28-5.17l0-12H33Z"/><path class="cls-1" d="M65.56,378.88H52.07c0,4.91,2.39,7.91,6.42,7.91a6,6,0,0,0,6.08-4.33l.8.26c-.87,3.88-3.61,6.12-7.87,6.12-5,0-9-3.38-9-9.39s4-9.84,8.85-9.84C62.56,369.61,65.56,373,65.56,378.88ZM62,377.44c-.08-3.23-1.07-6.31-4.68-6.31-3,0-4.82,2.55-5.16,6.31Z"/><path class="cls-1" d="M73.29,384.58c0,2.21.87,2.66,3.69,3.54v.34H67.82v-.27c1.63-1,2.16-1.37,2.16-3.87V373.91c0-2.06-1.1-2.78-2.54-3.69V370h5.7l.15,5.28c1-3,2.81-5.66,6-5.66,2,0,3.12,1.1,3.12,2.74a2.38,2.38,0,0,1-2.4,2.47c.08-1.48-.57-2.43-2.09-2.43-2.58,0-4.67,3.38-4.67,7.44Z"/><path class="cls-1" d="M84.14,377.06H93.6V379H84.14Z"/><path class="cls-1" d="M18.73,418.88H5.24c0,4.91,2.4,7.91,6.42,7.91a6,6,0,0,0,6.08-4.33l.8.26c-.87,3.88-3.61,6.12-7.86,6.12-5,0-9-3.38-9-9.39s4-9.84,8.85-9.84C15.73,409.61,18.73,413,18.73,418.88Zm-3.57-1.44c-.08-3.23-1.06-6.31-4.67-6.31-3,0-4.83,2.55-5.17,6.31Z"/><path class="cls-1" d="M34.71,414c0,1.83,1.29,2.7,4.56,3.35,4.94.95,6.8,2.58,6.8,5.7,0,3.53-3,5.81-7,5.81a10.87,10.87,0,0,1-5.59-1.64l-1.33,1.64h-.3l-.42-7h.53c1.94,3.57,4.22,5.43,7.11,5.43,2.32,0,4.1-1.06,4.1-3.3s-1.71-2.82-4.9-3.42c-4.71-.95-6.34-2.55-6.34-5.55,0-3.15,2.69-5.36,6.3-5.36a9.29,9.29,0,0,1,5.13,1.52l1.45-1.52H45v6.27h-.42c-1.67-2.66-3.64-4.71-6.38-4.71C36,411.17,34.71,412.31,34.71,414Z"/><path class="cls-1" d="M58.09,410.64c3.2-.65,4.68-3.12,5.29-6.88h1.06v6.31H71l-.19,1.56H64.44v11.62c0,2.21,1.06,3.38,3,3.38s3.27-1.29,3.8-4.06l.76.15c-.26,3.57-2.2,6.12-5.62,6.12-3.16,0-5.28-1.86-5.28-5.17l0-12h-3Z"/><path class="cls-1" d="M84.14,417.06H93.6V419H84.14Z"/><path class="cls-1" d="M7.29,464.32c0,2.5.54,2.85,2.17,3.87v.27H1.82v-.27c1.64-1,2.17-1.37,2.17-3.87V453.91c0-2.06-1.1-2.78-2.55-3.69V450H7.29ZM5.43,441.14a2.38,2.38,0,1,1,0,4.75,2.38,2.38,0,1,1,0-4.75Z"/><path class="cls-1" d="M50.43,464.32c0,2.5.53,2.85,2.16,3.87v.27H45v-.27c1.63-1,2.16-1.37,2.16-3.87v-7.53c0-2.5-1-4.82-4-4.82s-5.32,2.39-5.32,6.76v5.59c0,2.5.53,2.85,2.17,3.87v.27H32.34v-.27c1.64-1,2.17-1.37,2.17-3.87V453.91c0-2.06-1.1-2.78-2.55-3.69V450h5.7l.15,4.6a6.81,6.81,0,0,1,6.69-5c3.88,0,5.93,2.55,5.93,6.61Z"/><path class="cls-1" d="M83.68,477c-4.71,0-9.08-1.52-9.08-5.09,0-2.09,1.9-3.58,5.09-4-2-.38-3.68-1.29-3.68-3.42,0-1.86,1.44-3.19,3.15-3.84a5.68,5.68,0,0,1-2.62-4.9c0-3.38,2.54-6.12,7.25-6.12A8,8,0,0,1,89,451.25c1-1.33,2.35-2.66,4-2.66a2.15,2.15,0,0,1,2.35,2.2,2.07,2.07,0,0,1-2.12,2c0-1-.46-1.86-1.52-1.86A2.67,2.67,0,0,0,89.8,452a5.56,5.56,0,0,1,1.29,3.69c0,3.38-2.58,6.12-7.3,6.12a8.79,8.79,0,0,1-3.79-.76,2.47,2.47,0,0,0-1.64,2.05c0,1.4,1,1.9,3,1.9h5.28c4.49,0,7.19,1.75,7.19,5.28C93.83,474.8,89,477,83.68,477Zm-1.21-8.86c-3.2.12-4.79,1.33-4.79,3.54,0,2.66,2.73,3.8,6,3.8,4.14,0,7.18-1.52,7.18-4.26,0-1.9-1.25-3.08-4.4-3.08ZM83.79,451c-2.35,0-3.79,1.59-3.79,4.71s1.44,4.71,3.79,4.71,3.8-1.59,3.8-4.71S86.15,451,83.79,451Z"/><path class="cls-1" d="M20.82,508.08a10.37,10.37,0,0,1-3.38.64c-2.32,0-3.46-1.25-3.57-4a6.81,6.81,0,0,1-6.58,4.14c-3,0-5.47-1.6-5.47-4.71,0-4.07,4.34-5.28,8.93-6.12l3-.53V496c0-3.53-1.21-4.94-4.18-4.94C7.37,491.09,6,492.2,6,494a2.63,2.63,0,0,0,.69,1.86,3.12,3.12,0,0,1-1.86.57,2,2,0,0,1-2.13-2.2c0-2.43,2.77-4.64,7.37-4.64,4.79,0,7.14,2.17,7.14,6.31,0,3.38-.11,6.19-.11,8.51s1.14,3,3.72,3.15ZM11,499.34c-3.69.72-5.7,1.75-5.7,4.41,0,2.09,1.29,3.11,3.34,3.11,2.4,0,5.13-2.05,5.13-6.11v-2Z"/><path class="cls-1" d="M54.51,504.32c0,2.5.53,2.85,2.17,3.87v.27H49v-.27c1.63-1,2.17-1.37,2.17-3.87v-7.53c0-2.5-1-4.82-4-4.82s-5.32,2.39-5.32,6.76v5.59c0,2.5.53,2.85,2.16,3.87v.27H36.43v-.27c1.63-1,2.16-1.37,2.16-3.87V493.91c0-2.06-1.1-2.78-2.54-3.69V490h5.7l.15,4.6a6.79,6.79,0,0,1,6.68-5c3.88,0,5.93,2.55,5.93,6.61Z"/><path class="cls-1" d="M88.62,503.9a7,7,0,0,1-6.84,4.94c-4.67,0-8.21-3.38-8.21-9.39s4-9.84,8.59-9.84c3.46,0,5.55,1.71,6.46,3.69V484c0-2.09-1.14-2.77-2.58-3.68V480H92v24.32c0,2.5.5,2.85,2.13,3.87v.27H88.73Zm0-6.5A5.58,5.58,0,0,0,83,491.47c-3.5,0-5.86,3-5.86,8,0,4.45,2.17,7.34,5.78,7.34,3.42,0,5.66-3.23,5.66-6.88Z"/><path class="cls-1" d="M1,530.64c3.19-.65,4.67-3.12,5.28-6.88H7.29v6.31h6.58l-.19,1.56H7.29v11.62c0,2.21,1.07,3.38,3,3.38s3.27-1.29,3.8-4.06l.76.15c-.27,3.57-2.21,6.12-5.62,6.12-3.16,0-5.29-1.86-5.29-5.17l0-12H1Z"/><path class="cls-1" d="M35.31,544.32c0,2.5.53,2.85,2.17,3.87v.27H29.84v-.27c1.63-1,2.16-1.37,2.16-3.87v-7.53c0-2.5-1-4.82-4-4.82-2.85,0-5.32,2.39-5.32,6.76v5.59c0,2.5.53,2.85,2.16,3.87v.27H17.22v-.27c1.64-1,2.17-1.37,2.17-3.87V524c0-2.09-1.14-2.77-2.58-3.68V520H22.7v14.59a6.79,6.79,0,0,1,6.68-5c3.88,0,5.93,2.55,5.93,6.61Z"/><path class="cls-1" d="M57.25,538.88H43.76c0,4.91,2.39,7.91,6.42,7.91a6,6,0,0,0,6.08-4.33l.8.26c-.88,3.88-3.61,6.12-7.87,6.12-5,0-9-3.38-9-9.39s4-9.84,8.85-9.84C54.25,529.61,57.25,533,57.25,538.88Zm-3.57-1.44c-.08-3.23-1.07-6.31-4.68-6.31-3,0-4.82,2.55-5.17,6.31Z"/><path class="cls-1" d="M65.77,544.58c0,2.21.88,2.66,3.69,3.54v.34H60.3v-.27c1.63-1,2.17-1.37,2.17-3.87V533.91c0-2.06-1.11-2.78-2.55-3.69V530h5.7l.15,5.28c1-3,2.81-5.66,6-5.66,2,0,3.12,1.1,3.12,2.74a2.38,2.38,0,0,1-2.39,2.47c.07-1.48-.58-2.43-2.09-2.43-2.59,0-4.68,3.38-4.68,7.44Z"/><path class="cls-1" d="M94,538.88H80.49c0,4.91,2.39,7.91,6.42,7.91A6,6,0,0,0,93,542.46l.8.26c-.88,3.88-3.61,6.12-7.87,6.12-5,0-9-3.38-9-9.39s4-9.84,8.85-9.84C91,529.61,94,533,94,538.88Zm-3.58-1.44c-.07-3.23-1.06-6.31-4.67-6.31-3,0-4.82,2.55-5.17,6.31Z"/><path class="cls-1" d="M20.82,588.08a10.37,10.37,0,0,1-3.38.64c-2.32,0-3.46-1.25-3.57-4a6.81,6.81,0,0,1-6.58,4.14c-3,0-5.47-1.6-5.47-4.71,0-4.07,4.34-5.28,8.93-6.12l3-.53V576c0-3.53-1.21-4.94-4.18-4.94C7.37,571.09,6,572.2,6,574a2.63,2.63,0,0,0,.69,1.86,3.12,3.12,0,0,1-1.86.57,2,2,0,0,1-2.13-2.2c0-2.43,2.77-4.64,7.37-4.64,4.79,0,7.14,2.17,7.14,6.31,0,3.38-.11,6.19-.11,8.51s1.14,3,3.72,3.15ZM11,579.34c-3.69.72-5.7,1.75-5.7,4.41,0,2.09,1.29,3.11,3.34,3.11,2.4,0,5.13-2.05,5.13-6.11v-2Z"/><path class="cls-1" d="M46.74,584.58c0,2.21.88,2.66,3.69,3.54v.34H41.27v-.27c1.63-1,2.17-1.37,2.17-3.87V573.91c0-2.06-1.11-2.78-2.55-3.69V570h5.7l.15,5.28c1-3,2.81-5.66,6-5.66,2,0,3.12,1.1,3.12,2.74a2.38,2.38,0,0,1-2.4,2.47c.08-1.48-.57-2.43-2.08-2.43-2.59,0-4.68,3.38-4.68,7.44Z"/><path class="cls-1" d="M94,578.88H80.49c0,4.91,2.39,7.91,6.42,7.91A6,6,0,0,0,93,582.46l.8.26c-.88,3.88-3.61,6.12-7.87,6.12-5,0-9-3.38-9-9.39s4-9.84,8.85-9.84C91,569.61,94,573,94,578.88Zm-3.57-1.44c-.08-3.23-1.07-6.31-4.68-6.31-3,0-4.82,2.55-5.17,6.31Z"/><path class="cls-1" d="M5.36,614c0,1.83,1.29,2.7,4.56,3.35,4.94.95,6.8,2.58,6.8,5.7,0,3.53-3,5.81-7,5.81A10.84,10.84,0,0,1,4.1,627.2l-1.33,1.64h-.3l-.42-7h.53c1.94,3.57,4.22,5.43,7.11,5.43,2.32,0,4.1-1.06,4.1-3.3s-1.71-2.82-4.9-3.42C4.18,619.57,2.55,618,2.55,615s2.69-5.36,6.3-5.36A9.32,9.32,0,0,1,14,611.13l1.45-1.52h.26v6.27h-.42c-1.67-2.66-3.64-4.71-6.38-4.71C6.65,611.17,5.36,612.31,5.36,614Z"/><path class="cls-1" d="M29.84,628.84c-5.32,0-9.27-4-9.27-9.61s3.95-9.62,9.27-9.62,9.27,4,9.27,9.62S35.16,628.84,29.84,628.84Zm0-17.67c-3.68,0-5.58,3.08-5.58,8.06s1.9,8,5.58,8,5.59-3.08,5.59-8S33.53,611.17,29.84,611.17Z"/><path class="cls-1" d="M66.22,609.61c3.61,0,5.51,2.55,5.51,6.58v8.13c0,2.5.5,2.85,2.13,3.87v.27H66.22v-.27c1.64-1,2.17-1.37,2.17-3.87v-7.49c0-2.51-.76-4.9-3.53-4.9s-5,2.43-5,6.8v5.59c0,2.5.53,2.85,2.16,3.87v.27H54.41v-.27c1.63-1,2.12-1.37,2.12-3.87v-7.49c0-2.51-.72-4.9-3.53-4.9-2.66,0-5,2.43-5,6.8v5.59c0,2.5.54,2.85,2.17,3.87v.27H42.55v-.27c1.64-1,2.17-1.37,2.17-3.87V613.91c0-2.06-1.1-2.78-2.55-3.69V610h5.7l.15,4.6c1.11-3.15,3.27-5,6.35-5,3.27,0,5.05,1.9,5.43,5.09C60.79,611.51,63.15,609.61,66.22,609.61Z"/><path class="cls-1" d="M94,618.88H80.49c0,4.91,2.39,7.91,6.42,7.91A6,6,0,0,0,93,622.46l.8.26c-.87,3.88-3.61,6.12-7.87,6.12-5,0-9-3.38-9-9.39s4-9.84,8.85-9.84C91,609.61,94,613,94,618.88Zm-3.57-1.44c-.08-3.23-1.07-6.31-4.68-6.31-3,0-4.82,2.55-5.16,6.31Z"/><path class="cls-1" d="M7.11,672.49c0,2.5.87,2.84,2.92,3.83v.31H1.63v-.27c1.64-1,2.17-1.37,2.17-3.87V653.91c0-2.06-1.1-2.78-2.55-3.69V650H7l.16,4.56A7,7,0,0,1,14,649.61c4.64,0,8.21,3.38,8.21,9.31,0,6.08-4,9.92-8.63,9.92-3.45,0-5.51-1.71-6.45-3.69Zm0-11.44a5.58,5.58,0,0,0,5.58,5.89c3.5,0,5.85-2.93,5.85-8,0-4.37-2.16-7.26-5.77-7.26-3.42,0-5.66,3.23-5.66,6.88Z"/><path class="cls-1" d="M32.66,661.62c0,2.51,1,4.9,4,4.9s5.2-2.47,5.2-6.8v-5.81c0-2.06-1.1-2.78-2.58-3.69V650h5.89v14.33c0,2.5.53,2.85,2.16,3.87v.27H41.81v-4.67c-1.06,3.26-3.34,5.05-6.57,5.05-3.8,0-5.89-2.51-5.89-6.57v-8.36c0-2.06-1.1-2.78-2.54-3.69V650h5.85Z"/><path class="cls-1" d="M70.52,664.32c0,2.5.53,2.85,2.16,3.87v.27H65.05v-.27c1.63-1,2.16-1.37,2.16-3.87v-7.53c0-2.5-1-4.82-4-4.82s-5.32,2.39-5.32,6.76v5.59c0,2.5.53,2.85,2.17,3.87v.27H52.43v-.27c1.64-1,2.17-1.37,2.17-3.87V653.91c0-2.06-1.1-2.78-2.55-3.69V650h5.7l.15,4.6a6.8,6.8,0,0,1,6.69-5c3.87,0,5.93,2.55,5.93,6.61Z"/><path class="cls-1" d="M81.33,659c0,4.86,2.39,7.79,6.15,7.79a6,6,0,0,0,5.93-4.29l.72.3a7.26,7.26,0,0,1-7.64,6.08c-4.9,0-8.77-3.38-8.77-9.35s4.14-9.88,9.34-9.88c3.84,0,6.69,1.94,6.69,4.64a2.25,2.25,0,0,1-2.47,2.35,1.61,1.61,0,0,1-1-.26,3.6,3.6,0,0,0,.38-1.64,3.29,3.29,0,0,0-3.57-3.57C83.45,651.13,81.33,654.63,81.33,659Z"/><path class="cls-1" d="M1,690.64c3.19-.65,4.67-3.12,5.28-6.88H7.29v6.31h6.58l-.19,1.56H7.29v11.62c0,2.21,1.07,3.38,3,3.38s3.27-1.29,3.8-4.06l.76.15c-.27,3.57-2.21,6.12-5.62,6.12-3.16,0-5.29-1.86-5.29-5.17l0-12H1Z"/><path class="cls-1" d="M24.5,701.62c0,2.51,1,4.9,3.95,4.9s5.21-2.47,5.21-6.8v-5.81c0-2.06-1.1-2.78-2.59-3.69V690H37v14.33c0,2.5.54,2.85,2.17,3.87v.27H33.66v-4.67c-1.07,3.26-3.35,5.05-6.58,5.05-3.79,0-5.88-2.51-5.88-6.57v-8.36c0-2.06-1.11-2.78-2.55-3.69V690H24.5Z"/><path class="cls-1" d="M43.08,690.64c3.19-.65,4.67-3.12,5.28-6.88h1.06v6.31H56l-.19,1.56H49.42v11.62c0,2.21,1.07,3.38,3,3.38s3.27-1.29,3.8-4.06l.76.15c-.26,3.57-2.2,6.12-5.62,6.12-3.15,0-5.28-1.86-5.28-5.17l0-12h-3Z"/><path class="cls-1" d="M80.53,708.08a10.37,10.37,0,0,1-3.38.64c-2.32,0-3.46-1.25-3.57-4A6.81,6.81,0,0,1,67,708.84c-3,0-5.47-1.6-5.47-4.71,0-4.07,4.33-5.28,8.92-6.12l3-.53V696c0-3.53-1.21-4.94-4.18-4.94-2.24,0-3.61,1.11-3.61,2.93a2.63,2.63,0,0,0,.69,1.86,3.12,3.12,0,0,1-1.86.57,2,2,0,0,1-2.13-2.2c0-2.43,2.77-4.64,7.37-4.64,4.79,0,7.14,2.17,7.14,6.31,0,3.38-.11,6.19-.11,8.51s1.14,3,3.72,3.15Zm-9.8-8.74c-3.69.72-5.7,1.75-5.7,4.41,0,2.09,1.29,3.11,3.34,3.11,2.4,0,5.13-2.05,5.13-6.11v-2Z"/><path class="cls-1" d="M84.14,697.06H93.6V699H84.14Z"/><path class="cls-1" d="M1,730.64c3.19-.65,4.67-3.12,5.28-6.88H7.29v6.31h6.58l-.19,1.56H7.29v11.62c0,2.21,1.07,3.38,3,3.38s3.27-1.29,3.8-4.06l.76.15c-.27,3.57-2.21,6.12-5.62,6.12-3.16,0-5.29-1.86-5.29-5.17l0-12H1Z"/><path class="cls-1" d="M24.42,744.32c0,2.5.53,2.85,2.16,3.87v.27H18.94v-.27c1.64-1,2.17-1.37,2.17-3.87V733.91c0-2.06-1.1-2.78-2.55-3.69V730h5.86Zm-1.87-23.18a2.38,2.38,0,1,1,0,4.75,2.38,2.38,0,1,1,0-4.75Z"/><path class="cls-1" d="M40.09,748.84c-5.32,0-9.27-4-9.27-9.61s4-9.62,9.27-9.62,9.27,4,9.27,9.62S45.41,748.84,40.09,748.84Zm0-17.67c-3.68,0-5.58,3.08-5.58,8.06s1.9,8,5.58,8,5.59-3.08,5.59-8S43.78,731.17,40.09,731.17Z"/><path class="cls-1" d="M72.07,744.32c0,2.5.53,2.85,2.17,3.87v.27H66.6v-.27c1.63-1,2.16-1.37,2.16-3.87v-7.53c0-2.5-1-4.82-4-4.82-2.85,0-5.31,2.39-5.31,6.76v5.59c0,2.5.53,2.85,2.16,3.87v.27H54v-.27c1.64-1,2.17-1.37,2.17-3.87V733.91c0-2.06-1.1-2.78-2.55-3.69V730h5.7l.16,4.6a6.79,6.79,0,0,1,6.68-5c3.88,0,5.93,2.55,5.93,6.61Z"/><path class="cls-1" d="M82.16,734c0,1.83,1.29,2.7,4.56,3.35,4.94.95,6.8,2.58,6.8,5.7,0,3.53-3,5.81-7,5.81a10.8,10.8,0,0,1-5.58-1.64l-1.33,1.64h-.31l-.41-7h.53c1.94,3.57,4.22,5.43,7.1,5.43,2.32,0,4.11-1.06,4.11-3.3s-1.71-2.82-4.9-3.42C81,739.57,79.35,738,79.35,735s2.7-5.36,6.31-5.36a9.32,9.32,0,0,1,5.13,1.52l1.44-1.52h.27v6.27h-.42c-1.67-2.66-3.65-4.71-6.38-4.71C83.45,731.17,82.16,732.31,82.16,734Z"/><path class="cls-1" d="M1,770.64c3.19-.65,4.67-3.12,5.28-6.88H7.29v6.31h6.58l-.19,1.56H7.29v11.62c0,2.21,1.07,3.38,3,3.38s3.27-1.29,3.8-4.06l.76.15c-.27,3.57-2.21,6.12-5.62,6.12-3.16,0-5.29-1.86-5.29-5.17l0-12H1Z"/><path class="cls-1" d="M42.21,784.32c0,2.5.53,2.85,2.16,3.87v.27H36.73v-.27c1.64-1,2.17-1.37,2.17-3.87v-7.53c0-2.5-1-4.82-4-4.82-2.85,0-5.32,2.39-5.32,6.76v5.59c0,2.5.53,2.85,2.17,3.87v.27H24.12v-.27c1.63-1,2.17-1.37,2.17-3.87V764c0-2.09-1.14-2.77-2.59-3.68V760h5.89v14.59a6.8,6.8,0,0,1,6.69-5c3.87,0,5.93,2.55,5.93,6.61Z"/><path class="cls-1" d="M73.13,788.08a10.43,10.43,0,0,1-3.39.64c-2.31,0-3.45-1.25-3.57-4a6.79,6.79,0,0,1-6.57,4.14c-3,0-5.47-1.6-5.47-4.71,0-4.07,4.33-5.28,8.93-6.12l3-.53V776c0-3.53-1.22-4.94-4.18-4.94-2.24,0-3.61,1.11-3.61,2.93a2.63,2.63,0,0,0,.68,1.86,3.12,3.12,0,0,1-1.86.57,2,2,0,0,1-2.13-2.2c0-2.43,2.78-4.64,7.37-4.64,4.79,0,7.15,2.17,7.15,6.31,0,3.38-.12,6.19-.12,8.51s1.14,3,3.73,3.15Zm-9.81-8.74c-3.68.72-5.7,1.75-5.7,4.41,0,2.09,1.3,3.11,3.35,3.11,2.39,0,5.13-2.05,5.13-6.11v-2Z"/><path class="cls-1" d="M80.57,770.64c3.19-.65,4.67-3.12,5.28-6.88h1.06v6.31h6.57l-.19,1.56H86.91v11.62c0,2.21,1.07,3.38,3,3.38s3.26-1.29,3.79-4.06l.76.15c-.26,3.57-2.2,6.12-5.62,6.12-3.15,0-5.28-1.86-5.28-5.17l0-12h-3Z"/><path class="cls-1" d="M20.82,828.08a10.37,10.37,0,0,1-3.38.64c-2.32,0-3.46-1.25-3.57-4a6.81,6.81,0,0,1-6.58,4.14c-3,0-5.47-1.6-5.47-4.71,0-4.07,4.34-5.28,8.93-6.12l3-.53V816c0-3.53-1.21-4.94-4.18-4.94C7.37,811.09,6,812.2,6,814a2.63,2.63,0,0,0,.69,1.86,3.12,3.12,0,0,1-1.86.57,2,2,0,0,1-2.13-2.2c0-2.43,2.77-4.64,7.37-4.64,4.79,0,7.14,2.17,7.14,6.31,0,3.38-.11,6.19-.11,8.51s1.14,3,3.72,3.15ZM11,819.34c-3.69.72-5.7,1.75-5.7,4.41,0,2.09,1.29,3.11,3.34,3.11,2.4,0,5.13-2.05,5.13-6.11v-2Z"/><path class="cls-1" d="M46.74,824.58c0,2.21.88,2.66,3.69,3.54v.34H41.27v-.27c1.63-1,2.17-1.37,2.17-3.87V813.91c0-2.06-1.11-2.78-2.55-3.69V810h5.7l.15,5.28c1-3,2.81-5.66,6-5.66,2,0,3.12,1.1,3.12,2.74a2.38,2.38,0,0,1-2.4,2.47c.08-1.48-.57-2.43-2.08-2.43-2.59,0-4.68,3.38-4.68,7.44Z"/><path class="cls-1" d="M94,818.88H80.49c0,4.91,2.39,7.91,6.42,7.91A6,6,0,0,0,93,822.46l.8.26c-.88,3.88-3.61,6.12-7.87,6.12-5,0-9-3.38-9-9.39s4-9.84,8.85-9.84C91,809.61,94,813,94,818.88Zm-3.57-1.44c-.08-3.23-1.07-6.31-4.68-6.31-3,0-4.82,2.55-5.17,6.31Z"/><path class="cls-1" d="M19.91,864.32c0,2.5.53,2.85,2.17,3.87v.27H14.44v-.27c1.63-1,2.16-1.37,2.16-3.87v-7.53c0-2.5-1-4.82-4-4.82-2.85,0-5.32,2.39-5.32,6.76v5.59c0,2.5.54,2.85,2.17,3.87v.27H1.82v-.27c1.64-1,2.17-1.37,2.17-3.87V853.91c0-2.06-1.1-2.78-2.55-3.69V850h5.7l.15,4.6a6.81,6.81,0,0,1,6.69-5c3.88,0,5.93,2.55,5.93,6.61Z"/><path class="cls-1" d="M42.55,868.84c-5.32,0-9.27-4-9.27-9.61s3.95-9.62,9.27-9.62,9.27,4,9.27,9.62S47.87,868.84,42.55,868.84Zm0-17.67c-3.69,0-5.59,3.08-5.59,8.06s1.9,8,5.59,8,5.58-3.08,5.58-8S46.23,851.17,42.55,851.17Z"/><path class="cls-1" d="M62.53,850.64c3.19-.65,4.67-3.12,5.28-6.88h1.06v6.31h6.58l-.19,1.56H68.87v11.62c0,2.21,1.07,3.38,3,3.38s3.26-1.29,3.8-4.06l.76.15c-.27,3.57-2.21,6.12-5.63,6.12-3.15,0-5.28-1.86-5.28-5.17l0-12h-3Z"/><path class="cls-1" d="M90.64,868.8a2.59,2.59,0,1,1,2.58-2.58A2.56,2.56,0,0,1,90.64,868.8Z"/><path class="cls-1" d="M7.75,907h6.57c4.18,0,5.55-1.45,8.36-5.89H23l-1.41,7.37H1.9v-.31c1.79-1,2.39-1.44,2.39-3.95V886.12c0-2.51-.6-3-2.39-4v-.31h8.28v.31c-1.78,1-2.43,1.44-2.43,4Z"/><path class="cls-1" d="M60.59,898.88H47.1c0,4.91,2.4,7.91,6.42,7.91a6,6,0,0,0,6.08-4.33l.8.26c-.87,3.88-3.61,6.12-7.86,6.12-5,0-9-3.38-9-9.39s3.95-9.84,8.85-9.84C57.59,889.61,60.59,893,60.59,898.88ZM57,897.44c-.08-3.23-1.06-6.31-4.67-6.31-3,0-4.83,2.55-5.17,6.31Z"/><path class="cls-1" d="M80.57,890.64c3.19-.65,4.67-3.12,5.28-6.88h1.06v6.31h6.57l-.19,1.56H86.91v11.62c0,2.21,1.06,3.38,3,3.38s3.27-1.29,3.8-4.06l.76.15c-.26,3.57-2.2,6.12-5.62,6.12-3.15,0-5.28-1.86-5.28-5.17l0-12h-3Z"/><path class="cls-1" d="M6.92,941.62c0,2.51,1,4.9,3.95,4.9s5.2-2.47,5.2-6.8v-5.81c0-2.06-1.1-2.78-2.58-3.69V930h5.89v14.33c0,2.5.53,2.85,2.16,3.87v.27H16.07v-4.67c-1.06,3.26-3.34,5.05-6.57,5.05-3.8,0-5.89-2.51-5.89-6.57v-8.36c0-2.06-1.1-2.78-2.55-3.69V930H6.92Z"/><path class="cls-1" d="M82.16,934c0,1.83,1.29,2.7,4.56,3.35,4.94.95,6.8,2.58,6.8,5.7,0,3.53-3,5.81-7,5.81a10.8,10.8,0,0,1-5.58-1.64l-1.33,1.64h-.31l-.41-7h.53c1.94,3.57,4.22,5.43,7.1,5.43,2.32,0,4.11-1.06,4.11-3.3s-1.71-2.82-4.91-3.42C81,939.57,79.35,938,79.35,935s2.7-5.36,6.31-5.36a9.34,9.34,0,0,1,5.13,1.52l1.44-1.52h.27v6.27h-.42c-1.67-2.66-3.65-4.71-6.39-4.71C83.45,931.17,82.16,932.31,82.16,934Z"/><path class="cls-1" d="M3.53,988.84H3.08a42.75,42.75,0,0,0,.49-8.44V964c0-2.09-1.1-2.77-2.58-3.68V960H6.92v14.55a7,7,0,0,1,6.83-4.94c4.64,0,8.21,3.38,8.21,9.31,0,6.08-4,9.92-8.74,9.92a7.39,7.39,0,0,1-6.8-3.8A6.19,6.19,0,0,1,3.53,988.84Zm3.39-7.79a5.55,5.55,0,0,0,5.54,5.89c3.5,0,5.89-2.93,5.89-8,0-4.37-2.2-7.26-5.77-7.26s-5.66,3.23-5.66,6.88Z"/><path class="cls-1" d="M41.57,978.88H28.08c0,4.91,2.4,7.91,6.42,7.91a6,6,0,0,0,6.08-4.33l.8.26c-.87,3.88-3.61,6.12-7.86,6.12-5,0-9-3.38-9-9.39s3.95-9.84,8.85-9.84C38.57,969.61,41.57,973,41.57,978.88ZM38,977.44c-.08-3.23-1.06-6.31-4.67-6.31-3,0-4.83,2.55-5.17,6.31Z"/><path class="cls-1" d="M51.91,997c-4.71,0-9.08-1.52-9.08-5.09,0-2.09,1.9-3.58,5.09-4-2-.38-3.69-1.29-3.69-3.42,0-1.86,1.45-3.19,3.16-3.84a5.68,5.68,0,0,1-2.62-4.9c0-3.38,2.54-6.12,7.25-6.12a8,8,0,0,1,5.25,1.64c1-1.33,2.35-2.66,4-2.66a2.15,2.15,0,0,1,2.35,2.2,2.08,2.08,0,0,1-2.13,2.05c0-1-.45-1.86-1.52-1.86A2.65,2.65,0,0,0,58,972a5.56,5.56,0,0,1,1.29,3.69c0,3.38-2.58,6.12-7.3,6.12a8.87,8.87,0,0,1-3.8-.76,2.47,2.47,0,0,0-1.63,2c0,1.4,1,1.9,3,1.9h5.28c4.49,0,7.18,1.75,7.18,5.28C62.05,994.8,57.23,997,51.91,997Zm-1.22-8.86c-3.19.12-4.78,1.33-4.78,3.54,0,2.66,2.73,3.8,6,3.8,4.14,0,7.18-1.52,7.18-4.26,0-1.9-1.25-3.08-4.41-3.08ZM52,971c-2.35,0-3.8,1.59-3.8,4.71s1.45,4.71,3.8,4.71,3.8-1.59,3.8-4.71S54.38,971,52,971Z"/><path class="cls-1" d="M69.81,984.32c0,2.5.53,2.85,2.16,3.87v.27H64.34v-.27c1.63-1,2.16-1.37,2.16-3.87V973.91c0-2.06-1.1-2.78-2.54-3.69V970h5.85ZM68,961.14a2.38,2.38,0,1,1-2.4,2.39A2.38,2.38,0,0,1,68,961.14Z"/><path class="cls-1" d="M92,984.32c0,2.5.53,2.85,2.17,3.87v.27H86.53v-.27c1.63-1,2.17-1.37,2.17-3.87v-7.53c0-2.5-1-4.82-4-4.82-2.85,0-5.32,2.39-5.32,6.76v5.59c0,2.5.53,2.85,2.16,3.87v.27H73.92v-.27c1.63-1,2.16-1.37,2.16-3.87V973.91c0-2.06-1.1-2.78-2.54-3.69V970h5.7l.15,4.6a6.79,6.79,0,0,1,6.68-5c3.88,0,5.93,2.55,5.93,6.61Z"/><path class="cls-1" d="M13.94,1014.93,8.7,1028.84H8.51L3,1014.48a8.1,8.1,0,0,0-3-4.26V1010H6.88v.23c-1,.65-1.26.95-1.26,1.52a7.67,7.67,0,0,0,.61,2.36L9.58,1023l3.6-10.19a5.35,5.35,0,0,0-2.28-2.58V1010h6.69v.23c-.95.61-1.25,1-1.25,1.52a7.67,7.67,0,0,0,.61,2.36l3,9,3.46-8.89a5.76,5.76,0,0,0,.53-1.9c0-.72-.69-1.25-2.13-2.09V1010h6.12v.23c-1.3,1.07-1.9,1.71-2.93,4.26l-5.89,14.36h-.19Z"/><path class="cls-1" d="M41,1024.32c0,2.5.53,2.85,2.17,3.87v.27H35.57v-.27c1.63-1,2.17-1.37,2.17-3.87v-10.41c0-2.06-1.11-2.78-2.55-3.69V1010H41Zm-1.86-23.18a2.38,2.38,0,1,1,0,4.75,2.38,2.38,0,1,1,0-4.75Z"/><path class="cls-1" d="M51.42,1010.64c3.19-.65,4.67-3.12,5.28-6.88h1.06v6.31h6.58l-.19,1.56H57.76v11.62c0,2.21,1.07,3.38,3,3.38s3.26-1.29,3.8-4.06l.76.15c-.27,3.57-2.21,6.12-5.63,6.12-3.15,0-5.28-1.86-5.28-5.17l0-12h-3Z"/><path class="cls-1" d="M92,1024.32c0,2.5.53,2.85,2.17,3.87v.27H86.53v-.27c1.63-1,2.17-1.37,2.17-3.87v-7.53c0-2.5-1-4.82-4-4.82-2.85,0-5.32,2.39-5.32,6.76v5.59c0,2.5.53,2.85,2.16,3.87v.27H73.92v-.27c1.63-1,2.16-1.37,2.16-3.87V1004c0-2.09-1.14-2.77-2.58-3.68V1000h5.89v14.59a6.79,6.79,0,0,1,6.68-5c3.88,0,5.93,2.55,5.93,6.61Z"/><path class="cls-1" d="M1,1050.64c3.19-.65,4.67-3.12,5.28-6.88H7.29v6.31h6.58l-.19,1.56H7.29v11.62c0,2.21,1.07,3.38,3,3.38s3.27-1.29,3.8-4.06l.76.15c-.27,3.57-2.21,6.12-5.62,6.12-3.16,0-5.29-1.86-5.29-5.17l0-12H1Z"/><path class="cls-1" d="M53.68,1064.32c0,2.5.53,2.85,2.16,3.87v.27H48.2v-.27c1.64-1,2.17-1.37,2.17-3.87v-7.53c0-2.5-1-4.82-4-4.82s-5.32,2.39-5.32,6.76v5.59c0,2.5.53,2.85,2.17,3.87v.27H35.59v-.27c1.63-1,2.17-1.37,2.17-3.87V1044c0-2.09-1.14-2.77-2.59-3.68V1040h5.89v14.59a6.8,6.8,0,0,1,6.69-5c3.87,0,5.93,2.55,5.93,6.61Z"/><path class="cls-1" d="M94,1058.88H80.49c0,4.91,2.39,7.91,6.42,7.91a6,6,0,0,0,6.08-4.33l.8.26c-.88,3.88-3.61,6.12-7.87,6.12-5,0-9-3.38-9-9.39s4-9.84,8.85-9.84C91,1049.61,94,1053,94,1058.88Zm-3.57-1.44c-.08-3.23-1.07-6.31-4.68-6.31-3,0-4.82,2.55-5.16,6.31Z"/><path class="cls-1" d="M7.11,1112.49c0,2.5.87,2.84,2.92,3.83v.31H1.63v-.27c1.64-1,2.17-1.37,2.17-3.87v-18.58c0-2.06-1.1-2.78-2.55-3.69V1090H7l.16,4.56a7,7,0,0,1,6.87-4.94c4.64,0,8.21,3.38,8.21,9.31s-4,9.92-8.63,9.92c-3.45,0-5.51-1.71-6.45-3.69Zm0-11.44a5.58,5.58,0,0,0,5.58,5.89c3.5,0,5.85-2.93,5.85-8,0-4.37-2.16-7.26-5.77-7.26-3.42,0-5.66,3.23-5.66,6.88Z"/><path class="cls-1" d="M32.66,1101.62c0,2.51,1,4.9,4,4.9s5.2-2.47,5.2-6.8v-5.81c0-2.06-1.1-2.78-2.58-3.69V1090h5.89v14.33c0,2.5.53,2.85,2.16,3.87v.27H41.81v-4.67c-1.06,3.26-3.34,5-6.57,5-3.8,0-5.89-2.51-5.89-6.57v-8.36c0-2.06-1.1-2.78-2.54-3.69V1090h5.85Z"/><path class="cls-1" d="M70.52,1104.32c0,2.5.53,2.85,2.16,3.87v.27H65.05v-.27c1.63-1,2.16-1.37,2.16-3.87v-7.53c0-2.5-1-4.82-4-4.82s-5.32,2.39-5.32,6.76v5.59c0,2.5.53,2.85,2.17,3.87v.27H52.43v-.27c1.64-1,2.17-1.37,2.17-3.87v-10.41c0-2.06-1.1-2.78-2.55-3.69V1090h5.7l.15,4.6a6.8,6.8,0,0,1,6.69-5c3.87,0,5.93,2.55,5.93,6.61Z"/><path class="cls-1" d="M81.33,1099c0,4.86,2.39,7.79,6.15,7.79a6,6,0,0,0,5.93-4.29l.72.3a7.26,7.26,0,0,1-7.64,6.08c-4.9,0-8.77-3.38-8.77-9.35s4.14-9.88,9.34-9.88c3.84,0,6.69,1.94,6.69,4.64a2.25,2.25,0,0,1-2.47,2.35,1.61,1.61,0,0,1-1-.26,3.6,3.6,0,0,0,.38-1.64,3.29,3.29,0,0,0-3.57-3.57C83.45,1091.13,81.33,1094.63,81.33,1099Z"/><path class="cls-1" d="M1,1130.64c3.19-.65,4.67-3.12,5.28-6.88H7.29v6.31h6.58l-.19,1.56H7.29v11.62c0,2.21,1.07,3.38,3,3.38s3.27-1.29,3.8-4.06l.76.15c-.27,3.57-2.21,6.12-5.62,6.12-3.16,0-5.29-1.86-5.29-5.17l0-12H1Z"/><path class="cls-1" d="M30.36,1141.62c0,2.51,1,4.9,4,4.9s5.21-2.47,5.21-6.8v-5.81c0-2.06-1.1-2.78-2.58-3.69V1130h5.88v14.33c0,2.5.54,2.85,2.17,3.87v.27H39.52v-4.67c-1.06,3.26-3.34,5-6.57,5-3.8,0-5.89-2.51-5.89-6.57v-8.36c0-2.06-1.1-2.78-2.55-3.69V1130h5.85Z"/><path class="cls-1" d="M74.67,1148.08a10.42,10.42,0,0,1-3.38.64c-2.32,0-3.46-1.25-3.57-4a6.81,6.81,0,0,1-6.58,4.14c-3,0-5.47-1.6-5.47-4.71,0-4.07,4.33-5.28,8.93-6.12l3-.53V1136c0-3.53-1.21-4.94-4.18-4.94-2.24,0-3.61,1.11-3.61,2.93a2.63,2.63,0,0,0,.69,1.86,3.13,3.13,0,0,1-1.87.57,2,2,0,0,1-2.12-2.2c0-2.43,2.77-4.64,7.37-4.64,4.79,0,7.14,2.17,7.14,6.31,0,3.38-.11,6.19-.11,8.51,0,2.17,1.14,3,3.72,3.15Zm-9.8-8.74c-3.69.72-5.7,1.75-5.7,4.41,0,2.09,1.29,3.11,3.34,3.11,2.4,0,5.13-2,5.13-6.11v-2Z"/><path class="cls-1" d="M84.14,1137.06H93.6V1139H84.14Z"/><path class="cls-1" d="M1,1170.64c3.19-.65,4.67-3.12,5.28-6.88H7.29v6.31h6.58l-.19,1.56H7.29v11.62c0,2.21,1.07,3.38,3,3.38s3.27-1.29,3.8-4.06l.76.15c-.27,3.57-2.21,6.12-5.62,6.12-3.16,0-5.29-1.86-5.29-5.17l0-12H1Z"/><path class="cls-1" d="M24.42,1184.32c0,2.5.53,2.85,2.16,3.87v.27H18.94v-.27c1.64-1,2.17-1.37,2.17-3.87v-10.41c0-2.06-1.1-2.78-2.55-3.69V1170h5.86Zm-1.87-23.18a2.38,2.38,0,1,1,0,4.75,2.38,2.38,0,1,1,0-4.75Z"/><path class="cls-1" d="M40.09,1188.84c-5.32,0-9.27-4-9.27-9.61s4-9.62,9.27-9.62,9.27,4,9.27,9.62S45.41,1188.84,40.09,1188.84Zm0-17.67c-3.68,0-5.58,3.08-5.58,8.06s1.9,8,5.58,8,5.59-3.08,5.59-8S43.78,1171.17,40.09,1171.17Z"/><path class="cls-1" d="M72.07,1184.32c0,2.5.53,2.85,2.17,3.87v.27H66.6v-.27c1.63-1,2.16-1.37,2.16-3.87v-7.53c0-2.5-1-4.82-4-4.82-2.85,0-5.31,2.39-5.31,6.76v5.59c0,2.5.53,2.85,2.16,3.87v.27H54v-.27c1.64-1,2.17-1.37,2.17-3.87v-10.41c0-2.06-1.1-2.78-2.55-3.69V1170h5.7l.16,4.6a6.79,6.79,0,0,1,6.68-5c3.88,0,5.93,2.55,5.93,6.61Z"/><path class="cls-1" d="M82.16,1174c0,1.83,1.29,2.7,4.56,3.35,4.94,1,6.8,2.58,6.8,5.7,0,3.53-3,5.81-7,5.81a10.8,10.8,0,0,1-5.58-1.64l-1.33,1.64h-.31l-.41-7h.53c1.94,3.57,4.22,5.43,7.1,5.43,2.32,0,4.11-1.06,4.11-3.3s-1.71-2.82-4.9-3.42c-4.72-1-6.35-2.55-6.35-5.55,0-3.15,2.7-5.36,6.31-5.36a9.32,9.32,0,0,1,5.13,1.52l1.44-1.52h.27v6.27h-.42c-1.67-2.66-3.65-4.71-6.38-4.71C83.45,1171.17,82.16,1172.31,82.16,1174Z"/><path class="cls-1" d="M1,1210.64c3.19-.65,4.67-3.12,5.28-6.88H7.29v6.31h6.58l-.19,1.56H7.29v11.62c0,2.21,1.07,3.38,3,3.38s3.27-1.29,3.8-4.06l.76.15c-.27,3.57-2.21,6.12-5.62,6.12-3.16,0-5.29-1.86-5.29-5.17l0-12H1Z"/><path class="cls-1" d="M42.21,1224.32c0,2.5.53,2.85,2.16,3.87v.27H36.73v-.27c1.64-1,2.17-1.37,2.17-3.87v-7.53c0-2.5-1-4.82-4-4.82-2.85,0-5.32,2.39-5.32,6.76v5.59c0,2.5.53,2.85,2.17,3.87v.27H24.12v-.27c1.63-1,2.17-1.37,2.17-3.87V1204c0-2.09-1.14-2.77-2.59-3.68V1200h5.89v14.59a6.8,6.8,0,0,1,6.69-5c3.87,0,5.93,2.55,5.93,6.61Z"/><path class="cls-1" d="M73.13,1228.08a10.43,10.43,0,0,1-3.39.64c-2.31,0-3.45-1.25-3.57-4a6.79,6.79,0,0,1-6.57,4.14c-3,0-5.47-1.6-5.47-4.71,0-4.07,4.33-5.28,8.93-6.12l3-.53V1216c0-3.53-1.22-4.94-4.18-4.94-2.24,0-3.61,1.11-3.61,2.93a2.63,2.63,0,0,0,.68,1.86,3.12,3.12,0,0,1-1.86.57,2,2,0,0,1-2.13-2.2c0-2.43,2.78-4.64,7.37-4.64,4.79,0,7.15,2.17,7.15,6.31,0,3.38-.12,6.19-.12,8.51,0,2.17,1.14,3,3.73,3.15Zm-9.81-8.74c-3.68.72-5.7,1.75-5.7,4.41,0,2.09,1.3,3.11,3.35,3.11,2.39,0,5.13-2,5.13-6.11v-2Z"/><path class="cls-1" d="M80.57,1210.64c3.19-.65,4.67-3.12,5.28-6.88h1.06v6.31h6.57l-.19,1.56H86.91v11.62c0,2.21,1.07,3.38,3,3.38s3.26-1.29,3.79-4.06l.76.15c-.26,3.57-2.2,6.12-5.62,6.12-3.15,0-5.28-1.86-5.28-5.17l0-12h-3Z"/><path class="cls-1" d="M20.82,1268.08a10.37,10.37,0,0,1-3.38.64c-2.32,0-3.46-1.25-3.57-4a6.81,6.81,0,0,1-6.58,4.14c-3,0-5.47-1.6-5.47-4.71,0-4.07,4.34-5.28,8.93-6.12l3-.53V1256c0-3.53-1.21-4.94-4.18-4.94-2.24,0-3.61,1.11-3.61,2.93a2.63,2.63,0,0,0,.69,1.86,3.12,3.12,0,0,1-1.86.57,2,2,0,0,1-2.13-2.2c0-2.43,2.77-4.64,7.37-4.64,4.79,0,7.14,2.17,7.14,6.31,0,3.38-.11,6.19-.11,8.51,0,2.17,1.14,3,3.72,3.15Zm-9.8-8.74c-3.69.72-5.7,1.75-5.7,4.41,0,2.09,1.29,3.11,3.34,3.11,2.4,0,5.13-2,5.13-6.11v-2Z"/><path class="cls-1" d="M46.74,1264.58c0,2.21.88,2.66,3.69,3.54v.34H41.27v-.27c1.63-1,2.17-1.37,2.17-3.87v-10.41c0-2.06-1.11-2.78-2.55-3.69V1250h5.7l.15,5.28c1-3,2.81-5.66,6-5.66,2,0,3.12,1.1,3.12,2.74a2.38,2.38,0,0,1-2.4,2.47c.08-1.48-.57-2.43-2.08-2.43-2.59,0-4.68,3.38-4.68,7.44Z"/><path class="cls-1" d="M94,1258.88H80.49c0,4.91,2.39,7.91,6.42,7.91a6,6,0,0,0,6.08-4.33l.8.26c-.88,3.88-3.61,6.12-7.87,6.12-5,0-9-3.38-9-9.39s4-9.84,8.85-9.84C91,1249.61,94,1253,94,1258.88Zm-3.57-1.44c-.08-3.23-1.07-6.31-4.68-6.31-3,0-4.82,2.55-5.17,6.31Z"/><path class="cls-1" d="M19.91,1304.32c0,2.5.53,2.85,2.17,3.87v.27H14.44v-.27c1.63-1,2.16-1.37,2.16-3.87v-7.53c0-2.5-1-4.82-4-4.82-2.85,0-5.32,2.39-5.32,6.76v5.59c0,2.5.54,2.85,2.17,3.87v.27H1.82v-.27c1.64-1,2.17-1.37,2.17-3.87v-10.41c0-2.06-1.1-2.78-2.55-3.69V1290h5.7l.15,4.6a6.81,6.81,0,0,1,6.69-5c3.88,0,5.93,2.55,5.93,6.61Z"/><path class="cls-1" d="M42.55,1308.84c-5.32,0-9.27-4-9.27-9.61s3.95-9.62,9.27-9.62,9.27,4,9.27,9.62S47.87,1308.84,42.55,1308.84Zm0-17.67c-3.69,0-5.59,3.08-5.59,8.06s1.9,8,5.59,8,5.58-3.08,5.58-8S46.23,1291.17,42.55,1291.17Z"/><path class="cls-1" d="M62.53,1290.64c3.19-.65,4.67-3.12,5.28-6.88h1.06v6.31h6.58l-.19,1.56H68.87v11.62c0,2.21,1.07,3.38,3,3.38s3.26-1.29,3.8-4.06l.76.15c-.27,3.57-2.21,6.12-5.63,6.12-3.15,0-5.28-1.86-5.28-5.17l0-12h-3Z"/><path class="cls-1" d="M90.64,1308.8a2.59,2.59,0,1,1,2.58-2.58A2.56,2.56,0,0,1,90.64,1308.8Z"/><path class="cls-1" d="M15.08,1321.48c7.6,0,13.19,5.7,13.19,13.68s-5.59,13.68-13.19,13.68-13.18-5.7-13.18-13.68S7.49,1321.48,15.08,1321.48Zm0,1.71c-5.77,0-9.27,4.79-9.27,12s3.5,12,9.27,12,9.27-4.79,9.27-12S20.86,1323.19,15.08,1323.19Z"/><path class="cls-1" d="M89.08,1344.58c0,2.21,1,2.66,3.8,3.54v.34H83.61v-.27c1.63-1,2.16-1.37,2.16-3.87v-12.69H83.11v-1l2.66-.76v-2.66c0-4.56,2.89-7.33,7.26-7.33,3,0,5.39,1.48,5.39,3.57a2.14,2.14,0,0,1-2.39,2.17,3.78,3.78,0,0,1-1-.16,4,4,0,0,0,.38-1.82,2.38,2.38,0,0,0-2.66-2.43c-2.24,0-3.64,1.86-3.64,5.09v3.8h5.51l-.19,1.56H89.08Z"/><path class="cls-1" d="M1,1370.64c3.19-.65,4.67-3.12,5.28-6.88H7.29v6.31h6.58l-.19,1.56H7.29v11.62c0,2.21,1.07,3.38,3,3.38s3.27-1.29,3.8-4.06l.76.15c-.27,3.57-2.21,6.12-5.62,6.12-3.16,0-5.29-1.86-5.29-5.17l0-12H1Z"/><path class="cls-1" d="M34.86,1384.32c0,2.5.54,2.85,2.17,3.87v.27H29.39v-.27c1.64-1,2.17-1.37,2.17-3.87v-7.53c0-2.5-1-4.82-4-4.82s-5.32,2.39-5.32,6.76v5.59c0,2.5.53,2.85,2.17,3.87v.27H16.78v-.27c1.63-1,2.16-1.37,2.16-3.87V1364c0-2.09-1.14-2.77-2.58-3.68V1360h5.89v14.59a6.8,6.8,0,0,1,6.69-5c3.87,0,5.92,2.55,5.92,6.61Z"/><path class="cls-1" d="M56.35,1378.88H42.87c0,4.91,2.39,7.91,6.42,7.91a6,6,0,0,0,6.08-4.33l.79.26c-.87,3.88-3.61,6.12-7.86,6.12-5,0-9-3.38-9-9.39s4-9.84,8.86-9.84C53.35,1369.61,56.35,1373,56.35,1378.88Zm-3.57-1.44c-.07-3.23-1.06-6.31-4.67-6.31-3,0-4.83,2.55-5.17,6.31Z"/><path class="cls-1" d="M62.49,1374c0,1.83,1.3,2.7,4.56,3.35,4.94,1,6.8,2.58,6.8,5.7,0,3.53-3,5.81-7,5.81a10.8,10.8,0,0,1-5.59-1.64l-1.33,1.64h-.3l-.42-7h.53c1.94,3.57,4.22,5.43,7.11,5.43,2.31,0,4.1-1.06,4.1-3.3s-1.71-2.82-4.9-3.42c-4.71-1-6.35-2.55-6.35-5.55,0-3.15,2.7-5.36,6.31-5.36a9.32,9.32,0,0,1,5.13,1.52l1.44-1.52h.27v6.27h-.42c-1.67-2.66-3.65-4.71-6.38-4.71C63.79,1371.17,62.49,1372.31,62.49,1374Z"/><path class="cls-1" d="M94,1378.88H80.49c0,4.91,2.39,7.91,6.42,7.91a6,6,0,0,0,6.08-4.33l.8.26c-.88,3.88-3.61,6.12-7.87,6.12-5,0-9-3.38-9-9.39s4-9.84,8.85-9.84C91,1369.61,94,1373,94,1378.88Zm-3.57-1.44c-.08-3.23-1.07-6.31-4.68-6.31-3,0-4.82,2.55-5.16,6.31Z"/><path class="cls-1" d="M1,1410.64c3.19-.65,4.67-3.12,5.28-6.88H7.29v6.31h6.58l-.19,1.56H7.29v11.62c0,2.21,1.07,3.38,3,3.38s3.27-1.29,3.8-4.06l.76.15c-.27,3.57-2.21,6.12-5.62,6.12-3.16,0-5.29-1.86-5.29-5.17l0-12H1Z"/><path class="cls-1" d="M53.68,1424.32c0,2.5.53,2.85,2.16,3.87v.27H48.2v-.27c1.64-1,2.17-1.37,2.17-3.87v-7.53c0-2.5-1-4.82-4-4.82s-5.32,2.39-5.32,6.76v5.59c0,2.5.53,2.85,2.17,3.87v.27H35.59v-.27c1.63-1,2.17-1.37,2.17-3.87V1404c0-2.09-1.14-2.77-2.59-3.68V1400h5.89v14.59a6.8,6.8,0,0,1,6.69-5c3.87,0,5.93,2.55,5.93,6.61Z"/><path class="cls-1" d="M94,1418.88H80.49c0,4.91,2.39,7.91,6.42,7.91a6,6,0,0,0,6.08-4.33l.8.26c-.88,3.88-3.61,6.12-7.87,6.12-5,0-9-3.38-9-9.39s4-9.84,8.85-9.84C91,1409.61,94,1413,94,1418.88Zm-3.57-1.44c-.08-3.23-1.07-6.31-4.68-6.31-3,0-4.82,2.55-5.16,6.31Z"/><path class="cls-1" d="M10.94,1468.84c-5.32,0-9.27-4-9.27-9.61s4-9.62,9.27-9.62,9.27,4,9.27,9.62S16.26,1468.84,10.94,1468.84Zm0-17.67c-3.68,0-5.58,3.08-5.58,8.06s1.9,8,5.58,8,5.59-3.08,5.59-8S14.63,1451.17,10.94,1451.17Z"/><path class="cls-1" d="M56.72,1464.32c0,2.5.53,2.85,2.16,3.87v.27H51.25v-.27c1.63-1,2.16-1.37,2.16-3.87v-7.53c0-2.5-1-4.82-4-4.82s-5.32,2.39-5.32,6.76v5.59c0,2.5.53,2.85,2.17,3.87v.27H38.63v-.27c1.63-1,2.17-1.37,2.17-3.87v-10.41c0-2.06-1.11-2.78-2.55-3.69V1450H44l.15,4.6a6.8,6.8,0,0,1,6.69-5c3.87,0,5.93,2.55,5.93,6.61Z"/><path class="cls-1" d="M94,1458.88H80.49c0,4.91,2.39,7.91,6.42,7.91a6,6,0,0,0,6.08-4.33l.8.26c-.88,3.88-3.61,6.12-7.87,6.12-5,0-9-3.38-9-9.39s4-9.84,8.85-9.84C91,1449.61,94,1453,94,1458.88Zm-3.57-1.44c-.08-3.23-1.07-6.31-4.68-6.31-3,0-4.82,2.55-5.16,6.31Z"/><path class="cls-1" d="M3.53,1508.84H3.08a42.75,42.75,0,0,0,.49-8.44V1484c0-2.09-1.1-2.77-2.58-3.68V1480H6.92v14.55a7,7,0,0,1,6.83-4.94c4.64,0,8.21,3.38,8.21,9.31s-4,9.92-8.74,9.92a7.39,7.39,0,0,1-6.8-3.8A6.19,6.19,0,0,1,3.53,1508.84Zm3.39-7.79a5.55,5.55,0,0,0,5.54,5.89c3.5,0,5.89-2.93,5.89-8,0-4.37-2.2-7.26-5.77-7.26s-5.66,3.23-5.66,6.88Z"/><path class="cls-1" d="M47.07,1501.62c0,2.51,1,4.9,4,4.9s5.2-2.47,5.2-6.8v-5.81c0-2.06-1.1-2.78-2.58-3.69V1490h5.89v14.33c0,2.5.53,2.85,2.16,3.87v.27H56.22v-4.67c-1.06,3.26-3.34,5-6.57,5-3.8,0-5.89-2.51-5.89-6.58v-8.35c0-2.06-1.1-2.78-2.55-3.69V1490h5.86Z"/><path class="cls-1" d="M80.57,1490.64c3.19-.65,4.67-3.12,5.28-6.88h1.06v6.31h6.57l-.19,1.56H86.91v11.62c0,2.21,1.07,3.38,3,3.38s3.26-1.29,3.79-4.06l.76.15c-.26,3.57-2.2,6.12-5.62,6.12-3.15,0-5.28-1.86-5.28-5.17l0-12h-3Z"/><path class="cls-1" d="M1,1530.64c3.19-.65,4.67-3.12,5.28-6.88H7.29v6.31h6.58l-.19,1.56H7.29v11.62c0,2.21,1.07,3.38,3,3.38s3.27-1.29,3.8-4.06l.76.15c-.27,3.57-2.21,6.12-5.62,6.12-3.16,0-5.29-1.86-5.29-5.17l0-12H1Z"/><path class="cls-1" d="M53.68,1544.32c0,2.5.53,2.85,2.16,3.87v.27H48.2v-.27c1.64-1,2.17-1.37,2.17-3.87v-7.53c0-2.5-1-4.82-4-4.82s-5.32,2.39-5.32,6.76v5.59c0,2.5.53,2.85,2.17,3.87v.27H35.59v-.27c1.63-1,2.17-1.37,2.17-3.87V1524c0-2.09-1.14-2.77-2.59-3.68V1520h5.89v14.59a6.8,6.8,0,0,1,6.69-5c3.87,0,5.93,2.55,5.93,6.61Z"/><path class="cls-1" d="M94,1538.88H80.49c0,4.91,2.39,7.91,6.42,7.91a6,6,0,0,0,6.08-4.33l.8.26c-.88,3.88-3.61,6.12-7.87,6.12-5,0-9-3.38-9-9.39s4-9.84,8.85-9.84C91,1529.61,94,1533,94,1538.88Zm-3.57-1.44c-.08-3.23-1.07-6.31-4.68-6.31-3,0-4.82,2.55-5.16,6.31Z"/><path class="cls-1" d="M7.29,1584.58c0,2.21,1,2.66,3.8,3.54v.34H1.82v-.27c1.64-1,2.17-1.37,2.17-3.87v-12.69H1.33v-1l2.66-.76v-2.66c0-4.56,2.89-7.33,7.26-7.33,3,0,5.39,1.48,5.39,3.57a2.13,2.13,0,0,1-2.39,2.16,3.8,3.8,0,0,1-1-.15,4,4,0,0,0,.38-1.82,2.38,2.38,0,0,0-2.66-2.43c-2.24,0-3.65,1.86-3.65,5.09v3.8H12.8l-.19,1.56H7.29Z"/><path class="cls-1" d="M25.81,1584.32c0,2.5.53,2.85,2.17,3.87v.27H20.34v-.27c1.63-1,2.17-1.37,2.17-3.87v-10.41c0-2.06-1.11-2.78-2.55-3.69V1570h5.85ZM24,1561.14a2.38,2.38,0,1,1,0,4.75,2.38,2.38,0,1,1,0-4.75Z"/><path class="cls-1" d="M41.4,1584.58c0,2.21.88,2.66,3.69,3.54v.34H35.93v-.27c1.64-1,2.17-1.37,2.17-3.87v-10.41c0-2.06-1.1-2.78-2.55-3.69V1570h5.7l.15,5.28c1-3,2.81-5.66,6-5.66,2,0,3.12,1.1,3.12,2.74a2.38,2.38,0,0,1-2.39,2.47c.07-1.48-.57-2.43-2.09-2.43-2.59,0-4.68,3.38-4.68,7.44Z"/><path class="cls-1" d="M61.48,1574c0,1.83,1.29,2.7,4.56,3.35,4.94,1,6.8,2.58,6.8,5.69,0,3.54-3,5.82-7,5.82a10.87,10.87,0,0,1-5.59-1.64l-1.33,1.64h-.3l-.42-7h.54c1.93,3.57,4.21,5.43,7.1,5.43,2.32,0,4.1-1.06,4.1-3.3s-1.71-2.82-4.9-3.42c-4.71-1-6.34-2.55-6.34-5.55,0-3.15,2.69-5.36,6.3-5.36a9.29,9.29,0,0,1,5.13,1.52l1.45-1.52h.26v6.27H71.4c-1.68-2.66-3.65-4.71-6.39-4.71C62.77,1571.17,61.48,1572.31,61.48,1574Z"/><path class="cls-1" d="M80.57,1570.64c3.19-.65,4.67-3.12,5.28-6.88h1.06v6.31h6.57l-.19,1.56H86.91v11.62c0,2.21,1.07,3.38,3,3.38s3.26-1.29,3.79-4.06l.76.15c-.26,3.57-2.2,6.12-5.62,6.12-3.15,0-5.28-1.86-5.28-5.17l0-12h-3Z"/><path class="cls-1" d="M20.82,1628.08a10.37,10.37,0,0,1-3.38.64c-2.32,0-3.46-1.25-3.57-4a6.81,6.81,0,0,1-6.58,4.14c-3,0-5.47-1.6-5.47-4.71,0-4.07,4.34-5.28,8.93-6.12l3-.53V1616c0-3.53-1.21-4.94-4.18-4.94-2.24,0-3.61,1.11-3.61,2.93a2.63,2.63,0,0,0,.69,1.86,3.12,3.12,0,0,1-1.86.57,2,2,0,0,1-2.13-2.2c0-2.43,2.77-4.64,7.37-4.64,4.79,0,7.14,2.17,7.14,6.31,0,3.38-.11,6.19-.11,8.51,0,2.17,1.14,3,3.72,3.15Zm-9.8-8.74c-3.69.72-5.7,1.75-5.7,4.41,0,2.09,1.29,3.11,3.34,3.11,2.4,0,5.13-2,5.13-6.11v-2Z"/><path class="cls-1" d="M54.51,1624.32c0,2.5.53,2.85,2.17,3.87v.27H49v-.27c1.63-1,2.17-1.37,2.17-3.87v-7.53c0-2.5-1-4.82-4-4.82s-5.32,2.39-5.32,6.76v5.59c0,2.5.53,2.85,2.16,3.87v.27H36.43v-.27c1.63-1,2.16-1.37,2.16-3.87v-10.41c0-2.06-1.1-2.78-2.54-3.69V1610h5.7l.15,4.6a6.79,6.79,0,0,1,6.68-5c3.88,0,5.93,2.55,5.93,6.61Z"/><path class="cls-1" d="M88.62,1623.9a7,7,0,0,1-6.84,4.94c-4.67,0-8.21-3.38-8.21-9.39s4-9.84,8.59-9.84c3.46,0,5.55,1.71,6.46,3.69V1604c0-2.09-1.14-2.77-2.58-3.68V1600H92v24.32c0,2.5.5,2.85,2.13,3.87v.27H88.73Zm0-6.5a5.58,5.58,0,0,0-5.58-5.93c-3.5,0-5.86,3-5.86,8,0,4.45,2.17,7.34,5.78,7.34,3.42,0,5.66-3.23,5.66-6.88Z"/><path class="cls-1" d="M1,1650.64c3.19-.65,4.67-3.12,5.28-6.88H7.29v6.31h6.58l-.19,1.56H7.29v11.62c0,2.21,1.07,3.38,3,3.38s3.27-1.29,3.8-4.06l.76.15c-.27,3.57-2.21,6.12-5.62,6.12-3.16,0-5.29-1.86-5.29-5.17l0-12H1Z"/><path class="cls-1" d="M53.68,1664.32c0,2.5.53,2.85,2.16,3.87v.27H48.2v-.27c1.64-1,2.17-1.37,2.17-3.87v-7.53c0-2.5-1-4.82-4-4.82s-5.32,2.39-5.32,6.76v5.59c0,2.5.53,2.85,2.17,3.87v.27H35.59v-.27c1.63-1,2.17-1.37,2.17-3.87V1644c0-2.09-1.14-2.77-2.59-3.68V1640h5.89v14.59a6.8,6.8,0,0,1,6.69-5c3.87,0,5.93,2.55,5.93,6.61Z"/><path class="cls-1" d="M94,1658.88H80.49c0,4.91,2.39,7.91,6.42,7.91a6,6,0,0,0,6.08-4.33l.8.26c-.88,3.88-3.61,6.12-7.87,6.12-5,0-9-3.38-9-9.39s4-9.84,8.85-9.84C91,1649.61,94,1653,94,1658.88Zm-3.57-1.44c-.08-3.23-1.07-6.31-4.68-6.31-3,0-4.82,2.55-5.16,6.31Z"/><path class="cls-1" d="M25.49,1689.61c3.61,0,5.51,2.55,5.51,6.58v8.13c0,2.5.5,2.85,2.13,3.87v.27H25.49v-.27c1.64-1,2.17-1.37,2.17-3.87v-7.49c0-2.51-.76-4.9-3.53-4.9s-5,2.43-5,6.8v5.59c0,2.5.53,2.85,2.17,3.87v.27H13.68v-.27c1.63-1,2.13-1.37,2.13-3.87v-7.49c0-2.51-.73-4.9-3.54-4.9-2.66,0-5,2.43-5,6.8v5.59c0,2.5.54,2.85,2.17,3.87v.27H1.82v-.27c1.64-1,2.17-1.37,2.17-3.87v-10.41c0-2.06-1.1-2.78-2.55-3.69V1690h5.7l.15,4.6c1.11-3.15,3.27-5,6.35-5,3.27,0,5.05,1.9,5.43,5.09C20.06,1691.51,22.42,1689.61,25.49,1689.61Z"/><path class="cls-1" d="M46.92,1708.84c-5.32,0-9.27-4-9.27-9.61s4-9.62,9.27-9.62,9.27,4,9.27,9.62S52.24,1708.84,46.92,1708.84Zm0-17.67c-3.69,0-5.59,3.08-5.59,8.06s1.9,8,5.59,8,5.58-3.08,5.58-8S50.6,1691.17,46.92,1691.17Z"/><path class="cls-1" d="M64.77,1694c0,1.83,1.29,2.7,4.56,3.35,4.94,1,6.8,2.58,6.8,5.69,0,3.54-3,5.82-7,5.82a10.87,10.87,0,0,1-5.59-1.64l-1.33,1.64h-.3l-.42-7H62c1.93,3.57,4.21,5.43,7.1,5.43,2.32,0,4.1-1.06,4.1-3.3s-1.71-2.82-4.9-3.42c-4.71-1-6.34-2.55-6.34-5.55,0-3.15,2.69-5.36,6.3-5.36a9.29,9.29,0,0,1,5.13,1.52l1.45-1.52h.26v6.27h-.41c-1.68-2.66-3.65-4.71-6.39-4.71C66.06,1691.17,64.77,1692.31,64.77,1694Z"/><path class="cls-1" d="M80.57,1690.64c3.19-.65,4.67-3.12,5.28-6.88h1.06v6.31h6.58l-.19,1.56H86.91v11.62c0,2.21,1.07,3.38,3,3.38s3.26-1.29,3.8-4.06l.76.15c-.27,3.57-2.21,6.12-5.63,6.12-3.15,0-5.28-1.86-5.28-5.17l0-12h-3Z"/><path class="cls-1" d="M1,1730.64c3.19-.65,4.67-3.12,5.28-6.88H7.29v6.31h6.58l-.19,1.56H7.29v11.62c0,2.21,1.07,3.38,3,3.38s3.27-1.29,3.8-4.06l.76.15c-.27,3.57-2.21,6.12-5.62,6.12-3.16,0-5.29-1.86-5.29-5.17l0-12H1Z"/><path class="cls-1" d="M53.68,1744.32c0,2.5.53,2.85,2.16,3.87v.27H48.2v-.27c1.64-1,2.17-1.37,2.17-3.87v-7.53c0-2.5-1-4.82-4-4.82s-5.32,2.39-5.32,6.76v5.59c0,2.5.53,2.85,2.17,3.87v.27H35.59v-.27c1.63-1,2.17-1.37,2.17-3.87V1724c0-2.09-1.14-2.77-2.59-3.68V1720h5.89v14.59a6.8,6.8,0,0,1,6.69-5c3.87,0,5.93,2.55,5.93,6.61Z"/><path class="cls-1" d="M94,1738.88H80.49c0,4.91,2.39,7.91,6.42,7.91a6,6,0,0,0,6.08-4.33l.8.26c-.88,3.88-3.61,6.12-7.87,6.12-5,0-9-3.38-9-9.39s4-9.84,8.85-9.84C91,1729.61,94,1733,94,1738.88Zm-3.57-1.44c-.08-3.23-1.07-6.31-4.68-6.31-3,0-4.82,2.55-5.16,6.31Z"/><path class="cls-1" d="M5.28,1779c0,4.86,2.39,7.79,6.16,7.79a6,6,0,0,0,5.92-4.29l.73.3a7.26,7.26,0,0,1-7.64,6.08c-4.9,0-8.78-3.38-8.78-9.35s4.14-9.88,9.35-9.88c3.84,0,6.69,1.94,6.69,4.64a2.25,2.25,0,0,1-2.47,2.35,1.59,1.59,0,0,1-1-.26,3.6,3.6,0,0,0,.38-1.64,3.29,3.29,0,0,0-3.57-3.57C7.41,1771.13,5.28,1774.63,5.28,1779Z"/><path class="cls-1" d="M32.74,1788.84c-5.32,0-9.27-4-9.27-9.61s4-9.62,9.27-9.62,9.27,4,9.27,9.62S38.06,1788.84,32.74,1788.84Zm0-17.67c-3.68,0-5.58,3.08-5.58,8.06s1.9,8,5.58,8,5.59-3.08,5.59-8S36.43,1771.17,32.74,1771.17Z"/><path class="cls-1" d="M71.11,1769.61c3.61,0,5.51,2.55,5.51,6.58v8.13c0,2.5.5,2.85,2.13,3.87v.27H71.11v-.27c1.64-1,2.17-1.37,2.17-3.87v-7.49c0-2.51-.76-4.9-3.54-4.9s-5,2.43-5,6.8v5.59c0,2.5.53,2.85,2.16,3.87v.27H59.3v-.27c1.63-1,2.12-1.37,2.12-3.87v-7.49c0-2.51-.72-4.9-3.53-4.9s-5,2.43-5,6.8v5.59c0,2.5.53,2.85,2.17,3.87v.27H47.44v-.27c1.64-1,2.17-1.37,2.17-3.87v-10.41c0-2.06-1.11-2.78-2.55-3.69V1770h5.7l.15,4.6c1.1-3.15,3.27-5,6.35-5,3.27,0,5.05,1.9,5.43,5.09C65.68,1771.51,68,1769.61,71.11,1769.61Z"/><path class="cls-1" d="M84.14,1777.06H93.6V1779H84.14Z"/><path class="cls-1" d="M7.11,1832.49c0,2.5.87,2.84,2.92,3.83v.31H1.63v-.27c1.64-1,2.17-1.37,2.17-3.87v-18.58c0-2.06-1.1-2.78-2.55-3.69V1810H7l.16,4.56a7,7,0,0,1,6.87-4.94c4.64,0,8.21,3.38,8.21,9.31s-4,9.92-8.63,9.92c-3.45,0-5.51-1.71-6.45-3.69Zm0-11.44a5.58,5.58,0,0,0,5.58,5.89c3.5,0,5.85-2.93,5.85-8,0-4.37-2.16-7.26-5.77-7.26-3.42,0-5.66,3.23-5.66,6.88Z"/><path class="cls-1" d="M29.63,1824.32c0,2.5.53,2.85,2.17,3.87v.27H24.16v-.27c1.63-1,2.17-1.37,2.17-3.87V1804c0-2.09-1.14-2.77-2.59-3.68V1800h5.89Z"/><path class="cls-1" d="M50.75,1818.88H37.26c0,4.91,2.4,7.91,6.43,7.91a6,6,0,0,0,6.08-4.33l.79.26c-.87,3.88-3.61,6.12-7.86,6.12-5,0-9-3.38-9-9.39s4-9.84,8.86-9.84C47.75,1809.61,50.75,1813,50.75,1818.88Zm-3.57-1.44c-.07-3.23-1.06-6.31-4.67-6.31-3,0-4.83,2.55-5.17,6.31Z"/><path class="cls-1" d="M52,1810.64c3.19-.65,4.67-3.12,5.28-6.88h1.07v6.31H65l-.19,1.56H58.39v11.62c0,2.21,1.06,3.38,3,3.38s3.27-1.29,3.8-4.06l.76.15c-.27,3.57-2.2,6.12-5.62,6.12-3.16,0-5.29-1.86-5.29-5.17l0-12H52Z"/><path class="cls-1" d="M84.52,1818.88H71c0,4.91,2.4,7.91,6.43,7.91a6,6,0,0,0,6.07-4.33l.8.26c-.87,3.88-3.61,6.12-7.86,6.12-5,0-9-3.38-9-9.39s4-9.84,8.85-9.84C81.52,1809.61,84.52,1813,84.52,1818.88ZM81,1817.44c-.08-3.23-1.06-6.31-4.67-6.31-3,0-4.83,2.55-5.17,6.31Z"/><path class="cls-1" d="M92,1824.32c0,2.5.54,2.85,2.17,3.87v.27H86.49v-.27c1.64-1,2.17-1.37,2.17-3.87V1804c0-2.09-1.14-2.77-2.58-3.68V1800H92Z"/><path class="cls-1" d="M3.12,1854.48A10.36,10.36,0,0,0,0,1850.22V1850H7.07v.23c-1,.65-1.37,1-1.37,1.56a6.23,6.23,0,0,0,.76,2.32l4.48,10.63,4.22-10.48a5.36,5.36,0,0,0,.57-2.09c0-.69-.76-1.22-2-1.94V1850h6.15v.23a10,10,0,0,0-3,4.26L9.5,1871.84c-1.25,3-2.36,5.17-5.24,5.17a2.82,2.82,0,0,1-3.08-2.74,2.64,2.64,0,0,1,2.32-2.47,3.71,3.71,0,0,0-.16.91A1.67,1.67,0,0,0,5,1874.5c1.36,0,2.16-1.18,3.07-3.27l1.22-2.7Z"/><path class="cls-1" d="M25.49,1889.61c3.61,0,5.51,2.55,5.51,6.58v8.13c0,2.5.5,2.85,2.13,3.87v.27H25.49v-.27c1.64-1,2.17-1.37,2.17-3.87v-7.49c0-2.51-.76-4.9-3.53-4.9s-5,2.43-5,6.8v5.59c0,2.5.53,2.85,2.17,3.87v.27H13.68v-.27c1.63-1,2.13-1.37,2.13-3.87v-7.49c0-2.51-.73-4.9-3.54-4.9-2.66,0-5,2.43-5,6.8v5.59c0,2.5.54,2.85,2.17,3.87v.27H1.82v-.27c1.64-1,2.17-1.37,2.17-3.87v-10.41c0-2.06-1.1-2.78-2.55-3.69V1890h5.7l.15,4.6c1.11-3.15,3.27-5,6.35-5,3.27,0,5.05,1.9,5.43,5.09C20.06,1891.51,22.42,1889.61,25.49,1889.61Z"/><path class="cls-1" d="M46.92,1908.84c-5.32,0-9.27-4-9.27-9.61s4-9.62,9.27-9.62,9.27,4,9.27,9.62S52.24,1908.84,46.92,1908.84Zm0-17.67c-3.69,0-5.59,3.08-5.59,8.06s1.9,8,5.59,8,5.58-3.08,5.58-8S50.6,1891.17,46.92,1891.17Z"/><path class="cls-1" d="M64.77,1894c0,1.83,1.29,2.7,4.56,3.35,4.94,1,6.8,2.58,6.8,5.69,0,3.54-3,5.82-7,5.82a10.87,10.87,0,0,1-5.59-1.64l-1.33,1.64h-.3l-.42-7H62c1.93,3.57,4.21,5.43,7.1,5.43,2.32,0,4.1-1.06,4.1-3.3s-1.71-2.82-4.9-3.42c-4.71-1-6.34-2.55-6.34-5.55,0-3.15,2.69-5.36,6.3-5.36a9.29,9.29,0,0,1,5.13,1.52l1.45-1.52h.26v6.27h-.41c-1.68-2.66-3.65-4.71-6.39-4.71C66.06,1891.17,64.77,1892.31,64.77,1894Z"/><path class="cls-1" d="M80.57,1890.64c3.19-.65,4.67-3.12,5.28-6.88h1.06v6.31h6.58l-.19,1.56H86.91v11.62c0,2.21,1.07,3.38,3,3.38s3.26-1.29,3.8-4.06l.76.15c-.27,3.57-2.21,6.12-5.63,6.12-3.15,0-5.28-1.86-5.28-5.17l0-12h-3Z"/><path class="cls-1" d="M6.92,1941.62c0,2.51,1,4.9,3.95,4.9s5.2-2.47,5.2-6.8v-5.81c0-2.06-1.1-2.78-2.58-3.69V1930h5.89v14.33c0,2.5.53,2.85,2.16,3.87v.27H16.07v-4.67c-1.06,3.26-3.34,5-6.57,5-3.8,0-5.89-2.51-5.89-6.58v-8.35c0-2.06-1.1-2.78-2.55-3.69V1930H6.92Z"/><path class="cls-1" d="M43.17,1944.32c0,2.5.53,2.85,2.16,3.87v.27H37.7v-.27c1.63-1,2.16-1.37,2.16-3.87v-7.53c0-2.5-1-4.82-4-4.82-2.85,0-5.32,2.39-5.32,6.76v5.59c0,2.5.53,2.85,2.17,3.87v.27H25.08v-.27c1.64-1,2.17-1.37,2.17-3.87v-10.41c0-2.06-1.1-2.78-2.55-3.69V1930h5.7l.15,4.6a6.81,6.81,0,0,1,6.69-5c3.88,0,5.93,2.55,5.93,6.61Z"/><path class="cls-1" d="M54.38,1944.32c0,2.5.53,2.85,2.17,3.87v.27H48.91v-.27c1.63-1,2.16-1.37,2.16-3.87v-10.41c0-2.06-1.1-2.78-2.54-3.69V1930h5.85Zm-1.86-23.18a2.38,2.38,0,1,1-2.4,2.39A2.38,2.38,0,0,1,52.52,1921.14Z"/><path class="cls-1" d="M78.21,1944.32c0,2.5.53,2.85,2.16,3.87v.27H72.74v-.27c1.63-1,2.16-1.37,2.16-3.87v-7.53c0-2.5-1-4.82-4-4.82-2.85,0-5.32,2.39-5.32,6.76v5.59c0,2.5.53,2.85,2.17,3.87v.27H60.12v-.27c1.63-1,2.17-1.37,2.17-3.87v-10.41c0-2.06-1.11-2.78-2.55-3.69V1930h5.7l.15,4.6a6.8,6.8,0,0,1,6.69-5c3.87,0,5.93,2.55,5.93,6.61Z"/><path class="cls-1" d="M84.14,1937.06H93.6V1939H84.14Z"/><path class="cls-1" d="M1,1970.64c3.19-.65,4.67-3.12,5.28-6.88H7.29v6.31h6.58l-.19,1.56H7.29v11.62c0,2.21,1.07,3.38,3,3.38s3.27-1.29,3.8-4.06l.76.15c-.27,3.57-2.21,6.12-5.62,6.12-3.16,0-5.29-1.86-5.29-5.17l0-12H1Z"/><path class="cls-1" d="M44.21,1978.88H30.72c0,4.91,2.39,7.91,6.42,7.91a6,6,0,0,0,6.08-4.33l.8.26c-.88,3.88-3.61,6.12-7.87,6.12-5,0-9-3.38-9-9.39s4-9.84,8.85-9.84C41.2,1969.61,44.21,1973,44.21,1978.88Zm-3.58-1.44c-.07-3.23-1.06-6.31-4.67-6.31-3,0-4.82,2.55-5.17,6.31Z"/><path class="cls-1" d="M62.61,1984.58c0,2.21.88,2.66,3.69,3.54v.34H57.14v-.27c1.64-1,2.17-1.37,2.17-3.87v-10.41c0-2.06-1.1-2.78-2.55-3.69V1970h5.7l.15,5.28c1-3,2.81-5.66,6-5.66,2,0,3.12,1.1,3.12,2.74a2.38,2.38,0,0,1-2.39,2.47c.07-1.48-.57-2.43-2.09-2.43-2.59,0-4.68,3.38-4.68,7.44Z"/><path class="cls-1" d="M84.14,1977.06H93.6V1979H84.14Z"/><path class="cls-1" d="M18.73,2018.88H5.24c0,4.91,2.4,7.91,6.42,7.91a6,6,0,0,0,6.08-4.33l.8.26c-.87,3.88-3.61,6.12-7.86,6.12-5,0-9-3.38-9-9.39s4-9.84,8.85-9.84C15.73,2009.61,18.73,2013,18.73,2018.88Zm-3.57-1.44c-.08-3.23-1.06-6.31-4.67-6.31-3,0-4.83,2.55-5.17,6.31Z"/><path class="cls-1" d="M34.71,2014c0,1.83,1.29,2.7,4.56,3.35,4.94,1,6.8,2.58,6.8,5.69,0,3.54-3,5.82-7,5.82a10.87,10.87,0,0,1-5.59-1.64l-1.33,1.64h-.3l-.42-7h.53c1.94,3.57,4.22,5.43,7.11,5.43,2.32,0,4.1-1.06,4.1-3.3s-1.71-2.82-4.9-3.42c-4.71-1-6.34-2.55-6.34-5.55,0-3.15,2.69-5.36,6.3-5.36a9.29,9.29,0,0,1,5.13,1.52l1.45-1.52H45v6.27h-.42c-1.67-2.66-3.64-4.71-6.38-4.71C36,2011.17,34.71,2012.31,34.71,2014Z"/><path class="cls-1" d="M58.09,2010.64c3.2-.65,4.68-3.12,5.29-6.88h1.06v6.31H71l-.19,1.56H64.44v11.62c0,2.21,1.06,3.38,3,3.38s3.27-1.29,3.8-4.06l.76.15c-.26,3.57-2.2,6.12-5.62,6.12-3.16,0-5.28-1.86-5.28-5.17l0-12h-3Z"/><path class="cls-1" d="M84.14,2017.06H93.6V2019H84.14Z"/><path class="cls-1" d="M7.29,2064.32c0,2.5.54,2.85,2.17,3.87v.27H1.82v-.27c1.64-1,2.17-1.37,2.17-3.87v-10.41c0-2.06-1.1-2.78-2.55-3.69V2050H7.29Zm-1.86-23.18a2.38,2.38,0,1,1,0,4.75,2.38,2.38,0,1,1,0-4.75Z"/><path class="cls-1" d="M50.43,2064.32c0,2.5.53,2.85,2.16,3.87v.27H45v-.27c1.63-1,2.16-1.37,2.16-3.87v-7.53c0-2.5-1-4.82-4-4.82s-5.32,2.39-5.32,6.76v5.59c0,2.5.53,2.85,2.17,3.87v.27H32.34v-.27c1.64-1,2.17-1.37,2.17-3.87v-10.41c0-2.06-1.1-2.78-2.55-3.69V2050h5.7l.15,4.6a6.81,6.81,0,0,1,6.69-5c3.88,0,5.93,2.55,5.93,6.61Z"/><path class="cls-1" d="M83.68,2077c-4.71,0-9.08-1.52-9.08-5.09,0-2.09,1.9-3.58,5.09-4-2-.38-3.68-1.29-3.68-3.42,0-1.86,1.44-3.19,3.15-3.84a5.68,5.68,0,0,1-2.62-4.9c0-3.38,2.54-6.12,7.25-6.12a8,8,0,0,1,5.25,1.64c1-1.33,2.35-2.66,4-2.66a2.15,2.15,0,0,1,2.35,2.2,2.07,2.07,0,0,1-2.12,2.05c0-1-.46-1.86-1.52-1.86A2.67,2.67,0,0,0,89.8,2052a5.56,5.56,0,0,1,1.29,3.69c0,3.38-2.58,6.12-7.3,6.12a8.79,8.79,0,0,1-3.79-.76,2.47,2.47,0,0,0-1.64,2c0,1.4,1,1.9,3,1.9h5.28c4.49,0,7.19,1.75,7.19,5.28C93.83,2074.8,89,2077,83.68,2077Zm-1.21-8.86c-3.2.12-4.79,1.33-4.79,3.54,0,2.66,2.73,3.8,6,3.8,4.14,0,7.18-1.52,7.18-4.26,0-1.9-1.25-3.08-4.4-3.08ZM83.79,2051c-2.35,0-3.79,1.59-3.79,4.71s1.44,4.71,3.79,4.71,3.8-1.59,3.8-4.71S86.15,2051,83.79,2051Z"/><path class="cls-1" d="M7.29,2104.32c0,2.5.54,2.85,2.17,3.87v.27H1.82v-.27c1.64-1,2.17-1.37,2.17-3.87v-10.41c0-2.06-1.1-2.78-2.55-3.69V2090H7.29Zm-1.86-23.18a2.38,2.38,0,1,1,0,4.75,2.38,2.38,0,1,1,0-4.75Z"/><path class="cls-1" d="M82.16,2094c0,1.83,1.29,2.7,4.56,3.35,4.94,1,6.8,2.58,6.8,5.69,0,3.54-3,5.82-7,5.82a10.8,10.8,0,0,1-5.58-1.64l-1.33,1.64h-.31l-.41-7h.53c1.94,3.57,4.22,5.43,7.1,5.43,2.32,0,4.11-1.06,4.11-3.3s-1.71-2.82-4.91-3.42c-4.71-.95-6.34-2.55-6.34-5.55s2.7-5.36,6.31-5.36a9.34,9.34,0,0,1,5.13,1.52l1.44-1.52h.27v6.27h-.42c-1.67-2.66-3.65-4.71-6.39-4.71C83.45,2091.17,82.16,2092.31,82.16,2094Z"/><path class="cls-1" d="M1,2130.64c3.19-.65,4.67-3.12,5.28-6.88H7.29v6.31h6.58l-.19,1.56H7.29v11.62c0,2.21,1.07,3.38,3,3.38s3.27-1.29,3.8-4.06l.76.15c-.27,3.57-2.21,6.12-5.62,6.12-3.16,0-5.29-1.86-5.29-5.17l0-12H1Z"/><path class="cls-1" d="M53.68,2144.32c0,2.5.53,2.85,2.16,3.87v.27H48.2v-.27c1.64-1,2.17-1.37,2.17-3.87v-7.53c0-2.5-1-4.82-4-4.82s-5.32,2.39-5.32,6.76v5.59c0,2.5.53,2.85,2.17,3.87v.27H35.59v-.27c1.63-1,2.17-1.37,2.17-3.87V2124c0-2.09-1.14-2.77-2.59-3.68V2120h5.89v14.59a6.8,6.8,0,0,1,6.69-5c3.87,0,5.93,2.55,5.93,6.61Z"/><path class="cls-1" d="M94,2138.88H80.49c0,4.91,2.39,7.91,6.42,7.91a6,6,0,0,0,6.08-4.33l.8.26c-.88,3.88-3.61,6.12-7.87,6.12-5,0-9-3.38-9-9.39s4-9.84,8.85-9.84C91,2129.61,94,2133,94,2138.88Zm-3.57-1.44c-.08-3.23-1.07-6.31-4.68-6.31-3,0-4.82,2.55-5.16,6.31Z"/><path class="cls-1" d="M20.1,2169.61h.46a41.91,41.91,0,0,0-.5,8.44v14.44c0,2.5.5,2.84,2.13,3.87v.27h-8.4v-.34c2.05-1.07,2.93-1.3,2.93-3.8v-8.59a7,7,0,0,1-6.84,4.94c-4.67,0-8.21-3.38-8.21-9.39s4-9.84,8.7-9.84a7.34,7.34,0,0,1,6.8,3.8A6.25,6.25,0,0,1,20.1,2169.61Zm-3.38,7.79a5.58,5.58,0,0,0-5.59-5.93c-3.49,0-5.85,3-5.85,8,0,4.45,2.17,7.34,5.78,7.34,3.42,0,5.66-3.23,5.66-6.88Z"/><path class="cls-1" d="M29.44,2181.62c0,2.51,1,4.9,3.95,4.9s5.21-2.47,5.21-6.8v-5.81c0-2.06-1.1-2.78-2.59-3.69V2170H41.9v14.33c0,2.5.53,2.85,2.17,3.87v.27H38.6v-4.67c-1.07,3.26-3.35,5.05-6.58,5.05-3.8,0-5.89-2.51-5.89-6.58v-8.35c0-2.06-1.1-2.78-2.54-3.69V2170h5.85Z"/><path class="cls-1" d="M63.37,2178.88H49.88c0,4.91,2.39,7.91,6.42,7.91a6,6,0,0,0,6.08-4.33l.8.26c-.88,3.88-3.61,6.12-7.87,6.12-5,0-9-3.38-9-9.39s3.95-9.84,8.85-9.84C60.36,2169.61,63.37,2173,63.37,2178.88Zm-3.58-1.44c-.07-3.23-1.06-6.31-4.67-6.31-3,0-4.83,2.55-5.17,6.31Z"/><path class="cls-1" d="M69.51,2174c0,1.83,1.3,2.7,4.56,3.35,4.94,1,6.81,2.58,6.81,5.69,0,3.54-3,5.82-7,5.82a10.8,10.8,0,0,1-5.59-1.64l-1.33,1.64h-.3l-.42-7h.53c1.94,3.57,4.22,5.43,7.11,5.43,2.31,0,4.1-1.06,4.1-3.3s-1.71-2.82-4.9-3.42c-4.71-.95-6.35-2.55-6.35-5.55s2.7-5.36,6.31-5.36a9.32,9.32,0,0,1,5.13,1.52l1.44-1.52h.27v6.27h-.42c-1.67-2.66-3.65-4.71-6.38-4.71C70.81,2171.17,69.51,2172.31,69.51,2174Z"/><path class="cls-1" d="M84.14,2177.06H93.6V2179H84.14Z"/><path class="cls-1" d="M1,2210.64c3.19-.65,4.67-3.12,5.28-6.88H7.29v6.31h6.58l-.19,1.56H7.29v11.62c0,2.21,1.07,3.38,3,3.38s3.27-1.29,3.8-4.06l.76.15c-.27,3.57-2.21,6.12-5.62,6.12-3.16,0-5.29-1.86-5.29-5.17l0-12H1Z"/><path class="cls-1" d="M31.06,2224.32c0,2.5.53,2.85,2.17,3.87v.27H25.59v-.27c1.63-1,2.16-1.37,2.16-3.87v-10.41c0-2.06-1.1-2.78-2.54-3.69V2210h5.85Zm-1.86-23.18a2.38,2.38,0,1,1-2.4,2.39A2.38,2.38,0,0,1,29.2,2201.14Z"/><path class="cls-1" d="M53.38,2228.84c-5.32,0-9.27-4-9.27-9.61s4-9.62,9.27-9.62,9.27,4,9.27,9.62S58.7,2228.84,53.38,2228.84Zm0-17.67c-3.69,0-5.59,3.08-5.59,8.06s1.9,8.05,5.59,8.05,5.58-3.08,5.58-8.05S57.07,2211.17,53.38,2211.17Z"/><path class="cls-1" d="M92,2224.32c0,2.5.53,2.85,2.17,3.87v.27H86.53v-.27c1.64-1,2.17-1.37,2.17-3.87v-7.53c0-2.5-1-4.82-4-4.82-2.85,0-5.32,2.39-5.32,6.76v5.59c0,2.5.53,2.85,2.16,3.87v.27H73.92v-.27c1.63-1,2.16-1.37,2.16-3.87v-10.41c0-2.06-1.1-2.78-2.54-3.69V2210h5.7l.15,4.6a6.79,6.79,0,0,1,6.69-5c3.87,0,5.92,2.55,5.92,6.61Z"/><path class="cls-1" d="M25.49,2249.61c3.61,0,5.51,2.55,5.51,6.58v8.13c0,2.5.5,2.85,2.13,3.87v.27H25.49v-.27c1.64-1,2.17-1.37,2.17-3.87v-7.49c0-2.51-.76-4.9-3.53-4.9s-5,2.43-5,6.8v5.59c0,2.5.53,2.85,2.17,3.87v.27H13.68v-.27c1.63-1,2.13-1.37,2.13-3.87v-7.49c0-2.51-.73-4.9-3.54-4.9-2.66,0-5,2.43-5,6.8v5.59c0,2.5.54,2.85,2.17,3.87v.27H1.82v-.27c1.64-1,2.17-1.37,2.17-3.87v-10.41c0-2.06-1.1-2.78-2.55-3.69V2250h5.7l.15,4.6c1.11-3.15,3.27-5,6.35-5,3.27,0,5.05,1.9,5.43,5.09C20.06,2251.51,22.42,2249.61,25.49,2249.61Z"/><path class="cls-1" d="M55.49,2268.08a10.37,10.37,0,0,1-3.38.64c-2.32,0-3.46-1.25-3.57-4a6.81,6.81,0,0,1-6.57,4.14c-3,0-5.47-1.6-5.47-4.71,0-4.07,4.33-5.28,8.92-6.12l3-.53V2256c0-3.53-1.21-4.94-4.18-4.94-2.24,0-3.61,1.11-3.61,2.93a2.63,2.63,0,0,0,.69,1.86,3.12,3.12,0,0,1-1.86.57,2,2,0,0,1-2.13-2.2c0-2.43,2.77-4.64,7.37-4.64,4.79,0,7.14,2.17,7.14,6.31,0,3.38-.11,6.19-.11,8.51s1.14,3,3.72,3.15Zm-9.8-8.74c-3.69.72-5.7,1.75-5.7,4.41,0,2.09,1.29,3.11,3.34,3.11,2.4,0,5.13-2.05,5.13-6.11v-2Z"/><path class="cls-1" d="M62.88,2264.58c0,2.21.87,2.66,3.69,3.54v.34H57.41v-.27c1.63-1,2.16-1.37,2.16-3.87v-10.41c0-2.06-1.1-2.78-2.54-3.69V2250h5.7l.15,5.28c1-3,2.81-5.66,6-5.66,2,0,3.12,1.1,3.12,2.74a2.38,2.38,0,0,1-2.4,2.47c.08-1.48-.57-2.43-2.09-2.43-2.58,0-4.67,3.38-4.67,7.44Z"/><path class="cls-1" d="M82,2268.46H74.33v-.27c1.64-1,2.17-1.37,2.17-3.87V2244c0-2.09-1.14-2.77-2.58-3.68V2240h5.89v17.59h.91a2.41,2.41,0,0,0,2-.68l4.48-4.18c.54-.5.73-.76.73-1.14s-.42-.88-1.14-1.37V2250H94v.23a13.34,13.34,0,0,0-5.25,3.08l-4.22,4,6.08,7.71a10.41,10.41,0,0,0,4.45,3.15v.31H88.54a6.09,6.09,0,0,0-1.36-2.66l-4.72-6A1.55,1.55,0,0,0,81,2259H79.81v5.36c0,2.5.53,2.85,2.16,3.87Z"/><path class="cls-1" d="M5,2308.8a2.59,2.59,0,1,1,2.58-2.58A2.56,2.56,0,0,1,5,2308.8Z"/></g></g></svg>