<svg xmlns="http://www.w3.org/2000/svg" viewBox="0 0 282.64 212.9"><defs><style>.cls-1{fill:#f0eff7;}</style></defs><g id="Layer_2" data-name="Layer 2"><g id="Layer_1-2" data-name="Layer 1"><path class="cls-1" d="M94.45,38.09H86.13L79.67,12.16h-.1L73.22,38.09H64.74L54.66,0H63l6,25.93h.11L75.78,0h7.84l6.51,26.25h.11L96.48,0h8.21Z"/><path class="cls-1" d="M112,26.14c.21,4.8,2.56,7,6.77,7,3,0,5.5-1.87,6-3.58h6.66c-2.13,6.51-6.66,9.28-12.91,9.28-8.69,0-14.08-6-14.08-14.5,0-8.27,5.71-14.57,14.08-14.57,9.39,0,13.93,7.9,13.39,16.38Zm12.32-4.8c-.69-3.84-2.35-5.87-6-5.87A6,6,0,0,0,112,21.34Z"/><path class="cls-1" d="M150.9,19c.43-7.09,6.77-9.23,13-9.23C169.36,9.76,176,11,176,17.6V32c0,2.51.27,5,1,6.14h-7.68a11,11,0,0,1-.53-2.67c-2.4,2.51-5.93,3.41-9.29,3.41-5.22,0-9.38-2.61-9.38-8.26,0-6.24,4.69-7.74,9.38-8.38s9-.53,9-3.63-2.24-3.73-4.91-3.73c-2.88,0-4.75,1.17-5,4.16Zm17.5,5.6c-1.28,1.12-4,1.18-6.3,1.6s-4.48,1.28-4.48,4.06,2.19,3.52,4.64,3.52c5.92,0,6.14-4.7,6.14-6.35Z"/><path class="cls-1" d="M181.84,10.51H189v5.12h.11A9.75,9.75,0,0,1,198,9.76a5.66,5.66,0,0,1,1.66.27v7a13.91,13.91,0,0,0-2.72-.27c-5.55,0-7.47,4-7.47,8.86V38.09h-7.58Z"/><path class="cls-1" d="M207.88,26.14c.21,4.8,2.56,7,6.77,7,3,0,5.5-1.87,6-3.58h6.66c-2.13,6.51-6.66,9.28-12.91,9.28-8.69,0-14.08-6-14.08-14.5,0-8.27,5.71-14.57,14.08-14.57,9.39,0,13.93,7.9,13.39,16.38Zm12.32-4.8c-.69-3.84-2.35-5.87-6-5.87a6,6,0,0,0-6.29,5.87Z"/><path class="cls-1" d="M12.16,68.53h5.55V73.6H12.16V87.25c0,2.56.64,3.2,3.2,3.2a11.67,11.67,0,0,0,2.35-.21v5.92a28.19,28.19,0,0,1-4.43.27c-4.64,0-8.69-1.07-8.69-6.56V73.6H0V68.53H4.59V60.26h7.57Z"/><path class="cls-1" d="M21.34,58h7.57V72.37h.16a9.71,9.71,0,0,1,8.06-4.59c8,0,10.08,4.54,10.08,11.36v17H39.64V80.53c0-4.53-1.34-6.77-4.86-6.77-4.11,0-5.87,2.29-5.87,7.89V96.11H21.34Z"/><path class="cls-1" d="M59.22,84.16c.21,4.8,2.56,7,6.77,7,3,0,5.5-1.87,6-3.58h6.66C76.5,94.08,72,96.86,65.72,96.86c-8.69,0-14.08-6-14.08-14.51,0-8.27,5.71-14.57,14.08-14.57,9.39,0,13.93,7.9,13.39,16.38Zm12.32-4.8c-.69-3.84-2.35-5.87-6-5.87a6,6,0,0,0-6.29,5.87Z"/><path class="cls-1" d="M100.08,73.6H95.55V68.53h4.53V66.4c0-4.86,3-8.38,9.23-8.38,1.34,0,2.72.16,4,.21v5.66a22.67,22.67,0,0,0-2.77-.16c-2,0-2.88.85-2.88,3.15v1.65h5.23V73.6h-5.23V96.11h-7.58ZM117.47,58h7.58V96.11h-7.58Z"/><path class="cls-1" d="M144.42,67.78c8.69,0,14.29,5.76,14.29,14.57s-5.6,14.51-14.29,14.51-14.25-5.77-14.25-14.51S135.77,67.78,144.42,67.78Zm0,23.37c5.17,0,6.72-4.43,6.72-8.8s-1.55-8.86-6.72-8.86-6.67,4.43-6.67,8.86S139.29,91.15,144.42,91.15Z"/><path class="cls-1" d="M195.15,96.11h-7.79L182.45,77.6h-.1l-4.7,18.51h-7.84l-8.75-27.58h8l5.07,18.72h.11l4.59-18.72h7.36l4.69,18.67H191l5.07-18.67h7.78Z"/><path class="cls-1" d="M213.29,84.16c.21,4.8,2.56,7,6.78,7,3,0,5.49-1.87,6-3.58h6.67c-2.13,6.51-6.67,9.29-12.91,9.29-8.7,0-14.08-6-14.08-14.51,0-8.27,5.7-14.57,14.08-14.57,9.39,0,13.92,7.9,13.39,16.38Zm12.32-4.8c-.69-3.84-2.34-5.87-6-5.87a6,6,0,0,0-6.3,5.87Z"/><path class="cls-1" d="M237.67,68.53h7.2v5.12H245a9.75,9.75,0,0,1,8.8-5.87,5.66,5.66,0,0,1,1.66.27v7a13.91,13.91,0,0,0-2.72-.27c-5.55,0-7.47,4-7.47,8.86V96.11h-7.58Z"/><path class="cls-1" d="M264.29,87.15c.06,3.3,2.83,4.64,5.82,4.64,2.19,0,5-.86,5-3.52,0-2.3-3.15-3.1-8.59-4.27-4.37-1-8.75-2.51-8.75-7.36,0-7,6.08-8.86,12-8.86s11.57,2,12.16,8.8h-7.2c-.22-2.93-2.46-3.73-5.18-3.73-1.71,0-4.21.32-4.21,2.56,0,2.72,4.27,3.09,8.59,4.11s8.74,2.61,8.74,7.73c0,7.26-6.29,9.61-12.58,9.61s-12.65-2.41-13-9.71Z"/><path class="cls-1" d="M66.15,122.28H58.58V116h7.57Zm-7.57,4.27h7.57v27.58H58.58Z"/><path class="cls-1" d="M72.13,126.55h7.2v3.84h.16a9.85,9.85,0,0,1,8.43-4.59c8,0,10.08,4.54,10.08,11.37v17H90.43V138.55c0-4.53-1.34-6.77-4.86-6.77-4.11,0-5.87,2.29-5.87,7.89v14.46H72.13Z"/><path class="cls-1" d="M132.2,157.6c-1.66,4.42-4.27,6.24-9.5,6.24a45.28,45.28,0,0,1-4.64-.27v-6.24a40.37,40.37,0,0,0,4.43.27c2.61-.27,3.47-3,2.61-5.18l-9.7-25.87h8.1l6.25,18.88h.1l6-18.88h7.84Z"/><path class="cls-1" d="M159.67,125.8c8.7,0,14.3,5.76,14.3,14.57s-5.6,14.51-14.3,14.51-14.24-5.76-14.24-14.51S151,125.8,159.67,125.8Zm0,23.37c5.18,0,6.73-4.43,6.73-8.8s-1.55-8.86-6.73-8.86-6.66,4.43-6.66,8.86S154.55,149.17,159.67,149.17Z"/><path class="cls-1" d="M204.75,154.13h-7.2v-3.84h-.16a9.85,9.85,0,0,1-8.43,4.59c-8.05,0-10.08-4.54-10.08-11.37v-17h7.58v15.58c0,4.53,1.33,6.77,4.85,6.77,4.11,0,5.87-2.29,5.87-7.89V126.55h7.57Z"/><path class="cls-1" d="M210.52,126.55h7.2v5.12h.11a9.74,9.74,0,0,1,8.8-5.87,5.64,5.64,0,0,1,1.65.27v7a13.75,13.75,0,0,0-2.72-.27c-5.55,0-7.47,4-7.47,8.86v12.43h-7.57Z"/><path class="cls-1" d="M62.26,208.63h-.11c-1.76,3-4.85,4.27-8.38,4.27-8.32,0-12.37-7.15-12.37-14.78,0-7.41,4.11-14.3,12.21-14.3a9.5,9.5,0,0,1,8.17,4.11h.1V174.06h7.58v38.09h-7.2Zm-6.62-19.1c-5,0-6.67,4.27-6.67,8.8,0,4.32,2,8.86,6.67,8.86,5,0,6.51-4.38,6.51-8.91S60.55,189.53,55.64,189.53Z"/><path class="cls-1" d="M101,212.15h-7.2v-3.84h-.16a9.85,9.85,0,0,1-8.43,4.59c-8,0-10.08-4.54-10.08-11.37v-17h7.57v15.58c0,4.53,1.34,6.77,4.86,6.77,4.11,0,5.87-2.29,5.87-7.89V184.57H101Z"/><path class="cls-1" d="M112.67,203.19c.06,3.31,2.83,4.64,5.82,4.64,2.18,0,5-.85,5-3.52,0-2.3-3.15-3.1-8.59-4.27-4.37-1-8.75-2.51-8.75-7.36,0-7,6.08-8.86,12-8.86s11.58,2,12.17,8.81h-7.2c-.22-2.94-2.46-3.74-5.18-3.74-1.71,0-4.21.32-4.21,2.56,0,2.72,4.26,3.1,8.59,4.11s8.74,2.61,8.74,7.73c0,7.26-6.29,9.61-12.59,9.61s-12.64-2.4-13-9.71Z"/><path class="cls-1" d="M145.06,184.57h5.54v5.07h-5.54v13.65c0,2.57.64,3.21,3.2,3.21a11.59,11.59,0,0,0,2.34-.22v5.92a28.14,28.14,0,0,1-4.42.27c-4.64,0-8.7-1.07-8.7-6.56V189.64h-4.59v-5.07h4.59V176.3h7.58Z"/><path class="cls-1" d="M154.23,174.06h7.58v13.87h.11c1.86-2.83,5.28-4.11,8.69-4.11,5.49,0,11.42,4.43,11.42,14.51s-5.93,14.57-11.42,14.57c-4.05,0-7.41-1.23-9.07-4.27h-.11v3.52h-7.2ZM168,189.53c-4.48,0-6.46,4.22-6.46,8.86s2,8.8,6.46,8.8,6.45-4.22,6.45-8.8S172.48,189.53,168,189.53Z"/><path class="cls-1" d="M194.62,180.3H187v-6.24h7.58ZM187,184.57h7.58v27.58H187Z"/><path class="cls-1" d="M200.59,184.57h7.21v3.84H208a9.83,9.83,0,0,1,8.42-4.59c8.06,0,10.09,4.54,10.09,11.37v17h-7.58V196.57c0-4.53-1.33-6.77-4.85-6.77-4.11,0-5.87,2.29-5.87,7.89v14.46h-7.58Z"/></g></g></svg>