<svg xmlns="http://www.w3.org/2000/svg" viewBox="0 0 172.12 217.41"><defs><style>.cls-1{fill:#e63d22;}</style></defs><g id="Layer_2" data-name="Layer 2"><g id="Layer_1-2" data-name="Layer 1"><g id="ogeu6X"><path class="cls-1" d="M40.47,114.92c.86-22.65,7.62-52.4,22.5-89.53,3.09-7.74,7.71-17.25,13.15-19.2,6.22-2.23,8.17,7,8.71,15a304.46,304.46,0,0,1-2,63.22c8.82-15,18.21-31.75,33.37-50.31C128.89,18.56,147.72,0,161.52,0c16.36,0,11.32,25,1.4,45.07-16.7,33.72-41.4,58.88-59.68,77.2,14.32-7.82,32.6-9.52,42.25-2.61s7.57,20.61-3.75,30.9c-9.25,8.4-23.46,13.1-34.23,12.5,8.6,6.85,19,12.36,25.48,20.11,3,3.56,5.3,7.71,1.7,11.44-3.87,4-13.33,5.7-20.66,5.12-7-.56-12.81-2.71-18.29-4.77a46.93,46.93,0,0,1,13.33,11.91c2.34,3.26,3.49,7.15-.94,9.29-4.9,2.37-13.51,1-19.31-1.07-13.28-4.74-21.8-13-28.59-21.5a30.31,30.31,0,0,1,.94,9.38c-.17,2.59-.74,5.07-2.57,6.95a10.71,10.71,0,0,1-8.34,2.75,18.42,18.42,0,0,1-12.87-7.09c-2.49-3.54-2.81-7.36-3.06-11.25-1.5,1.31-4.32,2.27-6.49.78A3,3,0,0,1,26.9,191c1.39-2.29,4.61-3.52,7.86-4.7a30.78,30.78,0,0,1-15.54-6c-2.95-2.25-5.66-5.91-4.27-8.45,1.8-3.31,8.84-3.12,13.17-2.6-5.39-3.46-10.83-6.95-15.62-11.33A42.27,42.27,0,0,1,.86,141.05c-1.13-3.24-1.48-7.62,1.07-8.9a5.71,5.71,0,0,1,3.83,0,38,38,0,0,1,19.07,12.13c-4.51-6.56-9.49-13.13-13.28-21.31A73.36,73.36,0,0,1,4.63,90.71c.1-4.92,1.23-10.95,4.63-12.47,2.46-1.1,5,.7,7.26,2.6A87.13,87.13,0,0,1,40.47,114.92Zm.87,49.63a25.05,25.05,0,0,1-4.15.15,23.61,23.61,0,0,1,7.5.77c2.47.76,4.77,2.33,5.56,4.41,2,5.15-6.06,6.66-10.22,6.82a24.42,24.42,0,0,1,6.47.34c1.66.38,4.64,1.58,5,3.11s-1.7,2.7-2.92,3.38a68.11,68.11,0,0,1-6.31,3,13.73,13.73,0,0,1,3.65.15A13,13,0,0,1,50.56,188a8.42,8.42,0,0,1,4.29,4.5,10.75,10.75,0,0,1,1.54-5.83,5.05,5.05,0,0,1,2.16-2.16c2.83-1.38,7.69.34,10.13,1.82,1.14.69,2.18,1.45,3.52,2.35-.24-.56-.4-.92-.56-1.27-1.2-2.62-2.58-5.3-1.7-8.16,1-3.22,4.27-4.58,9.19-3.23,4.17,1.15,8.24,2.62,12.2,3.89l-4.43-3c-6.88-4.65-20.77-14.81-6.76-22.62a92.23,92.23,0,0,1,28.49-9.83,92.82,92.82,0,0,1-23.46,2.64c-2.65-.06-5.41-.35-7-1.87-1.74-1.73-1.46-4.61-.75-7.28,2.46-9.3,9.47-19.76,20-28.79-9.2,9.87-20.08,16.5-30,18.94-9.17,2.26-18.07,1.08-24.9-3.09,3.11,1.65,6.26,3.39,8.61,6s3.75,6.14,3,9.62c-1.41,6.26-9.66,7.9-14.65,7.55a23.23,23.23,0,0,1,7.54,1.38c3.9,1.66,7,7.62,4.28,11A8.1,8.1,0,0,1,48,162.81,25.36,25.36,0,0,1,41.34,164.55Z"/></g></g></g></svg>