<svg xmlns="http://www.w3.org/2000/svg" viewBox="0 0 162.56 111.27"><defs><style>.cls-1{fill:#19191b;}</style></defs><g id="Layer_2" data-name="Layer 2"><g id="Layer_1-2" data-name="Layer 1"><path class="cls-1" d="M2.47,69.77l-.27-.41C-2.41,62,.37,51.77,9.13,47.55,15.28,44.59,23,44.8,30,45.73c2,.27,4.22.57,6-.25,2.76-1.25,3-4.56,1.54-6.84s-4-3.92-6.07-5.87a17.13,17.13,0,0,1-1.4-23.62c5.85-7,17.29-10.49,27.49-8.68S76.25,9.08,79.06,17.23C81.17,23.35,80.29,30,78,36c-1,2.58-2,5.8.42,7.63,1.63,1.23,4.27,1.18,6.26.37,9.5-3.83,15.58-14.73,28.6-10.4,7.16,2.38,9.68,8.05,9.4,14a29.7,29.7,0,0,1-2,8.92c-1,2.68-3.77,6-3.94,8.71-.39,6.18,18.25-.06,21.8-1.2a85.51,85.51,0,0,0,23.85-11.9c1.17,4.31-2.38,8.5-6.25,11.6-9.3,7.46-21.65,12.39-34.62,13.8,3.66,2.83,7.37,5.71,10,9.19s4.26,7.71,3.25,11.73-4.62,7.51-9,9.61A38.09,38.09,0,0,1,111,111.19a45.11,45.11,0,0,1-18.91-3c-5.78-2.4-10.61-6.52-12.51-11.55a6,6,0,0,0-1.55-2.76c-1.44-1.19-4-1-5.68-.09a13.89,13.89,0,0,0-4,3.77c-4.71,5.69-11.13,10.76-19.19,12.81-7.31,1.86-17.32.81-22.28-4.41-4.78-5-3.43-12.82,2.62-16.75A38.1,38.1,0,0,0,34,86.44c1.28-1.12,2.07-2.83,1.23-4.2-1.26-2-4.8-1.91-7.61-1.79C17.67,80.9,7.22,76.88,2.47,69.77Z"/></g></g></svg>