<svg xmlns="http://www.w3.org/2000/svg" viewBox="0 0 171.95 126.19"><defs><style>.cls-1{fill:#0f25ae;}</style></defs><g id="Layer_2" data-name="Layer 2"><g id="Layer_1-2" data-name="Layer 1"><g id="lEUQEL"><path class="cls-1" d="M159.74,70.38A41,41,0,0,1,150,65.82c-3.79-2.44-7.09-5.62-8.34-9.61-3-9.47,2.64-19,8.08-27.63A121.85,121.85,0,0,1,172,2.42c-4,3.6-8.86,6.53-12.86,10.1A57.25,57.25,0,0,1,145,21.72c-5.92,2.68-12.87,3.77-18.21,1.58a15,15,0,0,1-8.53-10C117,9.11,117.19,4.52,117.55,0c-1,7.45-2.17,15-5.36,22.28s-8.67,14.18-16.17,18a25.07,25.07,0,0,1-16.44,2c-4.22-.88-8-5-10.56-7.86A37.84,37.84,0,0,1,62,23a37.9,37.9,0,0,1-1.89-6.56c-.27-1.44-1.31-4.69-.65-6.19-2.19,5-4.76,10.34-9.64,13.13a14.52,14.52,0,0,1-14.36-.3c-4-2.32-6.63-6.05-9.2-9.66,1.34,3.56,2.7,7.19,3,11.17a17.18,17.18,0,0,1-3.46,11.92,19.26,19.26,0,0,1-8.18,5.63c-2.73,1-5.49,1.4-8.2,2.14,7.3.93,15.89-1.62,20.66,5.39a10,10,0,0,1,.59,10.15c-1.4,2.66-4,4.61-6.51,6.23A56.38,56.38,0,0,1,0,74.77l29.37-4.64c3.1,0,6.67.31,8.22,2.84s.36,5.77-1,8.56a65.54,65.54,0,0,1-10.92,16L42,86.19c4.54-3.18,10.26-5.58,15.2-2.34,5.71,3.74,4.46,12,4.4,18.2a167.14,167.14,0,0,1-2,24.14c3.23-9.24,6.89-19.68,13.15-27.61,4.72-6,11.87-10.82,19.67-11.22,7-.36,13.45,3,18,7.63a19.67,19.67,0,0,1,5.21,9.08l3.81,12.67c-.55-10,1.93-20.16,9.37-28,6.31-6.67,15.19-11.28,24.57-13.92,4.42-1.24,10.72-3,15.4-2.54A46.94,46.94,0,0,1,159.74,70.38Z"/></g></g></g></svg>