<svg xmlns="http://www.w3.org/2000/svg" viewBox="0 0 93.33 78.41">
  <g>
    <g>
      <path d="M41.43,21.86V20q0-6.6,0-13.2a2,2,0,0,0-1.13-2,1.93,1.93,0,0,0-2.29.4l-9.6,8.7q-6.29,5.69-12.55,11.39a4.63,4.63,0,0,1-3.35,1.29c-3.32,0-6.64,0-9.95,0A2,2,0,0,0,.4,28.75v21a2,2,0,0,0,2.17,2.14H12.81A4,4,0,0,1,15.64,53Q26.79,63,37.94,73.14a2,2,0,0,0,2.37.49,1.93,1.93,0,0,0,1.13-2c0-1.72,0-3.43,0-5.15V21.86Z" fill="none"/>
      <path d="M24.86,17.57,20,22l-2.53,2.31-1.29,1.16a5.42,5.42,0,0,1-1.53,1,5.17,5.17,0,0,1-1.82.4H2.51a2.6,2.6,0,0,0-.4,0,1.86,1.86,0,0,0-.71.28,1.52,1.52,0,0,0-.49.55,2.07,2.07,0,0,0-.19.75V49.72a2.43,2.43,0,0,0,.12.73,1.66,1.66,0,0,0,.36.6,1.51,1.51,0,0,0,.6.35,2.13,2.13,0,0,0,.72.12H5l7.93,0A4.27,4.27,0,0,1,15,52a4.56,4.56,0,0,1,.87.62l.75.68q1.5,1.33,3,2.7L31.68,67l6,5.48.38.34.09.09.09.07.18.14a1.83,1.83,0,0,0,.75.35,1.77,1.77,0,0,0,.4,0,2,2,0,0,0,.4-.11,1.91,1.91,0,0,0,.38-.18,1.28,1.28,0,0,0,.3-.26,1.43,1.43,0,0,0,.31-.73,2.15,2.15,0,0,0,0-.45V69.18c0-5.39,0-10.73,0-16,0,0,.08,1.75.1,0,0-3.48,0-5.23.08-6.1s.06-.87.09-.87v2.4c0,1.09,0,2,0,1.09,0,5.23,0,13.94,0,8.71,0-1.74,0-8.71,0-10.45s.09,1.74.14,0V41c0-1.74.09,1.75.09,0,0-5.22,0-12.2,0-19.16,0,0,0-.44,0-.44s0,0,0,.09a2.93,2.93,0,0,1,0,.34c0,.33,0,.88,0,1.75q0,22.88,0,46v2.18a3.24,3.24,0,0,1-.12.81,1.92,1.92,0,0,1-.41.77,2,2,0,0,1-.68.52,2.55,2.55,0,0,1-.79.27,2.08,2.08,0,0,1-.86,0,3.18,3.18,0,0,1-1.38-.83l-1.07-1-2.15-1.94-8.59-7.77-8.59-7.78-1.08-1-.54-.49a6.57,6.57,0,0,0-.52-.43,3.77,3.77,0,0,0-1.17-.58,4.64,4.64,0,0,0-.65-.11l-.33,0H2.34a3,3,0,0,1-.82-.17,2.12,2.12,0,0,1-.75-.44,2.29,2.29,0,0,1-.52-.71A2.64,2.64,0,0,1,0,50.1a2.88,2.88,0,0,1,0-.41v-21a1.48,1.48,0,0,0,0-.21l0-.2a2.62,2.62,0,0,1,.25-.81,2.18,2.18,0,0,1,.56-.69,2.34,2.34,0,0,1,.76-.41l.41-.1.41,0H12.57A4.41,4.41,0,0,0,13.88,26a4.32,4.32,0,0,0,1.18-.58,5.43,5.43,0,0,0,.53-.42l.53-.48L33.21,9.06q2.15-1.92,4.27-3.86L37.74,5l.15-.13.16-.12a2.87,2.87,0,0,1,.76-.39,2.31,2.31,0,0,1,.87-.08,2.73,2.73,0,0,1,.81.25,2.49,2.49,0,0,1,.69.49,2,2,0,0,1,.46.74,2.57,2.57,0,0,1,.18.81c0,.27,0,.5,0,.74,0,3.83,0,7.65,0,11.46,0,7-.08,1.74-.12-3.49,0,1.74,0,1.74,0,3.49,0,0,0-.06,0-.17s0-.27,0-.49c0-.43,0-1.09,0-2q0-2.61-.06-7.84V13.5c0,1.74,0,0-.08,0V10h-.06V13.5H41.3c0-1.74,0-3.92,0-6.1V7c0-.14,0-.27,0-.4a2,2,0,0,0-.16-.74,1.62,1.62,0,0,0-.43-.6,2.09,2.09,0,0,0-.63-.37,1.72,1.72,0,0,0-.7-.12,1.54,1.54,0,0,0-.66.17,2.53,2.53,0,0,0-.55.37l-.5.45,0,0,.5-.45A2.48,2.48,0,0,1,38.74,5a1.56,1.56,0,0,1,.63-.17,2,2,0,0,1,.68.12,1.74,1.74,0,0,1,1,.94,2.43,2.43,0,0,1,.16.73c0,.12,0,.25,0,.39V13.5c0-.87,0-1.31,0-1.53s0-.22,0-.22V6.85A2.54,2.54,0,0,0,41.06,6a1.57,1.57,0,0,0-.48-.68,2.18,2.18,0,0,0-.78-.38,1.46,1.46,0,0,0-.83,0,2.06,2.06,0,0,0-.75.45L36.77,6.71l-2.9,2.64,3.88-3.5C35.22,8.24,28.72,14,24.86,17.57Z" fill="#fff"/>
    </g>
    <g>
      <path d="M93,39c-.09-1.57-.13-3.41-.32-5.23A53.35,53.35,0,0,0,87,14.66,52.79,52.79,0,0,0,77.28,1.42a3.27,3.27,0,0,0-4.58-.17,3.32,3.32,0,0,0,0,4.8,57.57,57.57,0,0,1,4.17,4.8A46.5,46.5,0,0,1,85.62,47.6a45,45,0,0,1-8.37,19.49c-1.4,1.88-3,3.61-4.59,5.36a3.36,3.36,0,0,0-.58,3.94,3.27,3.27,0,0,0,5.31.55C87.62,66.46,92.69,53.85,93,39Z" fill="none"/>
      <path d="M81.05,6.06c-.63-.78-1.3-1.56-2-2.33l-.53-.58L78,2.59c-.18-.2-.36-.38-.55-.57s-.37-.39-.55-.54A3.09,3.09,0,0,0,75.61.81a3,3,0,0,0-1.45,0L74,.84l-.17.05c-.11.06-.23.1-.33.16a2.23,2.23,0,0,0-.57.44,3.5,3.5,0,0,0-.78,1.27,2.72,2.72,0,0,0-.07,1.47,3.44,3.44,0,0,0,.66,1.36c.09.09.16.19.26.29l.28.31.57.61L75,8.05c.75.84,1.48,1.71,2.16,2.63l1,1.39.49.7.46.72L80,14.93l.84,1.48.21.37.21.37.38.76.38.76c.13.26.27.51.37.77L83.05,21l.17.38c.06.13.1.27.16.4l.3.79.3.78c0,.13.1.26.14.4l.13.4.52,1.59.06.2.06.2.1.4.22.8.21.8c.07.27.12.54.18.81l.33,1.6.26,1.61.12.8.08.8.16,1.59.09,1.57,0,.78v.78a50.81,50.81,0,0,1-.47,7.47c-.09.63-.18,1.25-.28,1.88s-.22,1.25-.36,1.87-.28,1.24-.43,1.86c-.08.31-.17.61-.26.92l-.12.46-.15.46a43.43,43.43,0,0,1-2.86,7.14c-.58,1.15-1.22,2.28-1.89,3.38s-1.4,2.17-2.16,3.21-1.6,2-2.44,3c-.43.49-.86,1-1.29,1.44l-.64.71-.32.36-.15.17a1.09,1.09,0,0,0-.13.17,3.19,3.19,0,0,0-.64,1.57,2.66,2.66,0,0,0,.31,1.61,3,3,0,0,0,1.18,1.18,1.11,1.11,0,0,0,.19.09l.19.08.2.06.1,0h.1l.21,0h.21a2.88,2.88,0,0,0,.41,0A3.14,3.14,0,0,0,76.73,77l.09-.07.07-.07.16-.14.16-.17.16-.17.64-.69.65-.68.31-.35.31-.35,1.21-1.43c.21-.23.39-.48.58-.73l.57-.73.57-.74c.19-.24.36-.5.53-.75l1.06-1.51,1-1.56s-.8,1.42.08,0l.32-.5c.1-.16.19-.32.28-.48l.5-.87.44-.75c.14-.23.24-.46.35-.66.42-.82.71-1.36.9-1.72.36-.73.39-.72.42-.71s-2.19,4.4-1.4,3l-1,1.72-.26.45c-.08.15-.18.29-.27.44l-.55.88-.55.87c-.18.28-.37.54-.55.8l-1,1.43c-1.25,1.62-1.74,2.28-.22.34l.22-.28c.09-.11.17-.24.27-.38l.68-1,.39-.56.2-.29.2-.31.81-1.29c.13-.21.28-.43.41-.65l.36-.65.7-1.22.15-.28.14-.27.25-.49.38-.73c.78-1.45-.64,1.51.13.06.39-.72.86-1.86,1.36-3a3.83,3.83,0,0,0,.17-.43l.17-.43.31-.82.28-.75a2.79,2.79,0,0,0,.12-.34l.1-.31c.54-1.56-.41,1.59.09,0l.61-1.84c.19-.63.36-1.3.55-2l.14-.52c0-.17.08-.35.12-.53l.24-1.07.24-1.1.2-1.13A63.54,63.54,0,0,0,93.22,39s0-.41,0-.41,0,0,0,.09V39c0,.31,0,.83,0,1.65a60.05,60.05,0,0,1-1.39,10.74,53.75,53.75,0,0,1-3.45,10.3,52.72,52.72,0,0,1-5.53,9.39c-.56.72-1.11,1.45-1.68,2.16S80,74.61,79.41,75.3l-.94,1-.46.5-.24.25-.11.12a.86.86,0,0,1-.14.13,3.86,3.86,0,0,1-2.7,1.11,3.59,3.59,0,0,1-3.46-4.09,4,4,0,0,1,.5-1.4,5.16,5.16,0,0,1,.43-.61l.23-.26.23-.26c.61-.67,1.22-1.34,1.82-2s1.18-1.36,1.74-2.07c.28-.35.55-.71.81-1.07l.4-.55.39-.56a45.05,45.05,0,0,0,2.8-4.62,43.77,43.77,0,0,0,3.84-10.08l.16-.66.14-.66.14-.66.13-.67.12-.66.1-.67.19-1.34c.08-.45.11-.9.16-1.35l.13-1.35c0-.22,0-.45,0-.67l0-.68L86,40.1a46.15,46.15,0,0,0-1-10.75,44.14,44.14,0,0,0-3.52-10.2l-.61-1.21-.31-.6-.33-.59-.67-1.17-.17-.3c0-.1-.12-.19-.18-.29l-.36-.57-.73-1.14c0-.09-.12-.19-.18-.28l-.2-.27-.39-.56-.78-1.1c-.26-.36-.54-.71-.82-1.06-.57-.7-1.17-1.37-1.78-2L73,7l-.46-.5-.24-.26a2.26,2.26,0,0,1-.23-.29,4,4,0,0,1-.67-1.34,3.54,3.54,0,0,1-.09-1.52,3.7,3.7,0,0,1,.55-1.4,4.44,4.44,0,0,1,.46-.59A1.79,1.79,0,0,1,72.61.8l.07-.07.08-.06.16-.11A3.16,3.16,0,0,1,74.35,0,3.83,3.83,0,0,1,77.2.82a3.36,3.36,0,0,1,.29.24l.07.07.06.06.12.12.48.49a54.15,54.15,0,0,1,3.6,4.12A53.47,53.47,0,0,1,85,10.38a51.76,51.76,0,0,1,2.68,4.76,52.89,52.89,0,0,1,3.84,10.17,53.92,53.92,0,0,1,1.13,5.31c0,.23.07.45.1.67l.1.68c.06.44.11.89.16,1.34.11.9.17,1.81.22,2.71.08,1.64.11,2.56.13,2.94s0,.23,0-.28-.09-1.38-.16-2.43S93,34,92.79,32.74c0,.41.08.71.11,1s0,.46,0,.67L93.06,36s0-.05,0-.15,0-.25,0-.46c0-.41-.09-1-.2-1.84s-.23-1.84-.45-3.05-.48-2.63-.88-4.22q.58,2.39,1,4.83c.21,1.63,0,0-.08,0L92.14,30l-.2-1c0-.3-.11-.55-.15-.73l-.05-.2a.31.31,0,0,0,0-.07h-.06c.08.4.19.9.29,1.46s.2,1.16.3,1.76c.18,1.22.33,2.44.4,3.25,0-.4-.08-.81-.13-1.19s-.08-.74-.13-1l-.1-.74c0-.09,0-.16,0-.2a.42.42,0,0,1,0-.07h-.07A57,57,0,0,0,91,25.56a51,51,0,0,0-1.75-5.45l-.05,0A53.94,53.94,0,0,1,91,25.57a52.28,52.28,0,0,1,1.17,5.6c-.14-.8-.21-1.21-.26-1.41s-.06-.19-.08-.19a51.75,51.75,0,0,0-4.61-13.9c.72,1.47,1.38,3,2,4.49l-.55-1.33c-.11-.25-.22-.51-.35-.79l-.38-.85c-.55-1.18-1.2-2.51-1.94-3.85s-1.56-2.69-2.41-3.93S81.82,7,81.05,6.06Z" fill="#fff"/>
    </g>
    <g>
      <path d="M76.75,38.37c-.12-1.17-.26-3.33-.61-5.45a32.07,32.07,0,0,0-2.25-7.44,34.51,34.51,0,0,0-7.41-10.93,2.39,2.39,0,0,0-4.05,1.36,2.62,2.62,0,0,0,1,2.3,29.79,29.79,0,0,1,8.52,21.15,28.34,28.34,0,0,1-1.63,9.69,30,30,0,0,1-7.15,11.48,2.34,2.34,0,0,0,0,3.45,2.38,2.38,0,0,0,3.38-.13C73.2,57,76.52,48.85,76.75,38.37Z" fill="none"/>
      <path d="M68.34,17c-.21-.26-.43-.51-.66-.76s-.45-.49-.68-.74-.48-.49-.71-.73a2.4,2.4,0,0,0-.76-.52,1.88,1.88,0,0,0-.88-.11,1.79,1.79,0,0,0-.46.09,3.38,3.38,0,0,0-.44.18,1.79,1.79,0,0,0-.67.61,2.18,2.18,0,0,0-.33.88,1.9,1.9,0,0,0,.07.92,2.67,2.67,0,0,0,.5.83,4.38,4.38,0,0,0,.36.39l.37.41.38.41a3.7,3.7,0,0,1,.37.42l.72.85c.12.14.23.29.35.44l.34.45.34.44.32.47.31.46c.11.16.22.31.31.47A29.28,29.28,0,0,1,71.1,31a34.07,34.07,0,0,1,1.14,8.41,27.39,27.39,0,0,1-.39,4.93,29.61,29.61,0,0,1-1.24,4.86,30.31,30.31,0,0,1-4.85,8.91c-.53.67-1.08,1.32-1.66,1.94-.14.16-.29.31-.44.46l-.22.23-.1.11-.09.1a2.19,2.19,0,0,0-.45,1,2,2,0,0,0,.74,1.87l.1.08.11.07a2.53,2.53,0,0,0,.23.12,1.8,1.8,0,0,0,.5.15,2.26,2.26,0,0,0,.52,0,2.39,2.39,0,0,0,.51-.13,2.53,2.53,0,0,0,.23-.12l.23-.14a1.06,1.06,0,0,0,.2-.17l.1-.09.11-.11.84-.9.21-.23c.07-.07.13-.15.2-.23l.4-.47c.26-.31.53-.61.78-.94l.74-1c.24-.32.47-.66.7-1l.35-.5.32-.51.32-.51L71.4,57l.15-.26a1.15,1.15,0,0,1,0,.15l-.11.22c0,.06,0,.1,0,.06l.09-.12.16-.26.7-1.22c.2-.36.35-.67.5-.94l.35-.67.22-.46c.24-.48.27-.47.3-.46a.44.44,0,0,1,0,.13l-.13.33-.19.43c-.06.16-.15.32-.22.47-.3.6-.53,1.08-.28.61a34.1,34.1,0,0,1-2.62,4.37c-.38.56-.68.92-.73,1l.1-.11.2-.25.14-.19.16-.22.76-1.07.5-.77.26-.42c.09-.14.18-.28.26-.43l.49-.87.23-.41c.08-.14.14-.27.21-.4.25-.51.47-.93.6-1.17.23-.48.15-.23.06,0s-.19.51.07,0l.39-.9.23-.53,0-.14.06-.14.1-.28L74.77,51c.12-.35.21-.68.3-.93.35-1-.24,1.06.09,0,.27-.76.48-1.62.72-2.52l.31-1.4c0-.12,0-.24.07-.36l.06-.37.13-.74A47.75,47.75,0,0,0,77,38.38a2.56,2.56,0,0,0,0-.27s0,.06,0,.26,0,.55,0,1.09a43.19,43.19,0,0,1-.85,7.07,35.19,35.19,0,0,1-2.13,6.84,33.82,33.82,0,0,1-3.52,6.26c-.33.5-.71,1-1.08,1.44l-.27.35c-.1.12-.2.23-.29.35l-.59.68L68,62.8l-.31.32-.61.66-.31.33-.18.18-.2.15a2.89,2.89,0,0,1-.92.44,2.68,2.68,0,0,1-2-.22,2.95,2.95,0,0,1-1.31-1.53,2.51,2.51,0,0,1-.15-1,2.54,2.54,0,0,1,.25-1,2.82,2.82,0,0,1,.58-.83l.61-.64A29.81,29.81,0,0,0,67.65,54a30.18,30.18,0,0,0,2.74-6.5,28,28,0,0,0,1.12-7,34.61,34.61,0,0,0-.57-7,29.73,29.73,0,0,0-2.14-6.72,30.83,30.83,0,0,0-3.71-6l-.57-.67c-.19-.23-.38-.46-.58-.67l-.6-.65-.3-.33c-.11-.11-.22-.23-.32-.35a4.27,4.27,0,0,1-.29-.41,2.38,2.38,0,0,1-.23-.45,2.34,2.34,0,0,1-.19-1,2.74,2.74,0,0,1,.06-.51,3.94,3.94,0,0,1,.14-.49,2.79,2.79,0,0,1,.56-.89,3.21,3.21,0,0,1,.41-.34,2.88,2.88,0,0,1,.46-.24,3.3,3.3,0,0,1,1-.26,2.45,2.45,0,0,1,1,.13,2.58,2.58,0,0,1,.48.21,2.64,2.64,0,0,1,.42.3l.19.17.16.17.32.32c.21.21.41.44.61.65l.6.68.59.68a35.18,35.18,0,0,1,4,6A35.63,35.63,0,0,1,74.53,26c.45,1.11.85,2.24,1.19,3.38a28.13,28.13,0,0,1,.8,3.5c.2,1.18.32,2.36.43,3.54s.14,1.67.16,1.92,0,.15,0-.18c-.09-.66-.24-2.27-.47-3.88.15,1.07.1,1.08.22,2.15a1.78,1.78,0,0,1-.08-.4l-.17-1.2a36.08,36.08,0,0,0-1-4.77,28.37,28.37,0,0,1,.68,3.17c.14,1.07-.05,0-.08,0-.08-.53-.18-1.06-.27-1.46,0-.19-.08-.36-.1-.47s0-.18-.06-.18h-.06c.13.53.29,1.32.41,2.11s.22,1.6.28,2.14c-.06-.54-.13-1.07-.18-1.47,0-.2-.06-.37-.08-.48l0-.18h-.07a30.09,30.09,0,0,0-.81-3.66A31.8,31.8,0,0,0,74,26.06l0,0c.4,1,.87,2.25,1.25,3.53A28.73,28.73,0,0,1,76,33.26c-.19-1-.22-1-.25-1a32.32,32.32,0,0,0-1.29-4.62,33.25,33.25,0,0,0-2-4.4q.74,1.43,1.35,2.91l-.39-.86c-.15-.32-.32-.68-.51-1.06-.37-.77-.82-1.63-1.33-2.49S70.58,20,70,19.16,68.86,17.63,68.34,17Z" fill="#fff"/>
    </g>
    <g>
      <path d="M61.53,39.58A16.63,16.63,0,0,0,59.82,32a15.47,15.47,0,0,0-3-4.19,1.51,1.51,0,1,0-2.17,2.1c.18.2.38.39.56.6a13.29,13.29,0,0,1-.44,18,1.62,1.62,0,0,0-.55,1.33,1.42,1.42,0,0,0,1,1.29,1.62,1.62,0,0,0,1.8-.58A16.11,16.11,0,0,0,61.53,39.58Z" fill="none"/>
      <path d="M57.82,29.35c-.19-.25-.4-.48-.62-.72a3.61,3.61,0,0,0-.33-.35,1.37,1.37,0,0,0-.17-.17L56.61,28l0,0,0,0a1.34,1.34,0,0,0-.72-.34,1.17,1.17,0,0,0-.77.18,1.22,1.22,0,0,0-.49.65,1.11,1.11,0,0,0,0,.8,1.2,1.2,0,0,0,.23.37,1.29,1.29,0,0,0,.16.18l.18.2a3.52,3.52,0,0,1,.36.41l.34.42A13.88,13.88,0,0,1,58,34.55l.1.24.08.26c.05.16.11.33.15.5.09.34.18.67.24,1s.12.68.17,1c0,.17,0,.33.05.5s0,.33,0,.5A13.61,13.61,0,0,1,58.71,41a13,13,0,0,1-.48,2.38,12.45,12.45,0,0,1-.93,2.27,13,13,0,0,1-1.36,2.07c-.13.16-.25.32-.39.48s-.27.31-.41.46l-.2.21a1.56,1.56,0,0,0-.16.2,1.17,1.17,0,0,0-.19.41,1.24,1.24,0,0,0,.15.86,1.07,1.07,0,0,0,.3.3,1.2,1.2,0,0,0,.42.17.9.9,0,0,0,.43,0,1.32,1.32,0,0,0,.41-.17,2.88,2.88,0,0,0,.39-.32l.38-.43a18.49,18.49,0,0,0,1.4-1.8s-.22.46.07.05c.15-.2.27-.39.38-.55l.28-.42c.15-.24.25-.4.33-.5s.16-.2.19-.19-.74,1.34-.46.91l-.32.53c-.11.18-.24.36-.36.54s-.24.34-.36.5l-.33.44c-.4.5-.55.7,0,.12l.17-.2c.07-.08.14-.18.22-.29l.27-.35.27-.39c.36-.53.68-1.08.82-1.3.3-.42-.16.5.13.07.13-.22.3-.57.47-.92s.32-.71.41-1c.21-.47-.1.52.08,0a13.62,13.62,0,0,0,.78-2.56,15.81,15.81,0,0,0,.33-3s0-.13.05-.13,0,0,0,.13,0,.26,0,.52a16,16,0,0,1-1.75,6.63,16.82,16.82,0,0,1-1.88,2.91L58,50l-.14.17-.14.16-.29.33c-.09.1-.2.22-.32.33a2.31,2.31,0,0,1-.86.51,1.87,1.87,0,0,1-1.05,0,1.91,1.91,0,0,1-.88-.55,1.82,1.82,0,0,1-.43-1,1.51,1.51,0,0,1,0-.52,1.56,1.56,0,0,1,.15-.52,2.05,2.05,0,0,1,.26-.43c0-.07.11-.13.16-.19l.15-.16a13.78,13.78,0,0,0,2-2.66,12.71,12.71,0,0,0,1.2-3.08A13.07,13.07,0,0,0,58,40.75c0-.14,0-.27,0-.41l0-.42c0-.27,0-.55,0-.83a12.82,12.82,0,0,0-.44-3.27l-.12-.4L57.41,35l-.15-.39c0-.13-.09-.26-.15-.38s-.22-.51-.36-.75l-.19-.37c-.06-.12-.14-.24-.21-.36a4.05,4.05,0,0,0-.21-.35l-.23-.35-.11-.17-.13-.17-.24-.33c-.17-.23-.35-.44-.52-.65s-.37-.39-.57-.62a2,2,0,0,1-.5-.91,1.57,1.57,0,0,1-.06-.53,1.62,1.62,0,0,1,.1-.54,1.92,1.92,0,0,1,.25-.47,1.67,1.67,0,0,1,.36-.39A1.83,1.83,0,0,1,55,27,2,2,0,0,1,56,26.91a2.11,2.11,0,0,1,.5.17,2.36,2.36,0,0,1,.23.13c.07.06.15.1.21.16l.09.09.08.08.16.15A16,16,0,0,1,58.44,29,15.72,15.72,0,0,1,60.26,32a16.55,16.55,0,0,1,1.63,6.68c0,.52,0,.81,0,.94s0,.07,0-.09c0-.33-.07-1.11-.18-1.89.07.52,0,.52.06,1a4.1,4.1,0,0,1-.13-.77c-.07-.51-.18-1.28-.41-2.29a15.27,15.27,0,0,1,.27,1.53c0,.51,0,0-.08,0,0-.26-.07-.51-.11-.7a1.38,1.38,0,0,0-.07-.32l-.06,0c.05.25.11.63.16,1s.09.76.1,1c0-.26,0-.51-.06-.71l0-.31h-.07c-.07-.51-.17-1.14-.32-1.76a12.87,12.87,0,0,0-.51-1.7h0c.16.48.35,1.09.5,1.71s.26,1.24.33,1.74c-.09-.5-.11-.5-.14-.49a17,17,0,0,0-.51-2.22,12.71,12.71,0,0,0-.84-2.11c.21.46.41.93.58,1.4-.2-.46-.54-1.28-1-2.11A13.82,13.82,0,0,0,57.82,29.35Z" fill="#fff"/>
    </g>
  </g>
</svg>
