<svg xmlns="http://www.w3.org/2000/svg" viewBox="0 0 70.66 1106.41">
  <defs>
    <style>
      .cls-1 {
        fill: gray;
      }
    </style>
  </defs>
  <g id="Layer_2" data-name="Layer 2">
    <g id="Layer_1-2" data-name="Layer 1">
      <g>
        <path class="cls-1" d="M18.2,8.25V4.7L15.4,0h.66l2.41,4.1L20.88,0h.66l-2.8,4.7V8.25Z"/>
        <path class="cls-1" d="M24.76,8.41a3,3,0,0,1-1.42-.34,2.71,2.71,0,0,1-1-1A2.76,2.76,0,0,1,22,5.69a2.76,2.76,0,0,1,.37-1.42,2.54,2.54,0,0,1,1-.95,3.08,3.08,0,0,1,2.85,0,2.54,2.54,0,0,1,1,.95,2.66,2.66,0,0,1,.37,1.42,2.66,2.66,0,0,1-.37,1.42,2.71,2.71,0,0,1-1,1A3,3,0,0,1,24.76,8.41Zm0-.49a2.32,2.32,0,0,0,1.16-.28,2.05,2.05,0,0,0,.8-.8A2.19,2.19,0,0,0,27,5.69a2.19,2.19,0,0,0-.29-1.15,2.05,2.05,0,0,0-.8-.8,2.52,2.52,0,0,0-2.31,0,2.05,2.05,0,0,0-.8.8,2.19,2.19,0,0,0-.3,1.15,2.19,2.19,0,0,0,.3,1.15,2.05,2.05,0,0,0,.8.8A2.3,2.3,0,0,0,24.76,7.92Z"/>
        <path class="cls-1" d="M31.38,8.41a2,2,0,0,1-1.58-.52,2.56,2.56,0,0,1-.47-1.73v-3h.53v3a2.34,2.34,0,0,0,.35,1.44,1.78,1.78,0,0,0,2.34,0,2.35,2.35,0,0,0,.34-1.44V3.13h.53v3A2.56,2.56,0,0,1,33,7.89,2,2,0,0,1,31.38,8.41Z"/>
        <path class="cls-1" d="M40.49,8.41a2.91,2.91,0,0,1-1.07-.2,2.78,2.78,0,0,1-.88-.57A2.59,2.59,0,0,1,38,6.78,2.93,2.93,0,0,1,38,4.6a2.69,2.69,0,0,1,.59-.86,2.85,2.85,0,0,1,.87-.57A3,3,0,0,1,40.49,3a3.12,3.12,0,0,1,1,.15,2.86,2.86,0,0,1,.79.43L42,3.91a2.48,2.48,0,0,0-2.65-.18,2.05,2.05,0,0,0-.8.8,2.35,2.35,0,0,0-.29,1.16,2.35,2.35,0,0,0,.29,1.16,2.1,2.1,0,0,0,.81.81A2.37,2.37,0,0,0,40.55,8a2.56,2.56,0,0,0,.79-.12A1.92,1.92,0,0,0,42,7.47l.25.36a2.72,2.72,0,0,1-.79.42A2.86,2.86,0,0,1,40.49,8.41Z"/>
        <path class="cls-1" d="M46.07,8.41a2.51,2.51,0,0,1-1.3-.35,2.57,2.57,0,0,1-.91-1,2.82,2.82,0,0,1-.34-1.4,2.9,2.9,0,0,1,.33-1.4,2.6,2.6,0,0,1,.92-1,2.59,2.59,0,0,1,2.62,0,2.1,2.1,0,0,1,.88,1V3.13h.53V8.25h-.53V7.07a2.37,2.37,0,0,1-.9,1A2.4,2.4,0,0,1,46.07,8.41Zm.11-.47a2.1,2.1,0,0,0,1.1-.29,2,2,0,0,0,.75-.8,2.42,2.42,0,0,0,.27-1.16A2.46,2.46,0,0,0,48,4.52a2,2,0,0,0-.75-.79,2.1,2.1,0,0,0-1.1-.29,2.07,2.07,0,0,0-1.85,1.08,2.46,2.46,0,0,0-.27,1.17,2.42,2.42,0,0,0,.27,1.16,2.09,2.09,0,0,0,.76.8A2.06,2.06,0,0,0,46.18,7.94Z"/>
        <path class="cls-1" d="M51,8.25V3.13h.53v.73a1.72,1.72,0,0,1,.63-.63A2.16,2.16,0,0,1,53.3,3a2,2,0,0,1,1,.24,1.6,1.6,0,0,1,.65.71,2.65,2.65,0,0,1,.22,1.15V8.25h-.53V5.16a1.92,1.92,0,0,0-.39-1.3,1.38,1.38,0,0,0-1.11-.44,1.65,1.65,0,0,0-.85.2,1.38,1.38,0,0,0-.55.52,1.43,1.43,0,0,0-.19.69V8.25Z"/>
        <path class="cls-1" d="M14.13,130.41a1.88,1.88,0,0,1-1.1-.33,2.08,2.08,0,0,1-.73-1l.32-.26a1.92,1.92,0,0,0,.62.82,1.43,1.43,0,0,0,.89.3,1.4,1.4,0,0,0,.64-.15,1.19,1.19,0,0,0,.47-.42,1.15,1.15,0,0,0,.17-.65.82.82,0,0,0-.15-.52,1.29,1.29,0,0,0-.46-.32l-.72-.3a6.22,6.22,0,0,1-.64-.29,1.66,1.66,0,0,1-.52-.42,1,1,0,0,1-.2-.64,1.2,1.2,0,0,1,.2-.67,1.38,1.38,0,0,1,.54-.47,1.82,1.82,0,0,1,.78-.17,1.68,1.68,0,0,1,.81.2,1.83,1.83,0,0,1,.63.58l-.29.28a1.3,1.3,0,0,0-1.15-.65,1.12,1.12,0,0,0-.74.24.81.81,0,0,0-.28.64.65.65,0,0,0,.16.46,1.27,1.27,0,0,0,.43.3c.18.08.38.17.6.25a8.15,8.15,0,0,1,.81.35,1.34,1.34,0,0,1,.53.43,1.22,1.22,0,0,1,.18.71,1.55,1.55,0,0,1-.87,1.45A2.12,2.12,0,0,1,14.13,130.41Z"/>
        <path class="cls-1" d="M20.14,130.41a2.79,2.79,0,0,1-1.43-.36,2.59,2.59,0,0,1-1.33-2.33,2.71,2.71,0,0,1,.78-2,2.62,2.62,0,0,1,.85-.58,2.53,2.53,0,0,1,1-.21,2.63,2.63,0,0,1,1.31.33,2.59,2.59,0,0,1,.94.92,2.73,2.73,0,0,1,.39,1.34v.17H17.89a2.31,2.31,0,0,0,.29,1.15,2.05,2.05,0,0,0,.81.79,2.48,2.48,0,0,0,2.29,0,2,2,0,0,0,.81-.75l.4.23a2.45,2.45,0,0,1-1,.91A2.86,2.86,0,0,1,20.14,130.41Zm-2.22-3.1h4.23A2.12,2.12,0,0,0,21,125.67a2,2,0,0,0-1-.25,2,2,0,0,0-1,.25,2.09,2.09,0,0,0-.75.67A2,2,0,0,0,17.92,127.31Z"/>
        <path class="cls-1" d="M26.86,130.41a2.84,2.84,0,0,1-1.43-.36,2.75,2.75,0,0,1-1.12-3.41,2.9,2.9,0,0,1,.57-.88,2.73,2.73,0,0,1,.85-.58,2.56,2.56,0,0,1,1-.21A2.59,2.59,0,0,1,29,126.22a3,3,0,0,1,.39,1.34v.08a.28.28,0,0,1,0,.09H24.62a2.21,2.21,0,0,0,.29,1.15,2,2,0,0,0,.8.79,2.36,2.36,0,0,0,1.17.29,2.39,2.39,0,0,0,1.13-.27,2.08,2.08,0,0,0,.81-.75l.4.23a2.52,2.52,0,0,1-1,.91A2.9,2.9,0,0,1,26.86,130.41Zm-2.22-3.1h4.24a2.15,2.15,0,0,0-.36-1,2.19,2.19,0,0,0-.75-.67,2.15,2.15,0,0,0-2.77.67A2.27,2.27,0,0,0,24.64,127.31Z"/>
        <path class="cls-1" d="M35.41,130.25,33,125.13h.6l2,4.32,1.69-4.32h.35l1.68,4.32,2-4.32h.6l-2.43,5.12h-.35L37.44,126l-1.68,4.24Z"/>
        <path class="cls-1" d="M43.44,130.25v-8.61H44v4.22a1.65,1.65,0,0,1,.63-.63,2.12,2.12,0,0,1,1.09-.26,2,2,0,0,1,1,.24,1.55,1.55,0,0,1,.65.71,2.65,2.65,0,0,1,.23,1.15v3.18h-.53v-3.09a1.92,1.92,0,0,0-.39-1.3,1.4,1.4,0,0,0-1.11-.45,1.76,1.76,0,0,0-.86.2,1.52,1.52,0,0,0-.54.53,1.33,1.33,0,0,0-.19.69v3.42Z"/>
        <path class="cls-1" d="M51.93,130.41a2.51,2.51,0,0,1-1.3-.35,2.57,2.57,0,0,1-.91-1,2.82,2.82,0,0,1-.34-1.4,2.9,2.9,0,0,1,.33-1.4,2.6,2.6,0,0,1,.92-1,2.59,2.59,0,0,1,2.62,0,2.1,2.1,0,0,1,.88,1v-1.18h.53v5.12h-.53v-1.18a2.37,2.37,0,0,1-.9,1A2.4,2.4,0,0,1,51.93,130.41Zm.11-.47a2.1,2.1,0,0,0,1.1-.29,2,2,0,0,0,.75-.8,2.42,2.42,0,0,0,.27-1.16,2.46,2.46,0,0,0-.27-1.17,2,2,0,0,0-.75-.79,2.1,2.1,0,0,0-1.1-.29,2.07,2.07,0,0,0-1.85,1.08,2.46,2.46,0,0,0-.27,1.17,2.42,2.42,0,0,0,.27,1.16,2.09,2.09,0,0,0,.76.8A2.06,2.06,0,0,0,52,129.94Z"/>
        <path class="cls-1" d="M58,130.41a1,1,0,0,1-.81-.36,1.58,1.58,0,0,1-.29-1v-3.49h-.49v-.4h.49v-1.91h.53v1.91h1.31v.4H57.41V129a1.22,1.22,0,0,0,.17.7.59.59,0,0,0,.5.24.83.83,0,0,0,.54-.17l.13.43a1.27,1.27,0,0,1-.35.15A1.42,1.42,0,0,1,58,130.41Z"/>
        <path class="cls-1" d="M11.27,252.41a2.52,2.52,0,0,1-1.31-.35,2.57,2.57,0,0,1-.91-1,3.05,3.05,0,0,1,0-2.8,2.55,2.55,0,0,1,3.54-1,2.21,2.21,0,0,1,.88,1v-1.18H14v5.12h-.53v-1.18a2.46,2.46,0,0,1-.91,1A2.36,2.36,0,0,1,11.27,252.41Zm.11-.47a2.06,2.06,0,0,0,1.09-.29,2,2,0,0,0,.75-.8,2.32,2.32,0,0,0,.28-1.16,2.36,2.36,0,0,0-.28-1.17,2,2,0,0,0-.75-.79,2.06,2.06,0,0,0-1.09-.29,2.1,2.1,0,0,0-1.1.29,2,2,0,0,0-.75.79,2.36,2.36,0,0,0-.28,1.17,2.32,2.32,0,0,0,.28,1.16,2,2,0,0,0,.75.8A2.1,2.1,0,0,0,11.38,251.94Z"/>
        <path class="cls-1" d="M16.24,252.25v-5.12h.53v.73a1.62,1.62,0,0,1,.62-.63,2.18,2.18,0,0,1,1.1-.26,2,2,0,0,1,1,.24,1.6,1.6,0,0,1,.65.71,2.65,2.65,0,0,1,.23,1.15v3.18h-.53v-3.09a1.87,1.87,0,0,0-.4-1.3,1.38,1.38,0,0,0-1.1-.44,1.66,1.66,0,0,0-.86.2,1.35,1.35,0,0,0-.54.52,1.33,1.33,0,0,0-.19.69v3.42Z"/>
        <path class="cls-1" d="M27.46,252.41a2.84,2.84,0,0,1-1.43-.36,2.73,2.73,0,0,1-1-1,2.64,2.64,0,0,1-.35-1.37,2.92,2.92,0,0,1,.2-1.08,2.75,2.75,0,0,1,.58-.88,2.62,2.62,0,0,1,.85-.58,2.53,2.53,0,0,1,1-.21,2.63,2.63,0,0,1,1.31.33,2.51,2.51,0,0,1,.94.92,2.84,2.84,0,0,1,.4,1.34v.08s0,.06,0,.09H25.22a2.21,2.21,0,0,0,.29,1.15,2,2,0,0,0,.8.79,2.36,2.36,0,0,0,1.17.29,2.32,2.32,0,0,0,1.12-.27,2,2,0,0,0,.82-.75l.4.23a2.48,2.48,0,0,1-1,.91A2.86,2.86,0,0,1,27.46,252.41Zm-2.22-3.1h4.24a2.27,2.27,0,0,0-.36-1,2.19,2.19,0,0,0-.75-.67,2,2,0,0,0-1-.25,2.12,2.12,0,0,0-1.77.92A2.15,2.15,0,0,0,25.24,249.31Z"/>
        <path class="cls-1" d="M31.78,252.25v-5.12h.53v.73a1.72,1.72,0,0,1,.63-.63A2.16,2.16,0,0,1,34,247a2.08,2.08,0,0,1,1,.24,1.6,1.6,0,0,1,.65.71,2.65,2.65,0,0,1,.22,1.15v3.18H35.4v-3.09a1.92,1.92,0,0,0-.39-1.3,1.38,1.38,0,0,0-1.11-.44,1.62,1.62,0,0,0-.85.2,1.38,1.38,0,0,0-.55.52,1.43,1.43,0,0,0-.19.69v3.42Z"/>
        <path class="cls-1" d="M39.17,252.41a1,1,0,0,1-.82-.36,1.64,1.64,0,0,1-.28-1v-3.49h-.49v-.4h.49v-1.91h.53v1.91h1.31v.4H38.6V251a1.15,1.15,0,0,0,.17.7.58.58,0,0,0,.5.24.83.83,0,0,0,.54-.17l.13.43a1.42,1.42,0,0,1-.35.15A1.47,1.47,0,0,1,39.17,252.41Z"/>
        <path class="cls-1" d="M41.87,246.12a.41.41,0,0,1-.19-.05.47.47,0,0,1-.14-.14.39.39,0,0,1,0-.18.36.36,0,0,1,0-.19.47.47,0,0,1,.14-.14.41.41,0,0,1,.19,0,.34.34,0,0,1,.18,0,.47.47,0,0,1,.14.14.35.35,0,0,1,.05.18.41.41,0,0,1-.05.19.47.47,0,0,1-.14.14A.35.35,0,0,1,41.87,246.12Zm-.27,6.13v-5.12h.53v5.12Z"/>
        <path class="cls-1" d="M44.38,252.25v-5.12h.53v.77a1.62,1.62,0,0,1,.61-.7,1.72,1.72,0,0,1,.9-.23,2.09,2.09,0,0,1,.43,0,2.51,2.51,0,0,1,.38.11l-.21.46a1.17,1.17,0,0,0-.33-.11,2.2,2.2,0,0,0-.36,0,1.43,1.43,0,0,0-.69.19,1.66,1.66,0,0,0-.53.49,1.07,1.07,0,0,0-.2.63v3.51Z"/>
        <path class="cls-1" d="M51,252.41a2.81,2.81,0,0,1-1.43-.36,2.59,2.59,0,0,1-1.33-2.33,2.92,2.92,0,0,1,.2-1.08,2.75,2.75,0,0,1,.58-.88,2.62,2.62,0,0,1,.85-.58,2.53,2.53,0,0,1,1-.21,2.63,2.63,0,0,1,1.31.33,2.51,2.51,0,0,1,.94.92,2.84,2.84,0,0,1,.4,1.34v.08s0,.06,0,.09H48.79a2.21,2.21,0,0,0,.29,1.15,2,2,0,0,0,.8.79,2.48,2.48,0,0,0,2.29,0,2,2,0,0,0,.82-.75l.4.23a2.55,2.55,0,0,1-1,.91A2.86,2.86,0,0,1,51,252.41Zm-2.22-3.1H53a2.14,2.14,0,0,0-.35-1,2.19,2.19,0,0,0-.75-.67,2,2,0,0,0-1-.25,2.12,2.12,0,0,0-1.77.92A2,2,0,0,0,48.81,249.31Z"/>
        <path class="cls-1" d="M55.35,252.25v-8.6h.53v8.6Z"/>
        <path class="cls-1" d="M58.63,254.85l1.16-2.6-2.44-5.12H58l2.14,4.55L62,247.13h.6l-3.42,7.72Z"/>
        <path class="cls-1" d="M2.55,374.41a2.51,2.51,0,0,1-1.3-.35,2.57,2.57,0,0,1-.91-1,2.82,2.82,0,0,1-.34-1.4,2.9,2.9,0,0,1,.33-1.4,2.6,2.6,0,0,1,.92-1A2.52,2.52,0,0,1,2.56,369a2.42,2.42,0,0,1,1.3.36,2.29,2.29,0,0,1,.89,1v-4.67h.54v8.61H4.75v-1.18a2.37,2.37,0,0,1-.9,1A2.42,2.42,0,0,1,2.55,374.41Zm.11-.47a2.12,2.12,0,0,0,1.1-.29,2,2,0,0,0,.75-.8,2.43,2.43,0,0,0,.28-1.16,2.5,2.5,0,0,0-.28-1.17,2,2,0,0,0-.75-.79,2.12,2.12,0,0,0-1.1-.29,2.07,2.07,0,0,0-1.85,1.08,2.49,2.49,0,0,0-.27,1.17,2.42,2.42,0,0,0,.27,1.16,2,2,0,0,0,.75.8A2.12,2.12,0,0,0,2.66,373.94Z"/>
        <path class="cls-1" d="M7.79,368.12a.41.41,0,0,1-.19-.05.47.47,0,0,1-.14-.14.41.41,0,0,1,0-.18.36.36,0,0,1,0-.19.47.47,0,0,1,.14-.14.41.41,0,0,1,.19,0,.34.34,0,0,1,.18,0,.47.47,0,0,1,.14.14.34.34,0,0,1,0,.18.41.41,0,0,1,0,.19.47.47,0,0,1-.14.14A.35.35,0,0,1,7.79,368.12Zm-.27,6.13v-5.12h.53v5.12Z"/>
        <path class="cls-1" d="M10.56,374.25v-4.72h-.47v-.4h.47v-2a2.28,2.28,0,0,1,.17-1,1.11,1.11,0,0,1,.45-.54,1.41,1.41,0,0,1,.69-.17,1.44,1.44,0,0,1,.45.06,1.29,1.29,0,0,1,.31.14l-.2.38a.48.48,0,0,0-.22-.08,1.11,1.11,0,0,0-.28,0,.74.74,0,0,0-.62.27,1.45,1.45,0,0,0-.22.89v2h1.68v-2a2.28,2.28,0,0,1,.17-1,1.06,1.06,0,0,1,.45-.54,1.37,1.37,0,0,1,.68-.17,1.73,1.73,0,0,1,.55.08,1.17,1.17,0,0,1,.32.19l-.19.38a.73.73,0,0,0-.25-.13.93.93,0,0,0-.36-.06.74.74,0,0,0-.62.27,1.45,1.45,0,0,0-.22.89v2h1.33v.4H13.3v4.72h-.53v-4.72H11.09v4.72Z"/>
        <path class="cls-1" d="M19.11,374.41a2.84,2.84,0,0,1-1.43-.36,2.75,2.75,0,0,1-1.12-3.41,2.9,2.9,0,0,1,.57-.88,2.73,2.73,0,0,1,.85-.58,2.56,2.56,0,0,1,1-.21,2.59,2.59,0,0,1,2.26,1.25,3,3,0,0,1,.39,1.34v.08a.28.28,0,0,1,0,.09H16.87a2.21,2.21,0,0,0,.29,1.15,2,2,0,0,0,.8.79,2.36,2.36,0,0,0,1.17.29,2.39,2.39,0,0,0,1.13-.27,2.08,2.08,0,0,0,.81-.75l.4.23a2.52,2.52,0,0,1-1,.91A2.9,2.9,0,0,1,19.11,374.41Zm-2.22-3.1h4.24a2.15,2.15,0,0,0-.36-1,2.19,2.19,0,0,0-.75-.67,2.15,2.15,0,0,0-2.77.67A2.27,2.27,0,0,0,16.89,371.31Z"/>
        <path class="cls-1" d="M23.43,374.25v-5.12H24v.77a1.56,1.56,0,0,1,1.51-.93,2.12,2.12,0,0,1,.44,0,2.51,2.51,0,0,1,.38.11l-.22.46a1,1,0,0,0-.32-.11,2.33,2.33,0,0,0-.36,0,1.43,1.43,0,0,0-.69.19,1.56,1.56,0,0,0-.53.49,1.08,1.08,0,0,0-.21.63v3.51Z"/>
        <path class="cls-1" d="M30.09,374.41a2.79,2.79,0,0,1-1.43-.36,2.62,2.62,0,0,1-1.34-2.33,2.77,2.77,0,0,1,.79-2A2.63,2.63,0,0,1,30,369a2.67,2.67,0,0,1,1.32.33,2.59,2.59,0,0,1,.94.92,2.73,2.73,0,0,1,.39,1.34v.17H27.84a2.31,2.31,0,0,0,.29,1.15,2.05,2.05,0,0,0,.81.79,2.48,2.48,0,0,0,2.29,0,2,2,0,0,0,.81-.75l.4.23a2.45,2.45,0,0,1-1,.91A2.86,2.86,0,0,1,30.09,374.41Zm-2.22-3.1H32.1A2.12,2.12,0,0,0,31,369.67a2,2,0,0,0-1-.25,2,2,0,0,0-1,.25,2.09,2.09,0,0,0-.75.67A2,2,0,0,0,27.87,371.31Z"/>
        <path class="cls-1" d="M34.41,374.25v-5.12h.53v.73a1.58,1.58,0,0,1,.63-.63,2.12,2.12,0,0,1,1.09-.26,2,2,0,0,1,1,.24,1.55,1.55,0,0,1,.65.71,2.65,2.65,0,0,1,.23,1.15v3.18H38v-3.09a1.92,1.92,0,0,0-.39-1.3,1.38,1.38,0,0,0-1.11-.44,1.68,1.68,0,0,0-.86.2,1.42,1.42,0,0,0-.54.52,1.33,1.33,0,0,0-.19.69v3.42Z"/>
        <path class="cls-1" d="M41.8,374.41a1,1,0,0,1-.82-.36,1.64,1.64,0,0,1-.29-1v-3.49h-.48v-.4h.48v-1.91h.53v1.91h1.31v.4H41.22V373a1.15,1.15,0,0,0,.18.7.57.57,0,0,0,.5.24.79.79,0,0,0,.53-.17l.14.43a1.6,1.6,0,0,1-.35.15A1.52,1.52,0,0,1,41.8,374.41Z"/>
        <path class="cls-1" d="M47.92,374.41a1,1,0,0,1-.81-.36,1.58,1.58,0,0,1-.29-1v-3.49h-.49v-.4h.49v-1.91h.53v1.91h1.31v.4H47.35V373a1.22,1.22,0,0,0,.17.7.59.59,0,0,0,.5.24.83.83,0,0,0,.54-.17l.13.43a1.27,1.27,0,0,1-.35.15A1.42,1.42,0,0,1,47.92,374.41Z"/>
        <path class="cls-1" d="M50.36,374.25v-8.61h.53v4.22a1.58,1.58,0,0,1,.63-.63,2.12,2.12,0,0,1,1.09-.26,2,2,0,0,1,1,.24,1.55,1.55,0,0,1,.65.71,2.65,2.65,0,0,1,.23,1.15v3.18H54v-3.09a1.92,1.92,0,0,0-.39-1.3,1.4,1.4,0,0,0-1.11-.45,1.76,1.76,0,0,0-.86.2,1.52,1.52,0,0,0-.54.53,1.33,1.33,0,0,0-.19.69v3.42Z"/>
        <path class="cls-1" d="M56.92,368.12a.41.41,0,0,1-.19-.05.44.44,0,0,1-.13-.14.31.31,0,0,1-.05-.18.29.29,0,0,1,.05-.19.44.44,0,0,1,.13-.14.47.47,0,0,1,.38,0,.44.44,0,0,1,.13.14.35.35,0,0,1,0,.18.41.41,0,0,1,0,.19.44.44,0,0,1-.13.14A.41.41,0,0,1,56.92,368.12Zm-.27,6.13v-5.12h.53v5.12Z"/>
        <path class="cls-1" d="M59.43,374.25v-5.12H60v.73a1.62,1.62,0,0,1,.62-.63,2.18,2.18,0,0,1,1.1-.26,2,2,0,0,1,1,.24,1.55,1.55,0,0,1,.65.71,2.65,2.65,0,0,1,.23,1.15v3.18h-.53v-3.09a1.87,1.87,0,0,0-.4-1.3,1.38,1.38,0,0,0-1.1-.44,1.66,1.66,0,0,0-.86.2,1.35,1.35,0,0,0-.54.52,1.33,1.33,0,0,0-.19.69v3.42Z"/>
        <path class="cls-1" d="M67.93,377a3.2,3.2,0,0,1-1.61-.38,2.43,2.43,0,0,1-1-1.11l.46-.2a1.83,1.83,0,0,0,.82.9,2.65,2.65,0,0,0,2.44.1,1.9,1.9,0,0,0,.79-.72,2.14,2.14,0,0,0,.29-1.14v-1.38a2.46,2.46,0,0,1-.91,1,2.39,2.39,0,0,1-1.29.36,2.52,2.52,0,0,1-1.31-.35,2.57,2.57,0,0,1-.91-1,3.05,3.05,0,0,1,0-2.8,2.5,2.5,0,0,1,.91-1,2.54,2.54,0,0,1,1.31-.35,2.4,2.4,0,0,1,1.3.36,2.31,2.31,0,0,1,.9,1v-1.18h.53v5.26a2.91,2.91,0,0,1-.34,1.45,2.16,2.16,0,0,1-.95.87A3.39,3.39,0,0,1,67.93,377Zm.1-3.06a2.1,2.1,0,0,0,1.1-.29,2,2,0,0,0,.75-.8,2.32,2.32,0,0,0,.28-1.16,2.38,2.38,0,0,0-.28-1.17,2,2,0,0,0-.75-.79,2.21,2.21,0,0,0-2.19,0,2.06,2.06,0,0,0-.76.79,2.49,2.49,0,0,0-.27,1.17,2.42,2.42,0,0,0,.27,1.16A2.05,2.05,0,0,0,68,373.94Z"/>
        <path class="cls-1" d="M16.37,496.41a2.48,2.48,0,0,1-1.3-.35,2.6,2.6,0,0,1-.92-1,3.05,3.05,0,0,1,0-2.8,2.57,2.57,0,0,1,.91-1,2.61,2.61,0,0,1,2.63,0,2.15,2.15,0,0,1,.88,1v-1.18h.53v5.12h-.53v-1.18a2.51,2.51,0,0,1-.9,1A2.42,2.42,0,0,1,16.37,496.41Zm.11-.47a2,2,0,0,0,1.85-1.09,2.42,2.42,0,0,0,.27-1.16,2.46,2.46,0,0,0-.27-1.17,2.16,2.16,0,0,0-2.95-.79,2,2,0,0,0-.75.79,2.47,2.47,0,0,0-.28,1.17,2.43,2.43,0,0,0,.28,1.16,2,2,0,0,0,.75.8A2.12,2.12,0,0,0,16.48,495.94Z"/>
        <path class="cls-1" d="M23.88,498.85v-7.72h.53v1.16a2.38,2.38,0,0,1,.89-1,2.5,2.5,0,0,1,1.29-.35,2.53,2.53,0,0,1,2.24,1.32,2.92,2.92,0,0,1,.33,1.4,2.88,2.88,0,0,1-.33,1.39,2.43,2.43,0,0,1-2.23,1.33,2.41,2.41,0,0,1-1.29-.36,2.37,2.37,0,0,1-.9-1v3.78Zm2.62-2.91a2.12,2.12,0,0,0,1.1-.29,2,2,0,0,0,.75-.8,2.42,2.42,0,0,0,.27-1.16,2.49,2.49,0,0,0-.27-1.17,2,2,0,0,0-.75-.79,2.1,2.1,0,0,0-1.1-.29,2.12,2.12,0,0,0-1.1.29,2,2,0,0,0-.75.79,2.46,2.46,0,0,0-.27,1.17,2.42,2.42,0,0,0,.27,1.16,2,2,0,0,0,.76.8A2.09,2.09,0,0,0,26.5,495.94Z"/>
        <path class="cls-1" d="M33.43,496.41a2.81,2.81,0,0,1-1.43-.36,2.62,2.62,0,0,1-1.34-2.33,2.77,2.77,0,0,1,.79-2,2.63,2.63,0,0,1,1.87-.79,2.67,2.67,0,0,1,1.32.33,2.59,2.59,0,0,1,.94.92,2.73,2.73,0,0,1,.39,1.34v.17H31.18a2.31,2.31,0,0,0,.29,1.15,2.12,2.12,0,0,0,.81.79,2.48,2.48,0,0,0,2.29,0,2,2,0,0,0,.81-.75l.41.23a2.55,2.55,0,0,1-1,.91A2.86,2.86,0,0,1,33.43,496.41Zm-2.22-3.1h4.23a2.12,2.12,0,0,0-1.11-1.64,2,2,0,0,0-1-.25,2,2,0,0,0-1,.25,2.09,2.09,0,0,0-.75.67A2,2,0,0,0,31.21,493.31Z"/>
        <path class="cls-1" d="M37.75,496.25v-5.12h.53v.77a1.68,1.68,0,0,1,.61-.7,1.72,1.72,0,0,1,.9-.23,2.18,2.18,0,0,1,.44,0,2.36,2.36,0,0,1,.37.11l-.21.46a1.17,1.17,0,0,0-.33-.11,2.21,2.21,0,0,0-.35,0,1.38,1.38,0,0,0-.69.19,1.7,1.7,0,0,0-.54.49,1.14,1.14,0,0,0-.2.63v3.51Z"/>
        <path class="cls-1" d="M42.34,490.12a.41.41,0,0,1-.19-.05.44.44,0,0,1-.13-.14.41.41,0,0,1-.05-.18.36.36,0,0,1,.05-.19.44.44,0,0,1,.13-.14.47.47,0,0,1,.38,0,.44.44,0,0,1,.13.14.35.35,0,0,1,.05.18.41.41,0,0,1-.05.19.44.44,0,0,1-.13.14A.41.41,0,0,1,42.34,490.12Zm-.27,6.13v-5.12h.53v5.12Z"/>
        <path class="cls-1" d="M47.26,496.41a3,3,0,0,1-1.42-.34,2.71,2.71,0,0,1-1-1,2.91,2.91,0,0,1,0-2.84,2.54,2.54,0,0,1,1-.95,3.08,3.08,0,0,1,2.85,0,2.54,2.54,0,0,1,1,.95,2.91,2.91,0,0,1,0,2.84,2.71,2.71,0,0,1-1,1A3,3,0,0,1,47.26,496.41Zm0-.49a2.32,2.32,0,0,0,1.16-.28,2.05,2.05,0,0,0,.8-.8,2.43,2.43,0,0,0,0-2.3,2.05,2.05,0,0,0-.8-.8,2.52,2.52,0,0,0-2.31,0,2.05,2.05,0,0,0-.8.8,2.35,2.35,0,0,0,0,2.3,2.05,2.05,0,0,0,.8.8A2.3,2.3,0,0,0,47.26,495.92Z"/>
        <path class="cls-1" d="M54.12,496.41a2.52,2.52,0,0,1-1.31-.35,2.57,2.57,0,0,1-.91-1,2.82,2.82,0,0,1-.34-1.4,2.9,2.9,0,0,1,.33-1.4,2.6,2.6,0,0,1,.92-1,2.52,2.52,0,0,1,1.31-.35,2.42,2.42,0,0,1,1.3.36,2.29,2.29,0,0,1,.89,1v-4.67h.53v8.61h-.53v-1.18a2.37,2.37,0,0,1-.9,1A2.41,2.41,0,0,1,54.12,496.41Zm.1-.47a2.12,2.12,0,0,0,1.1-.29,2,2,0,0,0,.75-.8,2.42,2.42,0,0,0,.27-1.16,2.49,2.49,0,0,0-.27-1.17,2,2,0,0,0-.75-.79,2.12,2.12,0,0,0-1.1-.29,2.09,2.09,0,0,0-1.09.29,2,2,0,0,0-.75.79,2.38,2.38,0,0,0-.28,1.17,2.42,2.42,0,0,0,.27,1.16,2,2,0,0,0,.75.8A2.12,2.12,0,0,0,54.22,495.94Z"/>
        <path class="cls-1" d="M19.44,612.12a.41.41,0,0,1-.19,0,.44.44,0,0,1-.13-.14.31.31,0,0,1-.05-.18.29.29,0,0,1,.05-.19.44.44,0,0,1,.13-.14.41.41,0,0,1,.19,0,.34.34,0,0,1,.18,0,.47.47,0,0,1,.14.14.35.35,0,0,1,0,.18.41.41,0,0,1,0,.19.47.47,0,0,1-.14.14A.35.35,0,0,1,19.44,612.12Zm-.27,6.13v-5.12h.53v5.12Z"/>
        <path class="cls-1" d="M23.24,618.41a1.91,1.91,0,0,1-1.11-.33,2,2,0,0,1-.72-1l.32-.26a1.91,1.91,0,0,0,.61.82,1.48,1.48,0,0,0,.9.3,1.43,1.43,0,0,0,.64-.15,1.27,1.27,0,0,0,.47-.42,1.23,1.23,0,0,0,.17-.65.82.82,0,0,0-.15-.52,1.38,1.38,0,0,0-.46-.32l-.72-.3a6.4,6.4,0,0,1-.65-.29,1.51,1.51,0,0,1-.51-.42,1,1,0,0,1-.2-.64,1.19,1.19,0,0,1,.19-.67,1.41,1.41,0,0,1,.55-.47,1.79,1.79,0,0,1,.78-.17,1.73,1.73,0,0,1,.81.2,2,2,0,0,1,.63.58l-.29.28a1.31,1.31,0,0,0-1.15-.65,1.12,1.12,0,0,0-.74.24.81.81,0,0,0-.28.64.65.65,0,0,0,.16.46,1.27,1.27,0,0,0,.43.3c.18.08.38.17.6.25a7,7,0,0,1,.8.35,1.28,1.28,0,0,1,.53.43,1.15,1.15,0,0,1,.19.71,1.66,1.66,0,0,1-.23.87,1.63,1.63,0,0,1-.64.58A2.12,2.12,0,0,1,23.24,618.41Z"/>
        <path class="cls-1" d="M29.48,618.25v-4.72H29v-.4h.48v-2a2.6,2.6,0,0,1,.14-.91,1.19,1.19,0,0,1,.44-.56,1.25,1.25,0,0,1,.72-.19,1.51,1.51,0,0,1,.48.07,1,1,0,0,1,.39.2l-.19.38a.93.93,0,0,0-.59-.19.83.83,0,0,0-.48.14.8.8,0,0,0-.29.4,1.89,1.89,0,0,0-.09.62v2h1.33v.4H30v4.72Z"/>
        <path class="cls-1" d="M32.9,618.25v-5.12h.53v.77a1.68,1.68,0,0,1,.61-.7,1.72,1.72,0,0,1,.9-.23,2.18,2.18,0,0,1,.44,0,2.9,2.9,0,0,1,.38.11l-.22.46a1.17,1.17,0,0,0-.33-.11,2.21,2.21,0,0,0-.35,0,1.43,1.43,0,0,0-.69.19,1.56,1.56,0,0,0-.53.49,1.08,1.08,0,0,0-.21.63v3.51Z"/>
        <path class="cls-1" d="M39.59,618.41a3.08,3.08,0,0,1-1.43-.34,2.71,2.71,0,0,1-1-1,3,3,0,0,1,0-2.84,2.54,2.54,0,0,1,1-.95,2.86,2.86,0,0,1,1.43-.35,2.82,2.82,0,0,1,1.42.35,2.54,2.54,0,0,1,1,.95,2.91,2.91,0,0,1,0,2.84,2.71,2.71,0,0,1-1,1A3,3,0,0,1,39.59,618.41Zm0-.49a2.28,2.28,0,0,0,1.15-.28,2.05,2.05,0,0,0,.8-.8,2.35,2.35,0,0,0,0-2.3,2.05,2.05,0,0,0-.8-.8,2.28,2.28,0,0,0-1.15-.28,2.32,2.32,0,0,0-1.16.28,2.05,2.05,0,0,0-.8.8,2.43,2.43,0,0,0,0,2.3,2.05,2.05,0,0,0,.8.8A2.32,2.32,0,0,0,39.59,617.92Z"/>
        <path class="cls-1" d="M44.22,618.25v-5.12h.53v.73a1.89,1.89,0,0,1,.72-.66,2.13,2.13,0,0,1,1-.23,2.08,2.08,0,0,1,1.11.29,1.47,1.47,0,0,1,.63.82,2.3,2.3,0,0,1,.74-.81,2.22,2.22,0,0,1,2.08-.08,1.74,1.74,0,0,1,.67.65,2.09,2.09,0,0,1,.24,1v3.36H51.4V615a1.74,1.74,0,0,0-.39-1.19,1.34,1.34,0,0,0-1-.43,1.65,1.65,0,0,0-.83.2,1.52,1.52,0,0,0-.58.51,1.07,1.07,0,0,0-.22.63v3.49h-.53V615a1.6,1.6,0,0,0-.39-1.13,1.31,1.31,0,0,0-1-.41,1.74,1.74,0,0,0-.82.19,1.82,1.82,0,0,0-.6.48,1,1,0,0,0-.23.6v3.56Z"/>
        <path class="cls-1" d="M12.3,740.41a2.51,2.51,0,0,1-1.3-.35,2.57,2.57,0,0,1-.91-1,2.82,2.82,0,0,1-.34-1.4,2.9,2.9,0,0,1,.33-1.4,2.6,2.6,0,0,1,.92-1,2.59,2.59,0,0,1,2.62,0,2.1,2.1,0,0,1,.88,1v-1.18H15v5.12H14.5v-1.18a2.37,2.37,0,0,1-.9,1A2.4,2.4,0,0,1,12.3,740.41Zm.11-.47a2.1,2.1,0,0,0,1.1-.29,2,2,0,0,0,.75-.8,2.42,2.42,0,0,0,.27-1.16,2.46,2.46,0,0,0-.27-1.17,2,2,0,0,0-.75-.79,2.1,2.1,0,0,0-1.1-.29,2.07,2.07,0,0,0-1.85,1.08,2.46,2.46,0,0,0-.27,1.17,2.42,2.42,0,0,0,.27,1.16,2.09,2.09,0,0,0,.76.8A2.06,2.06,0,0,0,12.41,739.94Z"/>
        <path class="cls-1" d="M22.19,740.41a3,3,0,0,1-1.08-.2,2.9,2.9,0,0,1-.88-.57,2.56,2.56,0,0,1-.58-.86,2.62,2.62,0,0,1-.22-1.09,2.79,2.79,0,0,1,.21-1.09,2.69,2.69,0,0,1,.59-.86,2.85,2.85,0,0,1,.87-.57,3.11,3.11,0,0,1,2,0,2.72,2.72,0,0,1,.79.43l-.24.36a2.46,2.46,0,0,0-2.64-.18,2.08,2.08,0,0,0-.81.8,2.46,2.46,0,0,0,0,2.32,2.17,2.17,0,0,0,.81.81,2.4,2.4,0,0,0,1.18.29,2.56,2.56,0,0,0,.79-.12,1.92,1.92,0,0,0,.66-.36l.25.36a2.6,2.6,0,0,1-.79.42A2.76,2.76,0,0,1,22.19,740.41Z"/>
        <path class="cls-1" d="M28,740.41a3,3,0,0,1-1.42-.34,2.57,2.57,0,0,1-1-1,2.91,2.91,0,0,1,0-2.84,2.41,2.41,0,0,1,1-.95,3.06,3.06,0,0,1,2.84,0,2.47,2.47,0,0,1,1,.95,2.72,2.72,0,0,1-1,3.8A3,3,0,0,1,28,740.41Zm0-.49a2.34,2.34,0,0,0,1.16-.28,2.12,2.12,0,0,0,.8-.8,2.43,2.43,0,0,0,0-2.3,2.12,2.12,0,0,0-.8-.8,2.54,2.54,0,0,0-2.32,0,2.12,2.12,0,0,0-.8.8,2.43,2.43,0,0,0,0,2.3,2.12,2.12,0,0,0,.8.8A2.34,2.34,0,0,0,28,739.92Z"/>
        <path class="cls-1" d="M32.67,740.25v-5.12h.54v.73a1.8,1.8,0,0,1,.71-.66,2.16,2.16,0,0,1,1-.23,2.08,2.08,0,0,1,1.11.29,1.47,1.47,0,0,1,.63.82,2.4,2.4,0,0,1,.74-.81,2.22,2.22,0,0,1,2.08-.08,1.68,1.68,0,0,1,.67.65,2.09,2.09,0,0,1,.24,1v3.36h-.53V737a1.74,1.74,0,0,0-.39-1.19,1.33,1.33,0,0,0-1-.43,1.67,1.67,0,0,0-.83.2,1.6,1.6,0,0,0-.58.51,1.14,1.14,0,0,0-.22.63v3.49h-.53V737a1.64,1.64,0,0,0-.38-1.13,1.33,1.33,0,0,0-1-.41,1.74,1.74,0,0,0-.82.19,1.82,1.82,0,0,0-.6.48,1,1,0,0,0-.22.6v3.56Z"/>
        <path class="cls-1" d="M42.54,740.25v-5.12h.52v.73a1.85,1.85,0,0,1,.73-.66,2.11,2.11,0,0,1,1-.23,2.08,2.08,0,0,1,1.11.29,1.47,1.47,0,0,1,.63.82,2.4,2.4,0,0,1,.74-.81,2.22,2.22,0,0,1,2.08-.08,1.61,1.61,0,0,1,.67.65,2.09,2.09,0,0,1,.24,1v3.36h-.53V737a1.74,1.74,0,0,0-.39-1.19,1.33,1.33,0,0,0-1-.43,1.61,1.61,0,0,0-.82.2,1.55,1.55,0,0,0-.59.51,1.14,1.14,0,0,0-.22.63v3.49h-.53V737a1.6,1.6,0,0,0-.38-1.13,1.33,1.33,0,0,0-1-.41,1.74,1.74,0,0,0-.82.19,1.82,1.82,0,0,0-.6.48,1,1,0,0,0-.23.6v3.56Z"/>
        <path class="cls-1" d="M54.59,740.41a2.48,2.48,0,0,1-1.3-.35,2.6,2.6,0,0,1-.92-1,3.13,3.13,0,0,1,0-2.8,2.57,2.57,0,0,1,.91-1,2.52,2.52,0,0,1,1.31-.35,2.47,2.47,0,0,1,1.32.36,2.15,2.15,0,0,1,.88,1v-1.18h.53v5.12h-.53v-1.18a2.51,2.51,0,0,1-.9,1A2.42,2.42,0,0,1,54.59,740.41Zm.11-.47a2.12,2.12,0,0,0,1.1-.29,2,2,0,0,0,.75-.8,2.42,2.42,0,0,0,.27-1.16,2.46,2.46,0,0,0-.27-1.17,2,2,0,0,0-.75-.79,2.23,2.23,0,0,0-2.2,0,2,2,0,0,0-.75.79,2.47,2.47,0,0,0-.28,1.17,2.43,2.43,0,0,0,.28,1.16,2,2,0,0,0,.75.8A2.12,2.12,0,0,0,54.7,739.94Z"/>
        <path class="cls-1" d="M60,741.34l-.13-.11A1.09,1.09,0,0,0,60,741a2.47,2.47,0,0,0,.1-.29,1.65,1.65,0,0,0,0-.31.41.41,0,0,1-.24-.13.35.35,0,0,1-.1-.26.37.37,0,0,1,.11-.27.36.36,0,0,1,.28-.12.42.42,0,0,1,.31.13.51.51,0,0,1,.12.37,1.4,1.4,0,0,1-.19.67A1.64,1.64,0,0,1,60,741.34Z"/>
        <path class="cls-1" d="M19.48,862.41a2.48,2.48,0,0,1-1.3-.35,2.6,2.6,0,0,1-.92-1,3.13,3.13,0,0,1,0-2.8,2.57,2.57,0,0,1,.91-1,2.52,2.52,0,0,1,1.31-.35,2.47,2.47,0,0,1,1.32.36,2.1,2.1,0,0,1,.88,1v-1.18h.53v5.12h-.53v-1.18a2.51,2.51,0,0,1-.9,1A2.42,2.42,0,0,1,19.48,862.41Zm.11-.47a2.12,2.12,0,0,0,1.1-.29,2,2,0,0,0,.75-.8,2.42,2.42,0,0,0,.27-1.16,2.46,2.46,0,0,0-.27-1.17,2,2,0,0,0-.75-.79,2.23,2.23,0,0,0-2.2,0,2,2,0,0,0-.75.79,2.46,2.46,0,0,0-.27,1.17,2.42,2.42,0,0,0,.27,1.16,2.07,2.07,0,0,0,.75.8A2.12,2.12,0,0,0,19.59,861.94Z"/>
        <path class="cls-1" d="M29.37,862.41a2.92,2.92,0,0,1-1.08-.2,2.78,2.78,0,0,1-.88-.57,2.59,2.59,0,0,1-.59-.86,2.93,2.93,0,0,1,0-2.18,2.69,2.69,0,0,1,.59-.86,2.85,2.85,0,0,1,.87-.57,3,3,0,0,1,1.09-.2,3.11,3.11,0,0,1,1,.15,2.86,2.86,0,0,1,.79.43l-.24.36a2.48,2.48,0,0,0-2.65-.18,2.05,2.05,0,0,0-.8.8,2.46,2.46,0,0,0,0,2.32,2.1,2.1,0,0,0,.81.81,2.37,2.37,0,0,0,1.18.29,2.56,2.56,0,0,0,.79-.12,1.92,1.92,0,0,0,.66-.36l.25.36a2.6,2.6,0,0,1-.79.42A2.76,2.76,0,0,1,29.37,862.41Z"/>
        <path class="cls-1" d="M35.22,862.41a3,3,0,0,1-1.43-.34,2.71,2.71,0,0,1-1-1,3,3,0,0,1,0-2.84,2.54,2.54,0,0,1,1-.95,3.08,3.08,0,0,1,2.85,0,2.54,2.54,0,0,1,1,.95,2.91,2.91,0,0,1,0,2.84,2.71,2.71,0,0,1-1,1A3,3,0,0,1,35.22,862.41Zm0-.49a2.28,2.28,0,0,0,1.15-.28,2.05,2.05,0,0,0,.8-.8,2.35,2.35,0,0,0,0-2.3,2.05,2.05,0,0,0-.8-.8,2.28,2.28,0,0,0-1.15-.28,2.32,2.32,0,0,0-1.16.28,2.05,2.05,0,0,0-.8.8,2.43,2.43,0,0,0,0,2.3,2.05,2.05,0,0,0,.8.8A2.32,2.32,0,0,0,35.22,861.92Z"/>
        <path class="cls-1" d="M39.85,862.25v-8.6h.53v8.6Z"/>
        <path class="cls-1" d="M45,862.41a3.08,3.08,0,0,1-1.43-.34,2.71,2.71,0,0,1-1-1,3,3,0,0,1,0-2.84,2.54,2.54,0,0,1,1-.95A2.86,2.86,0,0,1,45,857a2.82,2.82,0,0,1,1.42.35,2.54,2.54,0,0,1,1,.95,2.91,2.91,0,0,1,0,2.84,2.71,2.71,0,0,1-1,1A3,3,0,0,1,45,862.41Zm0-.49a2.28,2.28,0,0,0,1.15-.28,2.05,2.05,0,0,0,.8-.8,2.35,2.35,0,0,0,0-2.3,2.05,2.05,0,0,0-.8-.8,2.28,2.28,0,0,0-1.15-.28,2.32,2.32,0,0,0-1.16.28,2.05,2.05,0,0,0-.8.8,2.43,2.43,0,0,0,0,2.3,2.05,2.05,0,0,0,.8.8A2.32,2.32,0,0,0,45,861.92Z"/>
        <path class="cls-1" d="M49.67,862.25v-5.12h.53v.73a1.72,1.72,0,0,1,.63-.63,2.16,2.16,0,0,1,1.1-.26,2.08,2.08,0,0,1,1,.24,1.6,1.6,0,0,1,.65.71,2.65,2.65,0,0,1,.22,1.15v3.18h-.53v-3.09a1.92,1.92,0,0,0-.39-1.3,1.38,1.38,0,0,0-1.11-.44,1.62,1.62,0,0,0-.85.2,1.38,1.38,0,0,0-.55.52,1.33,1.33,0,0,0-.19.69v3.42Z"/>
        <path class="cls-1" d="M28.5,984.41a3,3,0,0,1-1.42-.34,2.8,2.8,0,0,1-1-3.8,2.47,2.47,0,0,1,1-.95,3.06,3.06,0,0,1,2.84,0,2.5,2.5,0,0,1,1,.95,2.91,2.91,0,0,1,0,2.84,2.66,2.66,0,0,1-1,1A3,3,0,0,1,28.5,984.41Zm0-.49a2.32,2.32,0,0,0,1.16-.28,2.12,2.12,0,0,0,.8-.8,2.43,2.43,0,0,0,0-2.3,2.12,2.12,0,0,0-.8-.8,2.32,2.32,0,0,0-1.16-.28,2.34,2.34,0,0,0-1.16.28,2.19,2.19,0,0,0-.8.8,2.43,2.43,0,0,0,0,2.3,2.19,2.19,0,0,0,.8.8A2.34,2.34,0,0,0,28.5,983.92Z"/>
        <path class="cls-1" d="M33.14,984.25v-5.12h.53v.77a1.62,1.62,0,0,1,.61-.7,1.72,1.72,0,0,1,.9-.23,2.25,2.25,0,0,1,.44,0,2.74,2.74,0,0,1,.37.11l-.21.46a1.17,1.17,0,0,0-.33-.11,2.2,2.2,0,0,0-.36,0,1.43,1.43,0,0,0-.69.19,1.77,1.77,0,0,0-.53.49,1.14,1.14,0,0,0-.2.63v3.51Z"/>
        <path class="cls-1" d="M42.2,984.41a2.51,2.51,0,0,1-1.3-.35,2.68,2.68,0,0,1-.92-1,3.13,3.13,0,0,1,0-2.8,2.65,2.65,0,0,1,.91-1A2.52,2.52,0,0,1,42.2,979a2.47,2.47,0,0,1,1.32.36,2.1,2.1,0,0,1,.88,1v-1.18h.53v5.12H44.4v-1.18a2.44,2.44,0,0,1-.9,1A2.4,2.4,0,0,1,42.2,984.41Zm.11-.47a2.12,2.12,0,0,0,1.1-.29,2,2,0,0,0,.75-.8,2.42,2.42,0,0,0,.27-1.16,2.46,2.46,0,0,0-.27-1.17,2,2,0,0,0-.75-.79,2.23,2.23,0,0,0-2.2,0,2,2,0,0,0-.75.79,2.46,2.46,0,0,0-.27,1.17,2.42,2.42,0,0,0,.27,1.16,2.07,2.07,0,0,0,.75.8A2.12,2.12,0,0,0,42.31,983.94Z"/>
        <path class="cls-1" d="M6.71,1106.41a1.91,1.91,0,0,1-1.11-.33,2.08,2.08,0,0,1-.73-.95l.32-.26a1.92,1.92,0,0,0,.62.82,1.43,1.43,0,0,0,.89.3,1.4,1.4,0,0,0,.64-.15,1.19,1.19,0,0,0,.47-.42,1.15,1.15,0,0,0,.17-.65.82.82,0,0,0-.15-.52,1.33,1.33,0,0,0-.45-.32l-.73-.3a6.22,6.22,0,0,1-.64-.29,1.66,1.66,0,0,1-.52-.42,1,1,0,0,1-.2-.64,1.2,1.2,0,0,1,.2-.67,1.38,1.38,0,0,1,.54-.47,1.82,1.82,0,0,1,.78-.17,1.68,1.68,0,0,1,.81.2,1.83,1.83,0,0,1,.63.58L8,1102a1.3,1.3,0,0,0-1.15-.65,1.12,1.12,0,0,0-.74.24.81.81,0,0,0-.28.64.65.65,0,0,0,.16.46,1.38,1.38,0,0,0,.43.3c.18.08.38.17.6.25a8.15,8.15,0,0,1,.81.35,1.34,1.34,0,0,1,.53.43,1.22,1.22,0,0,1,.18.71,1.55,1.55,0,0,1-.87,1.45A2.11,2.11,0,0,1,6.71,1106.41Z"/>
        <path class="cls-1" d="M12.71,1106.41a2.81,2.81,0,0,1-1.43-.36,2.59,2.59,0,0,1-1.33-2.33,2.71,2.71,0,0,1,.78-2,2.62,2.62,0,0,1,.85-.58,2.53,2.53,0,0,1,1-.21,2.63,2.63,0,0,1,1.31.33,2.59,2.59,0,0,1,.94.92,2.73,2.73,0,0,1,.39,1.34v.17H10.46a2.31,2.31,0,0,0,.29,1.15,2.05,2.05,0,0,0,.81.79,2.48,2.48,0,0,0,2.29,0,2,2,0,0,0,.81-.75l.4.23a2.45,2.45,0,0,1-1,.91A2.86,2.86,0,0,1,12.71,1106.41Zm-2.22-3.1h4.23a2.14,2.14,0,0,0-.35-1,2.19,2.19,0,0,0-.75-.67,2,2,0,0,0-1-.25,2.06,2.06,0,0,0-1,.25,2.09,2.09,0,0,0-.75.67A2,2,0,0,0,10.49,1103.31Z"/>
        <path class="cls-1" d="M17,1106.25v-5.12h.53v.73a1.89,1.89,0,0,1,.72-.66,2.26,2.26,0,0,1,2.1.06,1.47,1.47,0,0,1,.63.82,2.3,2.3,0,0,1,.74-.81,2.22,2.22,0,0,1,2.08-.08,1.65,1.65,0,0,1,.66.65,2,2,0,0,1,.25,1.05v3.36h-.53V1103a1.7,1.7,0,0,0-.4-1.19,1.31,1.31,0,0,0-1-.43,1.65,1.65,0,0,0-.83.2,1.52,1.52,0,0,0-.58.51,1.07,1.07,0,0,0-.22.63v3.49h-.53V1103a1.6,1.6,0,0,0-.39-1.13,1.32,1.32,0,0,0-1-.41,1.78,1.78,0,0,0-1.42.67,1,1,0,0,0-.23.6v3.56Z"/>
        <path class="cls-1" d="M27.15,1100.12a.41.41,0,0,1-.19,0,.44.44,0,0,1-.13-.14.41.41,0,0,1,0-.18.36.36,0,0,1,0-.19.44.44,0,0,1,.13-.14.47.47,0,0,1,.38,0,.44.44,0,0,1,.13.14.35.35,0,0,1,.05.18.41.41,0,0,1-.05.19.44.44,0,0,1-.13.14A.41.41,0,0,1,27.15,1100.12Zm-.27,6.13v-5.12h.53v5.12Z"/>
        <path class="cls-1" d="M29.66,1103.58v-.46h3.22v.46Z"/>
        <path class="cls-1" d="M37.49,1106.41a2.91,2.91,0,0,1-1.07-.2,2.78,2.78,0,0,1-.88-.57,2.59,2.59,0,0,1-.59-.86,2.93,2.93,0,0,1,0-2.18,2.69,2.69,0,0,1,.59-.86,2.85,2.85,0,0,1,.87-.57,3,3,0,0,1,1.08-.2,3.12,3.12,0,0,1,1,.15,2.86,2.86,0,0,1,.79.43l-.24.36a2.48,2.48,0,0,0-2.65-.18,2.05,2.05,0,0,0-.8.8,2.47,2.47,0,0,0,0,2.32,2.1,2.1,0,0,0,.81.81,2.37,2.37,0,0,0,1.18.29,2.56,2.56,0,0,0,.79-.12,1.92,1.92,0,0,0,.66-.36l.25.36a2.72,2.72,0,0,1-.79.42A2.86,2.86,0,0,1,37.49,1106.41Z"/>
        <path class="cls-1" d="M43.34,1106.41a3,3,0,0,1-1.42-.34,2.71,2.71,0,0,1-1-1,2.91,2.91,0,0,1,0-2.84,2.54,2.54,0,0,1,1-1,3.08,3.08,0,0,1,2.85,0,2.54,2.54,0,0,1,1,1,2.91,2.91,0,0,1,0,2.84,2.71,2.71,0,0,1-1,1A3,3,0,0,1,43.34,1106.41Zm0-.49a2.32,2.32,0,0,0,1.16-.28,2.05,2.05,0,0,0,.8-.8,2.43,2.43,0,0,0,0-2.3,2.05,2.05,0,0,0-.8-.8,2.52,2.52,0,0,0-2.31,0,2.05,2.05,0,0,0-.8.8,2.35,2.35,0,0,0,0,2.3,2.05,2.05,0,0,0,.8.8A2.3,2.3,0,0,0,43.34,1105.92Z"/>
        <path class="cls-1" d="M48,1106.25v-8.6h.53v8.6Z"/>
        <path class="cls-1" d="M53.16,1106.41a3,3,0,0,1-1.42-.34,2.71,2.71,0,0,1-1-1,2.91,2.91,0,0,1,0-2.84,2.54,2.54,0,0,1,1-1,2.82,2.82,0,0,1,1.42-.35,2.86,2.86,0,0,1,1.43.35,2.54,2.54,0,0,1,1,1,2.91,2.91,0,0,1,0,2.84,2.71,2.71,0,0,1-1,1A3.08,3.08,0,0,1,53.16,1106.41Zm0-.49a2.32,2.32,0,0,0,1.16-.28,2.05,2.05,0,0,0,.8-.8,2.43,2.43,0,0,0,0-2.3,2.05,2.05,0,0,0-.8-.8,2.32,2.32,0,0,0-1.16-.28,2.28,2.28,0,0,0-1.15.28,2.05,2.05,0,0,0-.8.8,2.35,2.35,0,0,0,0,2.3,2.05,2.05,0,0,0,.8.8A2.28,2.28,0,0,0,53.16,1105.92Z"/>
        <path class="cls-1" d="M57.8,1106.25v-5.12h.53v.73a1.65,1.65,0,0,1,.63-.63,2.12,2.12,0,0,1,1.09-.26,2,2,0,0,1,1,.24,1.55,1.55,0,0,1,.65.71,2.51,2.51,0,0,1,.23,1.15v3.18h-.53v-3.09a1.92,1.92,0,0,0-.39-1.3,1.38,1.38,0,0,0-1.11-.44,1.68,1.68,0,0,0-.86.2,1.42,1.42,0,0,0-.54.52,1.33,1.33,0,0,0-.19.69v3.42Z"/>
        <path class="cls-1" d="M64.85,1106.41a.41.41,0,0,1-.19-.05.4.4,0,0,1-.14-.15.32.32,0,0,1-.06-.2.33.33,0,0,1,.06-.19.38.38,0,0,1,.14-.14.33.33,0,0,1,.19-.06.34.34,0,0,1,.2.06.38.38,0,0,1,.14.14.32.32,0,0,1,0,.19.31.31,0,0,1,0,.2.4.4,0,0,1-.14.15A.42.42,0,0,1,64.85,1106.41Z"/>
      </g>
    </g>
  </g>
</svg>
