<svg xmlns="http://www.w3.org/2000/svg" viewBox="0 0 92.92 1194.96">
  <defs>
    <style>
      .cls-1 {
        fill: gray;
      }
    </style>
  </defs>
  <g id="Layer_2" data-name="Layer 2">
    <g id="Layer_1-2" data-name="Layer 1">
      <g>
        <path class="cls-1" d="M6.36,1.42c-1.7,0-2.85,1-2.85,2.45s.76,1.8,1.93,2.31l1.46.63c1.51.65,2.43,1.47,2.43,2.93,0,2.5-2.09,3.93-4.43,3.93a5.54,5.54,0,0,1-3.66-1.26l-1,1.15H0L.9,9.62h.18C1.75,11.87,2.9,13,4.9,13a2.9,2.9,0,0,0,3.2-2.83c0-1.1-.63-1.73-1.74-2.2L4.81,7.27c-1.5-.63-2.52-1.56-2.52-3C2.29,2.07,4.05.7,6.36.7a5.52,5.52,0,0,1,3.24.94l.92-.9h.19L10,4.29H9.87C9.26,2.39,8.34,1.42,6.36,1.42Z"/>
        <path class="cls-1" d="M14.24,13.67A3.37,3.37,0,0,1,10.8,10c0-2.66,1.85-5.38,4.66-5.38A3.36,3.36,0,0,1,18.9,8.28C18.9,11,17.05,13.67,14.24,13.67Zm0-.74c1.89,0,3.37-2.34,3.37-4.85,0-1.69-.62-2.75-2.15-2.75-1.89,0-3.36,2.34-3.36,4.84C12.1,11.87,12.71,12.93,14.24,12.93Z"/>
        <path class="cls-1" d="M24.3,11.31a2.05,2.05,0,0,0-.07.5c0,.63.39.92,1.15.92a6.88,6.88,0,0,0,1.89-.34v.21a5,5,0,0,1-2.63,1.07A1.51,1.51,0,0,1,23,12.06a3.35,3.35,0,0,1,.09-.68l1.46-5.92H23.13L23.26,5c1.54-.36,2.25-1.39,2.95-3.17h.47l-.76,2.95H28.5l-.28.69H25.74Z"/>
        <path class="cls-1" d="M30.71,7.46A4.75,4.75,0,0,1,34.6,4.59a1.71,1.71,0,0,1,1.78,1.93,3.73,3.73,0,0,1-.13,1l-1.06,4.29a3.13,3.13,0,0,0-.07.45c0,.39.25.61.74.61A3.73,3.73,0,0,0,37,12.59v.18a3.17,3.17,0,0,1-1.91.9,1.12,1.12,0,0,1-1.17-1.25,3.54,3.54,0,0,1,.09-.68l1.06-4.21a2.68,2.68,0,0,0,.11-.76A1.09,1.09,0,0,0,34,5.53c-1.51,0-3.27,1.87-4,4.7l-.82,3.26H28.06L31,1.82A1.7,1.7,0,0,0,31,1.4c0-.63-.46-.95-1-1.29V0h2.57Z"/>
        <path class="cls-1" d="M44.71,11.76a2.7,2.7,0,0,0-.07.41c0,.43.24.65.72.65a3.78,3.78,0,0,0,1.16-.23v.18a3.2,3.2,0,0,1-1.91.9,1.1,1.1,0,0,1-1.15-1.25,3.23,3.23,0,0,1,.23-1.06,3.69,3.69,0,0,1-3.14,2.31c-1.67,0-2.79-1.28-2.79-3.26,0-3,2.08-5.82,4.74-5.82A2.34,2.34,0,0,1,45,6.28a7,7,0,0,1,1.28-1.69h.22Zm-.3-3.39a4.83,4.83,0,0,0,.14-1.06,1.76,1.76,0,0,0-1.91-2c-2.14,0-3.58,2.3-3.58,5.06,0,1.47.68,2.45,1.78,2.45,1.52,0,2.88-1.64,3.39-3.73Z"/>
        <path class="cls-1" d="M49.09,11.31a1.71,1.71,0,0,0-.08.5c0,.63.4.92,1.16.92a7,7,0,0,0,1.89-.34v.21a5.07,5.07,0,0,1-2.63,1.07,1.51,1.51,0,0,1-1.62-1.61,2.77,2.77,0,0,1,.09-.68l1.46-5.92H47.92L48,5c1.55-.36,2.25-1.39,3-3.17h.47l-.75,2.95h2.57L53,5.46H50.53Z"/>
        <path class="cls-1" d="M57.29,11.76a2.76,2.76,0,0,0-.07.45c0,.41.27.61.74.61a3.73,3.73,0,0,0,1.15-.23v.18a3.18,3.18,0,0,1-1.9.9,1.1,1.1,0,0,1-1.14-1.23,3.44,3.44,0,0,1,.09-.7l1.28-5.15a2.27,2.27,0,0,0,.05-.41c0-.63-.45-1-1-1.3V4.77H59ZM59,2.63A1,1,0,0,1,59,.68a1,1,0,1,1,0,1.95Z"/>
        <path class="cls-1" d="M64.06,5.29c-1.17,0-1.91.56-1.91,1.44,0,.65.49,1.08,1.81,1.84,1.58.9,2.08,1.55,2.08,2.5,0,1.55-1.46,2.6-3.27,2.6s-3.21-1-3.21-2.13a1,1,0,0,1,1-1,1.39,1.39,0,0,1,.46.07,1.11,1.11,0,0,0-.25.72,1.72,1.72,0,0,0,2,1.64c1.15,0,2.14-.52,2.14-1.51,0-.63-.42-1.19-1.71-1.89S61,8.19,61,7.09a2.74,2.74,0,0,1,3-2.5c1.75,0,2.83.83,2.83,1.87a1,1,0,0,1-1.12,1,2.09,2.09,0,0,1-.36,0,1.13,1.13,0,0,0,.24-.75C65.65,5.83,65.05,5.29,64.06,5.29Z"/>
        <path class="cls-1" d="M72,11.31a2.05,2.05,0,0,0-.07.5c0,.63.4.92,1.15.92a6.88,6.88,0,0,0,1.89-.34v.21a5,5,0,0,1-2.63,1.07,1.5,1.5,0,0,1-1.61-1.61,2.77,2.77,0,0,1,.09-.68l1.45-5.92H70.79L70.92,5c1.55-.36,2.25-1.39,3-3.17h.47l-.76,2.95h2.58l-.27.69H73.4Z"/>
        <path class="cls-1" d="M78.37,7.46a4.75,4.75,0,0,1,3.89-2.87A1.7,1.7,0,0,1,84,6.52a3.69,3.69,0,0,1-.12,1l-1.06,4.29a2.26,2.26,0,0,0-.08.45c0,.39.26.61.74.61a3.68,3.68,0,0,0,1.15-.23v.18a3.15,3.15,0,0,1-1.9.9,1.11,1.11,0,0,1-1.17-1.25,2.89,2.89,0,0,1,.09-.68l1.06-4.21a3.1,3.1,0,0,0,.11-.76,1.09,1.09,0,0,0-1.19-1.24c-1.52,0-3.28,1.87-4,4.7l-.81,3.26H75.72l2.9-11.67a1.7,1.7,0,0,0,.06-.42c0-.63-.45-.95-1-1.29V0h2.58Z"/>
        <path class="cls-1" d="M85.45,10.25c0-2.74,2.08-5.66,4.91-5.66,1.6,0,2.56.74,2.56,2,0,1.88-2.16,2.69-6.13,2.9a6.87,6.87,0,0,0-.05.8c0,1.63.85,2.61,2.32,2.61A3.59,3.59,0,0,0,92,11.13l.3.16a3.9,3.9,0,0,1-3.63,2.38C86.62,13.67,85.45,12.33,85.45,10.25ZM86.9,8.84c2.63-.13,4.72-.43,4.72-2.41a1.11,1.11,0,0,0-1.26-1.14C88.52,5.29,87.3,7,86.9,8.84Z"/>
        <path class="cls-1" d="M21,80.19a2.08,2.08,0,0,0,.05-.41c0-.63-.43-1-1-1.3v-.11h2.58L21.3,83.43a5.25,5.25,0,0,0-.2,1.42c0,1,.43,1.61,1.33,1.61,2.2,0,3.69-3.34,3.69-5.77,0-.88-.34-1.38-1.15-1.38a1.8,1.8,0,0,0-.86.2,1.43,1.43,0,0,1,1.38-1.32c1.1,0,1.59.92,1.59,2.07,0,3.14-2.07,7-5,7-1.31,0-2.05-.89-2.05-2.33A3.46,3.46,0,0,1,17,87.27,2,2,0,0,1,14.83,85a5.75,5.75,0,0,1,.2-1.4l.83-3.37a2.27,2.27,0,0,0,.05-.41c0-.63-.45-1-1-1.3v-.11h2.57l-1.29,5.17a5.73,5.73,0,0,0-.2,1.37c0,1,.47,1.55,1.37,1.55,1.47,0,2.5-1.7,2.89-3.32Z"/>
        <path class="cls-1" d="M34.76,85.36a1.85,1.85,0,0,0-.07.41c0,.43.23.65.72.65a3.73,3.73,0,0,0,1.15-.23v.18a3.17,3.17,0,0,1-1.91.9A1.1,1.1,0,0,1,33.5,86,3.51,3.51,0,0,1,33.73,85a3.67,3.67,0,0,1-3.13,2.31c-1.67,0-2.79-1.28-2.79-3.26,0-3,2.07-5.82,4.74-5.82a2.35,2.35,0,0,1,2.5,1.69,7,7,0,0,1,1.28-1.69h.21ZM34.46,82a5.53,5.53,0,0,0,.14-1.06,1.76,1.76,0,0,0-1.91-2c-2.14,0-3.58,2.3-3.58,5.06,0,1.47.68,2.45,1.78,2.45,1.51,0,2.88-1.64,3.39-3.73Z"/>
        <path class="cls-1" d="M43.51,84.4a4.75,4.75,0,0,1-3.89,2.87,1.7,1.7,0,0,1-1.78-1.93,3.69,3.69,0,0,1,.12-1l1-4.2a2.27,2.27,0,0,0,.05-.41c0-.63-.45-1-1-1.3v-.11h2.59l-1.5,6a3.44,3.44,0,0,0-.1.81c0,.76.35,1.24,1.15,1.24,1.51,0,3.29-1.85,4-4.77L45,78.37h1.16l-2,7.94c-.71,2.9-2.19,4.83-4.88,4.83-1.72,0-2.89-.7-2.89-1.89a1.1,1.1,0,0,1,1.15-1.12,1.29,1.29,0,0,1,.43.07,1.26,1.26,0,0,0-.32.88c0,.87.55,1.43,1.63,1.43,2.13,0,3.14-1.75,3.77-4.29Z"/>
        <path class="cls-1" d="M52.35,76.46a3.9,3.9,0,0,0,.12-.79c0-.54-.27-.74-.81-1.06v-.13h3.48v.13a2.2,2.2,0,0,0-1.59,1.85l-2.16,8.65a3.9,3.9,0,0,0-.12.79c0,.54.27.74.8,1.06v.13H48.6V87a2.21,2.21,0,0,0,1.59-1.85Z"/>
        <path class="cls-1" d="M57.49,88.53c-.43,1.67-1,2.61-2.3,2.61h-.11a9.36,9.36,0,0,0,1.6-3.84l2-8.24H57.42l.12-.47,1.37-.33.44-1.71c.5-2,1.74-3,3.33-3,1.28,0,1.94.55,1.94,1.29A1.12,1.12,0,0,1,63.42,76a1.92,1.92,0,0,1-.38,0,1.78,1.78,0,0,0,.39-1c0-.5-.27-.81-.93-.81-1.1,0-1.68.88-1.93,2.11l-.45,2.14h2.45l-.29.69H59.92Z"/>
        <path class="cls-1" d="M61.79,83.85c0-2.74,2.09-5.66,4.92-5.66,1.6,0,2.56.74,2.56,2,0,1.88-2.16,2.69-6.13,2.9a6.87,6.87,0,0,0,0,.8c0,1.63.85,2.61,2.32,2.61a3.59,3.59,0,0,0,2.94-1.73l.3.16A3.91,3.91,0,0,1,65,87.27C63,87.27,61.79,85.93,61.79,83.85Zm1.46-1.41C65.88,82.31,68,82,68,80a1.11,1.11,0,0,0-1.26-1.14C64.87,78.89,63.65,80.57,63.25,82.44Z"/>
        <path class="cls-1" d="M71.17,85.36a2,2,0,0,0-.07.45c0,.41.25.61.74.61A3.73,3.73,0,0,0,73,86.19v.18a3.17,3.17,0,0,1-1.91.9A1.11,1.11,0,0,1,69.91,86a3,3,0,0,1,.11-.7l2.43-9.92a1.65,1.65,0,0,0,0-.42c0-.62-.45-1-1-1.29V73.6h2.57Z"/>
        <path class="cls-1" d="M75.58,84.91a2.05,2.05,0,0,0-.07.5c0,.63.39.92,1.15.92A6.88,6.88,0,0,0,78.55,86v.21a5,5,0,0,1-2.63,1.07,1.51,1.51,0,0,1-1.62-1.61,3.35,3.35,0,0,1,.09-.68l1.46-5.92H74.41l.13-.47c1.54-.36,2.25-1.39,2.95-3.17H78l-.76,3h2.58l-.27.69H77Z"/>
        <path class="cls-1" d="M32.12,159a1.94,1.94,0,0,0-.08.41c0,.43.24.65.72.65a3.78,3.78,0,0,0,1.16-.23V160a3.2,3.2,0,0,1-1.91.9,1.1,1.1,0,0,1-1.15-1.25,3.51,3.51,0,0,1,.23-1.06A3.69,3.69,0,0,1,28,160.87c-1.68,0-2.8-1.28-2.8-3.26,0-3,2.08-5.82,4.74-5.82a2.33,2.33,0,0,1,2.5,1.69,7,7,0,0,1,1.28-1.69h.22Zm-.31-3.39a4.83,4.83,0,0,0,.14-1.06,1.76,1.76,0,0,0-1.91-2c-2.14,0-3.58,2.3-3.58,5.06,0,1.47.68,2.45,1.78,2.45,1.52,0,2.88-1.64,3.39-3.73Z"/>
        <path class="cls-1" d="M37.6,149a1.7,1.7,0,0,0,.06-.42c0-.63-.45-.95-1-1.29v-.11h2.58l-1.71,6.9a4,4,0,0,1,3.38-2.31c1.73,0,2.77,1.26,2.77,3.26,0,3-1.87,5.82-4.89,5.82a2.62,2.62,0,0,1-2.6-1.79,6.89,6.89,0,0,1-1.28,1.7h-.21Zm2.88,3.58c-1.49,0-3.06,1.62-3.51,3.55l-.19.85a4.14,4.14,0,0,0-.11.95,2,2,0,0,0,2,2.18c2.29,0,3.66-2.67,3.66-5.08C42.36,153.56,41.75,152.6,40.48,152.6Z"/>
        <path class="cls-1" d="M48,160.87a3.37,3.37,0,0,1-3.44-3.7c0-2.66,1.85-5.38,4.66-5.38a3.36,3.36,0,0,1,3.44,3.69C52.67,158.15,50.82,160.87,48,160.87Zm0-.74c1.89,0,3.37-2.34,3.37-4.84,0-1.7-.62-2.76-2.15-2.76-1.89,0-3.36,2.34-3.36,4.84C45.87,159.07,46.48,160.13,48,160.13Z"/>
        <path class="cls-1" d="M59.56,158a4.73,4.73,0,0,1-3.88,2.87,1.71,1.71,0,0,1-1.79-1.93A3.73,3.73,0,0,1,54,158l1-4.2a1.69,1.69,0,0,0,.06-.41c0-.63-.45-1-1-1.3V152h2.59l-1.49,6a3.49,3.49,0,0,0-.11.81c0,.76.36,1.24,1.15,1.24,1.52,0,3.3-1.85,4-4.77l.81-3.24h1.15l-1.75,7a2.5,2.5,0,0,0-.05.41c0,.42.29.65.76.65a3.73,3.73,0,0,0,1.15-.23V160a3.17,3.17,0,0,1-1.91.9,1.11,1.11,0,0,1-1.17-1.25,3.35,3.35,0,0,1,.09-.68Z"/>
        <path class="cls-1" d="M64.87,158.51a2.05,2.05,0,0,0-.07.5c0,.63.4.92,1.15.92a6.88,6.88,0,0,0,1.89-.34v.21a5,5,0,0,1-2.63,1.07,1.51,1.51,0,0,1-1.62-1.61,3.35,3.35,0,0,1,.09-.68l1.46-5.92H63.7l.13-.47c1.55-.36,2.25-1.39,3-3.17h.47L66.49,152h2.58l-.27.69H66.31Z"/>
        <path class="cls-1" d="M2.17,238.16H1l2.66-10.77a1.69,1.69,0,0,0,.06-.41c0-.63-.45-1-1-1.3v-.11H5.2l-.44,2.13a4,4,0,0,1,3.39-2.31c1.73,0,2.77,1.26,2.77,3.26,0,3-1.87,5.82-4.9,5.82a2.49,2.49,0,0,1-2.5-1.79ZM4,230.6a4.78,4.78,0,0,0-.11,1,2,2,0,0,0,2,2.18c2.29,0,3.65-2.67,3.65-5.08,0-1.49-.61-2.45-1.87-2.45-1.49,0-3.06,1.62-3.51,3.55Z"/>
        <path class="cls-1" d="M17.79,231.6a4.73,4.73,0,0,1-3.88,2.87,1.71,1.71,0,0,1-1.79-1.93,3.73,3.73,0,0,1,.13-.95l1-4.2a1.69,1.69,0,0,0,.06-.41c0-.63-.45-1-1-1.3v-.11h2.59l-1.49,6a3.49,3.49,0,0,0-.11.81c0,.76.36,1.24,1.15,1.24,1.52,0,3.3-1.85,4-4.77l.81-3.24h1.15l-1.74,7a1.83,1.83,0,0,0-.06.41c0,.42.29.65.76.65a3.73,3.73,0,0,0,1.15-.23v.18a3.17,3.17,0,0,1-1.91.9,1.11,1.11,0,0,1-1.17-1.25,3.35,3.35,0,0,1,.09-.68Z"/>
        <path class="cls-1" d="M21.3,234.29l1.71-6.9a1.69,1.69,0,0,0,.06-.41c0-.63-.45-1-1-1.3v-.11h2.49L24,228.25a4.76,4.76,0,0,1,3.89-2.86,1.71,1.71,0,0,1,1.78,1.93,3.85,3.85,0,0,1-.13,1l-1.06,4.29a3.13,3.13,0,0,0-.07.45c0,.39.25.61.74.61a3.73,3.73,0,0,0,1.15-.23v.18a3.17,3.17,0,0,1-1.91.9,1.12,1.12,0,0,1-1.17-1.25,3.54,3.54,0,0,1,.09-.68l1.06-4.21a2.68,2.68,0,0,0,.11-.76,1.09,1.09,0,0,0-1.19-1.24c-1.51,0-3.27,1.87-4,4.7l-.81,3.26Z"/>
        <path class="cls-1" d="M35.87,226.09c-2.24,0-3.55,2.54-3.55,4.88,0,1.64.83,2.67,2.29,2.67a3.41,3.41,0,0,0,2.82-1.73l.31.18a3.8,3.8,0,0,1-3.53,2.38c-2,0-3.19-1.41-3.19-3.5,0-2.88,2.09-5.58,4.85-5.58,1.51,0,2.55.72,2.55,1.8a1,1,0,0,1-1,1.1.88.88,0,0,1-.45-.11,1.23,1.23,0,0,0,.27-.9C37.2,226.6,36.8,226.09,35.87,226.09Z"/>
        <path class="cls-1" d="M40.53,232.11a1.66,1.66,0,0,0-.07.5c0,.63.39.92,1.15.92a7,7,0,0,0,1.89-.34v.21a5.07,5.07,0,0,1-2.63,1.07,1.51,1.51,0,0,1-1.62-1.61,3.35,3.35,0,0,1,.09-.68l1.46-5.92H39.36l.12-.47c1.55-.36,2.25-1.39,3-3.17h.46l-.75,2.95h2.57l-.27.69H42Z"/>
        <path class="cls-1" d="M50.46,231.6a4.73,4.73,0,0,1-3.88,2.87,1.71,1.71,0,0,1-1.79-1.93,3.73,3.73,0,0,1,.13-.95l1-4.2A1.69,1.69,0,0,0,46,227c0-.63-.45-1-1-1.3v-.11h2.59l-1.49,6a3.49,3.49,0,0,0-.11.81c0,.76.36,1.24,1.15,1.24,1.52,0,3.3-1.85,4-4.77l.81-3.24h1.15l-1.74,7a1.83,1.83,0,0,0-.06.41c0,.42.29.65.76.65a3.73,3.73,0,0,0,1.15-.23v.18a3.17,3.17,0,0,1-1.91.9,1.11,1.11,0,0,1-1.17-1.25,3.35,3.35,0,0,1,.09-.68Z"/>
        <path class="cls-1" d="M61,232.56a2.7,2.7,0,0,0-.07.41c0,.43.23.65.72.65a3.68,3.68,0,0,0,1.15-.23v.18a3.17,3.17,0,0,1-1.91.9,1.1,1.1,0,0,1-1.15-1.25,3.27,3.27,0,0,1,.24-1.06,3.69,3.69,0,0,1-3.14,2.31c-1.67,0-2.79-1.28-2.79-3.26,0-3,2.07-5.82,4.74-5.82a2.35,2.35,0,0,1,2.5,1.69,7,7,0,0,1,1.28-1.69h.21Zm-.3-3.39a4.83,4.83,0,0,0,.14-1.06,1.76,1.76,0,0,0-1.91-2c-2.14,0-3.58,2.3-3.58,5.06,0,1.47.68,2.45,1.78,2.45,1.51,0,2.88-1.64,3.39-3.73Z"/>
        <path class="cls-1" d="M65.38,232.11a2.05,2.05,0,0,0-.07.5c0,.63.4.92,1.15.92a7,7,0,0,0,1.9-.34v.21a5.07,5.07,0,0,1-2.63,1.07,1.51,1.51,0,0,1-1.62-1.61,2.77,2.77,0,0,1,.09-.68l1.45-5.92H64.21l.13-.47c1.55-.36,2.25-1.39,3-3.17h.47L67,225.57h2.57l-.27.69H66.83Z"/>
        <path class="cls-1" d="M70.71,232.56a2.76,2.76,0,0,0-.07.45c0,.41.27.61.74.61a3.73,3.73,0,0,0,1.15-.23v.18a3.17,3.17,0,0,1-1.91.9,1.09,1.09,0,0,1-1.13-1.23,3.44,3.44,0,0,1,.09-.7l1.28-5.15a2.27,2.27,0,0,0,0-.41c0-.63-.45-1-1-1.3v-.11h2.58Zm1.73-9.13a1,1,0,1,1,1-1A1,1,0,0,1,72.44,223.43Z"/>
        <path class="cls-1" d="M76.89,234.47a3.36,3.36,0,0,1-3.44-3.69c0-2.67,1.85-5.39,4.66-5.39a3.36,3.36,0,0,1,3.44,3.69C81.55,231.75,79.7,234.47,76.89,234.47Zm0-.74c1.89,0,3.36-2.34,3.36-4.85,0-1.69-.61-2.75-2.14-2.75-1.89,0-3.37,2.34-3.37,4.84C74.74,232.67,75.36,233.73,76.89,233.73Z"/>
        <path class="cls-1" d="M82.27,234.29l1.71-6.9a1.63,1.63,0,0,0,0-.41c0-.63-.45-1-1-1.3v-.11h2.48l-.58,2.68a4.77,4.77,0,0,1,3.89-2.86,1.71,1.71,0,0,1,1.79,1.93,3.85,3.85,0,0,1-.13,1l-1.06,4.29a2.16,2.16,0,0,0-.07.45c0,.39.25.61.73.61a3.78,3.78,0,0,0,1.16-.23v.18a3.2,3.2,0,0,1-1.91.9,1.11,1.11,0,0,1-1.17-1.25,2.89,2.89,0,0,1,.09-.68l1.06-4.21a3.1,3.1,0,0,0,.11-.76,1.09,1.09,0,0,0-1.19-1.24c-1.51,0-3.28,1.87-4,4.7l-.81,3.26Z"/>
        <path class="cls-1" d="M9.21,306.16a2,2,0,0,0-.07.45c0,.41.27.61.74.61A3.78,3.78,0,0,0,11,307v.18a3.17,3.17,0,0,1-1.91.9A1.1,1.1,0,0,1,8,306.84a3.44,3.44,0,0,1,.09-.7L9.35,301a1.69,1.69,0,0,0,.06-.41c0-.63-.45-1-1-1.3v-.11H11ZM10.94,297a1,1,0,1,1,1-1A1,1,0,0,1,10.94,297Z"/>
        <path class="cls-1" d="M11.82,307.89l1.71-6.9a2.27,2.27,0,0,0,.05-.41c0-.63-.45-1-1-1.3v-.11H15l-.58,2.68A4.77,4.77,0,0,1,18.35,299a1.71,1.71,0,0,1,1.79,1.93,3.85,3.85,0,0,1-.13.95L19,306.16a2.16,2.16,0,0,0-.07.45c0,.39.25.61.74.61a3.78,3.78,0,0,0,1.15-.23v.18a3.2,3.2,0,0,1-1.91.9,1.11,1.11,0,0,1-1.17-1.25,2.89,2.89,0,0,1,.09-.68l1.06-4.21a3.1,3.1,0,0,0,.11-.76,1.09,1.09,0,0,0-1.19-1.24c-1.51,0-3.28,1.87-4,4.7L13,307.89Z"/>
        <path class="cls-1" d="M24.65,311.76H23.5L26.16,301a1.69,1.69,0,0,0,.06-.41c0-.63-.45-1-1-1.3v-.11h2.49l-.44,2.13A4,4,0,0,1,30.63,299c1.73,0,2.77,1.26,2.77,3.26,0,3-1.87,5.82-4.9,5.82a2.5,2.5,0,0,1-2.5-1.79Zm1.87-7.56a4.73,4.73,0,0,0-.1.95,2,2,0,0,0,2,2.18c2.29,0,3.66-2.67,3.66-5.08,0-1.49-.62-2.45-1.88-2.45-1.49,0-3.06,1.62-3.51,3.55Z"/>
        <path class="cls-1" d="M36.66,302.2c.81-1.53,1.94-3.21,3.47-3.21a1,1,0,0,1,1.1,1A1.17,1.17,0,0,1,40,301.12a.91.91,0,0,0,.14-.45c0-.31-.21-.56-.67-.56-1.17,0-2.86,2.32-3.36,4.32l-.87,3.46H34.1l1.71-6.9a1.69,1.69,0,0,0,.06-.41c0-.63-.45-1-1-1.3v-.11h2.57Z"/>
        <path class="cls-1" d="M44.51,308.07a3.36,3.36,0,0,1-3.44-3.69c0-2.67,1.85-5.39,4.66-5.39a3.36,3.36,0,0,1,3.44,3.69C49.17,305.35,47.31,308.07,44.51,308.07Zm0-.74c1.89,0,3.36-2.34,3.36-4.85,0-1.69-.61-2.75-2.14-2.75-1.89,0-3.37,2.34-3.37,4.84C42.36,306.27,43,307.33,44.51,307.33Z"/>
        <path class="cls-1" d="M54,299.69c-1.16,0-1.9.56-1.9,1.44,0,.65.48,1.08,1.8,1.84,1.58.9,2.09,1.55,2.09,2.5,0,1.55-1.46,2.6-3.28,2.6s-3.21-1-3.21-2.13a1,1,0,0,1,1.05-1,1.49,1.49,0,0,1,.47.07,1.06,1.06,0,0,0-.26.72,1.73,1.73,0,0,0,2,1.64c1.15,0,2.14-.52,2.14-1.51,0-.63-.41-1.19-1.71-1.89S51,302.59,51,301.49a2.75,2.75,0,0,1,3-2.5c1.75,0,2.83.83,2.83,1.87a1,1,0,0,1-1.11,1,1.88,1.88,0,0,1-.36,0,1.19,1.19,0,0,0,.23-.75C55.63,300.23,55,299.69,54,299.69Z"/>
        <path class="cls-1" d="M57.38,304.64c0-2.73,2.08-5.65,4.91-5.65,1.6,0,2.56.74,2.56,2,0,1.88-2.16,2.69-6.13,2.9a7,7,0,0,0,0,.79c0,1.64.85,2.62,2.32,2.62a3.59,3.59,0,0,0,2.94-1.73l.3.16a3.9,3.9,0,0,1-3.63,2.38C58.54,308.07,57.38,306.73,57.38,304.64Zm1.45-1.4c2.63-.12,4.72-.43,4.72-2.41a1.11,1.11,0,0,0-1.26-1.14C60.45,299.69,59.23,301.37,58.83,303.24Z"/>
        <path class="cls-1" d="M66,307.83a.8.8,0,0,1-.85-.83,1,1,0,0,1,1.08-1,1.19,1.19,0,0,1,1.16,1.31,3.38,3.38,0,0,1-3.26,3.15l0-.47a2.58,2.58,0,0,0,2.3-2.32A.81.81,0,0,1,66,307.83Z"/>
        <path class="cls-1" d="M73.84,306.16a2.76,2.76,0,0,0-.07.45c0,.41.27.61.74.61a3.73,3.73,0,0,0,1.15-.23v.18a3.17,3.17,0,0,1-1.91.9,1.1,1.1,0,0,1-1.13-1.23,2.86,2.86,0,0,1,.09-.7L74,301a2.27,2.27,0,0,0,.05-.41c0-.63-.45-1-1-1.3v-.11h2.57ZM75.57,297a1,1,0,1,1,1-1A1,1,0,0,1,75.57,297Z"/>
        <path class="cls-1" d="M76.45,307.89l1.71-6.9a1.69,1.69,0,0,0,.06-.41c0-.63-.45-1-1-1.3v-.11h2.49l-.58,2.68A4.76,4.76,0,0,1,83,299a1.7,1.7,0,0,1,1.78,1.93,3.85,3.85,0,0,1-.13.95l-1.06,4.29a3.13,3.13,0,0,0-.07.45c0,.39.25.61.74.61A3.73,3.73,0,0,0,85.4,307v.18a3.17,3.17,0,0,1-1.91.9,1.12,1.12,0,0,1-1.17-1.25,3.54,3.54,0,0,1,.09-.68l1.06-4.21a2.68,2.68,0,0,0,.11-.76,1.09,1.09,0,0,0-1.19-1.24c-1.51,0-3.27,1.87-4,4.7l-.81,3.26Z"/>
        <path class="cls-1" d="M9.42,385.36H8.27l2.67-10.77a2.27,2.27,0,0,0,.05-.41c0-.63-.45-1-1-1.3v-.11h2.49L12,374.9a4,4,0,0,1,3.38-2.31c1.73,0,2.77,1.26,2.77,3.26,0,3-1.87,5.82-4.89,5.82a2.5,2.5,0,0,1-2.51-1.79Zm1.88-7.57a4.29,4.29,0,0,0-.11,1,2,2,0,0,0,2,2.18c2.29,0,3.66-2.67,3.66-5.08,0-1.49-.61-2.45-1.87-2.45-1.5,0-3.06,1.62-3.52,3.55Z"/>
        <path class="cls-1" d="M22.53,381.67a3.37,3.37,0,0,1-3.44-3.7c0-2.66,1.85-5.38,4.66-5.38a3.36,3.36,0,0,1,3.44,3.69C27.19,379,25.34,381.67,22.53,381.67Zm0-.74c1.89,0,3.37-2.34,3.37-4.85,0-1.69-.62-2.75-2.15-2.75-1.89,0-3.36,2.34-3.36,4.84C20.39,379.87,21,380.93,22.53,380.93Z"/>
        <path class="cls-1" d="M28.11,378.25c0-2.74,2.09-5.66,4.91-5.66,1.6,0,2.56.74,2.56,2,0,1.88-2.16,2.69-6.12,2.9a5.19,5.19,0,0,0-.06.8c0,1.63.85,2.61,2.33,2.61a3.57,3.57,0,0,0,2.93-1.73l.31.16a3.93,3.93,0,0,1-3.64,2.38C29.28,381.67,28.11,380.33,28.11,378.25Zm1.45-1.41c2.63-.13,4.72-.43,4.72-2.41A1.11,1.11,0,0,0,33,373.29C31.19,373.29,30,375,29.56,376.84Z"/>
        <path class="cls-1" d="M37.76,379.31a1.71,1.71,0,0,0-.08.5c0,.63.4.92,1.16.92a7,7,0,0,0,1.89-.34v.21a5.07,5.07,0,0,1-2.63,1.07,1.51,1.51,0,0,1-1.62-1.61,2.77,2.77,0,0,1,.09-.68L38,373.46H36.58l.13-.47c1.55-.36,2.25-1.39,2.95-3.17h.47l-.75,2.95H42l-.27.69H39.2Z"/>
        <path class="cls-1" d="M44.07,375.8c.81-1.53,2-3.21,3.48-3.21a1,1,0,0,1,1.1,1,1.17,1.17,0,0,1-1.23,1.17.92.92,0,0,0,.15-.45c0-.31-.22-.56-.67-.56-1.17,0-2.86,2.32-3.37,4.32l-.86,3.46H41.52l1.71-6.9a2.27,2.27,0,0,0,.05-.41c0-.63-.45-1-1-1.3v-.11h2.57Z"/>
        <path class="cls-1" d="M54.53,378.8a4.75,4.75,0,0,1-3.89,2.87,1.71,1.71,0,0,1-1.78-1.93,3.73,3.73,0,0,1,.13-.95l1-4.2a1.69,1.69,0,0,0,.06-.41c0-.63-.46-1-1-1.3v-.11h2.59l-1.49,6a3.49,3.49,0,0,0-.11.81c0,.76.36,1.24,1.15,1.24,1.51,0,3.3-1.85,4-4.77l.81-3.24h1.15l-2,7.94c-.72,2.9-2.2,4.83-4.88,4.83-1.73,0-2.9-.7-2.9-1.89a1.1,1.1,0,0,1,1.15-1.12,1.35,1.35,0,0,1,.44.07,1.22,1.22,0,0,0-.33.88c0,.87.56,1.43,1.64,1.43,2.12,0,3.13-1.75,3.76-4.29Z"/>
        <path class="cls-1" d="M62,379.76a2,2,0,0,0-.07.45c0,.41.27.61.73.61a3.78,3.78,0,0,0,1.16-.23v.18a3.2,3.2,0,0,1-1.91.9,1.1,1.1,0,0,1-1.14-1.23,3.44,3.44,0,0,1,.09-.7l1.28-5.15a1.69,1.69,0,0,0,.06-.41c0-.63-.45-1-1-1.3v-.11h2.58Zm1.73-9.13a1,1,0,1,1,1-1A1,1,0,0,1,63.75,370.63Z"/>
        <path class="cls-1" d="M66.43,379.31a2.05,2.05,0,0,0-.07.5c0,.63.39.92,1.15.92a7,7,0,0,0,1.89-.34v.21a5,5,0,0,1-2.63,1.07,1.51,1.51,0,0,1-1.62-1.61,3.35,3.35,0,0,1,.09-.68l1.46-5.92H65.26l.12-.47c1.55-.36,2.25-1.39,3-3.17h.46l-.75,2.95h2.57l-.27.69H67.87Z"/>
        <path class="cls-1" d="M74.63,379.76a2.76,2.76,0,0,0-.07.45c0,.41.27.61.74.61a3.68,3.68,0,0,0,1.15-.23v.18a3.15,3.15,0,0,1-1.91.9,1.1,1.1,0,0,1-1.13-1.23,3.44,3.44,0,0,1,.09-.7l1.28-5.15a1.63,1.63,0,0,0,0-.41c0-.63-.45-1-1-1.3v-.11h2.57Zm1.73-9.13a1,1,0,0,1,0-1.95,1,1,0,1,1,0,1.95Z"/>
        <path class="cls-1" d="M81.4,373.29c-1.17,0-1.9.56-1.9,1.44,0,.65.48,1.08,1.8,1.84,1.58.9,2.08,1.55,2.08,2.5,0,1.55-1.45,2.6-3.27,2.6s-3.21-1-3.21-2.13a1,1,0,0,1,1-1,1.49,1.49,0,0,1,.47.07,1.06,1.06,0,0,0-.26.72,1.73,1.73,0,0,0,2,1.64c1.15,0,2.14-.52,2.14-1.51,0-.63-.41-1.19-1.71-1.89s-2.16-1.39-2.16-2.49a2.74,2.74,0,0,1,3-2.5c1.75,0,2.83.83,2.83,1.87a1,1,0,0,1-1.11,1,2.1,2.1,0,0,1-.37,0,1.13,1.13,0,0,0,.24-.75C83,373.83,82.39,373.29,81.4,373.29Z"/>
        <path class="cls-1" d="M31.88,453.36a1.85,1.85,0,0,0-.07.41c0,.43.23.65.72.65a3.73,3.73,0,0,0,1.15-.23v.18a3.17,3.17,0,0,1-1.91.9A1.1,1.1,0,0,1,30.62,454a3.51,3.51,0,0,1,.23-1.06,3.67,3.67,0,0,1-3.13,2.31c-1.67,0-2.79-1.28-2.79-3.26,0-3,2.07-5.82,4.74-5.82a2.35,2.35,0,0,1,2.5,1.69,7,7,0,0,1,1.28-1.69h.21ZM31.57,450a4.9,4.9,0,0,0,.15-1.06,1.76,1.76,0,0,0-1.91-2c-2.14,0-3.58,2.3-3.58,5.06,0,1.47.68,2.45,1.78,2.45,1.51,0,2.88-1.64,3.38-3.73Z"/>
        <path class="cls-1" d="M38.86,453.36a2.76,2.76,0,0,0-.07.45c0,.41.25.61.74.61a3.73,3.73,0,0,0,1.15-.23v.18a3.17,3.17,0,0,1-1.91.9A1.11,1.11,0,0,1,37.6,454a3.62,3.62,0,0,1,.11-.7l2.43-9.92a1.7,1.7,0,0,0,.06-.42c0-.62-.46-.95-1-1.29v-.11h2.57Z"/>
        <path class="cls-1" d="M43,453.36a2,2,0,0,0-.08.45c0,.41.28.61.74.61a3.78,3.78,0,0,0,1.16-.23v.18a3.2,3.2,0,0,1-1.91.9A1.1,1.1,0,0,1,41.81,454a3.44,3.44,0,0,1,.09-.7l1.28-5.15a1.69,1.69,0,0,0,.06-.41c0-.63-.45-1-1-1.3v-.11h2.58Zm1.73-9.13a1,1,0,1,1,1-1A1,1,0,0,1,44.77,444.23Z"/>
        <path class="cls-1" d="M47.45,452.91a1.66,1.66,0,0,0-.07.5c0,.63.39.92,1.15.92a7,7,0,0,0,1.89-.34v.21a5.07,5.07,0,0,1-2.63,1.07,1.51,1.51,0,0,1-1.62-1.61,3.35,3.35,0,0,1,.09-.68l1.46-5.92H46.28l.12-.47c1.55-.36,2.25-1.39,3-3.17h.46l-.75,2.95h2.57l-.27.69H48.89Z"/>
        <path class="cls-1" d="M53,452.91a2.05,2.05,0,0,0-.07.5c0,.63.39.92,1.15.92A6.88,6.88,0,0,0,56,454v.21a5,5,0,0,1-2.63,1.07,1.51,1.51,0,0,1-1.62-1.61,3.35,3.35,0,0,1,.09-.68l1.46-5.92H51.84l.13-.47c1.54-.36,2.25-1.39,3-3.17h.47l-.76,2.95h2.58l-.27.69H54.45Z"/>
        <path class="cls-1" d="M58.3,453.36a2.76,2.76,0,0,0-.07.45c0,.41.25.61.74.61a3.73,3.73,0,0,0,1.15-.23v.18a3.17,3.17,0,0,1-1.91.9A1.11,1.11,0,0,1,57,454a3.62,3.62,0,0,1,.11-.7l2.43-9.92a1.65,1.65,0,0,0,.05-.42c0-.62-.45-.95-1-1.29v-.11h2.57Z"/>
        <path class="cls-1" d="M61,451.85c0-2.74,2.09-5.66,4.91-5.66,1.61,0,2.56.74,2.56,2,0,1.88-2.16,2.69-6.12,2.9a5.19,5.19,0,0,0-.06.8c0,1.63.85,2.61,2.33,2.61a3.56,3.56,0,0,0,2.93-1.73l.31.16a3.93,3.93,0,0,1-3.64,2.38C62.19,455.27,61,453.93,61,451.85Zm1.46-1.41c2.63-.13,4.72-.43,4.72-2.41a1.12,1.12,0,0,0-1.27-1.14C64.1,446.89,62.87,448.57,62.48,450.44Z"/>
        <path class="cls-1" d="M8.32,526.56A3.89,3.89,0,0,1,5,528.87c-1.73,0-2.86-1.26-2.86-3.26,0-3,2.11-5.82,4.86-5.82a2.45,2.45,0,0,1,2.54,1.78l1.1-4.55a1.55,1.55,0,0,0,.05-.42c0-.63-.43-1-1-1.29v-.11h2.57L9.38,527a3.13,3.13,0,0,0-.07.45c0,.41.23.61.72.61a3.73,3.73,0,0,0,1.15-.23V528a3.17,3.17,0,0,1-1.91.9,1.12,1.12,0,0,1-1.17-1.25A3.09,3.09,0,0,1,8.32,526.56Zm.72-2.9a4.78,4.78,0,0,0,.11-.95,2,2,0,0,0-2-2.18c-2.28,0-3.65,2.66-3.65,5.08,0,1.49.61,2.45,1.87,2.45,1.49,0,3.06-1.62,3.51-3.55Z"/>
        <path class="cls-1" d="M13.55,527a2.76,2.76,0,0,0-.07.45c0,.41.27.61.74.61a3.68,3.68,0,0,0,1.15-.23V528a3.15,3.15,0,0,1-1.91.9,1.1,1.1,0,0,1-1.13-1.23,3.44,3.44,0,0,1,.09-.7l1.28-5.15a1.63,1.63,0,0,0,.05-.41c0-.63-.45-1-1-1.3V520H15.3Zm1.73-9.13a1,1,0,0,1,0-2,1,1,0,1,1,0,2Z"/>
        <path class="cls-1" d="M16.85,530.13c-.43,1.67-1,2.61-2.31,2.61h-.1A9.36,9.36,0,0,0,16,528.9l2.05-8.24H16.78l.12-.47,1.37-.33.43-1.71c.51-2,1.75-3,3.33-3,1.28,0,1.95.55,1.95,1.29a1.13,1.13,0,0,1-1.21,1.12,2.11,2.11,0,0,1-.38,0,1.72,1.72,0,0,0,.4-1c0-.5-.27-.81-.94-.81-1.09,0-1.67.88-1.92,2.11L19.48,520h2.45l-.29.69H19.28Z"/>
        <path class="cls-1" d="M21.73,530.13c-.44,1.67-1,2.61-2.31,2.61h-.11a9.49,9.49,0,0,0,1.61-3.84l2-8.24H21.65l.13-.47,1.37-.33.43-1.71c.5-2,1.75-3,3.33-3,1.28,0,1.95.55,1.95,1.29a1.13,1.13,0,0,1-1.21,1.12,2.11,2.11,0,0,1-.38,0,1.72,1.72,0,0,0,.4-1c0-.5-.27-.81-.94-.81-1.1,0-1.67.88-1.93,2.11L24.36,520H26.8l-.28.69H24.16Z"/>
        <path class="cls-1" d="M26,525.45c0-2.74,2.09-5.66,4.91-5.66,1.6,0,2.56.74,2.56,2,0,1.88-2.16,2.69-6.12,2.9a5.1,5.1,0,0,0-.06.8c0,1.63.85,2.61,2.33,2.61a3.57,3.57,0,0,0,2.93-1.73l.31.16a3.93,3.93,0,0,1-3.64,2.38C27.2,528.87,26,527.53,26,525.45ZM27.49,524c2.63-.13,4.71-.43,4.71-2.41a1.11,1.11,0,0,0-1.26-1.14C29.11,520.49,27.88,522.17,27.49,524Z"/>
        <path class="cls-1" d="M36.43,523c.81-1.53,2-3.21,3.48-3.21a1,1,0,0,1,1.1,1,1.17,1.17,0,0,1-1.23,1.17.92.92,0,0,0,.15-.45c0-.31-.22-.56-.67-.56-1.17,0-2.86,2.32-3.37,4.32L35,528.69H33.88l1.71-6.9a2.27,2.27,0,0,0,0-.41c0-.63-.45-1-1-1.3V520h2.58Z"/>
        <path class="cls-1" d="M40.82,525.45c0-2.74,2.09-5.66,4.92-5.66,1.6,0,2.55.74,2.55,2,0,1.88-2.16,2.69-6.12,2.9a6.73,6.73,0,0,0-.05.8c0,1.63.84,2.61,2.32,2.61a3.59,3.59,0,0,0,2.94-1.73l.3.16A3.92,3.92,0,0,1,44,528.87C42,528.87,40.82,527.53,40.82,525.45ZM42.28,524c2.63-.13,4.72-.43,4.72-2.41a1.11,1.11,0,0,0-1.26-1.14C43.9,520.49,42.68,522.17,42.28,524Z"/>
        <path class="cls-1" d="M48.67,528.69l1.71-6.9a1.69,1.69,0,0,0,.06-.41c0-.63-.46-1-1-1.3V520h2.48l-.57,2.68a4.76,4.76,0,0,1,3.89-2.86A1.71,1.71,0,0,1,57,521.72a3.85,3.85,0,0,1-.13.95L55.8,527a3.13,3.13,0,0,0-.07.45c0,.39.25.61.74.61a3.73,3.73,0,0,0,1.15-.23V528a3.17,3.17,0,0,1-1.91.9,1.12,1.12,0,0,1-1.17-1.25,3.54,3.54,0,0,1,.09-.68l1.06-4.21a2.68,2.68,0,0,0,.11-.76,1.09,1.09,0,0,0-1.19-1.24c-1.51,0-3.27,1.87-4,4.7l-.81,3.26Z"/>
        <path class="cls-1" d="M60.08,526.51a2.05,2.05,0,0,0-.07.5c0,.63.4.92,1.15.92a6.88,6.88,0,0,0,1.89-.34v.21a5,5,0,0,1-2.62,1.07,1.52,1.52,0,0,1-1.63-1.61,3.35,3.35,0,0,1,.09-.68l1.46-5.92H58.91l.13-.47c1.55-.36,2.25-1.39,3-3.17h.47l-.76,3h2.58l-.27.69H61.52Z"/>
        <path class="cls-1" d="M69.64,517a1.7,1.7,0,0,0,.06-.42c0-.63-.46-1-1-1.29v-.11h2.57l-1.71,6.9a4,4,0,0,1,3.39-2.31c1.73,0,2.77,1.26,2.77,3.26,0,3-1.87,5.82-4.9,5.82a2.61,2.61,0,0,1-2.59-1.79,6.89,6.89,0,0,1-1.28,1.7h-.21Zm2.88,3.58c-1.49,0-3.06,1.62-3.51,3.55l-.2.85a4.73,4.73,0,0,0-.1,1,2,2,0,0,0,2,2.18c2.29,0,3.65-2.67,3.65-5.08C74.39,521.56,73.78,520.6,72.52,520.6Z"/>
        <path class="cls-1" d="M82.57,526a4.76,4.76,0,0,1-3.89,2.87,1.71,1.71,0,0,1-1.79-1.93,3.73,3.73,0,0,1,.13-1l1-4.2a1.69,1.69,0,0,0,.06-.41c0-.63-.45-1-1-1.3V520h2.6l-1.5,6a3.49,3.49,0,0,0-.11.81c0,.76.36,1.24,1.15,1.24,1.52,0,3.3-1.85,4-4.77l.81-3.24h1.15l-1.74,7a1.83,1.83,0,0,0-.06.41c0,.42.29.65.76.65a3.73,3.73,0,0,0,1.15-.23V528a3.17,3.17,0,0,1-1.91.9,1.12,1.12,0,0,1-1.17-1.25,3.35,3.35,0,0,1,.09-.68Z"/>
        <path class="cls-1" d="M87.88,526.51a1.71,1.71,0,0,0-.08.5c0,.63.4.92,1.16.92a7,7,0,0,0,1.89-.34v.21a5.07,5.07,0,0,1-2.63,1.07,1.51,1.51,0,0,1-1.62-1.61,2.77,2.77,0,0,1,.09-.68l1.45-5.92H86.7l.13-.47c1.55-.36,2.25-1.39,3-3.17h.47l-.76,3h2.58l-.27.69H89.31Z"/>
        <path class="cls-1" d="M26,596.25c.88-1.69,2.28-2.86,3.72-2.86a1.59,1.59,0,0,1,1.73,1.8,4.71,4.71,0,0,1-.14,1.08l-1.07,4.29a3.13,3.13,0,0,0-.07.45c0,.39.25.61.74.61a3.68,3.68,0,0,0,1.15-.23v.18a3.17,3.17,0,0,1-1.91.9A1.12,1.12,0,0,1,29,601.22a3.54,3.54,0,0,1,.09-.68l1.07-4.21a3.63,3.63,0,0,0,.12-.92c0-.67-.29-1.08-1.1-1.08-1.4,0-3.11,1.78-3.85,4.71l-.81,3.25H23.33l1.49-6a3.69,3.69,0,0,0,.13-.92c0-.67-.29-1.08-1.1-1.08-1.4,0-3.11,1.78-3.85,4.71l-.81,3.25H18l1.71-6.9a2.27,2.27,0,0,0,.05-.41c0-.63-.45-1-1-1.3v-.11h2.48l-.58,2.68c.89-1.69,2.29-2.86,3.73-2.86a1.63,1.63,0,0,1,1.71,1.86A3.9,3.9,0,0,1,26,596.25Z"/>
        <path class="cls-1" d="M36.29,602.47a3.37,3.37,0,0,1-3.44-3.69c0-2.67,1.86-5.39,4.67-5.39A3.36,3.36,0,0,1,41,597.08C41,599.75,39.1,602.47,36.29,602.47Zm0-.74c1.89,0,3.37-2.34,3.37-4.85,0-1.69-.62-2.75-2.14-2.75-1.9,0-3.37,2.34-3.37,4.84C34.15,600.67,34.76,601.73,36.29,601.73Z"/>
        <path class="cls-1" d="M44.23,596.6c.81-1.53,1.94-3.21,3.47-3.21a1,1,0,0,1,1.1,1,1.17,1.17,0,0,1-1.22,1.17.91.91,0,0,0,.14-.45c0-.31-.22-.56-.67-.56-1.17,0-2.86,2.32-3.36,4.32l-.87,3.46H41.67l1.71-6.9a1.69,1.69,0,0,0,.06-.41c0-.63-.46-1-1-1.3v-.11H45Z"/>
        <path class="cls-1" d="M48.62,599c0-2.73,2.09-5.65,4.91-5.65,1.61,0,2.56.74,2.56,2,0,1.88-2.16,2.69-6.12,2.9a5.16,5.16,0,0,0-.06.79c0,1.64.85,2.62,2.33,2.62a3.56,3.56,0,0,0,2.93-1.73l.31.16a3.93,3.93,0,0,1-3.64,2.38C49.79,602.47,48.62,601.13,48.62,599Zm1.46-1.4c2.63-.13,4.71-.43,4.71-2.41a1.11,1.11,0,0,0-1.26-1.14C51.7,594.09,50.47,595.77,50.08,597.64Z"/>
        <path class="cls-1" d="M63.51,594.09c-1.17,0-1.91.56-1.91,1.44,0,.65.48,1.08,1.8,1.84,1.58.9,2.09,1.55,2.09,2.5,0,1.55-1.46,2.6-3.28,2.6s-3.21-1-3.21-2.13a1,1,0,0,1,1-1,1.49,1.49,0,0,1,.47.07,1.06,1.06,0,0,0-.26.72,1.73,1.73,0,0,0,2,1.64c1.15,0,2.14-.52,2.14-1.51,0-.63-.41-1.19-1.71-1.89s-2.16-1.39-2.16-2.49c0-1.42,1.31-2.5,3-2.5s2.82.83,2.82,1.87a1,1,0,0,1-1.11,1,1.88,1.88,0,0,1-.36,0,1.19,1.19,0,0,0,.23-.75C65.09,594.63,64.5,594.09,63.51,594.09Z"/>
        <path class="cls-1" d="M70.29,602.47a3.37,3.37,0,0,1-3.44-3.69c0-2.67,1.86-5.39,4.67-5.39A3.36,3.36,0,0,1,75,597.08C75,599.75,73.1,602.47,70.29,602.47Zm0-.74c1.89,0,3.37-2.34,3.37-4.85,0-1.69-.62-2.75-2.14-2.75-1.9,0-3.37,2.34-3.37,4.84C68.15,600.67,68.76,601.73,70.29,601.73Z"/>
        <path class="cls-1" d="M20.83,674.16a1.85,1.85,0,0,0-.07.41c0,.43.23.65.72.65a3.73,3.73,0,0,0,1.15-.23v.18a3.17,3.17,0,0,1-1.91.9,1.1,1.1,0,0,1-1.15-1.25,3.51,3.51,0,0,1,.23-1.06,3.68,3.68,0,0,1-3.13,2.31c-1.68,0-2.79-1.28-2.79-3.26,0-3,2.07-5.82,4.73-5.82a2.35,2.35,0,0,1,2.51,1.69A7.26,7.26,0,0,1,22.39,667h.22Zm-.31-3.39a4.9,4.9,0,0,0,.15-1.06,1.76,1.76,0,0,0-1.91-2c-2.14,0-3.58,2.3-3.58,5.06,0,1.47.68,2.45,1.78,2.45,1.51,0,2.88-1.64,3.38-3.73Z"/>
        <path class="cls-1" d="M23.4,675.89l1.71-6.9a1.69,1.69,0,0,0,.06-.41c0-.63-.46-1-1-1.3v-.11h2.48l-.57,2.68A4.76,4.76,0,0,1,29.94,667a1.71,1.71,0,0,1,1.78,1.93,3.85,3.85,0,0,1-.13,1l-1.06,4.29a3.13,3.13,0,0,0-.07.45c0,.39.25.61.74.61a3.73,3.73,0,0,0,1.15-.23v.18a3.17,3.17,0,0,1-1.91.9,1.12,1.12,0,0,1-1.17-1.25,3.54,3.54,0,0,1,.09-.68l1.06-4.21a2.68,2.68,0,0,0,.11-.76,1.09,1.09,0,0,0-1.19-1.24c-1.51,0-3.27,1.87-4,4.7l-.81,3.26Z"/>
        <path class="cls-1" d="M39.26,673.76a3.87,3.87,0,0,1-3.3,2.31c-1.72,0-2.86-1.26-2.86-3.26,0-3,2.11-5.82,4.86-5.82a2.45,2.45,0,0,1,2.54,1.78l1.1-4.55a1.6,1.6,0,0,0,0-.42c0-.63-.43-.95-1-1.29v-.11H43.2l-2.88,11.76a3.13,3.13,0,0,0-.07.45c0,.41.23.61.72.61a3.73,3.73,0,0,0,1.15-.23v.18a3.17,3.17,0,0,1-1.91.9A1.12,1.12,0,0,1,39,674.82,3.34,3.34,0,0,1,39.26,673.76Zm.72-2.9a4.78,4.78,0,0,0,.11-1,2,2,0,0,0-2-2.18c-2.28,0-3.65,2.66-3.65,5.08,0,1.49.61,2.45,1.87,2.45,1.5,0,3.06-1.62,3.51-3.55Z"/>
        <path class="cls-1" d="M47.34,674.16a2,2,0,0,0-.07.45c0,.41.25.61.74.61a3.78,3.78,0,0,0,1.15-.23v.18a3.17,3.17,0,0,1-1.91.9,1.1,1.1,0,0,1-1.17-1.23,3,3,0,0,1,.11-.7l2.43-9.92a2.27,2.27,0,0,0,.05-.42c0-.63-.45-.95-1-1.29v-.11h2.57Z"/>
        <path class="cls-1" d="M57,674.16a1.85,1.85,0,0,0-.07.41c0,.43.23.65.72.65a3.73,3.73,0,0,0,1.15-.23v.18a3.17,3.17,0,0,1-1.91.9,1.1,1.1,0,0,1-1.15-1.25,3.51,3.51,0,0,1,.23-1.06,3.67,3.67,0,0,1-3.13,2.31c-1.67,0-2.79-1.28-2.79-3.26,0-3,2.07-5.82,4.74-5.82a2.35,2.35,0,0,1,2.5,1.69A7,7,0,0,1,58.56,667h.21Zm-.31-3.39a4.9,4.9,0,0,0,.15-1.06,1.76,1.76,0,0,0-1.91-2c-2.14,0-3.58,2.3-3.58,5.06,0,1.47.68,2.45,1.78,2.45,1.51,0,2.88-1.64,3.38-3.73Z"/>
        <path class="cls-1" d="M61.36,673.71a2.05,2.05,0,0,0-.07.5c0,.63.4.92,1.15.92a6.88,6.88,0,0,0,1.89-.34V675a5,5,0,0,1-2.63,1.07,1.51,1.51,0,0,1-1.62-1.61,3.35,3.35,0,0,1,.09-.68l1.46-5.92H60.19l.13-.47c1.55-.36,2.25-1.39,3-3.17h.47L63,667.17h2.58l-.27.69H62.8Z"/>
        <path class="cls-1" d="M65.23,672.64c0-2.73,2.09-5.65,4.92-5.65,1.6,0,2.55.74,2.55,2,0,1.88-2.16,2.69-6.12,2.9a7,7,0,0,0,0,.79c0,1.64.85,2.62,2.32,2.62a3.59,3.59,0,0,0,2.94-1.73l.3.16a3.91,3.91,0,0,1-3.63,2.38C66.4,676.07,65.23,674.73,65.23,672.64Zm1.46-1.4c2.63-.12,4.72-.43,4.72-2.41a1.11,1.11,0,0,0-1.26-1.14C68.31,667.69,67.09,669.37,66.69,671.24Z"/>
        <path class="cls-1" d="M75.64,670.2c.81-1.53,1.94-3.21,3.47-3.21a1,1,0,0,1,1.1,1A1.17,1.17,0,0,1,79,669.12a.91.91,0,0,0,.14-.45c0-.31-.22-.56-.67-.56-1.17,0-2.86,2.32-3.36,4.32l-.87,3.46H73.08l1.71-6.9a1.63,1.63,0,0,0,0-.41c0-.63-.45-1-1-1.3v-.11h2.57Z"/>
        <path class="cls-1" d="M22.57,738.86a3.38,3.38,0,0,0,.13-.79c0-.54-.27-.74-.81-1.06v-.13h3.48V737a2.19,2.19,0,0,0-1.59,1.85l-2.16,8.65a4,4,0,0,0-.13.79c0,.54.27.74.81,1.06v.13H18.83v-.13a2.2,2.2,0,0,0,1.58-1.85Z"/>
        <path class="cls-1" d="M33.62,742.59a1.56,1.56,0,0,0,.06-.41c0-.63-.43-1-1-1.3v-.11h2.58L34,745.83a5.25,5.25,0,0,0-.2,1.42c0,1,.43,1.61,1.33,1.61,2.2,0,3.69-3.33,3.69-5.77,0-.88-.34-1.38-1.15-1.38a1.8,1.8,0,0,0-.86.2,1.43,1.43,0,0,1,1.38-1.32c1.1,0,1.59.92,1.59,2.07,0,3.13-2.07,7-5,7-1.31,0-2-.89-2-2.33a3.45,3.45,0,0,1-3.08,2.33,2,2,0,0,1-2.13-2.31,6.29,6.29,0,0,1,.2-1.4l.83-3.37a1.63,1.63,0,0,0,0-.41c0-.63-.45-1-1-1.3v-.11h2.57l-1.29,5.17a5.73,5.73,0,0,0-.2,1.37c0,1,.47,1.55,1.37,1.55,1.47,0,2.5-1.7,2.9-3.32Z"/>
        <path class="cls-1" d="M42,747.76a2,2,0,0,0-.07.45c0,.41.27.61.73.61a3.78,3.78,0,0,0,1.16-.23v.18a3.17,3.17,0,0,1-1.91.9,1.1,1.1,0,0,1-1.14-1.23,3.44,3.44,0,0,1,.09-.7l1.28-5.15a1.69,1.69,0,0,0,.06-.41c0-.63-.45-1-1-1.3v-.11h2.58Zm1.73-9.13a1,1,0,1,1,1-1A1,1,0,0,1,43.69,738.63Z"/>
        <path class="cls-1" d="M46.1,747.76a2,2,0,0,0-.07.45c0,.41.25.61.74.61a3.78,3.78,0,0,0,1.15-.23v.18a3.2,3.2,0,0,1-1.91.9,1.1,1.1,0,0,1-1.17-1.23,3,3,0,0,1,.11-.7l2.43-9.92a2.27,2.27,0,0,0,0-.42c0-.63-.45-.95-1-1.29V736H49Z"/>
        <path class="cls-1" d="M50.24,747.76a2,2,0,0,0-.07.45c0,.41.25.61.73.61a3.78,3.78,0,0,0,1.16-.23v.18a3.2,3.2,0,0,1-1.91.9A1.1,1.1,0,0,1,49,748.44a3,3,0,0,1,.11-.7l2.43-9.92a2.27,2.27,0,0,0,0-.42c0-.63-.45-.95-1-1.29V736h2.58Z"/>
        <path class="cls-1" d="M62,747.4a3.83,3.83,0,0,1-3.28,2.27c-1.73,0-2.86-1.26-2.86-3.26,0-3,2.1-5.82,4.86-5.82a2.51,2.51,0,0,1,2.61,1.73,7.57,7.57,0,0,1,1.29-1.73h.22l-2.23,9c-.65,2.63-2.11,4-4.58,4-1.81,0-3.2-.9-3.2-2.16a1.06,1.06,0,0,1,1.08-1.16,1.44,1.44,0,0,1,.45.09,1.31,1.31,0,0,0-.32.89c0,.93.7,1.69,2,1.69,2,0,2.92-1.32,3.44-3.39Zm.73-2.94a4.14,4.14,0,0,0,.11-1,2,2,0,0,0-2-2.18c-2.29,0-3.66,2.66-3.66,5.08,0,1.49.61,2.45,1.87,2.45,1.5,0,3.07-1.62,3.52-3.55Z"/>
        <path class="cls-1" d="M68.67,749.67a3.37,3.37,0,0,1-3.44-3.7c0-2.66,1.85-5.38,4.66-5.38a3.36,3.36,0,0,1,3.44,3.69C73.33,747,71.48,749.67,68.67,749.67Zm0-.74c1.89,0,3.37-2.34,3.37-4.85,0-1.69-.62-2.75-2.15-2.75-1.89,0-3.36,2.34-3.36,4.84C66.53,747.87,67.14,748.93,68.67,748.93Z"/>
        <path class="cls-1" d="M15.39,821.36a2.76,2.76,0,0,0-.07.45c0,.41.27.61.74.61a3.73,3.73,0,0,0,1.15-.23v.18a3.17,3.17,0,0,1-1.91.9A1.09,1.09,0,0,1,14.17,822a2.86,2.86,0,0,1,.09-.7l1.28-5.15a2.27,2.27,0,0,0,.05-.41c0-.63-.45-1-1-1.3v-.11h2.58Zm1.73-9.13a1,1,0,1,1,1-1A1,1,0,0,1,17.12,812.23Z"/>
        <path class="cls-1" d="M18,823.09l1.71-6.9a1.69,1.69,0,0,0,.06-.41c0-.63-.46-1-1-1.3v-.11h2.48l-.57,2.68a4.76,4.76,0,0,1,3.89-2.86,1.71,1.71,0,0,1,1.78,1.93,3.85,3.85,0,0,1-.13,1l-1.06,4.29a3.13,3.13,0,0,0-.07.45c0,.39.25.61.74.61a3.73,3.73,0,0,0,1.15-.23v.18a3.17,3.17,0,0,1-1.91.9A1.12,1.12,0,0,1,23.87,822a3.54,3.54,0,0,1,.09-.68L25,817.13a2.68,2.68,0,0,0,.11-.76,1.09,1.09,0,0,0-1.19-1.24c-1.51,0-3.27,1.87-4,4.7l-.81,3.26Z"/>
        <path class="cls-1" d="M29.41,820.91a2.05,2.05,0,0,0-.07.5c0,.63.4.92,1.15.92a6.88,6.88,0,0,0,1.89-.34v.21a5,5,0,0,1-2.63,1.07,1.51,1.51,0,0,1-1.62-1.61,3.35,3.35,0,0,1,.09-.68l1.46-5.92H28.24l.13-.47c1.55-.36,2.25-1.39,2.95-3.17h.47l-.76,3h2.58l-.27.69H30.85Z"/>
        <path class="cls-1" d="M36.74,823.27a3.36,3.36,0,0,1-3.44-3.69c0-2.67,1.85-5.39,4.66-5.39a3.36,3.36,0,0,1,3.44,3.69C41.4,820.55,39.55,823.27,36.74,823.27Zm0-.74c1.89,0,3.37-2.34,3.37-4.84,0-1.7-.62-2.76-2.15-2.76-1.89,0-3.36,2.34-3.36,4.84C34.6,821.47,35.21,822.53,36.74,822.53Z"/>
        <path class="cls-1" d="M46.8,820.91a2.05,2.05,0,0,0-.07.5c0,.63.39.92,1.15.92a6.88,6.88,0,0,0,1.89-.34v.21a5,5,0,0,1-2.63,1.07,1.51,1.51,0,0,1-1.62-1.61,3.35,3.35,0,0,1,.09-.68l1.46-5.92H45.63l.13-.47c1.54-.36,2.25-1.39,3-3.17h.47l-.76,3H51l-.27.69H48.24Z"/>
        <path class="cls-1" d="M53.21,817.05a4.76,4.76,0,0,1,3.89-2.86,1.71,1.71,0,0,1,1.78,1.93,3.73,3.73,0,0,1-.13,1l-1.06,4.29a3.13,3.13,0,0,0-.07.45c0,.39.25.61.74.61a3.73,3.73,0,0,0,1.15-.23v.18a3.17,3.17,0,0,1-1.91.9A1.12,1.12,0,0,1,56.43,822a3.54,3.54,0,0,1,.09-.68l1.06-4.21a2.68,2.68,0,0,0,.11-.76,1.09,1.09,0,0,0-1.19-1.24c-1.51,0-3.27,1.87-4,4.7l-.82,3.26H50.56l2.9-11.67a1.7,1.7,0,0,0,.06-.42c0-.62-.46-1-1-1.29v-.11h2.57Z"/>
        <path class="cls-1" d="M67.21,821.36a2.7,2.7,0,0,0-.07.41c0,.43.24.65.72.65a3.78,3.78,0,0,0,1.16-.23v.18a3.2,3.2,0,0,1-1.91.9A1.1,1.1,0,0,1,66,822a3.23,3.23,0,0,1,.23-1.06,3.69,3.69,0,0,1-3.14,2.31c-1.67,0-2.79-1.28-2.79-3.26,0-3,2.08-5.82,4.74-5.82a2.34,2.34,0,0,1,2.5,1.69,7,7,0,0,1,1.28-1.69H69Zm-.3-3.39a4.83,4.83,0,0,0,.14-1.06,1.76,1.76,0,0,0-1.91-2c-2.14,0-3.58,2.3-3.58,5.06,0,1.47.68,2.45,1.78,2.45,1.52,0,2.88-1.64,3.39-3.73Z"/>
        <path class="cls-1" d="M71.59,820.91a1.66,1.66,0,0,0-.07.5c0,.63.39.92,1.15.92a7,7,0,0,0,1.89-.34v.21a5.07,5.07,0,0,1-2.63,1.07,1.51,1.51,0,0,1-1.62-1.61,3.35,3.35,0,0,1,.09-.68l1.46-5.92H70.42l.12-.47c1.55-.36,2.25-1.39,3-3.17H74l-.75,3h2.57l-.27.69H73Z"/>
        <path class="cls-1" d="M76.72,823.25a1.07,1.07,0,1,1,1.06-1.06A1.06,1.06,0,0,1,76.72,823.25Z"/>
        <path class="cls-1" d="M16.85,884.08c2.32,0,3.78.78,3.78,2.52,0,2.27-1.78,3.39-4,3.59v0c1.87.07,3.06.88,3.06,2.47,0,2.83-2.61,4-5.4,4h-5v-.13a2.2,2.2,0,0,0,1.58-1.85L13,886.06a4,4,0,0,0,.13-.79c0-.54-.27-.74-.81-1.06v-.13Zm-3.8,6.47L11.68,896h2.74c2.27,0,3.94-1.15,3.94-3.33,0-1.57-1-2.14-2.93-2.14Zm.16-.65h2.22c2.09,0,3.91-1,3.91-3.28,0-1.31-.92-1.87-2.6-1.87H14.49Z"/>
        <path class="cls-1" d="M26.93,894A4.75,4.75,0,0,1,23,896.87a1.7,1.7,0,0,1-1.78-1.93,3.69,3.69,0,0,1,.12-1l1.05-4.2a2.27,2.27,0,0,0,.05-.41c0-.63-.45-1-1-1.3V888h2.59l-1.5,6a3.44,3.44,0,0,0-.1.81c0,.76.36,1.24,1.15,1.24,1.51,0,3.29-1.85,4-4.77l.81-3.24h1.15l-1.75,7a1.74,1.74,0,0,0,0,.41c0,.42.28.65.75.65a3.78,3.78,0,0,0,1.16-.23V896a3.2,3.2,0,0,1-1.91.9,1.11,1.11,0,0,1-1.17-1.25,2.77,2.77,0,0,1,.09-.68Z"/>
        <path class="cls-1" d="M32.24,894.51a1.66,1.66,0,0,0-.07.5c0,.63.39.92,1.15.92a7,7,0,0,0,1.89-.34v.21a5.07,5.07,0,0,1-2.63,1.07A1.51,1.51,0,0,1,31,895.26a3.35,3.35,0,0,1,.09-.68l1.46-5.92H31.07l.12-.47c1.55-.36,2.25-1.39,3-3.17h.47l-.76,3h2.57l-.27.69H33.68Z"/>
        <path class="cls-1" d="M40.68,894.51a2.05,2.05,0,0,0-.07.5c0,.63.39.92,1.15.92a6.88,6.88,0,0,0,1.89-.34v.21A5,5,0,0,1,41,896.87a1.51,1.51,0,0,1-1.62-1.61,3.35,3.35,0,0,1,.09-.68L41,888.66H39.51l.13-.47c1.54-.36,2.25-1.39,3-3.17h.47l-.76,3h2.58l-.27.69H42.12Z"/>
        <path class="cls-1" d="M47.09,890.65A4.76,4.76,0,0,1,51,887.79a1.71,1.71,0,0,1,1.78,1.93,3.73,3.73,0,0,1-.13.95L51.57,895a3.13,3.13,0,0,0-.07.45c0,.39.25.61.74.61a3.73,3.73,0,0,0,1.15-.23V896a3.17,3.17,0,0,1-1.91.9,1.12,1.12,0,0,1-1.17-1.25,3.54,3.54,0,0,1,.09-.68l1.06-4.21a2.68,2.68,0,0,0,.11-.76,1.09,1.09,0,0,0-1.19-1.24c-1.51,0-3.27,1.87-4,4.7l-.81,3.26H44.44L47.34,885a1.65,1.65,0,0,0,0-.42c0-.63-.44-1-1-1.29v-.11h2.57Z"/>
        <path class="cls-1" d="M61.09,895a2.7,2.7,0,0,0-.07.41c0,.43.24.65.72.65a3.68,3.68,0,0,0,1.15-.23V896a3.15,3.15,0,0,1-1.9.9,1.1,1.1,0,0,1-1.16-1.25,3.27,3.27,0,0,1,.24-1.06,3.69,3.69,0,0,1-3.14,2.31c-1.67,0-2.79-1.28-2.79-3.26,0-3,2.07-5.82,4.74-5.82a2.34,2.34,0,0,1,2.5,1.69,7,7,0,0,1,1.28-1.69h.22Zm-.3-3.39a4.83,4.83,0,0,0,.14-1.06,1.76,1.76,0,0,0-1.91-2c-2.14,0-3.58,2.3-3.58,5.06,0,1.47.68,2.45,1.78,2.45,1.51,0,2.88-1.64,3.39-3.73Z"/>
        <path class="cls-1" d="M65.47,894.51a1.71,1.71,0,0,0-.08.5c0,.63.4.92,1.16.92a7,7,0,0,0,1.89-.34v.21a5.07,5.07,0,0,1-2.63,1.07,1.51,1.51,0,0,1-1.62-1.61,2.77,2.77,0,0,1,.09-.68l1.46-5.92H64.29l.13-.47c1.55-.36,2.25-1.39,3-3.17h.46l-.75,3h2.57l-.27.69H66.91Z"/>
        <path class="cls-1" d="M73.67,895a2.76,2.76,0,0,0-.07.45c0,.41.27.61.74.61a3.73,3.73,0,0,0,1.15-.23V896a3.17,3.17,0,0,1-1.91.9,1.1,1.1,0,0,1-1.13-1.23,2.86,2.86,0,0,1,.09-.7l1.28-5.15a2.27,2.27,0,0,0,.05-.41c0-.63-.45-1-1-1.3V888h2.57Zm1.73-9.13a1,1,0,0,1,0-2,1,1,0,1,1,0,2Z"/>
        <path class="cls-1" d="M80.44,888.49c-1.17,0-1.91.56-1.91,1.44,0,.65.49,1.08,1.8,1.84,1.59.9,2.09,1.55,2.09,2.5,0,1.55-1.46,2.6-3.27,2.6s-3.21-1-3.21-2.13a1,1,0,0,1,1-1,1.41,1.41,0,0,1,.47.07,1.11,1.11,0,0,0-.25.72,1.72,1.72,0,0,0,2,1.64c1.15,0,2.14-.52,2.14-1.51,0-.63-.41-1.19-1.71-1.89s-2.16-1.39-2.16-2.49a2.74,2.74,0,0,1,3-2.5c1.75,0,2.83.83,2.83,1.87a1,1,0,0,1-1.12,1,2.09,2.09,0,0,1-.36,0,1.13,1.13,0,0,0,.24-.75C82,889,81.43,888.49,80.44,888.49Z"/>
        <path class="cls-1" d="M15.87,968.11a1.71,1.71,0,0,0-.08.5c0,.63.4.92,1.16.92a7,7,0,0,0,1.89-.34v.21a5.07,5.07,0,0,1-2.63,1.07,1.51,1.51,0,0,1-1.62-1.61,2.77,2.77,0,0,1,.09-.68l1.46-5.92H14.7l.12-.47c1.55-.36,2.25-1.39,3-3.17h.46l-.75,3h2.57l-.27.69H17.31Z"/>
        <path class="cls-1" d="M22.28,964.25a4.74,4.74,0,0,1,3.89-2.86A1.71,1.71,0,0,1,28,963.32a3.73,3.73,0,0,1-.13.95l-1.06,4.29a2.16,2.16,0,0,0-.07.45c0,.39.25.61.74.61a3.78,3.78,0,0,0,1.15-.23v.18a3.17,3.17,0,0,1-1.91.9,1.11,1.11,0,0,1-1.17-1.25,3.54,3.54,0,0,1,.09-.68l1.06-4.21a3.1,3.1,0,0,0,.11-.76,1.09,1.09,0,0,0-1.19-1.24c-1.51,0-3.28,1.87-4,4.7l-.81,3.26H19.63l2.9-11.67a2.27,2.27,0,0,0,0-.41c0-.64-.45-1-1-1.3v-.11h2.57Z"/>
        <path class="cls-1" d="M29.35,967c0-2.73,2.09-5.65,4.91-5.65,1.61,0,2.56.74,2.56,2,0,1.88-2.16,2.69-6.12,2.9a5.16,5.16,0,0,0-.06.79c0,1.64.85,2.62,2.33,2.62a3.56,3.56,0,0,0,2.93-1.73l.31.16a3.93,3.93,0,0,1-3.64,2.38C30.52,970.47,29.35,969.13,29.35,967Zm1.46-1.4c2.63-.13,4.72-.43,4.72-2.41a1.12,1.12,0,0,0-1.27-1.14C32.43,962.09,31.2,963.77,30.81,965.64Z"/>
        <path class="cls-1" d="M46.67,963.39a2.08,2.08,0,0,0,0-.41c0-.63-.43-1-1-1.3v-.11h2.57L47,966.63a5.68,5.68,0,0,0-.2,1.42c0,1,.43,1.61,1.33,1.61,2.2,0,3.69-3.34,3.69-5.77,0-.88-.34-1.38-1.15-1.38a1.8,1.8,0,0,0-.86.2,1.44,1.44,0,0,1,1.39-1.32c1.09,0,1.58.92,1.58,2.07,0,3.14-2.07,7-5,7-1.31,0-2-.89-2-2.33a3.45,3.45,0,0,1-3.08,2.33,2,2,0,0,1-2.13-2.31,6.29,6.29,0,0,1,.2-1.4l.83-3.37a1.63,1.63,0,0,0,0-.41c0-.63-.44-1-1-1.3v-.11h2.57l-1.29,5.17a5.73,5.73,0,0,0-.2,1.37c0,1,.47,1.55,1.37,1.55,1.47,0,2.5-1.7,2.9-3.32Z"/>
        <path class="cls-1" d="M60.47,968.56a2.7,2.7,0,0,0-.07.41c0,.43.23.65.72.65a3.68,3.68,0,0,0,1.15-.23v.18a3.18,3.18,0,0,1-1.9.9,1.1,1.1,0,0,1-1.16-1.25,3.27,3.27,0,0,1,.24-1.06,3.69,3.69,0,0,1-3.14,2.31c-1.67,0-2.79-1.28-2.79-3.26,0-3,2.07-5.82,4.74-5.82a2.35,2.35,0,0,1,2.5,1.69A7,7,0,0,1,62,961.39h.22Zm-.3-3.39a4.83,4.83,0,0,0,.14-1.06,1.76,1.76,0,0,0-1.91-2c-2.14,0-3.58,2.3-3.58,5.06,0,1.47.68,2.45,1.78,2.45,1.52,0,2.88-1.64,3.39-3.73Z"/>
        <path class="cls-1" d="M69.22,967.6a4.75,4.75,0,0,1-3.89,2.87,1.7,1.7,0,0,1-1.78-1.93,3.69,3.69,0,0,1,.12-.95l1-4.2a1.63,1.63,0,0,0,0-.41c0-.63-.45-1-1-1.3v-.11h2.59l-1.49,6a3,3,0,0,0-.11.81c0,.76.36,1.24,1.15,1.24,1.51,0,3.29-1.85,4-4.77l.81-3.24h1.16l-2,7.94c-.72,2.9-2.2,4.83-4.88,4.83-1.73,0-2.9-.71-2.9-1.89a1.1,1.1,0,0,1,1.15-1.12,1.29,1.29,0,0,1,.43.07,1.27,1.27,0,0,0-.32.89c0,.86.56,1.42,1.64,1.42,2.12,0,3.13-1.75,3.76-4.29Z"/>
        <path class="cls-1" d="M78.06,959.66a3.9,3.9,0,0,0,.12-.79c0-.54-.27-.74-.81-1.06v-.13h3.48v.13a2.19,2.19,0,0,0-1.59,1.85l-2.16,8.65a3.9,3.9,0,0,0-.12.79c0,.54.27.74.81,1.06v.13H74.31v-.13a2.2,2.2,0,0,0,1.59-1.85Z"/>
        <path class="cls-1" d="M13.05,1045.33c-.43,1.67-1,2.61-2.3,2.61h-.11a9.36,9.36,0,0,0,1.6-3.84l2-8.24H13l.13-.47,1.36-.33.44-1.71c.5-2,1.74-3,3.33-3,1.28,0,1.94.55,1.94,1.29a1.12,1.12,0,0,1-1.21,1.12,2,2,0,0,1-.37,0,1.78,1.78,0,0,0,.39-1c0-.5-.27-.81-.93-.81-1.1,0-1.68.88-1.93,2.11l-.45,2.14h2.45l-.29.69H15.48Z"/>
        <path class="cls-1" d="M17.35,1040.64c0-2.73,2.09-5.65,4.92-5.65,1.6,0,2.55.74,2.55,2,0,1.88-2.16,2.69-6.12,2.9a7,7,0,0,0-.05.79c0,1.64.85,2.62,2.32,2.62a3.59,3.59,0,0,0,2.94-1.73l.3.16a3.91,3.91,0,0,1-3.63,2.38C18.52,1044.07,17.35,1042.73,17.35,1040.64Zm1.46-1.4c2.63-.12,4.72-.43,4.72-2.41a1.11,1.11,0,0,0-1.26-1.14C20.43,1035.69,19.21,1037.37,18.81,1039.24Z"/>
        <path class="cls-1" d="M26.73,1042.16a2,2,0,0,0-.07.45c0,.41.25.61.74.61a3.73,3.73,0,0,0,1.15-.23v.18a3.17,3.17,0,0,1-1.91.9,1.1,1.1,0,0,1-1.17-1.23,3,3,0,0,1,.11-.7l2.43-9.92a2.27,2.27,0,0,0,0-.42c0-.63-.45-1-1-1.29v-.11h2.57Z"/>
        <path class="cls-1" d="M31.14,1041.71a2.05,2.05,0,0,0-.07.5c0,.63.39.92,1.15.92a6.88,6.88,0,0,0,1.89-.34v.21a5,5,0,0,1-2.63,1.07,1.51,1.51,0,0,1-1.62-1.61,3.35,3.35,0,0,1,.09-.68l1.46-5.92H30l.13-.47c1.54-.36,2.25-1.39,2.95-3.17h.47l-.76,3h2.58l-.28.69H32.58Z"/>
        <path class="cls-1" d="M44.82,1042.16a2.7,2.7,0,0,0-.07.41c0,.43.23.65.72.65a3.73,3.73,0,0,0,1.15-.23v.18a3.17,3.17,0,0,1-1.91.9,1.1,1.1,0,0,1-1.15-1.25,3.51,3.51,0,0,1,.23-1.06,3.67,3.67,0,0,1-3.13,2.31c-1.67,0-2.79-1.28-2.79-3.26,0-3,2.07-5.82,4.74-5.82a2.35,2.35,0,0,1,2.5,1.69,7,7,0,0,1,1.28-1.69h.22Zm-.3-3.39a4.83,4.83,0,0,0,.14-1.06,1.76,1.76,0,0,0-1.91-2c-2.14,0-3.58,2.3-3.58,5.06,0,1.47.68,2.45,1.78,2.45,1.51,0,2.88-1.64,3.39-3.73Z"/>
        <path class="cls-1" d="M50.31,1032.22a1.65,1.65,0,0,0,0-.42c0-.63-.45-1-1-1.29v-.11h2.57l-1.71,6.9a4,4,0,0,1,3.39-2.31c1.73,0,2.77,1.26,2.77,3.26,0,3-1.87,5.82-4.9,5.82a2.6,2.6,0,0,1-2.59-1.79,6.89,6.89,0,0,1-1.28,1.7h-.21Zm2.88,3.58c-1.49,0-3.06,1.62-3.51,3.55l-.2.85a4.78,4.78,0,0,0-.11,1,2,2,0,0,0,2,2.18c2.29,0,3.65-2.67,3.65-5.08C55.06,1036.76,54.45,1035.8,53.19,1035.8Z"/>
        <path class="cls-1" d="M60.71,1044.07a3.36,3.36,0,0,1-3.43-3.69c0-2.67,1.85-5.39,4.66-5.39a3.36,3.36,0,0,1,3.44,3.69C65.38,1041.35,63.52,1044.07,60.71,1044.07Zm0-.74c1.9,0,3.37-2.34,3.37-4.85,0-1.69-.61-2.75-2.14-2.75-1.89,0-3.37,2.34-3.37,4.84C58.57,1042.27,59.18,1043.33,60.71,1043.33Z"/>
        <path class="cls-1" d="M72.27,1041.2a4.75,4.75,0,0,1-3.89,2.87,1.71,1.71,0,0,1-1.78-1.93,3.69,3.69,0,0,1,.12-1l1-4.2a1.63,1.63,0,0,0,0-.41c0-.63-.45-1-1-1.3v-.11h2.59l-1.49,6a3,3,0,0,0-.11.81c0,.76.36,1.24,1.15,1.24,1.51,0,3.29-1.85,4-4.77l.81-3.24h1.15l-1.75,7a1.74,1.74,0,0,0,0,.41c0,.42.29.65.75.65A3.78,3.78,0,0,0,75,1043v.18a3.2,3.2,0,0,1-1.91.9,1.11,1.11,0,0,1-1.17-1.25,2.77,2.77,0,0,1,.09-.68Z"/>
        <path class="cls-1" d="M77.58,1041.71a2.05,2.05,0,0,0-.07.5c0,.63.39.92,1.15.92a6.94,6.94,0,0,0,1.89-.34v.21a5,5,0,0,1-2.63,1.07,1.51,1.51,0,0,1-1.62-1.61,3.35,3.35,0,0,1,.09-.68l1.46-5.92H76.41l.13-.47c1.54-.36,2.25-1.39,2.95-3.17H80l-.76,3h2.57l-.27.69H79Z"/>
        <path class="cls-1" d="M2.17,1121.36H1l2.66-10.77a1.69,1.69,0,0,0,.06-.41c0-.64-.45-1-1-1.3v-.11H5.2l-.44,2.13a4,4,0,0,1,3.39-2.31c1.73,0,2.77,1.26,2.77,3.26,0,3-1.87,5.82-4.9,5.82a2.49,2.49,0,0,1-2.5-1.79ZM4,1113.79a5,5,0,0,0-.11,1,2,2,0,0,0,2,2.18c2.29,0,3.65-2.67,3.65-5.08,0-1.49-.61-2.45-1.87-2.45-1.49,0-3.06,1.62-3.51,3.55Z"/>
        <path class="cls-1" d="M17.79,1114.8a4.73,4.73,0,0,1-3.88,2.87,1.71,1.71,0,0,1-1.79-1.93,3.73,3.73,0,0,1,.13-1l1-4.2a1.69,1.69,0,0,0,.06-.41c0-.64-.45-1-1-1.3v-.11h2.59l-1.49,6a3.49,3.49,0,0,0-.11.81c0,.76.36,1.24,1.15,1.24,1.52,0,3.3-1.85,4-4.77l.81-3.24h1.15l-1.74,7a1.76,1.76,0,0,0-.06.41c0,.42.29.65.76.65a3.73,3.73,0,0,0,1.15-.23v.18a3.17,3.17,0,0,1-1.91.9,1.11,1.11,0,0,1-1.17-1.25,3.35,3.35,0,0,1,.09-.68Z"/>
        <path class="cls-1" d="M21.3,1117.49l1.71-6.9a1.69,1.69,0,0,0,.06-.41c0-.64-.45-1-1-1.3v-.11h2.49l-.58,2.68a4.76,4.76,0,0,1,3.89-2.86,1.71,1.71,0,0,1,1.78,1.93,3.85,3.85,0,0,1-.13,1l-1.06,4.29a3.13,3.13,0,0,0-.07.45c0,.39.25.61.74.61a3.73,3.73,0,0,0,1.15-.23v.18a3.17,3.17,0,0,1-1.91.9,1.12,1.12,0,0,1-1.17-1.25,3.54,3.54,0,0,1,.09-.68l1.06-4.21a2.68,2.68,0,0,0,.11-.76,1.09,1.09,0,0,0-1.19-1.24c-1.51,0-3.27,1.87-4,4.7l-.81,3.26Z"/>
        <path class="cls-1" d="M35.87,1109.29c-2.24,0-3.55,2.54-3.55,4.88,0,1.64.83,2.67,2.29,2.67a3.41,3.41,0,0,0,2.82-1.73l.31.18a3.8,3.8,0,0,1-3.53,2.38c-2,0-3.19-1.41-3.19-3.5,0-2.88,2.09-5.58,4.85-5.58,1.51,0,2.55.72,2.55,1.8a1,1,0,0,1-1,1.1.88.88,0,0,1-.45-.11,1.23,1.23,0,0,0,.27-.9C37.2,1109.8,36.8,1109.29,35.87,1109.29Z"/>
        <path class="cls-1" d="M40.53,1115.31a1.66,1.66,0,0,0-.07.5c0,.63.39.92,1.15.92a7,7,0,0,0,1.89-.34v.21a5.07,5.07,0,0,1-2.63,1.07,1.51,1.51,0,0,1-1.62-1.61,3.35,3.35,0,0,1,.09-.68l1.46-5.92H39.36l.12-.47c1.55-.36,2.25-1.39,3-3.17h.46l-.75,3h2.57l-.27.69H42Z"/>
        <path class="cls-1" d="M50.46,1114.8a4.73,4.73,0,0,1-3.88,2.87,1.71,1.71,0,0,1-1.79-1.93,3.73,3.73,0,0,1,.13-1l1-4.2a1.69,1.69,0,0,0,.06-.41c0-.64-.45-1-1-1.3v-.11h2.59l-1.49,6a3.49,3.49,0,0,0-.11.81c0,.76.36,1.24,1.15,1.24,1.52,0,3.3-1.85,4-4.77l.81-3.24h1.15l-1.74,7a1.76,1.76,0,0,0-.06.41c0,.42.29.65.76.65a3.73,3.73,0,0,0,1.15-.23v.18a3.17,3.17,0,0,1-1.91.9,1.11,1.11,0,0,1-1.17-1.25,3.35,3.35,0,0,1,.09-.68Z"/>
        <path class="cls-1" d="M61,1115.76a2.7,2.7,0,0,0-.07.41c0,.43.23.65.72.65a3.68,3.68,0,0,0,1.15-.23v.18a3.17,3.17,0,0,1-1.91.9,1.1,1.1,0,0,1-1.15-1.25,3.27,3.27,0,0,1,.24-1.06,3.69,3.69,0,0,1-3.14,2.31c-1.67,0-2.79-1.28-2.79-3.26,0-3,2.07-5.82,4.74-5.82a2.35,2.35,0,0,1,2.5,1.69,7,7,0,0,1,1.28-1.69h.21Zm-.3-3.39a4.83,4.83,0,0,0,.14-1.06,1.76,1.76,0,0,0-1.91-2c-2.14,0-3.58,2.3-3.58,5.06,0,1.47.68,2.45,1.78,2.45,1.51,0,2.88-1.64,3.39-3.73Z"/>
        <path class="cls-1" d="M65.38,1115.31a2.05,2.05,0,0,0-.07.5c0,.63.4.92,1.15.92a7,7,0,0,0,1.9-.34v.21a5.07,5.07,0,0,1-2.63,1.07,1.51,1.51,0,0,1-1.62-1.61,2.77,2.77,0,0,1,.09-.68l1.45-5.92H64.21l.13-.47c1.55-.36,2.25-1.39,3-3.17h.47l-.75,3h2.57l-.27.69H66.83Z"/>
        <path class="cls-1" d="M70.71,1115.76a2.76,2.76,0,0,0-.07.45c0,.41.27.61.74.61a3.73,3.73,0,0,0,1.15-.23v.18a3.17,3.17,0,0,1-1.91.9,1.09,1.09,0,0,1-1.13-1.23,3.44,3.44,0,0,1,.09-.7l1.28-5.15a2.27,2.27,0,0,0,0-.41c0-.64-.45-1-1-1.3v-.11h2.58Zm1.73-9.13a1,1,0,1,1,1-1A1,1,0,0,1,72.44,1106.63Z"/>
        <path class="cls-1" d="M76.89,1117.67a3.37,3.37,0,0,1-3.44-3.7c0-2.66,1.85-5.38,4.66-5.38a3.36,3.36,0,0,1,3.44,3.69C81.55,1115,79.7,1117.67,76.89,1117.67Zm0-.74c1.89,0,3.36-2.34,3.36-4.85,0-1.69-.61-2.75-2.14-2.75-1.89,0-3.37,2.34-3.37,4.84C74.74,1115.87,75.36,1116.93,76.89,1116.93Z"/>
        <path class="cls-1" d="M82.27,1117.49l1.71-6.9a1.63,1.63,0,0,0,0-.41c0-.64-.45-1-1-1.3v-.11h2.48l-.58,2.68a4.77,4.77,0,0,1,3.89-2.86,1.71,1.71,0,0,1,1.79,1.93,3.85,3.85,0,0,1-.13,1l-1.06,4.29a2.16,2.16,0,0,0-.07.45c0,.39.25.61.73.61a3.78,3.78,0,0,0,1.16-.23v.18a3.2,3.2,0,0,1-1.91.9,1.11,1.11,0,0,1-1.17-1.25,2.89,2.89,0,0,1,.09-.68l1.06-4.21a3.1,3.1,0,0,0,.11-.76,1.09,1.09,0,0,0-1.19-1.24c-1.51,0-3.28,1.87-4,4.7l-.81,3.26Z"/>
        <path class="cls-1" d="M17.54,1189.36a2.76,2.76,0,0,0-.07.45c0,.41.27.61.74.61a3.73,3.73,0,0,0,1.15-.23v.18a3.17,3.17,0,0,1-1.91.9,1.09,1.09,0,0,1-1.13-1.23,2.86,2.86,0,0,1,.09-.7l1.28-5.15a2.27,2.27,0,0,0,0-.41c0-.63-.45-1-1-1.3v-.11h2.58Zm1.73-9.13a1,1,0,1,1,1-1A1,1,0,0,1,19.27,1180.23Z"/>
        <path class="cls-1" d="M20.15,1191.09l1.71-6.9a1.69,1.69,0,0,0,.06-.41c0-.63-.46-1-1-1.3v-.11h2.48l-.57,2.68a4.76,4.76,0,0,1,3.89-2.86,1.71,1.71,0,0,1,1.78,1.93,3.85,3.85,0,0,1-.13,1l-1.06,4.29a3.13,3.13,0,0,0-.07.45c0,.39.25.61.74.61a3.73,3.73,0,0,0,1.15-.23v.18a3.17,3.17,0,0,1-1.91.9A1.12,1.12,0,0,1,26,1190a3.54,3.54,0,0,1,.09-.68l1.06-4.21a2.68,2.68,0,0,0,.11-.76,1.09,1.09,0,0,0-1.19-1.24c-1.51,0-3.27,1.87-4,4.7l-.81,3.26Z"/>
        <path class="cls-1" d="M33,1195H31.83l2.67-10.77a2.27,2.27,0,0,0,0-.41c0-.63-.45-1-1-1.3v-.11H36l-.43,2.13a4,4,0,0,1,3.38-2.31c1.73,0,2.77,1.26,2.77,3.26,0,3-1.87,5.82-4.89,5.82a2.5,2.5,0,0,1-2.51-1.79Zm1.88-7.57a5,5,0,0,0-.11,1,2,2,0,0,0,2,2.18c2.29,0,3.66-2.67,3.66-5.08,0-1.49-.61-2.45-1.87-2.45-1.5,0-3.06,1.62-3.52,3.55Z"/>
        <path class="cls-1" d="M45,1185.4c.81-1.53,1.95-3.21,3.48-3.21a1,1,0,0,1,1.09,1,1.16,1.16,0,0,1-1.22,1.17.91.91,0,0,0,.14-.45c0-.31-.21-.56-.66-.56-1.17,0-2.86,2.32-3.37,4.32l-.86,3.46H42.43l1.71-6.9a1.69,1.69,0,0,0,.06-.41c0-.63-.45-1-1-1.3v-.11h2.58Z"/>
        <path class="cls-1" d="M52.84,1191.27a3.37,3.37,0,0,1-3.44-3.7c0-2.66,1.85-5.38,4.66-5.38a3.36,3.36,0,0,1,3.44,3.69C57.5,1188.55,55.65,1191.27,52.84,1191.27Zm0-.74c1.89,0,3.37-2.34,3.37-4.85,0-1.69-.62-2.75-2.15-2.75-1.89,0-3.36,2.34-3.36,4.84C50.7,1189.46,51.31,1190.53,52.84,1190.53Z"/>
        <path class="cls-1" d="M62.38,1182.89c-1.17,0-1.91.56-1.91,1.44,0,.65.49,1.08,1.8,1.84,1.59.9,2.09,1.55,2.09,2.5,0,1.55-1.46,2.6-3.28,2.6s-3.2-1-3.2-2.13a1,1,0,0,1,1-1,1.45,1.45,0,0,1,.47.07,1.11,1.11,0,0,0-.25.72,1.72,1.72,0,0,0,1.94,1.64c1.15,0,2.14-.52,2.14-1.51,0-.63-.41-1.19-1.71-1.89s-2.16-1.39-2.16-2.49c0-1.42,1.32-2.5,3-2.5s2.83.83,2.83,1.87a1,1,0,0,1-1.12,1,2,2,0,0,1-.36,0,1.13,1.13,0,0,0,.23-.75C64,1183.43,63.37,1182.89,62.38,1182.89Z"/>
        <path class="cls-1" d="M65.71,1187.85c0-2.74,2.09-5.66,4.91-5.66,1.6,0,2.56.74,2.56,2,0,1.88-2.16,2.69-6.12,2.9a5.1,5.1,0,0,0-.06.8c0,1.63.85,2.61,2.33,2.61a3.57,3.57,0,0,0,2.93-1.73l.31.16a3.93,3.93,0,0,1-3.64,2.38C66.88,1191.27,65.71,1189.93,65.71,1187.85Zm1.46-1.41c2.62-.13,4.71-.43,4.71-2.41a1.11,1.11,0,0,0-1.26-1.14C68.79,1182.89,67.56,1184.57,67.17,1186.44Z"/>
        <path class="cls-1" d="M74.56,1191.25a1.07,1.07,0,1,1,1.06-1.06A1.05,1.05,0,0,1,74.56,1191.25Z"/>
      </g>
    </g>
  </g>
</svg>
