<svg xmlns="http://www.w3.org/2000/svg" viewBox="0 0 42.45 61.35">
  <g>
    <g>
      <path d="M36.23,6.09A20.77,20.77,0,0,0,.77,20.78,20.77,20.77,0,0,0,36.23,35.47a20.76,20.76,0,0,0,0-29.38Zm-.7,28.67a19.78,19.78,0,0,1-28,0,19.78,19.78,0,0,1,28-28,19.78,19.78,0,0,1,0,28Z"/>
      <polygon points="31.86 9.75 21.38 20.24 10.89 9.75 10.19 10.46 20.67 20.94 10.19 31.43 10.89 32.13 21.38 21.65 31.86 32.13 32.57 31.43 22.08 20.94 32.57 10.46 31.86 9.75"/>
    </g>
    <g>
      <path d="M9.72,50.86a3.74,3.74,0,0,0-1.43-1.17,4.23,4.23,0,0,0-1.78-.39,4.44,4.44,0,0,0-2,.44A4.78,4.78,0,0,0,3,50.9a5.48,5.48,0,0,0-1,1.7,5.77,5.77,0,0,0-.36,2A5.92,5.92,0,0,0,2,56.71a5.21,5.21,0,0,0,1,1.68,4.67,4.67,0,0,0,3.52,1.55,4.57,4.57,0,0,0,2.1-.46,4.75,4.75,0,0,0,1.61-1.33l1.14,1a5.24,5.24,0,0,1-2.09,1.7,6.73,6.73,0,0,1-2.76.54,6.69,6.69,0,0,1-2.57-.5A6.34,6.34,0,0,1,.5,57.32,7.52,7.52,0,0,1,.48,52a6.49,6.49,0,0,1,1.35-2.14,6.35,6.35,0,0,1,4.68-2A6.9,6.9,0,0,1,9,48.36a4.61,4.61,0,0,1,2,1.54Z"/>
      <path d="M13,47.35H14.4V61H13Z"/>
      <path d="M16.36,56.79A4.63,4.63,0,0,1,16.7,55a4.26,4.26,0,0,1,.94-1.4,4.16,4.16,0,0,1,1.43-.91,5.13,5.13,0,0,1,3.62,0,4.07,4.07,0,0,1,1.43.91,4.26,4.26,0,0,1,.94,1.4,4.63,4.63,0,0,1,.34,1.81,4.56,4.56,0,0,1-.34,1.81,4.26,4.26,0,0,1-.94,1.4,4.09,4.09,0,0,1-1.43.92,5.28,5.28,0,0,1-3.62,0A4.19,4.19,0,0,1,17.64,60a4.26,4.26,0,0,1-.94-1.4A4.56,4.56,0,0,1,16.36,56.79Zm1.52,0a3.79,3.79,0,0,0,.2,1.24,3,3,0,0,0,5,1,2.93,2.93,0,0,0,.61-1,3.55,3.55,0,0,0,.2-1.24,3.58,3.58,0,0,0-.2-1.24,2.9,2.9,0,0,0-1.56-1.66,3.2,3.2,0,0,0-2.48,0,2.78,2.78,0,0,0-.95.67,2.94,2.94,0,0,0-.61,1A3.84,3.84,0,0,0,17.88,56.79Z"/>
      <path d="M27.41,58.8a3.55,3.55,0,0,0,.92.83,2.3,2.3,0,0,0,1.25.31,3.11,3.11,0,0,0,.67-.07,2,2,0,0,0,.6-.24,1.42,1.42,0,0,0,.44-.4,1.13,1.13,0,0,0,.16-.59.89.89,0,0,0-.16-.56,1.19,1.19,0,0,0-.4-.37,2,2,0,0,0-.58-.25l-.67-.16c-.4-.09-.78-.18-1.14-.29a3.61,3.61,0,0,1-.95-.43,2,2,0,0,1-.65-.67,2.14,2.14,0,0,1-.25-1.07,2.18,2.18,0,0,1,.27-1.09,2.59,2.59,0,0,1,.73-.78,3.74,3.74,0,0,1,1-.47,4.51,4.51,0,0,1,1.16-.16,3.88,3.88,0,0,1,1.67.36,2.61,2.61,0,0,1,1.21,1.18l-1.18.78a2.28,2.28,0,0,0-.71-.74,2.06,2.06,0,0,0-1.08-.28,2.46,2.46,0,0,0-.59.08,1.68,1.68,0,0,0-.53.21,1.26,1.26,0,0,0-.39.37,1,1,0,0,0-.15.52.64.64,0,0,0,.17.46,1.46,1.46,0,0,0,.47.34,4.86,4.86,0,0,0,.68.25q.39.1.81.18a8.82,8.82,0,0,1,1.07.28,3.18,3.18,0,0,1,.88.46,2,2,0,0,1,.6.73A2.28,2.28,0,0,1,33,58.58a2.43,2.43,0,0,1-.29,1.23,2.36,2.36,0,0,1-.77.83,3.45,3.45,0,0,1-1.09.46,5.07,5.07,0,0,1-1.24.14,4.84,4.84,0,0,1-1.87-.33,3.42,3.42,0,0,1-1.42-1.24Z"/>
      <path d="M42.14,59.49a4.26,4.26,0,0,1-1.66,1.36,5.25,5.25,0,0,1-2.1.39,4.3,4.3,0,0,1-1.79-.35,4,4,0,0,1-1.35-1,4.19,4.19,0,0,1-.85-1.41,5,5,0,0,1-.3-1.74,4.8,4.8,0,0,1,.33-1.8,4,4,0,0,1,.9-1.41,4,4,0,0,1,1.38-.91,4.48,4.48,0,0,1,1.73-.33,4.3,4.3,0,0,1,1.63.3,3.55,3.55,0,0,1,1.28.87,3.91,3.91,0,0,1,.82,1.39,5.69,5.69,0,0,1,.29,1.87v.46H35.61a2.9,2.9,0,0,0,.26,1,3.11,3.11,0,0,0,.59.87,2.79,2.79,0,0,0,.85.58,2.53,2.53,0,0,0,1.07.22,3.53,3.53,0,0,0,1.56-.32,3.65,3.65,0,0,0,1.14-1ZM40.93,56a2.43,2.43,0,0,0-.71-1.74,2.53,2.53,0,0,0-1.84-.65,2.74,2.74,0,0,0-1.9.65A2.8,2.8,0,0,0,35.61,56Z"/>
    </g>
  </g>
</svg>
